<?xml version="1.0" encoding="utf-8"?>
<svg xmlns="http://www.w3.org/2000/svg" xmlns:xlink="http://www.w3.org/1999/xlink" width="900" height="300" viewBox="0 0 3600 1200">
<defs>
  <clipPath id="clip300">
    <rect x="0" y="0" width="3600" height="1200"/>
  </clipPath>
</defs>
<path clip-path="url(#clip300)" d="M0 1200 L3600 1200 L3600 0 L0 0  Z" fill="#ffffff" fill-rule="evenodd" fill-opacity="1"/>
<defs>
  <clipPath id="clip301">
    <rect x="2524" y="84" width="1024" height="1024"/>
  </clipPath>
</defs>
<defs>
  <clipPath id="clip302">
    <rect x="124" y="84" width="1024" height="1024"/>
  </clipPath>
</defs>
<path clip-path="url(#clip302)" d="M665.3 643.606 L665.3 132.038 L1052.84 354.944 L607.026 548.714 L607.026 1060.28 L219.487 837.376 L665.3 643.606  Z" fill="#ffffff" fill-rule="evenodd" fill-opacity="1"/>
<polyline clip-path="url(#clip302)" style="stroke:#000000; stroke-linecap:round; stroke-linejoin:round; stroke-width:2; stroke-opacity:0.1; fill:none" points="219.487,581.592 607.026,804.498 "/>
<polyline clip-path="url(#clip302)" style="stroke:#000000; stroke-linecap:round; stroke-linejoin:round; stroke-width:2; stroke-opacity:0.1; fill:none" points="1052.84,610.728 607.026,804.498 "/>
<polyline clip-path="url(#clip302)" style="stroke:#000000; stroke-linecap:round; stroke-linejoin:round; stroke-width:2; stroke-opacity:0.1; fill:none" points="442.394,228.923 829.933,451.829 "/>
<polyline clip-path="url(#clip300)" style="stroke:#000000; stroke-linecap:round; stroke-linejoin:round; stroke-width:4; stroke-opacity:1; fill:none" points="859.07,499.275 413.257,693.045 "/>
<polyline clip-path="url(#clip300)" style="stroke:#000000; stroke-linecap:round; stroke-linejoin:round; stroke-width:4; stroke-opacity:1; fill:none" points="408.606,690.37 417.907,695.72 "/>
<path clip-path="url(#clip300)" d="M403.639 775.51 L411.278 775.51 L411.278 749.144 L402.968 750.811 L402.968 746.551 L411.231 744.885 L415.907 744.885 L415.907 775.51 L423.546 775.51 L423.546 779.445 L403.639 779.445 L403.639 775.51 Z" fill="#000000" fill-rule="nonzero" fill-opacity="1" /><polyline clip-path="url(#clip300)" style="stroke:#000000; stroke-linecap:round; stroke-linejoin:round; stroke-width:4; stroke-opacity:1; fill:none" points="442.394,484.707 829.933,707.613 "/>
<polyline clip-path="url(#clip300)" style="stroke:#000000; stroke-linecap:round; stroke-linejoin:round; stroke-width:4; stroke-opacity:1; fill:none" points="835.283,705.288 824.583,709.938 "/>
<path clip-path="url(#clip300)" d="M820.315 790.078 L827.954 790.078 L827.954 763.712 L819.644 765.379 L819.644 761.12 L827.907 759.453 L832.583 759.453 L832.583 790.078 L840.222 790.078 L840.222 794.013 L820.315 794.013 L820.315 790.078 Z" fill="#000000" fill-rule="nonzero" fill-opacity="1" /><polyline clip-path="url(#clip300)" style="stroke:#000000; stroke-linecap:round; stroke-linejoin:round; stroke-width:4; stroke-opacity:1; fill:none" points="636.163,851.944 636.163,340.376 "/>
<polyline clip-path="url(#clip300)" style="stroke:#000000; stroke-linecap:round; stroke-linejoin:round; stroke-width:4; stroke-opacity:1; fill:none" points="631.513,337.701 640.814,343.051 "/>
<path clip-path="url(#clip300)" d="M573.056 353.721 L580.695 353.721 L580.695 327.355 L572.385 329.022 L572.385 324.763 L580.649 323.096 L585.324 323.096 L585.324 353.721 L592.963 353.721 L592.963 357.656 L573.056 357.656 L573.056 353.721 Z" fill="#000000" fill-rule="nonzero" fill-opacity="1" /><path clip-path="url(#clip300)" d="M540.967 31.2961 L522.535 31.2961 Q522.969 39.9477 524.966 43.6225 Q527.454 48.1363 531.766 48.1363 Q536.106 48.1363 538.508 43.5935 Q540.62 39.6005 540.967 31.2961 M540.88 26.3772 Q540.07 18.1596 538.508 15.2661 Q536.019 10.6944 531.766 10.6944 Q527.339 10.6944 524.995 15.2083 Q523.143 18.8541 522.593 26.3772 L540.88 26.3772 M531.766 6.35413 Q538.71 6.35413 542.674 12.4884 Q546.638 18.5937 546.638 29.4154 Q546.638 40.2081 542.674 46.3423 Q538.71 52.5055 531.766 52.5055 Q524.792 52.5055 520.857 46.3423 Q516.893 40.2081 516.893 29.4154 Q516.893 18.5937 520.857 12.4884 Q524.792 6.35413 531.766 6.35413 Z" fill="#000000" fill-rule="nonzero" fill-opacity="1" /><path clip-path="url(#clip300)" d="M574.995 24.9304 L612.089 24.9304 L612.089 29.7915 L574.995 29.7915 L574.995 24.9304 M574.995 36.7359 L612.089 36.7359 L612.089 41.6549 L574.995 41.6549 L574.995 36.7359 Z" fill="#000000" fill-rule="nonzero" fill-opacity="1" /><path clip-path="url(#clip300)" d="M656.042 12.4884 Q651.528 12.4884 649.242 16.9444 Q646.985 21.3714 646.985 30.2834 Q646.985 39.1665 649.242 43.6225 Q651.528 48.0495 656.042 48.0495 Q660.584 48.0495 662.841 43.6225 Q665.127 39.1665 665.127 30.2834 Q665.127 21.3714 662.841 16.9444 Q660.584 12.4884 656.042 12.4884 M656.042 7.85875 Q663.304 7.85875 667.124 13.6168 Q670.972 19.346 670.972 30.2834 Q670.972 41.1919 667.124 46.95 Q663.304 52.6791 656.042 52.6791 Q648.779 52.6791 644.931 46.95 Q641.111 41.1919 641.111 30.2834 Q641.111 19.346 644.931 13.6168 Q648.779 7.85875 656.042 7.85875 Z" fill="#000000" fill-rule="nonzero" fill-opacity="1" /><path clip-path="url(#clip300)" d="M681.244 44.4905 L687.349 44.4905 L687.349 51.84 L681.244 51.84 L681.244 44.4905 Z" fill="#000000" fill-rule="nonzero" fill-opacity="1" /><path clip-path="url(#clip300)" d="M712.581 12.4884 Q708.067 12.4884 705.781 16.9444 Q703.524 21.3714 703.524 30.2834 Q703.524 39.1665 705.781 43.6225 Q708.067 48.0495 712.581 48.0495 Q717.124 48.0495 719.38 43.6225 Q721.666 39.1665 721.666 30.2834 Q721.666 21.3714 719.38 16.9444 Q717.124 12.4884 712.581 12.4884 M712.581 7.85875 Q719.843 7.85875 723.663 13.6168 Q727.511 19.346 727.511 30.2834 Q727.511 41.1919 723.663 46.95 Q719.843 52.6791 712.581 52.6791 Q705.318 52.6791 701.47 46.95 Q697.65 41.1919 697.65 30.2834 Q697.65 19.346 701.47 13.6168 Q705.318 7.85875 712.581 7.85875 Z" fill="#000000" fill-rule="nonzero" fill-opacity="1" /><path clip-path="url(#clip300)" d="M746.261 11.5914 Q743.946 11.5914 742.355 13.2117 Q740.763 14.8032 740.763 17.118 Q740.763 19.4038 742.355 20.9953 Q743.946 22.5577 746.261 22.5577 Q748.576 22.5577 750.167 20.9953 Q751.759 19.4038 751.759 17.118 Q751.759 14.8321 750.138 13.2117 Q748.547 11.5914 746.261 11.5914 M746.261 7.85875 Q748.113 7.85875 749.82 8.58213 Q751.527 9.27657 752.771 10.6076 Q754.102 11.9097 754.768 13.559 Q755.434 15.2083 755.434 17.118 Q755.434 20.9374 752.743 23.5994 Q750.081 26.2325 746.203 26.2325 Q742.297 26.2325 739.693 23.6283 Q737.089 21.0242 737.089 17.118 Q737.089 13.2407 739.751 10.5497 Q742.413 7.85875 746.261 7.85875 Z" fill="#000000" fill-rule="nonzero" fill-opacity="1" /><polyline clip-path="url(#clip302)" style="stroke:#000000; stroke-linecap:round; stroke-linejoin:round; stroke-width:12; stroke-opacity:1; fill:none" points="636.163,596.16 442.394,484.707 "/>
<polyline clip-path="url(#clip302)" style="stroke:#0000ff; stroke-linecap:round; stroke-linejoin:round; stroke-width:8; stroke-opacity:0.0909091; fill:none" points="636.163,596.16 636.163,340.376 "/>
<path clip-path="url(#clip302)" d="M636.163 324.376 L620.163 356.376 L652.163 356.376 L636.163 324.376 Z" fill="#0000ff" fill-rule="evenodd" fill-opacity="0.0909091" stroke="none"/>
<polyline clip-path="url(#clip302)" style="stroke:#0000ff; stroke-linecap:round; stroke-linejoin:round; stroke-width:8; stroke-opacity:0.181818; fill:none" points="636.163,596.16 601.293,358.681 "/>
<path clip-path="url(#clip302)" d="M601.293 342.681 L585.293 374.681 L617.293 374.681 L601.293 342.681 Z" fill="#0000ff" fill-rule="evenodd" fill-opacity="0.181818" stroke="none"/>
<polyline clip-path="url(#clip302)" style="stroke:#0000ff; stroke-linecap:round; stroke-linejoin:round; stroke-width:8; stroke-opacity:0.272727; fill:none" points="636.163,596.16 567.281,382.834 "/>
<path clip-path="url(#clip302)" d="M567.281 366.834 L551.281 398.834 L583.281 398.834 L567.281 366.834 Z" fill="#0000ff" fill-rule="evenodd" fill-opacity="0.272727" stroke="none"/>
<polyline clip-path="url(#clip302)" style="stroke:#0000ff; stroke-linecap:round; stroke-linejoin:round; stroke-width:8; stroke-opacity:0.363636; fill:none" points="636.163,596.16 534.966,412.24 "/>
<path clip-path="url(#clip302)" d="M534.966 396.24 L518.966 428.24 L550.966 428.24 L534.966 396.24 Z" fill="#0000ff" fill-rule="evenodd" fill-opacity="0.363636" stroke="none"/>
<polyline clip-path="url(#clip302)" style="stroke:#0000ff; stroke-linecap:round; stroke-linejoin:round; stroke-width:8; stroke-opacity:0.454545; fill:none" points="636.163,596.16 505.142,446.174 "/>
<path clip-path="url(#clip302)" d="M505.142 430.174 L489.142 462.174 L521.142 462.174 L505.142 430.174 Z" fill="#0000ff" fill-rule="evenodd" fill-opacity="0.454545" stroke="none"/>
<polyline clip-path="url(#clip302)" style="stroke:#0000ff; stroke-linecap:round; stroke-linejoin:round; stroke-width:8; stroke-opacity:0.545455; fill:none" points="636.163,596.16 478.545,483.801 "/>
<path clip-path="url(#clip302)" d="M478.545 467.801 L462.545 499.801 L494.545 499.801 L478.545 467.801 Z" fill="#0000ff" fill-rule="evenodd" fill-opacity="0.545455" stroke="none"/>
<polyline clip-path="url(#clip302)" style="stroke:#0000ff; stroke-linecap:round; stroke-linejoin:round; stroke-width:8; stroke-opacity:0.636364; fill:none" points="636.163,596.16 455.828,524.195 "/>
<path clip-path="url(#clip302)" d="M455.828 508.195 L439.828 540.195 L471.828 540.195 L455.828 508.195 Z" fill="#0000ff" fill-rule="evenodd" fill-opacity="0.636364" stroke="none"/>
<polyline clip-path="url(#clip302)" style="stroke:#0000ff; stroke-linecap:round; stroke-linejoin:round; stroke-width:8; stroke-opacity:0.727273; fill:none" points="636.163,596.16 437.552,566.361 "/>
<path clip-path="url(#clip302)" d="M437.552 550.361 L421.552 582.361 L453.552 582.361 L437.552 550.361 Z" fill="#0000ff" fill-rule="evenodd" fill-opacity="0.727273" stroke="none"/>
<polyline clip-path="url(#clip302)" style="stroke:#0000ff; stroke-linecap:round; stroke-linejoin:round; stroke-width:8; stroke-opacity:0.818182; fill:none" points="636.163,596.16 424.167,609.261 "/>
<path clip-path="url(#clip302)" d="M424.167 593.261 L408.167 625.261 L440.167 625.261 L424.167 593.261 Z" fill="#0000ff" fill-rule="evenodd" fill-opacity="0.818182" stroke="none"/>
<polyline clip-path="url(#clip302)" style="stroke:#0000ff; stroke-linecap:round; stroke-linejoin:round; stroke-width:8; stroke-opacity:0.909091; fill:none" points="636.163,596.16 416.001,651.839 "/>
<path clip-path="url(#clip302)" d="M416.001 635.839 L400.001 667.839 L432.001 667.839 L416.001 635.839 Z" fill="#0000ff" fill-rule="evenodd" fill-opacity="0.909091" stroke="none"/>
<polyline clip-path="url(#clip302)" style="stroke:#0000ff; stroke-linecap:round; stroke-linejoin:round; stroke-width:8; stroke-opacity:1; fill:none" points="636.163,596.16 413.257,693.045 "/>
<path clip-path="url(#clip302)" d="M413.257 677.045 L397.257 709.045 L429.257 709.045 L413.257 677.045 Z" fill="#0000ff" fill-rule="evenodd" fill-opacity="1" stroke="none"/>
<path clip-path="url(#clip300)" d="M377.201 711.303 L365.482 727.073 L377.808 743.71 L371.53 743.71 L362.097 730.979 L352.664 743.71 L346.385 743.71 L358.972 726.754 L347.456 711.303 L353.735 711.303 L362.328 722.848 L370.922 711.303 L377.201 711.303 Z" fill="#000000" fill-rule="nonzero" fill-opacity="1" /><path clip-path="url(#clip300)" d="M885.99 754.513 Q883.733 760.3 881.592 762.065 Q879.451 763.83 875.863 763.83 L871.609 763.83 L871.609 759.374 L874.734 759.374 Q876.933 759.374 878.149 758.332 Q879.364 757.291 880.839 753.414 L881.794 750.983 L868.687 719.097 L874.329 719.097 L884.456 744.444 L894.584 719.097 L900.226 719.097 L885.99 754.513 Z" fill="#000000" fill-rule="nonzero" fill-opacity="1" /><path clip-path="url(#clip300)" d="M623.88 243.852 L649.17 243.852 L649.17 248.713 L629.147 272.006 L649.17 272.006 L649.17 276.259 L623.157 276.259 L623.157 271.398 L643.18 248.105 L623.88 248.105 L623.88 243.852 Z" fill="#000000" fill-rule="nonzero" fill-opacity="1" /><defs>
  <clipPath id="clip303">
    <rect x="1324" y="84" width="1024" height="1024"/>
  </clipPath>
</defs>
<path clip-path="url(#clip303)" d="M1865.3 643.606 L1865.3 132.038 L2252.84 354.944 L1807.03 548.714 L1807.03 1060.28 L1419.49 837.376 L1865.3 643.606  Z" fill="#ffffff" fill-rule="evenodd" fill-opacity="1"/>
<polyline clip-path="url(#clip303)" style="stroke:#000000; stroke-linecap:round; stroke-linejoin:round; stroke-width:2; stroke-opacity:0.1; fill:none" points="1419.49,581.592 1807.03,804.498 "/>
<polyline clip-path="url(#clip303)" style="stroke:#000000; stroke-linecap:round; stroke-linejoin:round; stroke-width:2; stroke-opacity:0.1; fill:none" points="2252.84,610.728 1807.03,804.498 "/>
<polyline clip-path="url(#clip303)" style="stroke:#000000; stroke-linecap:round; stroke-linejoin:round; stroke-width:2; stroke-opacity:0.1; fill:none" points="1642.39,228.923 2029.93,451.829 "/>
<polyline clip-path="url(#clip300)" style="stroke:#000000; stroke-linecap:round; stroke-linejoin:round; stroke-width:4; stroke-opacity:1; fill:none" points="2059.07,499.275 1613.26,693.045 "/>
<polyline clip-path="url(#clip300)" style="stroke:#000000; stroke-linecap:round; stroke-linejoin:round; stroke-width:4; stroke-opacity:1; fill:none" points="1608.61,690.37 1617.91,695.72 "/>
<path clip-path="url(#clip300)" d="M1603.64 775.51 L1611.28 775.51 L1611.28 749.144 L1602.97 750.811 L1602.97 746.551 L1611.23 744.885 L1615.91 744.885 L1615.91 775.51 L1623.55 775.51 L1623.55 779.445 L1603.64 779.445 L1603.64 775.51 Z" fill="#000000" fill-rule="nonzero" fill-opacity="1" /><polyline clip-path="url(#clip300)" style="stroke:#000000; stroke-linecap:round; stroke-linejoin:round; stroke-width:4; stroke-opacity:1; fill:none" points="1642.39,484.707 2029.93,707.613 "/>
<polyline clip-path="url(#clip300)" style="stroke:#000000; stroke-linecap:round; stroke-linejoin:round; stroke-width:4; stroke-opacity:1; fill:none" points="2035.28,705.288 2024.58,709.938 "/>
<path clip-path="url(#clip300)" d="M2020.31 790.078 L2027.95 790.078 L2027.95 763.712 L2019.64 765.379 L2019.64 761.12 L2027.91 759.453 L2032.58 759.453 L2032.58 790.078 L2040.22 790.078 L2040.22 794.013 L2020.31 794.013 L2020.31 790.078 Z" fill="#000000" fill-rule="nonzero" fill-opacity="1" /><polyline clip-path="url(#clip300)" style="stroke:#000000; stroke-linecap:round; stroke-linejoin:round; stroke-width:4; stroke-opacity:1; fill:none" points="1836.16,851.944 1836.16,340.376 "/>
<polyline clip-path="url(#clip300)" style="stroke:#000000; stroke-linecap:round; stroke-linejoin:round; stroke-width:4; stroke-opacity:1; fill:none" points="1831.51,337.701 1840.81,343.051 "/>
<path clip-path="url(#clip300)" d="M1773.06 353.721 L1780.69 353.721 L1780.69 327.355 L1772.38 329.022 L1772.38 324.763 L1780.65 323.096 L1785.32 323.096 L1785.32 353.721 L1792.96 353.721 L1792.96 357.656 L1773.06 357.656 L1773.06 353.721 Z" fill="#000000" fill-rule="nonzero" fill-opacity="1" /><path clip-path="url(#clip300)" d="M1722.12 31.2961 L1703.68 31.2961 Q1704.12 39.9477 1706.11 43.6225 Q1708.6 48.1363 1712.91 48.1363 Q1717.25 48.1363 1719.66 43.5935 Q1721.77 39.6005 1722.12 31.2961 M1722.03 26.3772 Q1721.22 18.1596 1719.66 15.2661 Q1717.17 10.6944 1712.91 10.6944 Q1708.49 10.6944 1706.14 15.2083 Q1704.29 18.8541 1703.74 26.3772 L1722.03 26.3772 M1712.91 6.35413 Q1719.86 6.35413 1723.82 12.4884 Q1727.79 18.5937 1727.79 29.4154 Q1727.79 40.2081 1723.82 46.3423 Q1719.86 52.5055 1712.91 52.5055 Q1705.94 52.5055 1702.01 46.3423 Q1698.04 40.2081 1698.04 29.4154 Q1698.04 18.5937 1702.01 12.4884 Q1705.94 6.35413 1712.91 6.35413 Z" fill="#000000" fill-rule="nonzero" fill-opacity="1" /><path clip-path="url(#clip300)" d="M1756.14 24.9304 L1793.24 24.9304 L1793.24 29.7915 L1756.14 29.7915 L1756.14 24.9304 M1756.14 36.7359 L1793.24 36.7359 L1793.24 41.6549 L1756.14 41.6549 L1756.14 36.7359 Z" fill="#000000" fill-rule="nonzero" fill-opacity="1" /><path clip-path="url(#clip300)" d="M1840.75 13.7326 L1825.99 36.7938 L1840.75 36.7938 L1840.75 13.7326 M1839.22 8.64 L1846.57 8.64 L1846.57 36.7938 L1852.73 36.7938 L1852.73 41.6549 L1846.57 41.6549 L1846.57 51.84 L1840.75 51.84 L1840.75 41.6549 L1821.25 41.6549 L1821.25 36.0125 L1839.22 8.64 Z" fill="#000000" fill-rule="nonzero" fill-opacity="1" /><path clip-path="url(#clip300)" d="M1862.45 8.64 L1885.4 8.64 L1885.4 13.559 L1867.8 13.559 L1867.8 24.1492 Q1869.08 23.7152 1870.35 23.5126 Q1871.62 23.2811 1872.9 23.2811 Q1880.13 23.2811 1884.35 27.2452 Q1888.58 31.2093 1888.58 37.9801 Q1888.58 44.9535 1884.24 48.8308 Q1879.9 52.6791 1872 52.6791 Q1869.28 52.6791 1866.44 52.2162 Q1863.64 51.7532 1860.63 50.8273 L1860.63 44.9535 Q1863.23 46.3713 1866.01 47.0657 Q1868.79 47.7602 1871.88 47.7602 Q1876.89 47.7602 1879.81 45.1271 Q1882.73 42.494 1882.73 37.9801 Q1882.73 33.4663 1879.81 30.8332 Q1876.89 28.2001 1871.88 28.2001 Q1869.54 28.2001 1867.2 28.7209 Q1864.88 29.2417 1862.45 30.3413 L1862.45 8.64 Z" fill="#000000" fill-rule="nonzero" fill-opacity="1" /><path clip-path="url(#clip300)" d="M1900.1 44.4905 L1906.2 44.4905 L1906.2 51.84 L1900.1 51.84 L1900.1 44.4905 Z" fill="#000000" fill-rule="nonzero" fill-opacity="1" /><path clip-path="url(#clip300)" d="M1931.43 12.4884 Q1926.92 12.4884 1924.63 16.9444 Q1922.38 21.3714 1922.38 30.2834 Q1922.38 39.1665 1924.63 43.6225 Q1926.92 48.0495 1931.43 48.0495 Q1935.97 48.0495 1938.23 43.6225 Q1940.52 39.1665 1940.52 30.2834 Q1940.52 21.3714 1938.23 16.9444 Q1935.97 12.4884 1931.43 12.4884 M1931.43 7.85875 Q1938.69 7.85875 1942.51 13.6168 Q1946.36 19.346 1946.36 30.2834 Q1946.36 41.1919 1942.51 46.95 Q1938.69 52.6791 1931.43 52.6791 Q1924.17 52.6791 1920.32 46.95 Q1916.5 41.1919 1916.5 30.2834 Q1916.5 19.346 1920.32 13.6168 Q1924.17 7.85875 1931.43 7.85875 Z" fill="#000000" fill-rule="nonzero" fill-opacity="1" /><path clip-path="url(#clip300)" d="M1965.11 11.5914 Q1962.8 11.5914 1961.21 13.2117 Q1959.61 14.8032 1959.61 17.118 Q1959.61 19.4038 1961.21 20.9953 Q1962.8 22.5577 1965.11 22.5577 Q1967.43 22.5577 1969.02 20.9953 Q1970.61 19.4038 1970.61 17.118 Q1970.61 14.8321 1968.99 13.2117 Q1967.4 11.5914 1965.11 11.5914 M1965.11 7.85875 Q1966.96 7.85875 1968.67 8.58213 Q1970.38 9.27657 1971.62 10.6076 Q1972.95 11.9097 1973.62 13.559 Q1974.28 15.2083 1974.28 17.118 Q1974.28 20.9374 1971.59 23.5994 Q1968.93 26.2325 1965.05 26.2325 Q1961.15 26.2325 1958.54 23.6283 Q1955.94 21.0242 1955.94 17.118 Q1955.94 13.2407 1958.6 10.5497 Q1961.26 7.85875 1965.11 7.85875 Z" fill="#000000" fill-rule="nonzero" fill-opacity="1" /><polyline clip-path="url(#clip303)" style="stroke:#000000; stroke-linecap:round; stroke-linejoin:round; stroke-width:12; stroke-opacity:1; fill:none" points="1836.16,596.16 1856.77,448.843 "/>
<polyline clip-path="url(#clip303)" style="stroke:#ff00ff; stroke-linecap:round; stroke-linejoin:round; stroke-width:8; stroke-opacity:0.0909091; fill:none" points="1836.16,596.16 1836.16,340.376 "/>
<path clip-path="url(#clip303)" d="M1836.16 324.376 L1820.16 356.376 L1852.16 356.376 L1836.16 324.376 Z" fill="#ff00ff" fill-rule="evenodd" fill-opacity="0.0909091" stroke="none"/>
<polyline clip-path="url(#clip303)" style="stroke:#ff00ff; stroke-linecap:round; stroke-linejoin:round; stroke-width:8; stroke-opacity:0.181818; fill:none" points="1836.16,596.16 1790.07,341.914 "/>
<path clip-path="url(#clip303)" d="M1790.07 325.914 L1774.07 357.914 L1806.07 357.914 L1790.07 325.914 Z" fill="#ff00ff" fill-rule="evenodd" fill-opacity="0.181818" stroke="none"/>
<polyline clip-path="url(#clip303)" style="stroke:#ff00ff; stroke-linecap:round; stroke-linejoin:round; stroke-width:8; stroke-opacity:0.272727; fill:none" points="1836.16,596.16 1745.12,349.712 "/>
<path clip-path="url(#clip303)" d="M1745.12 333.712 L1729.12 365.712 L1761.12 365.712 L1745.12 333.712 Z" fill="#ff00ff" fill-rule="evenodd" fill-opacity="0.272727" stroke="none"/>
<polyline clip-path="url(#clip303)" style="stroke:#ff00ff; stroke-linecap:round; stroke-linejoin:round; stroke-width:8; stroke-opacity:0.363636; fill:none" points="1836.16,596.16 1702.4,363.578 "/>
<path clip-path="url(#clip303)" d="M1702.4 347.578 L1686.4 379.578 L1718.4 379.578 L1702.4 347.578 Z" fill="#ff00ff" fill-rule="evenodd" fill-opacity="0.363636" stroke="none"/>
<polyline clip-path="url(#clip303)" style="stroke:#ff00ff; stroke-linecap:round; stroke-linejoin:round; stroke-width:8; stroke-opacity:0.454545; fill:none" points="1836.16,596.16 1662.98,383.171 "/>
<path clip-path="url(#clip303)" d="M1662.98 367.171 L1646.98 399.171 L1678.98 399.171 L1662.98 367.171 Z" fill="#ff00ff" fill-rule="evenodd" fill-opacity="0.454545" stroke="none"/>
<polyline clip-path="url(#clip303)" style="stroke:#ff00ff; stroke-linecap:round; stroke-linejoin:round; stroke-width:8; stroke-opacity:0.545455; fill:none" points="1836.16,596.16 1627.83,408.009 "/>
<path clip-path="url(#clip303)" d="M1627.83 392.009 L1611.83 424.009 L1643.83 424.009 L1627.83 392.009 Z" fill="#ff00ff" fill-rule="evenodd" fill-opacity="0.545455" stroke="none"/>
<polyline clip-path="url(#clip303)" style="stroke:#ff00ff; stroke-linecap:round; stroke-linejoin:round; stroke-width:8; stroke-opacity:0.636364; fill:none" points="1836.16,596.16 1597.8,437.48 "/>
<path clip-path="url(#clip303)" d="M1597.8 421.48 L1581.8 453.48 L1613.8 453.48 L1597.8 421.48 Z" fill="#ff00ff" fill-rule="evenodd" fill-opacity="0.636364" stroke="none"/>
<polyline clip-path="url(#clip303)" style="stroke:#ff00ff; stroke-linecap:round; stroke-linejoin:round; stroke-width:8; stroke-opacity:0.727273; fill:none" points="1836.16,596.16 1573.64,470.858 "/>
<path clip-path="url(#clip303)" d="M1573.64 454.858 L1557.64 486.858 L1589.64 486.858 L1573.64 454.858 Z" fill="#ff00ff" fill-rule="evenodd" fill-opacity="0.727273" stroke="none"/>
<polyline clip-path="url(#clip303)" style="stroke:#ff00ff; stroke-linecap:round; stroke-linejoin:round; stroke-width:8; stroke-opacity:0.818182; fill:none" points="1836.16,596.16 1555.95,507.321 "/>
<path clip-path="url(#clip303)" d="M1555.95 491.321 L1539.95 523.321 L1571.95 523.321 L1555.95 491.321 Z" fill="#ff00ff" fill-rule="evenodd" fill-opacity="0.818182" stroke="none"/>
<polyline clip-path="url(#clip303)" style="stroke:#ff00ff; stroke-linecap:round; stroke-linejoin:round; stroke-width:8; stroke-opacity:0.909091; fill:none" points="1836.16,596.16 1545.16,545.972 "/>
<path clip-path="url(#clip303)" d="M1545.16 529.972 L1529.16 561.972 L1561.16 561.972 L1545.16 529.972 Z" fill="#ff00ff" fill-rule="evenodd" fill-opacity="0.909091" stroke="none"/>
<polyline clip-path="url(#clip303)" style="stroke:#ff00ff; stroke-linecap:round; stroke-linejoin:round; stroke-width:8; stroke-opacity:1; fill:none" points="1836.16,596.16 1541.53,585.859 "/>
<path clip-path="url(#clip303)" d="M1541.53 569.859 L1525.53 601.859 L1557.53 601.859 L1541.53 569.859 Z" fill="#ff00ff" fill-rule="evenodd" fill-opacity="1" stroke="none"/>
<path clip-path="url(#clip300)" d="M1577.2 711.303 L1565.48 727.073 L1577.81 743.71 L1571.53 743.71 L1562.1 730.979 L1552.66 743.71 L1546.39 743.71 L1558.97 726.754 L1547.46 711.303 L1553.73 711.303 L1562.33 722.848 L1570.92 711.303 L1577.2 711.303 Z" fill="#000000" fill-rule="nonzero" fill-opacity="1" /><path clip-path="url(#clip300)" d="M2085.99 754.513 Q2083.73 760.3 2081.59 762.065 Q2079.45 763.83 2075.86 763.83 L2071.61 763.83 L2071.61 759.374 L2074.73 759.374 Q2076.93 759.374 2078.15 758.332 Q2079.36 757.291 2080.84 753.414 L2081.79 750.983 L2068.69 719.097 L2074.33 719.097 L2084.46 744.444 L2094.58 719.097 L2100.23 719.097 L2085.99 754.513 Z" fill="#000000" fill-rule="nonzero" fill-opacity="1" /><path clip-path="url(#clip300)" d="M1823.88 243.852 L1849.17 243.852 L1849.17 248.713 L1829.15 272.006 L1849.17 272.006 L1849.17 276.259 L1823.16 276.259 L1823.16 271.398 L1843.18 248.105 L1823.88 248.105 L1823.88 243.852 Z" fill="#000000" fill-rule="nonzero" fill-opacity="1" /><path clip-path="url(#clip301)" d="M3065.3 643.606 L3065.3 132.038 L3452.84 354.944 L3007.03 548.714 L3007.03 1060.28 L2619.49 837.376 L3065.3 643.606  Z" fill="#ffffff" fill-rule="evenodd" fill-opacity="1"/>
<polyline clip-path="url(#clip301)" style="stroke:#000000; stroke-linecap:round; stroke-linejoin:round; stroke-width:2; stroke-opacity:0.1; fill:none" points="2619.49,581.592 3007.03,804.498 "/>
<polyline clip-path="url(#clip301)" style="stroke:#000000; stroke-linecap:round; stroke-linejoin:round; stroke-width:2; stroke-opacity:0.1; fill:none" points="3452.84,610.728 3007.03,804.498 "/>
<polyline clip-path="url(#clip301)" style="stroke:#000000; stroke-linecap:round; stroke-linejoin:round; stroke-width:2; stroke-opacity:0.1; fill:none" points="2842.39,228.923 3229.93,451.829 "/>
<polyline clip-path="url(#clip300)" style="stroke:#000000; stroke-linecap:round; stroke-linejoin:round; stroke-width:4; stroke-opacity:1; fill:none" points="3259.07,499.275 2813.26,693.045 "/>
<polyline clip-path="url(#clip300)" style="stroke:#000000; stroke-linecap:round; stroke-linejoin:round; stroke-width:4; stroke-opacity:1; fill:none" points="2808.61,690.37 2817.91,695.72 "/>
<path clip-path="url(#clip300)" d="M2803.64 775.51 L2811.28 775.51 L2811.28 749.144 L2802.97 750.811 L2802.97 746.551 L2811.23 744.885 L2815.91 744.885 L2815.91 775.51 L2823.55 775.51 L2823.55 779.445 L2803.64 779.445 L2803.64 775.51 Z" fill="#000000" fill-rule="nonzero" fill-opacity="1" /><polyline clip-path="url(#clip300)" style="stroke:#000000; stroke-linecap:round; stroke-linejoin:round; stroke-width:4; stroke-opacity:1; fill:none" points="2842.39,484.707 3229.93,707.613 "/>
<polyline clip-path="url(#clip300)" style="stroke:#000000; stroke-linecap:round; stroke-linejoin:round; stroke-width:4; stroke-opacity:1; fill:none" points="3235.28,705.288 3224.58,709.938 "/>
<path clip-path="url(#clip300)" d="M3220.31 790.078 L3227.95 790.078 L3227.95 763.712 L3219.64 765.379 L3219.64 761.12 L3227.91 759.453 L3232.58 759.453 L3232.58 790.078 L3240.22 790.078 L3240.22 794.013 L3220.31 794.013 L3220.31 790.078 Z" fill="#000000" fill-rule="nonzero" fill-opacity="1" /><polyline clip-path="url(#clip300)" style="stroke:#000000; stroke-linecap:round; stroke-linejoin:round; stroke-width:4; stroke-opacity:1; fill:none" points="3036.16,851.944 3036.16,340.376 "/>
<polyline clip-path="url(#clip300)" style="stroke:#000000; stroke-linecap:round; stroke-linejoin:round; stroke-width:4; stroke-opacity:1; fill:none" points="3031.51,337.701 3040.81,343.051 "/>
<path clip-path="url(#clip300)" d="M2973.06 353.721 L2980.69 353.721 L2980.69 327.355 L2972.38 329.022 L2972.38 324.763 L2980.65 323.096 L2985.32 323.096 L2985.32 353.721 L2992.96 353.721 L2992.96 357.656 L2973.06 357.656 L2973.06 353.721 Z" fill="#000000" fill-rule="nonzero" fill-opacity="1" /><path clip-path="url(#clip300)" d="M2922.12 31.2961 L2903.68 31.2961 Q2904.12 39.9477 2906.11 43.6225 Q2908.6 48.1363 2912.91 48.1363 Q2917.25 48.1363 2919.66 43.5935 Q2921.77 39.6005 2922.12 31.2961 M2922.03 26.3772 Q2921.22 18.1596 2919.66 15.2661 Q2917.17 10.6944 2912.91 10.6944 Q2908.49 10.6944 2906.14 15.2083 Q2904.29 18.8541 2903.74 26.3772 L2922.03 26.3772 M2912.91 6.35413 Q2919.86 6.35413 2923.82 12.4884 Q2927.79 18.5937 2927.79 29.4154 Q2927.79 40.2081 2923.82 46.3423 Q2919.86 52.5055 2912.91 52.5055 Q2905.94 52.5055 2902.01 46.3423 Q2898.04 40.2081 2898.04 29.4154 Q2898.04 18.5937 2902.01 12.4884 Q2905.94 6.35413 2912.91 6.35413 Z" fill="#000000" fill-rule="nonzero" fill-opacity="1" /><path clip-path="url(#clip300)" d="M2956.14 24.9304 L2993.24 24.9304 L2993.24 29.7915 L2956.14 29.7915 L2956.14 24.9304 M2956.14 36.7359 L2993.24 36.7359 L2993.24 41.6549 L2956.14 41.6549 L2956.14 36.7359 Z" fill="#000000" fill-rule="nonzero" fill-opacity="1" /><path clip-path="url(#clip300)" d="M3024.86 50.943 L3024.86 45.619 Q3027.06 46.6606 3029.32 47.2104 Q3031.58 47.7602 3033.75 47.7602 Q3039.53 47.7602 3042.57 43.8829 Q3045.64 39.9766 3046.07 32.0484 Q3044.4 34.5369 3041.82 35.8679 Q3039.24 37.1989 3036.12 37.1989 Q3029.64 37.1989 3025.85 33.2926 Q3022.09 29.3575 3022.09 22.5577 Q3022.09 15.9027 3026.02 11.8807 Q3029.96 7.85875 3036.5 7.85875 Q3043.99 7.85875 3047.93 13.6168 Q3051.89 19.346 3051.89 30.2834 Q3051.89 40.4975 3047.03 46.6028 Q3042.2 52.6791 3034.01 52.6791 Q3031.81 52.6791 3029.55 52.2451 Q3027.29 51.8111 3024.86 50.943 M3036.5 32.6271 Q3040.43 32.6271 3042.72 29.9362 Q3045.03 27.2452 3045.03 22.5577 Q3045.03 17.8992 3042.72 15.2083 Q3040.43 12.4884 3036.5 12.4884 Q3032.56 12.4884 3030.25 15.2083 Q3027.96 17.8992 3027.96 22.5577 Q3027.96 27.2452 3030.25 29.9362 Q3032.56 32.6271 3036.5 32.6271 Z" fill="#000000" fill-rule="nonzero" fill-opacity="1" /><path clip-path="url(#clip300)" d="M3074.89 12.4884 Q3070.38 12.4884 3068.09 16.9444 Q3065.84 21.3714 3065.84 30.2834 Q3065.84 39.1665 3068.09 43.6225 Q3070.38 48.0495 3074.89 48.0495 Q3079.44 48.0495 3081.69 43.6225 Q3083.98 39.1665 3083.98 30.2834 Q3083.98 21.3714 3081.69 16.9444 Q3079.44 12.4884 3074.89 12.4884 M3074.89 7.85875 Q3082.16 7.85875 3085.97 13.6168 Q3089.82 19.346 3089.82 30.2834 Q3089.82 41.1919 3085.97 46.95 Q3082.16 52.6791 3074.89 52.6791 Q3067.63 52.6791 3063.78 46.95 Q3059.96 41.1919 3059.96 30.2834 Q3059.96 19.346 3063.78 13.6168 Q3067.63 7.85875 3074.89 7.85875 Z" fill="#000000" fill-rule="nonzero" fill-opacity="1" /><path clip-path="url(#clip300)" d="M3100.1 44.4905 L3106.2 44.4905 L3106.2 51.84 L3100.1 51.84 L3100.1 44.4905 Z" fill="#000000" fill-rule="nonzero" fill-opacity="1" /><path clip-path="url(#clip300)" d="M3131.43 12.4884 Q3126.92 12.4884 3124.63 16.9444 Q3122.38 21.3714 3122.38 30.2834 Q3122.38 39.1665 3124.63 43.6225 Q3126.92 48.0495 3131.43 48.0495 Q3135.97 48.0495 3138.23 43.6225 Q3140.52 39.1665 3140.52 30.2834 Q3140.52 21.3714 3138.23 16.9444 Q3135.97 12.4884 3131.43 12.4884 M3131.43 7.85875 Q3138.69 7.85875 3142.51 13.6168 Q3146.36 19.346 3146.36 30.2834 Q3146.36 41.1919 3142.51 46.95 Q3138.69 52.6791 3131.43 52.6791 Q3124.17 52.6791 3120.32 46.95 Q3116.5 41.1919 3116.5 30.2834 Q3116.5 19.346 3120.32 13.6168 Q3124.17 7.85875 3131.43 7.85875 Z" fill="#000000" fill-rule="nonzero" fill-opacity="1" /><path clip-path="url(#clip300)" d="M3165.11 11.5914 Q3162.8 11.5914 3161.21 13.2117 Q3159.61 14.8032 3159.61 17.118 Q3159.61 19.4038 3161.21 20.9953 Q3162.8 22.5577 3165.11 22.5577 Q3167.43 22.5577 3169.02 20.9953 Q3170.61 19.4038 3170.61 17.118 Q3170.61 14.8321 3168.99 13.2117 Q3167.4 11.5914 3165.11 11.5914 M3165.11 7.85875 Q3166.96 7.85875 3168.67 8.58213 Q3170.38 9.27657 3171.62 10.6076 Q3172.95 11.9097 3173.62 13.559 Q3174.28 15.2083 3174.28 17.118 Q3174.28 20.9374 3171.59 23.5994 Q3168.93 26.2325 3165.05 26.2325 Q3161.15 26.2325 3158.54 23.6283 Q3155.94 21.0242 3155.94 17.118 Q3155.94 13.2407 3158.6 10.5497 Q3161.26 7.85875 3165.11 7.85875 Z" fill="#000000" fill-rule="nonzero" fill-opacity="1" /><polyline clip-path="url(#clip301)" style="stroke:#000000; stroke-linecap:round; stroke-linejoin:round; stroke-width:12; stroke-opacity:1; fill:none" points="3036.16,596.16 3259.07,499.275 "/>
<polyline clip-path="url(#clip301)" style="stroke:#ff0000; stroke-linecap:round; stroke-linejoin:round; stroke-width:8; stroke-opacity:0.0909091; fill:none" points="3036.16,596.16 3036.16,340.376 "/>
<path clip-path="url(#clip301)" d="M3036.16 324.376 L3020.16 356.376 L3052.16 356.376 L3036.16 324.376 Z" fill="#ff0000" fill-rule="evenodd" fill-opacity="0.0909091" stroke="none"/>
<polyline clip-path="url(#clip301)" style="stroke:#ff0000; stroke-linecap:round; stroke-linejoin:round; stroke-width:8; stroke-opacity:0.181818; fill:none" points="3036.16,596.16 3005.85,326.09 "/>
<path clip-path="url(#clip301)" d="M3005.85 310.09 L2989.85 342.09 L3021.85 342.09 L3005.85 310.09 Z" fill="#ff0000" fill-rule="evenodd" fill-opacity="0.181818" stroke="none"/>
<polyline clip-path="url(#clip301)" style="stroke:#ff0000; stroke-linecap:round; stroke-linejoin:round; stroke-width:8; stroke-opacity:0.272727; fill:none" points="3036.16,596.16 2976.29,318.454 "/>
<path clip-path="url(#clip301)" d="M2976.29 302.454 L2960.29 334.454 L2992.29 334.454 L2976.29 302.454 Z" fill="#ff0000" fill-rule="evenodd" fill-opacity="0.272727" stroke="none"/>
<polyline clip-path="url(#clip301)" style="stroke:#ff0000; stroke-linecap:round; stroke-linejoin:round; stroke-width:8; stroke-opacity:0.363636; fill:none" points="3036.16,596.16 2948.19,317.656 "/>
<path clip-path="url(#clip301)" d="M2948.19 301.656 L2932.19 333.656 L2964.19 333.656 L2948.19 301.656 Z" fill="#ff0000" fill-rule="evenodd" fill-opacity="0.363636" stroke="none"/>
<polyline clip-path="url(#clip301)" style="stroke:#ff0000; stroke-linecap:round; stroke-linejoin:round; stroke-width:8; stroke-opacity:0.454545; fill:none" points="3036.16,596.16 2922.27,323.716 "/>
<path clip-path="url(#clip301)" d="M2922.27 307.716 L2906.27 339.716 L2938.27 339.716 L2922.27 307.716 Z" fill="#ff0000" fill-rule="evenodd" fill-opacity="0.454545" stroke="none"/>
<polyline clip-path="url(#clip301)" style="stroke:#ff0000; stroke-linecap:round; stroke-linejoin:round; stroke-width:8; stroke-opacity:0.545455; fill:none" points="3036.16,596.16 2899.15,336.484 "/>
<path clip-path="url(#clip301)" d="M2899.15 320.484 L2883.15 352.484 L2915.15 352.484 L2899.15 320.484 Z" fill="#ff0000" fill-rule="evenodd" fill-opacity="0.545455" stroke="none"/>
<polyline clip-path="url(#clip301)" style="stroke:#ff0000; stroke-linecap:round; stroke-linejoin:round; stroke-width:8; stroke-opacity:0.636364; fill:none" points="3036.16,596.16 2879.4,355.646 "/>
<path clip-path="url(#clip301)" d="M2879.4 339.646 L2863.4 371.646 L2895.4 371.646 L2879.4 339.646 Z" fill="#ff0000" fill-rule="evenodd" fill-opacity="0.636364" stroke="none"/>
<polyline clip-path="url(#clip301)" style="stroke:#ff0000; stroke-linecap:round; stroke-linejoin:round; stroke-width:8; stroke-opacity:0.727273; fill:none" points="3036.16,596.16 2863.51,380.731 "/>
<path clip-path="url(#clip301)" d="M2863.51 364.731 L2847.51 396.731 L2879.51 396.731 L2863.51 364.731 Z" fill="#ff0000" fill-rule="evenodd" fill-opacity="0.727273" stroke="none"/>
<polyline clip-path="url(#clip301)" style="stroke:#ff0000; stroke-linecap:round; stroke-linejoin:round; stroke-width:8; stroke-opacity:0.818182; fill:none" points="3036.16,596.16 2851.88,411.12 "/>
<path clip-path="url(#clip301)" d="M2851.88 395.12 L2835.88 427.12 L2867.88 427.12 L2851.88 395.12 Z" fill="#ff0000" fill-rule="evenodd" fill-opacity="0.818182" stroke="none"/>
<polyline clip-path="url(#clip301)" style="stroke:#ff0000; stroke-linecap:round; stroke-linejoin:round; stroke-width:8; stroke-opacity:0.909091; fill:none" points="3036.16,596.16 2844.78,446.066 "/>
<path clip-path="url(#clip301)" d="M2844.78 430.066 L2828.78 462.066 L2860.78 462.066 L2844.78 430.066 Z" fill="#ff0000" fill-rule="evenodd" fill-opacity="0.909091" stroke="none"/>
<polyline clip-path="url(#clip301)" style="stroke:#ff0000; stroke-linecap:round; stroke-linejoin:round; stroke-width:8; stroke-opacity:1; fill:none" points="3036.16,596.16 2842.39,484.707 "/>
<path clip-path="url(#clip301)" d="M2842.39 468.707 L2826.39 500.707 L2858.39 500.707 L2842.39 468.707 Z" fill="#ff0000" fill-rule="evenodd" fill-opacity="1" stroke="none"/>
<path clip-path="url(#clip300)" d="M2777.2 711.303 L2765.48 727.073 L2777.81 743.71 L2771.53 743.71 L2762.1 730.979 L2752.66 743.71 L2746.39 743.71 L2758.97 726.754 L2747.46 711.303 L2753.73 711.303 L2762.33 722.848 L2770.92 711.303 L2777.2 711.303 Z" fill="#000000" fill-rule="nonzero" fill-opacity="1" /><path clip-path="url(#clip300)" d="M3285.99 754.513 Q3283.73 760.3 3281.59 762.065 Q3279.45 763.83 3275.86 763.83 L3271.61 763.83 L3271.61 759.374 L3274.73 759.374 Q3276.93 759.374 3278.15 758.332 Q3279.36 757.291 3280.84 753.414 L3281.79 750.983 L3268.69 719.097 L3274.33 719.097 L3284.46 744.444 L3294.58 719.097 L3300.23 719.097 L3285.99 754.513 Z" fill="#000000" fill-rule="nonzero" fill-opacity="1" /><path clip-path="url(#clip300)" d="M3023.88 243.852 L3049.17 243.852 L3049.17 248.713 L3029.15 272.006 L3049.17 272.006 L3049.17 276.259 L3023.16 276.259 L3023.16 271.398 L3043.18 248.105 L3023.88 248.105 L3023.88 243.852 Z" fill="#000000" fill-rule="nonzero" fill-opacity="1" /></svg>
