<?xml version="1.0" encoding="utf-8"?>
<svg xmlns="http://www.w3.org/2000/svg" xmlns:xlink="http://www.w3.org/1999/xlink" width="600" height="400" viewBox="0 0 2400 1600">
<defs>
  <clipPath id="clip350">
    <rect x="0" y="0" width="2400" height="1600"/>
  </clipPath>
</defs>
<path clip-path="url(#clip350)" d="M0 1600 L2400 1600 L2400 0 L0 0  Z" fill="#ffffff" fill-rule="evenodd" fill-opacity="1"/>
<defs>
  <clipPath id="clip351">
    <rect x="265" y="119" width="2089" height="1305"/>
  </clipPath>
</defs>
<path clip-path="url(#clip350)" d="M265.144 1423.18 L2352.76 1423.18 L2352.76 119.152 L265.144 119.152  Z" fill="#ffffff" fill-rule="evenodd" fill-opacity="1"/>
<polyline clip-path="url(#clip351)" style="stroke:#000000; stroke-linecap:round; stroke-linejoin:round; stroke-width:2; stroke-opacity:0.1; fill:none" points="265.144,1423.18 265.144,119.152 "/>
<polyline clip-path="url(#clip351)" style="stroke:#000000; stroke-linecap:round; stroke-linejoin:round; stroke-width:2; stroke-opacity:0.1; fill:none" points="1308.95,1423.18 1308.95,119.152 "/>
<polyline clip-path="url(#clip351)" style="stroke:#000000; stroke-linecap:round; stroke-linejoin:round; stroke-width:2; stroke-opacity:0.1; fill:none" points="2352.76,1423.18 2352.76,119.152 "/>
<polyline clip-path="url(#clip351)" style="stroke:#000000; stroke-linecap:round; stroke-linejoin:round; stroke-width:2; stroke-opacity:0.1; fill:none" points="265.144,1423.18 2352.76,1423.18 "/>
<polyline clip-path="url(#clip351)" style="stroke:#000000; stroke-linecap:round; stroke-linejoin:round; stroke-width:2; stroke-opacity:0.1; fill:none" points="265.144,771.166 2352.76,771.166 "/>
<polyline clip-path="url(#clip351)" style="stroke:#000000; stroke-linecap:round; stroke-linejoin:round; stroke-width:2; stroke-opacity:0.1; fill:none" points="265.144,119.152 2352.76,119.152 "/>
<polyline clip-path="url(#clip350)" style="stroke:#000000; stroke-linecap:round; stroke-linejoin:round; stroke-width:4; stroke-opacity:1; fill:none" points="265.144,1423.18 2352.76,1423.18 "/>
<polyline clip-path="url(#clip350)" style="stroke:#000000; stroke-linecap:round; stroke-linejoin:round; stroke-width:4; stroke-opacity:1; fill:none" points="265.144,1423.18 265.144,1404.28 "/>
<polyline clip-path="url(#clip350)" style="stroke:#000000; stroke-linecap:round; stroke-linejoin:round; stroke-width:4; stroke-opacity:1; fill:none" points="1308.95,1423.18 1308.95,1404.28 "/>
<polyline clip-path="url(#clip350)" style="stroke:#000000; stroke-linecap:round; stroke-linejoin:round; stroke-width:4; stroke-opacity:1; fill:none" points="2352.76,1423.18 2352.76,1404.28 "/>
<path clip-path="url(#clip350)" d="M265.144 1454.1 Q261.533 1454.1 259.704 1457.66 Q257.898 1461.2 257.898 1468.33 Q257.898 1475.44 259.704 1479.01 Q261.533 1482.55 265.144 1482.55 Q268.778 1482.55 270.584 1479.01 Q272.412 1475.44 272.412 1468.33 Q272.412 1461.2 270.584 1457.66 Q268.778 1454.1 265.144 1454.1 M265.144 1450.39 Q270.954 1450.39 274.009 1455 Q277.088 1459.58 277.088 1468.33 Q277.088 1477.06 274.009 1481.67 Q270.954 1486.25 265.144 1486.25 Q259.334 1486.25 256.255 1481.67 Q253.199 1477.06 253.199 1468.33 Q253.199 1459.58 256.255 1455 Q259.334 1450.39 265.144 1450.39 Z" fill="#000000" fill-rule="nonzero" fill-opacity="1" /><path clip-path="url(#clip350)" d="M1299.23 1451.02 L1317.58 1451.02 L1317.58 1454.96 L1303.51 1454.96 L1303.51 1463.43 Q1304.53 1463.08 1305.55 1462.92 Q1306.57 1462.73 1307.58 1462.73 Q1313.37 1462.73 1316.75 1465.9 Q1320.13 1469.08 1320.13 1474.49 Q1320.13 1480.07 1316.66 1483.17 Q1313.19 1486.25 1306.87 1486.25 Q1304.69 1486.25 1302.42 1485.88 Q1300.18 1485.51 1297.77 1484.77 L1297.77 1480.07 Q1299.85 1481.2 1302.07 1481.76 Q1304.3 1482.32 1306.77 1482.32 Q1310.78 1482.32 1313.12 1480.21 Q1315.45 1478.1 1315.45 1474.49 Q1315.45 1470.88 1313.12 1468.77 Q1310.78 1466.67 1306.77 1466.67 Q1304.9 1466.67 1303.02 1467.08 Q1301.17 1467.5 1299.23 1468.38 L1299.23 1451.02 Z" fill="#000000" fill-rule="nonzero" fill-opacity="1" /><path clip-path="url(#clip350)" d="M2327.44 1481.64 L2335.08 1481.64 L2335.08 1455.28 L2326.77 1456.95 L2326.77 1452.69 L2335.04 1451.02 L2339.71 1451.02 L2339.71 1481.64 L2347.35 1481.64 L2347.35 1485.58 L2327.44 1485.58 L2327.44 1481.64 Z" fill="#000000" fill-rule="nonzero" fill-opacity="1" /><path clip-path="url(#clip350)" d="M2366.8 1454.1 Q2363.18 1454.1 2361.36 1457.66 Q2359.55 1461.2 2359.55 1468.33 Q2359.55 1475.44 2361.36 1479.01 Q2363.18 1482.55 2366.8 1482.55 Q2370.43 1482.55 2372.23 1479.01 Q2374.06 1475.44 2374.06 1468.33 Q2374.06 1461.2 2372.23 1457.66 Q2370.43 1454.1 2366.8 1454.1 M2366.8 1450.39 Q2372.61 1450.39 2375.66 1455 Q2378.74 1459.58 2378.74 1468.33 Q2378.74 1477.06 2375.66 1481.67 Q2372.61 1486.25 2366.8 1486.25 Q2360.99 1486.25 2357.91 1481.67 Q2354.85 1477.06 2354.85 1468.33 Q2354.85 1459.58 2357.91 1455 Q2360.99 1450.39 2366.8 1450.39 Z" fill="#000000" fill-rule="nonzero" fill-opacity="1" /><path clip-path="url(#clip350)" d="M1186.63 1520.52 L1226.83 1520.52 L1226.83 1525.93 L1209.96 1525.93 L1209.96 1568.04 L1203.5 1568.04 L1203.5 1525.93 L1186.63 1525.93 L1186.63 1520.52 Z" fill="#000000" fill-rule="nonzero" fill-opacity="1" /><path clip-path="url(#clip350)" d="M1233.04 1520.52 L1263.08 1520.52 L1263.08 1525.93 L1239.47 1525.93 L1239.47 1540 L1262.1 1540 L1262.1 1545.41 L1239.47 1545.41 L1239.47 1562.63 L1263.66 1562.63 L1263.66 1568.04 L1233.04 1568.04 L1233.04 1520.52 Z" fill="#000000" fill-rule="nonzero" fill-opacity="1" /><path clip-path="url(#clip350)" d="M1294.15 1518.52 L1307.64 1518.52 L1307.64 1523.07 L1300.01 1523.07 L1300.01 1572.09 L1307.64 1572.09 L1307.64 1576.64 L1294.15 1576.64 L1294.15 1518.52 Z" fill="#000000" fill-rule="nonzero" fill-opacity="1" /><path clip-path="url(#clip350)" d="M1347.88 1539.24 Q1350.07 1535.29 1353.13 1533.41 Q1356.18 1531.54 1360.32 1531.54 Q1365.89 1531.54 1368.91 1535.45 Q1371.94 1539.33 1371.94 1546.53 L1371.94 1568.04 L1366.05 1568.04 L1366.05 1546.72 Q1366.05 1541.59 1364.24 1539.11 Q1362.42 1536.63 1358.7 1536.63 Q1354.15 1536.63 1351.5 1539.65 Q1348.86 1542.68 1348.86 1547.9 L1348.86 1568.04 L1342.97 1568.04 L1342.97 1546.72 Q1342.97 1541.56 1341.16 1539.11 Q1339.35 1536.63 1335.56 1536.63 Q1331.07 1536.63 1328.43 1539.68 Q1325.79 1542.71 1325.79 1547.9 L1325.79 1568.04 L1319.9 1568.04 L1319.9 1532.4 L1325.79 1532.4 L1325.79 1537.93 Q1327.79 1534.66 1330.59 1533.1 Q1333.39 1531.54 1337.25 1531.54 Q1341.13 1531.54 1343.83 1533.51 Q1346.57 1535.48 1347.88 1539.24 Z" fill="#000000" fill-rule="nonzero" fill-opacity="1" /><path clip-path="url(#clip350)" d="M1406.35 1533.45 L1406.35 1538.98 Q1403.86 1537.71 1401.19 1537.07 Q1398.52 1536.44 1395.65 1536.44 Q1391.29 1536.44 1389.09 1537.77 Q1386.93 1539.11 1386.93 1541.79 Q1386.93 1543.82 1388.49 1545 Q1390.05 1546.15 1394.76 1547.2 L1396.76 1547.64 Q1403 1548.98 1405.61 1551.43 Q1408.25 1553.85 1408.25 1558.21 Q1408.25 1563.17 1404.31 1566.07 Q1400.39 1568.97 1393.52 1568.97 Q1390.65 1568.97 1387.53 1568.39 Q1384.45 1567.85 1381.01 1566.74 L1381.01 1560.69 Q1384.26 1562.38 1387.41 1563.24 Q1390.56 1564.07 1393.65 1564.07 Q1397.78 1564.07 1400.01 1562.66 Q1402.24 1561.23 1402.24 1558.65 Q1402.24 1556.27 1400.62 1554.99 Q1399.02 1553.72 1393.58 1552.54 L1391.54 1552.07 Q1386.1 1550.92 1383.68 1548.56 Q1381.26 1546.18 1381.26 1542.04 Q1381.26 1537.01 1384.83 1534.27 Q1388.39 1531.54 1394.95 1531.54 Q1398.2 1531.54 1401.06 1532.01 Q1403.93 1532.49 1406.35 1533.45 Z" fill="#000000" fill-rule="nonzero" fill-opacity="1" /><path clip-path="url(#clip350)" d="M1431.27 1518.52 L1431.27 1576.64 L1417.77 1576.64 L1417.77 1572.09 L1425.38 1572.09 L1425.38 1523.07 L1417.77 1523.07 L1417.77 1518.52 L1431.27 1518.52 Z" fill="#000000" fill-rule="nonzero" fill-opacity="1" /><polyline clip-path="url(#clip350)" style="stroke:#000000; stroke-linecap:round; stroke-linejoin:round; stroke-width:4; stroke-opacity:1; fill:none" points="265.144,1423.18 265.144,119.152 "/>
<polyline clip-path="url(#clip350)" style="stroke:#000000; stroke-linecap:round; stroke-linejoin:round; stroke-width:4; stroke-opacity:1; fill:none" points="265.144,1423.18 284.041,1423.18 "/>
<polyline clip-path="url(#clip350)" style="stroke:#000000; stroke-linecap:round; stroke-linejoin:round; stroke-width:4; stroke-opacity:1; fill:none" points="265.144,771.166 284.041,771.166 "/>
<polyline clip-path="url(#clip350)" style="stroke:#000000; stroke-linecap:round; stroke-linejoin:round; stroke-width:4; stroke-opacity:1; fill:none" points="265.144,119.152 284.041,119.152 "/>
<path clip-path="url(#clip350)" d="M114.26 1425.58 L126.737 1425.58 L126.737 1429.37 L114.26 1429.37 L114.26 1425.58 Z" fill="#000000" fill-rule="nonzero" fill-opacity="1" /><path clip-path="url(#clip350)" d="M134.931 1436.52 L142.57 1436.52 L142.57 1410.16 L134.26 1411.83 L134.26 1407.57 L142.524 1405.9 L147.2 1405.9 L147.2 1436.52 L154.839 1436.52 L154.839 1440.46 L134.931 1440.46 L134.931 1436.52 Z" fill="#000000" fill-rule="nonzero" fill-opacity="1" /><path clip-path="url(#clip350)" d="M160.927 1414.53 L185.764 1414.53 L185.764 1418.79 L182.501 1418.79 L182.501 1434.72 Q182.501 1436.39 183.056 1437.13 Q183.635 1437.84 184.908 1437.84 Q185.255 1437.84 185.764 1437.8 Q186.274 1437.73 186.436 1437.71 L186.436 1440.78 Q185.626 1441.08 184.769 1441.22 Q183.913 1441.36 183.056 1441.36 Q180.278 1441.36 179.214 1439.86 Q178.149 1438.33 178.149 1434.26 L178.149 1418.79 L168.589 1418.79 L168.589 1440.46 L164.237 1440.46 L164.237 1418.79 L160.927 1418.79 L160.927 1414.53 Z" fill="#000000" fill-rule="nonzero" fill-opacity="1" /><path clip-path="url(#clip350)" d="M199.792 1405.9 L203.727 1405.9 L191.69 1444.86 L187.755 1444.86 L199.792 1405.9 Z" fill="#000000" fill-rule="nonzero" fill-opacity="1" /><path clip-path="url(#clip350)" d="M212.824 1436.52 L229.144 1436.52 L229.144 1440.46 L207.199 1440.46 L207.199 1436.52 Q209.861 1433.77 214.445 1429.14 Q219.051 1424.49 220.232 1423.15 Q222.477 1420.62 223.357 1418.89 Q224.26 1417.13 224.26 1415.44 Q224.26 1412.68 222.315 1410.95 Q220.394 1409.21 217.292 1409.21 Q215.093 1409.21 212.639 1409.97 Q210.209 1410.74 207.431 1412.29 L207.431 1407.57 Q210.255 1406.43 212.709 1405.85 Q215.162 1405.27 217.199 1405.27 Q222.57 1405.27 225.764 1407.96 Q228.959 1410.65 228.959 1415.14 Q228.959 1417.27 228.148 1419.19 Q227.361 1421.08 225.255 1423.68 Q224.676 1424.35 221.574 1427.57 Q218.473 1430.76 212.824 1436.52 Z" fill="#000000" fill-rule="nonzero" fill-opacity="1" /><path clip-path="url(#clip350)" d="M144.121 756.965 Q140.51 756.965 138.681 760.529 Q136.876 764.071 136.876 771.201 Q136.876 778.307 138.681 781.872 Q140.51 785.414 144.121 785.414 Q147.755 785.414 149.561 781.872 Q151.39 778.307 151.39 771.201 Q151.39 764.071 149.561 760.529 Q147.755 756.965 144.121 756.965 M144.121 753.261 Q149.931 753.261 152.987 757.867 Q156.065 762.451 156.065 771.201 Q156.065 779.928 152.987 784.534 Q149.931 789.117 144.121 789.117 Q138.311 789.117 135.232 784.534 Q132.177 779.928 132.177 771.201 Q132.177 762.451 135.232 757.867 Q138.311 753.261 144.121 753.261 Z" fill="#000000" fill-rule="nonzero" fill-opacity="1" /><path clip-path="url(#clip350)" d="M160.927 762.52 L185.764 762.52 L185.764 766.779 L182.501 766.779 L182.501 782.705 Q182.501 784.372 183.056 785.113 Q183.635 785.83 184.908 785.83 Q185.255 785.83 185.764 785.784 Q186.274 785.715 186.436 785.691 L186.436 788.77 Q185.626 789.071 184.769 789.21 Q183.913 789.349 183.056 789.349 Q180.278 789.349 179.214 787.844 Q178.149 786.316 178.149 782.242 L178.149 766.779 L168.589 766.779 L168.589 788.446 L164.237 788.446 L164.237 766.779 L160.927 766.779 L160.927 762.52 Z" fill="#000000" fill-rule="nonzero" fill-opacity="1" /><path clip-path="url(#clip350)" d="M199.792 753.886 L203.727 753.886 L191.69 792.844 L187.755 792.844 L199.792 753.886 Z" fill="#000000" fill-rule="nonzero" fill-opacity="1" /><path clip-path="url(#clip350)" d="M212.824 784.511 L229.144 784.511 L229.144 788.446 L207.199 788.446 L207.199 784.511 Q209.861 781.756 214.445 777.127 Q219.051 772.474 220.232 771.131 Q222.477 768.608 223.357 766.872 Q224.26 765.113 224.26 763.423 Q224.26 760.668 222.315 758.932 Q220.394 757.196 217.292 757.196 Q215.093 757.196 212.639 757.96 Q210.209 758.724 207.431 760.275 L207.431 755.553 Q210.255 754.418 212.709 753.84 Q215.162 753.261 217.199 753.261 Q222.57 753.261 225.764 755.946 Q228.959 758.631 228.959 763.122 Q228.959 765.252 228.148 767.173 Q227.361 769.071 225.255 771.664 Q224.676 772.335 221.574 775.553 Q218.473 778.747 212.824 784.511 Z" fill="#000000" fill-rule="nonzero" fill-opacity="1" /><path clip-path="url(#clip350)" d="M134.931 132.497 L142.57 132.497 L142.57 106.131 L134.26 107.798 L134.26 103.539 L142.524 101.872 L147.2 101.872 L147.2 132.497 L154.839 132.497 L154.839 136.432 L134.931 136.432 L134.931 132.497 Z" fill="#000000" fill-rule="nonzero" fill-opacity="1" /><path clip-path="url(#clip350)" d="M160.927 110.506 L185.764 110.506 L185.764 114.766 L182.501 114.766 L182.501 130.691 Q182.501 132.358 183.056 133.099 Q183.635 133.816 184.908 133.816 Q185.255 133.816 185.764 133.77 Q186.274 133.701 186.436 133.678 L186.436 136.756 Q185.626 137.057 184.769 137.196 Q183.913 137.335 183.056 137.335 Q180.278 137.335 179.214 135.83 Q178.149 134.303 178.149 130.228 L178.149 114.766 L168.589 114.766 L168.589 136.432 L164.237 136.432 L164.237 114.766 L160.927 114.766 L160.927 110.506 Z" fill="#000000" fill-rule="nonzero" fill-opacity="1" /><path clip-path="url(#clip350)" d="M199.792 101.872 L203.727 101.872 L191.69 140.83 L187.755 140.83 L199.792 101.872 Z" fill="#000000" fill-rule="nonzero" fill-opacity="1" /><path clip-path="url(#clip350)" d="M212.824 132.497 L229.144 132.497 L229.144 136.432 L207.199 136.432 L207.199 132.497 Q209.861 129.742 214.445 125.113 Q219.051 120.46 220.232 119.117 Q222.477 116.594 223.357 114.858 Q224.26 113.099 224.26 111.409 Q224.26 108.654 222.315 106.918 Q220.394 105.182 217.292 105.182 Q215.093 105.182 212.639 105.946 Q210.209 106.71 207.431 108.261 L207.431 103.539 Q210.255 102.405 212.709 101.826 Q215.162 101.247 217.199 101.247 Q222.57 101.247 225.764 103.932 Q228.959 106.617 228.959 111.108 Q228.959 113.238 228.148 115.159 Q227.361 117.057 225.255 119.65 Q224.676 120.321 221.574 123.539 Q218.473 126.733 212.824 132.497 Z" fill="#000000" fill-rule="nonzero" fill-opacity="1" /><path clip-path="url(#clip350)" d="M58.657 947.719 L77.5631 947.719 L77.5631 953.607 L28.3562 953.607 L28.3562 947.719 L33.7671 947.719 Q30.5842 945.873 29.0564 943.072 Q27.4968 940.239 27.4968 936.324 Q27.4968 929.831 32.6531 925.789 Q37.8093 921.715 46.212 921.715 Q54.6147 921.715 59.771 925.789 Q64.9272 929.831 64.9272 936.324 Q64.9272 940.239 63.3994 943.072 Q61.8398 945.873 58.657 947.719 M46.212 927.794 Q39.7508 927.794 36.0905 930.468 Q32.3984 933.11 32.3984 937.757 Q32.3984 942.403 36.0905 945.077 Q39.7508 947.719 46.212 947.719 Q52.6732 947.719 56.3653 945.077 Q60.0256 942.403 60.0256 937.757 Q60.0256 933.11 56.3653 930.468 Q52.6732 927.794 46.212 927.794 Z" fill="#000000" fill-rule="nonzero" fill-opacity="1" /><path clip-path="url(#clip350)" d="M42.4881 882.375 L64.0042 882.375 L64.0042 888.231 L42.679 888.231 Q37.6183 888.231 35.1038 890.205 Q32.5894 892.178 32.5894 896.125 Q32.5894 900.867 35.6131 903.605 Q38.6368 906.342 43.8567 906.342 L64.0042 906.342 L64.0042 912.23 L14.479 912.23 L14.479 906.342 L33.8944 906.342 Q30.6797 904.241 29.0883 901.408 Q27.4968 898.544 27.4968 894.82 Q27.4968 888.677 31.3163 885.526 Q35.1038 882.375 42.4881 882.375 Z" fill="#000000" fill-rule="nonzero" fill-opacity="1" /><path clip-path="url(#clip350)" d="M46.0847 854.493 Q46.0847 861.591 47.7079 864.328 Q49.3312 867.065 53.2461 867.065 Q56.3653 867.065 58.2114 865.028 Q60.0256 862.959 60.0256 859.427 Q60.0256 854.557 56.5881 851.629 Q53.1188 848.668 47.3897 848.668 L46.0847 848.668 L46.0847 854.493 M43.6657 842.812 L64.0042 842.812 L64.0042 848.668 L58.5933 848.668 Q61.8398 850.674 63.3994 853.666 Q64.9272 856.657 64.9272 860.986 Q64.9272 866.461 61.8716 869.707 Q58.7843 872.922 53.6281 872.922 Q47.6125 872.922 44.5569 868.911 Q41.5014 864.869 41.5014 856.88 L41.5014 848.668 L40.9285 848.668 Q36.8862 848.668 34.6901 851.342 Q32.4621 853.984 32.4621 858.79 Q32.4621 861.845 33.1941 864.742 Q33.9262 867.638 35.3903 870.312 L29.9795 870.312 Q28.7381 867.097 28.1334 864.073 Q27.4968 861.05 27.4968 858.185 Q27.4968 850.451 31.5072 846.631 Q35.5176 842.812 43.6657 842.812 Z" fill="#000000" fill-rule="nonzero" fill-opacity="1" /><path clip-path="url(#clip350)" d="M29.4065 808.023 L34.9447 808.023 Q33.6716 810.506 33.035 813.18 Q32.3984 815.853 32.3984 818.718 Q32.3984 823.078 33.7352 825.274 Q35.072 827.439 37.7456 827.439 Q39.7826 827.439 40.9603 825.879 Q42.1061 824.32 43.1565 819.609 L43.6021 817.604 Q44.9389 811.365 47.3897 808.755 Q49.8086 806.114 54.1691 806.114 Q59.1344 806.114 62.0308 810.06 Q64.9272 813.975 64.9272 820.85 Q64.9272 823.715 64.3543 826.834 Q63.8132 829.921 62.6992 833.359 L56.6518 833.359 Q58.3387 830.112 59.198 826.961 Q60.0256 823.81 60.0256 820.723 Q60.0256 816.585 58.6251 814.357 Q57.1929 812.129 54.6147 812.129 Q52.2276 812.129 50.9545 813.753 Q49.6813 815.344 48.5037 820.787 L48.0262 822.824 Q46.8804 828.266 44.5251 830.685 Q42.138 833.104 38.0002 833.104 Q32.9713 833.104 30.2341 829.54 Q27.4968 825.975 27.4968 819.418 Q27.4968 816.172 27.9743 813.307 Q28.4517 810.442 29.4065 808.023 Z" fill="#000000" fill-rule="nonzero" fill-opacity="1" /><path clip-path="url(#clip350)" d="M44.7161 766.296 L47.5806 766.296 L47.5806 793.223 Q53.6281 792.841 56.8109 789.595 Q59.9619 786.316 59.9619 780.492 Q59.9619 777.118 59.1344 773.967 Q58.3069 770.784 56.6518 767.665 L62.1899 767.665 Q63.5267 770.816 64.227 774.126 Q64.9272 777.436 64.9272 780.842 Q64.9272 789.372 59.9619 794.369 Q54.9967 799.334 46.5303 799.334 Q37.7774 799.334 32.6531 794.624 Q27.4968 789.881 27.4968 781.86 Q27.4968 774.667 32.1438 770.498 Q36.7589 766.296 44.7161 766.296 M42.9973 772.153 Q38.1912 772.216 35.3266 774.858 Q32.4621 777.468 32.4621 781.797 Q32.4621 786.698 35.2312 789.658 Q38.0002 792.587 43.0292 793.032 L42.9973 772.153 Z" fill="#000000" fill-rule="nonzero" fill-opacity="1" /><path clip-path="url(#clip350)" d="M14.479 736.505 L14.479 723.009 L19.0304 723.009 L19.0304 730.648 L68.0464 730.648 L68.0464 723.009 L72.5979 723.009 L72.5979 736.505 L14.479 736.505 Z" fill="#000000" fill-rule="nonzero" fill-opacity="1" /><path clip-path="url(#clip350)" d="M33.8307 689.876 Q33.2578 690.863 33.0032 692.04 Q32.7167 693.186 32.7167 694.587 Q32.7167 699.552 35.9632 702.225 Q39.1779 704.867 45.2253 704.867 L64.0042 704.867 L64.0042 710.755 L28.3562 710.755 L28.3562 704.867 L33.8944 704.867 Q30.6479 703.021 29.0883 700.061 Q27.4968 697.101 27.4968 692.868 Q27.4968 692.263 27.5923 691.531 Q27.656 690.799 27.8151 689.908 L33.8307 689.876 Z" fill="#000000" fill-rule="nonzero" fill-opacity="1" /><path clip-path="url(#clip350)" d="M46.0847 667.532 Q46.0847 674.63 47.7079 677.367 Q49.3312 680.105 53.2461 680.105 Q56.3653 680.105 58.2114 678.068 Q60.0256 675.999 60.0256 672.466 Q60.0256 667.596 56.5881 664.668 Q53.1188 661.708 47.3897 661.708 L46.0847 661.708 L46.0847 667.532 M43.6657 655.851 L64.0042 655.851 L64.0042 661.708 L58.5933 661.708 Q61.8398 663.713 63.3994 666.705 Q64.9272 669.697 64.9272 674.025 Q64.9272 679.5 61.8716 682.746 Q58.7843 685.961 53.6281 685.961 Q47.6125 685.961 44.5569 681.951 Q41.5014 677.908 41.5014 669.919 L41.5014 661.708 L40.9285 661.708 Q36.8862 661.708 34.6901 664.381 Q32.4621 667.023 32.4621 671.829 Q32.4621 674.885 33.1941 677.781 Q33.9262 680.677 35.3903 683.351 L29.9795 683.351 Q28.7381 680.136 28.1334 677.113 Q27.4968 674.089 27.4968 671.224 Q27.4968 663.49 31.5072 659.671 Q35.5176 655.851 43.6657 655.851 Z" fill="#000000" fill-rule="nonzero" fill-opacity="1" /><path clip-path="url(#clip350)" d="M33.7671 620.331 L14.479 620.331 L14.479 614.474 L64.0042 614.474 L64.0042 620.331 L58.657 620.331 Q61.8398 622.177 63.3994 625.009 Q64.9272 627.81 64.9272 631.757 Q64.9272 638.218 59.771 642.292 Q54.6147 646.334 46.212 646.334 Q37.8093 646.334 32.6531 642.292 Q27.4968 638.218 27.4968 631.757 Q27.4968 627.81 29.0564 625.009 Q30.5842 622.177 33.7671 620.331 M46.212 640.287 Q52.6732 640.287 56.3653 637.645 Q60.0256 634.972 60.0256 630.325 Q60.0256 625.678 56.3653 623.004 Q52.6732 620.331 46.212 620.331 Q39.7508 620.331 36.0905 623.004 Q32.3984 625.678 32.3984 630.325 Q32.3984 634.972 36.0905 637.645 Q39.7508 640.287 46.212 640.287 Z" fill="#000000" fill-rule="nonzero" fill-opacity="1" /><path clip-path="url(#clip350)" d="M14.479 588.725 L72.5979 588.725 L72.5979 602.22 L68.0464 602.22 L68.0464 594.613 L19.0304 594.613 L19.0304 602.22 L14.479 602.22 L14.479 588.725 Z" fill="#000000" fill-rule="nonzero" fill-opacity="1" /><path clip-path="url(#clip350)" d="M1019.08 11.232 L1051.36 11.232 L1051.36 17.6266 L1026.68 17.6266 L1026.68 34.1775 L1048.95 34.1775 L1048.95 40.5721 L1026.68 40.5721 L1026.68 67.392 L1019.08 67.392 L1019.08 11.232 Z" fill="#000000" fill-rule="nonzero" fill-opacity="1" /><path clip-path="url(#clip350)" d="M1057.49 25.2626 L1064.41 25.2626 L1064.41 67.392 L1057.49 67.392 L1057.49 25.2626 M1057.49 8.86222 L1064.41 8.86222 L1064.41 17.6266 L1057.49 17.6266 L1057.49 8.86222 Z" fill="#000000" fill-rule="nonzero" fill-opacity="1" /><path clip-path="url(#clip350)" d="M1106.62 45.8383 Q1106.62 38.3152 1103.49 34.1775 Q1100.41 30.0398 1094.8 30.0398 Q1089.24 30.0398 1086.12 34.1775 Q1083.03 38.3152 1083.03 45.8383 Q1083.03 53.3238 1086.12 57.4615 Q1089.24 61.5992 1094.8 61.5992 Q1100.41 61.5992 1103.49 57.4615 Q1106.62 53.3238 1106.62 45.8383 M1113.54 62.1634 Q1113.54 72.9215 1108.76 78.15 Q1103.98 83.4162 1094.13 83.4162 Q1090.48 83.4162 1087.24 82.852 Q1084.01 82.3254 1080.96 81.1969 L1080.96 74.4637 Q1084.01 76.1188 1086.98 76.9087 Q1089.95 77.6987 1093.04 77.6987 Q1099.85 77.6987 1103.23 74.1252 Q1106.62 70.5893 1106.62 63.4048 L1106.62 59.9817 Q1104.47 63.7057 1101.12 65.5488 Q1097.78 67.392 1093.11 67.392 Q1085.36 67.392 1080.62 61.4864 Q1075.88 55.5807 1075.88 45.8383 Q1075.88 36.0583 1080.62 30.1526 Q1085.36 24.247 1093.11 24.247 Q1097.78 24.247 1101.12 26.0901 Q1104.47 27.9333 1106.62 31.6572 L1106.62 25.2626 L1113.54 25.2626 L1113.54 62.1634 Z" fill="#000000" fill-rule="nonzero" fill-opacity="1" /><path clip-path="url(#clip350)" d="M1159.8 60.9974 L1186.32 60.9974 L1186.32 67.392 L1150.66 67.392 L1150.66 60.9974 Q1154.99 56.5211 1162.44 48.998 Q1169.92 41.4373 1171.84 39.2556 Q1175.49 35.1555 1176.92 32.3343 Q1178.39 29.4755 1178.39 26.7296 Q1178.39 22.2534 1175.23 19.4322 Q1172.1 16.611 1167.06 16.611 Q1163.49 16.611 1159.5 17.8523 Q1155.55 19.0936 1151.04 21.6139 L1151.04 13.9403 Q1155.63 12.0972 1159.62 11.1568 Q1163.6 10.2164 1166.91 10.2164 Q1175.64 10.2164 1180.83 14.5798 Q1186.02 18.9432 1186.02 26.2406 Q1186.02 29.7012 1184.71 32.8233 Q1183.43 35.9078 1180 40.1207 Q1179.06 41.2116 1174.02 46.4401 Q1168.98 51.6311 1159.8 60.9974 Z" fill="#000000" fill-rule="nonzero" fill-opacity="1" /><path clip-path="url(#clip350)" d="M1220.44 46.2145 Q1212.05 46.2145 1208.82 48.1328 Q1205.58 50.0512 1205.58 54.6779 Q1205.58 58.3643 1207.99 60.546 Q1210.43 62.6901 1214.61 62.6901 Q1220.37 62.6901 1223.83 58.6276 Q1227.32 54.5275 1227.32 47.7567 L1227.32 46.2145 L1220.44 46.2145 M1234.25 43.3557 L1234.25 67.392 L1227.32 67.392 L1227.32 60.9974 Q1224.95 64.8341 1221.42 66.6773 Q1217.88 68.4829 1212.77 68.4829 Q1206.3 68.4829 1202.46 64.8718 Q1198.66 61.2231 1198.66 55.1293 Q1198.66 48.02 1203.4 44.4089 Q1208.18 40.7978 1217.62 40.7978 L1227.32 40.7978 L1227.32 40.1207 Q1227.32 35.3436 1224.16 32.7481 Q1221.04 30.115 1215.36 30.115 Q1211.75 30.115 1208.33 30.9802 Q1204.91 31.8453 1201.75 33.5756 L1201.75 27.181 Q1205.54 25.714 1209.12 24.9993 Q1212.69 24.247 1216.08 24.247 Q1225.22 24.247 1229.73 28.9865 Q1234.25 33.7261 1234.25 43.3557 Z" fill="#000000" fill-rule="nonzero" fill-opacity="1" /><path clip-path="url(#clip350)" d="M1249.48 57.8377 L1257.42 57.8377 L1257.42 67.392 L1249.48 67.392 L1249.48 57.8377 Z" fill="#000000" fill-rule="nonzero" fill-opacity="1" /><path clip-path="url(#clip350)" d="M1313.8 30.115 Q1308.24 30.115 1305 34.4784 Q1301.77 38.8042 1301.77 46.3649 Q1301.77 53.9256 1304.96 58.289 Q1308.2 62.6148 1313.8 62.6148 Q1319.33 62.6148 1322.57 58.2514 Q1325.8 53.888 1325.8 46.3649 Q1325.8 38.8794 1322.57 34.516 Q1319.33 30.115 1313.8 30.115 M1313.8 24.247 Q1322.83 24.247 1327.98 30.115 Q1333.14 35.983 1333.14 46.3649 Q1333.14 56.7092 1327.98 62.6148 Q1322.83 68.4829 1313.8 68.4829 Q1304.74 68.4829 1299.58 62.6148 Q1294.47 56.7092 1294.47 46.3649 Q1294.47 35.983 1299.58 30.115 Q1304.74 24.247 1313.8 24.247 Z" fill="#000000" fill-rule="nonzero" fill-opacity="1" /><path clip-path="url(#clip350)" d="M1365.94 8.86222 L1365.94 14.6174 L1359.32 14.6174 Q1355.59 14.6174 1354.13 16.122 Q1352.7 17.6266 1352.7 21.5387 L1352.7 25.2626 L1364.09 25.2626 L1364.09 30.6416 L1352.7 30.6416 L1352.7 67.392 L1345.74 67.392 L1345.74 30.6416 L1339.12 30.6416 L1339.12 25.2626 L1345.74 25.2626 L1345.74 22.3286 Q1345.74 15.2945 1349.01 12.0972 Q1352.28 8.86222 1359.39 8.86222 L1365.94 8.86222 Z" fill="#000000" fill-rule="nonzero" fill-opacity="1" /><path clip-path="url(#clip350)" d="M1423.15 41.0611 Q1425.6 41.8887 1427.89 44.597 Q1430.22 47.3053 1432.55 52.0449 L1440.27 67.392 L1432.1 67.392 L1424.92 52.9852 Q1422.14 47.3429 1419.5 45.4998 Q1416.91 43.6566 1412.39 43.6566 L1404.12 43.6566 L1404.12 67.392 L1396.52 67.392 L1396.52 11.232 L1413.67 11.232 Q1423.3 11.232 1428.04 15.2569 Q1432.78 19.2817 1432.78 27.4067 Q1432.78 32.7105 1430.3 36.2087 Q1427.85 39.707 1423.15 41.0611 M1404.12 17.4762 L1404.12 37.4124 L1413.67 37.4124 Q1419.16 37.4124 1421.95 34.8922 Q1424.77 32.3343 1424.77 27.4067 Q1424.77 22.479 1421.95 19.9964 Q1419.16 17.4762 1413.67 17.4762 L1404.12 17.4762 Z" fill="#000000" fill-rule="nonzero" fill-opacity="1" /><path clip-path="url(#clip350)" d="M1482.32 44.597 L1482.32 47.9824 L1450.5 47.9824 Q1450.95 55.1293 1454.79 58.8909 Q1458.66 62.6148 1465.54 62.6148 Q1469.53 62.6148 1473.25 61.6368 Q1477.02 60.6588 1480.7 58.7028 L1480.7 65.2479 Q1476.98 66.8278 1473.07 67.6553 Q1469.15 68.4829 1465.13 68.4829 Q1455.05 68.4829 1449.14 62.6148 Q1443.27 56.7468 1443.27 46.7411 Q1443.27 36.3968 1448.84 30.3407 Q1454.45 24.247 1463.93 24.247 Q1472.43 24.247 1477.35 29.7388 Q1482.32 35.1931 1482.32 44.597 M1475.4 42.5657 Q1475.32 36.8858 1472.2 33.5004 Q1469.12 30.115 1464 30.115 Q1458.21 30.115 1454.71 33.3876 Q1451.25 36.6601 1450.72 42.6034 L1475.4 42.5657 Z" fill="#000000" fill-rule="nonzero" fill-opacity="1" /><path clip-path="url(#clip350)" d="M1515.01 8.86222 L1515.01 14.6174 L1508.39 14.6174 Q1504.66 14.6174 1503.2 16.122 Q1501.77 17.6266 1501.77 21.5387 L1501.77 25.2626 L1513.16 25.2626 L1513.16 30.6416 L1501.77 30.6416 L1501.77 67.392 L1494.81 67.392 L1494.81 30.6416 L1488.19 30.6416 L1488.19 25.2626 L1494.81 25.2626 L1494.81 22.3286 Q1494.81 15.2945 1498.08 12.0972 Q1501.35 8.86222 1508.46 8.86222 L1515.01 8.86222 Z" fill="#000000" fill-rule="nonzero" fill-opacity="1" /><path clip-path="url(#clip350)" d="M1516.17 57.8377 L1524.11 57.8377 L1524.11 67.392 L1516.17 67.392 L1516.17 57.8377 Z" fill="#000000" fill-rule="nonzero" fill-opacity="1" /><path clip-path="url(#clip350)" d="M1566.47 60.9974 L1578.88 60.9974 L1578.88 18.1533 L1565.37 20.8616 L1565.37 13.9403 L1578.8 11.232 L1586.4 11.232 L1586.4 60.9974 L1598.82 60.9974 L1598.82 67.392 L1566.47 67.392 L1566.47 60.9974 Z" fill="#000000" fill-rule="nonzero" fill-opacity="1" /><polyline clip-path="url(#clip351)" style="stroke:#009af9; stroke-linecap:round; stroke-linejoin:round; stroke-width:6; stroke-opacity:1; fill:none" points="286.02,1257.52 326.937,1234.29 367.854,1211.05 408.772,1187.82 449.689,1164.58 490.606,1141.35 531.523,1118.11 572.44,1094.87 613.358,1071.64 654.275,1048.4 695.192,1025.17 736.109,1001.93 777.026,978.698 817.943,955.463 858.861,932.227 899.778,908.992 940.695,885.756 981.612,862.521 1022.53,839.286 1063.45,816.05 1104.36,792.815 1145.28,769.579 1186.2,746.344 1227.12,723.109 1268.03,699.873 1308.95,676.638 1349.87,653.402 1390.78,630.167 1431.7,606.932 1472.62,583.696 1513.54,560.461 1554.45,537.225 1595.37,513.99 1636.29,490.755 1677.2,467.519 1718.12,444.284 1759.04,421.048 1799.96,397.813 1840.87,374.578 1881.79,351.342 1922.71,328.107 1963.63,304.871 2004.54,281.636 2045.46,258.4 2086.38,235.165 2127.29,211.93 2168.21,188.694 2209.13,165.459 2250.05,142.223 2290.96,118.988 2331.88,95.7527 "/>
<polyline clip-path="url(#clip351)" style="stroke:#e26f46; stroke-linecap:round; stroke-linejoin:round; stroke-width:6; stroke-opacity:1; fill:none" points="286.02,1247.06 326.937,1226.15 367.854,1205.24 408.772,1184.32 449.689,1163.41 490.606,1142.5 531.523,1121.59 572.44,1100.68 613.358,1079.76 654.275,1058.85 695.192,1037.94 736.109,1017.03 777.026,996.117 817.943,975.205 858.861,954.293 899.778,933.381 940.695,912.469 981.612,891.557 1022.53,870.645 1063.45,849.734 1104.36,828.822 1145.28,807.91 1186.2,786.998 1227.12,766.086 1268.03,745.174 1308.95,724.262 1349.87,703.351 1390.78,682.439 1431.7,661.527 1472.62,640.615 1513.54,619.703 1554.45,598.791 1595.37,577.879 1636.29,556.968 1677.2,536.056 1718.12,515.144 1759.04,494.232 1799.96,473.32 1840.87,452.408 1881.79,431.496 1922.71,410.584 1963.63,389.673 2004.54,368.761 2045.46,347.849 2086.38,326.937 2127.29,306.025 2168.21,285.113 2209.13,264.201 2250.05,243.29 2290.96,222.378 2331.88,201.466 "/>
<polyline clip-path="url(#clip351)" style="stroke:#3da44d; stroke-linecap:round; stroke-linejoin:round; stroke-width:6; stroke-opacity:1; fill:none" points="286.02,1205.64 326.937,1187.05 367.854,1168.47 408.772,1149.88 449.689,1131.29 490.606,1112.7 531.523,1094.11 572.44,1075.52 613.358,1056.94 654.275,1038.35 695.192,1019.76 736.109,1001.17 777.026,982.582 817.943,963.994 858.861,945.405 899.778,926.817 940.695,908.229 981.612,889.64 1022.53,871.052 1063.45,852.464 1104.36,833.875 1145.28,815.287 1186.2,796.699 1227.12,778.11 1268.03,759.522 1308.95,740.934 1349.87,722.345 1390.78,703.757 1431.7,685.169 1472.62,666.581 1513.54,647.992 1554.45,629.404 1595.37,610.816 1636.29,592.227 1677.2,573.639 1718.12,555.051 1759.04,536.462 1799.96,517.874 1840.87,499.286 1881.79,480.697 1922.71,462.109 1963.63,443.521 2004.54,424.932 2045.46,406.344 2086.38,387.756 2127.29,369.167 2168.21,350.579 2209.13,331.991 2250.05,313.402 2290.96,294.814 2331.88,276.226 "/>
<polyline clip-path="url(#clip351)" style="stroke:#c271d2; stroke-linecap:round; stroke-linejoin:round; stroke-width:6; stroke-opacity:1; fill:none" points="286.02,1156.28 326.937,1140.02 367.854,1123.75 408.772,1107.49 449.689,1091.22 490.606,1074.96 531.523,1058.69 572.44,1042.43 613.358,1026.17 654.275,1009.9 695.192,993.635 736.109,977.371 777.026,961.106 817.943,944.841 858.861,928.576 899.778,912.312 940.695,896.047 981.612,879.782 1022.53,863.517 1063.45,847.252 1104.36,830.988 1145.28,814.723 1186.2,798.458 1227.12,782.193 1268.03,765.928 1308.95,749.664 1349.87,733.399 1390.78,717.134 1431.7,700.869 1472.62,684.605 1513.54,668.34 1554.45,652.075 1595.37,635.81 1636.29,619.545 1677.2,603.281 1718.12,587.016 1759.04,570.751 1799.96,554.486 1840.87,538.222 1881.79,521.957 1922.71,505.692 1963.63,489.427 2004.54,473.162 2045.46,456.898 2086.38,440.633 2127.29,424.368 2168.21,408.103 2209.13,391.839 2250.05,375.574 2290.96,359.309 2331.88,343.044 "/>
<polyline clip-path="url(#clip351)" style="stroke:#ac8d18; stroke-linecap:round; stroke-linejoin:round; stroke-width:6; stroke-opacity:1; fill:none" points="286.02,1103.74 326.937,1089.8 367.854,1075.86 408.772,1061.92 449.689,1047.98 490.606,1034.04 531.523,1020.1 572.44,1006.15 613.358,992.213 654.275,978.272 695.192,964.331 736.109,950.389 777.026,936.448 817.943,922.507 858.861,908.566 899.778,894.624 940.695,880.683 981.612,866.742 1022.53,852.801 1063.45,838.859 1104.36,824.918 1145.28,810.977 1186.2,797.036 1227.12,783.094 1268.03,769.153 1308.95,755.212 1349.87,741.271 1390.78,727.329 1431.7,713.388 1472.62,699.447 1513.54,685.506 1554.45,671.565 1595.37,657.623 1636.29,643.682 1677.2,629.741 1718.12,615.8 1759.04,601.858 1799.96,587.917 1840.87,573.976 1881.79,560.035 1922.71,546.093 1963.63,532.152 2004.54,518.211 2045.46,504.27 2086.38,490.328 2127.29,476.387 2168.21,462.446 2209.13,448.505 2250.05,434.563 2290.96,420.622 2331.88,406.681 "/>
<polyline clip-path="url(#clip351)" style="stroke:#00a9ad; stroke-linecap:round; stroke-linejoin:round; stroke-width:6; stroke-opacity:1; fill:none" points="286.02,1049.63 326.937,1038.01 367.854,1026.39 408.772,1014.77 449.689,1003.16 490.606,991.539 531.523,979.921 572.44,968.303 613.358,956.686 654.275,945.068 695.192,933.45 736.109,921.832 777.026,910.215 817.943,898.597 858.861,886.979 899.778,875.362 940.695,863.744 981.612,852.126 1022.53,840.509 1063.45,828.891 1104.36,817.273 1145.28,805.655 1186.2,794.038 1227.12,782.42 1268.03,770.802 1308.95,759.185 1349.87,747.567 1390.78,735.949 1431.7,724.332 1472.62,712.714 1513.54,701.096 1554.45,689.478 1595.37,677.861 1636.29,666.243 1677.2,654.625 1718.12,643.008 1759.04,631.39 1799.96,619.772 1840.87,608.155 1881.79,596.537 1922.71,584.919 1963.63,573.301 2004.54,561.684 2045.46,550.066 2086.38,538.448 2127.29,526.831 2168.21,515.213 2209.13,503.595 2250.05,491.978 2290.96,480.36 2331.88,468.742 "/>
<polyline clip-path="url(#clip351)" style="stroke:#ed5d92; stroke-linecap:round; stroke-linejoin:round; stroke-width:6; stroke-opacity:1; fill:none" points="286.02,994.633 326.937,985.339 367.854,976.044 408.772,966.75 449.689,957.456 490.606,948.162 531.523,938.868 572.44,929.574 613.358,920.279 654.275,910.985 695.192,901.691 736.109,892.397 777.026,883.103 817.943,873.809 858.861,864.514 899.778,855.22 940.695,845.926 981.612,836.632 1022.53,827.338 1063.45,818.044 1104.36,808.749 1145.28,799.455 1186.2,790.161 1227.12,780.867 1268.03,771.573 1308.95,762.279 1349.87,752.985 1390.78,743.69 1431.7,734.396 1472.62,725.102 1513.54,715.808 1554.45,706.514 1595.37,697.22 1636.29,687.925 1677.2,678.631 1718.12,669.337 1759.04,660.043 1799.96,650.749 1840.87,641.455 1881.79,632.16 1922.71,622.866 1963.63,613.572 2004.54,604.278 2045.46,594.984 2086.38,585.69 2127.29,576.395 2168.21,567.101 2209.13,557.807 2250.05,548.513 2290.96,539.219 2331.88,529.925 "/>
<polyline clip-path="url(#clip351)" style="stroke:#c68125; stroke-linecap:round; stroke-linejoin:round; stroke-width:6; stroke-opacity:1; fill:none" points="286.02,939.116 326.937,932.145 367.854,925.174 408.772,918.204 449.689,911.233 490.606,904.262 531.523,897.292 572.44,890.321 613.358,883.351 654.275,876.38 695.192,869.409 736.109,862.439 777.026,855.468 817.943,848.497 858.861,841.527 899.778,834.556 940.695,827.586 981.612,820.615 1022.53,813.644 1063.45,806.674 1104.36,799.703 1145.28,792.733 1186.2,785.762 1227.12,778.791 1268.03,771.821 1308.95,764.85 1349.87,757.879 1390.78,750.909 1431.7,743.938 1472.62,736.968 1513.54,729.997 1554.45,723.026 1595.37,716.056 1636.29,709.085 1677.2,702.114 1718.12,695.144 1759.04,688.173 1799.96,681.203 1840.87,674.232 1881.79,667.261 1922.71,660.291 1963.63,653.32 2004.54,646.349 2045.46,639.379 2086.38,632.408 2127.29,625.438 2168.21,618.467 2209.13,611.496 2250.05,604.526 2290.96,597.555 2331.88,590.585 "/>
<polyline clip-path="url(#clip351)" style="stroke:#00a98d; stroke-linecap:round; stroke-linejoin:round; stroke-width:6; stroke-opacity:1; fill:none" points="286.02,883.282 326.937,878.635 367.854,873.988 408.772,869.341 449.689,864.694 490.606,860.047 531.523,855.399 572.44,850.752 613.358,846.105 654.275,841.458 695.192,836.811 736.109,832.164 777.026,827.517 817.943,822.87 858.861,818.223 899.778,813.576 940.695,808.929 981.612,804.282 1022.53,799.635 1063.45,794.987 1104.36,790.34 1145.28,785.693 1186.2,781.046 1227.12,776.399 1268.03,771.752 1308.95,767.105 1349.87,762.458 1390.78,757.811 1431.7,753.164 1472.62,748.517 1513.54,743.87 1554.45,739.222 1595.37,734.575 1636.29,729.928 1677.2,725.281 1718.12,720.634 1759.04,715.987 1799.96,711.34 1840.87,706.693 1881.79,702.046 1922.71,697.399 1963.63,692.752 2004.54,688.105 2045.46,683.458 2086.38,678.81 2127.29,674.163 2168.21,669.516 2209.13,664.869 2250.05,660.222 2290.96,655.575 2331.88,650.928 "/>
<polyline clip-path="url(#clip351)" style="stroke:#8e971d; stroke-linecap:round; stroke-linejoin:round; stroke-width:6; stroke-opacity:1; fill:none" points="286.02,827.266 326.937,824.942 367.854,822.619 408.772,820.295 449.689,817.972 490.606,815.648 531.523,813.325 572.44,811.001 613.358,808.678 654.275,806.354 695.192,804.031 736.109,801.707 777.026,799.383 817.943,797.06 858.861,794.736 899.778,792.413 940.695,790.089 981.612,787.766 1022.53,785.442 1063.45,783.119 1104.36,780.795 1145.28,778.472 1186.2,776.148 1227.12,773.824 1268.03,771.501 1308.95,769.177 1349.87,766.854 1390.78,764.53 1431.7,762.207 1472.62,759.883 1513.54,757.56 1554.45,755.236 1595.37,752.913 1636.29,750.589 1677.2,748.266 1718.12,745.942 1759.04,743.618 1799.96,741.295 1840.87,738.971 1881.79,736.648 1922.71,734.324 1963.63,732.001 2004.54,729.677 2045.46,727.354 2086.38,725.03 2127.29,722.707 2168.21,720.383 2209.13,718.06 2250.05,715.736 2290.96,713.412 2331.88,711.089 "/>
<polyline clip-path="url(#clip351)" style="stroke:#00a8cb; stroke-linecap:round; stroke-linejoin:round; stroke-width:6; stroke-opacity:1; fill:none" points="286.02,771.166 326.937,771.166 367.854,771.166 408.772,771.166 449.689,771.166 490.606,771.166 531.523,771.166 572.44,771.166 613.358,771.166 654.275,771.166 695.192,771.166 736.109,771.166 777.026,771.166 817.943,771.166 858.861,771.166 899.778,771.166 940.695,771.166 981.612,771.166 1022.53,771.166 1063.45,771.166 1104.36,771.166 1145.28,771.166 1186.2,771.166 1227.12,771.166 1268.03,771.166 1308.95,771.166 1349.87,771.166 1390.78,771.166 1431.7,771.166 1472.62,771.166 1513.54,771.166 1554.45,771.166 1595.37,771.166 1636.29,771.166 1677.2,771.166 1718.12,771.166 1759.04,771.166 1799.96,771.166 1840.87,771.166 1881.79,771.166 1922.71,771.166 1963.63,771.166 2004.54,771.166 2045.46,771.166 2086.38,771.166 2127.29,771.166 2168.21,771.166 2209.13,771.166 2250.05,771.166 2290.96,771.166 2331.88,771.166 "/>
<polyline clip-path="url(#clip351)" style="stroke:#9b7fe8; stroke-linecap:round; stroke-linejoin:round; stroke-width:6; stroke-opacity:1; fill:none" points="286.02,715.066 326.937,717.39 367.854,719.713 408.772,722.037 449.689,724.36 490.606,726.684 531.523,729.007 572.44,731.331 613.358,733.654 654.275,735.978 695.192,738.301 736.109,740.625 777.026,742.949 817.943,745.272 858.861,747.596 899.778,749.919 940.695,752.243 981.612,754.566 1022.53,756.89 1063.45,759.213 1104.36,761.537 1145.28,763.86 1186.2,766.184 1227.12,768.507 1268.03,770.831 1308.95,773.155 1349.87,775.478 1390.78,777.802 1431.7,780.125 1472.62,782.449 1513.54,784.772 1554.45,787.096 1595.37,789.419 1636.29,791.743 1677.2,794.066 1718.12,796.39 1759.04,798.714 1799.96,801.037 1840.87,803.361 1881.79,805.684 1922.71,808.008 1963.63,810.331 2004.54,812.655 2045.46,814.978 2086.38,817.302 2127.29,819.625 2168.21,821.949 2209.13,824.272 2250.05,826.596 2290.96,828.92 2331.88,831.243 "/>
<polyline clip-path="url(#clip351)" style="stroke:#608cf6; stroke-linecap:round; stroke-linejoin:round; stroke-width:6; stroke-opacity:1; fill:none" points="286.02,659.05 326.937,663.697 367.854,668.344 408.772,672.991 449.689,677.638 490.606,682.285 531.523,686.932 572.44,691.58 613.358,696.227 654.275,700.874 695.192,705.521 736.109,710.168 777.026,714.815 817.943,719.462 858.861,724.109 899.778,728.756 940.695,733.403 981.612,738.05 1022.53,742.697 1063.45,747.345 1104.36,751.992 1145.28,756.639 1186.2,761.286 1227.12,765.933 1268.03,770.58 1308.95,775.227 1349.87,779.874 1390.78,784.521 1431.7,789.168 1472.62,793.815 1513.54,798.462 1554.45,803.109 1595.37,807.757 1636.29,812.404 1677.2,817.051 1718.12,821.698 1759.04,826.345 1799.96,830.992 1840.87,835.639 1881.79,840.286 1922.71,844.933 1963.63,849.58 2004.54,854.227 2045.46,858.874 2086.38,863.522 2127.29,868.169 2168.21,872.816 2209.13,877.463 2250.05,882.11 2290.96,886.757 2331.88,891.404 "/>
<polyline clip-path="url(#clip351)" style="stroke:#f05f73; stroke-linecap:round; stroke-linejoin:round; stroke-width:6; stroke-opacity:1; fill:none" points="286.02,603.216 326.937,610.187 367.854,617.158 408.772,624.128 449.689,631.099 490.606,638.07 531.523,645.04 572.44,652.011 613.358,658.981 654.275,665.952 695.192,672.923 736.109,679.893 777.026,686.864 817.943,693.834 858.861,700.805 899.778,707.776 940.695,714.746 981.612,721.717 1022.53,728.688 1063.45,735.658 1104.36,742.629 1145.28,749.599 1186.2,756.57 1227.12,763.541 1268.03,770.511 1308.95,777.482 1349.87,784.453 1390.78,791.423 1431.7,798.394 1472.62,805.364 1513.54,812.335 1554.45,819.306 1595.37,826.276 1636.29,833.247 1677.2,840.218 1718.12,847.188 1759.04,854.159 1799.96,861.129 1840.87,868.1 1881.79,875.071 1922.71,882.041 1963.63,889.012 2004.54,895.982 2045.46,902.953 2086.38,909.924 2127.29,916.894 2168.21,923.865 2209.13,930.836 2250.05,937.806 2290.96,944.777 2331.88,951.747 "/>
<polyline clip-path="url(#clip351)" style="stroke:#dd64b5; stroke-linecap:round; stroke-linejoin:round; stroke-width:6; stroke-opacity:1; fill:none" points="286.02,547.699 326.937,556.993 367.854,566.288 408.772,575.582 449.689,584.876 490.606,594.17 531.523,603.464 572.44,612.758 613.358,622.053 654.275,631.347 695.192,640.641 736.109,649.935 777.026,659.229 817.943,668.523 858.861,677.818 899.778,687.112 940.695,696.406 981.612,705.7 1022.53,714.994 1063.45,724.288 1104.36,733.582 1145.28,742.877 1186.2,752.171 1227.12,761.465 1268.03,770.759 1308.95,780.053 1349.87,789.347 1390.78,798.642 1431.7,807.936 1472.62,817.23 1513.54,826.524 1554.45,835.818 1595.37,845.112 1636.29,854.407 1677.2,863.701 1718.12,872.995 1759.04,882.289 1799.96,891.583 1840.87,900.877 1881.79,910.172 1922.71,919.466 1963.63,928.76 2004.54,938.054 2045.46,947.348 2086.38,956.642 2127.29,965.937 2168.21,975.231 2209.13,984.525 2250.05,993.819 2290.96,1003.11 2331.88,1012.41 "/>
<polyline clip-path="url(#clip351)" style="stroke:#6b9e32; stroke-linecap:round; stroke-linejoin:round; stroke-width:6; stroke-opacity:1; fill:none" points="286.02,492.705 326.937,504.322 367.854,515.94 408.772,527.558 449.689,539.176 490.606,550.793 531.523,562.411 572.44,574.029 613.358,585.646 654.275,597.264 695.192,608.882 736.109,620.5 777.026,632.117 817.943,643.735 858.861,655.353 899.778,666.97 940.695,678.588 981.612,690.206 1022.53,701.823 1063.45,713.441 1104.36,725.059 1145.28,736.677 1186.2,748.294 1227.12,759.912 1268.03,771.53 1308.95,783.147 1349.87,794.765 1390.78,806.383 1431.7,818 1472.62,829.618 1513.54,841.236 1554.45,852.854 1595.37,864.471 1636.29,876.089 1677.2,887.707 1718.12,899.324 1759.04,910.942 1799.96,922.56 1840.87,934.177 1881.79,945.795 1922.71,957.413 1963.63,969.031 2004.54,980.648 2045.46,992.266 2086.38,1003.88 2127.29,1015.5 2168.21,1027.12 2209.13,1038.74 2250.05,1050.35 2290.96,1061.97 2331.88,1073.59 "/>
<polyline clip-path="url(#clip351)" style="stroke:#009af9; stroke-linecap:round; stroke-linejoin:round; stroke-width:6; stroke-opacity:1; fill:none" points="286.02,438.589 326.937,452.53 367.854,466.471 408.772,480.413 449.689,494.354 490.606,508.295 531.523,522.236 572.44,536.178 613.358,550.119 654.275,564.06 695.192,578.001 736.109,591.943 777.026,605.884 817.943,619.825 858.861,633.766 899.778,647.708 940.695,661.649 981.612,675.59 1022.53,689.531 1063.45,703.473 1104.36,717.414 1145.28,731.355 1186.2,745.296 1227.12,759.238 1268.03,773.179 1308.95,787.12 1349.87,801.061 1390.78,815.002 1431.7,828.944 1472.62,842.885 1513.54,856.826 1554.45,870.767 1595.37,884.709 1636.29,898.65 1677.2,912.591 1718.12,926.532 1759.04,940.474 1799.96,954.415 1840.87,968.356 1881.79,982.297 1922.71,996.239 1963.63,1010.18 2004.54,1024.12 2045.46,1038.06 2086.38,1052 2127.29,1065.94 2168.21,1079.89 2209.13,1093.83 2250.05,1107.77 2290.96,1121.71 2331.88,1135.65 "/>
<polyline clip-path="url(#clip351)" style="stroke:#e26f46; stroke-linecap:round; stroke-linejoin:round; stroke-width:6; stroke-opacity:1; fill:none" points="286.02,386.049 326.937,402.313 367.854,418.578 408.772,434.843 449.689,451.108 490.606,467.373 531.523,483.637 572.44,499.902 613.358,516.167 654.275,532.432 695.192,548.697 736.109,564.961 777.026,581.226 817.943,597.491 858.861,613.756 899.778,630.02 940.695,646.285 981.612,662.55 1022.53,678.815 1063.45,695.08 1104.36,711.344 1145.28,727.609 1186.2,743.874 1227.12,760.139 1268.03,776.403 1308.95,792.668 1349.87,808.933 1390.78,825.198 1431.7,841.463 1472.62,857.727 1513.54,873.992 1554.45,890.257 1595.37,906.522 1636.29,922.787 1677.2,939.051 1718.12,955.316 1759.04,971.581 1799.96,987.846 1840.87,1004.11 1881.79,1020.38 1922.71,1036.64 1963.63,1052.9 2004.54,1069.17 2045.46,1085.43 2086.38,1101.7 2127.29,1117.96 2168.21,1134.23 2209.13,1150.49 2250.05,1166.76 2290.96,1183.02 2331.88,1199.29 "/>
<polyline clip-path="url(#clip351)" style="stroke:#3da44d; stroke-linecap:round; stroke-linejoin:round; stroke-width:6; stroke-opacity:1; fill:none" points="286.02,336.69 326.937,355.278 367.854,373.867 408.772,392.455 449.689,411.043 490.606,429.632 531.523,448.22 572.44,466.808 613.358,485.397 654.275,503.985 695.192,522.573 736.109,541.162 777.026,559.75 817.943,578.338 858.861,596.927 899.778,615.515 940.695,634.103 981.612,652.692 1022.53,671.28 1063.45,689.868 1104.36,708.457 1145.28,727.045 1186.2,745.633 1227.12,764.222 1268.03,782.81 1308.95,801.398 1349.87,819.986 1390.78,838.575 1431.7,857.163 1472.62,875.751 1513.54,894.34 1554.45,912.928 1595.37,931.516 1636.29,950.105 1677.2,968.693 1718.12,987.281 1759.04,1005.87 1799.96,1024.46 1840.87,1043.05 1881.79,1061.63 1922.71,1080.22 1963.63,1098.81 2004.54,1117.4 2045.46,1135.99 2086.38,1154.58 2127.29,1173.16 2168.21,1191.75 2209.13,1210.34 2250.05,1228.93 2290.96,1247.52 2331.88,1266.11 "/>
<polyline clip-path="url(#clip351)" style="stroke:#c271d2; stroke-linecap:round; stroke-linejoin:round; stroke-width:6; stroke-opacity:1; fill:none" points="286.02,295.273 326.937,316.185 367.854,337.097 408.772,358.009 449.689,378.92 490.606,399.832 531.523,420.744 572.44,441.656 613.358,462.568 654.275,483.48 695.192,504.392 736.109,525.303 777.026,546.215 817.943,567.127 858.861,588.039 899.778,608.951 940.695,629.863 981.612,650.775 1022.53,671.686 1063.45,692.598 1104.36,713.51 1145.28,734.422 1186.2,755.334 1227.12,776.246 1268.03,797.158 1308.95,818.07 1349.87,838.981 1390.78,859.893 1431.7,880.805 1472.62,901.717 1513.54,922.629 1554.45,943.541 1595.37,964.453 1636.29,985.364 1677.2,1006.28 1718.12,1027.19 1759.04,1048.1 1799.96,1069.01 1840.87,1089.92 1881.79,1110.84 1922.71,1131.75 1963.63,1152.66 2004.54,1173.57 2045.46,1194.48 2086.38,1215.39 2127.29,1236.31 2168.21,1257.22 2209.13,1278.13 2250.05,1299.04 2290.96,1319.95 2331.88,1340.87 "/>
<polyline clip-path="url(#clip351)" style="stroke:#ac8d18; stroke-linecap:round; stroke-linejoin:round; stroke-width:6; stroke-opacity:1; fill:none" points="286.02,284.809 326.937,308.045 367.854,331.28 408.772,354.515 449.689,377.751 490.606,400.986 531.523,424.222 572.44,447.457 613.358,470.692 654.275,493.928 695.192,517.163 736.109,540.399 777.026,563.634 817.943,586.869 858.861,610.105 899.778,633.34 940.695,656.576 981.612,679.811 1022.53,703.046 1063.45,726.282 1104.36,749.517 1145.28,772.753 1186.2,795.988 1227.12,819.223 1268.03,842.459 1308.95,865.694 1349.87,888.93 1390.78,912.165 1431.7,935.4 1472.62,958.636 1513.54,981.871 1554.45,1005.11 1595.37,1028.34 1636.29,1051.58 1677.2,1074.81 1718.12,1098.05 1759.04,1121.28 1799.96,1144.52 1840.87,1167.75 1881.79,1190.99 1922.71,1214.23 1963.63,1237.46 2004.54,1260.7 2045.46,1283.93 2086.38,1307.17 2127.29,1330.4 2168.21,1353.64 2209.13,1376.87 2250.05,1400.11 2290.96,1423.34 2331.88,1446.58 "/>
</svg>
