<?xml version="1.0" encoding="utf-8"?>
<svg xmlns="http://www.w3.org/2000/svg" xmlns:xlink="http://www.w3.org/1999/xlink" width="600" height="400" viewBox="0 0 2400 1600">
<defs>
  <clipPath id="clip260">
    <rect x="0" y="0" width="2400" height="1600"/>
  </clipPath>
</defs>
<path clip-path="url(#clip260)" d="M0 1600 L2400 1600 L2400 0 L0 0  Z" fill="#ffffff" fill-rule="evenodd" fill-opacity="1"/>
<defs>
  <clipPath id="clip261">
    <rect x="141" y="906" width="2212" height="518"/>
  </clipPath>
</defs>
<path clip-path="url(#clip260)" d="M141.853 623.18 L2352.76 623.18 L2352.76 106.192 L141.853 106.192  Z" fill="#ffffff" fill-rule="evenodd" fill-opacity="1"/>
<defs>
  <clipPath id="clip262">
    <rect x="141" y="106" width="2212" height="518"/>
  </clipPath>
</defs>
<polyline clip-path="url(#clip262)" style="stroke:#000000; stroke-linecap:round; stroke-linejoin:round; stroke-width:2; stroke-opacity:0.1; fill:none" points="141.853,623.18 141.853,106.192 "/>
<polyline clip-path="url(#clip262)" style="stroke:#000000; stroke-linecap:round; stroke-linejoin:round; stroke-width:2; stroke-opacity:0.1; fill:none" points="694.579,623.18 694.579,106.192 "/>
<polyline clip-path="url(#clip262)" style="stroke:#000000; stroke-linecap:round; stroke-linejoin:round; stroke-width:2; stroke-opacity:0.1; fill:none" points="1247.3,623.18 1247.3,106.192 "/>
<polyline clip-path="url(#clip262)" style="stroke:#000000; stroke-linecap:round; stroke-linejoin:round; stroke-width:2; stroke-opacity:0.1; fill:none" points="1800.03,623.18 1800.03,106.192 "/>
<polyline clip-path="url(#clip262)" style="stroke:#000000; stroke-linecap:round; stroke-linejoin:round; stroke-width:2; stroke-opacity:0.1; fill:none" points="2352.76,623.18 2352.76,106.192 "/>
<polyline clip-path="url(#clip262)" style="stroke:#000000; stroke-linecap:round; stroke-linejoin:round; stroke-width:2; stroke-opacity:0.1; fill:none" points="141.853,623.18 2352.76,623.18 "/>
<polyline clip-path="url(#clip262)" style="stroke:#000000; stroke-linecap:round; stroke-linejoin:round; stroke-width:2; stroke-opacity:0.1; fill:none" points="141.853,498.604 2352.76,498.604 "/>
<polyline clip-path="url(#clip262)" style="stroke:#000000; stroke-linecap:round; stroke-linejoin:round; stroke-width:2; stroke-opacity:0.1; fill:none" points="141.853,374.029 2352.76,374.029 "/>
<polyline clip-path="url(#clip262)" style="stroke:#000000; stroke-linecap:round; stroke-linejoin:round; stroke-width:2; stroke-opacity:0.1; fill:none" points="141.853,249.454 2352.76,249.454 "/>
<polyline clip-path="url(#clip262)" style="stroke:#000000; stroke-linecap:round; stroke-linejoin:round; stroke-width:2; stroke-opacity:0.1; fill:none" points="141.853,124.878 2352.76,124.878 "/>
<polyline clip-path="url(#clip260)" style="stroke:#000000; stroke-linecap:round; stroke-linejoin:round; stroke-width:4; stroke-opacity:1; fill:none" points="141.853,623.18 2352.76,623.18 "/>
<polyline clip-path="url(#clip260)" style="stroke:#000000; stroke-linecap:round; stroke-linejoin:round; stroke-width:4; stroke-opacity:1; fill:none" points="141.853,623.18 141.853,604.282 "/>
<polyline clip-path="url(#clip260)" style="stroke:#000000; stroke-linecap:round; stroke-linejoin:round; stroke-width:4; stroke-opacity:1; fill:none" points="694.579,623.18 694.579,604.282 "/>
<polyline clip-path="url(#clip260)" style="stroke:#000000; stroke-linecap:round; stroke-linejoin:round; stroke-width:4; stroke-opacity:1; fill:none" points="1247.3,623.18 1247.3,604.282 "/>
<polyline clip-path="url(#clip260)" style="stroke:#000000; stroke-linecap:round; stroke-linejoin:round; stroke-width:4; stroke-opacity:1; fill:none" points="1800.03,623.18 1800.03,604.282 "/>
<polyline clip-path="url(#clip260)" style="stroke:#000000; stroke-linecap:round; stroke-linejoin:round; stroke-width:4; stroke-opacity:1; fill:none" points="2352.76,623.18 2352.76,604.282 "/>
<path clip-path="url(#clip260)" d="M119.237 654.099 Q115.626 654.099 113.798 657.663 Q111.992 661.205 111.992 668.335 Q111.992 675.441 113.798 679.006 Q115.626 682.547 119.237 682.547 Q122.872 682.547 124.677 679.006 Q126.506 675.441 126.506 668.335 Q126.506 661.205 124.677 657.663 Q122.872 654.099 119.237 654.099 M119.237 650.395 Q125.047 650.395 128.103 655.001 Q131.182 659.585 131.182 668.335 Q131.182 677.061 128.103 681.668 Q125.047 686.251 119.237 686.251 Q113.427 686.251 110.348 681.668 Q107.293 677.061 107.293 668.335 Q107.293 659.585 110.348 655.001 Q113.427 650.395 119.237 650.395 Z" fill="#000000" fill-rule="nonzero" fill-opacity="1" /><path clip-path="url(#clip260)" d="M139.399 679.7 L144.283 679.7 L144.283 685.58 L139.399 685.58 L139.399 679.7 Z" fill="#000000" fill-rule="nonzero" fill-opacity="1" /><path clip-path="url(#clip260)" d="M164.469 654.099 Q160.857 654.099 159.029 657.663 Q157.223 661.205 157.223 668.335 Q157.223 675.441 159.029 679.006 Q160.857 682.547 164.469 682.547 Q168.103 682.547 169.908 679.006 Q171.737 675.441 171.737 668.335 Q171.737 661.205 169.908 657.663 Q168.103 654.099 164.469 654.099 M164.469 650.395 Q170.279 650.395 173.334 655.001 Q176.413 659.585 176.413 668.335 Q176.413 677.061 173.334 681.668 Q170.279 686.251 164.469 686.251 Q158.658 686.251 155.58 681.668 Q152.524 677.061 152.524 668.335 Q152.524 659.585 155.58 655.001 Q158.658 650.395 164.469 650.395 Z" fill="#000000" fill-rule="nonzero" fill-opacity="1" /><path clip-path="url(#clip260)" d="M672.461 654.099 Q668.85 654.099 667.021 657.663 Q665.215 661.205 665.215 668.335 Q665.215 675.441 667.021 679.006 Q668.85 682.547 672.461 682.547 Q676.095 682.547 677.901 679.006 Q679.729 675.441 679.729 668.335 Q679.729 661.205 677.901 657.663 Q676.095 654.099 672.461 654.099 M672.461 650.395 Q678.271 650.395 681.326 655.001 Q684.405 659.585 684.405 668.335 Q684.405 677.061 681.326 681.668 Q678.271 686.251 672.461 686.251 Q666.651 686.251 663.572 681.668 Q660.516 677.061 660.516 668.335 Q660.516 659.585 663.572 655.001 Q666.651 650.395 672.461 650.395 Z" fill="#000000" fill-rule="nonzero" fill-opacity="1" /><path clip-path="url(#clip260)" d="M692.623 679.7 L697.507 679.7 L697.507 685.58 L692.623 685.58 L692.623 679.7 Z" fill="#000000" fill-rule="nonzero" fill-opacity="1" /><path clip-path="url(#clip260)" d="M707.738 651.02 L726.095 651.02 L726.095 654.955 L712.021 654.955 L712.021 663.427 Q713.039 663.08 714.058 662.918 Q715.076 662.733 716.095 662.733 Q721.882 662.733 725.261 665.904 Q728.641 669.075 728.641 674.492 Q728.641 680.071 725.169 683.172 Q721.697 686.251 715.377 686.251 Q713.201 686.251 710.933 685.881 Q708.687 685.51 706.28 684.77 L706.28 680.071 Q708.363 681.205 710.586 681.76 Q712.808 682.316 715.285 682.316 Q719.289 682.316 721.627 680.21 Q723.965 678.103 723.965 674.492 Q723.965 670.881 721.627 668.774 Q719.289 666.668 715.285 666.668 Q713.41 666.668 711.535 667.085 Q709.683 667.501 707.738 668.381 L707.738 651.02 Z" fill="#000000" fill-rule="nonzero" fill-opacity="1" /><path clip-path="url(#clip260)" d="M1214.46 681.645 L1222.1 681.645 L1222.1 655.279 L1213.79 656.946 L1213.79 652.687 L1222.05 651.02 L1226.73 651.02 L1226.73 681.645 L1234.36 681.645 L1234.36 685.58 L1214.46 685.58 L1214.46 681.645 Z" fill="#000000" fill-rule="nonzero" fill-opacity="1" /><path clip-path="url(#clip260)" d="M1243.81 679.7 L1248.69 679.7 L1248.69 685.58 L1243.81 685.58 L1243.81 679.7 Z" fill="#000000" fill-rule="nonzero" fill-opacity="1" /><path clip-path="url(#clip260)" d="M1268.88 654.099 Q1265.27 654.099 1263.44 657.663 Q1261.63 661.205 1261.63 668.335 Q1261.63 675.441 1263.44 679.006 Q1265.27 682.547 1268.88 682.547 Q1272.51 682.547 1274.32 679.006 Q1276.15 675.441 1276.15 668.335 Q1276.15 661.205 1274.32 657.663 Q1272.51 654.099 1268.88 654.099 M1268.88 650.395 Q1274.69 650.395 1277.74 655.001 Q1280.82 659.585 1280.82 668.335 Q1280.82 677.061 1277.74 681.668 Q1274.69 686.251 1268.88 686.251 Q1263.07 686.251 1259.99 681.668 Q1256.93 677.061 1256.93 668.335 Q1256.93 659.585 1259.99 655.001 Q1263.07 650.395 1268.88 650.395 Z" fill="#000000" fill-rule="nonzero" fill-opacity="1" /><path clip-path="url(#clip260)" d="M1767.68 681.645 L1775.32 681.645 L1775.32 655.279 L1767.01 656.946 L1767.01 652.687 L1775.27 651.02 L1779.95 651.02 L1779.95 681.645 L1787.59 681.645 L1787.59 685.58 L1767.68 685.58 L1767.68 681.645 Z" fill="#000000" fill-rule="nonzero" fill-opacity="1" /><path clip-path="url(#clip260)" d="M1797.03 679.7 L1801.92 679.7 L1801.92 685.58 L1797.03 685.58 L1797.03 679.7 Z" fill="#000000" fill-rule="nonzero" fill-opacity="1" /><path clip-path="url(#clip260)" d="M1812.15 651.02 L1830.5 651.02 L1830.5 654.955 L1816.43 654.955 L1816.43 663.427 Q1817.45 663.08 1818.47 662.918 Q1819.49 662.733 1820.5 662.733 Q1826.29 662.733 1829.67 665.904 Q1833.05 669.075 1833.05 674.492 Q1833.05 680.071 1829.58 683.172 Q1826.11 686.251 1819.79 686.251 Q1817.61 686.251 1815.34 685.881 Q1813.1 685.51 1810.69 684.77 L1810.69 680.071 Q1812.77 681.205 1815 681.76 Q1817.22 682.316 1819.69 682.316 Q1823.7 682.316 1826.04 680.21 Q1828.37 678.103 1828.37 674.492 Q1828.37 670.881 1826.04 668.774 Q1823.7 666.668 1819.69 666.668 Q1817.82 666.668 1815.94 667.085 Q1814.09 667.501 1812.15 668.381 L1812.15 651.02 Z" fill="#000000" fill-rule="nonzero" fill-opacity="1" /><path clip-path="url(#clip260)" d="M2323.99 681.645 L2340.31 681.645 L2340.31 685.58 L2318.37 685.58 L2318.37 681.645 Q2321.03 678.89 2325.61 674.26 Q2330.22 669.608 2331.4 668.265 Q2333.65 665.742 2334.53 664.006 Q2335.43 662.247 2335.43 660.557 Q2335.43 657.802 2333.49 656.066 Q2331.56 654.33 2328.46 654.33 Q2326.26 654.33 2323.81 655.094 Q2321.38 655.858 2318.6 657.409 L2318.6 652.687 Q2321.43 651.552 2323.88 650.974 Q2326.33 650.395 2328.37 650.395 Q2333.74 650.395 2336.93 653.08 Q2340.13 655.765 2340.13 660.256 Q2340.13 662.386 2339.32 664.307 Q2338.53 666.205 2336.42 668.798 Q2335.85 669.469 2332.74 672.686 Q2329.64 675.881 2323.99 681.645 Z" fill="#000000" fill-rule="nonzero" fill-opacity="1" /><path clip-path="url(#clip260)" d="M2350.13 679.7 L2355.01 679.7 L2355.01 685.58 L2350.13 685.58 L2350.13 679.7 Z" fill="#000000" fill-rule="nonzero" fill-opacity="1" /><path clip-path="url(#clip260)" d="M2375.2 654.099 Q2371.59 654.099 2369.76 657.663 Q2367.95 661.205 2367.95 668.335 Q2367.95 675.441 2369.76 679.006 Q2371.59 682.547 2375.2 682.547 Q2378.83 682.547 2380.64 679.006 Q2382.47 675.441 2382.47 668.335 Q2382.47 661.205 2380.64 657.663 Q2378.83 654.099 2375.2 654.099 M2375.2 650.395 Q2381.01 650.395 2384.06 655.001 Q2387.14 659.585 2387.14 668.335 Q2387.14 677.061 2384.06 681.668 Q2381.01 686.251 2375.2 686.251 Q2369.39 686.251 2366.31 681.668 Q2363.25 677.061 2363.25 668.335 Q2363.25 659.585 2366.31 655.001 Q2369.39 650.395 2375.2 650.395 Z" fill="#000000" fill-rule="nonzero" fill-opacity="1" /><path clip-path="url(#clip260)" d="M1129.54 733.446 L1129.54 738.984 Q1127.06 737.711 1124.38 737.075 Q1121.71 736.438 1118.84 736.438 Q1114.48 736.438 1112.29 737.775 Q1110.12 739.112 1110.12 741.785 Q1110.12 743.822 1111.68 745 Q1113.24 746.146 1117.95 747.196 L1119.96 747.642 Q1126.2 748.979 1128.81 751.429 Q1131.45 753.848 1131.45 758.209 Q1131.45 763.174 1127.5 766.07 Q1123.59 768.967 1116.71 768.967 Q1113.85 768.967 1110.73 768.394 Q1107.64 767.853 1104.2 766.739 L1104.2 760.691 Q1107.45 762.378 1110.6 763.238 Q1113.75 764.065 1116.84 764.065 Q1120.98 764.065 1123.2 762.665 Q1125.43 761.233 1125.43 758.654 Q1125.43 756.267 1123.81 754.994 Q1122.22 753.721 1116.78 752.543 L1114.74 752.066 Q1109.3 750.92 1106.88 748.565 Q1104.46 746.178 1104.46 742.04 Q1104.46 737.011 1108.02 734.274 Q1111.59 731.537 1118.14 731.537 Q1121.39 731.537 1124.26 732.014 Q1127.12 732.491 1129.54 733.446 Z" fill="#000000" fill-rule="nonzero" fill-opacity="1" /><path clip-path="url(#clip260)" d="M1166.43 733.765 L1166.43 739.239 Q1163.95 737.87 1161.43 737.202 Q1158.95 736.502 1156.4 736.502 Q1150.7 736.502 1147.55 740.13 Q1144.4 743.727 1144.4 750.252 Q1144.4 756.777 1147.55 760.405 Q1150.7 764.002 1156.4 764.002 Q1158.95 764.002 1161.43 763.333 Q1163.95 762.633 1166.43 761.264 L1166.43 766.675 Q1163.98 767.821 1161.34 768.394 Q1158.73 768.967 1155.77 768.967 Q1147.71 768.967 1142.97 763.906 Q1138.23 758.845 1138.23 750.252 Q1138.23 741.531 1143 736.534 Q1147.81 731.537 1156.15 731.537 Q1158.85 731.537 1161.43 732.109 Q1164.01 732.651 1166.43 733.765 Z" fill="#000000" fill-rule="nonzero" fill-opacity="1" /><path clip-path="url(#clip260)" d="M1192.81 750.124 Q1185.72 750.124 1182.98 751.748 Q1180.24 753.371 1180.24 757.286 Q1180.24 760.405 1182.28 762.251 Q1184.35 764.065 1187.88 764.065 Q1192.75 764.065 1195.68 760.628 Q1198.64 757.158 1198.64 751.429 L1198.64 750.124 L1192.81 750.124 M1204.5 747.705 L1204.5 768.044 L1198.64 768.044 L1198.64 762.633 Q1196.63 765.88 1193.64 767.439 Q1190.65 768.967 1186.32 768.967 Q1180.85 768.967 1177.6 765.911 Q1174.39 762.824 1174.39 757.668 Q1174.39 751.652 1178.4 748.597 Q1182.44 745.541 1190.43 745.541 L1198.64 745.541 L1198.64 744.968 Q1198.64 740.926 1195.97 738.73 Q1193.32 736.502 1188.52 736.502 Q1185.46 736.502 1182.57 737.234 Q1179.67 737.966 1177 739.43 L1177 734.019 Q1180.21 732.778 1183.23 732.173 Q1186.26 731.537 1189.12 731.537 Q1196.86 731.537 1200.68 735.547 Q1204.5 739.557 1204.5 747.705 Z" fill="#000000" fill-rule="nonzero" fill-opacity="1" /><path clip-path="url(#clip260)" d="M1216.56 718.519 L1222.41 718.519 L1222.41 768.044 L1216.56 768.044 L1216.56 718.519 Z" fill="#000000" fill-rule="nonzero" fill-opacity="1" /><path clip-path="url(#clip260)" d="M1265.16 748.756 L1265.16 751.62 L1238.23 751.62 Q1238.62 757.668 1241.86 760.851 Q1245.14 764.002 1250.96 764.002 Q1254.34 764.002 1257.49 763.174 Q1260.67 762.347 1263.79 760.691 L1263.79 766.23 Q1260.64 767.566 1257.33 768.267 Q1254.02 768.967 1250.61 768.967 Q1242.08 768.967 1237.09 764.002 Q1232.12 759.036 1232.12 750.57 Q1232.12 741.817 1236.83 736.693 Q1241.58 731.537 1249.6 731.537 Q1256.79 731.537 1260.96 736.183 Q1265.16 740.799 1265.16 748.756 M1259.3 747.037 Q1259.24 742.231 1256.6 739.366 Q1253.99 736.502 1249.66 736.502 Q1244.76 736.502 1241.8 739.271 Q1238.87 742.04 1238.42 747.069 L1259.3 747.037 Z" fill="#000000" fill-rule="nonzero" fill-opacity="1" /><path clip-path="url(#clip260)" d="M1298.23 737.807 L1298.23 718.519 L1304.09 718.519 L1304.09 768.044 L1298.23 768.044 L1298.23 762.697 Q1296.38 765.88 1293.55 767.439 Q1290.75 768.967 1286.8 768.967 Q1280.34 768.967 1276.27 763.811 Q1272.23 758.654 1272.23 750.252 Q1272.23 741.849 1276.27 736.693 Q1280.34 731.537 1286.8 731.537 Q1290.75 731.537 1293.55 733.096 Q1296.38 734.624 1298.23 737.807 M1278.27 750.252 Q1278.27 756.713 1280.92 760.405 Q1283.59 764.065 1288.24 764.065 Q1292.88 764.065 1295.56 760.405 Q1298.23 756.713 1298.23 750.252 Q1298.23 743.791 1295.56 740.13 Q1292.88 736.438 1288.24 736.438 Q1283.59 736.438 1280.92 740.13 Q1278.27 743.791 1278.27 750.252 Z" fill="#000000" fill-rule="nonzero" fill-opacity="1" /><path clip-path="url(#clip260)" d="M1354.03 776.001 L1349.28 763.811 L1339.51 781.635 L1332.6 781.635 L1346.42 756.426 L1340.63 741.435 Q1339.07 737.425 1334.16 737.425 L1332.6 737.425 L1332.6 732.396 L1334.83 732.46 Q1343.04 732.682 1345.11 737.998 L1349.82 750.188 L1359.6 732.364 L1366.5 732.364 L1352.69 757.572 L1358.48 772.563 Q1360.04 776.574 1364.94 776.574 L1366.5 776.574 L1366.5 781.603 L1364.27 781.539 Q1356.06 781.316 1354.03 776.001 Z" fill="#000000" fill-rule="nonzero" fill-opacity="1" /><path clip-path="url(#clip260)" d="M1376.91 743.154 L1390.41 743.154 L1390.41 746.782 L1371.37 746.782 L1371.37 743.281 Q1372.45 742.295 1374.46 740.512 Q1385.41 730.804 1385.41 727.813 Q1385.41 725.712 1383.75 724.439 Q1382.1 723.134 1379.39 723.134 Q1377.74 723.134 1375.8 723.707 Q1373.85 724.248 1371.56 725.362 L1371.56 721.447 Q1374.01 720.556 1376.11 720.11 Q1378.25 719.664 1380.06 719.664 Q1384.68 719.664 1387.45 721.765 Q1390.21 723.866 1390.21 727.303 Q1390.21 731.727 1379.68 740.767 Q1377.9 742.295 1376.91 743.154 Z" fill="#000000" fill-rule="nonzero" fill-opacity="1" /><polyline clip-path="url(#clip260)" style="stroke:#000000; stroke-linecap:round; stroke-linejoin:round; stroke-width:4; stroke-opacity:1; fill:none" points="141.853,623.18 141.853,106.192 "/>
<polyline clip-path="url(#clip260)" style="stroke:#000000; stroke-linecap:round; stroke-linejoin:round; stroke-width:4; stroke-opacity:1; fill:none" points="141.853,623.18 160.751,623.18 "/>
<polyline clip-path="url(#clip260)" style="stroke:#000000; stroke-linecap:round; stroke-linejoin:round; stroke-width:4; stroke-opacity:1; fill:none" points="141.853,498.604 160.751,498.604 "/>
<polyline clip-path="url(#clip260)" style="stroke:#000000; stroke-linecap:round; stroke-linejoin:round; stroke-width:4; stroke-opacity:1; fill:none" points="141.853,374.029 160.751,374.029 "/>
<polyline clip-path="url(#clip260)" style="stroke:#000000; stroke-linecap:round; stroke-linejoin:round; stroke-width:4; stroke-opacity:1; fill:none" points="141.853,249.454 160.751,249.454 "/>
<polyline clip-path="url(#clip260)" style="stroke:#000000; stroke-linecap:round; stroke-linejoin:round; stroke-width:4; stroke-opacity:1; fill:none" points="141.853,124.878 160.751,124.878 "/>
<path clip-path="url(#clip260)" d="M93.9086 608.979 Q90.2975 608.979 88.4688 612.543 Q86.6632 616.085 86.6632 623.215 Q86.6632 630.321 88.4688 633.886 Q90.2975 637.427 93.9086 637.427 Q97.5428 637.427 99.3483 633.886 Q101.177 630.321 101.177 623.215 Q101.177 616.085 99.3483 612.543 Q97.5428 608.979 93.9086 608.979 M93.9086 605.275 Q99.7187 605.275 102.774 609.881 Q105.853 614.465 105.853 623.215 Q105.853 631.941 102.774 636.548 Q99.7187 641.131 93.9086 641.131 Q88.0984 641.131 85.0197 636.548 Q81.9642 631.941 81.9642 623.215 Q81.9642 614.465 85.0197 609.881 Q88.0984 605.275 93.9086 605.275 Z" fill="#000000" fill-rule="nonzero" fill-opacity="1" /><path clip-path="url(#clip260)" d="M57.7745 511.949 L74.0939 511.949 L74.0939 515.884 L52.1495 515.884 L52.1495 511.949 Q54.8115 509.195 59.3949 504.565 Q64.0013 499.912 65.1819 498.57 Q67.4272 496.047 68.3068 494.311 Q69.2096 492.551 69.2096 490.861 Q69.2096 488.107 67.2652 486.371 Q65.3439 484.635 62.2421 484.635 Q60.043 484.635 57.5893 485.399 Q55.1588 486.162 52.381 487.713 L52.381 482.991 Q55.2051 481.857 57.6588 481.278 Q60.1124 480.699 62.1495 480.699 Q67.5198 480.699 70.7142 483.385 Q73.9087 486.07 73.9087 490.561 Q73.9087 492.69 73.0985 494.611 Q72.3115 496.51 70.205 499.102 Q69.6263 499.773 66.5245 502.991 Q63.4226 506.185 57.7745 511.949 Z" fill="#000000" fill-rule="nonzero" fill-opacity="1" /><path clip-path="url(#clip260)" d="M93.9086 484.403 Q90.2975 484.403 88.4688 487.968 Q86.6632 491.51 86.6632 498.639 Q86.6632 505.746 88.4688 509.31 Q90.2975 512.852 93.9086 512.852 Q97.5428 512.852 99.3483 509.31 Q101.177 505.746 101.177 498.639 Q101.177 491.51 99.3483 487.968 Q97.5428 484.403 93.9086 484.403 M93.9086 480.699 Q99.7187 480.699 102.774 485.306 Q105.853 489.889 105.853 498.639 Q105.853 507.366 102.774 511.972 Q99.7187 516.556 93.9086 516.556 Q88.0984 516.556 85.0197 511.972 Q81.9642 507.366 81.9642 498.639 Q81.9642 489.889 85.0197 485.306 Q88.0984 480.699 93.9086 480.699 Z" fill="#000000" fill-rule="nonzero" fill-opacity="1" /><path clip-path="url(#clip260)" d="M66.5939 360.823 L54.7884 379.272 L66.5939 379.272 L66.5939 360.823 M65.367 356.749 L71.2466 356.749 L71.2466 379.272 L76.1772 379.272 L76.1772 383.161 L71.2466 383.161 L71.2466 391.309 L66.5939 391.309 L66.5939 383.161 L50.9921 383.161 L50.9921 378.647 L65.367 356.749 Z" fill="#000000" fill-rule="nonzero" fill-opacity="1" /><path clip-path="url(#clip260)" d="M93.9086 359.828 Q90.2975 359.828 88.4688 363.393 Q86.6632 366.934 86.6632 374.064 Q86.6632 381.17 88.4688 384.735 Q90.2975 388.277 93.9086 388.277 Q97.5428 388.277 99.3483 384.735 Q101.177 381.17 101.177 374.064 Q101.177 366.934 99.3483 363.393 Q97.5428 359.828 93.9086 359.828 M93.9086 356.124 Q99.7187 356.124 102.774 360.731 Q105.853 365.314 105.853 374.064 Q105.853 382.791 102.774 387.397 Q99.7187 391.98 93.9086 391.98 Q88.0984 391.98 85.0197 387.397 Q81.9642 382.791 81.9642 374.064 Q81.9642 365.314 85.0197 360.731 Q88.0984 356.124 93.9086 356.124 Z" fill="#000000" fill-rule="nonzero" fill-opacity="1" /><path clip-path="url(#clip260)" d="M64.3254 247.59 Q61.1773 247.59 59.3254 249.743 Q57.4967 251.896 57.4967 255.646 Q57.4967 259.373 59.3254 261.549 Q61.1773 263.701 64.3254 263.701 Q67.4735 263.701 69.3022 261.549 Q71.1541 259.373 71.1541 255.646 Q71.1541 251.896 69.3022 249.743 Q67.4735 247.59 64.3254 247.59 M73.6077 232.938 L73.6077 237.197 Q71.8485 236.364 70.0429 235.924 Q68.2606 235.484 66.5013 235.484 Q61.8717 235.484 59.418 238.609 Q56.9875 241.734 56.6402 248.053 Q58.006 246.039 60.0662 244.975 Q62.1263 243.887 64.6032 243.887 Q69.8115 243.887 72.8207 247.058 Q75.8531 250.206 75.8531 255.646 Q75.8531 260.97 72.705 264.187 Q69.5568 267.405 64.3254 267.405 Q58.33 267.405 55.1588 262.822 Q51.9875 258.215 51.9875 249.489 Q51.9875 241.294 55.8764 236.433 Q59.7652 231.549 66.3161 231.549 Q68.0754 231.549 69.8578 231.896 Q71.6633 232.243 73.6077 232.938 Z" fill="#000000" fill-rule="nonzero" fill-opacity="1" /><path clip-path="url(#clip260)" d="M93.9086 235.252 Q90.2975 235.252 88.4688 238.817 Q86.6632 242.359 86.6632 249.489 Q86.6632 256.595 88.4688 260.16 Q90.2975 263.701 93.9086 263.701 Q97.5428 263.701 99.3483 260.16 Q101.177 256.595 101.177 249.489 Q101.177 242.359 99.3483 238.817 Q97.5428 235.252 93.9086 235.252 M93.9086 231.549 Q99.7187 231.549 102.774 236.155 Q105.853 240.739 105.853 249.489 Q105.853 258.215 102.774 262.822 Q99.7187 267.405 93.9086 267.405 Q88.0984 267.405 85.0197 262.822 Q81.9642 258.215 81.9642 249.489 Q81.9642 240.739 85.0197 236.155 Q88.0984 231.549 93.9086 231.549 Z" fill="#000000" fill-rule="nonzero" fill-opacity="1" /><path clip-path="url(#clip260)" d="M63.7467 125.746 Q60.4134 125.746 58.4921 127.529 Q56.5939 129.311 56.5939 132.436 Q56.5939 135.561 58.4921 137.344 Q60.4134 139.126 63.7467 139.126 Q67.08 139.126 69.0013 137.344 Q70.9226 135.538 70.9226 132.436 Q70.9226 129.311 69.0013 127.529 Q67.1032 125.746 63.7467 125.746 M59.0708 123.756 Q56.0615 123.015 54.3717 120.955 Q52.7051 118.895 52.7051 115.932 Q52.7051 111.788 55.6449 109.381 Q58.6078 106.973 63.7467 106.973 Q68.9087 106.973 71.8485 109.381 Q74.7883 111.788 74.7883 115.932 Q74.7883 118.895 73.0985 120.955 Q71.4318 123.015 68.4457 123.756 Q71.8253 124.543 73.7003 126.834 Q75.5985 129.126 75.5985 132.436 Q75.5985 137.459 72.5198 140.145 Q69.4642 142.83 63.7467 142.83 Q58.0291 142.83 54.9504 140.145 Q51.8949 137.459 51.8949 132.436 Q51.8949 129.126 53.793 126.834 Q55.6912 124.543 59.0708 123.756 M57.3578 116.372 Q57.3578 119.057 59.0245 120.561 Q60.7143 122.066 63.7467 122.066 Q66.7559 122.066 68.4457 120.561 Q70.1587 119.057 70.1587 116.372 Q70.1587 113.686 68.4457 112.182 Q66.7559 110.677 63.7467 110.677 Q60.7143 110.677 59.0245 112.182 Q57.3578 113.686 57.3578 116.372 Z" fill="#000000" fill-rule="nonzero" fill-opacity="1" /><path clip-path="url(#clip260)" d="M93.9086 110.677 Q90.2975 110.677 88.4688 114.242 Q86.6632 117.784 86.6632 124.913 Q86.6632 132.02 88.4688 135.584 Q90.2975 139.126 93.9086 139.126 Q97.5428 139.126 99.3483 135.584 Q101.177 132.02 101.177 124.913 Q101.177 117.784 99.3483 114.242 Q97.5428 110.677 93.9086 110.677 M93.9086 106.973 Q99.7187 106.973 102.774 111.58 Q105.853 116.163 105.853 124.913 Q105.853 133.64 102.774 138.246 Q99.7187 142.83 93.9086 142.83 Q88.0984 142.83 85.0197 138.246 Q81.9642 133.64 81.9642 124.913 Q81.9642 116.163 85.0197 111.58 Q88.0984 106.973 93.9086 106.973 Z" fill="#000000" fill-rule="nonzero" fill-opacity="1" /><path clip-path="url(#clip260)" d="M1240.82 45.6768 L1240.82 34.0739 L1231.27 34.0739 L1231.27 29.2707 L1246.61 29.2707 L1246.61 47.818 Q1243.22 50.2196 1239.14 51.4638 Q1235.06 52.6791 1230.44 52.6791 Q1220.31 52.6791 1214.58 46.7764 Q1208.88 40.8447 1208.88 30.2834 Q1208.88 19.6932 1214.58 13.7904 Q1220.31 7.85875 1230.44 7.85875 Q1234.66 7.85875 1238.45 8.90042 Q1242.27 9.94208 1245.48 11.9675 L1245.48 18.1886 Q1242.24 15.4397 1238.59 14.0509 Q1234.95 12.662 1230.93 12.662 Q1223 12.662 1219.01 17.089 Q1215.04 21.5161 1215.04 30.2834 Q1215.04 39.0218 1219.01 43.4488 Q1223 47.8759 1230.93 47.8759 Q1234.02 47.8759 1236.45 47.3551 Q1238.88 46.8053 1240.82 45.6768 Z" fill="#000000" fill-rule="nonzero" fill-opacity="1" /><path clip-path="url(#clip260)" d="M1249.19 8.64 L1285.73 8.64 L1285.73 13.559 L1270.39 13.559 L1270.39 51.84 L1264.52 51.84 L1264.52 13.559 L1249.19 13.559 L1249.19 8.64 Z" fill="#000000" fill-rule="nonzero" fill-opacity="1" /><path clip-path="url(#clip262)" d="M694.579 604.494 L694.579 623.18 L805.124 623.18 L805.124 604.494 L694.579 604.494 L694.579 604.494  Z" fill="#009af9" fill-rule="evenodd" fill-opacity="1"/>
<polyline clip-path="url(#clip262)" style="stroke:#000000; stroke-linecap:round; stroke-linejoin:round; stroke-width:6; stroke-opacity:1; fill:none" points="694.579,604.494 694.579,623.18 805.124,623.18 805.124,604.494 694.579,604.494 "/>
<path clip-path="url(#clip262)" d="M805.124 517.291 L805.124 623.18 L915.669 623.18 L915.669 517.291 L805.124 517.291 L805.124 517.291  Z" fill="#009af9" fill-rule="evenodd" fill-opacity="1"/>
<polyline clip-path="url(#clip262)" style="stroke:#000000; stroke-linecap:round; stroke-linejoin:round; stroke-width:6; stroke-opacity:1; fill:none" points="805.124,517.291 805.124,623.18 915.669,623.18 915.669,517.291 805.124,517.291 "/>
<path clip-path="url(#clip262)" d="M915.669 430.088 L915.669 623.18 L1026.21 623.18 L1026.21 430.088 L915.669 430.088 L915.669 430.088  Z" fill="#009af9" fill-rule="evenodd" fill-opacity="1"/>
<polyline clip-path="url(#clip262)" style="stroke:#000000; stroke-linecap:round; stroke-linejoin:round; stroke-width:6; stroke-opacity:1; fill:none" points="915.669,430.088 915.669,623.18 1026.21,623.18 1026.21,430.088 915.669,430.088 "/>
<path clip-path="url(#clip262)" d="M1026.21 230.767 L1026.21 623.18 L1136.76 623.18 L1136.76 230.767 L1026.21 230.767 L1026.21 230.767  Z" fill="#009af9" fill-rule="evenodd" fill-opacity="1"/>
<polyline clip-path="url(#clip262)" style="stroke:#000000; stroke-linecap:round; stroke-linejoin:round; stroke-width:6; stroke-opacity:1; fill:none" points="1026.21,230.767 1026.21,623.18 1136.76,623.18 1136.76,230.767 1026.21,230.767 "/>
<path clip-path="url(#clip262)" d="M1136.76 106.192 L1136.76 623.18 L1247.3 623.18 L1247.3 106.192 L1136.76 106.192 L1136.76 106.192  Z" fill="#009af9" fill-rule="evenodd" fill-opacity="1"/>
<polyline clip-path="url(#clip262)" style="stroke:#000000; stroke-linecap:round; stroke-linejoin:round; stroke-width:6; stroke-opacity:1; fill:none" points="1136.76,106.192 1136.76,623.18 1247.3,623.18 1247.3,106.192 1136.76,106.192 "/>
<path clip-path="url(#clip262)" d="M1247.3 224.539 L1247.3 623.18 L1357.85 623.18 L1357.85 224.539 L1247.3 224.539 L1247.3 224.539  Z" fill="#009af9" fill-rule="evenodd" fill-opacity="1"/>
<polyline clip-path="url(#clip262)" style="stroke:#000000; stroke-linecap:round; stroke-linejoin:round; stroke-width:6; stroke-opacity:1; fill:none" points="1247.3,224.539 1247.3,623.18 1357.85,623.18 1357.85,224.539 1247.3,224.539 "/>
<path clip-path="url(#clip262)" d="M1357.85 212.081 L1357.85 623.18 L1468.39 623.18 L1468.39 212.081 L1357.85 212.081 L1357.85 212.081  Z" fill="#009af9" fill-rule="evenodd" fill-opacity="1"/>
<polyline clip-path="url(#clip262)" style="stroke:#000000; stroke-linecap:round; stroke-linejoin:round; stroke-width:6; stroke-opacity:1; fill:none" points="1357.85,212.081 1357.85,623.18 1468.39,623.18 1468.39,212.081 1357.85,212.081 "/>
<path clip-path="url(#clip262)" d="M1468.39 398.944 L1468.39 623.18 L1578.94 623.18 L1578.94 398.944 L1468.39 398.944 L1468.39 398.944  Z" fill="#009af9" fill-rule="evenodd" fill-opacity="1"/>
<polyline clip-path="url(#clip262)" style="stroke:#000000; stroke-linecap:round; stroke-linejoin:round; stroke-width:6; stroke-opacity:1; fill:none" points="1468.39,398.944 1468.39,623.18 1578.94,623.18 1578.94,398.944 1468.39,398.944 "/>
<path clip-path="url(#clip262)" d="M1578.94 473.689 L1578.94 623.18 L1689.49 623.18 L1689.49 473.689 L1578.94 473.689 L1578.94 473.689  Z" fill="#009af9" fill-rule="evenodd" fill-opacity="1"/>
<polyline clip-path="url(#clip262)" style="stroke:#000000; stroke-linecap:round; stroke-linejoin:round; stroke-width:6; stroke-opacity:1; fill:none" points="1578.94,473.689 1578.94,623.18 1689.49,623.18 1689.49,473.689 1578.94,473.689 "/>
<path clip-path="url(#clip262)" d="M1689.49 567.121 L1689.49 623.18 L1800.03 623.18 L1800.03 567.121 L1689.49 567.121 L1689.49 567.121  Z" fill="#009af9" fill-rule="evenodd" fill-opacity="1"/>
<polyline clip-path="url(#clip262)" style="stroke:#000000; stroke-linecap:round; stroke-linejoin:round; stroke-width:6; stroke-opacity:1; fill:none" points="1689.49,567.121 1689.49,623.18 1800.03,623.18 1800.03,567.121 1689.49,567.121 "/>
<path clip-path="url(#clip262)" d="M1800.03 604.494 L1800.03 623.18 L1910.58 623.18 L1910.58 604.494 L1800.03 604.494 L1800.03 604.494  Z" fill="#009af9" fill-rule="evenodd" fill-opacity="1"/>
<polyline clip-path="url(#clip262)" style="stroke:#000000; stroke-linecap:round; stroke-linejoin:round; stroke-width:6; stroke-opacity:1; fill:none" points="1800.03,604.494 1800.03,623.18 1910.58,623.18 1910.58,604.494 1800.03,604.494 "/>
<path clip-path="url(#clip262)" d="M1910.58 623.18 L1910.58 623.18 L2021.12 623.18 L2021.12 623.18 L1910.58 623.18 L1910.58 623.18  Z" fill="#009af9" fill-rule="evenodd" fill-opacity="1"/>
<polyline clip-path="url(#clip262)" style="stroke:#000000; stroke-linecap:round; stroke-linejoin:round; stroke-width:6; stroke-opacity:1; fill:none" points="1910.58,623.18 1910.58,623.18 2021.12,623.18 1910.58,623.18 "/>
<path clip-path="url(#clip262)" d="M2021.12 616.951 L2021.12 623.18 L2131.67 623.18 L2131.67 616.951 L2021.12 616.951 L2021.12 616.951  Z" fill="#009af9" fill-rule="evenodd" fill-opacity="1"/>
<polyline clip-path="url(#clip262)" style="stroke:#000000; stroke-linecap:round; stroke-linejoin:round; stroke-width:6; stroke-opacity:1; fill:none" points="2021.12,616.951 2021.12,623.18 2131.67,623.18 2131.67,616.951 2021.12,616.951 "/>
<circle clip-path="url(#clip262)" style="fill:#009af9; stroke:none; fill-opacity:0" cx="749.851" cy="604.494" r="2"/>
<circle clip-path="url(#clip262)" style="fill:#009af9; stroke:none; fill-opacity:0" cx="860.396" cy="517.291" r="2"/>
<circle clip-path="url(#clip262)" style="fill:#009af9; stroke:none; fill-opacity:0" cx="970.942" cy="430.088" r="2"/>
<circle clip-path="url(#clip262)" style="fill:#009af9; stroke:none; fill-opacity:0" cx="1081.49" cy="230.767" r="2"/>
<circle clip-path="url(#clip262)" style="fill:#009af9; stroke:none; fill-opacity:0" cx="1192.03" cy="106.192" r="2"/>
<circle clip-path="url(#clip262)" style="fill:#009af9; stroke:none; fill-opacity:0" cx="1302.58" cy="224.539" r="2"/>
<circle clip-path="url(#clip262)" style="fill:#009af9; stroke:none; fill-opacity:0" cx="1413.12" cy="212.081" r="2"/>
<circle clip-path="url(#clip262)" style="fill:#009af9; stroke:none; fill-opacity:0" cx="1523.67" cy="398.944" r="2"/>
<circle clip-path="url(#clip262)" style="fill:#009af9; stroke:none; fill-opacity:0" cx="1634.21" cy="473.689" r="2"/>
<circle clip-path="url(#clip262)" style="fill:#009af9; stroke:none; fill-opacity:0" cx="1744.76" cy="567.121" r="2"/>
<circle clip-path="url(#clip262)" style="fill:#009af9; stroke:none; fill-opacity:0" cx="1855.3" cy="604.494" r="2"/>
<circle clip-path="url(#clip262)" style="fill:#009af9; stroke:none; fill-opacity:0" cx="1965.85" cy="623.18" r="2"/>
<circle clip-path="url(#clip262)" style="fill:#009af9; stroke:none; fill-opacity:0" cx="2076.39" cy="616.951" r="2"/>
<circle clip-path="url(#clip262)" cx="1267.89" cy="616.951" r="14.4" fill="#ff00ff" fill-rule="evenodd" fill-opacity="1" stroke="none"/>
<path clip-path="url(#clip260)" d="M141.853 1423.18 L2352.76 1423.18 L2352.76 906.192 L141.853 906.192  Z" fill="#ffffff" fill-rule="evenodd" fill-opacity="1"/>
<polyline clip-path="url(#clip261)" style="stroke:#000000; stroke-linecap:round; stroke-linejoin:round; stroke-width:2; stroke-opacity:0.1; fill:none" points="141.853,1423.18 141.853,906.192 "/>
<polyline clip-path="url(#clip261)" style="stroke:#000000; stroke-linecap:round; stroke-linejoin:round; stroke-width:2; stroke-opacity:0.1; fill:none" points="694.579,1423.18 694.579,906.192 "/>
<polyline clip-path="url(#clip261)" style="stroke:#000000; stroke-linecap:round; stroke-linejoin:round; stroke-width:2; stroke-opacity:0.1; fill:none" points="1247.3,1423.18 1247.3,906.192 "/>
<polyline clip-path="url(#clip261)" style="stroke:#000000; stroke-linecap:round; stroke-linejoin:round; stroke-width:2; stroke-opacity:0.1; fill:none" points="1800.03,1423.18 1800.03,906.192 "/>
<polyline clip-path="url(#clip261)" style="stroke:#000000; stroke-linecap:round; stroke-linejoin:round; stroke-width:2; stroke-opacity:0.1; fill:none" points="2352.76,1423.18 2352.76,906.192 "/>
<polyline clip-path="url(#clip261)" style="stroke:#000000; stroke-linecap:round; stroke-linejoin:round; stroke-width:2; stroke-opacity:0.1; fill:none" points="141.853,1423.18 2352.76,1423.18 "/>
<polyline clip-path="url(#clip261)" style="stroke:#000000; stroke-linecap:round; stroke-linejoin:round; stroke-width:2; stroke-opacity:0.1; fill:none" points="141.853,1295.53 2352.76,1295.53 "/>
<polyline clip-path="url(#clip261)" style="stroke:#000000; stroke-linecap:round; stroke-linejoin:round; stroke-width:2; stroke-opacity:0.1; fill:none" points="141.853,1167.88 2352.76,1167.88 "/>
<polyline clip-path="url(#clip261)" style="stroke:#000000; stroke-linecap:round; stroke-linejoin:round; stroke-width:2; stroke-opacity:0.1; fill:none" points="141.853,1040.23 2352.76,1040.23 "/>
<polyline clip-path="url(#clip261)" style="stroke:#000000; stroke-linecap:round; stroke-linejoin:round; stroke-width:2; stroke-opacity:0.1; fill:none" points="141.853,912.575 2352.76,912.575 "/>
<polyline clip-path="url(#clip260)" style="stroke:#000000; stroke-linecap:round; stroke-linejoin:round; stroke-width:4; stroke-opacity:1; fill:none" points="141.853,1423.18 2352.76,1423.18 "/>
<polyline clip-path="url(#clip260)" style="stroke:#000000; stroke-linecap:round; stroke-linejoin:round; stroke-width:4; stroke-opacity:1; fill:none" points="141.853,1423.18 141.853,1404.28 "/>
<polyline clip-path="url(#clip260)" style="stroke:#000000; stroke-linecap:round; stroke-linejoin:round; stroke-width:4; stroke-opacity:1; fill:none" points="694.579,1423.18 694.579,1404.28 "/>
<polyline clip-path="url(#clip260)" style="stroke:#000000; stroke-linecap:round; stroke-linejoin:round; stroke-width:4; stroke-opacity:1; fill:none" points="1247.3,1423.18 1247.3,1404.28 "/>
<polyline clip-path="url(#clip260)" style="stroke:#000000; stroke-linecap:round; stroke-linejoin:round; stroke-width:4; stroke-opacity:1; fill:none" points="1800.03,1423.18 1800.03,1404.28 "/>
<polyline clip-path="url(#clip260)" style="stroke:#000000; stroke-linecap:round; stroke-linejoin:round; stroke-width:4; stroke-opacity:1; fill:none" points="2352.76,1423.18 2352.76,1404.28 "/>
<path clip-path="url(#clip260)" d="M119.237 1454.1 Q115.626 1454.1 113.798 1457.66 Q111.992 1461.2 111.992 1468.33 Q111.992 1475.44 113.798 1479.01 Q115.626 1482.55 119.237 1482.55 Q122.872 1482.55 124.677 1479.01 Q126.506 1475.44 126.506 1468.33 Q126.506 1461.2 124.677 1457.66 Q122.872 1454.1 119.237 1454.1 M119.237 1450.39 Q125.047 1450.39 128.103 1455 Q131.182 1459.58 131.182 1468.33 Q131.182 1477.06 128.103 1481.67 Q125.047 1486.25 119.237 1486.25 Q113.427 1486.25 110.348 1481.67 Q107.293 1477.06 107.293 1468.33 Q107.293 1459.58 110.348 1455 Q113.427 1450.39 119.237 1450.39 Z" fill="#000000" fill-rule="nonzero" fill-opacity="1" /><path clip-path="url(#clip260)" d="M139.399 1479.7 L144.283 1479.7 L144.283 1485.58 L139.399 1485.58 L139.399 1479.7 Z" fill="#000000" fill-rule="nonzero" fill-opacity="1" /><path clip-path="url(#clip260)" d="M164.469 1454.1 Q160.857 1454.1 159.029 1457.66 Q157.223 1461.2 157.223 1468.33 Q157.223 1475.44 159.029 1479.01 Q160.857 1482.55 164.469 1482.55 Q168.103 1482.55 169.908 1479.01 Q171.737 1475.44 171.737 1468.33 Q171.737 1461.2 169.908 1457.66 Q168.103 1454.1 164.469 1454.1 M164.469 1450.39 Q170.279 1450.39 173.334 1455 Q176.413 1459.58 176.413 1468.33 Q176.413 1477.06 173.334 1481.67 Q170.279 1486.25 164.469 1486.25 Q158.658 1486.25 155.58 1481.67 Q152.524 1477.06 152.524 1468.33 Q152.524 1459.58 155.58 1455 Q158.658 1450.39 164.469 1450.39 Z" fill="#000000" fill-rule="nonzero" fill-opacity="1" /><path clip-path="url(#clip260)" d="M672.461 1454.1 Q668.85 1454.1 667.021 1457.66 Q665.215 1461.2 665.215 1468.33 Q665.215 1475.44 667.021 1479.01 Q668.85 1482.55 672.461 1482.55 Q676.095 1482.55 677.901 1479.01 Q679.729 1475.44 679.729 1468.33 Q679.729 1461.2 677.901 1457.66 Q676.095 1454.1 672.461 1454.1 M672.461 1450.39 Q678.271 1450.39 681.326 1455 Q684.405 1459.58 684.405 1468.33 Q684.405 1477.06 681.326 1481.67 Q678.271 1486.25 672.461 1486.25 Q666.651 1486.25 663.572 1481.67 Q660.516 1477.06 660.516 1468.33 Q660.516 1459.58 663.572 1455 Q666.651 1450.39 672.461 1450.39 Z" fill="#000000" fill-rule="nonzero" fill-opacity="1" /><path clip-path="url(#clip260)" d="M692.623 1479.7 L697.507 1479.7 L697.507 1485.58 L692.623 1485.58 L692.623 1479.7 Z" fill="#000000" fill-rule="nonzero" fill-opacity="1" /><path clip-path="url(#clip260)" d="M707.738 1451.02 L726.095 1451.02 L726.095 1454.96 L712.021 1454.96 L712.021 1463.43 Q713.039 1463.08 714.058 1462.92 Q715.076 1462.73 716.095 1462.73 Q721.882 1462.73 725.261 1465.9 Q728.641 1469.08 728.641 1474.49 Q728.641 1480.07 725.169 1483.17 Q721.697 1486.25 715.377 1486.25 Q713.201 1486.25 710.933 1485.88 Q708.687 1485.51 706.28 1484.77 L706.28 1480.07 Q708.363 1481.2 710.586 1481.76 Q712.808 1482.32 715.285 1482.32 Q719.289 1482.32 721.627 1480.21 Q723.965 1478.1 723.965 1474.49 Q723.965 1470.88 721.627 1468.77 Q719.289 1466.67 715.285 1466.67 Q713.41 1466.67 711.535 1467.08 Q709.683 1467.5 707.738 1468.38 L707.738 1451.02 Z" fill="#000000" fill-rule="nonzero" fill-opacity="1" /><path clip-path="url(#clip260)" d="M1214.46 1481.64 L1222.1 1481.64 L1222.1 1455.28 L1213.79 1456.95 L1213.79 1452.69 L1222.05 1451.02 L1226.73 1451.02 L1226.73 1481.64 L1234.36 1481.64 L1234.36 1485.58 L1214.46 1485.58 L1214.46 1481.64 Z" fill="#000000" fill-rule="nonzero" fill-opacity="1" /><path clip-path="url(#clip260)" d="M1243.81 1479.7 L1248.69 1479.7 L1248.69 1485.58 L1243.81 1485.58 L1243.81 1479.7 Z" fill="#000000" fill-rule="nonzero" fill-opacity="1" /><path clip-path="url(#clip260)" d="M1268.88 1454.1 Q1265.27 1454.1 1263.44 1457.66 Q1261.63 1461.2 1261.63 1468.33 Q1261.63 1475.44 1263.44 1479.01 Q1265.27 1482.55 1268.88 1482.55 Q1272.51 1482.55 1274.32 1479.01 Q1276.15 1475.44 1276.15 1468.33 Q1276.15 1461.2 1274.32 1457.66 Q1272.51 1454.1 1268.88 1454.1 M1268.88 1450.39 Q1274.69 1450.39 1277.74 1455 Q1280.82 1459.58 1280.82 1468.33 Q1280.82 1477.06 1277.74 1481.67 Q1274.69 1486.25 1268.88 1486.25 Q1263.07 1486.25 1259.99 1481.67 Q1256.93 1477.06 1256.93 1468.33 Q1256.93 1459.58 1259.99 1455 Q1263.07 1450.39 1268.88 1450.39 Z" fill="#000000" fill-rule="nonzero" fill-opacity="1" /><path clip-path="url(#clip260)" d="M1767.68 1481.64 L1775.32 1481.64 L1775.32 1455.28 L1767.01 1456.95 L1767.01 1452.69 L1775.27 1451.02 L1779.95 1451.02 L1779.95 1481.64 L1787.59 1481.64 L1787.59 1485.58 L1767.68 1485.58 L1767.68 1481.64 Z" fill="#000000" fill-rule="nonzero" fill-opacity="1" /><path clip-path="url(#clip260)" d="M1797.03 1479.7 L1801.92 1479.7 L1801.92 1485.58 L1797.03 1485.58 L1797.03 1479.7 Z" fill="#000000" fill-rule="nonzero" fill-opacity="1" /><path clip-path="url(#clip260)" d="M1812.15 1451.02 L1830.5 1451.02 L1830.5 1454.96 L1816.43 1454.96 L1816.43 1463.43 Q1817.45 1463.08 1818.47 1462.92 Q1819.49 1462.73 1820.5 1462.73 Q1826.29 1462.73 1829.67 1465.9 Q1833.05 1469.08 1833.05 1474.49 Q1833.05 1480.07 1829.58 1483.17 Q1826.11 1486.25 1819.79 1486.25 Q1817.61 1486.25 1815.34 1485.88 Q1813.1 1485.51 1810.69 1484.77 L1810.69 1480.07 Q1812.77 1481.2 1815 1481.76 Q1817.22 1482.32 1819.69 1482.32 Q1823.7 1482.32 1826.04 1480.21 Q1828.37 1478.1 1828.37 1474.49 Q1828.37 1470.88 1826.04 1468.77 Q1823.7 1466.67 1819.69 1466.67 Q1817.82 1466.67 1815.94 1467.08 Q1814.09 1467.5 1812.15 1468.38 L1812.15 1451.02 Z" fill="#000000" fill-rule="nonzero" fill-opacity="1" /><path clip-path="url(#clip260)" d="M2323.99 1481.64 L2340.31 1481.64 L2340.31 1485.58 L2318.37 1485.58 L2318.37 1481.64 Q2321.03 1478.89 2325.61 1474.26 Q2330.22 1469.61 2331.4 1468.27 Q2333.65 1465.74 2334.53 1464.01 Q2335.43 1462.25 2335.43 1460.56 Q2335.43 1457.8 2333.49 1456.07 Q2331.56 1454.33 2328.46 1454.33 Q2326.26 1454.33 2323.81 1455.09 Q2321.38 1455.86 2318.6 1457.41 L2318.6 1452.69 Q2321.43 1451.55 2323.88 1450.97 Q2326.33 1450.39 2328.37 1450.39 Q2333.74 1450.39 2336.93 1453.08 Q2340.13 1455.77 2340.13 1460.26 Q2340.13 1462.39 2339.32 1464.31 Q2338.53 1466.2 2336.42 1468.8 Q2335.85 1469.47 2332.74 1472.69 Q2329.64 1475.88 2323.99 1481.64 Z" fill="#000000" fill-rule="nonzero" fill-opacity="1" /><path clip-path="url(#clip260)" d="M2350.13 1479.7 L2355.01 1479.7 L2355.01 1485.58 L2350.13 1485.58 L2350.13 1479.7 Z" fill="#000000" fill-rule="nonzero" fill-opacity="1" /><path clip-path="url(#clip260)" d="M2375.2 1454.1 Q2371.59 1454.1 2369.76 1457.66 Q2367.95 1461.2 2367.95 1468.33 Q2367.95 1475.44 2369.76 1479.01 Q2371.59 1482.55 2375.2 1482.55 Q2378.83 1482.55 2380.64 1479.01 Q2382.47 1475.44 2382.47 1468.33 Q2382.47 1461.2 2380.64 1457.66 Q2378.83 1454.1 2375.2 1454.1 M2375.2 1450.39 Q2381.01 1450.39 2384.06 1455 Q2387.14 1459.58 2387.14 1468.33 Q2387.14 1477.06 2384.06 1481.67 Q2381.01 1486.25 2375.2 1486.25 Q2369.39 1486.25 2366.31 1481.67 Q2363.25 1477.06 2363.25 1468.33 Q2363.25 1459.58 2366.31 1455 Q2369.39 1450.39 2375.2 1450.39 Z" fill="#000000" fill-rule="nonzero" fill-opacity="1" /><path clip-path="url(#clip260)" d="M1129.54 1533.45 L1129.54 1538.98 Q1127.06 1537.71 1124.38 1537.07 Q1121.71 1536.44 1118.84 1536.44 Q1114.48 1536.44 1112.29 1537.77 Q1110.12 1539.11 1110.12 1541.79 Q1110.12 1543.82 1111.68 1545 Q1113.24 1546.15 1117.95 1547.2 L1119.96 1547.64 Q1126.2 1548.98 1128.81 1551.43 Q1131.45 1553.85 1131.45 1558.21 Q1131.45 1563.17 1127.5 1566.07 Q1123.59 1568.97 1116.71 1568.97 Q1113.85 1568.97 1110.73 1568.39 Q1107.64 1567.85 1104.2 1566.74 L1104.2 1560.69 Q1107.45 1562.38 1110.6 1563.24 Q1113.75 1564.07 1116.84 1564.07 Q1120.98 1564.07 1123.2 1562.66 Q1125.43 1561.23 1125.43 1558.65 Q1125.43 1556.27 1123.81 1554.99 Q1122.22 1553.72 1116.78 1552.54 L1114.74 1552.07 Q1109.3 1550.92 1106.88 1548.56 Q1104.46 1546.18 1104.46 1542.04 Q1104.46 1537.01 1108.02 1534.27 Q1111.59 1531.54 1118.14 1531.54 Q1121.39 1531.54 1124.26 1532.01 Q1127.12 1532.49 1129.54 1533.45 Z" fill="#000000" fill-rule="nonzero" fill-opacity="1" /><path clip-path="url(#clip260)" d="M1166.43 1533.76 L1166.43 1539.24 Q1163.95 1537.87 1161.43 1537.2 Q1158.95 1536.5 1156.4 1536.5 Q1150.7 1536.5 1147.55 1540.13 Q1144.4 1543.73 1144.4 1550.25 Q1144.4 1556.78 1147.55 1560.4 Q1150.7 1564 1156.4 1564 Q1158.95 1564 1161.43 1563.33 Q1163.95 1562.63 1166.43 1561.26 L1166.43 1566.68 Q1163.98 1567.82 1161.34 1568.39 Q1158.73 1568.97 1155.77 1568.97 Q1147.71 1568.97 1142.97 1563.91 Q1138.23 1558.85 1138.23 1550.25 Q1138.23 1541.53 1143 1536.53 Q1147.81 1531.54 1156.15 1531.54 Q1158.85 1531.54 1161.43 1532.11 Q1164.01 1532.65 1166.43 1533.76 Z" fill="#000000" fill-rule="nonzero" fill-opacity="1" /><path clip-path="url(#clip260)" d="M1192.81 1550.12 Q1185.72 1550.12 1182.98 1551.75 Q1180.24 1553.37 1180.24 1557.29 Q1180.24 1560.4 1182.28 1562.25 Q1184.35 1564.07 1187.88 1564.07 Q1192.75 1564.07 1195.68 1560.63 Q1198.64 1557.16 1198.64 1551.43 L1198.64 1550.12 L1192.81 1550.12 M1204.5 1547.71 L1204.5 1568.04 L1198.64 1568.04 L1198.64 1562.63 Q1196.63 1565.88 1193.64 1567.44 Q1190.65 1568.97 1186.32 1568.97 Q1180.85 1568.97 1177.6 1565.91 Q1174.39 1562.82 1174.39 1557.67 Q1174.39 1551.65 1178.4 1548.6 Q1182.44 1545.54 1190.43 1545.54 L1198.64 1545.54 L1198.64 1544.97 Q1198.64 1540.93 1195.97 1538.73 Q1193.32 1536.5 1188.52 1536.5 Q1185.46 1536.5 1182.57 1537.23 Q1179.67 1537.97 1177 1539.43 L1177 1534.02 Q1180.21 1532.78 1183.23 1532.17 Q1186.26 1531.54 1189.12 1531.54 Q1196.86 1531.54 1200.68 1535.55 Q1204.5 1539.56 1204.5 1547.71 Z" fill="#000000" fill-rule="nonzero" fill-opacity="1" /><path clip-path="url(#clip260)" d="M1216.56 1518.52 L1222.41 1518.52 L1222.41 1568.04 L1216.56 1568.04 L1216.56 1518.52 Z" fill="#000000" fill-rule="nonzero" fill-opacity="1" /><path clip-path="url(#clip260)" d="M1265.16 1548.76 L1265.16 1551.62 L1238.23 1551.62 Q1238.62 1557.67 1241.86 1560.85 Q1245.14 1564 1250.96 1564 Q1254.34 1564 1257.49 1563.17 Q1260.67 1562.35 1263.79 1560.69 L1263.79 1566.23 Q1260.64 1567.57 1257.33 1568.27 Q1254.02 1568.97 1250.61 1568.97 Q1242.08 1568.97 1237.09 1564 Q1232.12 1559.04 1232.12 1550.57 Q1232.12 1541.82 1236.83 1536.69 Q1241.58 1531.54 1249.6 1531.54 Q1256.79 1531.54 1260.96 1536.18 Q1265.16 1540.8 1265.16 1548.76 M1259.3 1547.04 Q1259.24 1542.23 1256.6 1539.37 Q1253.99 1536.5 1249.66 1536.5 Q1244.76 1536.5 1241.8 1539.27 Q1238.87 1542.04 1238.42 1547.07 L1259.3 1547.04 Z" fill="#000000" fill-rule="nonzero" fill-opacity="1" /><path clip-path="url(#clip260)" d="M1298.23 1537.81 L1298.23 1518.52 L1304.09 1518.52 L1304.09 1568.04 L1298.23 1568.04 L1298.23 1562.7 Q1296.38 1565.88 1293.55 1567.44 Q1290.75 1568.97 1286.8 1568.97 Q1280.34 1568.97 1276.27 1563.81 Q1272.23 1558.65 1272.23 1550.25 Q1272.23 1541.85 1276.27 1536.69 Q1280.34 1531.54 1286.8 1531.54 Q1290.75 1531.54 1293.55 1533.1 Q1296.38 1534.62 1298.23 1537.81 M1278.27 1550.25 Q1278.27 1556.71 1280.92 1560.4 Q1283.59 1564.07 1288.24 1564.07 Q1292.88 1564.07 1295.56 1560.4 Q1298.23 1556.71 1298.23 1550.25 Q1298.23 1543.79 1295.56 1540.13 Q1292.88 1536.44 1288.24 1536.44 Q1283.59 1536.44 1280.92 1540.13 Q1278.27 1543.79 1278.27 1550.25 Z" fill="#000000" fill-rule="nonzero" fill-opacity="1" /><path clip-path="url(#clip260)" d="M1354.03 1576 L1349.28 1563.81 L1339.51 1581.63 L1332.6 1581.63 L1346.42 1556.43 L1340.63 1541.44 Q1339.07 1537.42 1334.16 1537.42 L1332.6 1537.42 L1332.6 1532.4 L1334.83 1532.46 Q1343.04 1532.68 1345.11 1538 L1349.82 1550.19 L1359.6 1532.36 L1366.5 1532.36 L1352.69 1557.57 L1358.48 1572.56 Q1360.04 1576.57 1364.94 1576.57 L1366.5 1576.57 L1366.5 1581.6 L1364.27 1581.54 Q1356.06 1581.32 1354.03 1576 Z" fill="#000000" fill-rule="nonzero" fill-opacity="1" /><path clip-path="url(#clip260)" d="M1376.91 1543.15 L1390.41 1543.15 L1390.41 1546.78 L1371.37 1546.78 L1371.37 1543.28 Q1372.45 1542.29 1374.46 1540.51 Q1385.41 1530.8 1385.41 1527.81 Q1385.41 1525.71 1383.75 1524.44 Q1382.1 1523.13 1379.39 1523.13 Q1377.74 1523.13 1375.8 1523.71 Q1373.85 1524.25 1371.56 1525.36 L1371.56 1521.45 Q1374.01 1520.56 1376.11 1520.11 Q1378.25 1519.66 1380.06 1519.66 Q1384.68 1519.66 1387.45 1521.77 Q1390.21 1523.87 1390.21 1527.3 Q1390.21 1531.73 1379.68 1540.77 Q1377.9 1542.29 1376.91 1543.15 Z" fill="#000000" fill-rule="nonzero" fill-opacity="1" /><polyline clip-path="url(#clip260)" style="stroke:#000000; stroke-linecap:round; stroke-linejoin:round; stroke-width:4; stroke-opacity:1; fill:none" points="141.853,1423.18 141.853,906.192 "/>
<polyline clip-path="url(#clip260)" style="stroke:#000000; stroke-linecap:round; stroke-linejoin:round; stroke-width:4; stroke-opacity:1; fill:none" points="141.853,1423.18 160.751,1423.18 "/>
<polyline clip-path="url(#clip260)" style="stroke:#000000; stroke-linecap:round; stroke-linejoin:round; stroke-width:4; stroke-opacity:1; fill:none" points="141.853,1295.53 160.751,1295.53 "/>
<polyline clip-path="url(#clip260)" style="stroke:#000000; stroke-linecap:round; stroke-linejoin:round; stroke-width:4; stroke-opacity:1; fill:none" points="141.853,1167.88 160.751,1167.88 "/>
<polyline clip-path="url(#clip260)" style="stroke:#000000; stroke-linecap:round; stroke-linejoin:round; stroke-width:4; stroke-opacity:1; fill:none" points="141.853,1040.23 160.751,1040.23 "/>
<polyline clip-path="url(#clip260)" style="stroke:#000000; stroke-linecap:round; stroke-linejoin:round; stroke-width:4; stroke-opacity:1; fill:none" points="141.853,912.575 160.751,912.575 "/>
<path clip-path="url(#clip260)" d="M93.9086 1408.98 Q90.2975 1408.98 88.4688 1412.54 Q86.6632 1416.08 86.6632 1423.21 Q86.6632 1430.32 88.4688 1433.89 Q90.2975 1437.43 93.9086 1437.43 Q97.5428 1437.43 99.3483 1433.89 Q101.177 1430.32 101.177 1423.21 Q101.177 1416.08 99.3483 1412.54 Q97.5428 1408.98 93.9086 1408.98 M93.9086 1405.27 Q99.7187 1405.27 102.774 1409.88 Q105.853 1414.46 105.853 1423.21 Q105.853 1431.94 102.774 1436.55 Q99.7187 1441.13 93.9086 1441.13 Q88.0984 1441.13 85.0197 1436.55 Q81.9642 1431.94 81.9642 1423.21 Q81.9642 1414.46 85.0197 1409.88 Q88.0984 1405.27 93.9086 1405.27 Z" fill="#000000" fill-rule="nonzero" fill-opacity="1" /><path clip-path="url(#clip260)" d="M57.7745 1308.87 L74.0939 1308.87 L74.0939 1312.81 L52.1495 1312.81 L52.1495 1308.87 Q54.8115 1306.12 59.3949 1301.49 Q64.0013 1296.84 65.1819 1295.49 Q67.4272 1292.97 68.3068 1291.23 Q69.2096 1289.48 69.2096 1287.79 Q69.2096 1285.03 67.2652 1283.29 Q65.3439 1281.56 62.2421 1281.56 Q60.043 1281.56 57.5893 1282.32 Q55.1588 1283.09 52.381 1284.64 L52.381 1279.92 Q55.2051 1278.78 57.6588 1278.2 Q60.1124 1277.62 62.1495 1277.62 Q67.5198 1277.62 70.7142 1280.31 Q73.9087 1282.99 73.9087 1287.48 Q73.9087 1289.61 73.0985 1291.54 Q72.3115 1293.43 70.205 1296.03 Q69.6263 1296.7 66.5245 1299.92 Q63.4226 1303.11 57.7745 1308.87 Z" fill="#000000" fill-rule="nonzero" fill-opacity="1" /><path clip-path="url(#clip260)" d="M93.9086 1281.33 Q90.2975 1281.33 88.4688 1284.89 Q86.6632 1288.43 86.6632 1295.56 Q86.6632 1302.67 88.4688 1306.23 Q90.2975 1309.78 93.9086 1309.78 Q97.5428 1309.78 99.3483 1306.23 Q101.177 1302.67 101.177 1295.56 Q101.177 1288.43 99.3483 1284.89 Q97.5428 1281.33 93.9086 1281.33 M93.9086 1277.62 Q99.7187 1277.62 102.774 1282.23 Q105.853 1286.81 105.853 1295.56 Q105.853 1304.29 102.774 1308.9 Q99.7187 1313.48 93.9086 1313.48 Q88.0984 1313.48 85.0197 1308.9 Q81.9642 1304.29 81.9642 1295.56 Q81.9642 1286.81 85.0197 1282.23 Q88.0984 1277.62 93.9086 1277.62 Z" fill="#000000" fill-rule="nonzero" fill-opacity="1" /><path clip-path="url(#clip260)" d="M66.5939 1154.67 L54.7884 1173.12 L66.5939 1173.12 L66.5939 1154.67 M65.367 1150.6 L71.2466 1150.6 L71.2466 1173.12 L76.1772 1173.12 L76.1772 1177.01 L71.2466 1177.01 L71.2466 1185.16 L66.5939 1185.16 L66.5939 1177.01 L50.9921 1177.01 L50.9921 1172.5 L65.367 1150.6 Z" fill="#000000" fill-rule="nonzero" fill-opacity="1" /><path clip-path="url(#clip260)" d="M93.9086 1153.68 Q90.2975 1153.68 88.4688 1157.24 Q86.6632 1160.78 86.6632 1167.91 Q86.6632 1175.02 88.4688 1178.58 Q90.2975 1182.12 93.9086 1182.12 Q97.5428 1182.12 99.3483 1178.58 Q101.177 1175.02 101.177 1167.91 Q101.177 1160.78 99.3483 1157.24 Q97.5428 1153.68 93.9086 1153.68 M93.9086 1149.97 Q99.7187 1149.97 102.774 1154.58 Q105.853 1159.16 105.853 1167.91 Q105.853 1176.64 102.774 1181.25 Q99.7187 1185.83 93.9086 1185.83 Q88.0984 1185.83 85.0197 1181.25 Q81.9642 1176.64 81.9642 1167.91 Q81.9642 1159.16 85.0197 1154.58 Q88.0984 1149.97 93.9086 1149.97 Z" fill="#000000" fill-rule="nonzero" fill-opacity="1" /><path clip-path="url(#clip260)" d="M64.3254 1038.36 Q61.1773 1038.36 59.3254 1040.52 Q57.4967 1042.67 57.4967 1046.42 Q57.4967 1050.14 59.3254 1052.32 Q61.1773 1054.47 64.3254 1054.47 Q67.4735 1054.47 69.3022 1052.32 Q71.1541 1050.14 71.1541 1046.42 Q71.1541 1042.67 69.3022 1040.52 Q67.4735 1038.36 64.3254 1038.36 M73.6077 1023.71 L73.6077 1027.97 Q71.8485 1027.14 70.0429 1026.7 Q68.2606 1026.26 66.5013 1026.26 Q61.8717 1026.26 59.418 1029.38 Q56.9875 1032.51 56.6402 1038.83 Q58.006 1036.81 60.0662 1035.75 Q62.1263 1034.66 64.6032 1034.66 Q69.8115 1034.66 72.8207 1037.83 Q75.8531 1040.98 75.8531 1046.42 Q75.8531 1051.74 72.705 1054.96 Q69.5568 1058.18 64.3254 1058.18 Q58.33 1058.18 55.1588 1053.59 Q51.9875 1048.99 51.9875 1040.26 Q51.9875 1032.07 55.8764 1027.21 Q59.7652 1022.32 66.3161 1022.32 Q68.0754 1022.32 69.8578 1022.67 Q71.6633 1023.02 73.6077 1023.71 Z" fill="#000000" fill-rule="nonzero" fill-opacity="1" /><path clip-path="url(#clip260)" d="M93.9086 1026.02 Q90.2975 1026.02 88.4688 1029.59 Q86.6632 1033.13 86.6632 1040.26 Q86.6632 1047.37 88.4688 1050.93 Q90.2975 1054.47 93.9086 1054.47 Q97.5428 1054.47 99.3483 1050.93 Q101.177 1047.37 101.177 1040.26 Q101.177 1033.13 99.3483 1029.59 Q97.5428 1026.02 93.9086 1026.02 M93.9086 1022.32 Q99.7187 1022.32 102.774 1026.93 Q105.853 1031.51 105.853 1040.26 Q105.853 1048.99 102.774 1053.59 Q99.7187 1058.18 93.9086 1058.18 Q88.0984 1058.18 85.0197 1053.59 Q81.9642 1048.99 81.9642 1040.26 Q81.9642 1031.51 85.0197 1026.93 Q88.0984 1022.32 93.9086 1022.32 Z" fill="#000000" fill-rule="nonzero" fill-opacity="1" /><path clip-path="url(#clip260)" d="M63.7467 913.443 Q60.4134 913.443 58.4921 915.225 Q56.5939 917.008 56.5939 920.133 Q56.5939 923.258 58.4921 925.04 Q60.4134 926.822 63.7467 926.822 Q67.08 926.822 69.0013 925.04 Q70.9226 923.234 70.9226 920.133 Q70.9226 917.008 69.0013 915.225 Q67.1032 913.443 63.7467 913.443 M59.0708 911.452 Q56.0615 910.711 54.3717 908.651 Q52.7051 906.591 52.7051 903.628 Q52.7051 899.484 55.6449 897.077 Q58.6078 894.67 63.7467 894.67 Q68.9087 894.67 71.8485 897.077 Q74.7883 899.484 74.7883 903.628 Q74.7883 906.591 73.0985 908.651 Q71.4318 910.711 68.4457 911.452 Q71.8253 912.239 73.7003 914.531 Q75.5985 916.822 75.5985 920.133 Q75.5985 925.156 72.5198 927.841 Q69.4642 930.526 63.7467 930.526 Q58.0291 930.526 54.9504 927.841 Q51.8949 925.156 51.8949 920.133 Q51.8949 916.822 53.793 914.531 Q55.6912 912.239 59.0708 911.452 M57.3578 904.068 Q57.3578 906.753 59.0245 908.258 Q60.7143 909.762 63.7467 909.762 Q66.7559 909.762 68.4457 908.258 Q70.1587 906.753 70.1587 904.068 Q70.1587 901.383 68.4457 899.878 Q66.7559 898.373 63.7467 898.373 Q60.7143 898.373 59.0245 899.878 Q57.3578 901.383 57.3578 904.068 Z" fill="#000000" fill-rule="nonzero" fill-opacity="1" /><path clip-path="url(#clip260)" d="M93.9086 898.373 Q90.2975 898.373 88.4688 901.938 Q86.6632 905.48 86.6632 912.609 Q86.6632 919.716 88.4688 923.281 Q90.2975 926.822 93.9086 926.822 Q97.5428 926.822 99.3483 923.281 Q101.177 919.716 101.177 912.609 Q101.177 905.48 99.3483 901.938 Q97.5428 898.373 93.9086 898.373 M93.9086 894.67 Q99.7187 894.67 102.774 899.276 Q105.853 903.859 105.853 912.609 Q105.853 921.336 102.774 925.943 Q99.7187 930.526 93.9086 930.526 Q88.0984 930.526 85.0197 925.943 Q81.9642 921.336 81.9642 912.609 Q81.9642 903.859 85.0197 899.276 Q88.0984 894.67 93.9086 894.67 Z" fill="#000000" fill-rule="nonzero" fill-opacity="1" /><path clip-path="url(#clip260)" d="M1216.18 808.64 L1241.01 808.64 L1241.01 813.559 L1222.03 813.559 L1222.03 826.29 L1239.16 826.29 L1239.16 831.209 L1222.03 831.209 L1222.03 851.84 L1216.18 851.84 L1216.18 808.64 Z" fill="#000000" fill-rule="nonzero" fill-opacity="1" /><path clip-path="url(#clip260)" d="M1245.73 819.433 L1251.05 819.433 L1251.05 851.84 L1245.73 851.84 L1245.73 819.433 M1245.73 806.817 L1251.05 806.817 L1251.05 813.559 L1245.73 813.559 L1245.73 806.817 Z" fill="#000000" fill-rule="nonzero" fill-opacity="1" /><path clip-path="url(#clip260)" d="M1267.46 810.231 L1267.46 819.433 L1278.42 819.433 L1278.42 823.57 L1267.46 823.57 L1267.46 841.163 Q1267.46 845.127 1268.53 846.256 Q1269.63 847.384 1272.96 847.384 L1278.42 847.384 L1278.42 851.84 L1272.96 851.84 Q1266.79 851.84 1264.45 849.554 Q1262.1 847.239 1262.1 841.163 L1262.1 823.57 L1258.2 823.57 L1258.2 819.433 L1262.1 819.433 L1262.1 810.231 L1267.46 810.231 Z" fill="#000000" fill-rule="nonzero" fill-opacity="1" /><path clip-path="url(#clip261)" d="M584.034 1416.8 L584.034 1423.18 L694.579 1423.18 L694.579 1416.8 L584.034 1416.8 L584.034 1416.8  Z" fill="#009af9" fill-rule="evenodd" fill-opacity="1"/>
<polyline clip-path="url(#clip261)" style="stroke:#000000; stroke-linecap:round; stroke-linejoin:round; stroke-width:6; stroke-opacity:1; fill:none" points="584.034,1416.8 584.034,1423.18 694.579,1423.18 694.579,1416.8 584.034,1416.8 "/>
<path clip-path="url(#clip261)" d="M694.579 1352.97 L694.579 1423.18 L805.124 1423.18 L805.124 1352.97 L694.579 1352.97 L694.579 1352.97  Z" fill="#009af9" fill-rule="evenodd" fill-opacity="1"/>
<polyline clip-path="url(#clip261)" style="stroke:#000000; stroke-linecap:round; stroke-linejoin:round; stroke-width:6; stroke-opacity:1; fill:none" points="694.579,1352.97 694.579,1423.18 805.124,1423.18 805.124,1352.97 694.579,1352.97 "/>
<path clip-path="url(#clip261)" d="M805.124 1212.56 L805.124 1423.18 L915.669 1423.18 L915.669 1212.56 L805.124 1212.56 L805.124 1212.56  Z" fill="#009af9" fill-rule="evenodd" fill-opacity="1"/>
<polyline clip-path="url(#clip261)" style="stroke:#000000; stroke-linecap:round; stroke-linejoin:round; stroke-width:6; stroke-opacity:1; fill:none" points="805.124,1212.56 805.124,1423.18 915.669,1423.18 915.669,1212.56 805.124,1212.56 "/>
<path clip-path="url(#clip261)" d="M915.669 1001.93 L915.669 1423.18 L1026.21 1423.18 L1026.21 1001.93 L915.669 1001.93 L915.669 1001.93  Z" fill="#009af9" fill-rule="evenodd" fill-opacity="1"/>
<polyline clip-path="url(#clip261)" style="stroke:#000000; stroke-linecap:round; stroke-linejoin:round; stroke-width:6; stroke-opacity:1; fill:none" points="915.669,1001.93 915.669,1423.18 1026.21,1423.18 1026.21,1001.93 915.669,1001.93 "/>
<path clip-path="url(#clip261)" d="M1026.21 906.192 L1026.21 1423.18 L1136.76 1423.18 L1136.76 906.192 L1026.21 906.192 L1026.21 906.192  Z" fill="#009af9" fill-rule="evenodd" fill-opacity="1"/>
<polyline clip-path="url(#clip261)" style="stroke:#000000; stroke-linecap:round; stroke-linejoin:round; stroke-width:6; stroke-opacity:1; fill:none" points="1026.21,906.192 1026.21,1423.18 1136.76,1423.18 1136.76,906.192 1026.21,906.192 "/>
<path clip-path="url(#clip261)" d="M1136.76 918.957 L1136.76 1423.18 L1247.3 1423.18 L1247.3 918.957 L1136.76 918.957 L1136.76 918.957  Z" fill="#009af9" fill-rule="evenodd" fill-opacity="1"/>
<polyline clip-path="url(#clip261)" style="stroke:#000000; stroke-linecap:round; stroke-linejoin:round; stroke-width:6; stroke-opacity:1; fill:none" points="1136.76,918.957 1136.76,1423.18 1247.3,1423.18 1247.3,918.957 1136.76,918.957 "/>
<path clip-path="url(#clip261)" d="M1247.3 1021.08 L1247.3 1423.18 L1357.85 1423.18 L1357.85 1021.08 L1247.3 1021.08 L1247.3 1021.08  Z" fill="#009af9" fill-rule="evenodd" fill-opacity="1"/>
<polyline clip-path="url(#clip261)" style="stroke:#000000; stroke-linecap:round; stroke-linejoin:round; stroke-width:6; stroke-opacity:1; fill:none" points="1247.3,1021.08 1247.3,1423.18 1357.85,1423.18 1357.85,1021.08 1247.3,1021.08 "/>
<path clip-path="url(#clip261)" d="M1357.85 1180.64 L1357.85 1423.18 L1468.39 1423.18 L1468.39 1180.64 L1357.85 1180.64 L1357.85 1180.64  Z" fill="#009af9" fill-rule="evenodd" fill-opacity="1"/>
<polyline clip-path="url(#clip261)" style="stroke:#000000; stroke-linecap:round; stroke-linejoin:round; stroke-width:6; stroke-opacity:1; fill:none" points="1357.85,1180.64 1357.85,1423.18 1468.39,1423.18 1468.39,1180.64 1357.85,1180.64 "/>
<path clip-path="url(#clip261)" d="M1468.39 1308.29 L1468.39 1423.18 L1578.94 1423.18 L1578.94 1308.29 L1468.39 1308.29 L1468.39 1308.29  Z" fill="#009af9" fill-rule="evenodd" fill-opacity="1"/>
<polyline clip-path="url(#clip261)" style="stroke:#000000; stroke-linecap:round; stroke-linejoin:round; stroke-width:6; stroke-opacity:1; fill:none" points="1468.39,1308.29 1468.39,1423.18 1578.94,1423.18 1578.94,1308.29 1468.39,1308.29 "/>
<path clip-path="url(#clip261)" d="M1578.94 1378.5 L1578.94 1423.18 L1689.49 1423.18 L1689.49 1378.5 L1578.94 1378.5 L1578.94 1378.5  Z" fill="#009af9" fill-rule="evenodd" fill-opacity="1"/>
<polyline clip-path="url(#clip261)" style="stroke:#000000; stroke-linecap:round; stroke-linejoin:round; stroke-width:6; stroke-opacity:1; fill:none" points="1578.94,1378.5 1578.94,1423.18 1689.49,1423.18 1689.49,1378.5 1578.94,1378.5 "/>
<path clip-path="url(#clip261)" d="M1689.49 1410.41 L1689.49 1423.18 L1800.03 1423.18 L1800.03 1410.41 L1689.49 1410.41 L1689.49 1410.41  Z" fill="#009af9" fill-rule="evenodd" fill-opacity="1"/>
<polyline clip-path="url(#clip261)" style="stroke:#000000; stroke-linecap:round; stroke-linejoin:round; stroke-width:6; stroke-opacity:1; fill:none" points="1689.49,1410.41 1689.49,1423.18 1800.03,1423.18 1800.03,1410.41 1689.49,1410.41 "/>
<path clip-path="url(#clip261)" d="M1800.03 1423.18 L1800.03 1423.18 L1910.58 1423.18 L1910.58 1423.18 L1800.03 1423.18 L1800.03 1423.18  Z" fill="#009af9" fill-rule="evenodd" fill-opacity="1"/>
<polyline clip-path="url(#clip261)" style="stroke:#000000; stroke-linecap:round; stroke-linejoin:round; stroke-width:6; stroke-opacity:1; fill:none" points="1800.03,1423.18 1800.03,1423.18 1910.58,1423.18 1800.03,1423.18 "/>
<path clip-path="url(#clip261)" d="M1910.58 1423.18 L1910.58 1423.18 L2021.12 1423.18 L2021.12 1423.18 L1910.58 1423.18 L1910.58 1423.18  Z" fill="#009af9" fill-rule="evenodd" fill-opacity="1"/>
<polyline clip-path="url(#clip261)" style="stroke:#000000; stroke-linecap:round; stroke-linejoin:round; stroke-width:6; stroke-opacity:1; fill:none" points="1910.58,1423.18 1910.58,1423.18 2021.12,1423.18 1910.58,1423.18 "/>
<path clip-path="url(#clip261)" d="M2021.12 1416.8 L2021.12 1423.18 L2131.67 1423.18 L2131.67 1416.8 L2021.12 1416.8 L2021.12 1416.8  Z" fill="#009af9" fill-rule="evenodd" fill-opacity="1"/>
<polyline clip-path="url(#clip261)" style="stroke:#000000; stroke-linecap:round; stroke-linejoin:round; stroke-width:6; stroke-opacity:1; fill:none" points="2021.12,1416.8 2021.12,1423.18 2131.67,1423.18 2131.67,1416.8 2021.12,1416.8 "/>
<circle clip-path="url(#clip261)" style="fill:#009af9; stroke:none; fill-opacity:0" cx="639.306" cy="1416.8" r="2"/>
<circle clip-path="url(#clip261)" style="fill:#009af9; stroke:none; fill-opacity:0" cx="749.851" cy="1352.97" r="2"/>
<circle clip-path="url(#clip261)" style="fill:#009af9; stroke:none; fill-opacity:0" cx="860.396" cy="1212.56" r="2"/>
<circle clip-path="url(#clip261)" style="fill:#009af9; stroke:none; fill-opacity:0" cx="970.942" cy="1001.93" r="2"/>
<circle clip-path="url(#clip261)" style="fill:#009af9; stroke:none; fill-opacity:0" cx="1081.49" cy="906.192" r="2"/>
<circle clip-path="url(#clip261)" style="fill:#009af9; stroke:none; fill-opacity:0" cx="1192.03" cy="918.957" r="2"/>
<circle clip-path="url(#clip261)" style="fill:#009af9; stroke:none; fill-opacity:0" cx="1302.58" cy="1021.08" r="2"/>
<circle clip-path="url(#clip261)" style="fill:#009af9; stroke:none; fill-opacity:0" cx="1413.12" cy="1180.64" r="2"/>
<circle clip-path="url(#clip261)" style="fill:#009af9; stroke:none; fill-opacity:0" cx="1523.67" cy="1308.29" r="2"/>
<circle clip-path="url(#clip261)" style="fill:#009af9; stroke:none; fill-opacity:0" cx="1634.21" cy="1378.5" r="2"/>
<circle clip-path="url(#clip261)" style="fill:#009af9; stroke:none; fill-opacity:0" cx="1744.76" cy="1410.41" r="2"/>
<circle clip-path="url(#clip261)" style="fill:#009af9; stroke:none; fill-opacity:0" cx="1855.3" cy="1423.18" r="2"/>
<circle clip-path="url(#clip261)" style="fill:#009af9; stroke:none; fill-opacity:0" cx="1965.85" cy="1423.18" r="2"/>
<circle clip-path="url(#clip261)" style="fill:#009af9; stroke:none; fill-opacity:0" cx="2076.39" cy="1416.8" r="2"/>
<circle clip-path="url(#clip261)" cx="1158.53" cy="1416.8" r="14.4" fill="#ff00ff" fill-rule="evenodd" fill-opacity="1" stroke="none"/>
</svg>
