<?xml version="1.0" encoding="utf-8"?>
<svg xmlns="http://www.w3.org/2000/svg" xmlns:xlink="http://www.w3.org/1999/xlink" width="600" height="400" viewBox="0 0 2400 1600">
<defs>
  <clipPath id="clip480">
    <rect x="0" y="0" width="2400" height="1600"/>
  </clipPath>
</defs>
<path clip-path="url(#clip480)" d="M0 1600 L2400 1600 L2400 0 L0 0  Z" fill="#ffffff" fill-rule="evenodd" fill-opacity="1"/>
<defs>
  <clipPath id="clip481">
    <rect x="281" y="0" width="2073" height="81"/>
  </clipPath>
</defs>
<path clip-path="url(#clip480)" d="M281.088 663.18 L2352.76 663.18 L2352.76 127.244 L281.088 127.244  Z" fill="#ffffff" fill-rule="evenodd" fill-opacity="1"/>
<defs>
  <clipPath id="clip482">
    <rect x="281" y="127" width="2073" height="537"/>
  </clipPath>
</defs>
<polyline clip-path="url(#clip482)" style="stroke:#000000; stroke-linecap:round; stroke-linejoin:round; stroke-width:2; stroke-opacity:0.1; fill:none" points="281.088,663.18 281.088,127.244 "/>
<polyline clip-path="url(#clip482)" style="stroke:#000000; stroke-linecap:round; stroke-linejoin:round; stroke-width:2; stroke-opacity:0.1; fill:none" points="1057.96,663.18 1057.96,127.244 "/>
<polyline clip-path="url(#clip482)" style="stroke:#000000; stroke-linecap:round; stroke-linejoin:round; stroke-width:2; stroke-opacity:0.1; fill:none" points="1316.92,663.18 1316.92,127.244 "/>
<polyline clip-path="url(#clip482)" style="stroke:#000000; stroke-linecap:round; stroke-linejoin:round; stroke-width:2; stroke-opacity:0.1; fill:none" points="1575.88,663.18 1575.88,127.244 "/>
<polyline clip-path="url(#clip482)" style="stroke:#000000; stroke-linecap:round; stroke-linejoin:round; stroke-width:2; stroke-opacity:0.1; fill:none" points="2352.76,663.18 2352.76,127.244 "/>
<polyline clip-path="url(#clip482)" style="stroke:#000000; stroke-linecap:round; stroke-linejoin:round; stroke-width:2; stroke-opacity:0.1; fill:none" points="281.088,573.857 2352.76,573.857 "/>
<polyline clip-path="url(#clip482)" style="stroke:#000000; stroke-linecap:round; stroke-linejoin:round; stroke-width:2; stroke-opacity:0.1; fill:none" points="281.088,350.551 2352.76,350.551 "/>
<polyline clip-path="url(#clip482)" style="stroke:#000000; stroke-linecap:round; stroke-linejoin:round; stroke-width:2; stroke-opacity:0.1; fill:none" points="281.088,187.079 2352.76,187.079 "/>
<polyline clip-path="url(#clip482)" style="stroke:#000000; stroke-linecap:round; stroke-linejoin:round; stroke-width:2; stroke-opacity:0.1; fill:none" points="281.088,127.244 2352.76,127.244 "/>
<polyline clip-path="url(#clip480)" style="stroke:#000000; stroke-linecap:round; stroke-linejoin:round; stroke-width:4; stroke-opacity:1; fill:none" points="281.088,663.18 2352.76,663.18 "/>
<polyline clip-path="url(#clip480)" style="stroke:#000000; stroke-linecap:round; stroke-linejoin:round; stroke-width:4; stroke-opacity:1; fill:none" points="281.088,663.18 281.088,644.282 "/>
<polyline clip-path="url(#clip480)" style="stroke:#000000; stroke-linecap:round; stroke-linejoin:round; stroke-width:4; stroke-opacity:1; fill:none" points="1057.96,663.18 1057.96,644.282 "/>
<polyline clip-path="url(#clip480)" style="stroke:#000000; stroke-linecap:round; stroke-linejoin:round; stroke-width:4; stroke-opacity:1; fill:none" points="1316.92,663.18 1316.92,644.282 "/>
<polyline clip-path="url(#clip480)" style="stroke:#000000; stroke-linecap:round; stroke-linejoin:round; stroke-width:4; stroke-opacity:1; fill:none" points="1575.88,663.18 1575.88,644.282 "/>
<polyline clip-path="url(#clip480)" style="stroke:#000000; stroke-linecap:round; stroke-linejoin:round; stroke-width:4; stroke-opacity:1; fill:none" points="2352.76,663.18 2352.76,644.282 "/>
<path clip-path="url(#clip480)" d="M227.616 708.751 L257.292 708.751 L257.292 712.686 L227.616 712.686 L227.616 708.751 Z" fill="#000000" fill-rule="nonzero" fill-opacity="1" /><path clip-path="url(#clip480)" d="M271.412 721.645 L287.732 721.645 L287.732 725.58 L265.787 725.58 L265.787 721.645 Q268.449 718.89 273.033 714.26 Q277.639 709.608 278.82 708.265 Q281.065 705.742 281.945 704.006 Q282.848 702.247 282.848 700.557 Q282.848 697.802 280.903 696.066 Q278.982 694.33 275.88 694.33 Q273.681 694.33 271.227 695.094 Q268.797 695.858 266.019 697.409 L266.019 692.687 Q268.843 691.552 271.297 690.974 Q273.75 690.395 275.787 690.395 Q281.158 690.395 284.352 693.08 Q287.547 695.765 287.547 700.256 Q287.547 702.386 286.736 704.307 Q285.949 706.205 283.843 708.798 Q283.264 709.469 280.162 712.686 Q277.061 715.881 271.412 721.645 Z" fill="#000000" fill-rule="nonzero" fill-opacity="1" /><path clip-path="url(#clip480)" d="M297.547 719.7 L302.431 719.7 L302.431 725.58 L297.547 725.58 L297.547 719.7 Z" fill="#000000" fill-rule="nonzero" fill-opacity="1" /><path clip-path="url(#clip480)" d="M322.616 694.099 Q319.005 694.099 317.176 697.663 Q315.371 701.205 315.371 708.335 Q315.371 715.441 317.176 719.006 Q319.005 722.547 322.616 722.547 Q326.25 722.547 328.056 719.006 Q329.884 715.441 329.884 708.335 Q329.884 701.205 328.056 697.663 Q326.25 694.099 322.616 694.099 M322.616 690.395 Q328.426 690.395 331.482 695.001 Q334.56 699.585 334.56 708.335 Q334.56 717.061 331.482 721.668 Q328.426 726.251 322.616 726.251 Q316.806 726.251 313.727 721.668 Q310.671 717.061 310.671 708.335 Q310.671 699.585 313.727 695.001 Q316.806 690.395 322.616 690.395 Z" fill="#000000" fill-rule="nonzero" fill-opacity="1" /><path clip-path="url(#clip480)" d="M1004.99 708.751 L1034.67 708.751 L1034.67 712.686 L1004.99 712.686 L1004.99 708.751 Z" fill="#000000" fill-rule="nonzero" fill-opacity="1" /><path clip-path="url(#clip480)" d="M1054.76 694.099 Q1051.15 694.099 1049.32 697.663 Q1047.51 701.205 1047.51 708.335 Q1047.51 715.441 1049.32 719.006 Q1051.15 722.547 1054.76 722.547 Q1058.39 722.547 1060.2 719.006 Q1062.03 715.441 1062.03 708.335 Q1062.03 701.205 1060.2 697.663 Q1058.39 694.099 1054.76 694.099 M1054.76 690.395 Q1060.57 690.395 1063.62 695.001 Q1066.7 699.585 1066.7 708.335 Q1066.7 717.061 1063.62 721.668 Q1060.57 726.251 1054.76 726.251 Q1048.95 726.251 1045.87 721.668 Q1042.81 717.061 1042.81 708.335 Q1042.81 699.585 1045.87 695.001 Q1048.95 690.395 1054.76 690.395 Z" fill="#000000" fill-rule="nonzero" fill-opacity="1" /><path clip-path="url(#clip480)" d="M1074.92 719.7 L1079.8 719.7 L1079.8 725.58 L1074.92 725.58 L1074.92 719.7 Z" fill="#000000" fill-rule="nonzero" fill-opacity="1" /><path clip-path="url(#clip480)" d="M1090.04 691.02 L1108.39 691.02 L1108.39 694.955 L1094.32 694.955 L1094.32 703.427 Q1095.34 703.08 1096.35 702.918 Q1097.37 702.733 1098.39 702.733 Q1104.18 702.733 1107.56 705.904 Q1110.94 709.075 1110.94 714.492 Q1110.94 720.071 1107.47 723.172 Q1103.99 726.251 1097.67 726.251 Q1095.5 726.251 1093.23 725.881 Q1090.98 725.51 1088.58 724.77 L1088.58 720.071 Q1090.66 721.205 1092.88 721.76 Q1095.1 722.316 1097.58 722.316 Q1101.59 722.316 1103.92 720.21 Q1106.26 718.103 1106.26 714.492 Q1106.26 710.881 1103.92 708.774 Q1101.59 706.668 1097.58 706.668 Q1095.71 706.668 1093.83 707.085 Q1091.98 707.501 1090.04 708.381 L1090.04 691.02 Z" fill="#000000" fill-rule="nonzero" fill-opacity="1" /><path clip-path="url(#clip480)" d="M1294.31 694.099 Q1290.7 694.099 1288.87 697.663 Q1287.06 701.205 1287.06 708.335 Q1287.06 715.441 1288.87 719.006 Q1290.7 722.547 1294.31 722.547 Q1297.94 722.547 1299.75 719.006 Q1301.57 715.441 1301.57 708.335 Q1301.57 701.205 1299.75 697.663 Q1297.94 694.099 1294.31 694.099 M1294.31 690.395 Q1300.12 690.395 1303.17 695.001 Q1306.25 699.585 1306.25 708.335 Q1306.25 717.061 1303.17 721.668 Q1300.12 726.251 1294.31 726.251 Q1288.5 726.251 1285.42 721.668 Q1282.36 717.061 1282.36 708.335 Q1282.36 699.585 1285.42 695.001 Q1288.5 690.395 1294.31 690.395 Z" fill="#000000" fill-rule="nonzero" fill-opacity="1" /><path clip-path="url(#clip480)" d="M1314.47 719.7 L1319.35 719.7 L1319.35 725.58 L1314.47 725.58 L1314.47 719.7 Z" fill="#000000" fill-rule="nonzero" fill-opacity="1" /><path clip-path="url(#clip480)" d="M1339.54 694.099 Q1335.93 694.099 1334.1 697.663 Q1332.29 701.205 1332.29 708.335 Q1332.29 715.441 1334.1 719.006 Q1335.93 722.547 1339.54 722.547 Q1343.17 722.547 1344.98 719.006 Q1346.81 715.441 1346.81 708.335 Q1346.81 701.205 1344.98 697.663 Q1343.17 694.099 1339.54 694.099 M1339.54 690.395 Q1345.35 690.395 1348.4 695.001 Q1351.48 699.585 1351.48 708.335 Q1351.48 717.061 1348.4 721.668 Q1345.35 726.251 1339.54 726.251 Q1333.73 726.251 1330.65 721.668 Q1327.59 717.061 1327.59 708.335 Q1327.59 699.585 1330.65 695.001 Q1333.73 690.395 1339.54 690.395 Z" fill="#000000" fill-rule="nonzero" fill-opacity="1" /><path clip-path="url(#clip480)" d="M1553.76 694.099 Q1550.15 694.099 1548.32 697.663 Q1546.52 701.205 1546.52 708.335 Q1546.52 715.441 1548.32 719.006 Q1550.15 722.547 1553.76 722.547 Q1557.4 722.547 1559.2 719.006 Q1561.03 715.441 1561.03 708.335 Q1561.03 701.205 1559.2 697.663 Q1557.4 694.099 1553.76 694.099 M1553.76 690.395 Q1559.57 690.395 1562.63 695.001 Q1565.71 699.585 1565.71 708.335 Q1565.71 717.061 1562.63 721.668 Q1559.57 726.251 1553.76 726.251 Q1547.95 726.251 1544.87 721.668 Q1541.82 717.061 1541.82 708.335 Q1541.82 699.585 1544.87 695.001 Q1547.95 690.395 1553.76 690.395 Z" fill="#000000" fill-rule="nonzero" fill-opacity="1" /><path clip-path="url(#clip480)" d="M1573.92 719.7 L1578.81 719.7 L1578.81 725.58 L1573.92 725.58 L1573.92 719.7 Z" fill="#000000" fill-rule="nonzero" fill-opacity="1" /><path clip-path="url(#clip480)" d="M1589.04 691.02 L1607.4 691.02 L1607.4 694.955 L1593.32 694.955 L1593.32 703.427 Q1594.34 703.08 1595.36 702.918 Q1596.38 702.733 1597.4 702.733 Q1603.18 702.733 1606.56 705.904 Q1609.94 709.075 1609.94 714.492 Q1609.94 720.071 1606.47 723.172 Q1603 726.251 1596.68 726.251 Q1594.5 726.251 1592.23 725.881 Q1589.99 725.51 1587.58 724.77 L1587.58 720.071 Q1589.67 721.205 1591.89 721.76 Q1594.11 722.316 1596.59 722.316 Q1600.59 722.316 1602.93 720.21 Q1605.27 718.103 1605.27 714.492 Q1605.27 710.881 1602.93 708.774 Q1600.59 706.668 1596.59 706.668 Q1594.71 706.668 1592.84 707.085 Q1590.98 707.501 1589.04 708.381 L1589.04 691.02 Z" fill="#000000" fill-rule="nonzero" fill-opacity="1" /><path clip-path="url(#clip480)" d="M2323.99 721.645 L2340.31 721.645 L2340.31 725.58 L2318.37 725.58 L2318.37 721.645 Q2321.03 718.89 2325.61 714.26 Q2330.22 709.608 2331.4 708.265 Q2333.65 705.742 2334.53 704.006 Q2335.43 702.247 2335.43 700.557 Q2335.43 697.802 2333.49 696.066 Q2331.56 694.33 2328.46 694.33 Q2326.26 694.33 2323.81 695.094 Q2321.38 695.858 2318.6 697.409 L2318.6 692.687 Q2321.43 691.552 2323.88 690.974 Q2326.33 690.395 2328.37 690.395 Q2333.74 690.395 2336.93 693.08 Q2340.13 695.765 2340.13 700.256 Q2340.13 702.386 2339.32 704.307 Q2338.53 706.205 2336.42 708.798 Q2335.85 709.469 2332.74 712.686 Q2329.64 715.881 2323.99 721.645 Z" fill="#000000" fill-rule="nonzero" fill-opacity="1" /><path clip-path="url(#clip480)" d="M2350.13 719.7 L2355.01 719.7 L2355.01 725.58 L2350.13 725.58 L2350.13 719.7 Z" fill="#000000" fill-rule="nonzero" fill-opacity="1" /><path clip-path="url(#clip480)" d="M2375.2 694.099 Q2371.59 694.099 2369.76 697.663 Q2367.95 701.205 2367.95 708.335 Q2367.95 715.441 2369.76 719.006 Q2371.59 722.547 2375.2 722.547 Q2378.83 722.547 2380.64 719.006 Q2382.47 715.441 2382.47 708.335 Q2382.47 701.205 2380.64 697.663 Q2378.83 694.099 2375.2 694.099 M2375.2 690.395 Q2381.01 690.395 2384.06 695.001 Q2387.14 699.585 2387.14 708.335 Q2387.14 717.061 2384.06 721.668 Q2381.01 726.251 2375.2 726.251 Q2369.39 726.251 2366.31 721.668 Q2363.25 717.061 2363.25 708.335 Q2363.25 699.585 2366.31 695.001 Q2369.39 690.395 2375.2 690.395 Z" fill="#000000" fill-rule="nonzero" fill-opacity="1" /><path clip-path="url(#clip480)" d="M1205.52 772.396 L1233.34 772.396 L1233.34 777.743 L1211.32 803.365 L1233.34 803.365 L1233.34 808.044 L1204.73 808.044 L1204.73 802.697 L1226.75 777.075 L1205.52 777.075 L1205.52 772.396 Z" fill="#000000" fill-rule="nonzero" fill-opacity="1" /><path clip-path="url(#clip480)" d="M1262.46 758.519 L1275.96 758.519 L1275.96 763.07 L1268.32 763.07 L1268.32 812.086 L1275.96 812.086 L1275.96 816.638 L1262.46 816.638 L1262.46 758.519 Z" fill="#000000" fill-rule="nonzero" fill-opacity="1" /><path clip-path="url(#clip480)" d="M1316.19 779.239 Q1318.39 775.292 1321.44 773.414 Q1324.5 771.537 1328.64 771.537 Q1334.21 771.537 1337.23 775.451 Q1340.25 779.335 1340.25 786.528 L1340.25 808.044 L1334.36 808.044 L1334.36 786.719 Q1334.36 781.594 1332.55 779.112 Q1330.74 776.629 1327.01 776.629 Q1322.46 776.629 1319.82 779.653 Q1317.18 782.677 1317.18 787.896 L1317.18 808.044 L1311.29 808.044 L1311.29 786.719 Q1311.29 781.563 1309.47 779.112 Q1307.66 776.629 1303.87 776.629 Q1299.38 776.629 1296.74 779.685 Q1294.1 782.708 1294.1 787.896 L1294.1 808.044 L1288.21 808.044 L1288.21 772.396 L1294.1 772.396 L1294.1 777.934 Q1296.11 774.656 1298.91 773.096 Q1301.71 771.537 1305.56 771.537 Q1309.44 771.537 1312.15 773.51 Q1314.89 775.483 1316.19 779.239 Z" fill="#000000" fill-rule="nonzero" fill-opacity="1" /><path clip-path="url(#clip480)" d="M1379.69 779.239 Q1381.88 775.292 1384.94 773.414 Q1388 771.537 1392.13 771.537 Q1397.7 771.537 1400.73 775.451 Q1403.75 779.335 1403.75 786.528 L1403.75 808.044 L1397.86 808.044 L1397.86 786.719 Q1397.86 781.594 1396.05 779.112 Q1394.23 776.629 1390.51 776.629 Q1385.96 776.629 1383.32 779.653 Q1380.67 782.677 1380.67 787.896 L1380.67 808.044 L1374.79 808.044 L1374.79 786.719 Q1374.79 781.563 1372.97 779.112 Q1371.16 776.629 1367.37 776.629 Q1362.88 776.629 1360.24 779.685 Q1357.6 782.708 1357.6 787.896 L1357.6 808.044 L1351.71 808.044 L1351.71 772.396 L1357.6 772.396 L1357.6 777.934 Q1359.6 774.656 1362.41 773.096 Q1365.21 771.537 1369.06 771.537 Q1372.94 771.537 1375.65 773.51 Q1378.38 775.483 1379.69 779.239 Z" fill="#000000" fill-rule="nonzero" fill-opacity="1" /><path clip-path="url(#clip480)" d="M1429.12 758.519 L1429.12 816.638 L1415.62 816.638 L1415.62 812.086 L1423.23 812.086 L1423.23 763.07 L1415.62 763.07 L1415.62 758.519 L1429.12 758.519 Z" fill="#000000" fill-rule="nonzero" fill-opacity="1" /><polyline clip-path="url(#clip480)" style="stroke:#000000; stroke-linecap:round; stroke-linejoin:round; stroke-width:4; stroke-opacity:1; fill:none" points="281.088,663.18 281.088,127.244 "/>
<polyline clip-path="url(#clip480)" style="stroke:#000000; stroke-linecap:round; stroke-linejoin:round; stroke-width:4; stroke-opacity:1; fill:none" points="281.088,573.857 299.986,573.857 "/>
<polyline clip-path="url(#clip480)" style="stroke:#000000; stroke-linecap:round; stroke-linejoin:round; stroke-width:4; stroke-opacity:1; fill:none" points="281.088,350.551 299.986,350.551 "/>
<polyline clip-path="url(#clip480)" style="stroke:#000000; stroke-linecap:round; stroke-linejoin:round; stroke-width:4; stroke-opacity:1; fill:none" points="281.088,187.079 299.986,187.079 "/>
<polyline clip-path="url(#clip480)" style="stroke:#000000; stroke-linecap:round; stroke-linejoin:round; stroke-width:4; stroke-opacity:1; fill:none" points="281.088,127.244 299.986,127.244 "/>
<path clip-path="url(#clip480)" d="M233.144 559.656 Q229.533 559.656 227.704 563.221 Q225.899 566.762 225.899 573.892 Q225.899 580.998 227.704 584.563 Q229.533 588.105 233.144 588.105 Q236.778 588.105 238.584 584.563 Q240.412 580.998 240.412 573.892 Q240.412 566.762 238.584 563.221 Q236.778 559.656 233.144 559.656 M233.144 555.952 Q238.954 555.952 242.01 560.559 Q245.088 565.142 245.088 573.892 Q245.088 582.619 242.01 587.225 Q238.954 591.809 233.144 591.809 Q227.334 591.809 224.255 587.225 Q221.2 582.619 221.2 573.892 Q221.2 565.142 224.255 560.559 Q227.334 555.952 233.144 555.952 Z" fill="#000000" fill-rule="nonzero" fill-opacity="1" /><path clip-path="url(#clip480)" d="M71.5013 342.9 L71.5013 346.882 Q69.6957 345.886 67.867 345.4 Q66.0615 344.891 64.2096 344.891 Q60.0662 344.891 57.7745 347.53 Q55.4828 350.146 55.4828 354.891 Q55.4828 359.636 57.7745 362.275 Q60.0662 364.891 64.2096 364.891 Q66.0615 364.891 67.867 364.405 Q69.6957 363.895 71.5013 362.9 L71.5013 366.835 Q69.7189 367.669 67.7976 368.085 Q65.8995 368.502 63.7467 368.502 Q57.8902 368.502 54.4412 364.821 Q50.9921 361.141 50.9921 354.891 Q50.9921 348.548 54.4643 344.914 Q57.9597 341.28 64.0245 341.28 Q65.992 341.28 67.867 341.697 Q69.742 342.09 71.5013 342.9 Z" fill="#000000" fill-rule="nonzero" fill-opacity="1" /><path clip-path="url(#clip480)" d="M88.9549 344.891 Q85.529 344.891 83.5382 347.576 Q81.5475 350.238 81.5475 354.891 Q81.5475 359.544 83.5151 362.229 Q85.5058 364.891 88.9549 364.891 Q92.3576 364.891 94.3484 362.206 Q96.3391 359.521 96.3391 354.891 Q96.3391 350.284 94.3484 347.599 Q92.3576 344.891 88.9549 344.891 M88.9549 341.28 Q94.5104 341.28 97.6817 344.891 Q100.853 348.502 100.853 354.891 Q100.853 361.257 97.6817 364.891 Q94.5104 368.502 88.9549 368.502 Q83.3762 368.502 80.2049 364.891 Q77.0568 361.257 77.0568 354.891 Q77.0568 348.502 80.2049 344.891 Q83.3762 341.28 88.9549 341.28 Z" fill="#000000" fill-rule="nonzero" fill-opacity="1" /><path clip-path="url(#clip480)" d="M124.441 342.669 L124.441 346.697 Q122.635 345.771 120.691 345.308 Q118.746 344.845 116.663 344.845 Q113.492 344.845 111.895 345.817 Q110.321 346.789 110.321 348.734 Q110.321 350.215 111.455 351.071 Q112.589 351.905 116.015 352.669 L117.473 352.993 Q122.01 353.965 123.908 355.747 Q125.83 357.507 125.83 360.678 Q125.83 364.289 122.959 366.395 Q120.112 368.502 115.112 368.502 Q113.029 368.502 110.76 368.085 Q108.515 367.692 106.015 366.882 L106.015 362.483 Q108.376 363.71 110.668 364.335 Q112.959 364.937 115.205 364.937 Q118.214 364.937 119.834 363.919 Q121.455 362.877 121.455 361.002 Q121.455 359.266 120.274 358.34 Q119.117 357.414 115.158 356.558 L113.677 356.21 Q109.719 355.377 107.959 353.664 Q106.2 351.928 106.2 348.919 Q106.2 345.261 108.793 343.271 Q111.385 341.28 116.154 341.28 Q118.515 341.28 120.598 341.627 Q122.682 341.974 124.441 342.669 Z" fill="#000000" fill-rule="nonzero" fill-opacity="1" /><path clip-path="url(#clip480)" d="M142.843 331.859 Q139.742 337.183 138.237 342.391 Q136.732 347.599 136.732 352.946 Q136.732 358.294 138.237 363.548 Q139.765 368.78 142.843 374.081 L139.14 374.081 Q135.668 368.641 133.931 363.386 Q132.219 358.132 132.219 352.946 Q132.219 347.784 133.931 342.553 Q135.644 337.322 139.14 331.859 L142.843 331.859 Z" fill="#000000" fill-rule="nonzero" fill-opacity="1" /><path clip-path="url(#clip480)" d="M162.288 348.687 Q159.14 348.687 157.288 350.84 Q155.459 352.993 155.459 356.743 Q155.459 360.47 157.288 362.645 Q159.14 364.798 162.288 364.798 Q165.436 364.798 167.265 362.645 Q169.116 360.47 169.116 356.743 Q169.116 352.993 167.265 350.84 Q165.436 348.687 162.288 348.687 M171.57 334.035 L171.57 338.294 Q169.811 337.46 168.005 337.021 Q166.223 336.581 164.464 336.581 Q159.834 336.581 157.38 339.706 Q154.95 342.831 154.603 349.15 Q155.968 347.136 158.029 346.072 Q160.089 344.984 162.566 344.984 Q167.774 344.984 170.783 348.155 Q173.816 351.303 173.816 356.743 Q173.816 362.067 170.667 365.284 Q167.519 368.502 162.288 368.502 Q156.292 368.502 153.121 363.919 Q149.95 359.312 149.95 350.585 Q149.95 342.391 153.839 337.53 Q157.728 332.646 164.279 332.646 Q166.038 332.646 167.82 332.993 Q169.626 333.34 171.57 334.035 Z" fill="#000000" fill-rule="nonzero" fill-opacity="1" /><path clip-path="url(#clip480)" d="M191.871 336.349 Q188.26 336.349 186.431 339.914 Q184.626 343.456 184.626 350.585 Q184.626 357.692 186.431 361.257 Q188.26 364.798 191.871 364.798 Q195.505 364.798 197.311 361.257 Q199.139 357.692 199.139 350.585 Q199.139 343.456 197.311 339.914 Q195.505 336.349 191.871 336.349 M191.871 332.646 Q197.681 332.646 200.737 337.252 Q203.815 341.835 203.815 350.585 Q203.815 359.312 200.737 363.919 Q197.681 368.502 191.871 368.502 Q186.061 368.502 182.982 363.919 Q179.927 359.312 179.927 350.585 Q179.927 341.835 182.982 337.252 Q186.061 332.646 191.871 332.646 Z" fill="#000000" fill-rule="nonzero" fill-opacity="1" /><path clip-path="url(#clip480)" d="M218.815 335.632 Q216.963 335.632 215.69 336.928 Q214.417 338.201 214.417 340.053 Q214.417 341.882 215.69 343.155 Q216.963 344.405 218.815 344.405 Q220.667 344.405 221.94 343.155 Q223.213 341.882 223.213 340.053 Q223.213 338.224 221.917 336.928 Q220.644 335.632 218.815 335.632 M218.815 332.646 Q220.297 332.646 221.663 333.224 Q223.028 333.78 224.024 334.845 Q225.088 335.886 225.621 337.206 Q226.153 338.525 226.153 340.053 Q226.153 343.109 224 345.238 Q221.871 347.345 218.769 347.345 Q215.644 347.345 213.561 345.261 Q211.477 343.178 211.477 340.053 Q211.477 336.951 213.607 334.798 Q215.737 332.646 218.815 332.646 Z" fill="#000000" fill-rule="nonzero" fill-opacity="1" /><path clip-path="url(#clip480)" d="M234.463 331.859 L238.167 331.859 Q241.639 337.322 243.352 342.553 Q245.088 347.784 245.088 352.946 Q245.088 358.132 243.352 363.386 Q241.639 368.641 238.167 374.081 L234.463 374.081 Q237.542 368.78 239.047 363.548 Q240.574 358.294 240.574 352.946 Q240.574 347.599 239.047 342.391 Q237.542 337.183 234.463 331.859 Z" fill="#000000" fill-rule="nonzero" fill-opacity="1" /><path clip-path="url(#clip480)" d="M81.2234 179.197 L81.2234 183.225 Q79.4179 182.299 77.4735 181.836 Q75.529 181.373 73.4457 181.373 Q70.2744 181.373 68.6772 182.345 Q67.1032 183.317 67.1032 185.262 Q67.1032 186.743 68.2374 187.6 Q69.3717 188.433 72.7976 189.197 L74.2559 189.521 Q78.7929 190.493 80.691 192.276 Q82.6123 194.035 82.6123 197.206 Q82.6123 200.817 79.742 202.924 Q76.8948 205.03 71.8948 205.03 Q69.8115 205.03 67.543 204.614 Q65.2976 204.22 62.7976 203.41 L62.7976 199.012 Q65.1587 200.239 67.4504 200.864 Q69.742 201.465 71.9874 201.465 Q74.9966 201.465 76.617 200.447 Q78.2374 199.405 78.2374 197.53 Q78.2374 195.794 77.0568 194.868 Q75.8994 193.942 71.9411 193.086 L70.4596 192.739 Q66.5013 191.905 64.7421 190.192 Q62.9828 188.456 62.9828 185.447 Q62.9828 181.79 65.5754 179.799 Q68.168 177.808 72.9365 177.808 Q75.2976 177.808 77.3809 178.155 Q79.4642 178.503 81.2234 179.197 Z" fill="#000000" fill-rule="nonzero" fill-opacity="1" /><path clip-path="url(#clip480)" d="M89.3947 178.433 L93.6539 178.433 L93.6539 204.359 L89.3947 204.359 L89.3947 178.433 M89.3947 168.341 L93.6539 168.341 L93.6539 173.734 L89.3947 173.734 L89.3947 168.341 Z" fill="#000000" fill-rule="nonzero" fill-opacity="1" /><path clip-path="url(#clip480)" d="M124.117 188.711 L124.117 204.359 L119.857 204.359 L119.857 188.85 Q119.857 185.169 118.422 183.341 Q116.987 181.512 114.117 181.512 Q110.668 181.512 108.677 183.711 Q106.686 185.91 106.686 189.706 L106.686 204.359 L102.404 204.359 L102.404 178.433 L106.686 178.433 L106.686 182.461 Q108.214 180.123 110.274 178.966 Q112.358 177.808 115.066 177.808 Q119.533 177.808 121.825 180.586 Q124.117 183.341 124.117 188.711 Z" fill="#000000" fill-rule="nonzero" fill-opacity="1" /><path clip-path="url(#clip480)" d="M142.843 168.387 Q139.742 173.711 138.237 178.919 Q136.732 184.128 136.732 189.475 Q136.732 194.822 138.237 200.077 Q139.765 205.308 142.843 210.609 L139.14 210.609 Q135.668 205.169 133.931 199.914 Q132.219 194.66 132.219 189.475 Q132.219 184.313 133.931 179.081 Q135.644 173.85 139.14 168.387 L142.843 168.387 Z" fill="#000000" fill-rule="nonzero" fill-opacity="1" /><path clip-path="url(#clip480)" d="M162.288 185.215 Q159.14 185.215 157.288 187.368 Q155.459 189.521 155.459 193.271 Q155.459 196.998 157.288 199.174 Q159.14 201.327 162.288 201.327 Q165.436 201.327 167.265 199.174 Q169.116 196.998 169.116 193.271 Q169.116 189.521 167.265 187.368 Q165.436 185.215 162.288 185.215 M171.57 170.563 L171.57 174.822 Q169.811 173.989 168.005 173.549 Q166.223 173.109 164.464 173.109 Q159.834 173.109 157.38 176.234 Q154.95 179.359 154.603 185.678 Q155.968 183.665 158.029 182.6 Q160.089 181.512 162.566 181.512 Q167.774 181.512 170.783 184.683 Q173.816 187.831 173.816 193.271 Q173.816 198.595 170.667 201.813 Q167.519 205.03 162.288 205.03 Q156.292 205.03 153.121 200.447 Q149.95 195.84 149.95 187.114 Q149.95 178.919 153.839 174.058 Q157.728 169.174 164.279 169.174 Q166.038 169.174 167.82 169.521 Q169.626 169.868 171.57 170.563 Z" fill="#000000" fill-rule="nonzero" fill-opacity="1" /><path clip-path="url(#clip480)" d="M191.871 172.878 Q188.26 172.878 186.431 176.442 Q184.626 179.984 184.626 187.114 Q184.626 194.22 186.431 197.785 Q188.26 201.327 191.871 201.327 Q195.505 201.327 197.311 197.785 Q199.139 194.22 199.139 187.114 Q199.139 179.984 197.311 176.442 Q195.505 172.878 191.871 172.878 M191.871 169.174 Q197.681 169.174 200.737 173.78 Q203.815 178.364 203.815 187.114 Q203.815 195.84 200.737 200.447 Q197.681 205.03 191.871 205.03 Q186.061 205.03 182.982 200.447 Q179.927 195.84 179.927 187.114 Q179.927 178.364 182.982 173.78 Q186.061 169.174 191.871 169.174 Z" fill="#000000" fill-rule="nonzero" fill-opacity="1" /><path clip-path="url(#clip480)" d="M218.815 172.16 Q216.963 172.16 215.69 173.456 Q214.417 174.729 214.417 176.581 Q214.417 178.41 215.69 179.683 Q216.963 180.933 218.815 180.933 Q220.667 180.933 221.94 179.683 Q223.213 178.41 223.213 176.581 Q223.213 174.753 221.917 173.456 Q220.644 172.16 218.815 172.16 M218.815 169.174 Q220.297 169.174 221.663 169.753 Q223.028 170.308 224.024 171.373 Q225.088 172.415 225.621 173.734 Q226.153 175.054 226.153 176.581 Q226.153 179.637 224 181.766 Q221.871 183.873 218.769 183.873 Q215.644 183.873 213.561 181.79 Q211.477 179.706 211.477 176.581 Q211.477 173.479 213.607 171.327 Q215.737 169.174 218.815 169.174 Z" fill="#000000" fill-rule="nonzero" fill-opacity="1" /><path clip-path="url(#clip480)" d="M234.463 168.387 L238.167 168.387 Q241.639 173.85 243.352 179.081 Q245.088 184.313 245.088 189.475 Q245.088 194.66 243.352 199.914 Q241.639 205.169 238.167 210.609 L234.463 210.609 Q237.542 205.308 239.047 200.077 Q240.574 194.822 240.574 189.475 Q240.574 184.128 239.047 178.919 Q237.542 173.711 234.463 168.387 Z" fill="#000000" fill-rule="nonzero" fill-opacity="1" /><path clip-path="url(#clip480)" d="M225.181 140.589 L232.82 140.589 L232.82 114.223 L224.51 115.89 L224.51 111.631 L232.774 109.964 L237.449 109.964 L237.449 140.589 L245.088 140.589 L245.088 144.524 L225.181 144.524 L225.181 140.589 Z" fill="#000000" fill-rule="nonzero" fill-opacity="1" /><polyline clip-path="url(#clip482)" style="stroke:#009af9; stroke-linecap:round; stroke-linejoin:round; stroke-width:8; stroke-opacity:1; fill:none" points="281.088,575.622 291.447,575.496 301.805,575.129 312.163,574.561 322.522,573.867 332.88,573.139 343.238,572.481 353.597,571.99 363.955,571.747 374.313,571.796 384.672,572.146 395.03,572.761 405.388,573.565 415.747,574.453 426.105,575.3 436.463,575.982 446.822,576.392 457.18,576.456 467.538,576.147 477.897,575.487 488.255,574.553 498.613,573.465 508.972,572.37 519.33,571.428 529.688,570.783 540.047,570.547 550.405,570.78 560.763,571.478 571.122,572.569 581.48,573.921 591.838,575.355 602.197,576.67 612.555,577.666 622.913,578.177 633.272,578.097 643.63,577.394 653.988,576.127 664.347,574.441 674.705,572.552 685.063,570.723 695.422,569.23 705.78,568.325 716.139,568.194 726.497,568.929 736.855,570.506 747.214,572.776 757.572,575.478 767.93,578.263 778.289,580.735 788.647,582.505 799.005,583.248 809.364,582.751 819.722,580.959 830.08,578.001 840.439,574.192 850.797,570.014 861.155,566.067 871.514,563.005 881.872,561.449 892.23,561.901 902.589,564.658 912.947,569.738 923.305,576.835 933.664,585.299 944.022,594.162 954.38,602.193 964.739,608.002 975.097,610.157 985.455,607.313 995.814,598.346 1006.17,582.48 1016.53,559.416 1026.89,529.455 1037.25,493.588 1047.61,453.49 1057.96,411.393 1068.32,369.806 1078.68,331.143 1089.04,297.346 1099.4,269.631 1109.76,248.422 1120.11,233.488 1130.47,224.184 1140.83,219.704 1151.19,219.239 1161.55,222.003 1171.91,227.18 1182.26,233.858 1192.62,241.013 1202.98,247.585 1213.34,252.614 1223.7,255.394 1234.06,255.595 1244.41,253.307 1254.77,249.006 1265.13,243.443 1275.49,237.496 1285.85,232.013 1296.21,227.702 1306.56,225.059 1316.92,224.358 1327.28,225.665 1337.64,228.841 1348,233.55 1358.36,239.249 1368.71,245.208 1379.07,250.584 1389.43,254.531 1399.79,256.352 1410.15,255.646 1420.51,252.405 1430.86,247.048 1441.22,240.356 1451.58,233.348 1461.94,227.114 1472.3,222.671 1482.66,220.892 1493.01,222.518 1503.37,228.235 1513.73,238.745 1524.09,254.747 1534.45,276.792 1544.81,305.048 1555.16,339.052 1565.52,377.584 1575.88,418.729 1586.24,460.121 1596.6,499.315 1606.96,534.151 1617.31,563.024 1627.67,585.012 1638.03,599.87 1648.39,607.945 1658.75,610.053 1669.11,607.345 1679.46,601.174 1689.82,592.97 1700.18,584.106 1710.54,575.78 1720.9,568.922 1731.26,564.14 1741.61,561.696 1751.97,561.533 1762.33,563.324 1772.69,566.548 1783.05,570.571 1793.41,574.744 1803.76,578.474 1814.12,581.3 1824.48,582.929 1834.84,583.255 1845.2,582.357 1855.56,580.464 1865.91,577.916 1876.27,575.107 1886.63,572.43 1896.99,570.228 1907.35,568.749 1917.71,568.127 1928.06,568.37 1938.42,569.373 1948.78,570.936 1959.14,572.802 1969.5,574.692 1979.86,576.345 1990.21,577.552 2000.57,578.178 2010.93,578.177 2021.29,577.588 2031.65,576.53 2042.01,575.176 2052.36,573.728 2062.72,572.389 2073.08,571.334 2083.44,570.69 2093.8,570.519 2104.16,570.817 2114.51,571.516 2124.87,572.498 2135.23,573.613 2145.59,574.701 2155.95,575.614 2166.31,576.237 2176.66,576.5 2187.02,576.386 2197.38,575.929 2207.74,575.209 2218.1,574.339 2228.46,573.444 2238.81,572.649 2249.17,572.059 2259.53,571.744 2269.89,571.735 2280.25,572.019 2290.61,572.544 2300.96,573.226 2311.32,573.966 2321.68,574.659 2332.04,575.211 2342.4,575.552 2352.76,575.646 "/>
<polyline clip-path="url(#clip482)" style="stroke:#e26f46; stroke-linecap:round; stroke-linejoin:round; stroke-width:8; stroke-opacity:1; fill:none" points="281.088,573.522 291.447,573.583 301.805,573.685 312.163,573.815 322.522,573.955 332.88,574.085 343.238,574.185 353.597,574.241 363.955,574.243 374.313,574.189 384.672,574.085 395.03,573.945 405.388,573.789 415.747,573.637 426.105,573.512 436.463,573.434 446.822,573.415 457.18,573.459 467.538,573.563 477.897,573.713 488.255,573.89 498.613,574.068 508.972,574.222 519.33,574.328 529.688,574.369 540.047,574.337 550.405,574.233 560.763,574.069 571.122,573.868 581.48,573.656 591.838,573.465 602.197,573.323 612.555,573.254 622.913,573.269 633.272,573.372 643.63,573.55 653.988,573.78 664.347,574.032 674.705,574.267 685.063,574.451 695.422,574.552 705.78,574.551 716.139,574.441 726.497,574.232 736.855,573.949 747.214,573.629 757.572,573.317 767.93,573.061 778.289,572.901 788.647,572.868 799.005,572.975 809.364,573.214 819.722,573.559 830.08,573.963 840.439,574.367 850.797,574.706 861.155,574.919 871.514,574.958 881.872,574.796 892.23,574.436 902.589,573.909 912.947,573.278 923.305,572.63 933.664,572.071 944.022,571.706 954.38,571.625 964.739,571.889 975.097,572.523 985.455,573.508 995.814,574.761 1006.17,576.12 1016.53,577.315 1026.89,577.978 1037.25,577.711 1047.61,576.209 1057.96,573.416 1068.32,569.652 1078.68,565.616 1089.04,562.245 1099.4,560.451 1109.76,560.831 1120.11,563.467 1130.47,567.901 1140.83,573.293 1151.19,578.685 1161.55,583.277 1171.91,586.591 1182.26,588.513 1192.62,589.212 1202.98,589.01 1213.34,588.254 1223.7,587.244 1234.06,586.21 1244.41,585.333 1254.77,584.776 1265.13,584.702 1275.49,585.261 1285.85,586.546 1296.21,588.539 1306.56,591.076 1316.92,593.851 1327.28,596.483 1337.64,598.61 1348,599.981 1358.36,600.516 1368.71,600.298 1379.07,599.529 1389.43,598.462 1399.79,597.338 1410.15,596.368 1420.51,595.742 1430.86,595.652 1441.22,596.322 1451.58,597.988 1461.94,600.835 1472.3,604.884 1482.66,609.868 1493.01,615.168 1503.37,619.862 1513.73,622.907 1524.09,623.419 1534.45,620.95 1544.81,615.648 1555.16,608.23 1565.52,599.776 1575.88,591.425 1586.24,584.097 1596.6,578.331 1606.96,574.27 1617.31,571.764 1627.67,570.515 1638.03,570.194 1648.39,570.506 1658.75,571.208 1669.11,572.098 1679.46,573.01 1689.82,573.813 1700.18,574.416 1710.54,574.779 1720.9,574.902 1731.26,574.82 1741.61,574.589 1751.97,574.274 1762.33,573.939 1772.69,573.641 1783.05,573.421 1793.41,573.302 1803.76,573.289 1814.12,573.369 1824.48,573.518 1834.84,573.703 1845.2,573.891 1855.56,574.053 1865.91,574.164 1876.27,574.214 1886.63,574.2 1896.99,574.131 1907.35,574.023 1917.71,573.897 1928.06,573.775 1938.42,573.676 1948.78,573.615 1959.14,573.597 1969.5,573.625 1979.86,573.689 1990.21,573.778 2000.57,573.876 2010.93,573.966 2021.29,574.036 2031.65,574.074 2042.01,574.076 2052.36,574.043 2062.72,573.982 2073.08,573.903 2083.44,573.819 2093.8,573.744 2104.16,573.689 2114.51,573.661 2124.87,573.665 2135.23,573.698 2145.59,573.756 2155.95,573.827 2166.31,573.902 2176.66,573.969 2187.02,574.017 2197.38,574.04 2207.74,574.035 2218.1,574.003 2228.46,573.949 2238.81,573.883 2249.17,573.814 2259.53,573.752 2269.89,573.707 2280.25,573.685 2290.61,573.689 2300.96,573.718 2311.32,573.767 2321.68,573.829 2332.04,573.894 2342.4,573.953 2352.76,573.997 "/>
<polyline clip-path="url(#clip482)" style="stroke:#3da44d; stroke-linecap:round; stroke-linejoin:round; stroke-width:8; stroke-opacity:1; fill:none" points="281.088,127.294 291.447,127.295 301.805,127.294 312.163,127.294 322.522,127.295 332.88,127.296 343.238,127.299 353.597,127.303 363.955,127.305 374.313,127.306 384.672,127.306 395.03,127.305 405.388,127.305 415.747,127.307 426.105,127.311 436.463,127.316 446.822,127.32 457.18,127.322 467.538,127.322 477.897,127.32 488.255,127.32 498.613,127.321 508.972,127.326 519.33,127.333 529.688,127.34 540.047,127.344 550.405,127.345 560.763,127.343 571.122,127.341 581.48,127.342 591.838,127.348 602.197,127.358 612.555,127.37 622.913,127.379 633.272,127.382 643.63,127.379 653.988,127.374 664.347,127.373 674.705,127.38 685.063,127.395 695.422,127.415 705.78,127.433 716.139,127.44 726.497,127.437 736.855,127.428 747.214,127.424 757.572,127.435 767.93,127.465 778.289,127.51 788.647,127.554 799.005,127.582 809.364,127.582 819.722,127.559 830.08,127.532 840.439,127.528 850.797,127.565 861.155,127.642 871.514,127.734 881.872,127.802 892.23,127.815 902.589,127.775 912.947,127.731 923.305,127.772 933.664,127.983 944.022,128.399 954.38,128.955 964.739,129.48 975.097,129.751 985.455,129.61 995.814,129.123 1006.17,128.72 1016.53,129.274 1026.89,132.045 1037.25,138.475 1047.61,149.875 1057.96,167.051 1068.32,189.984 1078.68,217.671 1089.04,248.17 1099.4,278.883 1109.76,307 1120.11,330.013 1130.47,346.159 1140.83,354.698 1151.19,355.971 1161.55,351.227 1171.91,342.31 1182.26,331.284 1192.62,320.1 1202.98,310.363 1213.34,303.222 1223.7,299.358 1234.06,299.022 1244.41,302.082 1254.77,308.059 1265.13,316.154 1275.49,325.294 1285.85,334.227 1296.21,341.675 1306.56,346.531 1316.92,348.052 1327.28,346.002 1337.64,340.699 1348,332.951 1358.36,323.905 1368.71,314.845 1379.07,307.005 1389.43,301.421 1399.79,298.848 1410.15,299.714 1420.51,304.096 1430.86,311.681 1441.22,321.72 1451.58,332.993 1461.94,343.833 1472.3,352.254 1482.66,356.203 1493.01,353.9 1503.37,344.216 1513.73,326.967 1524.09,303.053 1534.45,274.373 1544.81,243.513 1555.16,213.282 1565.52,186.205 1575.88,164.096 1586.24,147.809 1596.6,137.222 1606.96,131.431 1617.31,129.084 1627.67,128.745 1638.03,129.206 1648.39,129.659 1658.75,129.734 1669.11,129.412 1679.46,128.869 1689.82,128.325 1700.18,127.939 1710.54,127.757 1720.9,127.735 1731.26,127.783 1741.61,127.817 1751.97,127.795 1762.33,127.721 1772.69,127.629 1783.05,127.557 1793.41,127.526 1803.76,127.536 1814.12,127.563 1824.48,127.583 1834.84,127.579 1845.2,127.548 1855.56,127.503 1865.91,127.459 1876.27,127.432 1886.63,127.424 1896.99,127.429 1907.35,127.438 1917.71,127.44 1928.06,127.43 1938.42,127.412 1948.78,127.393 1959.14,127.378 1969.5,127.373 1979.86,127.375 1990.21,127.38 2000.57,127.382 2010.93,127.378 2021.29,127.369 2031.65,127.357 2042.01,127.347 2052.36,127.341 2062.72,127.341 2073.08,127.343 2083.44,127.345 2093.8,127.344 2104.16,127.339 2114.51,127.332 2124.87,127.325 2135.23,127.321 2145.59,127.32 2155.95,127.32 2166.31,127.322 2176.66,127.322 2187.02,127.319 2197.38,127.315 2207.74,127.31 2218.1,127.307 2228.46,127.305 2238.81,127.305 2249.17,127.306 2259.53,127.306 2269.89,127.305 2280.25,127.302 2290.61,127.299 2300.96,127.296 2311.32,127.294 2321.68,127.294 2332.04,127.295 2342.4,127.295 2352.76,127.294 "/>
<polyline clip-path="url(#clip482)" style="stroke:#c271d2; stroke-linecap:round; stroke-linejoin:round; stroke-width:8; stroke-opacity:1; fill:none" points="281.088,572.061 291.447,572.196 301.805,572.574 312.163,573.152 322.522,573.759 332.88,573.104 343.238,572.442 353.597,571.951 363.955,571.712 374.313,571.77 384.672,572.131 395.03,572.757 405.388,573.557 415.747,573.222 426.105,572.374 436.463,571.691 446.822,571.284 457.18,571.228 467.538,571.549 477.897,572.221 488.255,573.16 498.613,573.412 508.972,572.326 519.33,571.383 529.688,570.74 540.047,570.512 550.405,570.757 560.763,571.468 571.122,572.569 581.48,573.646 591.838,572.309 602.197,570.994 612.555,570.001 622.913,569.497 633.272,569.59 643.63,570.307 653.988,571.586 664.347,573.248 674.705,572.489 685.063,570.667 695.422,569.178 705.78,568.281 716.139,568.164 726.497,568.915 736.855,570.505 747.214,572.752 757.572,572.149 767.93,569.38 778.289,566.914 788.647,565.153 799.005,564.425 809.364,564.94 819.722,566.749 830.08,569.712 840.439,573.247 850.797,569.921 861.155,565.995 871.514,562.949 881.872,561.414 892.23,561.887 902.589,564.658 912.947,569.697 923.305,570.637 933.664,562.277 944.022,553.439 954.38,545.433 964.739,539.656 975.097,537.533 985.455,540.4 995.814,549.352 1006.17,564.942 1016.53,559.007 1026.89,529.264 1037.25,493.495 1047.61,453.467 1057.96,411.392 1068.32,369.763 1078.68,331.003 1089.04,297.102 1099.4,269.335 1109.76,248.162 1120.11,233.33 1130.47,224.133 1140.83,219.704 1151.19,219.206 1161.55,221.876 1171.91,226.946 1182.26,233.542 1192.62,240.659 1202.98,247.233 1213.34,252.291 1223.7,255.113 1234.06,255.356 1244.41,253.102 1254.77,248.823 1265.13,243.265 1275.49,237.302 1285.85,231.778 1296.21,227.391 1306.56,224.634 1316.92,223.787 1327.28,224.93 1337.64,227.955 1348,232.549 1358.36,238.188 1368.71,244.147 1379.07,249.567 1389.43,253.585 1399.79,255.485 1410.15,254.85 1420.51,251.661 1430.86,246.322 1441.22,239.6 1451.58,232.494 1461.94,226.066 1472.3,221.303 1482.66,219.06 1493.01,220.098 1503.37,225.187 1513.73,235.175 1524.09,250.921 1534.45,273.082 1544.81,301.818 1555.16,336.549 1565.52,375.881 1575.88,417.737 1586.24,459.661 1596.6,499.18 1606.96,534.149 1617.31,562.824 1627.67,562.213 1638.03,547.588 1648.39,539.605 1658.75,537.564 1669.11,540.324 1679.46,546.527 1689.82,554.744 1700.18,563.593 1710.54,571.725 1720.9,568.813 1731.26,564.092 1741.61,561.674 1751.97,561.526 1762.33,563.324 1772.69,566.544 1783.05,570.542 1793.41,572.811 1803.76,569.205 1814.12,566.398 1824.48,564.779 1834.84,564.458 1845.2,565.358 1855.56,567.248 1865.91,569.787 1876.27,572.558 1886.63,572.39 1896.99,570.218 1907.35,568.746 1917.71,568.127 1928.06,568.37 1938.42,569.37 1948.78,570.926 1959.14,572.77 1969.5,572.991 1979.86,571.364 1990.21,570.161 2000.57,569.536 2010.93,569.537 2021.29,570.122 2031.65,571.176 2042.01,572.521 2052.36,573.631 2062.72,572.384 2073.08,571.334 2083.44,570.69 2093.8,570.517 2104.16,570.813 2114.51,571.508 2124.87,572.485 2135.23,573.566 2145.59,573.008 2155.95,572.1 2166.31,571.477 2176.66,571.212 2187.02,571.324 2197.38,571.778 2207.74,572.494 2218.1,573.354 2228.46,573.434 2238.81,572.649 2249.17,572.058 2259.53,571.741 2269.89,571.729 2280.25,572.011 2290.61,572.533 2300.96,573.211 2311.32,573.716 2321.68,573.055 2332.04,572.503 2342.4,572.159 2352.76,572.063 "/>
<polyline clip-path="url(#clip482)" style="stroke:#808080; stroke-linecap:round; stroke-linejoin:round; stroke-width:8; stroke-opacity:1; fill:none" points="1057.96,573.857 1057.96,127.244 "/>
<polyline clip-path="url(#clip482)" style="stroke:#808080; stroke-linecap:round; stroke-linejoin:round; stroke-width:8; stroke-opacity:1; fill:none" points="1575.88,573.857 1575.88,127.244 "/>
<path clip-path="url(#clip480)" d="M1959.61 516.756 L2283.7 516.756 L2283.7 257.556 L1959.61 257.556  Z" fill="#ffffff" fill-rule="evenodd" fill-opacity="1"/>
<polyline clip-path="url(#clip480)" style="stroke:#000000; stroke-linecap:round; stroke-linejoin:round; stroke-width:4; stroke-opacity:1; fill:none" points="1959.61,516.756 2283.7,516.756 2283.7,257.556 1959.61,257.556 1959.61,516.756 "/>
<polyline clip-path="url(#clip480)" style="stroke:#009af9; stroke-linecap:round; stroke-linejoin:round; stroke-width:8; stroke-opacity:1; fill:none" points="1982.63,309.396 2120.74,309.396 "/>
<path clip-path="url(#clip480)" d="M2143.76 292.116 L2150.73 292.116 L2159.55 315.635 L2168.41 292.116 L2175.38 292.116 L2175.38 326.676 L2170.82 326.676 L2170.82 296.329 L2161.91 320.033 L2157.21 320.033 L2148.3 296.329 L2148.3 326.676 L2143.76 326.676 L2143.76 292.116 Z" fill="#000000" fill-rule="nonzero" fill-opacity="1" /><path clip-path="url(#clip480)" d="M2206.03 300.751 L2196.65 313.366 L2206.52 326.676 L2201.49 326.676 L2193.95 316.491 L2186.4 326.676 L2181.38 326.676 L2191.45 313.112 L2182.23 300.751 L2187.26 300.751 L2194.13 309.987 L2201.01 300.751 L2206.03 300.751 Z" fill="#000000" fill-rule="nonzero" fill-opacity="1" /><polyline clip-path="url(#clip480)" style="stroke:#e26f46; stroke-linecap:round; stroke-linejoin:round; stroke-width:8; stroke-opacity:1; fill:none" points="1982.63,361.236 2120.74,361.236 "/>
<path clip-path="url(#clip480)" d="M2143.76 343.956 L2150.73 343.956 L2159.55 367.475 L2168.41 343.956 L2175.38 343.956 L2175.38 378.516 L2170.82 378.516 L2170.82 348.169 L2161.91 371.873 L2157.21 371.873 L2148.3 348.169 L2148.3 378.516 L2143.76 378.516 L2143.76 343.956 Z" fill="#000000" fill-rule="nonzero" fill-opacity="1" /><path clip-path="url(#clip480)" d="M2195.27 380.924 Q2193.46 385.553 2191.75 386.966 Q2190.03 388.378 2187.16 388.378 L2183.76 388.378 L2183.76 384.813 L2186.26 384.813 Q2188.02 384.813 2188.99 383.979 Q2189.96 383.146 2191.15 380.044 L2191.91 378.1 L2181.42 352.591 L2185.94 352.591 L2194.04 372.868 L2202.14 352.591 L2206.65 352.591 L2195.27 380.924 Z" fill="#000000" fill-rule="nonzero" fill-opacity="1" /><polyline clip-path="url(#clip480)" style="stroke:#3da44d; stroke-linecap:round; stroke-linejoin:round; stroke-width:8; stroke-opacity:1; fill:none" points="1982.63,413.076 2120.74,413.076 "/>
<path clip-path="url(#clip480)" d="M2143.76 395.796 L2150.73 395.796 L2159.55 419.315 L2168.41 395.796 L2175.38 395.796 L2175.38 430.356 L2170.82 430.356 L2170.82 400.009 L2161.91 423.713 L2157.21 423.713 L2148.3 400.009 L2148.3 430.356 L2143.76 430.356 L2143.76 395.796 Z" fill="#000000" fill-rule="nonzero" fill-opacity="1" /><path clip-path="url(#clip480)" d="M2182.63 404.431 L2202.86 404.431 L2202.86 408.32 L2186.84 426.954 L2202.86 426.954 L2202.86 430.356 L2182.05 430.356 L2182.05 426.468 L2198.07 407.833 L2182.63 407.833 L2182.63 404.431 Z" fill="#000000" fill-rule="nonzero" fill-opacity="1" /><polyline clip-path="url(#clip480)" style="stroke:#c271d2; stroke-linecap:round; stroke-linejoin:round; stroke-width:8; stroke-opacity:1; fill:none" points="1982.63,464.916 2120.74,464.916 "/>
<path clip-path="url(#clip480)" d="M2147.7 445.97 L2147.7 493.377 L2143.76 493.377 L2143.76 445.97 L2147.7 445.97 Z" fill="#000000" fill-rule="nonzero" fill-opacity="1" /><path clip-path="url(#clip480)" d="M2158.37 447.636 L2165.34 447.636 L2174.15 471.155 L2183.02 447.636 L2189.99 447.636 L2189.99 482.196 L2185.43 482.196 L2185.43 451.849 L2176.52 475.553 L2171.82 475.553 L2162.9 451.849 L2162.9 482.196 L2158.37 482.196 L2158.37 447.636 Z" fill="#000000" fill-rule="nonzero" fill-opacity="1" /><path clip-path="url(#clip480)" d="M2220.64 456.271 L2211.26 468.886 L2221.12 482.196 L2216.1 482.196 L2208.55 472.011 L2201.01 482.196 L2195.98 482.196 L2206.05 468.632 L2196.84 456.271 L2201.86 456.271 L2208.74 465.507 L2215.61 456.271 L2220.64 456.271 Z" fill="#000000" fill-rule="nonzero" fill-opacity="1" /><path clip-path="url(#clip480)" d="M2237.93 484.604 Q2236.12 489.233 2234.41 490.646 Q2232.7 492.058 2229.83 492.058 L2226.42 492.058 L2226.42 488.493 L2228.92 488.493 Q2230.68 488.493 2231.65 487.659 Q2232.63 486.826 2233.81 483.724 L2234.57 481.78 L2224.08 456.271 L2228.6 456.271 L2236.7 476.548 L2244.8 456.271 L2249.32 456.271 L2237.93 484.604 Z" fill="#000000" fill-rule="nonzero" fill-opacity="1" /><path clip-path="url(#clip480)" d="M2260.68 445.97 L2260.68 493.377 L2256.75 493.377 L2256.75 445.97 L2260.68 445.97 Z" fill="#000000" fill-rule="nonzero" fill-opacity="1" /><path clip-path="url(#clip480)" d="M281.088 1423.18 L2352.76 1423.18 L2352.76 887.244 L281.088 887.244  Z" fill="#ffffff" fill-rule="evenodd" fill-opacity="1"/>
<defs>
  <clipPath id="clip483">
    <rect x="281" y="887" width="2073" height="537"/>
  </clipPath>
</defs>
<polyline clip-path="url(#clip483)" style="stroke:#000000; stroke-linecap:round; stroke-linejoin:round; stroke-width:2; stroke-opacity:0.1; fill:none" points="281.088,1423.18 281.088,887.244 "/>
<polyline clip-path="url(#clip483)" style="stroke:#000000; stroke-linecap:round; stroke-linejoin:round; stroke-width:2; stroke-opacity:0.1; fill:none" points="1057.96,1423.18 1057.96,887.244 "/>
<polyline clip-path="url(#clip483)" style="stroke:#000000; stroke-linecap:round; stroke-linejoin:round; stroke-width:2; stroke-opacity:0.1; fill:none" points="1316.92,1423.18 1316.92,887.244 "/>
<polyline clip-path="url(#clip483)" style="stroke:#000000; stroke-linecap:round; stroke-linejoin:round; stroke-width:2; stroke-opacity:0.1; fill:none" points="1575.88,1423.18 1575.88,887.244 "/>
<polyline clip-path="url(#clip483)" style="stroke:#000000; stroke-linecap:round; stroke-linejoin:round; stroke-width:2; stroke-opacity:0.1; fill:none" points="2352.76,1423.18 2352.76,887.244 "/>
<polyline clip-path="url(#clip483)" style="stroke:#000000; stroke-linecap:round; stroke-linejoin:round; stroke-width:2; stroke-opacity:0.1; fill:none" points="281.088,1396.93 2352.76,1396.93 "/>
<polyline clip-path="url(#clip483)" style="stroke:#000000; stroke-linecap:round; stroke-linejoin:round; stroke-width:2; stroke-opacity:0.1; fill:none" points="281.088,1316.38 2352.76,1316.38 "/>
<polyline clip-path="url(#clip483)" style="stroke:#000000; stroke-linecap:round; stroke-linejoin:round; stroke-width:2; stroke-opacity:0.1; fill:none" points="281.088,1235.83 2352.76,1235.83 "/>
<polyline clip-path="url(#clip483)" style="stroke:#000000; stroke-linecap:round; stroke-linejoin:round; stroke-width:2; stroke-opacity:0.1; fill:none" points="281.088,1155.28 2352.76,1155.28 "/>
<polyline clip-path="url(#clip483)" style="stroke:#000000; stroke-linecap:round; stroke-linejoin:round; stroke-width:2; stroke-opacity:0.1; fill:none" points="281.088,1074.73 2352.76,1074.73 "/>
<polyline clip-path="url(#clip483)" style="stroke:#000000; stroke-linecap:round; stroke-linejoin:round; stroke-width:2; stroke-opacity:0.1; fill:none" points="281.088,994.179 2352.76,994.179 "/>
<polyline clip-path="url(#clip483)" style="stroke:#000000; stroke-linecap:round; stroke-linejoin:round; stroke-width:2; stroke-opacity:0.1; fill:none" points="281.088,913.629 2352.76,913.629 "/>
<polyline clip-path="url(#clip480)" style="stroke:#000000; stroke-linecap:round; stroke-linejoin:round; stroke-width:4; stroke-opacity:1; fill:none" points="281.088,1423.18 2352.76,1423.18 "/>
<polyline clip-path="url(#clip480)" style="stroke:#000000; stroke-linecap:round; stroke-linejoin:round; stroke-width:4; stroke-opacity:1; fill:none" points="281.088,1423.18 281.088,1404.28 "/>
<polyline clip-path="url(#clip480)" style="stroke:#000000; stroke-linecap:round; stroke-linejoin:round; stroke-width:4; stroke-opacity:1; fill:none" points="1057.96,1423.18 1057.96,1404.28 "/>
<polyline clip-path="url(#clip480)" style="stroke:#000000; stroke-linecap:round; stroke-linejoin:round; stroke-width:4; stroke-opacity:1; fill:none" points="1316.92,1423.18 1316.92,1404.28 "/>
<polyline clip-path="url(#clip480)" style="stroke:#000000; stroke-linecap:round; stroke-linejoin:round; stroke-width:4; stroke-opacity:1; fill:none" points="1575.88,1423.18 1575.88,1404.28 "/>
<polyline clip-path="url(#clip480)" style="stroke:#000000; stroke-linecap:round; stroke-linejoin:round; stroke-width:4; stroke-opacity:1; fill:none" points="2352.76,1423.18 2352.76,1404.28 "/>
<path clip-path="url(#clip480)" d="M227.616 1468.75 L257.292 1468.75 L257.292 1472.69 L227.616 1472.69 L227.616 1468.75 Z" fill="#000000" fill-rule="nonzero" fill-opacity="1" /><path clip-path="url(#clip480)" d="M271.412 1481.64 L287.732 1481.64 L287.732 1485.58 L265.787 1485.58 L265.787 1481.64 Q268.449 1478.89 273.033 1474.26 Q277.639 1469.61 278.82 1468.27 Q281.065 1465.74 281.945 1464.01 Q282.848 1462.25 282.848 1460.56 Q282.848 1457.8 280.903 1456.07 Q278.982 1454.33 275.88 1454.33 Q273.681 1454.33 271.227 1455.09 Q268.797 1455.86 266.019 1457.41 L266.019 1452.69 Q268.843 1451.55 271.297 1450.97 Q273.75 1450.39 275.787 1450.39 Q281.158 1450.39 284.352 1453.08 Q287.547 1455.77 287.547 1460.26 Q287.547 1462.39 286.736 1464.31 Q285.949 1466.2 283.843 1468.8 Q283.264 1469.47 280.162 1472.69 Q277.061 1475.88 271.412 1481.64 Z" fill="#000000" fill-rule="nonzero" fill-opacity="1" /><path clip-path="url(#clip480)" d="M297.547 1479.7 L302.431 1479.7 L302.431 1485.58 L297.547 1485.58 L297.547 1479.7 Z" fill="#000000" fill-rule="nonzero" fill-opacity="1" /><path clip-path="url(#clip480)" d="M322.616 1454.1 Q319.005 1454.1 317.176 1457.66 Q315.371 1461.2 315.371 1468.33 Q315.371 1475.44 317.176 1479.01 Q319.005 1482.55 322.616 1482.55 Q326.25 1482.55 328.056 1479.01 Q329.884 1475.44 329.884 1468.33 Q329.884 1461.2 328.056 1457.66 Q326.25 1454.1 322.616 1454.1 M322.616 1450.39 Q328.426 1450.39 331.482 1455 Q334.56 1459.58 334.56 1468.33 Q334.56 1477.06 331.482 1481.67 Q328.426 1486.25 322.616 1486.25 Q316.806 1486.25 313.727 1481.67 Q310.671 1477.06 310.671 1468.33 Q310.671 1459.58 313.727 1455 Q316.806 1450.39 322.616 1450.39 Z" fill="#000000" fill-rule="nonzero" fill-opacity="1" /><path clip-path="url(#clip480)" d="M1004.99 1468.75 L1034.67 1468.75 L1034.67 1472.69 L1004.99 1472.69 L1004.99 1468.75 Z" fill="#000000" fill-rule="nonzero" fill-opacity="1" /><path clip-path="url(#clip480)" d="M1054.76 1454.1 Q1051.15 1454.1 1049.32 1457.66 Q1047.51 1461.2 1047.51 1468.33 Q1047.51 1475.44 1049.32 1479.01 Q1051.15 1482.55 1054.76 1482.55 Q1058.39 1482.55 1060.2 1479.01 Q1062.03 1475.44 1062.03 1468.33 Q1062.03 1461.2 1060.2 1457.66 Q1058.39 1454.1 1054.76 1454.1 M1054.76 1450.39 Q1060.57 1450.39 1063.62 1455 Q1066.7 1459.58 1066.7 1468.33 Q1066.7 1477.06 1063.62 1481.67 Q1060.57 1486.25 1054.76 1486.25 Q1048.95 1486.25 1045.87 1481.67 Q1042.81 1477.06 1042.81 1468.33 Q1042.81 1459.58 1045.87 1455 Q1048.95 1450.39 1054.76 1450.39 Z" fill="#000000" fill-rule="nonzero" fill-opacity="1" /><path clip-path="url(#clip480)" d="M1074.92 1479.7 L1079.8 1479.7 L1079.8 1485.58 L1074.92 1485.58 L1074.92 1479.7 Z" fill="#000000" fill-rule="nonzero" fill-opacity="1" /><path clip-path="url(#clip480)" d="M1090.04 1451.02 L1108.39 1451.02 L1108.39 1454.96 L1094.32 1454.96 L1094.32 1463.43 Q1095.34 1463.08 1096.35 1462.92 Q1097.37 1462.73 1098.39 1462.73 Q1104.18 1462.73 1107.56 1465.9 Q1110.94 1469.08 1110.94 1474.49 Q1110.94 1480.07 1107.47 1483.17 Q1103.99 1486.25 1097.67 1486.25 Q1095.5 1486.25 1093.23 1485.88 Q1090.98 1485.51 1088.58 1484.77 L1088.58 1480.07 Q1090.66 1481.2 1092.88 1481.76 Q1095.1 1482.32 1097.58 1482.32 Q1101.59 1482.32 1103.92 1480.21 Q1106.26 1478.1 1106.26 1474.49 Q1106.26 1470.88 1103.92 1468.77 Q1101.59 1466.67 1097.58 1466.67 Q1095.71 1466.67 1093.83 1467.08 Q1091.98 1467.5 1090.04 1468.38 L1090.04 1451.02 Z" fill="#000000" fill-rule="nonzero" fill-opacity="1" /><path clip-path="url(#clip480)" d="M1294.31 1454.1 Q1290.7 1454.1 1288.87 1457.66 Q1287.06 1461.2 1287.06 1468.33 Q1287.06 1475.44 1288.87 1479.01 Q1290.7 1482.55 1294.31 1482.55 Q1297.94 1482.55 1299.75 1479.01 Q1301.57 1475.44 1301.57 1468.33 Q1301.57 1461.2 1299.75 1457.66 Q1297.94 1454.1 1294.31 1454.1 M1294.31 1450.39 Q1300.12 1450.39 1303.17 1455 Q1306.25 1459.58 1306.25 1468.33 Q1306.25 1477.06 1303.17 1481.67 Q1300.12 1486.25 1294.31 1486.25 Q1288.5 1486.25 1285.42 1481.67 Q1282.36 1477.06 1282.36 1468.33 Q1282.36 1459.58 1285.42 1455 Q1288.5 1450.39 1294.31 1450.39 Z" fill="#000000" fill-rule="nonzero" fill-opacity="1" /><path clip-path="url(#clip480)" d="M1314.47 1479.7 L1319.35 1479.7 L1319.35 1485.58 L1314.47 1485.58 L1314.47 1479.7 Z" fill="#000000" fill-rule="nonzero" fill-opacity="1" /><path clip-path="url(#clip480)" d="M1339.54 1454.1 Q1335.93 1454.1 1334.1 1457.66 Q1332.29 1461.2 1332.29 1468.33 Q1332.29 1475.44 1334.1 1479.01 Q1335.93 1482.55 1339.54 1482.55 Q1343.17 1482.55 1344.98 1479.01 Q1346.81 1475.44 1346.81 1468.33 Q1346.81 1461.2 1344.98 1457.66 Q1343.17 1454.1 1339.54 1454.1 M1339.54 1450.39 Q1345.35 1450.39 1348.4 1455 Q1351.48 1459.58 1351.48 1468.33 Q1351.48 1477.06 1348.4 1481.67 Q1345.35 1486.25 1339.54 1486.25 Q1333.73 1486.25 1330.65 1481.67 Q1327.59 1477.06 1327.59 1468.33 Q1327.59 1459.58 1330.65 1455 Q1333.73 1450.39 1339.54 1450.39 Z" fill="#000000" fill-rule="nonzero" fill-opacity="1" /><path clip-path="url(#clip480)" d="M1553.76 1454.1 Q1550.15 1454.1 1548.32 1457.66 Q1546.52 1461.2 1546.52 1468.33 Q1546.52 1475.44 1548.32 1479.01 Q1550.15 1482.55 1553.76 1482.55 Q1557.4 1482.55 1559.2 1479.01 Q1561.03 1475.44 1561.03 1468.33 Q1561.03 1461.2 1559.2 1457.66 Q1557.4 1454.1 1553.76 1454.1 M1553.76 1450.39 Q1559.57 1450.39 1562.63 1455 Q1565.71 1459.58 1565.71 1468.33 Q1565.71 1477.06 1562.63 1481.67 Q1559.57 1486.25 1553.76 1486.25 Q1547.95 1486.25 1544.87 1481.67 Q1541.82 1477.06 1541.82 1468.33 Q1541.82 1459.58 1544.87 1455 Q1547.95 1450.39 1553.76 1450.39 Z" fill="#000000" fill-rule="nonzero" fill-opacity="1" /><path clip-path="url(#clip480)" d="M1573.92 1479.7 L1578.81 1479.7 L1578.81 1485.58 L1573.92 1485.58 L1573.92 1479.7 Z" fill="#000000" fill-rule="nonzero" fill-opacity="1" /><path clip-path="url(#clip480)" d="M1589.04 1451.02 L1607.4 1451.02 L1607.4 1454.96 L1593.32 1454.96 L1593.32 1463.43 Q1594.34 1463.08 1595.36 1462.92 Q1596.38 1462.73 1597.4 1462.73 Q1603.18 1462.73 1606.56 1465.9 Q1609.94 1469.08 1609.94 1474.49 Q1609.94 1480.07 1606.47 1483.17 Q1603 1486.25 1596.68 1486.25 Q1594.5 1486.25 1592.23 1485.88 Q1589.99 1485.51 1587.58 1484.77 L1587.58 1480.07 Q1589.67 1481.2 1591.89 1481.76 Q1594.11 1482.32 1596.59 1482.32 Q1600.59 1482.32 1602.93 1480.21 Q1605.27 1478.1 1605.27 1474.49 Q1605.27 1470.88 1602.93 1468.77 Q1600.59 1466.67 1596.59 1466.67 Q1594.71 1466.67 1592.84 1467.08 Q1590.98 1467.5 1589.04 1468.38 L1589.04 1451.02 Z" fill="#000000" fill-rule="nonzero" fill-opacity="1" /><path clip-path="url(#clip480)" d="M2323.99 1481.64 L2340.31 1481.64 L2340.31 1485.58 L2318.37 1485.58 L2318.37 1481.64 Q2321.03 1478.89 2325.61 1474.26 Q2330.22 1469.61 2331.4 1468.27 Q2333.65 1465.74 2334.53 1464.01 Q2335.43 1462.25 2335.43 1460.56 Q2335.43 1457.8 2333.49 1456.07 Q2331.56 1454.33 2328.46 1454.33 Q2326.26 1454.33 2323.81 1455.09 Q2321.38 1455.86 2318.6 1457.41 L2318.6 1452.69 Q2321.43 1451.55 2323.88 1450.97 Q2326.33 1450.39 2328.37 1450.39 Q2333.74 1450.39 2336.93 1453.08 Q2340.13 1455.77 2340.13 1460.26 Q2340.13 1462.39 2339.32 1464.31 Q2338.53 1466.2 2336.42 1468.8 Q2335.85 1469.47 2332.74 1472.69 Q2329.64 1475.88 2323.99 1481.64 Z" fill="#000000" fill-rule="nonzero" fill-opacity="1" /><path clip-path="url(#clip480)" d="M2350.13 1479.7 L2355.01 1479.7 L2355.01 1485.58 L2350.13 1485.58 L2350.13 1479.7 Z" fill="#000000" fill-rule="nonzero" fill-opacity="1" /><path clip-path="url(#clip480)" d="M2375.2 1454.1 Q2371.59 1454.1 2369.76 1457.66 Q2367.95 1461.2 2367.95 1468.33 Q2367.95 1475.44 2369.76 1479.01 Q2371.59 1482.55 2375.2 1482.55 Q2378.83 1482.55 2380.64 1479.01 Q2382.47 1475.44 2382.47 1468.33 Q2382.47 1461.2 2380.64 1457.66 Q2378.83 1454.1 2375.2 1454.1 M2375.2 1450.39 Q2381.01 1450.39 2384.06 1455 Q2387.14 1459.58 2387.14 1468.33 Q2387.14 1477.06 2384.06 1481.67 Q2381.01 1486.25 2375.2 1486.25 Q2369.39 1486.25 2366.31 1481.67 Q2363.25 1477.06 2363.25 1468.33 Q2363.25 1459.58 2366.31 1455 Q2369.39 1450.39 2375.2 1450.39 Z" fill="#000000" fill-rule="nonzero" fill-opacity="1" /><path clip-path="url(#clip480)" d="M1205.52 1532.4 L1233.34 1532.4 L1233.34 1537.74 L1211.32 1563.37 L1233.34 1563.37 L1233.34 1568.04 L1204.73 1568.04 L1204.73 1562.7 L1226.75 1537.07 L1205.52 1537.07 L1205.52 1532.4 Z" fill="#000000" fill-rule="nonzero" fill-opacity="1" /><path clip-path="url(#clip480)" d="M1262.46 1518.52 L1275.96 1518.52 L1275.96 1523.07 L1268.32 1523.07 L1268.32 1572.09 L1275.96 1572.09 L1275.96 1576.64 L1262.46 1576.64 L1262.46 1518.52 Z" fill="#000000" fill-rule="nonzero" fill-opacity="1" /><path clip-path="url(#clip480)" d="M1316.19 1539.24 Q1318.39 1535.29 1321.44 1533.41 Q1324.5 1531.54 1328.64 1531.54 Q1334.21 1531.54 1337.23 1535.45 Q1340.25 1539.33 1340.25 1546.53 L1340.25 1568.04 L1334.36 1568.04 L1334.36 1546.72 Q1334.36 1541.59 1332.55 1539.11 Q1330.74 1536.63 1327.01 1536.63 Q1322.46 1536.63 1319.82 1539.65 Q1317.18 1542.68 1317.18 1547.9 L1317.18 1568.04 L1311.29 1568.04 L1311.29 1546.72 Q1311.29 1541.56 1309.47 1539.11 Q1307.66 1536.63 1303.87 1536.63 Q1299.38 1536.63 1296.74 1539.68 Q1294.1 1542.71 1294.1 1547.9 L1294.1 1568.04 L1288.21 1568.04 L1288.21 1532.4 L1294.1 1532.4 L1294.1 1537.93 Q1296.11 1534.66 1298.91 1533.1 Q1301.71 1531.54 1305.56 1531.54 Q1309.44 1531.54 1312.15 1533.51 Q1314.89 1535.48 1316.19 1539.24 Z" fill="#000000" fill-rule="nonzero" fill-opacity="1" /><path clip-path="url(#clip480)" d="M1379.69 1539.24 Q1381.88 1535.29 1384.94 1533.41 Q1388 1531.54 1392.13 1531.54 Q1397.7 1531.54 1400.73 1535.45 Q1403.75 1539.33 1403.75 1546.53 L1403.75 1568.04 L1397.86 1568.04 L1397.86 1546.72 Q1397.86 1541.59 1396.05 1539.11 Q1394.23 1536.63 1390.51 1536.63 Q1385.96 1536.63 1383.32 1539.65 Q1380.67 1542.68 1380.67 1547.9 L1380.67 1568.04 L1374.79 1568.04 L1374.79 1546.72 Q1374.79 1541.56 1372.97 1539.11 Q1371.16 1536.63 1367.37 1536.63 Q1362.88 1536.63 1360.24 1539.68 Q1357.6 1542.71 1357.6 1547.9 L1357.6 1568.04 L1351.71 1568.04 L1351.71 1532.4 L1357.6 1532.4 L1357.6 1537.93 Q1359.6 1534.66 1362.41 1533.1 Q1365.21 1531.54 1369.06 1531.54 Q1372.94 1531.54 1375.65 1533.51 Q1378.38 1535.48 1379.69 1539.24 Z" fill="#000000" fill-rule="nonzero" fill-opacity="1" /><path clip-path="url(#clip480)" d="M1429.12 1518.52 L1429.12 1576.64 L1415.62 1576.64 L1415.62 1572.09 L1423.23 1572.09 L1423.23 1523.07 L1415.62 1523.07 L1415.62 1518.52 L1429.12 1518.52 Z" fill="#000000" fill-rule="nonzero" fill-opacity="1" /><polyline clip-path="url(#clip480)" style="stroke:#000000; stroke-linecap:round; stroke-linejoin:round; stroke-width:4; stroke-opacity:1; fill:none" points="281.088,1423.18 281.088,887.244 "/>
<polyline clip-path="url(#clip480)" style="stroke:#000000; stroke-linecap:round; stroke-linejoin:round; stroke-width:4; stroke-opacity:1; fill:none" points="281.088,1396.93 299.986,1396.93 "/>
<polyline clip-path="url(#clip480)" style="stroke:#000000; stroke-linecap:round; stroke-linejoin:round; stroke-width:4; stroke-opacity:1; fill:none" points="281.088,1316.38 299.986,1316.38 "/>
<polyline clip-path="url(#clip480)" style="stroke:#000000; stroke-linecap:round; stroke-linejoin:round; stroke-width:4; stroke-opacity:1; fill:none" points="281.088,1235.83 299.986,1235.83 "/>
<polyline clip-path="url(#clip480)" style="stroke:#000000; stroke-linecap:round; stroke-linejoin:round; stroke-width:4; stroke-opacity:1; fill:none" points="281.088,1155.28 299.986,1155.28 "/>
<polyline clip-path="url(#clip480)" style="stroke:#000000; stroke-linecap:round; stroke-linejoin:round; stroke-width:4; stroke-opacity:1; fill:none" points="281.088,1074.73 299.986,1074.73 "/>
<polyline clip-path="url(#clip480)" style="stroke:#000000; stroke-linecap:round; stroke-linejoin:round; stroke-width:4; stroke-opacity:1; fill:none" points="281.088,994.179 299.986,994.179 "/>
<polyline clip-path="url(#clip480)" style="stroke:#000000; stroke-linecap:round; stroke-linejoin:round; stroke-width:4; stroke-opacity:1; fill:none" points="281.088,913.629 299.986,913.629 "/>
<path clip-path="url(#clip480)" d="M184.024 1397.38 L213.7 1397.38 L213.7 1401.32 L184.024 1401.32 L184.024 1397.38 Z" fill="#000000" fill-rule="nonzero" fill-opacity="1" /><path clip-path="url(#clip480)" d="M237.959 1395.58 Q241.315 1396.29 243.19 1398.56 Q245.088 1400.83 245.088 1404.16 Q245.088 1409.28 241.57 1412.08 Q238.051 1414.88 231.57 1414.88 Q229.394 1414.88 227.079 1414.44 Q224.787 1414.02 222.334 1413.17 L222.334 1408.65 Q224.278 1409.79 226.593 1410.37 Q228.908 1410.95 231.431 1410.95 Q235.829 1410.95 238.121 1409.21 Q240.436 1407.47 240.436 1404.16 Q240.436 1401.11 238.283 1399.4 Q236.153 1397.66 232.334 1397.66 L228.306 1397.66 L228.306 1393.82 L232.519 1393.82 Q235.968 1393.82 237.797 1392.45 Q239.625 1391.06 239.625 1388.47 Q239.625 1385.81 237.727 1384.4 Q235.852 1382.96 232.334 1382.96 Q230.412 1382.96 228.213 1383.38 Q226.014 1383.79 223.375 1384.67 L223.375 1380.51 Q226.037 1379.77 228.352 1379.4 Q230.69 1379.02 232.75 1379.02 Q238.074 1379.02 241.176 1381.46 Q244.278 1383.86 244.278 1387.98 Q244.278 1390.85 242.635 1392.84 Q240.991 1394.81 237.959 1395.58 Z" fill="#000000" fill-rule="nonzero" fill-opacity="1" /><path clip-path="url(#clip480)" d="M184.973 1316.83 L214.649 1316.83 L214.649 1320.77 L184.973 1320.77 L184.973 1316.83 Z" fill="#000000" fill-rule="nonzero" fill-opacity="1" /><path clip-path="url(#clip480)" d="M228.769 1329.72 L245.088 1329.72 L245.088 1333.66 L223.144 1333.66 L223.144 1329.72 Q225.806 1326.97 230.389 1322.34 Q234.996 1317.69 236.176 1316.35 Q238.422 1313.82 239.301 1312.09 Q240.204 1310.33 240.204 1308.64 Q240.204 1305.88 238.26 1304.15 Q236.338 1302.41 233.237 1302.41 Q231.037 1302.41 228.584 1303.17 Q226.153 1303.94 223.375 1305.49 L223.375 1300.77 Q226.2 1299.63 228.653 1299.05 Q231.107 1298.47 233.144 1298.47 Q238.514 1298.47 241.709 1301.16 Q244.903 1303.85 244.903 1308.34 Q244.903 1310.47 244.093 1312.39 Q243.306 1314.28 241.199 1316.88 Q240.621 1317.55 237.519 1320.77 Q234.417 1323.96 228.769 1329.72 Z" fill="#000000" fill-rule="nonzero" fill-opacity="1" /><path clip-path="url(#clip480)" d="M184.603 1236.28 L214.278 1236.28 L214.278 1240.22 L184.603 1240.22 L184.603 1236.28 Z" fill="#000000" fill-rule="nonzero" fill-opacity="1" /><path clip-path="url(#clip480)" d="M225.181 1249.17 L232.82 1249.17 L232.82 1222.81 L224.51 1224.48 L224.51 1220.22 L232.774 1218.55 L237.449 1218.55 L237.449 1249.17 L245.088 1249.17 L245.088 1253.11 L225.181 1253.11 L225.181 1249.17 Z" fill="#000000" fill-rule="nonzero" fill-opacity="1" /><path clip-path="url(#clip480)" d="M233.144 1141.08 Q229.533 1141.08 227.704 1144.64 Q225.899 1148.18 225.899 1155.31 Q225.899 1162.42 227.704 1165.99 Q229.533 1169.53 233.144 1169.53 Q236.778 1169.53 238.584 1165.99 Q240.412 1162.42 240.412 1155.31 Q240.412 1148.18 238.584 1144.64 Q236.778 1141.08 233.144 1141.08 M233.144 1137.37 Q238.954 1137.37 242.01 1141.98 Q245.088 1146.56 245.088 1155.31 Q245.088 1164.04 242.01 1168.65 Q238.954 1173.23 233.144 1173.23 Q227.334 1173.23 224.255 1168.65 Q221.2 1164.04 221.2 1155.31 Q221.2 1146.56 224.255 1141.98 Q227.334 1137.37 233.144 1137.37 Z" fill="#000000" fill-rule="nonzero" fill-opacity="1" /><path clip-path="url(#clip480)" d="M225.181 1088.07 L232.82 1088.07 L232.82 1061.71 L224.51 1063.38 L224.51 1059.12 L232.774 1057.45 L237.449 1057.45 L237.449 1088.07 L245.088 1088.07 L245.088 1092.01 L225.181 1092.01 L225.181 1088.07 Z" fill="#000000" fill-rule="nonzero" fill-opacity="1" /><path clip-path="url(#clip480)" d="M228.769 1007.52 L245.088 1007.52 L245.088 1011.46 L223.144 1011.46 L223.144 1007.52 Q225.806 1004.77 230.389 1000.14 Q234.996 995.487 236.176 994.145 Q238.422 991.622 239.301 989.886 Q240.204 988.126 240.204 986.436 Q240.204 983.682 238.26 981.946 Q236.338 980.21 233.237 980.21 Q231.037 980.21 228.584 980.974 Q226.153 981.737 223.375 983.288 L223.375 978.566 Q226.2 977.432 228.653 976.853 Q231.107 976.275 233.144 976.275 Q238.514 976.275 241.709 978.96 Q244.903 981.645 244.903 986.136 Q244.903 988.265 244.093 990.186 Q243.306 992.085 241.199 994.677 Q240.621 995.348 237.519 998.566 Q234.417 1001.76 228.769 1007.52 Z" fill="#000000" fill-rule="nonzero" fill-opacity="1" /><path clip-path="url(#clip480)" d="M237.959 912.275 Q241.315 912.993 243.19 915.261 Q245.088 917.53 245.088 920.863 Q245.088 925.979 241.57 928.78 Q238.051 931.581 231.57 931.581 Q229.394 931.581 227.079 931.141 Q224.787 930.724 222.334 929.868 L222.334 925.354 Q224.278 926.488 226.593 927.067 Q228.908 927.646 231.431 927.646 Q235.829 927.646 238.121 925.909 Q240.436 924.173 240.436 920.863 Q240.436 917.808 238.283 916.095 Q236.153 914.359 232.334 914.359 L228.306 914.359 L228.306 910.516 L232.519 910.516 Q235.968 910.516 237.797 909.15 Q239.625 907.761 239.625 905.169 Q239.625 902.507 237.727 901.095 Q235.852 899.66 232.334 899.66 Q230.412 899.66 228.213 900.076 Q226.014 900.493 223.375 901.373 L223.375 897.206 Q226.037 896.465 228.352 896.095 Q230.69 895.724 232.75 895.724 Q238.074 895.724 241.176 898.155 Q244.278 900.562 244.278 904.683 Q244.278 907.553 242.635 909.544 Q240.991 911.511 237.959 912.275 Z" fill="#000000" fill-rule="nonzero" fill-opacity="1" /><polyline clip-path="url(#clip483)" style="stroke:#009af9; stroke-linecap:round; stroke-linejoin:round; stroke-width:8; stroke-opacity:1; fill:none" points="281.088,917.366 291.447,915.587 301.805,913.048 312.163,906.996 322.522,1289.55 332.88,1179.98 343.238,1174.11 353.597,1171.6 363.955,1169.82 374.313,1168.12 384.672,1165.94 395.03,1161.74 405.388,1136.67 415.747,930.773 426.105,921.129 436.463,918.065 446.822,916.151 457.18,914.471 467.538,912.521 477.897,909.312 488.255,1404.53 498.613,1195.06 508.972,1174.67 519.33,1170.7 529.688,1168.57 540.047,1166.87 550.405,1165.06 560.763,1162.43 571.122,1155.94 581.48,1004.08 591.838,922.841 602.197,917.333 612.555,914.883 622.913,913.118 633.272,911.407 643.63,909.208 653.988,904.947 664.347,1384.92 674.705,1179.8 685.063,1170.36 695.422,1167.29 705.78,1165.32 716.139,1163.55 726.497,1161.39 736.855,1157.48 747.214,1138.5 757.572,928.129 767.93,916.633 778.289,913.353 788.647,911.398 799.005,909.771 809.364,908.036 819.722,905.601 830.08,1406.27 840.439,1328.62 850.797,1172.79 861.155,1166.19 871.514,1163.42 881.872,1161.37 892.23,1159.18 902.589,1155.74 912.947,1144.02 923.305,933.714 933.664,914.697 944.022,910.727 954.38,908.558 964.739,906.862 975.097,905.183 985.455,903.065 995.814,1405.36 1006.17,1387.66 1016.53,1174.21 1026.89,1162.73 1037.25,1159.14 1047.61,1156.85 1057.96,1155.06 1068.32,1153.62 1078.68,1152.55 1089.04,1151.9 1099.4,1151.73 1109.76,1152.06 1120.11,1152.82 1130.47,1153.91 1140.83,1155.15 1151.19,1156.38 1161.55,1157.44 1171.91,1158.24 1182.26,1158.75 1192.62,1158.99 1202.98,1159.02 1213.34,1158.89 1223.7,1158.66 1234.06,1158.4 1244.41,1158.16 1254.77,1157.99 1265.13,1157.92 1275.49,1158.01 1285.85,1158.27 1296.21,1158.69 1306.56,1159.25 1316.92,1159.88 1327.28,1160.51 1337.64,1161.05 1348,1161.45 1358.36,1161.68 1368.71,1161.75 1379.07,1161.66 1389.43,1161.47 1399.79,1161.23 1410.15,1160.97 1420.51,1160.76 1430.86,1160.64 1441.22,1160.7 1451.58,1160.98 1461.94,1161.53 1472.3,1162.38 1482.66,1163.47 1493.01,1164.71 1503.37,1165.94 1513.73,1166.99 1524.09,1167.69 1534.45,1167.94 1544.81,1167.7 1555.16,1166.99 1565.52,1165.86 1575.88,1164.36 1586.24,1162.51 1596.6,1160.11 1606.96,1156.12 1617.31,1139.91 1627.67,925.672 1638.03,913.494 1648.39,910.118 1658.75,908.11 1669.11,906.452 1679.46,904.721 1689.82,902.412 1700.18,1403.95 1710.54,1372.31 1720.9,1172.09 1731.26,1163.24 1741.61,1160.12 1751.97,1158 1762.33,1155.91 1772.69,1152.9 1783.05,1144.64 1793.41,947.33 1803.76,912.096 1814.12,907.502 1824.48,905.238 1834.84,903.546 1845.2,1408.01 1855.56,1405.95 1865.91,1402.25 1876.27,1385.92 1886.63,1174.29 1896.99,1161.35 1907.35,1157.9 1917.71,1155.85 1928.06,1154.08 1938.42,1152.03 1948.78,1148.6 1959.14,1135.83 1969.5,924.124 1979.86,907.666 1990.21,903.955 2000.57,1407.99 2010.93,1406.3 2021.29,1404.49 2031.65,1401.83 2042.01,1395.11 2052.36,1232.83 2062.72,1162.09 2073.08,1156.73 2083.44,1154.31 2093.8,1152.55 2104.16,1150.82 2114.51,1148.55 2124.87,1143.96 2135.23,1108.84 2145.59,911.874 2155.95,903.592 2166.31,1406.81 2176.66,1404.94 2187.02,1403.26 2197.38,1401.26 2207.74,1397.83 2218.1,1384.7 2228.46,1172.96 2238.81,1157 2249.17,1153.33 2259.53,1151.28 2269.89,1149.59 2280.25,1147.77 2290.61,1145.03 2300.96,1137.79 2311.32,957.922 2321.68,905.063 2332.04,1406.14 2342.4,1403.79 2352.76,1402.05 "/>
<path clip-path="url(#clip480)" d="M1942.48 1199 L2283.7 1199 L2283.7 1095.32 L1942.48 1095.32  Z" fill="#ffffff" fill-rule="evenodd" fill-opacity="1"/>
<polyline clip-path="url(#clip480)" style="stroke:#000000; stroke-linecap:round; stroke-linejoin:round; stroke-width:4; stroke-opacity:1; fill:none" points="1942.48,1199 2283.7,1199 2283.7,1095.32 1942.48,1095.32 1942.48,1199 "/>
<polyline clip-path="url(#clip480)" style="stroke:#009af9; stroke-linecap:round; stroke-linejoin:round; stroke-width:8; stroke-opacity:1; fill:none" points="1965.5,1147.16 2103.61,1147.16 "/>
<path clip-path="url(#clip480)" d="M2159.83 1159.76 L2159.83 1164.44 L2126.63 1164.44 L2148.69 1129.88 L2154.29 1129.88 L2135.29 1159.76 L2159.83 1159.76 Z" fill="#000000" fill-rule="nonzero" fill-opacity="1" /><path clip-path="url(#clip480)" d="M2169.73 1129.88 L2176.7 1129.88 L2185.52 1153.39 L2194.39 1129.88 L2201.35 1129.88 L2201.35 1164.44 L2196.79 1164.44 L2196.79 1134.09 L2187.88 1157.79 L2183.18 1157.79 L2174.27 1134.09 L2174.27 1164.44 L2169.73 1164.44 L2169.73 1129.88 Z" fill="#000000" fill-rule="nonzero" fill-opacity="1" /><path clip-path="url(#clip480)" d="M2232 1138.51 L2222.63 1151.13 L2232.49 1164.44 L2227.46 1164.44 L2219.92 1154.25 L2212.37 1164.44 L2207.35 1164.44 L2217.42 1150.87 L2208.21 1138.51 L2213.23 1138.51 L2220.1 1147.75 L2226.98 1138.51 L2232 1138.51 Z" fill="#000000" fill-rule="nonzero" fill-opacity="1" /><path clip-path="url(#clip480)" d="M2249.29 1166.84 Q2247.49 1171.47 2245.77 1172.89 Q2244.06 1174.3 2241.19 1174.3 L2237.79 1174.3 L2237.79 1170.73 L2240.29 1170.73 Q2242.05 1170.73 2243.02 1169.9 Q2243.99 1169.07 2245.17 1165.96 L2245.94 1164.02 L2235.45 1138.51 L2239.96 1138.51 L2248.07 1158.79 L2256.17 1138.51 L2260.68 1138.51 L2249.29 1166.84 Z" fill="#000000" fill-rule="nonzero" fill-opacity="1" /><path clip-path="url(#clip480)" d="M281.088 80 L2352.76 80 L2352.76 0 L281.088 0  Z" fill="#ffffff" fill-rule="evenodd" fill-opacity="1"/>
<path clip-path="url(#clip480)" d="M232.275 16.0925 L232.275 25.2128 Q226.951 22.6665 222.229 21.4166 Q217.507 20.1666 213.109 20.1666 Q205.47 20.1666 201.303 23.1295 Q197.183 26.0925 197.183 31.5554 Q197.183 36.1387 199.914 38.4998 Q202.692 40.8146 210.377 42.2498 L216.025 43.4072 Q226.488 45.3979 231.442 50.4442 Q236.442 55.4441 236.442 63.87 Q236.442 73.9163 229.683 79.1014 Q222.97 84.2866 209.96 84.2866 Q205.053 84.2866 199.498 83.1755 Q193.988 82.0644 188.062 79.8885 L188.062 70.2589 Q193.757 73.4533 199.22 75.0737 Q204.683 76.694 209.96 76.694 Q217.97 76.694 222.321 73.5459 Q226.673 70.3978 226.673 64.5645 Q226.673 59.4719 223.525 56.6015 Q220.423 53.7312 213.294 52.296 L207.599 51.1849 Q197.136 49.1016 192.461 44.6572 Q187.785 40.2127 187.785 32.2961 Q187.785 23.1295 194.22 17.8518 Q200.701 12.574 212.044 12.574 Q216.905 12.574 221.951 13.4536 Q226.997 14.3333 232.275 16.0925 Z" fill="#000000" fill-rule="nonzero" fill-opacity="1" /><path clip-path="url(#clip480)" d="M250.655 10.9073 L259.173 10.9073 L259.173 82.944 L250.655 82.944 L250.655 10.9073 Z" fill="#000000" fill-rule="nonzero" fill-opacity="1" /><path clip-path="url(#clip480)" d="M276.997 31.0924 L285.516 31.0924 L285.516 82.944 L276.997 82.944 L276.997 31.0924 M276.997 10.9073 L285.516 10.9073 L285.516 21.6943 L276.997 21.6943 L276.997 10.9073 Z" fill="#000000" fill-rule="nonzero" fill-opacity="1" /><path clip-path="url(#clip480)" d="M340.654 33.0832 L340.654 41.0461 Q337.043 39.0553 333.386 38.0831 Q329.775 37.0646 326.071 37.0646 Q317.784 37.0646 313.201 42.3424 Q308.617 47.5738 308.617 57.0645 Q308.617 66.5552 313.201 71.8329 Q317.784 77.0644 326.071 77.0644 Q329.775 77.0644 333.386 76.0922 Q337.043 75.0737 340.654 73.0829 L340.654 80.9533 Q337.089 82.6199 333.247 83.4533 Q329.451 84.2866 325.145 84.2866 Q313.432 84.2866 306.534 76.9255 Q299.636 69.5644 299.636 57.0645 Q299.636 44.3794 306.58 37.1109 Q313.571 29.8424 325.701 29.8424 Q329.636 29.8424 333.386 30.6758 Q337.136 31.4628 340.654 33.0832 Z" fill="#000000" fill-rule="nonzero" fill-opacity="1" /><path clip-path="url(#clip480)" d="M399.821 54.8886 L399.821 59.0552 L360.654 59.0552 Q361.21 67.8515 365.932 72.4811 Q370.7 77.0644 379.173 77.0644 Q384.08 77.0644 388.663 75.8607 Q393.293 74.657 397.83 72.2496 L397.83 80.3051 Q393.247 82.2496 388.432 83.2681 Q383.617 84.2866 378.663 84.2866 Q366.256 84.2866 358.987 77.0644 Q351.765 69.8422 351.765 57.5275 Q351.765 44.7961 358.617 37.3424 Q365.515 29.8424 377.182 29.8424 Q387.645 29.8424 393.709 36.6017 Q399.821 43.3146 399.821 54.8886 M391.302 52.3886 Q391.209 45.3979 387.367 41.2313 Q383.571 37.0646 377.274 37.0646 Q370.145 37.0646 365.839 41.0924 Q361.58 45.1201 360.932 52.4349 L391.302 52.3886 Z" fill="#000000" fill-rule="nonzero" fill-opacity="1" /><path clip-path="url(#clip480)" d="M452.181 75.1663 L452.181 102.666 L443.617 102.666 L443.617 31.0924 L452.181 31.0924 L452.181 38.9628 Q454.867 34.3331 458.941 32.1109 Q463.061 29.8424 468.755 29.8424 Q478.2 29.8424 484.079 37.3424 Q490.005 44.8424 490.005 57.0645 Q490.005 69.2867 484.079 76.7866 Q478.2 84.2866 468.755 84.2866 Q463.061 84.2866 458.941 82.0644 Q454.867 79.7959 452.181 75.1663 M481.163 57.0645 Q481.163 47.6664 477.274 42.3424 Q473.431 36.972 466.672 36.972 Q459.913 36.972 456.024 42.3424 Q452.181 47.6664 452.181 57.0645 Q452.181 66.4626 456.024 71.8329 Q459.913 77.157 466.672 77.157 Q473.431 77.157 477.274 71.8329 Q481.163 66.4626 481.163 57.0645 Z" fill="#000000" fill-rule="nonzero" fill-opacity="1" /><path clip-path="url(#clip480)" d="M534.172 39.0553 Q532.736 38.222 531.024 37.8516 Q529.357 37.435 527.32 37.435 Q520.098 37.435 516.209 42.1572 Q512.366 46.8331 512.366 55.6293 L512.366 82.944 L503.801 82.944 L503.801 31.0924 L512.366 31.0924 L512.366 39.1479 Q515.051 34.4257 519.357 32.1572 Q523.662 29.8424 529.82 29.8424 Q530.699 29.8424 531.764 29.9813 Q532.829 30.0739 534.125 30.3054 L534.172 39.0553 Z" fill="#000000" fill-rule="nonzero" fill-opacity="1" /><path clip-path="url(#clip480)" d="M561.116 37.0646 Q554.264 37.0646 550.283 42.435 Q546.301 47.759 546.301 57.0645 Q546.301 66.37 550.236 71.7404 Q554.218 77.0644 561.116 77.0644 Q567.921 77.0644 571.903 71.6941 Q575.884 66.3237 575.884 57.0645 Q575.884 47.8516 571.903 42.4813 Q567.921 37.0646 561.116 37.0646 M561.116 29.8424 Q572.227 29.8424 578.57 37.0646 Q584.912 44.2868 584.912 57.0645 Q584.912 69.7959 578.57 77.0644 Q572.227 84.2866 561.116 84.2866 Q549.959 84.2866 543.616 77.0644 Q537.32 69.7959 537.32 57.0645 Q537.32 44.2868 543.616 37.0646 Q549.959 29.8424 561.116 29.8424 Z" fill="#000000" fill-rule="nonzero" fill-opacity="1" /><path clip-path="url(#clip480)" d="M625.282 10.9073 L625.282 17.9906 L617.134 17.9906 Q612.551 17.9906 610.745 19.8425 Q608.986 21.6943 608.986 26.5091 L608.986 31.0924 L623.014 31.0924 L623.014 37.7128 L608.986 37.7128 L608.986 82.944 L600.421 82.944 L600.421 37.7128 L592.273 37.7128 L592.273 31.0924 L600.421 31.0924 L600.421 27.4813 Q600.421 18.824 604.449 14.8888 Q608.477 10.9073 617.227 10.9073 L625.282 10.9073 Z" fill="#000000" fill-rule="nonzero" fill-opacity="1" /><path clip-path="url(#clip480)" d="M632.412 31.0924 L640.93 31.0924 L640.93 82.944 L632.412 82.944 L632.412 31.0924 M632.412 10.9073 L640.93 10.9073 L640.93 21.6943 L632.412 21.6943 L632.412 10.9073 Z" fill="#000000" fill-rule="nonzero" fill-opacity="1" /><path clip-path="url(#clip480)" d="M658.754 10.9073 L667.273 10.9073 L667.273 82.944 L658.754 82.944 L658.754 10.9073 Z" fill="#000000" fill-rule="nonzero" fill-opacity="1" /><path clip-path="url(#clip480)" d="M729.448 54.8886 L729.448 59.0552 L690.282 59.0552 Q690.837 67.8515 695.56 72.4811 Q700.328 77.0644 708.8 77.0644 Q713.708 77.0644 718.291 75.8607 Q722.921 74.657 727.458 72.2496 L727.458 80.3051 Q722.874 82.2496 718.06 83.2681 Q713.245 84.2866 708.291 84.2866 Q695.884 84.2866 688.615 77.0644 Q681.393 69.8422 681.393 57.5275 Q681.393 44.7961 688.245 37.3424 Q695.143 29.8424 706.81 29.8424 Q717.273 29.8424 723.337 36.6017 Q729.448 43.3146 729.448 54.8886 M720.93 52.3886 Q720.837 45.3979 716.995 41.2313 Q713.198 37.0646 706.902 37.0646 Q699.773 37.0646 695.467 41.0924 Q691.208 45.1201 690.56 52.4349 L720.93 52.3886 Z" fill="#000000" fill-rule="nonzero" fill-opacity="1" /><path clip-path="url(#clip480)" d="M799.818 10.9073 L799.818 17.9906 L791.67 17.9906 Q787.087 17.9906 785.281 19.8425 Q783.522 21.6943 783.522 26.5091 L783.522 31.0924 L797.55 31.0924 L797.55 37.7128 L783.522 37.7128 L783.522 82.944 L774.957 82.944 L774.957 37.7128 L766.809 37.7128 L766.809 31.0924 L774.957 31.0924 L774.957 27.4813 Q774.957 18.824 778.985 14.8888 Q783.013 10.9073 791.763 10.9073 L799.818 10.9073 Z" fill="#000000" fill-rule="nonzero" fill-opacity="1" /><path clip-path="url(#clip480)" d="M827.04 37.0646 Q820.189 37.0646 816.207 42.435 Q812.226 47.759 812.226 57.0645 Q812.226 66.37 816.161 71.7404 Q820.142 77.0644 827.04 77.0644 Q833.846 77.0644 837.827 71.6941 Q841.809 66.3237 841.809 57.0645 Q841.809 47.8516 837.827 42.4813 Q833.846 37.0646 827.04 37.0646 M827.04 29.8424 Q838.152 29.8424 844.494 37.0646 Q850.837 44.2868 850.837 57.0645 Q850.837 69.7959 844.494 77.0644 Q838.152 84.2866 827.04 84.2866 Q815.883 84.2866 809.541 77.0644 Q803.244 69.7959 803.244 57.0645 Q803.244 44.2868 809.541 37.0646 Q815.883 29.8424 827.04 29.8424 Z" fill="#000000" fill-rule="nonzero" fill-opacity="1" /><path clip-path="url(#clip480)" d="M895.003 39.0553 Q893.568 38.222 891.855 37.8516 Q890.188 37.435 888.151 37.435 Q880.929 37.435 877.04 42.1572 Q873.198 46.8331 873.198 55.6293 L873.198 82.944 L864.633 82.944 L864.633 31.0924 L873.198 31.0924 L873.198 39.1479 Q875.883 34.4257 880.188 32.1572 Q884.494 29.8424 890.651 29.8424 Q891.531 29.8424 892.596 29.9813 Q893.66 30.0739 894.957 30.3054 L895.003 39.0553 Z" fill="#000000" fill-rule="nonzero" fill-opacity="1" /><path clip-path="url(#clip480)" d="M963.614 45.6757 Q970.327 47.1109 974.077 51.6479 Q977.873 56.1849 977.873 62.8515 Q977.873 73.0829 970.836 78.6848 Q963.799 84.2866 950.836 84.2866 Q946.484 84.2866 941.855 83.407 Q937.271 82.5736 932.364 80.8607 L932.364 71.8329 Q936.253 74.1015 940.882 75.2589 Q945.512 76.4163 950.558 76.4163 Q959.355 76.4163 963.938 72.9441 Q968.567 69.4718 968.567 62.8515 Q968.567 56.7404 964.262 53.3145 Q960.003 49.8423 952.364 49.8423 L944.308 49.8423 L944.308 42.1572 L952.734 42.1572 Q959.632 42.1572 963.29 39.4257 Q966.947 36.648 966.947 31.4628 Q966.947 26.1387 963.151 23.3147 Q959.401 20.4443 952.364 20.4443 Q948.521 20.4443 944.123 21.2777 Q939.725 22.111 934.447 23.8702 L934.447 15.537 Q939.771 14.0555 944.401 13.3147 Q949.077 12.574 953.197 12.574 Q963.845 12.574 970.049 17.4351 Q976.253 22.2499 976.253 30.4906 Q976.253 36.2313 972.966 40.2127 Q969.679 44.1479 963.614 45.6757 Z" fill="#000000" fill-rule="nonzero" fill-opacity="1" /><path clip-path="url(#clip480)" d="M990.095 53.1756 L1015.05 53.1756 L1015.05 60.7682 L990.095 60.7682 L990.095 53.1756 Z" fill="#000000" fill-rule="nonzero" fill-opacity="1" /><path clip-path="url(#clip480)" d="M1028.61 10.9073 L1037.13 10.9073 L1037.13 82.944 L1028.61 82.944 L1028.61 10.9073 Z" fill="#000000" fill-rule="nonzero" fill-opacity="1" /><path clip-path="url(#clip480)" d="M1075.05 37.0646 Q1068.2 37.0646 1064.22 42.435 Q1060.23 47.759 1060.23 57.0645 Q1060.23 66.37 1064.17 71.7404 Q1068.15 77.0644 1075.05 77.0644 Q1081.85 77.0644 1085.84 71.6941 Q1089.82 66.3237 1089.82 57.0645 Q1089.82 47.8516 1085.84 42.4813 Q1081.85 37.0646 1075.05 37.0646 M1075.05 29.8424 Q1086.16 29.8424 1092.5 37.0646 Q1098.84 44.2868 1098.84 57.0645 Q1098.84 69.7959 1092.5 77.0644 Q1086.16 84.2866 1075.05 84.2866 Q1063.89 84.2866 1057.55 77.0644 Q1051.25 69.7959 1051.25 57.0645 Q1051.25 44.2868 1057.55 37.0646 Q1063.89 29.8424 1075.05 29.8424 Z" fill="#000000" fill-rule="nonzero" fill-opacity="1" /><path clip-path="url(#clip480)" d="M1150.19 57.0645 Q1150.19 47.6664 1146.3 42.3424 Q1142.46 36.972 1135.7 36.972 Q1128.94 36.972 1125.05 42.3424 Q1121.21 47.6664 1121.21 57.0645 Q1121.21 66.4626 1125.05 71.8329 Q1128.94 77.157 1135.7 77.157 Q1142.46 77.157 1146.3 71.8329 Q1150.19 66.4626 1150.19 57.0645 M1121.21 38.9628 Q1123.89 34.3331 1127.96 32.1109 Q1132.09 29.8424 1137.78 29.8424 Q1147.22 29.8424 1153.1 37.3424 Q1159.03 44.8424 1159.03 57.0645 Q1159.03 69.2867 1153.1 76.7866 Q1147.22 84.2866 1137.78 84.2866 Q1132.09 84.2866 1127.96 82.0644 Q1123.89 79.7959 1121.21 75.1663 L1121.21 82.944 L1112.64 82.944 L1112.64 10.9073 L1121.21 10.9073 L1121.21 38.9628 Z" fill="#000000" fill-rule="nonzero" fill-opacity="1" /><path clip-path="url(#clip480)" d="M1217.5 54.8886 L1217.5 59.0552 L1178.33 59.0552 Q1178.89 67.8515 1183.61 72.4811 Q1188.38 77.0644 1196.85 77.0644 Q1201.76 77.0644 1206.34 75.8607 Q1210.97 74.657 1215.51 72.2496 L1215.51 80.3051 Q1210.93 82.2496 1206.11 83.2681 Q1201.3 84.2866 1196.34 84.2866 Q1183.94 84.2866 1176.67 77.0644 Q1169.45 69.8422 1169.45 57.5275 Q1169.45 44.7961 1176.3 37.3424 Q1183.2 29.8424 1194.86 29.8424 Q1205.33 29.8424 1211.39 36.6017 Q1217.5 43.3146 1217.5 54.8886 M1208.98 52.3886 Q1208.89 45.3979 1205.05 41.2313 Q1201.25 37.0646 1194.96 37.0646 Q1187.83 37.0646 1183.52 41.0924 Q1179.26 45.1201 1178.61 52.4349 L1208.98 52.3886 Z" fill="#000000" fill-rule="nonzero" fill-opacity="1" /><path clip-path="url(#clip480)" d="M1294.68 32.6202 L1294.68 40.6757 Q1291.07 38.8239 1287.18 37.8979 Q1283.29 36.972 1279.12 36.972 Q1272.78 36.972 1269.58 38.9165 Q1266.44 40.8609 1266.44 44.7498 Q1266.44 47.7127 1268.7 49.4257 Q1270.97 51.0923 1277.83 52.6201 L1280.74 53.2682 Q1289.82 55.2127 1293.61 58.7775 Q1297.45 62.296 1297.45 68.6385 Q1297.45 75.8607 1291.71 80.0736 Q1286.02 84.2866 1276.02 84.2866 Q1271.85 84.2866 1267.32 83.4533 Q1262.83 82.6662 1257.83 81.0459 L1257.83 72.2496 Q1262.55 74.7033 1267.13 75.9533 Q1271.71 77.157 1276.2 77.157 Q1282.22 77.157 1285.46 75.12 Q1288.7 73.0366 1288.7 69.2867 Q1288.7 65.8145 1286.34 63.9626 Q1284.03 62.1108 1276.11 60.3978 L1273.15 59.7034 Q1265.23 58.0367 1261.71 54.6108 Q1258.2 51.1386 1258.2 45.1201 Q1258.2 37.8054 1263.38 33.8239 Q1268.57 29.8424 1278.1 29.8424 Q1282.83 29.8424 1286.99 30.5369 Q1291.16 31.2313 1294.68 32.6202 Z" fill="#000000" fill-rule="nonzero" fill-opacity="1" /><path clip-path="url(#clip480)" d="M1311.02 31.0924 L1319.54 31.0924 L1319.54 82.944 L1311.02 82.944 L1311.02 31.0924 M1311.02 10.9073 L1319.54 10.9073 L1319.54 21.6943 L1311.02 21.6943 L1311.02 10.9073 Z" fill="#000000" fill-rule="nonzero" fill-opacity="1" /><path clip-path="url(#clip480)" d="M1380.46 51.6479 L1380.46 82.944 L1371.94 82.944 L1371.94 51.9256 Q1371.94 44.5646 1369.07 40.9072 Q1366.2 37.2498 1360.46 37.2498 Q1353.57 37.2498 1349.58 41.6479 Q1345.6 46.046 1345.6 53.6386 L1345.6 82.944 L1337.04 82.944 L1337.04 31.0924 L1345.6 31.0924 L1345.6 39.1479 Q1348.66 34.472 1352.78 32.1572 Q1356.95 29.8424 1362.36 29.8424 Q1371.3 29.8424 1375.88 35.398 Q1380.46 40.9072 1380.46 51.6479 Z" fill="#000000" fill-rule="nonzero" fill-opacity="1" /><path clip-path="url(#clip480)" d="M1434.77 33.0832 L1434.77 41.0461 Q1431.16 39.0553 1427.5 38.0831 Q1423.89 37.0646 1420.19 37.0646 Q1411.9 37.0646 1407.32 42.3424 Q1402.73 47.5738 1402.73 57.0645 Q1402.73 66.5552 1407.32 71.8329 Q1411.9 77.0644 1420.19 77.0644 Q1423.89 77.0644 1427.5 76.0922 Q1431.16 75.0737 1434.77 73.0829 L1434.77 80.9533 Q1431.2 82.6199 1427.36 83.4533 Q1423.57 84.2866 1419.26 84.2866 Q1407.55 84.2866 1400.65 76.9255 Q1393.75 69.5644 1393.75 57.0645 Q1393.75 44.3794 1400.69 37.1109 Q1407.69 29.8424 1419.82 29.8424 Q1423.75 29.8424 1427.5 30.6758 Q1431.25 31.4628 1434.77 33.0832 Z" fill="#000000" fill-rule="nonzero" fill-opacity="1" /><path clip-path="url(#clip480)" d="M1451.76 71.1848 L1461.53 71.1848 L1461.53 79.1477 L1453.94 93.9625 L1447.96 93.9625 L1451.76 79.1477 L1451.76 71.1848 Z" fill="#000000" fill-rule="nonzero" fill-opacity="1" /><path clip-path="url(#clip480)" d="M1540.09 58.8238 L1538.06 48.1294 Q1535.97 37.1572 1527.73 37.1572 Q1521.53 37.1572 1518.7 42.2498 Q1515.14 48.6386 1515.14 57.0645 Q1515.14 67.2496 1518.61 72.1107 Q1522.13 77.0644 1527.73 77.0644 Q1533.93 77.0644 1537.27 67.2033 L1540.09 58.8238 M1544.86 44.6572 L1549.44 31.0924 L1557.04 31.0924 L1547.55 59.1941 L1549.4 69.333 Q1549.81 71.6015 1551.43 73.4996 Q1553.33 75.7218 1554.81 75.7218 L1558.89 75.7218 L1558.89 82.944 L1553.8 82.944 Q1549.44 82.944 1545.56 79.0551 Q1543.66 77.1107 1542.87 73.0366 Q1540.74 78.1755 1536.39 82.2033 Q1534.35 84.1014 1527.73 84.1014 Q1516.85 84.1014 1511.57 77.0644 Q1506.16 69.7959 1506.16 57.0645 Q1506.16 43.4535 1512.04 37.0646 Q1518.56 29.935 1527.73 29.935 Q1542.13 29.935 1544.86 44.6572 Z" fill="#000000" fill-rule="nonzero" fill-opacity="1" /><path clip-path="url(#clip480)" d="M1603.61 39.8887 L1662.96 39.8887 L1662.96 47.6664 L1603.61 47.6664 L1603.61 39.8887 M1603.61 58.7775 L1662.96 58.7775 L1662.96 66.6478 L1603.61 66.6478 L1603.61 58.7775 Z" fill="#000000" fill-rule="nonzero" fill-opacity="1" /><path clip-path="url(#clip480)" d="M1734.44 44.6572 Q1728.15 44.6572 1724.44 48.9627 Q1720.79 53.2682 1720.79 60.7682 Q1720.79 68.2219 1724.44 72.5737 Q1728.15 76.8792 1734.44 76.8792 Q1740.74 76.8792 1744.4 72.5737 Q1748.1 68.2219 1748.1 60.7682 Q1748.1 53.2682 1744.4 48.9627 Q1740.74 44.6572 1734.44 44.6572 M1753.01 15.3518 L1753.01 23.8702 Q1749.49 22.2036 1745.88 21.324 Q1742.31 20.4443 1738.79 20.4443 Q1729.54 20.4443 1724.63 26.6943 Q1719.77 32.9443 1719.07 45.5831 Q1721.8 41.5553 1725.92 39.4257 Q1730.04 37.2498 1735 37.2498 Q1745.42 37.2498 1751.43 43.5924 Q1757.5 49.8886 1757.5 60.7682 Q1757.5 71.4163 1751.2 77.8514 Q1744.91 84.2866 1734.44 84.2866 Q1722.45 84.2866 1716.11 75.12 Q1709.77 65.9071 1709.77 48.4534 Q1709.77 32.0646 1717.54 22.3425 Q1725.32 12.574 1738.42 12.574 Q1741.94 12.574 1745.51 13.2684 Q1749.12 13.9629 1753.01 15.3518 Z" fill="#000000" fill-rule="nonzero" fill-opacity="1" /><path clip-path="url(#clip480)" d="M1793.61 19.9814 Q1786.39 19.9814 1782.73 27.111 Q1779.12 34.1943 1779.12 48.4534 Q1779.12 62.6663 1782.73 69.7959 Q1786.39 76.8792 1793.61 76.8792 Q1800.88 76.8792 1804.49 69.7959 Q1808.15 62.6663 1808.15 48.4534 Q1808.15 34.1943 1804.49 27.111 Q1800.88 19.9814 1793.61 19.9814 M1793.61 12.574 Q1805.23 12.574 1811.34 21.7869 Q1817.5 30.9535 1817.5 48.4534 Q1817.5 65.9071 1811.34 75.12 Q1805.23 84.2866 1793.61 84.2866 Q1781.99 84.2866 1775.83 75.12 Q1769.72 65.9071 1769.72 48.4534 Q1769.72 30.9535 1775.83 21.7869 Q1781.99 12.574 1793.61 12.574 Z" fill="#000000" fill-rule="nonzero" fill-opacity="1" /><path clip-path="url(#clip480)" d="M1847.5 18.5462 Q1843.79 18.5462 1841.25 21.1388 Q1838.7 23.6851 1838.7 27.3887 Q1838.7 31.0461 1841.25 33.5924 Q1843.79 36.0924 1847.5 36.0924 Q1851.2 36.0924 1853.75 33.5924 Q1856.29 31.0461 1856.29 27.3887 Q1856.29 23.7314 1853.7 21.1388 Q1851.16 18.5462 1847.5 18.5462 M1847.5 12.574 Q1850.46 12.574 1853.19 13.7314 Q1855.92 14.8425 1857.91 16.9721 Q1860.04 19.0555 1861.11 21.6943 Q1862.17 24.3332 1862.17 27.3887 Q1862.17 33.4998 1857.87 37.7591 Q1853.61 41.972 1847.41 41.972 Q1841.16 41.972 1836.99 37.8054 Q1832.82 33.6387 1832.82 27.3887 Q1832.82 21.1851 1837.08 16.8795 Q1841.34 12.574 1847.5 12.574 Z" fill="#000000" fill-rule="nonzero" fill-opacity="1" /><path clip-path="url(#clip480)" d="M1882.31 71.1848 L1892.08 71.1848 L1892.08 79.1477 L1884.49 93.9625 L1878.52 93.9625 L1882.31 79.1477 L1882.31 71.1848 Z" fill="#000000" fill-rule="nonzero" fill-opacity="1" /><path clip-path="url(#clip480)" d="M1935.46 31.0924 L1943.98 31.0924 L1954.63 71.5552 L1965.23 31.0924 L1975.28 31.0924 L1985.92 71.5552 L1996.52 31.0924 L2005.04 31.0924 L1991.48 82.944 L1981.43 82.944 L1970.28 40.4442 L1959.07 82.944 L1949.03 82.944 L1935.46 31.0924 Z" fill="#000000" fill-rule="nonzero" fill-opacity="1" /><path clip-path="url(#clip480)" d="M2019.07 39.8887 L2078.42 39.8887 L2078.42 47.6664 L2019.07 47.6664 L2019.07 39.8887 M2019.07 58.7775 L2078.42 58.7775 L2078.42 66.6478 L2019.07 66.6478 L2019.07 58.7775 Z" fill="#000000" fill-rule="nonzero" fill-opacity="1" /><path clip-path="url(#clip480)" d="M2100.23 75.0737 L2115.51 75.0737 L2115.51 22.3425 L2098.89 25.6758 L2098.89 17.1573 L2115.41 13.824 L2124.77 13.824 L2124.77 75.0737 L2140.04 75.0737 L2140.04 82.944 L2100.23 82.944 L2100.23 75.0737 Z" fill="#000000" fill-rule="nonzero" fill-opacity="1" /><path clip-path="url(#clip480)" d="M2158.93 71.1848 L2168.7 71.1848 L2168.7 82.944 L2158.93 82.944 L2158.93 71.1848 Z" fill="#000000" fill-rule="nonzero" fill-opacity="1" /><path clip-path="url(#clip480)" d="M2209.07 19.9814 Q2201.85 19.9814 2198.19 27.111 Q2194.58 34.1943 2194.58 48.4534 Q2194.58 62.6663 2198.19 69.7959 Q2201.85 76.8792 2209.07 76.8792 Q2216.34 76.8792 2219.95 69.7959 Q2223.61 62.6663 2223.61 48.4534 Q2223.61 34.1943 2219.95 27.111 Q2216.34 19.9814 2209.07 19.9814 M2209.07 12.574 Q2220.69 12.574 2226.8 21.7869 Q2232.96 30.9535 2232.96 48.4534 Q2232.96 65.9071 2226.8 75.12 Q2220.69 84.2866 2209.07 84.2866 Q2197.45 84.2866 2191.29 75.12 Q2185.18 65.9071 2185.18 48.4534 Q2185.18 30.9535 2191.29 21.7869 Q2197.45 12.574 2209.07 12.574 Z" fill="#000000" fill-rule="nonzero" fill-opacity="1" /><path clip-path="url(#clip480)" d="M2318.7 41.0461 Q2321.89 35.3054 2326.34 32.5739 Q2330.78 29.8424 2336.8 29.8424 Q2344.9 29.8424 2349.3 35.5368 Q2353.7 41.185 2353.7 51.6479 L2353.7 82.944 L2345.13 82.944 L2345.13 51.9256 Q2345.13 44.472 2342.5 40.8609 Q2339.86 37.2498 2334.44 37.2498 Q2327.82 37.2498 2323.98 41.6479 Q2320.13 46.046 2320.13 53.6386 L2320.13 82.944 L2311.57 82.944 L2311.57 51.9256 Q2311.57 44.4257 2308.93 40.8609 Q2306.29 37.2498 2300.78 37.2498 Q2294.25 37.2498 2290.41 41.6942 Q2286.57 46.0923 2286.57 53.6386 L2286.57 82.944 L2278 82.944 L2278 31.0924 L2286.57 31.0924 L2286.57 39.1479 Q2289.49 34.3794 2293.56 32.1109 Q2297.63 29.8424 2303.24 29.8424 Q2308.88 29.8424 2312.82 32.7128 Q2316.8 35.5831 2318.7 41.0461 Z" fill="#000000" fill-rule="nonzero" fill-opacity="1" /><path clip-path="url(#clip480)" d="M2411.06 41.0461 Q2414.25 35.3054 2418.7 32.5739 Q2423.14 29.8424 2429.16 29.8424 Q2437.26 29.8424 2441.66 35.5368 Q2446.06 41.185 2446.06 51.6479 L2446.06 82.944 L2437.49 82.944 L2437.49 51.9256 Q2437.49 44.472 2434.86 40.8609 Q2432.22 37.2498 2426.8 37.2498 Q2420.18 37.2498 2416.34 41.6479 Q2412.49 46.046 2412.49 53.6386 L2412.49 82.944 L2403.93 82.944 L2403.93 51.9256 Q2403.93 44.4257 2401.29 40.8609 Q2398.65 37.2498 2393.14 37.2498 Q2386.62 37.2498 2382.77 41.6942 Q2378.93 46.0923 2378.93 53.6386 L2378.93 82.944 L2370.37 82.944 L2370.37 31.0924 L2378.93 31.0924 L2378.93 39.1479 Q2381.85 34.3794 2385.92 32.1109 Q2390 29.8424 2395.6 29.8424 Q2401.25 29.8424 2405.18 32.7128 Q2409.16 35.5831 2411.06 41.0461 Z" fill="#000000" fill-rule="nonzero" fill-opacity="1" /></svg>
