<?xml version="1.0" encoding="utf-8"?>
<svg xmlns="http://www.w3.org/2000/svg" xmlns:xlink="http://www.w3.org/1999/xlink" width="600" height="400" viewBox="0 0 2400 1600">
<defs>
  <clipPath id="clip640">
    <rect x="0" y="0" width="2400" height="1600"/>
  </clipPath>
</defs>
<path clip-path="url(#clip640)" d="M0 1600 L2400 1600 L2400 0 L0 0  Z" fill="#ffffff" fill-rule="evenodd" fill-opacity="1"/>
<defs>
  <clipPath id="clip641">
    <rect x="281" y="0" width="2073" height="81"/>
  </clipPath>
</defs>
<path clip-path="url(#clip640)" d="M281.088 663.18 L2352.76 663.18 L2352.76 127.244 L281.088 127.244  Z" fill="#ffffff" fill-rule="evenodd" fill-opacity="1"/>
<defs>
  <clipPath id="clip642">
    <rect x="281" y="127" width="2073" height="537"/>
  </clipPath>
</defs>
<polyline clip-path="url(#clip642)" style="stroke:#000000; stroke-linecap:round; stroke-linejoin:round; stroke-width:2; stroke-opacity:0.1; fill:none" points="281.088,663.18 281.088,127.244 "/>
<polyline clip-path="url(#clip642)" style="stroke:#000000; stroke-linecap:round; stroke-linejoin:round; stroke-width:2; stroke-opacity:0.1; fill:none" points="1057.96,663.18 1057.96,127.244 "/>
<polyline clip-path="url(#clip642)" style="stroke:#000000; stroke-linecap:round; stroke-linejoin:round; stroke-width:2; stroke-opacity:0.1; fill:none" points="1316.92,663.18 1316.92,127.244 "/>
<polyline clip-path="url(#clip642)" style="stroke:#000000; stroke-linecap:round; stroke-linejoin:round; stroke-width:2; stroke-opacity:0.1; fill:none" points="1575.88,663.18 1575.88,127.244 "/>
<polyline clip-path="url(#clip642)" style="stroke:#000000; stroke-linecap:round; stroke-linejoin:round; stroke-width:2; stroke-opacity:0.1; fill:none" points="2352.76,663.18 2352.76,127.244 "/>
<polyline clip-path="url(#clip642)" style="stroke:#000000; stroke-linecap:round; stroke-linejoin:round; stroke-width:2; stroke-opacity:0.1; fill:none" points="281.088,573.857 2352.76,573.857 "/>
<polyline clip-path="url(#clip642)" style="stroke:#000000; stroke-linecap:round; stroke-linejoin:round; stroke-width:2; stroke-opacity:0.1; fill:none" points="281.088,350.551 2352.76,350.551 "/>
<polyline clip-path="url(#clip642)" style="stroke:#000000; stroke-linecap:round; stroke-linejoin:round; stroke-width:2; stroke-opacity:0.1; fill:none" points="281.088,187.079 2352.76,187.079 "/>
<polyline clip-path="url(#clip642)" style="stroke:#000000; stroke-linecap:round; stroke-linejoin:round; stroke-width:2; stroke-opacity:0.1; fill:none" points="281.088,127.244 2352.76,127.244 "/>
<polyline clip-path="url(#clip640)" style="stroke:#000000; stroke-linecap:round; stroke-linejoin:round; stroke-width:4; stroke-opacity:1; fill:none" points="281.088,663.18 2352.76,663.18 "/>
<polyline clip-path="url(#clip640)" style="stroke:#000000; stroke-linecap:round; stroke-linejoin:round; stroke-width:4; stroke-opacity:1; fill:none" points="281.088,663.18 281.088,644.282 "/>
<polyline clip-path="url(#clip640)" style="stroke:#000000; stroke-linecap:round; stroke-linejoin:round; stroke-width:4; stroke-opacity:1; fill:none" points="1057.96,663.18 1057.96,644.282 "/>
<polyline clip-path="url(#clip640)" style="stroke:#000000; stroke-linecap:round; stroke-linejoin:round; stroke-width:4; stroke-opacity:1; fill:none" points="1316.92,663.18 1316.92,644.282 "/>
<polyline clip-path="url(#clip640)" style="stroke:#000000; stroke-linecap:round; stroke-linejoin:round; stroke-width:4; stroke-opacity:1; fill:none" points="1575.88,663.18 1575.88,644.282 "/>
<polyline clip-path="url(#clip640)" style="stroke:#000000; stroke-linecap:round; stroke-linejoin:round; stroke-width:4; stroke-opacity:1; fill:none" points="2352.76,663.18 2352.76,644.282 "/>
<path clip-path="url(#clip640)" d="M212.535 708.751 L242.211 708.751 L242.211 712.686 L212.535 712.686 L212.535 708.751 Z" fill="#000000" fill-rule="nonzero" fill-opacity="1" /><path clip-path="url(#clip640)" d="M253.114 721.645 L260.753 721.645 L260.753 695.279 L252.443 696.946 L252.443 692.687 L260.706 691.02 L265.382 691.02 L265.382 721.645 L273.021 721.645 L273.021 725.58 L253.114 725.58 L253.114 721.645 Z" fill="#000000" fill-rule="nonzero" fill-opacity="1" /><path clip-path="url(#clip640)" d="M282.466 719.7 L287.35 719.7 L287.35 725.58 L282.466 725.58 L282.466 719.7 Z" fill="#000000" fill-rule="nonzero" fill-opacity="1" /><path clip-path="url(#clip640)" d="M307.535 694.099 Q303.924 694.099 302.095 697.663 Q300.29 701.205 300.29 708.335 Q300.29 715.441 302.095 719.006 Q303.924 722.547 307.535 722.547 Q311.169 722.547 312.975 719.006 Q314.803 715.441 314.803 708.335 Q314.803 701.205 312.975 697.663 Q311.169 694.099 307.535 694.099 M307.535 690.395 Q313.345 690.395 316.401 695.001 Q319.479 699.585 319.479 708.335 Q319.479 717.061 316.401 721.668 Q313.345 726.251 307.535 726.251 Q301.725 726.251 298.646 721.668 Q295.591 717.061 295.591 708.335 Q295.591 699.585 298.646 695.001 Q301.725 690.395 307.535 690.395 Z" fill="#000000" fill-rule="nonzero" fill-opacity="1" /><path clip-path="url(#clip640)" d="M337.697 694.099 Q334.086 694.099 332.257 697.663 Q330.451 701.205 330.451 708.335 Q330.451 715.441 332.257 719.006 Q334.086 722.547 337.697 722.547 Q341.331 722.547 343.137 719.006 Q344.965 715.441 344.965 708.335 Q344.965 701.205 343.137 697.663 Q341.331 694.099 337.697 694.099 M337.697 690.395 Q343.507 690.395 346.562 695.001 Q349.641 699.585 349.641 708.335 Q349.641 717.061 346.562 721.668 Q343.507 726.251 337.697 726.251 Q331.887 726.251 328.808 721.668 Q325.752 717.061 325.752 708.335 Q325.752 699.585 328.808 695.001 Q331.887 690.395 337.697 690.395 Z" fill="#000000" fill-rule="nonzero" fill-opacity="1" /><path clip-path="url(#clip640)" d="M989.908 708.751 L1019.58 708.751 L1019.58 712.686 L989.908 712.686 L989.908 708.751 Z" fill="#000000" fill-rule="nonzero" fill-opacity="1" /><path clip-path="url(#clip640)" d="M1039.68 694.099 Q1036.07 694.099 1034.24 697.663 Q1032.43 701.205 1032.43 708.335 Q1032.43 715.441 1034.24 719.006 Q1036.07 722.547 1039.68 722.547 Q1043.31 722.547 1045.12 719.006 Q1046.95 715.441 1046.95 708.335 Q1046.95 701.205 1045.12 697.663 Q1043.31 694.099 1039.68 694.099 M1039.68 690.395 Q1045.49 690.395 1048.54 695.001 Q1051.62 699.585 1051.62 708.335 Q1051.62 717.061 1048.54 721.668 Q1045.49 726.251 1039.68 726.251 Q1033.87 726.251 1030.79 721.668 Q1027.73 717.061 1027.73 708.335 Q1027.73 699.585 1030.79 695.001 Q1033.87 690.395 1039.68 690.395 Z" fill="#000000" fill-rule="nonzero" fill-opacity="1" /><path clip-path="url(#clip640)" d="M1059.84 719.7 L1064.72 719.7 L1064.72 725.58 L1059.84 725.58 L1059.84 719.7 Z" fill="#000000" fill-rule="nonzero" fill-opacity="1" /><path clip-path="url(#clip640)" d="M1078.94 721.645 L1095.26 721.645 L1095.26 725.58 L1073.31 725.58 L1073.31 721.645 Q1075.97 718.89 1080.56 714.26 Q1085.16 709.608 1086.34 708.265 Q1088.59 705.742 1089.47 704.006 Q1090.37 702.247 1090.37 700.557 Q1090.37 697.802 1088.43 696.066 Q1086.51 694.33 1083.4 694.33 Q1081.2 694.33 1078.75 695.094 Q1076.32 695.858 1073.54 697.409 L1073.54 692.687 Q1076.37 691.552 1078.82 690.974 Q1081.27 690.395 1083.31 690.395 Q1088.68 690.395 1091.88 693.08 Q1095.07 695.765 1095.07 700.256 Q1095.07 702.386 1094.26 704.307 Q1093.47 706.205 1091.37 708.798 Q1090.79 709.469 1087.69 712.686 Q1084.58 715.881 1078.94 721.645 Z" fill="#000000" fill-rule="nonzero" fill-opacity="1" /><path clip-path="url(#clip640)" d="M1105.12 691.02 L1123.47 691.02 L1123.47 694.955 L1109.4 694.955 L1109.4 703.427 Q1110.42 703.08 1111.44 702.918 Q1112.45 702.733 1113.47 702.733 Q1119.26 702.733 1122.64 705.904 Q1126.02 709.075 1126.02 714.492 Q1126.02 720.071 1122.55 723.172 Q1119.07 726.251 1112.76 726.251 Q1110.58 726.251 1108.31 725.881 Q1106.07 725.51 1103.66 724.77 L1103.66 720.071 Q1105.74 721.205 1107.96 721.76 Q1110.19 722.316 1112.66 722.316 Q1116.67 722.316 1119 720.21 Q1121.34 718.103 1121.34 714.492 Q1121.34 710.881 1119 708.774 Q1116.67 706.668 1112.66 706.668 Q1110.79 706.668 1108.91 707.085 Q1107.06 707.501 1105.12 708.381 L1105.12 691.02 Z" fill="#000000" fill-rule="nonzero" fill-opacity="1" /><path clip-path="url(#clip640)" d="M1279.23 694.099 Q1275.61 694.099 1273.79 697.663 Q1271.98 701.205 1271.98 708.335 Q1271.98 715.441 1273.79 719.006 Q1275.61 722.547 1279.23 722.547 Q1282.86 722.547 1284.67 719.006 Q1286.49 715.441 1286.49 708.335 Q1286.49 701.205 1284.67 697.663 Q1282.86 694.099 1279.23 694.099 M1279.23 690.395 Q1285.04 690.395 1288.09 695.001 Q1291.17 699.585 1291.17 708.335 Q1291.17 717.061 1288.09 721.668 Q1285.04 726.251 1279.23 726.251 Q1273.42 726.251 1270.34 721.668 Q1267.28 717.061 1267.28 708.335 Q1267.28 699.585 1270.34 695.001 Q1273.42 690.395 1279.23 690.395 Z" fill="#000000" fill-rule="nonzero" fill-opacity="1" /><path clip-path="url(#clip640)" d="M1299.39 719.7 L1304.27 719.7 L1304.27 725.58 L1299.39 725.58 L1299.39 719.7 Z" fill="#000000" fill-rule="nonzero" fill-opacity="1" /><path clip-path="url(#clip640)" d="M1324.46 694.099 Q1320.85 694.099 1319.02 697.663 Q1317.21 701.205 1317.21 708.335 Q1317.21 715.441 1319.02 719.006 Q1320.85 722.547 1324.46 722.547 Q1328.09 722.547 1329.9 719.006 Q1331.73 715.441 1331.73 708.335 Q1331.73 701.205 1329.9 697.663 Q1328.09 694.099 1324.46 694.099 M1324.46 690.395 Q1330.27 690.395 1333.32 695.001 Q1336.4 699.585 1336.4 708.335 Q1336.4 717.061 1333.32 721.668 Q1330.27 726.251 1324.46 726.251 Q1318.65 726.251 1315.57 721.668 Q1312.51 717.061 1312.51 708.335 Q1312.51 699.585 1315.57 695.001 Q1318.65 690.395 1324.46 690.395 Z" fill="#000000" fill-rule="nonzero" fill-opacity="1" /><path clip-path="url(#clip640)" d="M1354.62 694.099 Q1351.01 694.099 1349.18 697.663 Q1347.37 701.205 1347.37 708.335 Q1347.37 715.441 1349.18 719.006 Q1351.01 722.547 1354.62 722.547 Q1358.25 722.547 1360.06 719.006 Q1361.89 715.441 1361.89 708.335 Q1361.89 701.205 1360.06 697.663 Q1358.25 694.099 1354.62 694.099 M1354.62 690.395 Q1360.43 690.395 1363.48 695.001 Q1366.56 699.585 1366.56 708.335 Q1366.56 717.061 1363.48 721.668 Q1360.43 726.251 1354.62 726.251 Q1348.81 726.251 1345.73 721.668 Q1342.67 717.061 1342.67 708.335 Q1342.67 699.585 1345.73 695.001 Q1348.81 690.395 1354.62 690.395 Z" fill="#000000" fill-rule="nonzero" fill-opacity="1" /><path clip-path="url(#clip640)" d="M1538.68 694.099 Q1535.07 694.099 1533.24 697.663 Q1531.44 701.205 1531.44 708.335 Q1531.44 715.441 1533.24 719.006 Q1535.07 722.547 1538.68 722.547 Q1542.32 722.547 1544.12 719.006 Q1545.95 715.441 1545.95 708.335 Q1545.95 701.205 1544.12 697.663 Q1542.32 694.099 1538.68 694.099 M1538.68 690.395 Q1544.49 690.395 1547.55 695.001 Q1550.63 699.585 1550.63 708.335 Q1550.63 717.061 1547.55 721.668 Q1544.49 726.251 1538.68 726.251 Q1532.87 726.251 1529.79 721.668 Q1526.74 717.061 1526.74 708.335 Q1526.74 699.585 1529.79 695.001 Q1532.87 690.395 1538.68 690.395 Z" fill="#000000" fill-rule="nonzero" fill-opacity="1" /><path clip-path="url(#clip640)" d="M1558.84 719.7 L1563.73 719.7 L1563.73 725.58 L1558.84 725.58 L1558.84 719.7 Z" fill="#000000" fill-rule="nonzero" fill-opacity="1" /><path clip-path="url(#clip640)" d="M1577.94 721.645 L1594.26 721.645 L1594.26 725.58 L1572.32 725.58 L1572.32 721.645 Q1574.98 718.89 1579.56 714.26 Q1584.17 709.608 1585.35 708.265 Q1587.59 705.742 1588.47 704.006 Q1589.38 702.247 1589.38 700.557 Q1589.38 697.802 1587.43 696.066 Q1585.51 694.33 1582.41 694.33 Q1580.21 694.33 1577.76 695.094 Q1575.33 695.858 1572.55 697.409 L1572.55 692.687 Q1575.37 691.552 1577.82 690.974 Q1580.28 690.395 1582.32 690.395 Q1587.69 690.395 1590.88 693.08 Q1594.07 695.765 1594.07 700.256 Q1594.07 702.386 1593.26 704.307 Q1592.48 706.205 1590.37 708.798 Q1589.79 709.469 1586.69 712.686 Q1583.59 715.881 1577.94 721.645 Z" fill="#000000" fill-rule="nonzero" fill-opacity="1" /><path clip-path="url(#clip640)" d="M1604.12 691.02 L1622.48 691.02 L1622.48 694.955 L1608.4 694.955 L1608.4 703.427 Q1609.42 703.08 1610.44 702.918 Q1611.46 702.733 1612.48 702.733 Q1618.26 702.733 1621.64 705.904 Q1625.02 709.075 1625.02 714.492 Q1625.02 720.071 1621.55 723.172 Q1618.08 726.251 1611.76 726.251 Q1609.58 726.251 1607.32 725.881 Q1605.07 725.51 1602.66 724.77 L1602.66 720.071 Q1604.75 721.205 1606.97 721.76 Q1609.19 722.316 1611.67 722.316 Q1615.67 722.316 1618.01 720.21 Q1620.35 718.103 1620.35 714.492 Q1620.35 710.881 1618.01 708.774 Q1615.67 706.668 1611.67 706.668 Q1609.79 706.668 1607.92 707.085 Q1606.07 707.501 1604.12 708.381 L1604.12 691.02 Z" fill="#000000" fill-rule="nonzero" fill-opacity="1" /><path clip-path="url(#clip640)" d="M2304.83 721.645 L2312.47 721.645 L2312.47 695.279 L2304.16 696.946 L2304.16 692.687 L2312.42 691.02 L2317.1 691.02 L2317.1 721.645 L2324.74 721.645 L2324.74 725.58 L2304.83 725.58 L2304.83 721.645 Z" fill="#000000" fill-rule="nonzero" fill-opacity="1" /><path clip-path="url(#clip640)" d="M2334.18 719.7 L2339.06 719.7 L2339.06 725.58 L2334.18 725.58 L2334.18 719.7 Z" fill="#000000" fill-rule="nonzero" fill-opacity="1" /><path clip-path="url(#clip640)" d="M2359.25 694.099 Q2355.64 694.099 2353.81 697.663 Q2352 701.205 2352 708.335 Q2352 715.441 2353.81 719.006 Q2355.64 722.547 2359.25 722.547 Q2362.88 722.547 2364.69 719.006 Q2366.52 715.441 2366.52 708.335 Q2366.52 701.205 2364.69 697.663 Q2362.88 694.099 2359.25 694.099 M2359.25 690.395 Q2365.06 690.395 2368.11 695.001 Q2371.19 699.585 2371.19 708.335 Q2371.19 717.061 2368.11 721.668 Q2365.06 726.251 2359.25 726.251 Q2353.44 726.251 2350.36 721.668 Q2347.3 717.061 2347.3 708.335 Q2347.3 699.585 2350.36 695.001 Q2353.44 690.395 2359.25 690.395 Z" fill="#000000" fill-rule="nonzero" fill-opacity="1" /><path clip-path="url(#clip640)" d="M2389.41 694.099 Q2385.8 694.099 2383.97 697.663 Q2382.17 701.205 2382.17 708.335 Q2382.17 715.441 2383.97 719.006 Q2385.8 722.547 2389.41 722.547 Q2393.05 722.547 2394.85 719.006 Q2396.68 715.441 2396.68 708.335 Q2396.68 701.205 2394.85 697.663 Q2393.05 694.099 2389.41 694.099 M2389.41 690.395 Q2395.22 690.395 2398.28 695.001 Q2401.36 699.585 2401.36 708.335 Q2401.36 717.061 2398.28 721.668 Q2395.22 726.251 2389.41 726.251 Q2383.6 726.251 2380.52 721.668 Q2377.47 717.061 2377.47 708.335 Q2377.47 699.585 2380.52 695.001 Q2383.6 690.395 2389.41 690.395 Z" fill="#000000" fill-rule="nonzero" fill-opacity="1" /><path clip-path="url(#clip640)" d="M1219.35 772.396 L1247.17 772.396 L1247.17 777.743 L1225.14 803.365 L1247.17 803.365 L1247.17 808.044 L1218.56 808.044 L1218.56 802.697 L1240.58 777.075 L1219.35 777.075 L1219.35 772.396 Z" fill="#000000" fill-rule="nonzero" fill-opacity="1" /><path clip-path="url(#clip640)" d="M1276.29 758.519 L1289.79 758.519 L1289.79 763.07 L1282.15 763.07 L1282.15 812.086 L1289.79 812.086 L1289.79 816.638 L1276.29 816.638 L1276.29 758.519 Z" fill="#000000" fill-rule="nonzero" fill-opacity="1" /><path clip-path="url(#clip640)" d="M1327.92 773.765 L1327.92 779.239 Q1325.44 777.87 1322.92 777.202 Q1320.44 776.502 1317.89 776.502 Q1312.2 776.502 1309.04 780.13 Q1305.89 783.727 1305.89 790.252 Q1305.89 796.777 1309.04 800.405 Q1312.2 804.002 1317.89 804.002 Q1320.44 804.002 1322.92 803.333 Q1325.44 802.633 1327.92 801.264 L1327.92 806.675 Q1325.47 807.821 1322.83 808.394 Q1320.22 808.967 1317.26 808.967 Q1309.2 808.967 1304.46 803.906 Q1299.72 798.845 1299.72 790.252 Q1299.72 781.531 1304.49 776.534 Q1309.3 771.537 1317.64 771.537 Q1320.34 771.537 1322.92 772.109 Q1325.5 772.651 1327.92 773.765 Z" fill="#000000" fill-rule="nonzero" fill-opacity="1" /><path clip-path="url(#clip640)" d="M1365.86 779.239 Q1368.05 775.292 1371.11 773.414 Q1374.17 771.537 1378.3 771.537 Q1383.87 771.537 1386.9 775.451 Q1389.92 779.335 1389.92 786.528 L1389.92 808.044 L1384.03 808.044 L1384.03 786.719 Q1384.03 781.594 1382.22 779.112 Q1380.4 776.629 1376.68 776.629 Q1372.13 776.629 1369.49 779.653 Q1366.85 782.677 1366.85 787.896 L1366.85 808.044 L1360.96 808.044 L1360.96 786.719 Q1360.96 781.563 1359.14 779.112 Q1357.33 776.629 1353.54 776.629 Q1349.05 776.629 1346.41 779.685 Q1343.77 782.708 1343.77 787.896 L1343.77 808.044 L1337.88 808.044 L1337.88 772.396 L1343.77 772.396 L1343.77 777.934 Q1345.77 774.656 1348.58 773.096 Q1351.38 771.537 1355.23 771.537 Q1359.11 771.537 1361.82 773.51 Q1364.55 775.483 1365.86 779.239 Z" fill="#000000" fill-rule="nonzero" fill-opacity="1" /><path clip-path="url(#clip640)" d="M1415.29 758.519 L1415.29 816.638 L1401.79 816.638 L1401.79 812.086 L1409.4 812.086 L1409.4 763.07 L1401.79 763.07 L1401.79 758.519 L1415.29 758.519 Z" fill="#000000" fill-rule="nonzero" fill-opacity="1" /><polyline clip-path="url(#clip640)" style="stroke:#000000; stroke-linecap:round; stroke-linejoin:round; stroke-width:4; stroke-opacity:1; fill:none" points="281.088,663.18 281.088,127.244 "/>
<polyline clip-path="url(#clip640)" style="stroke:#000000; stroke-linecap:round; stroke-linejoin:round; stroke-width:4; stroke-opacity:1; fill:none" points="281.088,573.857 299.986,573.857 "/>
<polyline clip-path="url(#clip640)" style="stroke:#000000; stroke-linecap:round; stroke-linejoin:round; stroke-width:4; stroke-opacity:1; fill:none" points="281.088,350.551 299.986,350.551 "/>
<polyline clip-path="url(#clip640)" style="stroke:#000000; stroke-linecap:round; stroke-linejoin:round; stroke-width:4; stroke-opacity:1; fill:none" points="281.088,187.079 299.986,187.079 "/>
<polyline clip-path="url(#clip640)" style="stroke:#000000; stroke-linecap:round; stroke-linejoin:round; stroke-width:4; stroke-opacity:1; fill:none" points="281.088,127.244 299.986,127.244 "/>
<path clip-path="url(#clip640)" d="M233.144 559.656 Q229.533 559.656 227.704 563.221 Q225.899 566.762 225.899 573.892 Q225.899 580.998 227.704 584.563 Q229.533 588.105 233.144 588.105 Q236.778 588.105 238.584 584.563 Q240.412 580.998 240.412 573.892 Q240.412 566.762 238.584 563.221 Q236.778 559.656 233.144 559.656 M233.144 555.952 Q238.954 555.952 242.01 560.559 Q245.088 565.142 245.088 573.892 Q245.088 582.619 242.01 587.225 Q238.954 591.809 233.144 591.809 Q227.334 591.809 224.255 587.225 Q221.2 582.619 221.2 573.892 Q221.2 565.142 224.255 560.559 Q227.334 555.952 233.144 555.952 Z" fill="#000000" fill-rule="nonzero" fill-opacity="1" /><path clip-path="url(#clip640)" d="M71.5013 342.9 L71.5013 346.882 Q69.6957 345.886 67.867 345.4 Q66.0615 344.891 64.2096 344.891 Q60.0662 344.891 57.7745 347.53 Q55.4828 350.146 55.4828 354.891 Q55.4828 359.636 57.7745 362.275 Q60.0662 364.891 64.2096 364.891 Q66.0615 364.891 67.867 364.405 Q69.6957 363.895 71.5013 362.9 L71.5013 366.835 Q69.7189 367.669 67.7976 368.085 Q65.8995 368.502 63.7467 368.502 Q57.8902 368.502 54.4412 364.821 Q50.9921 361.141 50.9921 354.891 Q50.9921 348.548 54.4643 344.914 Q57.9597 341.28 64.0245 341.28 Q65.992 341.28 67.867 341.697 Q69.742 342.09 71.5013 342.9 Z" fill="#000000" fill-rule="nonzero" fill-opacity="1" /><path clip-path="url(#clip640)" d="M88.9549 344.891 Q85.529 344.891 83.5382 347.576 Q81.5475 350.238 81.5475 354.891 Q81.5475 359.544 83.5151 362.229 Q85.5058 364.891 88.9549 364.891 Q92.3576 364.891 94.3484 362.206 Q96.3391 359.521 96.3391 354.891 Q96.3391 350.284 94.3484 347.599 Q92.3576 344.891 88.9549 344.891 M88.9549 341.28 Q94.5104 341.28 97.6817 344.891 Q100.853 348.502 100.853 354.891 Q100.853 361.257 97.6817 364.891 Q94.5104 368.502 88.9549 368.502 Q83.3762 368.502 80.2049 364.891 Q77.0568 361.257 77.0568 354.891 Q77.0568 348.502 80.2049 344.891 Q83.3762 341.28 88.9549 341.28 Z" fill="#000000" fill-rule="nonzero" fill-opacity="1" /><path clip-path="url(#clip640)" d="M124.441 342.669 L124.441 346.697 Q122.635 345.771 120.691 345.308 Q118.746 344.845 116.663 344.845 Q113.492 344.845 111.895 345.817 Q110.321 346.789 110.321 348.734 Q110.321 350.215 111.455 351.071 Q112.589 351.905 116.015 352.669 L117.473 352.993 Q122.01 353.965 123.908 355.747 Q125.83 357.507 125.83 360.678 Q125.83 364.289 122.959 366.395 Q120.112 368.502 115.112 368.502 Q113.029 368.502 110.76 368.085 Q108.515 367.692 106.015 366.882 L106.015 362.483 Q108.376 363.71 110.668 364.335 Q112.959 364.937 115.205 364.937 Q118.214 364.937 119.834 363.919 Q121.455 362.877 121.455 361.002 Q121.455 359.266 120.274 358.34 Q119.117 357.414 115.158 356.558 L113.677 356.21 Q109.719 355.377 107.959 353.664 Q106.2 351.928 106.2 348.919 Q106.2 345.261 108.793 343.271 Q111.385 341.28 116.154 341.28 Q118.515 341.28 120.598 341.627 Q122.682 341.974 124.441 342.669 Z" fill="#000000" fill-rule="nonzero" fill-opacity="1" /><path clip-path="url(#clip640)" d="M142.843 331.859 Q139.742 337.183 138.237 342.391 Q136.732 347.599 136.732 352.946 Q136.732 358.294 138.237 363.548 Q139.765 368.78 142.843 374.081 L139.14 374.081 Q135.668 368.641 133.931 363.386 Q132.219 358.132 132.219 352.946 Q132.219 347.784 133.931 342.553 Q135.644 337.322 139.14 331.859 L142.843 331.859 Z" fill="#000000" fill-rule="nonzero" fill-opacity="1" /><path clip-path="url(#clip640)" d="M162.288 348.687 Q159.14 348.687 157.288 350.84 Q155.459 352.993 155.459 356.743 Q155.459 360.47 157.288 362.645 Q159.14 364.798 162.288 364.798 Q165.436 364.798 167.265 362.645 Q169.116 360.47 169.116 356.743 Q169.116 352.993 167.265 350.84 Q165.436 348.687 162.288 348.687 M171.57 334.035 L171.57 338.294 Q169.811 337.46 168.005 337.021 Q166.223 336.581 164.464 336.581 Q159.834 336.581 157.38 339.706 Q154.95 342.831 154.603 349.15 Q155.968 347.136 158.029 346.072 Q160.089 344.984 162.566 344.984 Q167.774 344.984 170.783 348.155 Q173.816 351.303 173.816 356.743 Q173.816 362.067 170.667 365.284 Q167.519 368.502 162.288 368.502 Q156.292 368.502 153.121 363.919 Q149.95 359.312 149.95 350.585 Q149.95 342.391 153.839 337.53 Q157.728 332.646 164.279 332.646 Q166.038 332.646 167.82 332.993 Q169.626 333.34 171.57 334.035 Z" fill="#000000" fill-rule="nonzero" fill-opacity="1" /><path clip-path="url(#clip640)" d="M191.871 336.349 Q188.26 336.349 186.431 339.914 Q184.626 343.456 184.626 350.585 Q184.626 357.692 186.431 361.257 Q188.26 364.798 191.871 364.798 Q195.505 364.798 197.311 361.257 Q199.139 357.692 199.139 350.585 Q199.139 343.456 197.311 339.914 Q195.505 336.349 191.871 336.349 M191.871 332.646 Q197.681 332.646 200.737 337.252 Q203.815 341.835 203.815 350.585 Q203.815 359.312 200.737 363.919 Q197.681 368.502 191.871 368.502 Q186.061 368.502 182.982 363.919 Q179.927 359.312 179.927 350.585 Q179.927 341.835 182.982 337.252 Q186.061 332.646 191.871 332.646 Z" fill="#000000" fill-rule="nonzero" fill-opacity="1" /><path clip-path="url(#clip640)" d="M218.815 335.632 Q216.963 335.632 215.69 336.928 Q214.417 338.201 214.417 340.053 Q214.417 341.882 215.69 343.155 Q216.963 344.405 218.815 344.405 Q220.667 344.405 221.94 343.155 Q223.213 341.882 223.213 340.053 Q223.213 338.224 221.917 336.928 Q220.644 335.632 218.815 335.632 M218.815 332.646 Q220.297 332.646 221.663 333.224 Q223.028 333.78 224.024 334.845 Q225.088 335.886 225.621 337.206 Q226.153 338.525 226.153 340.053 Q226.153 343.109 224 345.238 Q221.871 347.345 218.769 347.345 Q215.644 347.345 213.561 345.261 Q211.477 343.178 211.477 340.053 Q211.477 336.951 213.607 334.798 Q215.737 332.646 218.815 332.646 Z" fill="#000000" fill-rule="nonzero" fill-opacity="1" /><path clip-path="url(#clip640)" d="M234.463 331.859 L238.167 331.859 Q241.639 337.322 243.352 342.553 Q245.088 347.784 245.088 352.946 Q245.088 358.132 243.352 363.386 Q241.639 368.641 238.167 374.081 L234.463 374.081 Q237.542 368.78 239.047 363.548 Q240.574 358.294 240.574 352.946 Q240.574 347.599 239.047 342.391 Q237.542 337.183 234.463 331.859 Z" fill="#000000" fill-rule="nonzero" fill-opacity="1" /><path clip-path="url(#clip640)" d="M81.2234 179.197 L81.2234 183.225 Q79.4179 182.299 77.4735 181.836 Q75.529 181.373 73.4457 181.373 Q70.2744 181.373 68.6772 182.345 Q67.1032 183.317 67.1032 185.262 Q67.1032 186.743 68.2374 187.6 Q69.3717 188.433 72.7976 189.197 L74.2559 189.521 Q78.7929 190.493 80.691 192.276 Q82.6123 194.035 82.6123 197.206 Q82.6123 200.817 79.742 202.924 Q76.8948 205.03 71.8948 205.03 Q69.8115 205.03 67.543 204.614 Q65.2976 204.22 62.7976 203.41 L62.7976 199.012 Q65.1587 200.239 67.4504 200.864 Q69.742 201.465 71.9874 201.465 Q74.9966 201.465 76.617 200.447 Q78.2374 199.405 78.2374 197.53 Q78.2374 195.794 77.0568 194.868 Q75.8994 193.942 71.9411 193.086 L70.4596 192.739 Q66.5013 191.905 64.7421 190.192 Q62.9828 188.456 62.9828 185.447 Q62.9828 181.79 65.5754 179.799 Q68.168 177.808 72.9365 177.808 Q75.2976 177.808 77.3809 178.155 Q79.4642 178.503 81.2234 179.197 Z" fill="#000000" fill-rule="nonzero" fill-opacity="1" /><path clip-path="url(#clip640)" d="M89.3947 178.433 L93.6539 178.433 L93.6539 204.359 L89.3947 204.359 L89.3947 178.433 M89.3947 168.341 L93.6539 168.341 L93.6539 173.734 L89.3947 173.734 L89.3947 168.341 Z" fill="#000000" fill-rule="nonzero" fill-opacity="1" /><path clip-path="url(#clip640)" d="M124.117 188.711 L124.117 204.359 L119.857 204.359 L119.857 188.85 Q119.857 185.169 118.422 183.341 Q116.987 181.512 114.117 181.512 Q110.668 181.512 108.677 183.711 Q106.686 185.91 106.686 189.706 L106.686 204.359 L102.404 204.359 L102.404 178.433 L106.686 178.433 L106.686 182.461 Q108.214 180.123 110.274 178.966 Q112.358 177.808 115.066 177.808 Q119.533 177.808 121.825 180.586 Q124.117 183.341 124.117 188.711 Z" fill="#000000" fill-rule="nonzero" fill-opacity="1" /><path clip-path="url(#clip640)" d="M142.843 168.387 Q139.742 173.711 138.237 178.919 Q136.732 184.128 136.732 189.475 Q136.732 194.822 138.237 200.077 Q139.765 205.308 142.843 210.609 L139.14 210.609 Q135.668 205.169 133.931 199.914 Q132.219 194.66 132.219 189.475 Q132.219 184.313 133.931 179.081 Q135.644 173.85 139.14 168.387 L142.843 168.387 Z" fill="#000000" fill-rule="nonzero" fill-opacity="1" /><path clip-path="url(#clip640)" d="M162.288 185.215 Q159.14 185.215 157.288 187.368 Q155.459 189.521 155.459 193.271 Q155.459 196.998 157.288 199.174 Q159.14 201.327 162.288 201.327 Q165.436 201.327 167.265 199.174 Q169.116 196.998 169.116 193.271 Q169.116 189.521 167.265 187.368 Q165.436 185.215 162.288 185.215 M171.57 170.563 L171.57 174.822 Q169.811 173.989 168.005 173.549 Q166.223 173.109 164.464 173.109 Q159.834 173.109 157.38 176.234 Q154.95 179.359 154.603 185.678 Q155.968 183.665 158.029 182.6 Q160.089 181.512 162.566 181.512 Q167.774 181.512 170.783 184.683 Q173.816 187.831 173.816 193.271 Q173.816 198.595 170.667 201.813 Q167.519 205.03 162.288 205.03 Q156.292 205.03 153.121 200.447 Q149.95 195.84 149.95 187.114 Q149.95 178.919 153.839 174.058 Q157.728 169.174 164.279 169.174 Q166.038 169.174 167.82 169.521 Q169.626 169.868 171.57 170.563 Z" fill="#000000" fill-rule="nonzero" fill-opacity="1" /><path clip-path="url(#clip640)" d="M191.871 172.878 Q188.26 172.878 186.431 176.442 Q184.626 179.984 184.626 187.114 Q184.626 194.22 186.431 197.785 Q188.26 201.327 191.871 201.327 Q195.505 201.327 197.311 197.785 Q199.139 194.22 199.139 187.114 Q199.139 179.984 197.311 176.442 Q195.505 172.878 191.871 172.878 M191.871 169.174 Q197.681 169.174 200.737 173.78 Q203.815 178.364 203.815 187.114 Q203.815 195.84 200.737 200.447 Q197.681 205.03 191.871 205.03 Q186.061 205.03 182.982 200.447 Q179.927 195.84 179.927 187.114 Q179.927 178.364 182.982 173.78 Q186.061 169.174 191.871 169.174 Z" fill="#000000" fill-rule="nonzero" fill-opacity="1" /><path clip-path="url(#clip640)" d="M218.815 172.16 Q216.963 172.16 215.69 173.456 Q214.417 174.729 214.417 176.581 Q214.417 178.41 215.69 179.683 Q216.963 180.933 218.815 180.933 Q220.667 180.933 221.94 179.683 Q223.213 178.41 223.213 176.581 Q223.213 174.753 221.917 173.456 Q220.644 172.16 218.815 172.16 M218.815 169.174 Q220.297 169.174 221.663 169.753 Q223.028 170.308 224.024 171.373 Q225.088 172.415 225.621 173.734 Q226.153 175.054 226.153 176.581 Q226.153 179.637 224 181.766 Q221.871 183.873 218.769 183.873 Q215.644 183.873 213.561 181.79 Q211.477 179.706 211.477 176.581 Q211.477 173.479 213.607 171.327 Q215.737 169.174 218.815 169.174 Z" fill="#000000" fill-rule="nonzero" fill-opacity="1" /><path clip-path="url(#clip640)" d="M234.463 168.387 L238.167 168.387 Q241.639 173.85 243.352 179.081 Q245.088 184.313 245.088 189.475 Q245.088 194.66 243.352 199.914 Q241.639 205.169 238.167 210.609 L234.463 210.609 Q237.542 205.308 239.047 200.077 Q240.574 194.822 240.574 189.475 Q240.574 184.128 239.047 178.919 Q237.542 173.711 234.463 168.387 Z" fill="#000000" fill-rule="nonzero" fill-opacity="1" /><path clip-path="url(#clip640)" d="M225.181 140.589 L232.82 140.589 L232.82 114.223 L224.51 115.89 L224.51 111.631 L232.774 109.964 L237.449 109.964 L237.449 140.589 L245.088 140.589 L245.088 144.524 L225.181 144.524 L225.181 140.589 Z" fill="#000000" fill-rule="nonzero" fill-opacity="1" /><polyline clip-path="url(#clip642)" style="stroke:#009af9; stroke-linecap:round; stroke-linejoin:round; stroke-width:8; stroke-opacity:1; fill:none" points="1213.34,223.542 1223.7,225.238 1234.06,229.98 1244.41,235.888 1254.77,240.631 1265.13,242.302 1275.49,240.274 1285.85,235.482 1296.21,229.929 1306.56,225.749 1316.92,224.419 1327.28,226.384 1337.64,231.001 1348,236.67 1358.36,241.254 1368.71,242.874 1379.07,240.797 1389.43,235.862 1399.79,230.115 1410.15,225.897 1420.51,224.958 "/>
<polyline clip-path="url(#clip642)" style="stroke:#e26f46; stroke-linecap:round; stroke-linejoin:round; stroke-width:8; stroke-opacity:1; fill:none" points="1213.34,581.808 1223.7,585.407 1234.06,587.81 1244.41,588.677 1254.77,588.355 1265.13,587.513 1275.49,586.834 1285.85,586.906 1296.21,588.152 1306.56,590.617 1316.92,593.784 1327.28,596.72 1337.64,598.579 1348,599.073 1358.36,598.536 1368.71,597.628 1379.07,597.035 1389.43,597.353 1399.79,599.011 1410.15,602.043 1420.51,605.837 "/>
<polyline clip-path="url(#clip642)" style="stroke:#3da44d; stroke-linecap:round; stroke-linejoin:round; stroke-width:8; stroke-opacity:1; fill:none" points="1213.34,349.395 1223.7,346.581 1234.06,338.521 1244.41,328.852 1254.77,321.398 1265.13,318.8 1275.49,321.85 1285.85,329.391 1296.21,338.654 1306.56,346.107 1316.92,348.785 1327.28,345.597 1337.64,337.841 1348,328.592 1358.36,321.361 1368.71,318.801 1379.07,321.897 1389.43,329.683 1399.79,339.373 1410.15,347.093 1420.51,349.308 "/>
<polyline clip-path="url(#clip642)" style="stroke:#c271d2; stroke-linecap:round; stroke-linejoin:round; stroke-width:8; stroke-opacity:1; fill:none" points="1213.34,223.451 1223.7,225.047 1234.06,229.697 1244.41,235.564 1254.77,240.316 1265.13,242.021 1275.49,240.022 1285.85,235.231 1296.21,229.632 1306.56,225.346 1316.92,223.851 1327.28,225.632 1337.64,230.11 1348,235.729 1358.36,240.34 1368.71,242.021 1379.07,239.992 1389.43,235.046 1399.79,229.196 1410.15,224.758 1420.51,223.496 "/>
<path clip-path="url(#clip640)" d="M1959.61 516.756 L2283.7 516.756 L2283.7 257.556 L1959.61 257.556  Z" fill="#ffffff" fill-rule="evenodd" fill-opacity="1"/>
<polyline clip-path="url(#clip640)" style="stroke:#000000; stroke-linecap:round; stroke-linejoin:round; stroke-width:4; stroke-opacity:1; fill:none" points="1959.61,516.756 2283.7,516.756 2283.7,257.556 1959.61,257.556 1959.61,516.756 "/>
<polyline clip-path="url(#clip640)" style="stroke:#009af9; stroke-linecap:round; stroke-linejoin:round; stroke-width:8; stroke-opacity:1; fill:none" points="1982.63,309.396 2120.74,309.396 "/>
<path clip-path="url(#clip640)" d="M2143.76 292.116 L2150.73 292.116 L2159.55 315.635 L2168.41 292.116 L2175.38 292.116 L2175.38 326.676 L2170.82 326.676 L2170.82 296.329 L2161.91 320.033 L2157.21 320.033 L2148.3 296.329 L2148.3 326.676 L2143.76 326.676 L2143.76 292.116 Z" fill="#000000" fill-rule="nonzero" fill-opacity="1" /><path clip-path="url(#clip640)" d="M2206.03 300.751 L2196.65 313.366 L2206.52 326.676 L2201.49 326.676 L2193.95 316.491 L2186.4 326.676 L2181.38 326.676 L2191.45 313.112 L2182.23 300.751 L2187.26 300.751 L2194.13 309.987 L2201.01 300.751 L2206.03 300.751 Z" fill="#000000" fill-rule="nonzero" fill-opacity="1" /><polyline clip-path="url(#clip640)" style="stroke:#e26f46; stroke-linecap:round; stroke-linejoin:round; stroke-width:8; stroke-opacity:1; fill:none" points="1982.63,361.236 2120.74,361.236 "/>
<path clip-path="url(#clip640)" d="M2143.76 343.956 L2150.73 343.956 L2159.55 367.475 L2168.41 343.956 L2175.38 343.956 L2175.38 378.516 L2170.82 378.516 L2170.82 348.169 L2161.91 371.873 L2157.21 371.873 L2148.3 348.169 L2148.3 378.516 L2143.76 378.516 L2143.76 343.956 Z" fill="#000000" fill-rule="nonzero" fill-opacity="1" /><path clip-path="url(#clip640)" d="M2195.27 380.924 Q2193.46 385.553 2191.75 386.966 Q2190.03 388.378 2187.16 388.378 L2183.76 388.378 L2183.76 384.813 L2186.26 384.813 Q2188.02 384.813 2188.99 383.979 Q2189.96 383.146 2191.15 380.044 L2191.91 378.1 L2181.42 352.591 L2185.94 352.591 L2194.04 372.868 L2202.14 352.591 L2206.65 352.591 L2195.27 380.924 Z" fill="#000000" fill-rule="nonzero" fill-opacity="1" /><polyline clip-path="url(#clip640)" style="stroke:#3da44d; stroke-linecap:round; stroke-linejoin:round; stroke-width:8; stroke-opacity:1; fill:none" points="1982.63,413.076 2120.74,413.076 "/>
<path clip-path="url(#clip640)" d="M2143.76 395.796 L2150.73 395.796 L2159.55 419.315 L2168.41 395.796 L2175.38 395.796 L2175.38 430.356 L2170.82 430.356 L2170.82 400.009 L2161.91 423.713 L2157.21 423.713 L2148.3 400.009 L2148.3 430.356 L2143.76 430.356 L2143.76 395.796 Z" fill="#000000" fill-rule="nonzero" fill-opacity="1" /><path clip-path="url(#clip640)" d="M2182.63 404.431 L2202.86 404.431 L2202.86 408.32 L2186.84 426.954 L2202.86 426.954 L2202.86 430.356 L2182.05 430.356 L2182.05 426.468 L2198.07 407.833 L2182.63 407.833 L2182.63 404.431 Z" fill="#000000" fill-rule="nonzero" fill-opacity="1" /><polyline clip-path="url(#clip640)" style="stroke:#c271d2; stroke-linecap:round; stroke-linejoin:round; stroke-width:8; stroke-opacity:1; fill:none" points="1982.63,464.916 2120.74,464.916 "/>
<path clip-path="url(#clip640)" d="M2147.7 445.97 L2147.7 493.377 L2143.76 493.377 L2143.76 445.97 L2147.7 445.97 Z" fill="#000000" fill-rule="nonzero" fill-opacity="1" /><path clip-path="url(#clip640)" d="M2158.37 447.636 L2165.34 447.636 L2174.15 471.155 L2183.02 447.636 L2189.99 447.636 L2189.99 482.196 L2185.43 482.196 L2185.43 451.849 L2176.52 475.553 L2171.82 475.553 L2162.9 451.849 L2162.9 482.196 L2158.37 482.196 L2158.37 447.636 Z" fill="#000000" fill-rule="nonzero" fill-opacity="1" /><path clip-path="url(#clip640)" d="M2220.64 456.271 L2211.26 468.886 L2221.12 482.196 L2216.1 482.196 L2208.55 472.011 L2201.01 482.196 L2195.98 482.196 L2206.05 468.632 L2196.84 456.271 L2201.86 456.271 L2208.74 465.507 L2215.61 456.271 L2220.64 456.271 Z" fill="#000000" fill-rule="nonzero" fill-opacity="1" /><path clip-path="url(#clip640)" d="M2237.93 484.604 Q2236.12 489.233 2234.41 490.646 Q2232.7 492.058 2229.83 492.058 L2226.42 492.058 L2226.42 488.493 L2228.92 488.493 Q2230.68 488.493 2231.65 487.659 Q2232.63 486.826 2233.81 483.724 L2234.57 481.78 L2224.08 456.271 L2228.6 456.271 L2236.7 476.548 L2244.8 456.271 L2249.32 456.271 L2237.93 484.604 Z" fill="#000000" fill-rule="nonzero" fill-opacity="1" /><path clip-path="url(#clip640)" d="M2260.68 445.97 L2260.68 493.377 L2256.75 493.377 L2256.75 445.97 L2260.68 445.97 Z" fill="#000000" fill-rule="nonzero" fill-opacity="1" /><path clip-path="url(#clip640)" d="M281.088 1423.18 L2352.76 1423.18 L2352.76 887.244 L281.088 887.244  Z" fill="#ffffff" fill-rule="evenodd" fill-opacity="1"/>
<defs>
  <clipPath id="clip643">
    <rect x="281" y="887" width="2073" height="537"/>
  </clipPath>
</defs>
<polyline clip-path="url(#clip643)" style="stroke:#000000; stroke-linecap:round; stroke-linejoin:round; stroke-width:2; stroke-opacity:0.1; fill:none" points="281.088,1423.18 281.088,887.244 "/>
<polyline clip-path="url(#clip643)" style="stroke:#000000; stroke-linecap:round; stroke-linejoin:round; stroke-width:2; stroke-opacity:0.1; fill:none" points="1057.96,1423.18 1057.96,887.244 "/>
<polyline clip-path="url(#clip643)" style="stroke:#000000; stroke-linecap:round; stroke-linejoin:round; stroke-width:2; stroke-opacity:0.1; fill:none" points="1316.92,1423.18 1316.92,887.244 "/>
<polyline clip-path="url(#clip643)" style="stroke:#000000; stroke-linecap:round; stroke-linejoin:round; stroke-width:2; stroke-opacity:0.1; fill:none" points="1575.88,1423.18 1575.88,887.244 "/>
<polyline clip-path="url(#clip643)" style="stroke:#000000; stroke-linecap:round; stroke-linejoin:round; stroke-width:2; stroke-opacity:0.1; fill:none" points="2352.76,1423.18 2352.76,887.244 "/>
<polyline clip-path="url(#clip643)" style="stroke:#000000; stroke-linecap:round; stroke-linejoin:round; stroke-width:2; stroke-opacity:0.1; fill:none" points="281.088,1397.69 2352.76,1397.69 "/>
<polyline clip-path="url(#clip643)" style="stroke:#000000; stroke-linecap:round; stroke-linejoin:round; stroke-width:2; stroke-opacity:0.1; fill:none" points="281.088,1324.11 2352.76,1324.11 "/>
<polyline clip-path="url(#clip643)" style="stroke:#000000; stroke-linecap:round; stroke-linejoin:round; stroke-width:2; stroke-opacity:0.1; fill:none" points="281.088,1250.52 2352.76,1250.52 "/>
<polyline clip-path="url(#clip643)" style="stroke:#000000; stroke-linecap:round; stroke-linejoin:round; stroke-width:2; stroke-opacity:0.1; fill:none" points="281.088,1176.93 2352.76,1176.93 "/>
<polyline clip-path="url(#clip643)" style="stroke:#000000; stroke-linecap:round; stroke-linejoin:round; stroke-width:2; stroke-opacity:0.1; fill:none" points="281.088,1103.35 2352.76,1103.35 "/>
<polyline clip-path="url(#clip643)" style="stroke:#000000; stroke-linecap:round; stroke-linejoin:round; stroke-width:2; stroke-opacity:0.1; fill:none" points="281.088,1029.76 2352.76,1029.76 "/>
<polyline clip-path="url(#clip643)" style="stroke:#000000; stroke-linecap:round; stroke-linejoin:round; stroke-width:2; stroke-opacity:0.1; fill:none" points="281.088,956.178 2352.76,956.178 "/>
<polyline clip-path="url(#clip640)" style="stroke:#000000; stroke-linecap:round; stroke-linejoin:round; stroke-width:4; stroke-opacity:1; fill:none" points="281.088,1423.18 2352.76,1423.18 "/>
<polyline clip-path="url(#clip640)" style="stroke:#000000; stroke-linecap:round; stroke-linejoin:round; stroke-width:4; stroke-opacity:1; fill:none" points="281.088,1423.18 281.088,1404.28 "/>
<polyline clip-path="url(#clip640)" style="stroke:#000000; stroke-linecap:round; stroke-linejoin:round; stroke-width:4; stroke-opacity:1; fill:none" points="1057.96,1423.18 1057.96,1404.28 "/>
<polyline clip-path="url(#clip640)" style="stroke:#000000; stroke-linecap:round; stroke-linejoin:round; stroke-width:4; stroke-opacity:1; fill:none" points="1316.92,1423.18 1316.92,1404.28 "/>
<polyline clip-path="url(#clip640)" style="stroke:#000000; stroke-linecap:round; stroke-linejoin:round; stroke-width:4; stroke-opacity:1; fill:none" points="1575.88,1423.18 1575.88,1404.28 "/>
<polyline clip-path="url(#clip640)" style="stroke:#000000; stroke-linecap:round; stroke-linejoin:round; stroke-width:4; stroke-opacity:1; fill:none" points="2352.76,1423.18 2352.76,1404.28 "/>
<path clip-path="url(#clip640)" d="M212.535 1468.75 L242.211 1468.75 L242.211 1472.69 L212.535 1472.69 L212.535 1468.75 Z" fill="#000000" fill-rule="nonzero" fill-opacity="1" /><path clip-path="url(#clip640)" d="M253.114 1481.64 L260.753 1481.64 L260.753 1455.28 L252.443 1456.95 L252.443 1452.69 L260.706 1451.02 L265.382 1451.02 L265.382 1481.64 L273.021 1481.64 L273.021 1485.58 L253.114 1485.58 L253.114 1481.64 Z" fill="#000000" fill-rule="nonzero" fill-opacity="1" /><path clip-path="url(#clip640)" d="M282.466 1479.7 L287.35 1479.7 L287.35 1485.58 L282.466 1485.58 L282.466 1479.7 Z" fill="#000000" fill-rule="nonzero" fill-opacity="1" /><path clip-path="url(#clip640)" d="M307.535 1454.1 Q303.924 1454.1 302.095 1457.66 Q300.29 1461.2 300.29 1468.33 Q300.29 1475.44 302.095 1479.01 Q303.924 1482.55 307.535 1482.55 Q311.169 1482.55 312.975 1479.01 Q314.803 1475.44 314.803 1468.33 Q314.803 1461.2 312.975 1457.66 Q311.169 1454.1 307.535 1454.1 M307.535 1450.39 Q313.345 1450.39 316.401 1455 Q319.479 1459.58 319.479 1468.33 Q319.479 1477.06 316.401 1481.67 Q313.345 1486.25 307.535 1486.25 Q301.725 1486.25 298.646 1481.67 Q295.591 1477.06 295.591 1468.33 Q295.591 1459.58 298.646 1455 Q301.725 1450.39 307.535 1450.39 Z" fill="#000000" fill-rule="nonzero" fill-opacity="1" /><path clip-path="url(#clip640)" d="M337.697 1454.1 Q334.086 1454.1 332.257 1457.66 Q330.451 1461.2 330.451 1468.33 Q330.451 1475.44 332.257 1479.01 Q334.086 1482.55 337.697 1482.55 Q341.331 1482.55 343.137 1479.01 Q344.965 1475.44 344.965 1468.33 Q344.965 1461.2 343.137 1457.66 Q341.331 1454.1 337.697 1454.1 M337.697 1450.39 Q343.507 1450.39 346.562 1455 Q349.641 1459.58 349.641 1468.33 Q349.641 1477.06 346.562 1481.67 Q343.507 1486.25 337.697 1486.25 Q331.887 1486.25 328.808 1481.67 Q325.752 1477.06 325.752 1468.33 Q325.752 1459.58 328.808 1455 Q331.887 1450.39 337.697 1450.39 Z" fill="#000000" fill-rule="nonzero" fill-opacity="1" /><path clip-path="url(#clip640)" d="M989.908 1468.75 L1019.58 1468.75 L1019.58 1472.69 L989.908 1472.69 L989.908 1468.75 Z" fill="#000000" fill-rule="nonzero" fill-opacity="1" /><path clip-path="url(#clip640)" d="M1039.68 1454.1 Q1036.07 1454.1 1034.24 1457.66 Q1032.43 1461.2 1032.43 1468.33 Q1032.43 1475.44 1034.24 1479.01 Q1036.07 1482.55 1039.68 1482.55 Q1043.31 1482.55 1045.12 1479.01 Q1046.95 1475.44 1046.95 1468.33 Q1046.95 1461.2 1045.12 1457.66 Q1043.31 1454.1 1039.68 1454.1 M1039.68 1450.39 Q1045.49 1450.39 1048.54 1455 Q1051.62 1459.58 1051.62 1468.33 Q1051.62 1477.06 1048.54 1481.67 Q1045.49 1486.25 1039.68 1486.25 Q1033.87 1486.25 1030.79 1481.67 Q1027.73 1477.06 1027.73 1468.33 Q1027.73 1459.58 1030.79 1455 Q1033.87 1450.39 1039.68 1450.39 Z" fill="#000000" fill-rule="nonzero" fill-opacity="1" /><path clip-path="url(#clip640)" d="M1059.84 1479.7 L1064.72 1479.7 L1064.72 1485.58 L1059.84 1485.58 L1059.84 1479.7 Z" fill="#000000" fill-rule="nonzero" fill-opacity="1" /><path clip-path="url(#clip640)" d="M1078.94 1481.64 L1095.26 1481.64 L1095.26 1485.58 L1073.31 1485.58 L1073.31 1481.64 Q1075.97 1478.89 1080.56 1474.26 Q1085.16 1469.61 1086.34 1468.27 Q1088.59 1465.74 1089.47 1464.01 Q1090.37 1462.25 1090.37 1460.56 Q1090.37 1457.8 1088.43 1456.07 Q1086.51 1454.33 1083.4 1454.33 Q1081.2 1454.33 1078.75 1455.09 Q1076.32 1455.86 1073.54 1457.41 L1073.54 1452.69 Q1076.37 1451.55 1078.82 1450.97 Q1081.27 1450.39 1083.31 1450.39 Q1088.68 1450.39 1091.88 1453.08 Q1095.07 1455.77 1095.07 1460.26 Q1095.07 1462.39 1094.26 1464.31 Q1093.47 1466.2 1091.37 1468.8 Q1090.79 1469.47 1087.69 1472.69 Q1084.58 1475.88 1078.94 1481.64 Z" fill="#000000" fill-rule="nonzero" fill-opacity="1" /><path clip-path="url(#clip640)" d="M1105.12 1451.02 L1123.47 1451.02 L1123.47 1454.96 L1109.4 1454.96 L1109.4 1463.43 Q1110.42 1463.08 1111.44 1462.92 Q1112.45 1462.73 1113.47 1462.73 Q1119.26 1462.73 1122.64 1465.9 Q1126.02 1469.08 1126.02 1474.49 Q1126.02 1480.07 1122.55 1483.17 Q1119.07 1486.25 1112.76 1486.25 Q1110.58 1486.25 1108.31 1485.88 Q1106.07 1485.51 1103.66 1484.77 L1103.66 1480.07 Q1105.74 1481.2 1107.96 1481.76 Q1110.19 1482.32 1112.66 1482.32 Q1116.67 1482.32 1119 1480.21 Q1121.34 1478.1 1121.34 1474.49 Q1121.34 1470.88 1119 1468.77 Q1116.67 1466.67 1112.66 1466.67 Q1110.79 1466.67 1108.91 1467.08 Q1107.06 1467.5 1105.12 1468.38 L1105.12 1451.02 Z" fill="#000000" fill-rule="nonzero" fill-opacity="1" /><path clip-path="url(#clip640)" d="M1279.23 1454.1 Q1275.61 1454.1 1273.79 1457.66 Q1271.98 1461.2 1271.98 1468.33 Q1271.98 1475.44 1273.79 1479.01 Q1275.61 1482.55 1279.23 1482.55 Q1282.86 1482.55 1284.67 1479.01 Q1286.49 1475.44 1286.49 1468.33 Q1286.49 1461.2 1284.67 1457.66 Q1282.86 1454.1 1279.23 1454.1 M1279.23 1450.39 Q1285.04 1450.39 1288.09 1455 Q1291.17 1459.58 1291.17 1468.33 Q1291.17 1477.06 1288.09 1481.67 Q1285.04 1486.25 1279.23 1486.25 Q1273.42 1486.25 1270.34 1481.67 Q1267.28 1477.06 1267.28 1468.33 Q1267.28 1459.58 1270.34 1455 Q1273.42 1450.39 1279.23 1450.39 Z" fill="#000000" fill-rule="nonzero" fill-opacity="1" /><path clip-path="url(#clip640)" d="M1299.39 1479.7 L1304.27 1479.7 L1304.27 1485.58 L1299.39 1485.58 L1299.39 1479.7 Z" fill="#000000" fill-rule="nonzero" fill-opacity="1" /><path clip-path="url(#clip640)" d="M1324.46 1454.1 Q1320.85 1454.1 1319.02 1457.66 Q1317.21 1461.2 1317.21 1468.33 Q1317.21 1475.44 1319.02 1479.01 Q1320.85 1482.55 1324.46 1482.55 Q1328.09 1482.55 1329.9 1479.01 Q1331.73 1475.44 1331.73 1468.33 Q1331.73 1461.2 1329.9 1457.66 Q1328.09 1454.1 1324.46 1454.1 M1324.46 1450.39 Q1330.27 1450.39 1333.32 1455 Q1336.4 1459.58 1336.4 1468.33 Q1336.4 1477.06 1333.32 1481.67 Q1330.27 1486.25 1324.46 1486.25 Q1318.65 1486.25 1315.57 1481.67 Q1312.51 1477.06 1312.51 1468.33 Q1312.51 1459.58 1315.57 1455 Q1318.65 1450.39 1324.46 1450.39 Z" fill="#000000" fill-rule="nonzero" fill-opacity="1" /><path clip-path="url(#clip640)" d="M1354.62 1454.1 Q1351.01 1454.1 1349.18 1457.66 Q1347.37 1461.2 1347.37 1468.33 Q1347.37 1475.44 1349.18 1479.01 Q1351.01 1482.55 1354.62 1482.55 Q1358.25 1482.55 1360.06 1479.01 Q1361.89 1475.44 1361.89 1468.33 Q1361.89 1461.2 1360.06 1457.66 Q1358.25 1454.1 1354.62 1454.1 M1354.62 1450.39 Q1360.43 1450.39 1363.48 1455 Q1366.56 1459.58 1366.56 1468.33 Q1366.56 1477.06 1363.48 1481.67 Q1360.43 1486.25 1354.62 1486.25 Q1348.81 1486.25 1345.73 1481.67 Q1342.67 1477.06 1342.67 1468.33 Q1342.67 1459.58 1345.73 1455 Q1348.81 1450.39 1354.62 1450.39 Z" fill="#000000" fill-rule="nonzero" fill-opacity="1" /><path clip-path="url(#clip640)" d="M1538.68 1454.1 Q1535.07 1454.1 1533.24 1457.66 Q1531.44 1461.2 1531.44 1468.33 Q1531.44 1475.44 1533.24 1479.01 Q1535.07 1482.55 1538.68 1482.55 Q1542.32 1482.55 1544.12 1479.01 Q1545.95 1475.44 1545.95 1468.33 Q1545.95 1461.2 1544.12 1457.66 Q1542.32 1454.1 1538.68 1454.1 M1538.68 1450.39 Q1544.49 1450.39 1547.55 1455 Q1550.63 1459.58 1550.63 1468.33 Q1550.63 1477.06 1547.55 1481.67 Q1544.49 1486.25 1538.68 1486.25 Q1532.87 1486.25 1529.79 1481.67 Q1526.74 1477.06 1526.74 1468.33 Q1526.74 1459.58 1529.79 1455 Q1532.87 1450.39 1538.68 1450.39 Z" fill="#000000" fill-rule="nonzero" fill-opacity="1" /><path clip-path="url(#clip640)" d="M1558.84 1479.7 L1563.73 1479.7 L1563.73 1485.58 L1558.84 1485.58 L1558.84 1479.7 Z" fill="#000000" fill-rule="nonzero" fill-opacity="1" /><path clip-path="url(#clip640)" d="M1577.94 1481.64 L1594.26 1481.64 L1594.26 1485.58 L1572.32 1485.58 L1572.32 1481.64 Q1574.98 1478.89 1579.56 1474.26 Q1584.17 1469.61 1585.35 1468.27 Q1587.59 1465.74 1588.47 1464.01 Q1589.38 1462.25 1589.38 1460.56 Q1589.38 1457.8 1587.43 1456.07 Q1585.51 1454.33 1582.41 1454.33 Q1580.21 1454.33 1577.76 1455.09 Q1575.33 1455.86 1572.55 1457.41 L1572.55 1452.69 Q1575.37 1451.55 1577.82 1450.97 Q1580.28 1450.39 1582.32 1450.39 Q1587.69 1450.39 1590.88 1453.08 Q1594.07 1455.77 1594.07 1460.26 Q1594.07 1462.39 1593.26 1464.31 Q1592.48 1466.2 1590.37 1468.8 Q1589.79 1469.47 1586.69 1472.69 Q1583.59 1475.88 1577.94 1481.64 Z" fill="#000000" fill-rule="nonzero" fill-opacity="1" /><path clip-path="url(#clip640)" d="M1604.12 1451.02 L1622.48 1451.02 L1622.48 1454.96 L1608.4 1454.96 L1608.4 1463.43 Q1609.42 1463.08 1610.44 1462.92 Q1611.46 1462.73 1612.48 1462.73 Q1618.26 1462.73 1621.64 1465.9 Q1625.02 1469.08 1625.02 1474.49 Q1625.02 1480.07 1621.55 1483.17 Q1618.08 1486.25 1611.76 1486.25 Q1609.58 1486.25 1607.32 1485.88 Q1605.07 1485.51 1602.66 1484.77 L1602.66 1480.07 Q1604.75 1481.2 1606.97 1481.76 Q1609.19 1482.32 1611.67 1482.32 Q1615.67 1482.32 1618.01 1480.21 Q1620.35 1478.1 1620.35 1474.49 Q1620.35 1470.88 1618.01 1468.77 Q1615.67 1466.67 1611.67 1466.67 Q1609.79 1466.67 1607.92 1467.08 Q1606.07 1467.5 1604.12 1468.38 L1604.12 1451.02 Z" fill="#000000" fill-rule="nonzero" fill-opacity="1" /><path clip-path="url(#clip640)" d="M2304.83 1481.64 L2312.47 1481.64 L2312.47 1455.28 L2304.16 1456.95 L2304.16 1452.69 L2312.42 1451.02 L2317.1 1451.02 L2317.1 1481.64 L2324.74 1481.64 L2324.74 1485.58 L2304.83 1485.58 L2304.83 1481.64 Z" fill="#000000" fill-rule="nonzero" fill-opacity="1" /><path clip-path="url(#clip640)" d="M2334.18 1479.7 L2339.06 1479.7 L2339.06 1485.58 L2334.18 1485.58 L2334.18 1479.7 Z" fill="#000000" fill-rule="nonzero" fill-opacity="1" /><path clip-path="url(#clip640)" d="M2359.25 1454.1 Q2355.64 1454.1 2353.81 1457.66 Q2352 1461.2 2352 1468.33 Q2352 1475.44 2353.81 1479.01 Q2355.64 1482.55 2359.25 1482.55 Q2362.88 1482.55 2364.69 1479.01 Q2366.52 1475.44 2366.52 1468.33 Q2366.52 1461.2 2364.69 1457.66 Q2362.88 1454.1 2359.25 1454.1 M2359.25 1450.39 Q2365.06 1450.39 2368.11 1455 Q2371.19 1459.58 2371.19 1468.33 Q2371.19 1477.06 2368.11 1481.67 Q2365.06 1486.25 2359.25 1486.25 Q2353.44 1486.25 2350.36 1481.67 Q2347.3 1477.06 2347.3 1468.33 Q2347.3 1459.58 2350.36 1455 Q2353.44 1450.39 2359.25 1450.39 Z" fill="#000000" fill-rule="nonzero" fill-opacity="1" /><path clip-path="url(#clip640)" d="M2389.41 1454.1 Q2385.8 1454.1 2383.97 1457.66 Q2382.17 1461.2 2382.17 1468.33 Q2382.17 1475.44 2383.97 1479.01 Q2385.8 1482.55 2389.41 1482.55 Q2393.05 1482.55 2394.85 1479.01 Q2396.68 1475.44 2396.68 1468.33 Q2396.68 1461.2 2394.85 1457.66 Q2393.05 1454.1 2389.41 1454.1 M2389.41 1450.39 Q2395.22 1450.39 2398.28 1455 Q2401.36 1459.58 2401.36 1468.33 Q2401.36 1477.06 2398.28 1481.67 Q2395.22 1486.25 2389.41 1486.25 Q2383.6 1486.25 2380.52 1481.67 Q2377.47 1477.06 2377.47 1468.33 Q2377.47 1459.58 2380.52 1455 Q2383.6 1450.39 2389.41 1450.39 Z" fill="#000000" fill-rule="nonzero" fill-opacity="1" /><path clip-path="url(#clip640)" d="M1219.35 1532.4 L1247.17 1532.4 L1247.17 1537.74 L1225.14 1563.37 L1247.17 1563.37 L1247.17 1568.04 L1218.56 1568.04 L1218.56 1562.7 L1240.58 1537.07 L1219.35 1537.07 L1219.35 1532.4 Z" fill="#000000" fill-rule="nonzero" fill-opacity="1" /><path clip-path="url(#clip640)" d="M1276.29 1518.52 L1289.79 1518.52 L1289.79 1523.07 L1282.15 1523.07 L1282.15 1572.09 L1289.79 1572.09 L1289.79 1576.64 L1276.29 1576.64 L1276.29 1518.52 Z" fill="#000000" fill-rule="nonzero" fill-opacity="1" /><path clip-path="url(#clip640)" d="M1327.92 1533.76 L1327.92 1539.24 Q1325.44 1537.87 1322.92 1537.2 Q1320.44 1536.5 1317.89 1536.5 Q1312.2 1536.5 1309.04 1540.13 Q1305.89 1543.73 1305.89 1550.25 Q1305.89 1556.78 1309.04 1560.4 Q1312.2 1564 1317.89 1564 Q1320.44 1564 1322.92 1563.33 Q1325.44 1562.63 1327.92 1561.26 L1327.92 1566.68 Q1325.47 1567.82 1322.83 1568.39 Q1320.22 1568.97 1317.26 1568.97 Q1309.2 1568.97 1304.46 1563.91 Q1299.72 1558.85 1299.72 1550.25 Q1299.72 1541.53 1304.49 1536.53 Q1309.3 1531.54 1317.64 1531.54 Q1320.34 1531.54 1322.92 1532.11 Q1325.5 1532.65 1327.92 1533.76 Z" fill="#000000" fill-rule="nonzero" fill-opacity="1" /><path clip-path="url(#clip640)" d="M1365.86 1539.24 Q1368.05 1535.29 1371.11 1533.41 Q1374.17 1531.54 1378.3 1531.54 Q1383.87 1531.54 1386.9 1535.45 Q1389.92 1539.33 1389.92 1546.53 L1389.92 1568.04 L1384.03 1568.04 L1384.03 1546.72 Q1384.03 1541.59 1382.22 1539.11 Q1380.4 1536.63 1376.68 1536.63 Q1372.13 1536.63 1369.49 1539.65 Q1366.85 1542.68 1366.85 1547.9 L1366.85 1568.04 L1360.96 1568.04 L1360.96 1546.72 Q1360.96 1541.56 1359.14 1539.11 Q1357.33 1536.63 1353.54 1536.63 Q1349.05 1536.63 1346.41 1539.68 Q1343.77 1542.71 1343.77 1547.9 L1343.77 1568.04 L1337.88 1568.04 L1337.88 1532.4 L1343.77 1532.4 L1343.77 1537.93 Q1345.77 1534.66 1348.58 1533.1 Q1351.38 1531.54 1355.23 1531.54 Q1359.11 1531.54 1361.82 1533.51 Q1364.55 1535.48 1365.86 1539.24 Z" fill="#000000" fill-rule="nonzero" fill-opacity="1" /><path clip-path="url(#clip640)" d="M1415.29 1518.52 L1415.29 1576.64 L1401.79 1576.64 L1401.79 1572.09 L1409.4 1572.09 L1409.4 1523.07 L1401.79 1523.07 L1401.79 1518.52 L1415.29 1518.52 Z" fill="#000000" fill-rule="nonzero" fill-opacity="1" /><polyline clip-path="url(#clip640)" style="stroke:#000000; stroke-linecap:round; stroke-linejoin:round; stroke-width:4; stroke-opacity:1; fill:none" points="281.088,1423.18 281.088,887.244 "/>
<polyline clip-path="url(#clip640)" style="stroke:#000000; stroke-linecap:round; stroke-linejoin:round; stroke-width:4; stroke-opacity:1; fill:none" points="281.088,1397.69 299.986,1397.69 "/>
<polyline clip-path="url(#clip640)" style="stroke:#000000; stroke-linecap:round; stroke-linejoin:round; stroke-width:4; stroke-opacity:1; fill:none" points="281.088,1324.11 299.986,1324.11 "/>
<polyline clip-path="url(#clip640)" style="stroke:#000000; stroke-linecap:round; stroke-linejoin:round; stroke-width:4; stroke-opacity:1; fill:none" points="281.088,1250.52 299.986,1250.52 "/>
<polyline clip-path="url(#clip640)" style="stroke:#000000; stroke-linecap:round; stroke-linejoin:round; stroke-width:4; stroke-opacity:1; fill:none" points="281.088,1176.93 299.986,1176.93 "/>
<polyline clip-path="url(#clip640)" style="stroke:#000000; stroke-linecap:round; stroke-linejoin:round; stroke-width:4; stroke-opacity:1; fill:none" points="281.088,1103.35 299.986,1103.35 "/>
<polyline clip-path="url(#clip640)" style="stroke:#000000; stroke-linecap:round; stroke-linejoin:round; stroke-width:4; stroke-opacity:1; fill:none" points="281.088,1029.76 299.986,1029.76 "/>
<polyline clip-path="url(#clip640)" style="stroke:#000000; stroke-linecap:round; stroke-linejoin:round; stroke-width:4; stroke-opacity:1; fill:none" points="281.088,956.178 299.986,956.178 "/>
<path clip-path="url(#clip640)" d="M108.168 1398.14 L137.844 1398.14 L137.844 1402.08 L108.168 1402.08 L108.168 1398.14 Z" fill="#000000" fill-rule="nonzero" fill-opacity="1" /><path clip-path="url(#clip640)" d="M157.936 1383.49 Q154.325 1383.49 152.496 1387.05 Q150.691 1390.6 150.691 1397.73 Q150.691 1404.83 152.496 1408.4 Q154.325 1411.94 157.936 1411.94 Q161.57 1411.94 163.376 1408.4 Q165.204 1404.83 165.204 1397.73 Q165.204 1390.6 163.376 1387.05 Q161.57 1383.49 157.936 1383.49 M157.936 1379.79 Q163.746 1379.79 166.802 1384.39 Q169.88 1388.98 169.88 1397.73 Q169.88 1406.45 166.802 1411.06 Q163.746 1415.64 157.936 1415.64 Q152.126 1415.64 149.047 1411.06 Q145.992 1406.45 145.992 1397.73 Q145.992 1388.98 149.047 1384.39 Q152.126 1379.79 157.936 1379.79 Z" fill="#000000" fill-rule="nonzero" fill-opacity="1" /><path clip-path="url(#clip640)" d="M178.098 1409.09 L182.982 1409.09 L182.982 1414.97 L178.098 1414.97 L178.098 1409.09 Z" fill="#000000" fill-rule="nonzero" fill-opacity="1" /><path clip-path="url(#clip640)" d="M203.167 1383.49 Q199.556 1383.49 197.727 1387.05 Q195.922 1390.6 195.922 1397.73 Q195.922 1404.83 197.727 1408.4 Q199.556 1411.94 203.167 1411.94 Q206.801 1411.94 208.607 1408.4 Q210.436 1404.83 210.436 1397.73 Q210.436 1390.6 208.607 1387.05 Q206.801 1383.49 203.167 1383.49 M203.167 1379.79 Q208.977 1379.79 212.033 1384.39 Q215.112 1388.98 215.112 1397.73 Q215.112 1406.45 212.033 1411.06 Q208.977 1415.64 203.167 1415.64 Q197.357 1415.64 194.278 1411.06 Q191.223 1406.45 191.223 1397.73 Q191.223 1388.98 194.278 1384.39 Q197.357 1379.79 203.167 1379.79 Z" fill="#000000" fill-rule="nonzero" fill-opacity="1" /><path clip-path="url(#clip640)" d="M223.468 1414.25 L223.468 1409.99 Q225.227 1410.83 227.033 1411.27 Q228.838 1411.71 230.574 1411.71 Q235.204 1411.71 237.635 1408.6 Q240.088 1405.48 240.436 1399.14 Q239.093 1401.13 237.033 1402.19 Q234.973 1403.26 232.473 1403.26 Q227.287 1403.26 224.255 1400.13 Q221.246 1396.98 221.246 1391.54 Q221.246 1386.22 224.394 1383 Q227.542 1379.79 232.774 1379.79 Q238.769 1379.79 241.917 1384.39 Q245.088 1388.98 245.088 1397.73 Q245.088 1405.9 241.199 1410.78 Q237.334 1415.64 230.783 1415.64 Q229.024 1415.64 227.218 1415.29 Q225.412 1414.95 223.468 1414.25 M232.774 1399.6 Q235.922 1399.6 237.75 1397.45 Q239.602 1395.29 239.602 1391.54 Q239.602 1387.82 237.75 1385.67 Q235.922 1383.49 232.774 1383.49 Q229.625 1383.49 227.774 1385.67 Q225.945 1387.82 225.945 1391.54 Q225.945 1395.29 227.774 1397.45 Q229.625 1399.6 232.774 1399.6 Z" fill="#000000" fill-rule="nonzero" fill-opacity="1" /><path clip-path="url(#clip640)" d="M108.075 1324.56 L137.751 1324.56 L137.751 1328.49 L108.075 1328.49 L108.075 1324.56 Z" fill="#000000" fill-rule="nonzero" fill-opacity="1" /><path clip-path="url(#clip640)" d="M157.843 1309.9 Q154.232 1309.9 152.404 1313.47 Q150.598 1317.01 150.598 1324.14 Q150.598 1331.25 152.404 1334.81 Q154.232 1338.35 157.843 1338.35 Q161.478 1338.35 163.283 1334.81 Q165.112 1331.25 165.112 1324.14 Q165.112 1317.01 163.283 1313.47 Q161.478 1309.9 157.843 1309.9 M157.843 1306.2 Q163.654 1306.2 166.709 1310.81 Q169.788 1315.39 169.788 1324.14 Q169.788 1332.87 166.709 1337.47 Q163.654 1342.06 157.843 1342.06 Q152.033 1342.06 148.955 1337.47 Q145.899 1332.87 145.899 1324.14 Q145.899 1315.39 148.955 1310.81 Q152.033 1306.2 157.843 1306.2 Z" fill="#000000" fill-rule="nonzero" fill-opacity="1" /><path clip-path="url(#clip640)" d="M178.005 1335.51 L182.89 1335.51 L182.89 1341.39 L178.005 1341.39 L178.005 1335.51 Z" fill="#000000" fill-rule="nonzero" fill-opacity="1" /><path clip-path="url(#clip640)" d="M203.075 1309.9 Q199.464 1309.9 197.635 1313.47 Q195.829 1317.01 195.829 1324.14 Q195.829 1331.25 197.635 1334.81 Q199.464 1338.35 203.075 1338.35 Q206.709 1338.35 208.514 1334.81 Q210.343 1331.25 210.343 1324.14 Q210.343 1317.01 208.514 1313.47 Q206.709 1309.9 203.075 1309.9 M203.075 1306.2 Q208.885 1306.2 211.94 1310.81 Q215.019 1315.39 215.019 1324.14 Q215.019 1332.87 211.94 1337.47 Q208.885 1342.06 203.075 1342.06 Q197.264 1342.06 194.186 1337.47 Q191.13 1332.87 191.13 1324.14 Q191.13 1315.39 194.186 1310.81 Q197.264 1306.2 203.075 1306.2 Z" fill="#000000" fill-rule="nonzero" fill-opacity="1" /><path clip-path="url(#clip640)" d="M233.237 1324.97 Q229.903 1324.97 227.982 1326.76 Q226.084 1328.54 226.084 1331.66 Q226.084 1334.79 227.982 1336.57 Q229.903 1338.35 233.237 1338.35 Q236.57 1338.35 238.491 1336.57 Q240.412 1334.76 240.412 1331.66 Q240.412 1328.54 238.491 1326.76 Q236.593 1324.97 233.237 1324.97 M228.561 1322.98 Q225.551 1322.24 223.862 1320.18 Q222.195 1318.12 222.195 1315.16 Q222.195 1311.01 225.135 1308.61 Q228.098 1306.2 233.237 1306.2 Q238.399 1306.2 241.338 1308.61 Q244.278 1311.01 244.278 1315.16 Q244.278 1318.12 242.588 1320.18 Q240.922 1322.24 237.936 1322.98 Q241.315 1323.77 243.19 1326.06 Q245.088 1328.35 245.088 1331.66 Q245.088 1336.69 242.01 1339.37 Q238.954 1342.06 233.237 1342.06 Q227.519 1342.06 224.44 1339.37 Q221.385 1336.69 221.385 1331.66 Q221.385 1328.35 223.283 1326.06 Q225.181 1323.77 228.561 1322.98 M226.848 1315.6 Q226.848 1318.28 228.514 1319.79 Q230.204 1321.29 233.237 1321.29 Q236.246 1321.29 237.936 1319.79 Q239.649 1318.28 239.649 1315.6 Q239.649 1312.91 237.936 1311.41 Q236.246 1309.9 233.237 1309.9 Q230.204 1309.9 228.514 1311.41 Q226.848 1312.91 226.848 1315.6 Z" fill="#000000" fill-rule="nonzero" fill-opacity="1" /><path clip-path="url(#clip640)" d="M108.885 1250.97 L138.561 1250.97 L138.561 1254.91 L108.885 1254.91 L108.885 1250.97 Z" fill="#000000" fill-rule="nonzero" fill-opacity="1" /><path clip-path="url(#clip640)" d="M158.654 1236.32 Q155.042 1236.32 153.214 1239.88 Q151.408 1243.42 151.408 1250.55 Q151.408 1257.66 153.214 1261.23 Q155.042 1264.77 158.654 1264.77 Q162.288 1264.77 164.093 1261.23 Q165.922 1257.66 165.922 1250.55 Q165.922 1243.42 164.093 1239.88 Q162.288 1236.32 158.654 1236.32 M158.654 1232.61 Q164.464 1232.61 167.519 1237.22 Q170.598 1241.8 170.598 1250.55 Q170.598 1259.28 167.519 1263.89 Q164.464 1268.47 158.654 1268.47 Q152.843 1268.47 149.765 1263.89 Q146.709 1259.28 146.709 1250.55 Q146.709 1241.8 149.765 1237.22 Q152.843 1232.61 158.654 1232.61 Z" fill="#000000" fill-rule="nonzero" fill-opacity="1" /><path clip-path="url(#clip640)" d="M178.816 1261.92 L183.7 1261.92 L183.7 1267.8 L178.816 1267.8 L178.816 1261.92 Z" fill="#000000" fill-rule="nonzero" fill-opacity="1" /><path clip-path="url(#clip640)" d="M203.885 1236.32 Q200.274 1236.32 198.445 1239.88 Q196.639 1243.42 196.639 1250.55 Q196.639 1257.66 198.445 1261.23 Q200.274 1264.77 203.885 1264.77 Q207.519 1264.77 209.325 1261.23 Q211.153 1257.66 211.153 1250.55 Q211.153 1243.42 209.325 1239.88 Q207.519 1236.32 203.885 1236.32 M203.885 1232.61 Q209.695 1232.61 212.751 1237.22 Q215.829 1241.8 215.829 1250.55 Q215.829 1259.28 212.751 1263.89 Q209.695 1268.47 203.885 1268.47 Q198.075 1268.47 194.996 1263.89 Q191.94 1259.28 191.94 1250.55 Q191.94 1241.8 194.996 1237.22 Q198.075 1232.61 203.885 1232.61 Z" fill="#000000" fill-rule="nonzero" fill-opacity="1" /><path clip-path="url(#clip640)" d="M222.866 1233.24 L245.088 1233.24 L245.088 1235.23 L232.542 1267.8 L227.658 1267.8 L239.463 1237.17 L222.866 1237.17 L222.866 1233.24 Z" fill="#000000" fill-rule="nonzero" fill-opacity="1" /><path clip-path="url(#clip640)" d="M107.821 1177.39 L137.496 1177.39 L137.496 1181.32 L107.821 1181.32 L107.821 1177.39 Z" fill="#000000" fill-rule="nonzero" fill-opacity="1" /><path clip-path="url(#clip640)" d="M157.589 1162.73 Q153.978 1162.73 152.149 1166.3 Q150.343 1169.84 150.343 1176.97 Q150.343 1184.08 152.149 1187.64 Q153.978 1191.18 157.589 1191.18 Q161.223 1191.18 163.029 1187.64 Q164.857 1184.08 164.857 1176.97 Q164.857 1169.84 163.029 1166.3 Q161.223 1162.73 157.589 1162.73 M157.589 1159.03 Q163.399 1159.03 166.454 1163.64 Q169.533 1168.22 169.533 1176.97 Q169.533 1185.7 166.454 1190.3 Q163.399 1194.89 157.589 1194.89 Q151.779 1194.89 148.7 1190.3 Q145.644 1185.7 145.644 1176.97 Q145.644 1168.22 148.7 1163.64 Q151.779 1159.03 157.589 1159.03 Z" fill="#000000" fill-rule="nonzero" fill-opacity="1" /><path clip-path="url(#clip640)" d="M177.751 1188.33 L182.635 1188.33 L182.635 1194.21 L177.751 1194.21 L177.751 1188.33 Z" fill="#000000" fill-rule="nonzero" fill-opacity="1" /><path clip-path="url(#clip640)" d="M202.82 1162.73 Q199.209 1162.73 197.38 1166.3 Q195.575 1169.84 195.575 1176.97 Q195.575 1184.08 197.38 1187.64 Q199.209 1191.18 202.82 1191.18 Q206.454 1191.18 208.26 1187.64 Q210.088 1184.08 210.088 1176.97 Q210.088 1169.84 208.26 1166.3 Q206.454 1162.73 202.82 1162.73 M202.82 1159.03 Q208.63 1159.03 211.686 1163.64 Q214.764 1168.22 214.764 1176.97 Q214.764 1185.7 211.686 1190.3 Q208.63 1194.89 202.82 1194.89 Q197.01 1194.89 193.931 1190.3 Q190.876 1185.7 190.876 1176.97 Q190.876 1168.22 193.931 1163.64 Q197.01 1159.03 202.82 1159.03 Z" fill="#000000" fill-rule="nonzero" fill-opacity="1" /><path clip-path="url(#clip640)" d="M233.561 1175.07 Q230.412 1175.07 228.561 1177.22 Q226.732 1179.38 226.732 1183.13 Q226.732 1186.85 228.561 1189.03 Q230.412 1191.18 233.561 1191.18 Q236.709 1191.18 238.537 1189.03 Q240.389 1186.85 240.389 1183.13 Q240.389 1179.38 238.537 1177.22 Q236.709 1175.07 233.561 1175.07 M242.843 1160.42 L242.843 1164.68 Q241.084 1163.84 239.278 1163.4 Q237.496 1162.96 235.737 1162.96 Q231.107 1162.96 228.653 1166.09 Q226.223 1169.21 225.875 1175.53 Q227.241 1173.52 229.301 1172.46 Q231.362 1171.37 233.838 1171.37 Q239.047 1171.37 242.056 1174.54 Q245.088 1177.69 245.088 1183.13 Q245.088 1188.45 241.94 1191.67 Q238.792 1194.89 233.561 1194.89 Q227.565 1194.89 224.394 1190.3 Q221.223 1185.7 221.223 1176.97 Q221.223 1168.77 225.112 1163.91 Q229 1159.03 235.551 1159.03 Q237.311 1159.03 239.093 1159.38 Q240.899 1159.72 242.843 1160.42 Z" fill="#000000" fill-rule="nonzero" fill-opacity="1" /><path clip-path="url(#clip640)" d="M108.978 1103.8 L138.654 1103.8 L138.654 1107.74 L108.978 1107.74 L108.978 1103.8 Z" fill="#000000" fill-rule="nonzero" fill-opacity="1" /><path clip-path="url(#clip640)" d="M158.746 1089.15 Q155.135 1089.15 153.306 1092.71 Q151.501 1096.25 151.501 1103.38 Q151.501 1110.49 153.306 1114.05 Q155.135 1117.6 158.746 1117.6 Q162.38 1117.6 164.186 1114.05 Q166.015 1110.49 166.015 1103.38 Q166.015 1096.25 164.186 1092.71 Q162.38 1089.15 158.746 1089.15 M158.746 1085.44 Q164.556 1085.44 167.612 1090.05 Q170.691 1094.63 170.691 1103.38 Q170.691 1112.11 167.612 1116.72 Q164.556 1121.3 158.746 1121.3 Q152.936 1121.3 149.857 1116.72 Q146.802 1112.11 146.802 1103.38 Q146.802 1094.63 149.857 1090.05 Q152.936 1085.44 158.746 1085.44 Z" fill="#000000" fill-rule="nonzero" fill-opacity="1" /><path clip-path="url(#clip640)" d="M178.908 1114.75 L183.792 1114.75 L183.792 1120.63 L178.908 1120.63 L178.908 1114.75 Z" fill="#000000" fill-rule="nonzero" fill-opacity="1" /><path clip-path="url(#clip640)" d="M203.977 1089.15 Q200.366 1089.15 198.538 1092.71 Q196.732 1096.25 196.732 1103.38 Q196.732 1110.49 198.538 1114.05 Q200.366 1117.6 203.977 1117.6 Q207.612 1117.6 209.417 1114.05 Q211.246 1110.49 211.246 1103.38 Q211.246 1096.25 209.417 1092.71 Q207.612 1089.15 203.977 1089.15 M203.977 1085.44 Q209.788 1085.44 212.843 1090.05 Q215.922 1094.63 215.922 1103.38 Q215.922 1112.11 212.843 1116.72 Q209.788 1121.3 203.977 1121.3 Q198.167 1121.3 195.089 1116.72 Q192.033 1112.11 192.033 1103.38 Q192.033 1094.63 195.089 1090.05 Q198.167 1085.44 203.977 1085.44 Z" fill="#000000" fill-rule="nonzero" fill-opacity="1" /><path clip-path="url(#clip640)" d="M224.186 1086.07 L242.542 1086.07 L242.542 1090 L228.468 1090 L228.468 1098.48 Q229.487 1098.13 230.505 1097.97 Q231.524 1097.78 232.542 1097.78 Q238.329 1097.78 241.709 1100.95 Q245.088 1104.12 245.088 1109.54 Q245.088 1115.12 241.616 1118.22 Q238.144 1121.3 231.824 1121.3 Q229.649 1121.3 227.38 1120.93 Q225.135 1120.56 222.727 1119.82 L222.727 1115.12 Q224.811 1116.25 227.033 1116.81 Q229.255 1117.36 231.732 1117.36 Q235.737 1117.36 238.074 1115.26 Q240.412 1113.15 240.412 1109.54 Q240.412 1105.93 238.074 1103.82 Q235.737 1101.72 231.732 1101.72 Q229.857 1101.72 227.982 1102.13 Q226.13 1102.55 224.186 1103.43 L224.186 1086.07 Z" fill="#000000" fill-rule="nonzero" fill-opacity="1" /><path clip-path="url(#clip640)" d="M107.496 1030.21 L137.172 1030.21 L137.172 1034.15 L107.496 1034.15 L107.496 1030.21 Z" fill="#000000" fill-rule="nonzero" fill-opacity="1" /><path clip-path="url(#clip640)" d="M157.265 1015.56 Q153.654 1015.56 151.825 1019.13 Q150.019 1022.67 150.019 1029.8 Q150.019 1036.9 151.825 1040.47 Q153.654 1044.01 157.265 1044.01 Q160.899 1044.01 162.704 1040.47 Q164.533 1036.9 164.533 1029.8 Q164.533 1022.67 162.704 1019.13 Q160.899 1015.56 157.265 1015.56 M157.265 1011.86 Q163.075 1011.86 166.13 1016.46 Q169.209 1021.05 169.209 1029.8 Q169.209 1038.52 166.13 1043.13 Q163.075 1047.71 157.265 1047.71 Q151.455 1047.71 148.376 1043.13 Q145.32 1038.52 145.32 1029.8 Q145.32 1021.05 148.376 1016.46 Q151.455 1011.86 157.265 1011.86 Z" fill="#000000" fill-rule="nonzero" fill-opacity="1" /><path clip-path="url(#clip640)" d="M177.427 1041.16 L182.311 1041.16 L182.311 1047.04 L177.427 1047.04 L177.427 1041.16 Z" fill="#000000" fill-rule="nonzero" fill-opacity="1" /><path clip-path="url(#clip640)" d="M202.496 1015.56 Q198.885 1015.56 197.056 1019.13 Q195.251 1022.67 195.251 1029.8 Q195.251 1036.9 197.056 1040.47 Q198.885 1044.01 202.496 1044.01 Q206.13 1044.01 207.936 1040.47 Q209.764 1036.9 209.764 1029.8 Q209.764 1022.67 207.936 1019.13 Q206.13 1015.56 202.496 1015.56 M202.496 1011.86 Q208.306 1011.86 211.362 1016.46 Q214.44 1021.05 214.44 1029.8 Q214.44 1038.52 211.362 1043.13 Q208.306 1047.71 202.496 1047.71 Q196.686 1047.71 193.607 1043.13 Q190.552 1038.52 190.552 1029.8 Q190.552 1021.05 193.607 1016.46 Q196.686 1011.86 202.496 1011.86 Z" fill="#000000" fill-rule="nonzero" fill-opacity="1" /><path clip-path="url(#clip640)" d="M235.505 1016.56 L223.7 1035.01 L235.505 1035.01 L235.505 1016.56 M234.278 1012.48 L240.158 1012.48 L240.158 1035.01 L245.088 1035.01 L245.088 1038.9 L240.158 1038.9 L240.158 1047.04 L235.505 1047.04 L235.505 1038.9 L219.903 1038.9 L219.903 1034.38 L234.278 1012.48 Z" fill="#000000" fill-rule="nonzero" fill-opacity="1" /><path clip-path="url(#clip640)" d="M108.631 956.629 L138.306 956.629 L138.306 960.565 L108.631 960.565 L108.631 956.629 Z" fill="#000000" fill-rule="nonzero" fill-opacity="1" /><path clip-path="url(#clip640)" d="M158.399 941.977 Q154.788 941.977 152.959 945.541 Q151.154 949.083 151.154 956.213 Q151.154 963.319 152.959 966.884 Q154.788 970.426 158.399 970.426 Q162.033 970.426 163.839 966.884 Q165.667 963.319 165.667 956.213 Q165.667 949.083 163.839 945.541 Q162.033 941.977 158.399 941.977 M158.399 938.273 Q164.209 938.273 167.265 942.879 Q170.343 947.463 170.343 956.213 Q170.343 964.94 167.265 969.546 Q164.209 974.129 158.399 974.129 Q152.589 974.129 149.51 969.546 Q146.455 964.94 146.455 956.213 Q146.455 947.463 149.51 942.879 Q152.589 938.273 158.399 938.273 Z" fill="#000000" fill-rule="nonzero" fill-opacity="1" /><path clip-path="url(#clip640)" d="M178.561 967.578 L183.445 967.578 L183.445 973.458 L178.561 973.458 L178.561 967.578 Z" fill="#000000" fill-rule="nonzero" fill-opacity="1" /><path clip-path="url(#clip640)" d="M203.63 941.977 Q200.019 941.977 198.19 945.541 Q196.385 949.083 196.385 956.213 Q196.385 963.319 198.19 966.884 Q200.019 970.426 203.63 970.426 Q207.264 970.426 209.07 966.884 Q210.899 963.319 210.899 956.213 Q210.899 949.083 209.07 945.541 Q207.264 941.977 203.63 941.977 M203.63 938.273 Q209.44 938.273 212.496 942.879 Q215.575 947.463 215.575 956.213 Q215.575 964.94 212.496 969.546 Q209.44 974.129 203.63 974.129 Q197.82 974.129 194.741 969.546 Q191.686 964.94 191.686 956.213 Q191.686 947.463 194.741 942.879 Q197.82 938.273 203.63 938.273 Z" fill="#000000" fill-rule="nonzero" fill-opacity="1" /><path clip-path="url(#clip640)" d="M237.959 954.824 Q241.315 955.541 243.19 957.81 Q245.088 960.078 245.088 963.412 Q245.088 968.527 241.57 971.328 Q238.051 974.129 231.57 974.129 Q229.394 974.129 227.079 973.689 Q224.787 973.273 222.334 972.416 L222.334 967.902 Q224.278 969.037 226.593 969.615 Q228.908 970.194 231.431 970.194 Q235.829 970.194 238.121 968.458 Q240.436 966.722 240.436 963.412 Q240.436 960.356 238.283 958.643 Q236.153 956.907 232.334 956.907 L228.306 956.907 L228.306 953.065 L232.519 953.065 Q235.968 953.065 237.797 951.699 Q239.625 950.31 239.625 947.717 Q239.625 945.055 237.727 943.643 Q235.852 942.208 232.334 942.208 Q230.412 942.208 228.213 942.625 Q226.014 943.041 223.375 943.921 L223.375 939.754 Q226.037 939.014 228.352 938.643 Q230.69 938.273 232.75 938.273 Q238.074 938.273 241.176 940.704 Q244.278 943.111 244.278 947.231 Q244.278 950.102 242.635 952.092 Q240.991 954.06 237.959 954.824 Z" fill="#000000" fill-rule="nonzero" fill-opacity="1" /><polyline clip-path="url(#clip643)" style="stroke:#009af9; stroke-linecap:round; stroke-linejoin:round; stroke-width:8; stroke-opacity:1; fill:none" points="1213.34,902.412 1223.7,979.125 1234.06,1033.83 1244.41,1057.88 1254.77,1055.36 1265.13,1038.33 1275.49,1021.53 1285.85,1019.06 1296.21,1041.1 1306.56,1089.43 1316.92,1154.6 1327.28,1218.9 1337.64,1265.09 1348,1284.69 1358.36,1280.43 1368.71,1263 1379.07,1246.68 1389.43,1246.14 1399.79,1272.94 1410.15,1330.19 1420.51,1408.01 "/>
<path clip-path="url(#clip640)" d="M1942.48 1199 L2283.7 1199 L2283.7 1095.32 L1942.48 1095.32  Z" fill="#ffffff" fill-rule="evenodd" fill-opacity="1"/>
<polyline clip-path="url(#clip640)" style="stroke:#000000; stroke-linecap:round; stroke-linejoin:round; stroke-width:4; stroke-opacity:1; fill:none" points="1942.48,1199 2283.7,1199 2283.7,1095.32 1942.48,1095.32 1942.48,1199 "/>
<polyline clip-path="url(#clip640)" style="stroke:#009af9; stroke-linecap:round; stroke-linejoin:round; stroke-width:8; stroke-opacity:1; fill:none" points="1965.5,1147.16 2103.61,1147.16 "/>
<path clip-path="url(#clip640)" d="M2159.83 1159.76 L2159.83 1164.44 L2126.63 1164.44 L2148.69 1129.88 L2154.29 1129.88 L2135.29 1159.76 L2159.83 1159.76 Z" fill="#000000" fill-rule="nonzero" fill-opacity="1" /><path clip-path="url(#clip640)" d="M2169.73 1129.88 L2176.7 1129.88 L2185.52 1153.39 L2194.39 1129.88 L2201.35 1129.88 L2201.35 1164.44 L2196.79 1164.44 L2196.79 1134.09 L2187.88 1157.79 L2183.18 1157.79 L2174.27 1134.09 L2174.27 1164.44 L2169.73 1164.44 L2169.73 1129.88 Z" fill="#000000" fill-rule="nonzero" fill-opacity="1" /><path clip-path="url(#clip640)" d="M2232 1138.51 L2222.63 1151.13 L2232.49 1164.44 L2227.46 1164.44 L2219.92 1154.25 L2212.37 1164.44 L2207.35 1164.44 L2217.42 1150.87 L2208.21 1138.51 L2213.23 1138.51 L2220.1 1147.75 L2226.98 1138.51 L2232 1138.51 Z" fill="#000000" fill-rule="nonzero" fill-opacity="1" /><path clip-path="url(#clip640)" d="M2249.29 1166.84 Q2247.49 1171.47 2245.77 1172.89 Q2244.06 1174.3 2241.19 1174.3 L2237.79 1174.3 L2237.79 1170.73 L2240.29 1170.73 Q2242.05 1170.73 2243.02 1169.9 Q2243.99 1169.07 2245.17 1165.96 L2245.94 1164.02 L2235.45 1138.51 L2239.96 1138.51 L2248.07 1158.79 L2256.17 1138.51 L2260.68 1138.51 L2249.29 1166.84 Z" fill="#000000" fill-rule="nonzero" fill-opacity="1" /><path clip-path="url(#clip640)" d="M281.088 80 L2352.76 80 L2352.76 0 L281.088 0  Z" fill="#ffffff" fill-rule="evenodd" fill-opacity="1"/>
<path clip-path="url(#clip640)" d="M524.218 16.0925 L524.218 25.2128 Q518.894 22.6665 514.172 21.4166 Q509.45 20.1666 505.051 20.1666 Q497.413 20.1666 493.246 23.1295 Q489.126 26.0925 489.126 31.5554 Q489.126 36.1387 491.857 38.4998 Q494.635 40.8146 502.32 42.2498 L507.968 43.4072 Q518.431 45.3979 523.385 50.4442 Q528.385 55.4441 528.385 63.87 Q528.385 73.9163 521.625 79.1014 Q514.913 84.2866 501.903 84.2866 Q496.996 84.2866 491.44 83.1755 Q485.931 82.0644 480.005 79.8885 L480.005 70.2589 Q485.7 73.4533 491.163 75.0737 Q496.626 76.694 501.903 76.694 Q509.913 76.694 514.264 73.5459 Q518.616 70.3978 518.616 64.5645 Q518.616 59.4719 515.468 56.6015 Q512.366 53.7312 505.237 52.296 L499.542 51.1849 Q489.079 49.1016 484.403 44.6572 Q479.728 40.2127 479.728 32.2961 Q479.728 23.1295 486.163 17.8518 Q492.644 12.574 503.987 12.574 Q508.848 12.574 513.894 13.4536 Q518.94 14.3333 524.218 16.0925 Z" fill="#000000" fill-rule="nonzero" fill-opacity="1" /><path clip-path="url(#clip640)" d="M542.598 10.9073 L551.116 10.9073 L551.116 82.944 L542.598 82.944 L542.598 10.9073 Z" fill="#000000" fill-rule="nonzero" fill-opacity="1" /><path clip-path="url(#clip640)" d="M568.94 31.0924 L577.458 31.0924 L577.458 82.944 L568.94 82.944 L568.94 31.0924 M568.94 10.9073 L577.458 10.9073 L577.458 21.6943 L568.94 21.6943 L568.94 10.9073 Z" fill="#000000" fill-rule="nonzero" fill-opacity="1" /><path clip-path="url(#clip640)" d="M632.597 33.0832 L632.597 41.0461 Q628.986 39.0553 625.329 38.0831 Q621.717 37.0646 618.014 37.0646 Q609.727 37.0646 605.144 42.3424 Q600.56 47.5738 600.56 57.0645 Q600.56 66.5552 605.144 71.8329 Q609.727 77.0644 618.014 77.0644 Q621.717 77.0644 625.329 76.0922 Q628.986 75.0737 632.597 73.0829 L632.597 80.9533 Q629.032 82.6199 625.19 83.4533 Q621.393 84.2866 617.088 84.2866 Q605.375 84.2866 598.477 76.9255 Q591.579 69.5644 591.579 57.0645 Q591.579 44.3794 598.523 37.1109 Q605.514 29.8424 617.643 29.8424 Q621.579 29.8424 625.329 30.6758 Q629.079 31.4628 632.597 33.0832 Z" fill="#000000" fill-rule="nonzero" fill-opacity="1" /><path clip-path="url(#clip640)" d="M691.763 54.8886 L691.763 59.0552 L652.597 59.0552 Q653.153 67.8515 657.875 72.4811 Q662.643 77.0644 671.115 77.0644 Q676.023 77.0644 680.606 75.8607 Q685.236 74.657 689.773 72.2496 L689.773 80.3051 Q685.189 82.2496 680.375 83.2681 Q675.56 84.2866 670.606 84.2866 Q658.199 84.2866 650.93 77.0644 Q643.708 69.8422 643.708 57.5275 Q643.708 44.7961 650.56 37.3424 Q657.458 29.8424 669.125 29.8424 Q679.588 29.8424 685.652 36.6017 Q691.763 43.3146 691.763 54.8886 M683.245 52.3886 Q683.152 45.3979 679.31 41.2313 Q675.514 37.0646 669.217 37.0646 Q662.088 37.0646 657.782 41.0924 Q653.523 45.1201 652.875 52.4349 L683.245 52.3886 Z" fill="#000000" fill-rule="nonzero" fill-opacity="1" /><path clip-path="url(#clip640)" d="M744.124 75.1663 L744.124 102.666 L735.559 102.666 L735.559 31.0924 L744.124 31.0924 L744.124 38.9628 Q746.809 34.3331 750.883 32.1109 Q755.004 29.8424 760.698 29.8424 Q770.143 29.8424 776.022 37.3424 Q781.948 44.8424 781.948 57.0645 Q781.948 69.2867 776.022 76.7866 Q770.143 84.2866 760.698 84.2866 Q755.004 84.2866 750.883 82.0644 Q746.809 79.7959 744.124 75.1663 M773.106 57.0645 Q773.106 47.6664 769.217 42.3424 Q765.374 36.972 758.615 36.972 Q751.856 36.972 747.967 42.3424 Q744.124 47.6664 744.124 57.0645 Q744.124 66.4626 747.967 71.8329 Q751.856 77.157 758.615 77.157 Q765.374 77.157 769.217 71.8329 Q773.106 66.4626 773.106 57.0645 Z" fill="#000000" fill-rule="nonzero" fill-opacity="1" /><path clip-path="url(#clip640)" d="M826.115 39.0553 Q824.679 38.222 822.966 37.8516 Q821.3 37.435 819.263 37.435 Q812.041 37.435 808.152 42.1572 Q804.309 46.8331 804.309 55.6293 L804.309 82.944 L795.744 82.944 L795.744 31.0924 L804.309 31.0924 L804.309 39.1479 Q806.994 34.4257 811.3 32.1572 Q815.605 29.8424 821.763 29.8424 Q822.642 29.8424 823.707 29.9813 Q824.772 30.0739 826.068 30.3054 L826.115 39.0553 Z" fill="#000000" fill-rule="nonzero" fill-opacity="1" /><path clip-path="url(#clip640)" d="M853.059 37.0646 Q846.207 37.0646 842.226 42.435 Q838.244 47.759 838.244 57.0645 Q838.244 66.37 842.179 71.7404 Q846.161 77.0644 853.059 77.0644 Q859.864 77.0644 863.846 71.6941 Q867.827 66.3237 867.827 57.0645 Q867.827 47.8516 863.846 42.4813 Q859.864 37.0646 853.059 37.0646 M853.059 29.8424 Q864.17 29.8424 870.512 37.0646 Q876.855 44.2868 876.855 57.0645 Q876.855 69.7959 870.512 77.0644 Q864.17 84.2866 853.059 84.2866 Q841.902 84.2866 835.559 77.0644 Q829.263 69.7959 829.263 57.0645 Q829.263 44.2868 835.559 37.0646 Q841.902 29.8424 853.059 29.8424 Z" fill="#000000" fill-rule="nonzero" fill-opacity="1" /><path clip-path="url(#clip640)" d="M917.225 10.9073 L917.225 17.9906 L909.077 17.9906 Q904.494 17.9906 902.688 19.8425 Q900.929 21.6943 900.929 26.5091 L900.929 31.0924 L914.957 31.0924 L914.957 37.7128 L900.929 37.7128 L900.929 82.944 L892.364 82.944 L892.364 37.7128 L884.216 37.7128 L884.216 31.0924 L892.364 31.0924 L892.364 27.4813 Q892.364 18.824 896.392 14.8888 Q900.42 10.9073 909.17 10.9073 L917.225 10.9073 Z" fill="#000000" fill-rule="nonzero" fill-opacity="1" /><path clip-path="url(#clip640)" d="M924.355 31.0924 L932.873 31.0924 L932.873 82.944 L924.355 82.944 L924.355 31.0924 M924.355 10.9073 L932.873 10.9073 L932.873 21.6943 L924.355 21.6943 L924.355 10.9073 Z" fill="#000000" fill-rule="nonzero" fill-opacity="1" /><path clip-path="url(#clip640)" d="M950.697 10.9073 L959.216 10.9073 L959.216 82.944 L950.697 82.944 L950.697 10.9073 Z" fill="#000000" fill-rule="nonzero" fill-opacity="1" /><path clip-path="url(#clip640)" d="M1021.39 54.8886 L1021.39 59.0552 L982.225 59.0552 Q982.78 67.8515 987.503 72.4811 Q992.271 77.0644 1000.74 77.0644 Q1005.65 77.0644 1010.23 75.8607 Q1014.86 74.657 1019.4 72.2496 L1019.4 80.3051 Q1014.82 82.2496 1010 83.2681 Q1005.19 84.2866 1000.23 84.2866 Q987.827 84.2866 980.558 77.0644 Q973.336 69.8422 973.336 57.5275 Q973.336 44.7961 980.188 37.3424 Q987.086 29.8424 998.753 29.8424 Q1009.22 29.8424 1015.28 36.6017 Q1021.39 43.3146 1021.39 54.8886 M1012.87 52.3886 Q1012.78 45.3979 1008.94 41.2313 Q1005.14 37.0646 998.845 37.0646 Q991.716 37.0646 987.41 41.0924 Q983.151 45.1201 982.503 52.4349 L1012.87 52.3886 Z" fill="#000000" fill-rule="nonzero" fill-opacity="1" /><path clip-path="url(#clip640)" d="M1091.76 10.9073 L1091.76 17.9906 L1083.61 17.9906 Q1079.03 17.9906 1077.22 19.8425 Q1075.47 21.6943 1075.47 26.5091 L1075.47 31.0924 L1089.49 31.0924 L1089.49 37.7128 L1075.47 37.7128 L1075.47 82.944 L1066.9 82.944 L1066.9 37.7128 L1058.75 37.7128 L1058.75 31.0924 L1066.9 31.0924 L1066.9 27.4813 Q1066.9 18.824 1070.93 14.8888 Q1074.96 10.9073 1083.71 10.9073 L1091.76 10.9073 Z" fill="#000000" fill-rule="nonzero" fill-opacity="1" /><path clip-path="url(#clip640)" d="M1118.98 37.0646 Q1112.13 37.0646 1108.15 42.435 Q1104.17 47.759 1104.17 57.0645 Q1104.17 66.37 1108.1 71.7404 Q1112.09 77.0644 1118.98 77.0644 Q1125.79 77.0644 1129.77 71.6941 Q1133.75 66.3237 1133.75 57.0645 Q1133.75 47.8516 1129.77 42.4813 Q1125.79 37.0646 1118.98 37.0646 M1118.98 29.8424 Q1130.09 29.8424 1136.44 37.0646 Q1142.78 44.2868 1142.78 57.0645 Q1142.78 69.7959 1136.44 77.0644 Q1130.09 84.2866 1118.98 84.2866 Q1107.83 84.2866 1101.48 77.0644 Q1095.19 69.7959 1095.19 57.0645 Q1095.19 44.2868 1101.48 37.0646 Q1107.83 29.8424 1118.98 29.8424 Z" fill="#000000" fill-rule="nonzero" fill-opacity="1" /><path clip-path="url(#clip640)" d="M1186.95 39.0553 Q1185.51 38.222 1183.8 37.8516 Q1182.13 37.435 1180.09 37.435 Q1172.87 37.435 1168.98 42.1572 Q1165.14 46.8331 1165.14 55.6293 L1165.14 82.944 L1156.58 82.944 L1156.58 31.0924 L1165.14 31.0924 L1165.14 39.1479 Q1167.83 34.4257 1172.13 32.1572 Q1176.44 29.8424 1182.59 29.8424 Q1183.47 29.8424 1184.54 29.9813 Q1185.6 30.0739 1186.9 30.3054 L1186.95 39.0553 Z" fill="#000000" fill-rule="nonzero" fill-opacity="1" /><path clip-path="url(#clip640)" d="M1227.32 13.824 L1264.03 13.824 L1264.03 21.6943 L1235.88 21.6943 L1235.88 38.6387 Q1237.92 37.9442 1239.95 37.6202 Q1241.99 37.2498 1244.03 37.2498 Q1255.6 37.2498 1262.36 43.5924 Q1269.12 49.9349 1269.12 60.7682 Q1269.12 71.9255 1262.18 78.1292 Q1255.23 84.2866 1242.59 84.2866 Q1238.24 84.2866 1233.7 83.5458 Q1229.21 82.8051 1224.4 81.3236 L1224.4 71.9255 Q1228.57 74.194 1233.01 75.3052 Q1237.45 76.4163 1242.41 76.4163 Q1250.42 76.4163 1255.09 72.2033 Q1259.77 67.9904 1259.77 60.7682 Q1259.77 53.546 1255.09 49.3331 Q1250.42 45.1201 1242.41 45.1201 Q1238.66 45.1201 1234.91 45.9535 Q1231.2 46.7868 1227.32 48.546 L1227.32 13.824 Z" fill="#000000" fill-rule="nonzero" fill-opacity="1" /><path clip-path="url(#clip640)" d="M1282.04 53.1756 L1306.99 53.1756 L1306.99 60.7682 L1282.04 60.7682 L1282.04 53.1756 Z" fill="#000000" fill-rule="nonzero" fill-opacity="1" /><path clip-path="url(#clip640)" d="M1320.56 10.9073 L1329.07 10.9073 L1329.07 82.944 L1320.56 82.944 L1320.56 10.9073 Z" fill="#000000" fill-rule="nonzero" fill-opacity="1" /><path clip-path="url(#clip640)" d="M1366.99 37.0646 Q1360.14 37.0646 1356.16 42.435 Q1352.18 47.759 1352.18 57.0645 Q1352.18 66.37 1356.11 71.7404 Q1360.09 77.0644 1366.99 77.0644 Q1373.8 77.0644 1377.78 71.6941 Q1381.76 66.3237 1381.76 57.0645 Q1381.76 47.8516 1377.78 42.4813 Q1373.8 37.0646 1366.99 37.0646 M1366.99 29.8424 Q1378.1 29.8424 1384.44 37.0646 Q1390.79 44.2868 1390.79 57.0645 Q1390.79 69.7959 1384.44 77.0644 Q1378.1 84.2866 1366.99 84.2866 Q1355.83 84.2866 1349.49 77.0644 Q1343.2 69.7959 1343.2 57.0645 Q1343.2 44.2868 1349.49 37.0646 Q1355.83 29.8424 1366.99 29.8424 Z" fill="#000000" fill-rule="nonzero" fill-opacity="1" /><path clip-path="url(#clip640)" d="M1442.13 57.0645 Q1442.13 47.6664 1438.24 42.3424 Q1434.4 36.972 1427.64 36.972 Q1420.88 36.972 1416.99 42.3424 Q1413.15 47.6664 1413.15 57.0645 Q1413.15 66.4626 1416.99 71.8329 Q1420.88 77.157 1427.64 77.157 Q1434.4 77.157 1438.24 71.8329 Q1442.13 66.4626 1442.13 57.0645 M1413.15 38.9628 Q1415.83 34.3331 1419.91 32.1109 Q1424.03 29.8424 1429.72 29.8424 Q1439.17 29.8424 1445.05 37.3424 Q1450.97 44.8424 1450.97 57.0645 Q1450.97 69.2867 1445.05 76.7866 Q1439.17 84.2866 1429.72 84.2866 Q1424.03 84.2866 1419.91 82.0644 Q1415.83 79.7959 1413.15 75.1663 L1413.15 82.944 L1404.58 82.944 L1404.58 10.9073 L1413.15 10.9073 L1413.15 38.9628 Z" fill="#000000" fill-rule="nonzero" fill-opacity="1" /><path clip-path="url(#clip640)" d="M1509.44 54.8886 L1509.44 59.0552 L1470.28 59.0552 Q1470.83 67.8515 1475.56 72.4811 Q1480.32 77.0644 1488.8 77.0644 Q1493.7 77.0644 1498.29 75.8607 Q1502.92 74.657 1507.45 72.2496 L1507.45 80.3051 Q1502.87 82.2496 1498.06 83.2681 Q1493.24 84.2866 1488.29 84.2866 Q1475.88 84.2866 1468.61 77.0644 Q1461.39 69.8422 1461.39 57.5275 Q1461.39 44.7961 1468.24 37.3424 Q1475.14 29.8424 1486.81 29.8424 Q1497.27 29.8424 1503.33 36.6017 Q1509.44 43.3146 1509.44 54.8886 M1500.93 52.3886 Q1500.83 45.3979 1496.99 41.2313 Q1493.19 37.0646 1486.9 37.0646 Q1479.77 37.0646 1475.46 41.0924 Q1471.2 45.1201 1470.56 52.4349 L1500.93 52.3886 Z" fill="#000000" fill-rule="nonzero" fill-opacity="1" /><path clip-path="url(#clip640)" d="M1586.62 32.6202 L1586.62 40.6757 Q1583.01 38.8239 1579.12 37.8979 Q1575.23 36.972 1571.06 36.972 Q1564.72 36.972 1561.53 38.9165 Q1558.38 40.8609 1558.38 44.7498 Q1558.38 47.7127 1560.65 49.4257 Q1562.92 51.0923 1569.77 52.6201 L1572.68 53.2682 Q1581.76 55.2127 1585.55 58.7775 Q1589.4 62.296 1589.4 68.6385 Q1589.4 75.8607 1583.66 80.0736 Q1577.96 84.2866 1567.96 84.2866 Q1563.8 84.2866 1559.26 83.4533 Q1554.77 82.6662 1549.77 81.0459 L1549.77 72.2496 Q1554.49 74.7033 1559.07 75.9533 Q1563.66 77.157 1568.15 77.157 Q1574.17 77.157 1577.41 75.12 Q1580.65 73.0366 1580.65 69.2867 Q1580.65 65.8145 1578.29 63.9626 Q1575.97 62.1108 1568.06 60.3978 L1565.09 59.7034 Q1557.18 58.0367 1553.66 54.6108 Q1550.14 51.1386 1550.14 45.1201 Q1550.14 37.8054 1555.32 33.8239 Q1560.51 29.8424 1570.05 29.8424 Q1574.77 29.8424 1578.93 30.5369 Q1583.1 31.2313 1586.62 32.6202 Z" fill="#000000" fill-rule="nonzero" fill-opacity="1" /><path clip-path="url(#clip640)" d="M1602.96 31.0924 L1611.48 31.0924 L1611.48 82.944 L1602.96 82.944 L1602.96 31.0924 M1602.96 10.9073 L1611.48 10.9073 L1611.48 21.6943 L1602.96 21.6943 L1602.96 10.9073 Z" fill="#000000" fill-rule="nonzero" fill-opacity="1" /><path clip-path="url(#clip640)" d="M1672.41 51.6479 L1672.41 82.944 L1663.89 82.944 L1663.89 51.9256 Q1663.89 44.5646 1661.02 40.9072 Q1658.15 37.2498 1652.41 37.2498 Q1645.51 37.2498 1641.53 41.6479 Q1637.55 46.046 1637.55 53.6386 L1637.55 82.944 L1628.98 82.944 L1628.98 31.0924 L1637.55 31.0924 L1637.55 39.1479 Q1640.6 34.472 1644.72 32.1572 Q1648.89 29.8424 1654.3 29.8424 Q1663.24 29.8424 1667.82 35.398 Q1672.41 40.9072 1672.41 51.6479 Z" fill="#000000" fill-rule="nonzero" fill-opacity="1" /><path clip-path="url(#clip640)" d="M1726.71 33.0832 L1726.71 41.0461 Q1723.1 39.0553 1719.44 38.0831 Q1715.83 37.0646 1712.13 37.0646 Q1703.84 37.0646 1699.26 42.3424 Q1694.67 47.5738 1694.67 57.0645 Q1694.67 66.5552 1699.26 71.8329 Q1703.84 77.0644 1712.13 77.0644 Q1715.83 77.0644 1719.44 76.0922 Q1723.1 75.0737 1726.71 73.0829 L1726.71 80.9533 Q1723.15 82.6199 1719.3 83.4533 Q1715.51 84.2866 1711.2 84.2866 Q1699.49 84.2866 1692.59 76.9255 Q1685.69 69.5644 1685.69 57.0645 Q1685.69 44.3794 1692.64 37.1109 Q1699.63 29.8424 1711.76 29.8424 Q1715.69 29.8424 1719.44 30.6758 Q1723.19 31.4628 1726.71 33.0832 Z" fill="#000000" fill-rule="nonzero" fill-opacity="1" /><path clip-path="url(#clip640)" d="M1743.7 71.1848 L1753.47 71.1848 L1753.47 79.1477 L1745.88 93.9625 L1739.91 93.9625 L1743.7 79.1477 L1743.7 71.1848 Z" fill="#000000" fill-rule="nonzero" fill-opacity="1" /><path clip-path="url(#clip640)" d="M1832.04 58.8238 L1830 48.1294 Q1827.91 37.1572 1819.67 37.1572 Q1813.47 37.1572 1810.65 42.2498 Q1807.08 48.6386 1807.08 57.0645 Q1807.08 67.2496 1810.55 72.1107 Q1814.07 77.0644 1819.67 77.0644 Q1825.88 77.0644 1829.21 67.2033 L1832.04 58.8238 M1836.8 44.6572 L1841.39 31.0924 L1848.98 31.0924 L1839.49 59.1941 L1841.34 69.333 Q1841.76 71.6015 1843.38 73.4996 Q1845.28 75.7218 1846.76 75.7218 L1850.83 75.7218 L1850.83 82.944 L1845.74 82.944 Q1841.39 82.944 1837.5 79.0551 Q1835.6 77.1107 1834.81 73.0366 Q1832.68 78.1755 1828.33 82.2033 Q1826.29 84.1014 1819.67 84.1014 Q1808.79 84.1014 1803.52 77.0644 Q1798.1 69.7959 1798.1 57.0645 Q1798.1 43.4535 1803.98 37.0646 Q1810.51 29.935 1819.67 29.935 Q1834.07 29.935 1836.8 44.6572 Z" fill="#000000" fill-rule="nonzero" fill-opacity="1" /><path clip-path="url(#clip640)" d="M1895.55 39.8887 L1954.9 39.8887 L1954.9 47.6664 L1895.55 47.6664 L1895.55 39.8887 M1895.55 58.7775 L1954.9 58.7775 L1954.9 66.6478 L1895.55 66.6478 L1895.55 58.7775 Z" fill="#000000" fill-rule="nonzero" fill-opacity="1" /><path clip-path="url(#clip640)" d="M2026.39 44.6572 Q2020.09 44.6572 2016.39 48.9627 Q2012.73 53.2682 2012.73 60.7682 Q2012.73 68.2219 2016.39 72.5737 Q2020.09 76.8792 2026.39 76.8792 Q2032.68 76.8792 2036.34 72.5737 Q2040.04 68.2219 2040.04 60.7682 Q2040.04 53.2682 2036.34 48.9627 Q2032.68 44.6572 2026.39 44.6572 M2044.95 15.3518 L2044.95 23.8702 Q2041.43 22.2036 2037.82 21.324 Q2034.26 20.4443 2030.74 20.4443 Q2021.48 20.4443 2016.57 26.6943 Q2011.71 32.9443 2011.02 45.5831 Q2013.75 41.5553 2017.87 39.4257 Q2021.99 37.2498 2026.94 37.2498 Q2037.36 37.2498 2043.38 43.5924 Q2049.44 49.8886 2049.44 60.7682 Q2049.44 71.4163 2043.15 77.8514 Q2036.85 84.2866 2026.39 84.2866 Q2014.4 84.2866 2008.05 75.12 Q2001.71 65.9071 2001.71 48.4534 Q2001.71 32.0646 2009.49 22.3425 Q2017.27 12.574 2030.37 12.574 Q2033.89 12.574 2037.45 13.2684 Q2041.06 13.9629 2044.95 15.3518 Z" fill="#000000" fill-rule="nonzero" fill-opacity="1" /><path clip-path="url(#clip640)" d="M2085.55 19.9814 Q2078.33 19.9814 2074.67 27.111 Q2071.06 34.1943 2071.06 48.4534 Q2071.06 62.6663 2074.67 69.7959 Q2078.33 76.8792 2085.55 76.8792 Q2092.82 76.8792 2096.43 69.7959 Q2100.09 62.6663 2100.09 48.4534 Q2100.09 34.1943 2096.43 27.111 Q2092.82 19.9814 2085.55 19.9814 M2085.55 12.574 Q2097.17 12.574 2103.28 21.7869 Q2109.44 30.9535 2109.44 48.4534 Q2109.44 65.9071 2103.28 75.12 Q2097.17 84.2866 2085.55 84.2866 Q2073.93 84.2866 2067.77 75.12 Q2061.66 65.9071 2061.66 48.4534 Q2061.66 30.9535 2067.77 21.7869 Q2073.93 12.574 2085.55 12.574 Z" fill="#000000" fill-rule="nonzero" fill-opacity="1" /><path clip-path="url(#clip640)" d="M2139.44 18.5462 Q2135.74 18.5462 2133.19 21.1388 Q2130.64 23.6851 2130.64 27.3887 Q2130.64 31.0461 2133.19 33.5924 Q2135.74 36.0924 2139.44 36.0924 Q2143.14 36.0924 2145.69 33.5924 Q2148.24 31.0461 2148.24 27.3887 Q2148.24 23.7314 2145.64 21.1388 Q2143.1 18.5462 2139.44 18.5462 M2139.44 12.574 Q2142.4 12.574 2145.14 13.7314 Q2147.87 14.8425 2149.86 16.9721 Q2151.99 19.0555 2153.05 21.6943 Q2154.12 24.3332 2154.12 27.3887 Q2154.12 33.4998 2149.81 37.7591 Q2145.55 41.972 2139.35 41.972 Q2133.1 41.972 2128.93 37.8054 Q2124.77 33.6387 2124.77 27.3887 Q2124.77 21.1851 2129.02 16.8795 Q2133.28 12.574 2139.44 12.574 Z" fill="#000000" fill-rule="nonzero" fill-opacity="1" /></svg>
