<?xml version="1.0" encoding="utf-8"?>
<svg xmlns="http://www.w3.org/2000/svg" xmlns:xlink="http://www.w3.org/1999/xlink" width="600" height="400" viewBox="0 0 2400 1600">
<defs>
  <clipPath id="clip610">
    <rect x="0" y="0" width="2400" height="1600"/>
  </clipPath>
</defs>
<path clip-path="url(#clip610)" d="M0 1600 L2400 1600 L2400 0 L0 0  Z" fill="#ffffff" fill-rule="evenodd" fill-opacity="1"/>
<defs>
  <clipPath id="clip611">
    <rect x="219" y="106" width="2134" height="1318"/>
  </clipPath>
</defs>
<path clip-path="url(#clip610)" d="M219.38 1423.18 L2352.76 1423.18 L2352.76 106.192 L219.38 106.192  Z" fill="#ffffff" fill-rule="evenodd" fill-opacity="1"/>
<polyline clip-path="url(#clip611)" style="stroke:#000000; stroke-linecap:round; stroke-linejoin:round; stroke-width:2; stroke-opacity:0.1; fill:none" points="219.38,1423.18 219.38,106.192 "/>
<polyline clip-path="url(#clip611)" style="stroke:#000000; stroke-linecap:round; stroke-linejoin:round; stroke-width:2; stroke-opacity:0.1; fill:none" points="752.724,1423.18 752.724,106.192 "/>
<polyline clip-path="url(#clip611)" style="stroke:#000000; stroke-linecap:round; stroke-linejoin:round; stroke-width:2; stroke-opacity:0.1; fill:none" points="1286.07,1423.18 1286.07,106.192 "/>
<polyline clip-path="url(#clip611)" style="stroke:#000000; stroke-linecap:round; stroke-linejoin:round; stroke-width:2; stroke-opacity:0.1; fill:none" points="1819.41,1423.18 1819.41,106.192 "/>
<polyline clip-path="url(#clip611)" style="stroke:#000000; stroke-linecap:round; stroke-linejoin:round; stroke-width:2; stroke-opacity:0.1; fill:none" points="2352.76,1423.18 2352.76,106.192 "/>
<polyline clip-path="url(#clip611)" style="stroke:#000000; stroke-linecap:round; stroke-linejoin:round; stroke-width:2; stroke-opacity:0.1; fill:none" points="219.38,1164.17 2352.76,1164.17 "/>
<polyline clip-path="url(#clip611)" style="stroke:#000000; stroke-linecap:round; stroke-linejoin:round; stroke-width:2; stroke-opacity:0.1; fill:none" points="219.38,892.918 2352.76,892.918 "/>
<polyline clip-path="url(#clip611)" style="stroke:#000000; stroke-linecap:round; stroke-linejoin:round; stroke-width:2; stroke-opacity:0.1; fill:none" points="219.38,621.661 2352.76,621.661 "/>
<polyline clip-path="url(#clip611)" style="stroke:#000000; stroke-linecap:round; stroke-linejoin:round; stroke-width:2; stroke-opacity:0.1; fill:none" points="219.38,350.405 2352.76,350.405 "/>
<polyline clip-path="url(#clip610)" style="stroke:#000000; stroke-linecap:round; stroke-linejoin:round; stroke-width:4; stroke-opacity:1; fill:none" points="219.38,1423.18 2352.76,1423.18 "/>
<polyline clip-path="url(#clip610)" style="stroke:#000000; stroke-linecap:round; stroke-linejoin:round; stroke-width:4; stroke-opacity:1; fill:none" points="219.38,1423.18 219.38,1404.28 "/>
<polyline clip-path="url(#clip610)" style="stroke:#000000; stroke-linecap:round; stroke-linejoin:round; stroke-width:4; stroke-opacity:1; fill:none" points="752.724,1423.18 752.724,1404.28 "/>
<polyline clip-path="url(#clip610)" style="stroke:#000000; stroke-linecap:round; stroke-linejoin:round; stroke-width:4; stroke-opacity:1; fill:none" points="1286.07,1423.18 1286.07,1404.28 "/>
<polyline clip-path="url(#clip610)" style="stroke:#000000; stroke-linecap:round; stroke-linejoin:round; stroke-width:4; stroke-opacity:1; fill:none" points="1819.41,1423.18 1819.41,1404.28 "/>
<polyline clip-path="url(#clip610)" style="stroke:#000000; stroke-linecap:round; stroke-linejoin:round; stroke-width:4; stroke-opacity:1; fill:none" points="2352.76,1423.18 2352.76,1404.28 "/>
<path clip-path="url(#clip610)" d="M150.827 1468.75 L180.503 1468.75 L180.503 1472.69 L150.827 1472.69 L150.827 1468.75 Z" fill="#000000" fill-rule="nonzero" fill-opacity="1" /><path clip-path="url(#clip610)" d="M200.596 1454.1 Q196.984 1454.1 195.156 1457.66 Q193.35 1461.2 193.35 1468.33 Q193.35 1475.44 195.156 1479.01 Q196.984 1482.55 200.596 1482.55 Q204.23 1482.55 206.035 1479.01 Q207.864 1475.44 207.864 1468.33 Q207.864 1461.2 206.035 1457.66 Q204.23 1454.1 200.596 1454.1 M200.596 1450.39 Q206.406 1450.39 209.461 1455 Q212.54 1459.58 212.54 1468.33 Q212.54 1477.06 209.461 1481.67 Q206.406 1486.25 200.596 1486.25 Q194.785 1486.25 191.707 1481.67 Q188.651 1477.06 188.651 1468.33 Q188.651 1459.58 191.707 1455 Q194.785 1450.39 200.596 1450.39 Z" fill="#000000" fill-rule="nonzero" fill-opacity="1" /><path clip-path="url(#clip610)" d="M220.757 1479.7 L225.642 1479.7 L225.642 1485.58 L220.757 1485.58 L220.757 1479.7 Z" fill="#000000" fill-rule="nonzero" fill-opacity="1" /><path clip-path="url(#clip610)" d="M235.873 1451.02 L254.23 1451.02 L254.23 1454.96 L240.156 1454.96 L240.156 1463.43 Q241.174 1463.08 242.193 1462.92 Q243.211 1462.73 244.23 1462.73 Q250.017 1462.73 253.396 1465.9 Q256.776 1469.08 256.776 1474.49 Q256.776 1480.07 253.304 1483.17 Q249.831 1486.25 243.512 1486.25 Q241.336 1486.25 239.068 1485.88 Q236.822 1485.51 234.415 1484.77 L234.415 1480.07 Q236.498 1481.2 238.72 1481.76 Q240.943 1482.32 243.419 1482.32 Q247.424 1482.32 249.762 1480.21 Q252.1 1478.1 252.1 1474.49 Q252.1 1470.88 249.762 1468.77 Q247.424 1466.67 243.419 1466.67 Q241.544 1466.67 239.669 1467.08 Q237.818 1467.5 235.873 1468.38 L235.873 1451.02 Z" fill="#000000" fill-rule="nonzero" fill-opacity="1" /><path clip-path="url(#clip610)" d="M275.989 1454.1 Q272.378 1454.1 270.549 1457.66 Q268.743 1461.2 268.743 1468.33 Q268.743 1475.44 270.549 1479.01 Q272.378 1482.55 275.989 1482.55 Q279.623 1482.55 281.428 1479.01 Q283.257 1475.44 283.257 1468.33 Q283.257 1461.2 281.428 1457.66 Q279.623 1454.1 275.989 1454.1 M275.989 1450.39 Q281.799 1450.39 284.854 1455 Q287.933 1459.58 287.933 1468.33 Q287.933 1477.06 284.854 1481.67 Q281.799 1486.25 275.989 1486.25 Q270.178 1486.25 267.1 1481.67 Q264.044 1477.06 264.044 1468.33 Q264.044 1459.58 267.1 1455 Q270.178 1450.39 275.989 1450.39 Z" fill="#000000" fill-rule="nonzero" fill-opacity="1" /><path clip-path="url(#clip610)" d="M684.669 1468.75 L714.345 1468.75 L714.345 1472.69 L684.669 1472.69 L684.669 1468.75 Z" fill="#000000" fill-rule="nonzero" fill-opacity="1" /><path clip-path="url(#clip610)" d="M734.437 1454.1 Q730.826 1454.1 728.997 1457.66 Q727.192 1461.2 727.192 1468.33 Q727.192 1475.44 728.997 1479.01 Q730.826 1482.55 734.437 1482.55 Q738.071 1482.55 739.877 1479.01 Q741.706 1475.44 741.706 1468.33 Q741.706 1461.2 739.877 1457.66 Q738.071 1454.1 734.437 1454.1 M734.437 1450.39 Q740.247 1450.39 743.303 1455 Q746.382 1459.58 746.382 1468.33 Q746.382 1477.06 743.303 1481.67 Q740.247 1486.25 734.437 1486.25 Q728.627 1486.25 725.548 1481.67 Q722.493 1477.06 722.493 1468.33 Q722.493 1459.58 725.548 1455 Q728.627 1450.39 734.437 1450.39 Z" fill="#000000" fill-rule="nonzero" fill-opacity="1" /><path clip-path="url(#clip610)" d="M754.599 1479.7 L759.483 1479.7 L759.483 1485.58 L754.599 1485.58 L754.599 1479.7 Z" fill="#000000" fill-rule="nonzero" fill-opacity="1" /><path clip-path="url(#clip610)" d="M773.696 1481.64 L790.016 1481.64 L790.016 1485.58 L768.071 1485.58 L768.071 1481.64 Q770.733 1478.89 775.317 1474.26 Q779.923 1469.61 781.104 1468.27 Q783.349 1465.74 784.229 1464.01 Q785.131 1462.25 785.131 1460.56 Q785.131 1457.8 783.187 1456.07 Q781.266 1454.33 778.164 1454.33 Q775.965 1454.33 773.511 1455.09 Q771.08 1455.86 768.303 1457.41 L768.303 1452.69 Q771.127 1451.55 773.58 1450.97 Q776.034 1450.39 778.071 1450.39 Q783.442 1450.39 786.636 1453.08 Q789.83 1455.77 789.83 1460.26 Q789.83 1462.39 789.02 1464.31 Q788.233 1466.2 786.127 1468.8 Q785.548 1469.47 782.446 1472.69 Q779.344 1475.88 773.696 1481.64 Z" fill="#000000" fill-rule="nonzero" fill-opacity="1" /><path clip-path="url(#clip610)" d="M799.877 1451.02 L818.233 1451.02 L818.233 1454.96 L804.159 1454.96 L804.159 1463.43 Q805.178 1463.08 806.196 1462.92 Q807.215 1462.73 808.233 1462.73 Q814.02 1462.73 817.4 1465.9 Q820.779 1469.08 820.779 1474.49 Q820.779 1480.07 817.307 1483.17 Q813.835 1486.25 807.515 1486.25 Q805.34 1486.25 803.071 1485.88 Q800.826 1485.51 798.418 1484.77 L798.418 1480.07 Q800.502 1481.2 802.724 1481.76 Q804.946 1482.32 807.423 1482.32 Q811.427 1482.32 813.765 1480.21 Q816.103 1478.1 816.103 1474.49 Q816.103 1470.88 813.765 1468.77 Q811.427 1466.67 807.423 1466.67 Q805.548 1466.67 803.673 1467.08 Q801.821 1467.5 799.877 1468.38 L799.877 1451.02 Z" fill="#000000" fill-rule="nonzero" fill-opacity="1" /><path clip-path="url(#clip610)" d="M1248.37 1454.1 Q1244.76 1454.1 1242.93 1457.66 Q1241.13 1461.2 1241.13 1468.33 Q1241.13 1475.44 1242.93 1479.01 Q1244.76 1482.55 1248.37 1482.55 Q1252.01 1482.55 1253.81 1479.01 Q1255.64 1475.44 1255.64 1468.33 Q1255.64 1461.2 1253.81 1457.66 Q1252.01 1454.1 1248.37 1454.1 M1248.37 1450.39 Q1254.18 1450.39 1257.24 1455 Q1260.32 1459.58 1260.32 1468.33 Q1260.32 1477.06 1257.24 1481.67 Q1254.18 1486.25 1248.37 1486.25 Q1242.56 1486.25 1239.48 1481.67 Q1236.43 1477.06 1236.43 1468.33 Q1236.43 1459.58 1239.48 1455 Q1242.56 1450.39 1248.37 1450.39 Z" fill="#000000" fill-rule="nonzero" fill-opacity="1" /><path clip-path="url(#clip610)" d="M1268.53 1479.7 L1273.42 1479.7 L1273.42 1485.58 L1268.53 1485.58 L1268.53 1479.7 Z" fill="#000000" fill-rule="nonzero" fill-opacity="1" /><path clip-path="url(#clip610)" d="M1293.6 1454.1 Q1289.99 1454.1 1288.16 1457.66 Q1286.36 1461.2 1286.36 1468.33 Q1286.36 1475.44 1288.16 1479.01 Q1289.99 1482.55 1293.6 1482.55 Q1297.24 1482.55 1299.04 1479.01 Q1300.87 1475.44 1300.87 1468.33 Q1300.87 1461.2 1299.04 1457.66 Q1297.24 1454.1 1293.6 1454.1 M1293.6 1450.39 Q1299.41 1450.39 1302.47 1455 Q1305.55 1459.58 1305.55 1468.33 Q1305.55 1477.06 1302.47 1481.67 Q1299.41 1486.25 1293.6 1486.25 Q1287.79 1486.25 1284.71 1481.67 Q1281.66 1477.06 1281.66 1468.33 Q1281.66 1459.58 1284.71 1455 Q1287.79 1450.39 1293.6 1450.39 Z" fill="#000000" fill-rule="nonzero" fill-opacity="1" /><path clip-path="url(#clip610)" d="M1323.76 1454.1 Q1320.15 1454.1 1318.32 1457.66 Q1316.52 1461.2 1316.52 1468.33 Q1316.52 1475.44 1318.32 1479.01 Q1320.15 1482.55 1323.76 1482.55 Q1327.4 1482.55 1329.2 1479.01 Q1331.03 1475.44 1331.03 1468.33 Q1331.03 1461.2 1329.2 1457.66 Q1327.4 1454.1 1323.76 1454.1 M1323.76 1450.39 Q1329.57 1450.39 1332.63 1455 Q1335.71 1459.58 1335.71 1468.33 Q1335.71 1477.06 1332.63 1481.67 Q1329.57 1486.25 1323.76 1486.25 Q1317.95 1486.25 1314.88 1481.67 Q1311.82 1477.06 1311.82 1468.33 Q1311.82 1459.58 1314.88 1455 Q1317.95 1450.39 1323.76 1450.39 Z" fill="#000000" fill-rule="nonzero" fill-opacity="1" /><path clip-path="url(#clip610)" d="M1782.21 1454.1 Q1778.6 1454.1 1776.77 1457.66 Q1774.97 1461.2 1774.97 1468.33 Q1774.97 1475.44 1776.77 1479.01 Q1778.6 1482.55 1782.21 1482.55 Q1785.85 1482.55 1787.65 1479.01 Q1789.48 1475.44 1789.48 1468.33 Q1789.48 1461.2 1787.65 1457.66 Q1785.85 1454.1 1782.21 1454.1 M1782.21 1450.39 Q1788.02 1450.39 1791.08 1455 Q1794.16 1459.58 1794.16 1468.33 Q1794.16 1477.06 1791.08 1481.67 Q1788.02 1486.25 1782.21 1486.25 Q1776.4 1486.25 1773.32 1481.67 Q1770.27 1477.06 1770.27 1468.33 Q1770.27 1459.58 1773.32 1455 Q1776.4 1450.39 1782.21 1450.39 Z" fill="#000000" fill-rule="nonzero" fill-opacity="1" /><path clip-path="url(#clip610)" d="M1802.38 1479.7 L1807.26 1479.7 L1807.26 1485.58 L1802.38 1485.58 L1802.38 1479.7 Z" fill="#000000" fill-rule="nonzero" fill-opacity="1" /><path clip-path="url(#clip610)" d="M1821.47 1481.64 L1837.79 1481.64 L1837.79 1485.58 L1815.85 1485.58 L1815.85 1481.64 Q1818.51 1478.89 1823.09 1474.26 Q1827.7 1469.61 1828.88 1468.27 Q1831.12 1465.74 1832 1464.01 Q1832.91 1462.25 1832.91 1460.56 Q1832.91 1457.8 1830.96 1456.07 Q1829.04 1454.33 1825.94 1454.33 Q1823.74 1454.33 1821.29 1455.09 Q1818.86 1455.86 1816.08 1457.41 L1816.08 1452.69 Q1818.9 1451.55 1821.36 1450.97 Q1823.81 1450.39 1825.85 1450.39 Q1831.22 1450.39 1834.41 1453.08 Q1837.61 1455.77 1837.61 1460.26 Q1837.61 1462.39 1836.8 1464.31 Q1836.01 1466.2 1833.9 1468.8 Q1833.32 1469.47 1830.22 1472.69 Q1827.12 1475.88 1821.47 1481.64 Z" fill="#000000" fill-rule="nonzero" fill-opacity="1" /><path clip-path="url(#clip610)" d="M1847.65 1451.02 L1866.01 1451.02 L1866.01 1454.96 L1851.93 1454.96 L1851.93 1463.43 Q1852.95 1463.08 1853.97 1462.92 Q1854.99 1462.73 1856.01 1462.73 Q1861.8 1462.73 1865.18 1465.9 Q1868.56 1469.08 1868.56 1474.49 Q1868.56 1480.07 1865.08 1483.17 Q1861.61 1486.25 1855.29 1486.25 Q1853.12 1486.25 1850.85 1485.88 Q1848.6 1485.51 1846.19 1484.77 L1846.19 1480.07 Q1848.28 1481.2 1850.5 1481.76 Q1852.72 1482.32 1855.2 1482.32 Q1859.2 1482.32 1861.54 1480.21 Q1863.88 1478.1 1863.88 1474.49 Q1863.88 1470.88 1861.54 1468.77 Q1859.2 1466.67 1855.2 1466.67 Q1853.32 1466.67 1851.45 1467.08 Q1849.6 1467.5 1847.65 1468.38 L1847.65 1451.02 Z" fill="#000000" fill-rule="nonzero" fill-opacity="1" /><path clip-path="url(#clip610)" d="M2315.06 1454.1 Q2311.45 1454.1 2309.62 1457.66 Q2307.81 1461.2 2307.81 1468.33 Q2307.81 1475.44 2309.62 1479.01 Q2311.45 1482.55 2315.06 1482.55 Q2318.69 1482.55 2320.5 1479.01 Q2322.33 1475.44 2322.33 1468.33 Q2322.33 1461.2 2320.5 1457.66 Q2318.69 1454.1 2315.06 1454.1 M2315.06 1450.39 Q2320.87 1450.39 2323.93 1455 Q2327 1459.58 2327 1468.33 Q2327 1477.06 2323.93 1481.67 Q2320.87 1486.25 2315.06 1486.25 Q2309.25 1486.25 2306.17 1481.67 Q2303.11 1477.06 2303.11 1468.33 Q2303.11 1459.58 2306.17 1455 Q2309.25 1450.39 2315.06 1450.39 Z" fill="#000000" fill-rule="nonzero" fill-opacity="1" /><path clip-path="url(#clip610)" d="M2335.22 1479.7 L2340.11 1479.7 L2340.11 1485.58 L2335.22 1485.58 L2335.22 1479.7 Z" fill="#000000" fill-rule="nonzero" fill-opacity="1" /><path clip-path="url(#clip610)" d="M2350.34 1451.02 L2368.69 1451.02 L2368.69 1454.96 L2354.62 1454.96 L2354.62 1463.43 Q2355.64 1463.08 2356.66 1462.92 Q2357.67 1462.73 2358.69 1462.73 Q2364.48 1462.73 2367.86 1465.9 Q2371.24 1469.08 2371.24 1474.49 Q2371.24 1480.07 2367.77 1483.17 Q2364.3 1486.25 2357.98 1486.25 Q2355.8 1486.25 2353.53 1485.88 Q2351.29 1485.51 2348.88 1484.77 L2348.88 1480.07 Q2350.96 1481.2 2353.18 1481.76 Q2355.41 1482.32 2357.88 1482.32 Q2361.89 1482.32 2364.23 1480.21 Q2366.56 1478.1 2366.56 1474.49 Q2366.56 1470.88 2364.23 1468.77 Q2361.89 1466.67 2357.88 1466.67 Q2356.01 1466.67 2354.13 1467.08 Q2352.28 1467.5 2350.34 1468.38 L2350.34 1451.02 Z" fill="#000000" fill-rule="nonzero" fill-opacity="1" /><path clip-path="url(#clip610)" d="M2390.45 1454.1 Q2386.84 1454.1 2385.01 1457.66 Q2383.21 1461.2 2383.21 1468.33 Q2383.21 1475.44 2385.01 1479.01 Q2386.84 1482.55 2390.45 1482.55 Q2394.09 1482.55 2395.89 1479.01 Q2397.72 1475.44 2397.72 1468.33 Q2397.72 1461.2 2395.89 1457.66 Q2394.09 1454.1 2390.45 1454.1 M2390.45 1450.39 Q2396.26 1450.39 2399.32 1455 Q2402.4 1459.58 2402.4 1468.33 Q2402.4 1477.06 2399.32 1481.67 Q2396.26 1486.25 2390.45 1486.25 Q2384.64 1486.25 2381.56 1481.67 Q2378.51 1477.06 2378.51 1468.33 Q2378.51 1459.58 2381.56 1455 Q2384.64 1450.39 2390.45 1450.39 Z" fill="#000000" fill-rule="nonzero" fill-opacity="1" /><path clip-path="url(#clip610)" d="M1202.63 1522.27 L1202.63 1532.4 L1214.69 1532.4 L1214.69 1536.95 L1202.63 1536.95 L1202.63 1556.3 Q1202.63 1560.66 1203.81 1561.9 Q1205.02 1563.14 1208.68 1563.14 L1214.69 1563.14 L1214.69 1568.04 L1208.68 1568.04 Q1201.9 1568.04 1199.32 1565.53 Q1196.74 1562.98 1196.74 1556.3 L1196.74 1536.95 L1192.44 1536.95 L1192.44 1532.4 L1196.74 1532.4 L1196.74 1522.27 L1202.63 1522.27 Z" fill="#000000" fill-rule="nonzero" fill-opacity="1" /><path clip-path="url(#clip610)" d="M1242.57 1518.52 L1256.07 1518.52 L1256.07 1523.07 L1248.43 1523.07 L1248.43 1572.09 L1256.07 1572.09 L1256.07 1576.64 L1242.57 1576.64 L1242.57 1518.52 Z" fill="#000000" fill-rule="nonzero" fill-opacity="1" /><path clip-path="url(#clip610)" d="M1296.3 1539.24 Q1298.5 1535.29 1301.55 1533.41 Q1304.61 1531.54 1308.75 1531.54 Q1314.32 1531.54 1317.34 1535.45 Q1320.36 1539.33 1320.36 1546.53 L1320.36 1568.04 L1314.47 1568.04 L1314.47 1546.72 Q1314.47 1541.59 1312.66 1539.11 Q1310.85 1536.63 1307.12 1536.63 Q1302.57 1536.63 1299.93 1539.65 Q1297.29 1542.68 1297.29 1547.9 L1297.29 1568.04 L1291.4 1568.04 L1291.4 1546.72 Q1291.4 1541.56 1289.59 1539.11 Q1287.77 1536.63 1283.98 1536.63 Q1279.5 1536.63 1276.85 1539.68 Q1274.21 1542.71 1274.21 1547.9 L1274.21 1568.04 L1268.32 1568.04 L1268.32 1532.4 L1274.21 1532.4 L1274.21 1537.93 Q1276.22 1534.66 1279.02 1533.1 Q1281.82 1531.54 1285.67 1531.54 Q1289.55 1531.54 1292.26 1533.51 Q1295 1535.48 1296.3 1539.24 Z" fill="#000000" fill-rule="nonzero" fill-opacity="1" /><path clip-path="url(#clip610)" d="M1354.77 1533.45 L1354.77 1538.98 Q1352.29 1537.71 1349.61 1537.07 Q1346.94 1536.44 1344.08 1536.44 Q1339.72 1536.44 1337.52 1537.77 Q1335.35 1539.11 1335.35 1541.79 Q1335.35 1543.82 1336.91 1545 Q1338.47 1546.15 1343.18 1547.2 L1345.19 1547.64 Q1351.43 1548.98 1354.04 1551.43 Q1356.68 1553.85 1356.68 1558.21 Q1356.68 1563.17 1352.73 1566.07 Q1348.82 1568.97 1341.94 1568.97 Q1339.08 1568.97 1335.96 1568.39 Q1332.87 1567.85 1329.43 1566.74 L1329.43 1560.69 Q1332.68 1562.38 1335.83 1563.24 Q1338.98 1564.07 1342.07 1564.07 Q1346.21 1564.07 1348.44 1562.66 Q1350.66 1561.23 1350.66 1558.65 Q1350.66 1556.27 1349.04 1554.99 Q1347.45 1553.72 1342.01 1552.54 L1339.97 1552.07 Q1334.53 1550.92 1332.11 1548.56 Q1329.69 1546.18 1329.69 1542.04 Q1329.69 1537.01 1333.25 1534.27 Q1336.82 1531.54 1343.38 1531.54 Q1346.62 1531.54 1349.49 1532.01 Q1352.35 1532.49 1354.77 1533.45 Z" fill="#000000" fill-rule="nonzero" fill-opacity="1" /><path clip-path="url(#clip610)" d="M1379.69 1518.52 L1379.69 1576.64 L1366.2 1576.64 L1366.2 1572.09 L1373.8 1572.09 L1373.8 1523.07 L1366.2 1523.07 L1366.2 1518.52 L1379.69 1518.52 Z" fill="#000000" fill-rule="nonzero" fill-opacity="1" /><polyline clip-path="url(#clip610)" style="stroke:#000000; stroke-linecap:round; stroke-linejoin:round; stroke-width:4; stroke-opacity:1; fill:none" points="219.38,1423.18 219.38,106.192 "/>
<polyline clip-path="url(#clip610)" style="stroke:#000000; stroke-linecap:round; stroke-linejoin:round; stroke-width:4; stroke-opacity:1; fill:none" points="219.38,1164.17 238.278,1164.17 "/>
<polyline clip-path="url(#clip610)" style="stroke:#000000; stroke-linecap:round; stroke-linejoin:round; stroke-width:4; stroke-opacity:1; fill:none" points="219.38,892.918 238.278,892.918 "/>
<polyline clip-path="url(#clip610)" style="stroke:#000000; stroke-linecap:round; stroke-linejoin:round; stroke-width:4; stroke-opacity:1; fill:none" points="219.38,621.661 238.278,621.661 "/>
<polyline clip-path="url(#clip610)" style="stroke:#000000; stroke-linecap:round; stroke-linejoin:round; stroke-width:4; stroke-opacity:1; fill:none" points="219.38,350.405 238.278,350.405 "/>
<path clip-path="url(#clip610)" d="M126.205 1149.97 Q122.593 1149.97 120.765 1153.54 Q118.959 1157.08 118.959 1164.21 Q118.959 1171.32 120.765 1174.88 Q122.593 1178.42 126.205 1178.42 Q129.839 1178.42 131.644 1174.88 Q133.473 1171.32 133.473 1164.21 Q133.473 1157.08 131.644 1153.54 Q129.839 1149.97 126.205 1149.97 M126.205 1146.27 Q132.015 1146.27 135.07 1150.88 Q138.149 1155.46 138.149 1164.21 Q138.149 1172.94 135.07 1177.54 Q132.015 1182.13 126.205 1182.13 Q120.394 1182.13 117.316 1177.54 Q114.26 1172.94 114.26 1164.21 Q114.26 1155.46 117.316 1150.88 Q120.394 1146.27 126.205 1146.27 Z" fill="#000000" fill-rule="nonzero" fill-opacity="1" /><path clip-path="url(#clip610)" d="M146.366 1175.57 L151.251 1175.57 L151.251 1181.45 L146.366 1181.45 L146.366 1175.57 Z" fill="#000000" fill-rule="nonzero" fill-opacity="1" /><path clip-path="url(#clip610)" d="M171.436 1149.97 Q167.825 1149.97 165.996 1153.54 Q164.19 1157.08 164.19 1164.21 Q164.19 1171.32 165.996 1174.88 Q167.825 1178.42 171.436 1178.42 Q175.07 1178.42 176.876 1174.88 Q178.704 1171.32 178.704 1164.21 Q178.704 1157.08 176.876 1153.54 Q175.07 1149.97 171.436 1149.97 M171.436 1146.27 Q177.246 1146.27 180.301 1150.88 Q183.38 1155.46 183.38 1164.21 Q183.38 1172.94 180.301 1177.54 Q177.246 1182.13 171.436 1182.13 Q165.626 1182.13 162.547 1177.54 Q159.491 1172.94 159.491 1164.21 Q159.491 1155.46 162.547 1150.88 Q165.626 1146.27 171.436 1146.27 Z" fill="#000000" fill-rule="nonzero" fill-opacity="1" /><path clip-path="url(#clip610)" d="M127.431 878.716 Q123.82 878.716 121.992 882.281 Q120.186 885.823 120.186 892.953 Q120.186 900.059 121.992 903.624 Q123.82 907.165 127.431 907.165 Q131.066 907.165 132.871 903.624 Q134.7 900.059 134.7 892.953 Q134.7 885.823 132.871 882.281 Q131.066 878.716 127.431 878.716 M127.431 875.013 Q133.242 875.013 136.297 879.619 Q139.376 884.203 139.376 892.953 Q139.376 901.679 136.297 906.286 Q133.242 910.869 127.431 910.869 Q121.621 910.869 118.543 906.286 Q115.487 901.679 115.487 892.953 Q115.487 884.203 118.543 879.619 Q121.621 875.013 127.431 875.013 Z" fill="#000000" fill-rule="nonzero" fill-opacity="1" /><path clip-path="url(#clip610)" d="M147.593 904.318 L152.478 904.318 L152.478 910.198 L147.593 910.198 L147.593 904.318 Z" fill="#000000" fill-rule="nonzero" fill-opacity="1" /><path clip-path="url(#clip610)" d="M163.473 906.263 L171.112 906.263 L171.112 879.897 L162.802 881.564 L162.802 877.304 L171.065 875.638 L175.741 875.638 L175.741 906.263 L183.38 906.263 L183.38 910.198 L163.473 910.198 L163.473 906.263 Z" fill="#000000" fill-rule="nonzero" fill-opacity="1" /><path clip-path="url(#clip610)" d="M127.802 607.46 Q124.191 607.46 122.362 611.025 Q120.556 614.566 120.556 621.696 Q120.556 628.802 122.362 632.367 Q124.191 635.909 127.802 635.909 Q131.436 635.909 133.242 632.367 Q135.07 628.802 135.07 621.696 Q135.07 614.566 133.242 611.025 Q131.436 607.46 127.802 607.46 M127.802 603.756 Q133.612 603.756 136.667 608.363 Q139.746 612.946 139.746 621.696 Q139.746 630.423 136.667 635.029 Q133.612 639.612 127.802 639.612 Q121.992 639.612 118.913 635.029 Q115.857 630.423 115.857 621.696 Q115.857 612.946 118.913 608.363 Q121.992 603.756 127.802 603.756 Z" fill="#000000" fill-rule="nonzero" fill-opacity="1" /><path clip-path="url(#clip610)" d="M147.964 633.062 L152.848 633.062 L152.848 638.941 L147.964 638.941 L147.964 633.062 Z" fill="#000000" fill-rule="nonzero" fill-opacity="1" /><path clip-path="url(#clip610)" d="M167.061 635.006 L183.38 635.006 L183.38 638.941 L161.436 638.941 L161.436 635.006 Q164.098 632.251 168.681 627.622 Q173.288 622.969 174.468 621.626 Q176.714 619.103 177.593 617.367 Q178.496 615.608 178.496 613.918 Q178.496 611.164 176.551 609.427 Q174.63 607.691 171.528 607.691 Q169.329 607.691 166.876 608.455 Q164.445 609.219 161.667 610.77 L161.667 606.048 Q164.491 604.914 166.945 604.335 Q169.399 603.756 171.436 603.756 Q176.806 603.756 180.001 606.441 Q183.195 609.127 183.195 613.617 Q183.195 615.747 182.385 617.668 Q181.598 619.566 179.491 622.159 Q178.913 622.83 175.811 626.048 Q172.709 629.242 167.061 635.006 Z" fill="#000000" fill-rule="nonzero" fill-opacity="1" /><path clip-path="url(#clip610)" d="M126.853 336.203 Q123.242 336.203 121.413 339.768 Q119.607 343.31 119.607 350.439 Q119.607 357.546 121.413 361.111 Q123.242 364.652 126.853 364.652 Q130.487 364.652 132.292 361.111 Q134.121 357.546 134.121 350.439 Q134.121 343.31 132.292 339.768 Q130.487 336.203 126.853 336.203 M126.853 332.5 Q132.663 332.5 135.718 337.106 Q138.797 341.689 138.797 350.439 Q138.797 359.166 135.718 363.773 Q132.663 368.356 126.853 368.356 Q121.043 368.356 117.964 363.773 Q114.908 359.166 114.908 350.439 Q114.908 341.689 117.964 337.106 Q121.043 332.5 126.853 332.5 Z" fill="#000000" fill-rule="nonzero" fill-opacity="1" /><path clip-path="url(#clip610)" d="M147.015 361.805 L151.899 361.805 L151.899 367.685 L147.015 367.685 L147.015 361.805 Z" fill="#000000" fill-rule="nonzero" fill-opacity="1" /><path clip-path="url(#clip610)" d="M176.251 349.05 Q179.607 349.768 181.482 352.037 Q183.38 354.305 183.38 357.638 Q183.38 362.754 179.862 365.555 Q176.343 368.356 169.862 368.356 Q167.686 368.356 165.371 367.916 Q163.079 367.499 160.626 366.643 L160.626 362.129 Q162.57 363.263 164.885 363.842 Q167.2 364.421 169.723 364.421 Q174.121 364.421 176.413 362.685 Q178.727 360.949 178.727 357.638 Q178.727 354.583 176.575 352.87 Q174.445 351.134 170.626 351.134 L166.598 351.134 L166.598 347.291 L170.811 347.291 Q174.26 347.291 176.089 345.925 Q177.917 344.537 177.917 341.944 Q177.917 339.282 176.019 337.87 Q174.144 336.435 170.626 336.435 Q168.704 336.435 166.505 336.851 Q164.306 337.268 161.667 338.148 L161.667 333.981 Q164.329 333.24 166.644 332.87 Q168.982 332.5 171.042 332.5 Q176.366 332.5 179.468 334.93 Q182.57 337.338 182.57 341.458 Q182.57 344.328 180.926 346.319 Q179.283 348.287 176.251 349.05 Z" fill="#000000" fill-rule="nonzero" fill-opacity="1" /><path clip-path="url(#clip610)" d="M46.212 940.714 Q39.7508 940.714 36.0905 943.387 Q32.3984 946.029 32.3984 950.676 Q32.3984 955.323 36.0905 957.997 Q39.7508 960.638 46.212 960.638 Q52.6732 960.638 56.3653 957.997 Q60.0256 955.323 60.0256 950.676 Q60.0256 946.029 56.3653 943.387 Q52.6732 940.714 46.212 940.714 M33.7671 960.638 Q30.5842 958.792 29.0564 955.991 Q27.4968 953.159 27.4968 949.244 Q27.4968 942.751 32.6531 938.708 Q37.8093 934.634 46.212 934.634 Q54.6147 934.634 59.771 938.708 Q64.9272 942.751 64.9272 949.244 Q64.9272 953.159 63.3994 955.991 Q61.8398 958.792 58.657 960.638 L64.0042 960.638 L64.0042 966.527 L14.479 966.527 L14.479 960.638 L33.7671 960.638 Z" fill="#000000" fill-rule="nonzero" fill-opacity="1" /><path clip-path="url(#clip610)" d="M60.503 926.104 L60.503 919.611 L41.0558 919.611 L42.3608 926.709 L38.6686 926.709 L37.4273 919.389 L37.4273 915.028 L60.503 915.028 L60.503 908.503 L64.0042 908.503 L64.0042 926.104 L60.503 926.104 Z" fill="#000000" fill-rule="nonzero" fill-opacity="1" /><path clip-path="url(#clip610)" d="M14.5426 884.727 Q21.8632 888.992 29.0246 891.061 Q36.186 893.13 43.5384 893.13 Q50.8908 893.13 58.1159 891.061 Q65.3091 888.96 72.5979 884.727 L72.5979 889.82 Q65.1182 894.594 57.8931 896.981 Q50.668 899.337 43.5384 899.337 Q36.4406 899.337 29.2474 896.981 Q22.0542 894.626 14.5426 889.82 L14.5426 884.727 Z" fill="#000000" fill-rule="nonzero" fill-opacity="1" /><path clip-path="url(#clip610)" d="M18.2347 867.572 L28.3562 867.572 L28.3562 855.509 L32.9077 855.509 L32.9077 867.572 L52.2594 867.572 Q56.6199 867.572 57.8613 866.394 Q59.1026 865.185 59.1026 861.524 L59.1026 855.509 L64.0042 855.509 L64.0042 861.524 Q64.0042 868.304 61.4897 870.882 Q58.9434 873.46 52.2594 873.46 L32.9077 873.46 L32.9077 877.757 L28.3562 877.757 L28.3562 873.46 L18.2347 873.46 L18.2347 867.572 Z" fill="#000000" fill-rule="nonzero" fill-opacity="1" /><path clip-path="url(#clip610)" d="M14.5426 848.729 L14.5426 843.637 Q22.0542 838.862 29.2474 836.507 Q36.4406 834.12 43.5384 834.12 Q50.668 834.12 57.8931 836.507 Q65.1182 838.862 72.5979 843.637 L72.5979 848.729 Q65.3091 844.496 58.1159 842.427 Q50.8908 840.326 43.5384 840.326 Q36.186 840.326 29.0246 842.427 Q21.8632 844.496 14.5426 848.729 Z" fill="#000000" fill-rule="nonzero" fill-opacity="1" /><path clip-path="url(#clip610)" d="M14.479 802.196 L14.479 788.701 L19.0304 788.701 L19.0304 796.339 L68.0464 796.339 L68.0464 788.701 L72.5979 788.701 L72.5979 802.196 L14.479 802.196 Z" fill="#000000" fill-rule="nonzero" fill-opacity="1" /><path clip-path="url(#clip610)" d="M57.2247 743.568 L44.4614 743.568 L44.4614 754.071 L39.1779 754.071 L39.1779 737.202 L59.58 737.202 Q62.2218 740.926 63.5904 745.414 Q64.9272 749.902 64.9272 754.994 Q64.9272 766.134 58.4342 772.436 Q51.9093 778.706 40.2919 778.706 Q28.6427 778.706 22.1496 772.436 Q15.6248 766.134 15.6248 754.994 Q15.6248 750.347 16.7706 746.178 Q17.9164 741.976 20.1444 738.443 L26.9876 738.443 Q23.9639 742.008 22.4361 746.019 Q20.9083 750.029 20.9083 754.453 Q20.9083 763.174 25.7781 767.566 Q30.6479 771.927 40.2919 771.927 Q49.9041 771.927 54.7739 767.566 Q59.6436 763.174 59.6436 754.453 Q59.6436 751.047 59.0707 748.374 Q58.466 745.7 57.2247 743.568 Z" fill="#000000" fill-rule="nonzero" fill-opacity="1" /><path clip-path="url(#clip610)" d="M46.0847 709.511 Q46.0847 716.609 47.7079 719.346 Q49.3312 722.083 53.2461 722.083 Q56.3653 722.083 58.2114 720.046 Q60.0256 717.978 60.0256 714.445 Q60.0256 709.575 56.5881 706.647 Q53.1188 703.687 47.3897 703.687 L46.0847 703.687 L46.0847 709.511 M43.6657 697.83 L64.0042 697.83 L64.0042 703.687 L58.5933 703.687 Q61.8398 705.692 63.3994 708.684 Q64.9272 711.676 64.9272 716.004 Q64.9272 721.479 61.8716 724.725 Q58.7843 727.94 53.6281 727.94 Q47.6125 727.94 44.5569 723.93 Q41.5014 719.887 41.5014 711.898 L41.5014 703.687 L40.9285 703.687 Q36.8862 703.687 34.6901 706.36 Q32.4621 709.002 32.4621 713.808 Q32.4621 716.864 33.1941 719.76 Q33.9262 722.656 35.3903 725.33 L29.9795 725.33 Q28.7381 722.115 28.1334 719.092 Q27.4968 716.068 27.4968 713.203 Q27.4968 705.469 31.5072 701.65 Q35.5176 697.83 43.6657 697.83 Z" fill="#000000" fill-rule="nonzero" fill-opacity="1" /><path clip-path="url(#clip610)" d="M49.9359 686.372 L28.3562 686.372 L28.3562 680.515 L49.7131 680.515 Q54.7739 680.515 57.3202 678.542 Q59.8346 676.569 59.8346 672.622 Q59.8346 667.88 56.8109 665.142 Q53.7872 662.373 48.5673 662.373 L28.3562 662.373 L28.3562 656.517 L64.0042 656.517 L64.0042 662.373 L58.5296 662.373 Q61.7762 664.506 63.3676 667.338 Q64.9272 670.139 64.9272 673.863 Q64.9272 680.006 61.1078 683.189 Q57.2883 686.372 49.9359 686.372 M27.4968 671.635 L27.4968 671.635 Z" fill="#000000" fill-rule="nonzero" fill-opacity="1" /><path clip-path="url(#clip610)" d="M29.4065 621.728 L34.9447 621.728 Q33.6716 624.211 33.035 626.884 Q32.3984 629.558 32.3984 632.423 Q32.3984 636.783 33.7352 638.979 Q35.072 641.144 37.7456 641.144 Q39.7826 641.144 40.9603 639.584 Q42.1061 638.024 43.1565 633.314 L43.6021 631.309 Q44.9389 625.07 47.3897 622.46 Q49.8086 619.818 54.1691 619.818 Q59.1344 619.818 62.0308 623.765 Q64.9272 627.68 64.9272 634.555 Q64.9272 637.42 64.3543 640.539 Q63.8132 643.626 62.6992 647.064 L56.6518 647.064 Q58.3387 643.817 59.198 640.666 Q60.0256 637.515 60.0256 634.428 Q60.0256 630.29 58.6251 628.062 Q57.1929 625.834 54.6147 625.834 Q52.2276 625.834 50.9545 627.457 Q49.6813 629.049 48.5037 634.491 L48.0262 636.528 Q46.8804 641.971 44.5251 644.39 Q42.138 646.809 38.0002 646.809 Q32.9713 646.809 30.2341 643.244 Q27.4968 639.679 27.4968 633.123 Q27.4968 629.876 27.9743 627.012 Q28.4517 624.147 29.4065 621.728 Z" fill="#000000" fill-rule="nonzero" fill-opacity="1" /><path clip-path="url(#clip610)" d="M29.4065 587.767 L34.9447 587.767 Q33.6716 590.25 33.035 592.923 Q32.3984 595.597 32.3984 598.461 Q32.3984 602.822 33.7352 605.018 Q35.072 607.182 37.7456 607.182 Q39.7826 607.182 40.9603 605.623 Q42.1061 604.063 43.1565 599.353 L43.6021 597.347 Q44.9389 591.109 47.3897 588.499 Q49.8086 585.857 54.1691 585.857 Q59.1344 585.857 62.0308 589.804 Q64.9272 593.719 64.9272 600.594 Q64.9272 603.459 64.3543 606.578 Q63.8132 609.665 62.6992 613.103 L56.6518 613.103 Q58.3387 609.856 59.198 606.705 Q60.0256 603.554 60.0256 600.467 Q60.0256 596.329 58.6251 594.101 Q57.1929 591.873 54.6147 591.873 Q52.2276 591.873 50.9545 593.496 Q49.6813 595.088 48.5037 600.53 L48.0262 602.567 Q46.8804 608.01 44.5251 610.429 Q42.138 612.848 38.0002 612.848 Q32.9713 612.848 30.2341 609.283 Q27.4968 605.718 27.4968 599.162 Q27.4968 595.915 27.9743 593.051 Q28.4517 590.186 29.4065 587.767 Z" fill="#000000" fill-rule="nonzero" fill-opacity="1" /><path clip-path="url(#clip610)" d="M14.479 562.845 L72.5979 562.845 L72.5979 576.341 L68.0464 576.341 L68.0464 568.734 L19.0304 568.734 L19.0304 576.341 L14.479 576.341 L14.479 562.845 Z" fill="#000000" fill-rule="nonzero" fill-opacity="1" /><path clip-path="url(#clip610)" d="M641.656 8.64 L664.601 8.64 L664.601 13.559 L647.009 13.559 L647.009 24.1492 Q648.282 23.7152 649.555 23.5126 Q650.828 23.2811 652.102 23.2811 Q659.335 23.2811 663.56 27.2452 Q667.784 31.2093 667.784 37.9801 Q667.784 44.9535 663.444 48.8308 Q659.104 52.6791 651.205 52.6791 Q648.485 52.6791 645.649 52.2162 Q642.842 51.7532 639.833 50.8273 L639.833 44.9535 Q642.437 46.3713 645.215 47.0657 Q647.993 47.7602 651.089 47.7602 Q656.095 47.7602 659.017 45.1271 Q661.939 42.494 661.939 37.9801 Q661.939 33.4663 659.017 30.8332 Q656.095 28.2001 651.089 28.2001 Q648.745 28.2001 646.401 28.7209 Q644.087 29.2417 641.656 30.3413 L641.656 8.64 Z" fill="#000000" fill-rule="nonzero" fill-opacity="1" /><path clip-path="url(#clip610)" d="M675.857 33.2348 L691.453 33.2348 L691.453 37.9801 L675.857 37.9801 L675.857 33.2348 Z" fill="#000000" fill-rule="nonzero" fill-opacity="1" /><path clip-path="url(#clip610)" d="M699.931 6.81709 L705.255 6.81709 L705.255 51.84 L699.931 51.84 L699.931 6.81709 Z" fill="#000000" fill-rule="nonzero" fill-opacity="1" /><path clip-path="url(#clip610)" d="M728.953 23.1654 Q724.671 23.1654 722.182 26.5218 Q719.694 29.8494 719.694 35.6653 Q719.694 41.4813 722.153 44.8377 Q724.642 48.1653 728.953 48.1653 Q733.206 48.1653 735.695 44.8088 Q738.183 41.4523 738.183 35.6653 Q738.183 29.9072 735.695 26.5508 Q733.206 23.1654 728.953 23.1654 M728.953 18.6515 Q735.897 18.6515 739.861 23.1654 Q743.826 27.6792 743.826 35.6653 Q743.826 43.6225 739.861 48.1653 Q735.897 52.6791 728.953 52.6791 Q721.98 52.6791 718.016 48.1653 Q714.08 43.6225 714.08 35.6653 Q714.08 27.6792 718.016 23.1654 Q721.98 18.6515 728.953 18.6515 Z" fill="#000000" fill-rule="nonzero" fill-opacity="1" /><path clip-path="url(#clip610)" d="M775.915 35.6653 Q775.915 29.7915 773.484 26.464 Q771.082 23.1075 766.858 23.1075 Q762.633 23.1075 760.203 26.464 Q757.801 29.7915 757.801 35.6653 Q757.801 41.5391 760.203 44.8956 Q762.633 48.2231 766.858 48.2231 Q771.082 48.2231 773.484 44.8956 Q775.915 41.5391 775.915 35.6653 M757.801 24.3517 Q759.479 21.4582 762.026 20.0693 Q764.601 18.6515 768.16 18.6515 Q774.063 18.6515 777.737 23.339 Q781.441 28.0265 781.441 35.6653 Q781.441 43.3042 777.737 47.9916 Q774.063 52.6791 768.16 52.6791 Q764.601 52.6791 762.026 51.2902 Q759.479 49.8724 757.801 46.9789 L757.801 51.84 L752.448 51.84 L752.448 6.81709 L757.801 6.81709 L757.801 24.3517 Z" fill="#000000" fill-rule="nonzero" fill-opacity="1" /><path clip-path="url(#clip610)" d="M817.986 34.3054 L817.986 36.9095 L793.507 36.9095 Q793.854 42.4072 796.806 45.3007 Q799.786 48.1653 805.081 48.1653 Q808.148 48.1653 811.013 47.4129 Q813.906 46.6606 816.742 45.156 L816.742 50.1907 Q813.877 51.406 810.868 52.0425 Q807.859 52.6791 804.763 52.6791 Q797.008 52.6791 792.465 48.1653 Q787.951 43.6514 787.951 35.9547 Q787.951 27.9975 792.234 23.339 Q796.545 18.6515 803.837 18.6515 Q810.376 18.6515 814.167 22.876 Q817.986 27.0716 817.986 34.3054 M812.662 32.7429 Q812.604 28.3737 810.203 25.7695 Q807.83 23.1654 803.895 23.1654 Q799.439 23.1654 796.748 25.6827 Q794.086 28.2001 793.681 32.7718 L812.662 32.7429 Z" fill="#000000" fill-rule="nonzero" fill-opacity="1" /><path clip-path="url(#clip610)" d="M866.221 20.3876 L866.221 25.4223 Q863.964 24.2649 861.533 23.6862 Q859.103 23.1075 856.499 23.1075 Q852.534 23.1075 850.538 24.3228 Q848.57 25.5381 848.57 27.9686 Q848.57 29.8204 849.988 30.891 Q851.406 31.9327 855.688 32.8876 L857.511 33.2926 Q863.183 34.5079 865.555 36.7359 Q867.957 38.935 867.957 42.8991 Q867.957 47.4129 864.369 50.046 Q860.81 52.6791 854.56 52.6791 Q851.956 52.6791 849.12 52.1583 Q846.313 51.6664 843.188 50.6537 L843.188 45.156 Q846.14 46.6896 849.004 47.4708 Q851.869 48.2231 854.676 48.2231 Q858.437 48.2231 860.463 46.95 Q862.488 45.6479 862.488 43.3042 Q862.488 41.134 861.012 39.9766 Q859.566 38.8192 854.618 37.7486 L852.766 37.3146 Q847.818 36.273 845.619 34.1318 Q843.42 31.9616 843.42 28.2001 Q843.42 23.6283 846.661 21.1399 Q849.901 18.6515 855.862 18.6515 Q858.813 18.6515 861.418 19.0855 Q864.022 19.5196 866.221 20.3876 Z" fill="#000000" fill-rule="nonzero" fill-opacity="1" /><path clip-path="url(#clip610)" d="M876.435 19.4328 L881.759 19.4328 L881.759 51.84 L876.435 51.84 L876.435 19.4328 M876.435 6.81709 L881.759 6.81709 L881.759 13.559 L876.435 13.559 L876.435 6.81709 Z" fill="#000000" fill-rule="nonzero" fill-opacity="1" /><path clip-path="url(#clip610)" d="M919.837 32.2799 L919.837 51.84 L914.513 51.84 L914.513 32.4535 Q914.513 27.8529 912.719 25.567 Q910.925 23.2811 907.337 23.2811 Q903.026 23.2811 900.538 26.03 Q898.049 28.7788 898.049 33.5241 L898.049 51.84 L892.696 51.84 L892.696 19.4328 L898.049 19.4328 L898.049 24.4675 Q899.959 21.545 902.534 20.0983 Q905.138 18.6515 908.524 18.6515 Q914.108 18.6515 916.973 22.1237 Q919.837 25.567 919.837 32.2799 Z" fill="#000000" fill-rule="nonzero" fill-opacity="1" /><path clip-path="url(#clip610)" d="M953.778 20.677 L953.778 25.6538 Q951.521 24.4096 949.235 23.802 Q946.978 23.1654 944.664 23.1654 Q939.484 23.1654 936.62 26.464 Q933.755 29.7336 933.755 35.6653 Q933.755 41.597 936.62 44.8956 Q939.484 48.1653 944.664 48.1653 Q946.978 48.1653 949.235 47.5576 Q951.521 46.921 953.778 45.6768 L953.778 50.5958 Q951.55 51.6375 949.149 52.1583 Q946.776 52.6791 944.085 52.6791 Q936.764 52.6791 932.453 48.0784 Q928.142 43.4778 928.142 35.6653 Q928.142 27.7371 932.482 23.1943 Q936.851 18.6515 944.432 18.6515 Q946.892 18.6515 949.235 19.1724 Q951.579 19.6642 953.778 20.677 Z" fill="#000000" fill-rule="nonzero" fill-opacity="1" /><path clip-path="url(#clip610)" d="M964.397 44.4905 L970.503 44.4905 L970.503 51.84 L964.397 51.84 L964.397 44.4905 M964.397 21.1978 L970.503 21.1978 L970.503 28.5473 L964.397 28.5473 L964.397 21.1978 Z" fill="#000000" fill-rule="nonzero" fill-opacity="1" /><path clip-path="url(#clip610)" d="M1020.73 36.7648 L1019.46 30.0809 Q1018.16 23.2233 1013.01 23.2233 Q1009.13 23.2233 1007.37 26.4061 Q1005.14 30.3991 1005.14 35.6653 Q1005.14 42.031 1007.31 45.0692 Q1009.51 48.1653 1013.01 48.1653 Q1016.89 48.1653 1018.97 42.0021 L1020.73 36.7648 M1023.71 27.9107 L1026.58 19.4328 L1031.32 19.4328 L1025.39 36.9963 L1026.55 43.3331 Q1026.81 44.7509 1027.82 45.9373 Q1029.01 47.3261 1029.94 47.3261 L1032.48 47.3261 L1032.48 51.84 L1029.3 51.84 Q1026.58 51.84 1024.15 49.4095 Q1022.96 48.1942 1022.47 45.6479 Q1021.14 48.8597 1018.42 51.377 Q1017.15 52.5634 1013.01 52.5634 Q1006.21 52.5634 1002.91 48.1653 Q999.524 43.6225 999.524 35.6653 Q999.524 27.1584 1003.2 23.1654 Q1007.28 18.7094 1013.01 18.7094 Q1022.01 18.7094 1023.71 27.9107 Z" fill="#000000" fill-rule="nonzero" fill-opacity="1" /><path clip-path="url(#clip610)" d="M1041.6 24.9304 L1078.69 24.9304 L1078.69 29.7915 L1041.6 29.7915 L1041.6 24.9304 M1041.6 36.7359 L1078.69 36.7359 L1078.69 41.6549 L1041.6 41.6549 L1041.6 36.7359 Z" fill="#000000" fill-rule="nonzero" fill-opacity="1" /><path clip-path="url(#clip610)" d="M1104.53 27.9107 Q1100.59 27.9107 1098.28 30.6017 Q1095.99 33.2926 1095.99 37.9801 Q1095.99 42.6387 1098.28 45.3586 Q1100.59 48.0495 1104.53 48.0495 Q1108.46 48.0495 1110.75 45.3586 Q1113.07 42.6387 1113.07 37.9801 Q1113.07 33.2926 1110.75 30.6017 Q1108.46 27.9107 1104.53 27.9107 M1116.13 9.59486 L1116.13 14.9189 Q1113.93 13.8772 1111.68 13.3275 Q1109.45 12.7777 1107.25 12.7777 Q1101.46 12.7777 1098.4 16.6839 Q1095.36 20.5902 1094.92 28.4894 Q1096.63 25.9721 1099.21 24.6411 Q1101.78 23.2811 1104.88 23.2811 Q1111.39 23.2811 1115.15 27.2452 Q1118.94 31.1804 1118.94 37.9801 Q1118.94 44.6352 1115 48.6571 Q1111.07 52.6791 1104.53 52.6791 Q1097.04 52.6791 1093.07 46.95 Q1089.11 41.1919 1089.11 30.2834 Q1089.11 20.0404 1093.97 13.964 Q1098.83 7.85875 1107.02 7.85875 Q1109.22 7.85875 1111.45 8.29278 Q1113.7 8.72681 1116.13 9.59486 Z" fill="#000000" fill-rule="nonzero" fill-opacity="1" /><path clip-path="url(#clip610)" d="M1141.51 12.4884 Q1136.99 12.4884 1134.71 16.9444 Q1132.45 21.3714 1132.45 30.2834 Q1132.45 39.1665 1134.71 43.6225 Q1136.99 48.0495 1141.51 48.0495 Q1146.05 48.0495 1148.31 43.6225 Q1150.59 39.1665 1150.59 30.2834 Q1150.59 21.3714 1148.31 16.9444 Q1146.05 12.4884 1141.51 12.4884 M1141.51 7.85875 Q1148.77 7.85875 1152.59 13.6168 Q1156.44 19.346 1156.44 30.2834 Q1156.44 41.1919 1152.59 46.95 Q1148.77 52.6791 1141.51 52.6791 Q1134.25 52.6791 1130.4 46.95 Q1126.58 41.1919 1126.58 30.2834 Q1126.58 19.346 1130.4 13.6168 Q1134.25 7.85875 1141.51 7.85875 Z" fill="#000000" fill-rule="nonzero" fill-opacity="1" /><path clip-path="url(#clip610)" d="M1175.19 11.5914 Q1172.87 11.5914 1171.28 13.2117 Q1169.69 14.8032 1169.69 17.118 Q1169.69 19.4038 1171.28 20.9953 Q1172.87 22.5577 1175.19 22.5577 Q1177.5 22.5577 1179.1 20.9953 Q1180.69 19.4038 1180.69 17.118 Q1180.69 14.8321 1179.07 13.2117 Q1177.47 11.5914 1175.19 11.5914 M1175.19 7.85875 Q1177.04 7.85875 1178.75 8.58213 Q1180.46 9.27657 1181.7 10.6076 Q1183.03 11.9097 1183.7 13.559 Q1184.36 15.2083 1184.36 17.118 Q1184.36 20.9374 1181.67 23.5994 Q1179.01 26.2325 1175.13 26.2325 Q1171.22 26.2325 1168.62 23.6283 Q1166.02 21.0242 1166.02 17.118 Q1166.02 13.2407 1168.68 10.5497 Q1171.34 7.85875 1175.19 7.85875 Z" fill="#000000" fill-rule="nonzero" fill-opacity="1" /><path clip-path="url(#clip610)" d="M1219.69 10.2314 L1219.69 19.4328 L1230.66 19.4328 L1230.66 23.5705 L1219.69 23.5705 L1219.69 41.163 Q1219.69 45.1271 1220.76 46.2555 Q1221.86 47.384 1225.19 47.384 L1230.66 47.384 L1230.66 51.84 L1225.19 51.84 Q1219.03 51.84 1216.68 49.5541 Q1214.34 47.2393 1214.34 41.163 L1214.34 23.5705 L1210.43 23.5705 L1210.43 19.4328 L1214.34 19.4328 L1214.34 10.2314 L1219.69 10.2314 Z" fill="#000000" fill-rule="nonzero" fill-opacity="1" /><path clip-path="url(#clip610)" d="M1258.38 31.5855 Q1260.26 32.222 1262.02 34.3054 Q1263.82 36.3887 1265.61 40.0345 L1271.54 51.84 L1265.26 51.84 L1259.74 40.7579 Q1257.6 36.4176 1255.57 34.9998 Q1253.57 33.582 1250.1 33.582 L1243.74 33.582 L1243.74 51.84 L1237.89 51.84 L1237.89 8.64 L1251.09 8.64 Q1258.49 8.64 1262.14 11.736 Q1265.78 14.8321 1265.78 21.0821 Q1265.78 25.1619 1263.87 27.8529 Q1261.99 30.5438 1258.38 31.5855 M1243.74 13.4432 L1243.74 28.7788 L1251.09 28.7788 Q1255.31 28.7788 1257.45 26.8401 Q1259.62 24.8726 1259.62 21.0821 Q1259.62 17.2916 1257.45 15.3819 Q1255.31 13.4432 1251.09 13.4432 L1243.74 13.4432 Z" fill="#000000" fill-rule="nonzero" fill-opacity="1" /><path clip-path="url(#clip610)" d="M1279.07 8.64 L1303.89 8.64 L1303.89 13.559 L1284.91 13.559 L1284.91 26.2904 L1302.04 26.2904 L1302.04 31.2093 L1284.91 31.2093 L1284.91 51.84 L1279.07 51.84 L1279.07 8.64 Z" fill="#000000" fill-rule="nonzero" fill-opacity="1" /><path clip-path="url(#clip610)" d="M1313.61 24.9304 L1350.71 24.9304 L1350.71 29.7915 L1313.61 29.7915 L1313.61 24.9304 M1313.61 36.7359 L1350.71 36.7359 L1350.71 41.6549 L1313.61 41.6549 L1313.61 36.7359 Z" fill="#000000" fill-rule="nonzero" fill-opacity="1" /><path clip-path="url(#clip610)" d="M1364.34 46.921 L1373.89 46.921 L1373.89 13.964 L1363.5 16.0474 L1363.5 10.7233 L1373.83 8.64 L1379.67 8.64 L1379.67 46.921 L1389.22 46.921 L1389.22 51.84 L1364.34 51.84 L1364.34 46.921 Z" fill="#000000" fill-rule="nonzero" fill-opacity="1" /><path clip-path="url(#clip610)" d="M1444.34 25.6538 Q1446.34 22.0659 1449.12 20.3587 Q1451.89 18.6515 1455.66 18.6515 Q1460.72 18.6515 1463.47 22.2105 Q1466.22 25.7406 1466.22 32.2799 L1466.22 51.84 L1460.86 51.84 L1460.86 32.4535 Q1460.86 27.795 1459.22 25.5381 Q1457.57 23.2811 1454.18 23.2811 Q1450.04 23.2811 1447.64 26.03 Q1445.24 28.7788 1445.24 33.5241 L1445.24 51.84 L1439.89 51.84 L1439.89 32.4535 Q1439.89 27.7661 1438.24 25.5381 Q1436.59 23.2811 1433.14 23.2811 Q1429.06 23.2811 1426.66 26.0589 Q1424.26 28.8077 1424.26 33.5241 L1424.26 51.84 L1418.91 51.84 L1418.91 19.4328 L1424.26 19.4328 L1424.26 24.4675 Q1426.08 21.4872 1428.63 20.0693 Q1431.18 18.6515 1434.68 18.6515 Q1438.21 18.6515 1440.67 20.4455 Q1443.16 22.2395 1444.34 25.6538 Z" fill="#000000" fill-rule="nonzero" fill-opacity="1" /><path clip-path="url(#clip610)" d="M1497.5 20.3876 L1497.5 25.4223 Q1495.24 24.2649 1492.81 23.6862 Q1490.38 23.1075 1487.77 23.1075 Q1483.81 23.1075 1481.81 24.3228 Q1479.85 25.5381 1479.85 27.9686 Q1479.85 29.8204 1481.26 30.891 Q1482.68 31.9327 1486.96 32.8876 L1488.79 33.2926 Q1494.46 34.5079 1496.83 36.7359 Q1499.23 38.935 1499.23 42.8991 Q1499.23 47.4129 1495.64 50.046 Q1492.09 52.6791 1485.84 52.6791 Q1483.23 52.6791 1480.4 52.1583 Q1477.59 51.6664 1474.46 50.6537 L1474.46 45.156 Q1477.42 46.6896 1480.28 47.4708 Q1483.14 48.2231 1485.95 48.2231 Q1489.71 48.2231 1491.74 46.95 Q1493.76 45.6479 1493.76 43.3042 Q1493.76 41.134 1492.29 39.9766 Q1490.84 38.8192 1485.89 37.7486 L1484.04 37.3146 Q1479.09 36.273 1476.89 34.1318 Q1474.7 31.9616 1474.7 28.2001 Q1474.7 23.6283 1477.94 21.1399 Q1481.18 18.6515 1487.14 18.6515 Q1490.09 18.6515 1492.69 19.0855 Q1495.3 19.5196 1497.5 20.3876 Z" fill="#000000" fill-rule="nonzero" fill-opacity="1" /><path clip-path="url(#clip610)" d="M1523.45 19.4328 L1528.78 19.4328 L1535.43 44.722 L1542.06 19.4328 L1548.34 19.4328 L1554.99 44.722 L1561.62 19.4328 L1566.94 19.4328 L1558.46 51.84 L1552.18 51.84 L1545.21 25.2776 L1538.21 51.84 L1531.93 51.84 L1523.45 19.4328 Z" fill="#000000" fill-rule="nonzero" fill-opacity="1" /><path clip-path="url(#clip610)" d="M1575.01 19.4328 L1580.34 19.4328 L1580.34 51.84 L1575.01 51.84 L1575.01 19.4328 M1575.01 6.81709 L1580.34 6.81709 L1580.34 13.559 L1575.01 13.559 L1575.01 6.81709 Z" fill="#000000" fill-rule="nonzero" fill-opacity="1" /><path clip-path="url(#clip610)" d="M1612.8 24.3517 L1612.8 6.81709 L1618.13 6.81709 L1618.13 51.84 L1612.8 51.84 L1612.8 46.9789 Q1611.12 49.8724 1608.55 51.2902 Q1606 52.6791 1602.41 52.6791 Q1596.54 52.6791 1592.84 47.9916 Q1589.16 43.3042 1589.16 35.6653 Q1589.16 28.0265 1592.84 23.339 Q1596.54 18.6515 1602.41 18.6515 Q1606 18.6515 1608.55 20.0693 Q1611.12 21.4582 1612.8 24.3517 M1594.66 35.6653 Q1594.66 41.5391 1597.06 44.8956 Q1599.49 48.2231 1603.72 48.2231 Q1607.94 48.2231 1610.37 44.8956 Q1612.8 41.5391 1612.8 35.6653 Q1612.8 29.7915 1610.37 26.464 Q1607.94 23.1075 1603.72 23.1075 Q1599.49 23.1075 1597.06 26.464 Q1594.66 29.7915 1594.66 35.6653 Z" fill="#000000" fill-rule="nonzero" fill-opacity="1" /><path clip-path="url(#clip610)" d="M1634.36 10.2314 L1634.36 19.4328 L1645.33 19.4328 L1645.33 23.5705 L1634.36 23.5705 L1634.36 41.163 Q1634.36 45.1271 1635.43 46.2555 Q1636.53 47.384 1639.86 47.384 L1645.33 47.384 L1645.33 51.84 L1639.86 51.84 Q1633.69 51.84 1631.35 49.5541 Q1629.01 47.2393 1629.01 41.163 L1629.01 23.5705 L1625.1 23.5705 L1625.1 19.4328 L1629.01 19.4328 L1629.01 10.2314 L1634.36 10.2314 Z" fill="#000000" fill-rule="nonzero" fill-opacity="1" /><path clip-path="url(#clip610)" d="M1679.27 32.2799 L1679.27 51.84 L1673.94 51.84 L1673.94 32.4535 Q1673.94 27.8529 1672.15 25.567 Q1670.35 23.2811 1666.77 23.2811 Q1662.45 23.2811 1659.97 26.03 Q1657.48 28.7788 1657.48 33.5241 L1657.48 51.84 L1652.13 51.84 L1652.13 6.81709 L1657.48 6.81709 L1657.48 24.4675 Q1659.39 21.545 1661.96 20.0983 Q1664.57 18.6515 1667.95 18.6515 Q1673.54 18.6515 1676.4 22.1237 Q1679.27 25.567 1679.27 32.2799 Z" fill="#000000" fill-rule="nonzero" fill-opacity="1" /><path clip-path="url(#clip610)" d="M1690.58 24.9304 L1727.67 24.9304 L1727.67 29.7915 L1690.58 29.7915 L1690.58 24.9304 M1690.58 36.7359 L1727.67 36.7359 L1727.67 41.6549 L1690.58 41.6549 L1690.58 36.7359 Z" fill="#000000" fill-rule="nonzero" fill-opacity="1" /><path clip-path="url(#clip610)" d="M1752.79 12.4884 Q1748.28 12.4884 1745.99 16.9444 Q1743.73 21.3714 1743.73 30.2834 Q1743.73 39.1665 1745.99 43.6225 Q1748.28 48.0495 1752.79 48.0495 Q1757.33 48.0495 1759.59 43.6225 Q1761.88 39.1665 1761.88 30.2834 Q1761.88 21.3714 1759.59 16.9444 Q1757.33 12.4884 1752.79 12.4884 M1752.79 7.85875 Q1760.05 7.85875 1763.87 13.6168 Q1767.72 19.346 1767.72 30.2834 Q1767.72 41.1919 1763.87 46.95 Q1760.05 52.6791 1752.79 52.6791 Q1745.53 52.6791 1741.68 46.95 Q1737.86 41.1919 1737.86 30.2834 Q1737.86 19.346 1741.68 13.6168 Q1745.53 7.85875 1752.79 7.85875 Z" fill="#000000" fill-rule="nonzero" fill-opacity="1" /><path clip-path="url(#clip610)" d="M1777.99 44.4905 L1784.1 44.4905 L1784.1 51.84 L1777.99 51.84 L1777.99 44.4905 Z" fill="#000000" fill-rule="nonzero" fill-opacity="1" /><path clip-path="url(#clip610)" d="M1796.89 8.64 L1819.83 8.64 L1819.83 13.559 L1802.24 13.559 L1802.24 24.1492 Q1803.51 23.7152 1804.79 23.5126 Q1806.06 23.2811 1807.33 23.2811 Q1814.57 23.2811 1818.79 27.2452 Q1823.02 31.2093 1823.02 37.9801 Q1823.02 44.9535 1818.68 48.8308 Q1814.33 52.6791 1806.44 52.6791 Q1803.72 52.6791 1800.88 52.2162 Q1798.07 51.7532 1795.06 50.8273 L1795.06 44.9535 Q1797.67 46.3713 1800.45 47.0657 Q1803.22 47.7602 1806.32 47.7602 Q1811.33 47.7602 1814.25 45.1271 Q1817.17 42.494 1817.17 37.9801 Q1817.17 33.4663 1814.25 30.8332 Q1811.33 28.2001 1806.32 28.2001 Q1803.98 28.2001 1801.63 28.7209 Q1799.32 29.2417 1796.89 30.3413 L1796.89 8.64 Z" fill="#000000" fill-rule="nonzero" fill-opacity="1" /><path clip-path="url(#clip610)" d="M1875.94 20.677 L1875.94 25.6538 Q1873.68 24.4096 1871.39 23.802 Q1869.14 23.1654 1866.82 23.1654 Q1861.64 23.1654 1858.78 26.464 Q1855.91 29.7336 1855.91 35.6653 Q1855.91 41.597 1858.78 44.8956 Q1861.64 48.1653 1866.82 48.1653 Q1869.14 48.1653 1871.39 47.5576 Q1873.68 46.921 1875.94 45.6768 L1875.94 50.5958 Q1873.71 51.6375 1871.31 52.1583 Q1868.94 52.6791 1866.24 52.6791 Q1858.92 52.6791 1854.61 48.0784 Q1850.3 43.4778 1850.3 35.6653 Q1850.3 27.7371 1854.64 23.1943 Q1859.01 18.6515 1866.59 18.6515 Q1869.05 18.6515 1871.39 19.1724 Q1873.74 19.6642 1875.94 20.677 Z" fill="#000000" fill-rule="nonzero" fill-opacity="1" /><path clip-path="url(#clip610)" d="M1910.43 25.6538 Q1912.42 22.0659 1915.2 20.3587 Q1917.98 18.6515 1921.74 18.6515 Q1926.81 18.6515 1929.55 22.2105 Q1932.3 25.7406 1932.3 32.2799 L1932.3 51.84 L1926.95 51.84 L1926.95 32.4535 Q1926.95 27.795 1925.3 25.5381 Q1923.65 23.2811 1920.27 23.2811 Q1916.13 23.2811 1913.73 26.03 Q1911.33 28.7788 1911.33 33.5241 L1911.33 51.84 L1905.97 51.84 L1905.97 32.4535 Q1905.97 27.7661 1904.32 25.5381 Q1902.67 23.2811 1899.23 23.2811 Q1895.15 23.2811 1892.75 26.0589 Q1890.35 28.8077 1890.35 33.5241 L1890.35 51.84 L1884.99 51.84 L1884.99 19.4328 L1890.35 19.4328 L1890.35 24.4675 Q1892.17 21.4872 1894.72 20.0693 Q1897.26 18.6515 1900.76 18.6515 Q1904.29 18.6515 1906.75 20.4455 Q1909.24 22.2395 1910.43 25.6538 Z" fill="#000000" fill-rule="nonzero" fill-opacity="1" /><polyline clip-path="url(#clip611)" style="stroke:#009af9; stroke-linecap:round; stroke-linejoin:round; stroke-width:8; stroke-opacity:1; fill:none" points="219.38,1164.17 221.514,1162.13 223.647,1160.08 225.78,1158.02 227.914,1155.96 230.047,1153.91 232.18,1151.85 234.314,1149.8 236.447,1147.75 238.581,1145.71 240.714,1143.68 242.847,1141.67 244.981,1139.67 247.114,1137.68 249.247,1135.71 251.381,1133.76 253.514,1131.83 255.648,1129.93 257.781,1128.06 259.914,1126.21 262.048,1124.39 264.181,1122.6 266.314,1120.85 268.448,1119.13 270.581,1117.45 272.715,1115.81 274.848,1114.21 276.981,1112.65 279.115,1111.14 281.248,1109.67 283.381,1108.25 285.515,1106.88 287.648,1105.56 289.782,1104.29 291.915,1103.08 294.048,1101.92 296.182,1100.82 298.315,1099.77 300.448,1098.79 302.582,1097.86 304.715,1097 306.849,1096.2 308.982,1095.46 311.115,1094.79 313.249,1094.19 315.382,1093.65 317.515,1093.17 319.649,1092.77 321.782,1092.44 323.916,1092.17 326.049,1091.97 328.182,1091.85 330.316,1091.79 332.449,1091.81 334.582,1091.9 336.716,1092.06 338.849,1092.29 340.983,1092.6 343.116,1092.98 345.249,1093.43 347.383,1093.95 349.516,1094.54 351.649,1095.2 353.783,1095.94 355.916,1096.75 358.05,1097.63 360.183,1098.57 362.316,1099.59 364.45,1100.67 366.583,1101.83 368.716,1103.05 370.85,1104.33 372.983,1105.68 375.117,1107.1 377.25,1108.58 379.383,1110.12 381.517,1111.72 383.65,1113.38 385.783,1115.1 387.917,1116.87 390.05,1118.7 392.184,1120.59 394.317,1122.53 396.45,1124.51 398.584,1126.55 400.717,1128.63 402.85,1130.76 404.984,1132.93 407.117,1135.14 409.251,1137.4 411.384,1139.69 413.517,1142.01 415.651,1144.37 417.784,1146.76 419.917,1149.18 422.051,1151.62 424.184,1154.09 426.318,1156.59 428.451,1159.1 430.584,1161.63 432.718,1164.17 434.851,1166.73 436.984,1169.3 439.118,1171.88 441.251,1174.46 443.385,1177.04 445.518,1179.63 447.651,1182.21 449.785,1184.79 451.918,1187.36 454.051,1189.92 456.185,1192.47 458.318,1195 460.452,1197.52 462.585,1200.01 464.718,1202.49 466.852,1204.94 468.985,1207.36 471.118,1209.75 473.252,1212.11 475.385,1214.43 477.519,1216.72 479.652,1218.96 481.785,1221.17 483.919,1223.33 486.052,1225.44 488.186,1227.5 490.319,1229.51 492.452,1231.47 494.586,1233.37 496.719,1235.22 498.852,1237 500.986,1238.72 503.119,1240.38 505.253,1241.96 507.386,1243.49 509.519,1244.94 511.653,1246.32 513.786,1247.62 515.919,1248.85 518.053,1250.01 520.186,1251.08 522.32,1252.08 524.453,1252.99 526.586,1253.82 528.72,1254.57 530.853,1255.23 532.986,1255.81 535.12,1256.29 537.253,1256.69 539.387,1257 541.52,1257.22 543.653,1257.35 545.787,1257.39 547.92,1257.34 550.053,1257.19 552.187,1256.95 554.32,1256.62 556.454,1256.19 558.587,1255.67 560.72,1255.06 562.854,1254.35 564.987,1253.55 567.12,1252.66 569.254,1251.67 571.387,1250.59 573.521,1249.42 575.654,1248.16 577.787,1246.8 579.921,1245.36 582.054,1243.83 584.187,1242.21 586.321,1240.5 588.454,1238.7 590.588,1236.83 592.721,1234.86 594.854,1232.82 596.988,1230.69 599.121,1228.49 601.254,1226.21 603.388,1223.85 605.521,1221.42 607.655,1218.92 609.788,1216.35 611.921,1213.71 614.055,1211 616.188,1208.23 618.321,1205.4 620.455,1202.51 622.588,1199.56 624.722,1196.56 626.855,1193.51 628.988,1190.41 631.122,1187.26 633.255,1184.07 635.388,1180.84 637.522,1177.57 639.655,1174.27 641.789,1170.93 643.922,1167.56 646.055,1164.17 648.189,1160.76 650.322,1157.33 652.455,1153.88 654.589,1150.42 656.722,1146.95 658.856,1143.47 660.989,1139.98 663.122,1136.5 665.256,1133.02 667.389,1129.55 669.522,1126.09 671.656,1122.65 673.789,1119.21 675.923,1115.8 678.056,1112.42 680.189,1109.06 682.323,1105.73 684.456,1102.44 686.589,1099.18 688.723,1095.97 690.856,1092.8 692.99,1089.68 695.123,1086.61 697.256,1083.59 699.39,1080.63 701.523,1077.74 703.656,1074.9 705.79,1072.14 707.923,1069.44 710.057,1066.82 712.19,1064.28 714.323,1061.81 716.457,1059.43 718.59,1057.14 720.723,1054.93 722.857,1052.82 724.99,1050.8 727.124,1048.87 729.257,1047.05 731.39,1045.33 733.524,1043.71 735.657,1042.2 737.79,1040.8 739.924,1039.51 742.057,1038.33 744.191,1037.27 746.324,1036.32 748.457,1035.5 750.591,1034.8 752.724,1034.21 754.857,1033.76 756.991,1033.42 759.124,1033.22 761.258,1033.14 763.391,1033.19 765.524,1033.38 767.658,1033.69 769.791,1034.14 771.924,1034.71 774.058,1035.42 776.191,1036.27 778.325,1037.25 780.458,1038.36 782.591,1039.61 784.725,1040.99 786.858,1042.5 788.991,1044.15 791.125,1045.93 793.258,1047.85 795.392,1049.89 797.525,1052.07 799.658,1054.38 801.792,1056.81 803.925,1059.38 806.058,1062.07 808.192,1064.88 810.325,1067.82 812.459,1070.89 814.592,1074.07 816.725,1077.37 818.859,1080.79 820.992,1084.32 823.125,1087.96 825.259,1091.71 827.392,1095.57 829.526,1099.53 831.659,1103.6 833.792,1107.76 835.926,1112.01 838.059,1116.36 840.193,1120.8 842.326,1125.33 844.459,1129.94 846.593,1134.62 848.726,1139.38 850.859,1144.21 852.993,1149.11 855.126,1154.07 857.26,1159.1 859.393,1164.17 861.526,1169.3 863.66,1174.48 865.793,1179.7 867.926,1184.95 870.06,1190.24 872.193,1195.56 874.327,1200.9 876.46,1206.26 878.593,1211.63 880.727,1217.02 882.86,1222.41 884.993,1227.79 887.127,1233.18 889.26,1238.55 891.394,1243.91 893.527,1249.24 895.66,1254.55 897.794,1259.83 899.927,1265.07 902.06,1270.27 904.194,1275.42 906.327,1280.52 908.461,1285.56 910.594,1290.54 912.727,1295.45 914.861,1300.29 916.994,1305.05 919.127,1309.72 921.261,1314.3 923.394,1318.79 925.528,1323.18 927.661,1327.46 929.794,1331.63 931.928,1335.69 934.061,1339.62 936.194,1343.43 938.328,1347.11 940.461,1350.65 942.595,1354.05 944.728,1357.3 946.861,1360.4 948.995,1363.35 951.128,1366.13 953.261,1368.76 955.395,1371.21 957.528,1373.49 959.662,1375.59 961.795,1377.5 963.928,1379.23 966.062,1380.78 968.195,1382.12 970.328,1383.27 972.462,1384.22 974.595,1384.96 976.729,1385.49 978.862,1385.8 980.995,1385.91 983.129,1385.79 985.262,1385.45 987.395,1384.89 989.529,1384.1 991.662,1383.08 993.796,1381.82 995.929,1380.34 998.062,1378.61 1000.2,1376.65 1002.33,1374.44 1004.46,1372 1006.6,1369.3 1008.73,1366.37 1010.86,1363.18 1013,1359.75 1015.13,1356.07 1017.26,1352.15 1019.4,1347.97 1021.53,1343.54 1023.66,1338.86 1025.8,1333.93 1027.93,1328.75 1030.06,1323.32 1032.2,1317.64 1034.33,1311.71 1036.46,1305.53 1038.6,1299.11 1040.73,1292.44 1042.86,1285.52 1045,1278.36 1047.13,1270.96 1049.26,1263.32 1051.4,1255.45 1053.53,1247.33 1055.66,1238.99 1057.8,1230.41 1059.93,1221.61 1062.06,1212.58 1064.2,1203.33 1066.33,1193.86 1068.46,1184.18 1070.6,1174.28 1072.73,1164.17 1074.86,1153.87 1077,1143.36 1079.13,1132.65 1081.26,1121.76 1083.4,1110.67 1085.53,1099.41 1087.66,1087.96 1089.8,1076.35 1091.93,1064.56 1094.06,1052.62 1096.2,1040.52 1098.33,1028.26 1100.46,1015.86 1102.6,1003.32 1104.73,990.642 1106.86,977.838 1109,964.911 1111.13,951.868 1113.26,938.715 1115.4,925.459 1117.53,912.105 1119.66,898.661 1121.8,885.134 1123.93,871.529 1126.06,857.854 1128.2,844.116 1130.33,830.322 1132.46,816.478 1134.6,802.593 1136.73,788.673 1138.87,774.725 1141,760.757 1143.13,746.776 1145.27,732.79 1147.4,718.806 1149.53,704.831 1151.67,690.873 1153.8,676.939 1155.93,663.037 1158.07,649.174 1160.2,635.359 1162.33,621.598 1164.47,607.899 1166.6,594.269 1168.73,580.717 1170.87,567.249 1173,553.873 1175.13,540.596 1177.27,527.426 1179.4,514.371 1181.53,501.437 1183.67,488.631 1185.8,475.962 1187.93,463.436 1190.07,451.06 1192.2,438.841 1194.33,426.786 1196.47,414.902 1198.6,403.196 1200.73,391.675 1202.87,380.344 1205,369.211 1207.13,358.282 1209.27,347.564 1211.4,337.061 1213.53,326.781 1215.67,316.73 1217.8,306.913 1219.93,297.336 1222.07,288.004 1224.2,278.923 1226.33,270.099 1228.47,261.536 1230.6,253.239 1232.73,245.213 1234.87,237.464 1237,229.994 1239.13,222.81 1241.27,215.914 1243.4,209.312 1245.53,203.007 1247.67,197.002 1249.8,191.301 1251.93,185.908 1254.07,180.826 1256.2,176.057 1258.33,171.605 1260.47,167.472 1262.6,163.66 1264.73,160.173 1266.87,157.011 1269,154.177 1271.13,151.673 1273.27,149.499 1275.4,147.658 1277.53,146.15 1279.67,144.976 1281.8,144.137 1283.93,143.633 1286.07,143.465 1288.2,143.633 1290.33,144.137 1292.47,144.976 1294.6,146.15 1296.73,147.658 1298.87,149.499 1301,151.673 1303.14,154.177 1305.27,157.011 1307.4,160.173 1309.54,163.66 1311.67,167.472 1313.8,171.605 1315.94,176.057 1318.07,180.826 1320.2,185.908 1322.34,191.301 1324.47,197.002 1326.6,203.007 1328.74,209.312 1330.87,215.914 1333,222.81 1335.14,229.994 1337.27,237.464 1339.4,245.213 1341.54,253.239 1343.67,261.536 1345.8,270.099 1347.94,278.923 1350.07,288.004 1352.2,297.336 1354.34,306.913 1356.47,316.73 1358.6,326.781 1360.74,337.061 1362.87,347.564 1365,358.282 1367.14,369.211 1369.27,380.344 1371.4,391.675 1373.54,403.196 1375.67,414.902 1377.8,426.786 1379.94,438.841 1382.07,451.06 1384.2,463.436 1386.34,475.962 1388.47,488.631 1390.6,501.437 1392.74,514.371 1394.87,527.426 1397,540.596 1399.14,553.873 1401.27,567.249 1403.4,580.717 1405.54,594.269 1407.67,607.899 1409.8,621.598 1411.94,635.359 1414.07,649.174 1416.2,663.037 1418.34,676.939 1420.47,690.873 1422.6,704.831 1424.74,718.806 1426.87,732.79 1429,746.776 1431.14,760.757 1433.27,774.725 1435.4,788.673 1437.54,802.593 1439.67,816.478 1441.8,830.322 1443.94,844.116 1446.07,857.854 1448.2,871.529 1450.34,885.134 1452.47,898.661 1454.6,912.105 1456.74,925.459 1458.87,938.715 1461,951.868 1463.14,964.911 1465.27,977.838 1467.4,990.642 1469.54,1003.32 1471.67,1015.86 1473.81,1028.26 1475.94,1040.52 1478.07,1052.62 1480.21,1064.56 1482.34,1076.35 1484.47,1087.96 1486.61,1099.41 1488.74,1110.67 1490.87,1121.76 1493.01,1132.65 1495.14,1143.36 1497.27,1153.87 1499.41,1164.17 1501.54,1174.28 1503.67,1184.18 1505.81,1193.86 1507.94,1203.33 1510.07,1212.58 1512.21,1221.61 1514.34,1230.41 1516.47,1238.99 1518.61,1247.33 1520.74,1255.45 1522.87,1263.32 1525.01,1270.96 1527.14,1278.36 1529.27,1285.52 1531.41,1292.44 1533.54,1299.11 1535.67,1305.53 1537.81,1311.71 1539.94,1317.64 1542.07,1323.32 1544.21,1328.75 1546.34,1333.93 1548.47,1338.86 1550.61,1343.54 1552.74,1347.97 1554.87,1352.15 1557.01,1356.07 1559.14,1359.75 1561.27,1363.18 1563.41,1366.37 1565.54,1369.3 1567.67,1372 1569.81,1374.44 1571.94,1376.65 1574.07,1378.61 1576.21,1380.34 1578.34,1381.82 1580.47,1383.08 1582.61,1384.1 1584.74,1384.89 1586.87,1385.45 1589.01,1385.79 1591.14,1385.91 1593.27,1385.8 1595.41,1385.49 1597.54,1384.96 1599.67,1384.22 1601.81,1383.27 1603.94,1382.12 1606.07,1380.78 1608.21,1379.23 1610.34,1377.5 1612.47,1375.59 1614.61,1373.49 1616.74,1371.21 1618.87,1368.76 1621.01,1366.13 1623.14,1363.35 1625.27,1360.4 1627.41,1357.3 1629.54,1354.05 1631.67,1350.65 1633.81,1347.11 1635.94,1343.43 1638.08,1339.62 1640.21,1335.69 1642.34,1331.63 1644.48,1327.46 1646.61,1323.18 1648.74,1318.79 1650.88,1314.3 1653.01,1309.72 1655.14,1305.05 1657.28,1300.29 1659.41,1295.45 1661.54,1290.54 1663.68,1285.56 1665.81,1280.52 1667.94,1275.42 1670.08,1270.27 1672.21,1265.07 1674.34,1259.83 1676.48,1254.55 1678.61,1249.24 1680.74,1243.91 1682.88,1238.55 1685.01,1233.18 1687.14,1227.79 1689.28,1222.41 1691.41,1217.02 1693.54,1211.63 1695.68,1206.26 1697.81,1200.9 1699.94,1195.56 1702.08,1190.24 1704.21,1184.95 1706.34,1179.7 1708.48,1174.48 1710.61,1169.3 1712.74,1164.17 1714.88,1159.1 1717.01,1154.07 1719.14,1149.11 1721.28,1144.21 1723.41,1139.38 1725.54,1134.62 1727.68,1129.94 1729.81,1125.33 1731.94,1120.8 1734.08,1116.36 1736.21,1112.01 1738.34,1107.76 1740.48,1103.6 1742.61,1099.53 1744.74,1095.57 1746.88,1091.71 1749.01,1087.96 1751.14,1084.32 1753.28,1080.79 1755.41,1077.37 1757.54,1074.07 1759.68,1070.89 1761.81,1067.82 1763.94,1064.88 1766.08,1062.07 1768.21,1059.38 1770.34,1056.81 1772.48,1054.38 1774.61,1052.07 1776.74,1049.89 1778.88,1047.85 1781.01,1045.93 1783.14,1044.15 1785.28,1042.5 1787.41,1040.99 1789.54,1039.61 1791.68,1038.36 1793.81,1037.25 1795.94,1036.27 1798.08,1035.42 1800.21,1034.71 1802.34,1034.14 1804.48,1033.69 1806.61,1033.38 1808.75,1033.19 1810.88,1033.14 1813.01,1033.22 1815.15,1033.42 1817.28,1033.76 1819.41,1034.21 1821.55,1034.8 1823.68,1035.5 1825.81,1036.32 1827.95,1037.27 1830.08,1038.33 1832.21,1039.51 1834.35,1040.8 1836.48,1042.2 1838.61,1043.71 1840.75,1045.33 1842.88,1047.05 1845.01,1048.87 1847.15,1050.8 1849.28,1052.82 1851.41,1054.93 1853.55,1057.14 1855.68,1059.43 1857.81,1061.81 1859.95,1064.28 1862.08,1066.82 1864.21,1069.44 1866.35,1072.14 1868.48,1074.9 1870.61,1077.74 1872.75,1080.63 1874.88,1083.59 1877.01,1086.61 1879.15,1089.68 1881.28,1092.8 1883.41,1095.97 1885.55,1099.18 1887.68,1102.44 1889.81,1105.73 1891.95,1109.06 1894.08,1112.42 1896.21,1115.8 1898.35,1119.21 1900.48,1122.65 1902.61,1126.09 1904.75,1129.55 1906.88,1133.02 1909.01,1136.5 1911.15,1139.98 1913.28,1143.47 1915.41,1146.95 1917.55,1150.42 1919.68,1153.88 1921.81,1157.33 1923.95,1160.76 1926.08,1164.17 1928.21,1167.56 1930.35,1170.93 1932.48,1174.27 1934.61,1177.57 1936.75,1180.84 1938.88,1184.07 1941.01,1187.26 1943.15,1190.41 1945.28,1193.51 1947.41,1196.56 1949.55,1199.56 1951.68,1202.51 1953.81,1205.4 1955.95,1208.23 1958.08,1211 1960.21,1213.71 1962.35,1216.35 1964.48,1218.92 1966.61,1221.42 1968.75,1223.85 1970.88,1226.21 1973.02,1228.49 1975.15,1230.69 1977.28,1232.82 1979.42,1234.86 1981.55,1236.83 1983.68,1238.7 1985.82,1240.5 1987.95,1242.21 1990.08,1243.83 1992.22,1245.36 1994.35,1246.8 1996.48,1248.16 1998.62,1249.42 2000.75,1250.59 2002.88,1251.67 2005.02,1252.66 2007.15,1253.55 2009.28,1254.35 2011.42,1255.06 2013.55,1255.67 2015.68,1256.19 2017.82,1256.62 2019.95,1256.95 2022.08,1257.19 2024.22,1257.34 2026.35,1257.39 2028.48,1257.35 2030.62,1257.22 2032.75,1257 2034.88,1256.69 2037.02,1256.29 2039.15,1255.81 2041.28,1255.23 2043.42,1254.57 2045.55,1253.82 2047.68,1252.99 2049.82,1252.08 2051.95,1251.08 2054.08,1250.01 2056.22,1248.85 2058.35,1247.62 2060.48,1246.32 2062.62,1244.94 2064.75,1243.49 2066.88,1241.96 2069.02,1240.38 2071.15,1238.72 2073.28,1237 2075.42,1235.22 2077.55,1233.37 2079.68,1231.47 2081.82,1229.51 2083.95,1227.5 2086.08,1225.44 2088.22,1223.33 2090.35,1221.17 2092.48,1218.96 2094.62,1216.72 2096.75,1214.43 2098.88,1212.11 2101.02,1209.75 2103.15,1207.36 2105.28,1204.94 2107.42,1202.49 2109.55,1200.01 2111.68,1197.52 2113.82,1195 2115.95,1192.47 2118.08,1189.92 2120.22,1187.36 2122.35,1184.79 2124.48,1182.21 2126.62,1179.63 2128.75,1177.04 2130.88,1174.46 2133.02,1171.88 2135.15,1169.3 2137.28,1166.73 2139.42,1164.17 2141.55,1161.63 2143.69,1159.1 2145.82,1156.59 2147.95,1154.09 2150.09,1151.62 2152.22,1149.18 2154.35,1146.76 2156.49,1144.37 2158.62,1142.01 2160.75,1139.69 2162.89,1137.4 2165.02,1135.14 2167.15,1132.93 2169.29,1130.76 2171.42,1128.63 2173.55,1126.55 2175.69,1124.51 2177.82,1122.53 2179.95,1120.59 2182.09,1118.7 2184.22,1116.87 2186.35,1115.1 2188.49,1113.38 2190.62,1111.72 2192.75,1110.12 2194.89,1108.58 2197.02,1107.1 2199.15,1105.68 2201.29,1104.33 2203.42,1103.05 2205.55,1101.83 2207.69,1100.67 2209.82,1099.59 2211.95,1098.57 2214.09,1097.63 2216.22,1096.75 2218.35,1095.94 2220.49,1095.2 2222.62,1094.54 2224.75,1093.95 2226.89,1093.43 2229.02,1092.98 2231.15,1092.6 2233.29,1092.29 2235.42,1092.06 2237.55,1091.9 2239.69,1091.81 2241.82,1091.79 2243.95,1091.85 2246.09,1091.97 2248.22,1092.17 2250.35,1092.44 2252.49,1092.77 2254.62,1093.17 2256.75,1093.65 2258.89,1094.19 2261.02,1094.79 2263.15,1095.46 2265.29,1096.2 2267.42,1097 2269.55,1097.86 2271.69,1098.79 2273.82,1099.77 2275.95,1100.82 2278.09,1101.92 2280.22,1103.08 2282.35,1104.29 2284.49,1105.56 2286.62,1106.88 2288.75,1108.25 2290.89,1109.67 2293.02,1111.14 2295.15,1112.65 2297.29,1114.21 2299.42,1115.81 2301.55,1117.45 2303.69,1119.13 2305.82,1120.85 2307.96,1122.6 2310.09,1124.39 2312.22,1126.21 2314.36,1128.06 2316.49,1129.93 2318.62,1131.83 2320.76,1133.76 2322.89,1135.71 2325.02,1137.68 2327.16,1139.67 2329.29,1141.67 2331.42,1143.68 2333.56,1145.71 2335.69,1147.75 2337.82,1149.8 2339.96,1151.85 2342.09,1153.91 2344.22,1155.96 2346.36,1158.02 2348.49,1160.08 2350.62,1162.13 "/>
</svg>
