<?xml version="1.0" encoding="utf-8"?>
<svg xmlns="http://www.w3.org/2000/svg" xmlns:xlink="http://www.w3.org/1999/xlink" width="600" height="400" viewBox="0 0 2400 1600">
<defs>
  <clipPath id="clip700">
    <rect x="0" y="0" width="2400" height="1600"/>
  </clipPath>
</defs>
<path clip-path="url(#clip700)" d="M0 1600 L2400 1600 L2400 0 L0 0  Z" fill="#ffffff" fill-rule="evenodd" fill-opacity="1"/>
<defs>
  <clipPath id="clip701">
    <rect x="257" y="106" width="2096" height="1318"/>
  </clipPath>
</defs>
<path clip-path="url(#clip700)" d="M257.69 1423.18 L2352.76 1423.18 L2352.76 106.192 L257.69 106.192  Z" fill="#ffffff" fill-rule="evenodd" fill-opacity="1"/>
<polyline clip-path="url(#clip701)" style="stroke:#000000; stroke-linecap:round; stroke-linejoin:round; stroke-width:2; stroke-opacity:0.1; fill:none" points="316.984,1423.18 316.984,106.192 "/>
<polyline clip-path="url(#clip701)" style="stroke:#000000; stroke-linecap:round; stroke-linejoin:round; stroke-width:2; stroke-opacity:0.1; fill:none" points="1305.22,1423.18 1305.22,106.192 "/>
<polyline clip-path="url(#clip701)" style="stroke:#000000; stroke-linecap:round; stroke-linejoin:round; stroke-width:2; stroke-opacity:0.1; fill:none" points="2293.46,1423.18 2293.46,106.192 "/>
<polyline clip-path="url(#clip701)" style="stroke:#000000; stroke-linecap:round; stroke-linejoin:round; stroke-width:2; stroke-opacity:0.1; fill:none" points="257.69,1263.16 2352.76,1263.16 "/>
<polyline clip-path="url(#clip701)" style="stroke:#000000; stroke-linecap:round; stroke-linejoin:round; stroke-width:2; stroke-opacity:0.1; fill:none" points="257.69,996.493 2352.76,996.493 "/>
<polyline clip-path="url(#clip701)" style="stroke:#000000; stroke-linecap:round; stroke-linejoin:round; stroke-width:2; stroke-opacity:0.1; fill:none" points="257.69,729.827 2352.76,729.827 "/>
<polyline clip-path="url(#clip701)" style="stroke:#000000; stroke-linecap:round; stroke-linejoin:round; stroke-width:2; stroke-opacity:0.1; fill:none" points="257.69,463.162 2352.76,463.162 "/>
<polyline clip-path="url(#clip701)" style="stroke:#000000; stroke-linecap:round; stroke-linejoin:round; stroke-width:2; stroke-opacity:0.1; fill:none" points="257.69,196.496 2352.76,196.496 "/>
<polyline clip-path="url(#clip700)" style="stroke:#000000; stroke-linecap:round; stroke-linejoin:round; stroke-width:4; stroke-opacity:1; fill:none" points="257.69,1423.18 2352.76,1423.18 "/>
<polyline clip-path="url(#clip700)" style="stroke:#000000; stroke-linecap:round; stroke-linejoin:round; stroke-width:4; stroke-opacity:1; fill:none" points="316.984,1423.18 316.984,1404.28 "/>
<polyline clip-path="url(#clip700)" style="stroke:#000000; stroke-linecap:round; stroke-linejoin:round; stroke-width:4; stroke-opacity:1; fill:none" points="1305.22,1423.18 1305.22,1404.28 "/>
<polyline clip-path="url(#clip700)" style="stroke:#000000; stroke-linecap:round; stroke-linejoin:round; stroke-width:4; stroke-opacity:1; fill:none" points="2293.46,1423.18 2293.46,1404.28 "/>
<path clip-path="url(#clip700)" d="M295.978 1470.7 L308.454 1470.7 L308.454 1474.49 L295.978 1474.49 L295.978 1470.7 Z" fill="#000000" fill-rule="nonzero" fill-opacity="1" /><path clip-path="url(#clip700)" d="M312.482 1459.65 L337.32 1459.65 L337.32 1463.91 L334.056 1463.91 L334.056 1479.84 Q334.056 1481.51 334.612 1482.25 Q335.19 1482.96 336.464 1482.96 Q336.811 1482.96 337.32 1482.92 Q337.829 1482.85 337.991 1482.83 L337.991 1485.9 Q337.181 1486.2 336.325 1486.34 Q335.468 1486.48 334.612 1486.48 Q331.834 1486.48 330.769 1484.98 Q329.704 1483.45 329.704 1479.38 L329.704 1463.91 L320.144 1463.91 L320.144 1485.58 L315.792 1485.58 L315.792 1463.91 L312.482 1463.91 L312.482 1459.65 Z" fill="#000000" fill-rule="nonzero" fill-opacity="1" /><path clip-path="url(#clip700)" d="M1305.22 1454.1 Q1301.61 1454.1 1299.78 1457.66 Q1297.98 1461.2 1297.98 1468.33 Q1297.98 1475.44 1299.78 1479.01 Q1301.61 1482.55 1305.22 1482.55 Q1308.86 1482.55 1310.66 1479.01 Q1312.49 1475.44 1312.49 1468.33 Q1312.49 1461.2 1310.66 1457.66 Q1308.86 1454.1 1305.22 1454.1 M1305.22 1450.39 Q1311.03 1450.39 1314.09 1455 Q1317.17 1459.58 1317.17 1468.33 Q1317.17 1477.06 1314.09 1481.67 Q1311.03 1486.25 1305.22 1486.25 Q1299.41 1486.25 1296.33 1481.67 Q1293.28 1477.06 1293.28 1468.33 Q1293.28 1459.58 1296.33 1455 Q1299.41 1450.39 1305.22 1450.39 Z" fill="#000000" fill-rule="nonzero" fill-opacity="1" /><path clip-path="url(#clip700)" d="M2280.71 1459.65 L2305.54 1459.65 L2305.54 1463.91 L2302.28 1463.91 L2302.28 1479.84 Q2302.28 1481.51 2302.84 1482.25 Q2303.42 1482.96 2304.69 1482.96 Q2305.04 1482.96 2305.54 1482.92 Q2306.05 1482.85 2306.22 1482.83 L2306.22 1485.9 Q2305.41 1486.2 2304.55 1486.34 Q2303.69 1486.48 2302.84 1486.48 Q2300.06 1486.48 2298.99 1484.98 Q2297.93 1483.45 2297.93 1479.38 L2297.93 1463.91 L2288.37 1463.91 L2288.37 1485.58 L2284.02 1485.58 L2284.02 1463.91 L2280.71 1463.91 L2280.71 1459.65 Z" fill="#000000" fill-rule="nonzero" fill-opacity="1" /><path clip-path="url(#clip700)" d="M773.607 1562.7 L773.607 1581.6 L767.719 1581.6 L767.719 1532.4 L773.607 1532.4 L773.607 1537.81 Q775.453 1534.62 778.254 1533.1 Q781.087 1531.54 785.002 1531.54 Q791.495 1531.54 795.537 1536.69 Q799.611 1541.85 799.611 1550.25 Q799.611 1558.65 795.537 1563.81 Q791.495 1568.97 785.002 1568.97 Q781.087 1568.97 778.254 1567.44 Q775.453 1565.88 773.607 1562.7 M793.532 1550.25 Q793.532 1543.79 790.858 1540.13 Q788.216 1536.44 783.569 1536.44 Q778.922 1536.44 776.249 1540.13 Q773.607 1543.79 773.607 1550.25 Q773.607 1556.71 776.249 1560.4 Q778.922 1564.07 783.569 1564.07 Q788.216 1564.07 790.858 1560.4 Q793.532 1556.71 793.532 1550.25 Z" fill="#000000" fill-rule="nonzero" fill-opacity="1" /><path clip-path="url(#clip700)" d="M838.951 1546.53 L838.951 1568.04 L833.094 1568.04 L833.094 1546.72 Q833.094 1541.66 831.121 1539.14 Q829.148 1536.63 825.201 1536.63 Q820.459 1536.63 817.721 1539.65 Q814.984 1542.68 814.984 1547.9 L814.984 1568.04 L809.096 1568.04 L809.096 1518.52 L814.984 1518.52 L814.984 1537.93 Q817.085 1534.72 819.917 1533.13 Q822.782 1531.54 826.506 1531.54 Q832.649 1531.54 835.8 1535.36 Q838.951 1539.14 838.951 1546.53 Z" fill="#000000" fill-rule="nonzero" fill-opacity="1" /><path clip-path="url(#clip700)" d="M866.833 1550.12 Q859.735 1550.12 856.998 1551.75 Q854.26 1553.37 854.26 1557.29 Q854.26 1560.4 856.297 1562.25 Q858.366 1564.07 861.899 1564.07 Q866.769 1564.07 869.697 1560.63 Q872.657 1557.16 872.657 1551.43 L872.657 1550.12 L866.833 1550.12 M878.514 1547.71 L878.514 1568.04 L872.657 1568.04 L872.657 1562.63 Q870.652 1565.88 867.66 1567.44 Q864.668 1568.97 860.34 1568.97 Q854.865 1568.97 851.619 1565.91 Q848.404 1562.82 848.404 1557.67 Q848.404 1551.65 852.414 1548.6 Q856.457 1545.54 864.446 1545.54 L872.657 1545.54 L872.657 1544.97 Q872.657 1540.93 869.984 1538.73 Q867.342 1536.5 862.536 1536.5 Q859.48 1536.5 856.584 1537.23 Q853.688 1537.97 851.014 1539.43 L851.014 1534.02 Q854.229 1532.78 857.252 1532.17 Q860.276 1531.54 863.141 1531.54 Q870.875 1531.54 874.694 1535.55 Q878.514 1539.56 878.514 1547.71 Z" fill="#000000" fill-rule="nonzero" fill-opacity="1" /><path clip-path="url(#clip700)" d="M913.302 1533.45 L913.302 1538.98 Q910.82 1537.71 908.146 1537.07 Q905.473 1536.44 902.608 1536.44 Q898.247 1536.44 896.051 1537.77 Q893.887 1539.11 893.887 1541.79 Q893.887 1543.82 895.447 1545 Q897.006 1546.15 901.717 1547.2 L903.722 1547.64 Q909.96 1548.98 912.57 1551.43 Q915.212 1553.85 915.212 1558.21 Q915.212 1563.17 911.265 1566.07 Q907.35 1568.97 900.475 1568.97 Q897.611 1568.97 894.492 1568.39 Q891.404 1567.85 887.967 1566.74 L887.967 1560.69 Q891.213 1562.38 894.364 1563.24 Q897.515 1564.07 900.603 1564.07 Q904.741 1564.07 906.969 1562.66 Q909.196 1561.23 909.196 1558.65 Q909.196 1556.27 907.573 1554.99 Q905.982 1553.72 900.539 1552.54 L898.502 1552.07 Q893.059 1550.92 890.64 1548.56 Q888.221 1546.18 888.221 1542.04 Q888.221 1537.01 891.786 1534.27 Q895.351 1531.54 901.908 1531.54 Q905.154 1531.54 908.019 1532.01 Q910.883 1532.49 913.302 1533.45 Z" fill="#000000" fill-rule="nonzero" fill-opacity="1" /><path clip-path="url(#clip700)" d="M955.03 1548.76 L955.03 1551.62 L928.103 1551.62 Q928.485 1557.67 931.731 1560.85 Q935.009 1564 940.834 1564 Q944.208 1564 947.359 1563.17 Q950.542 1562.35 953.661 1560.69 L953.661 1566.23 Q950.51 1567.57 947.2 1568.27 Q943.89 1568.97 940.484 1568.97 Q931.954 1568.97 926.957 1564 Q921.992 1559.04 921.992 1550.57 Q921.992 1541.82 926.702 1536.69 Q931.445 1531.54 939.465 1531.54 Q946.659 1531.54 950.828 1536.18 Q955.03 1540.8 955.03 1548.76 M949.173 1547.04 Q949.109 1542.23 946.468 1539.37 Q943.858 1536.5 939.529 1536.5 Q934.627 1536.5 931.667 1539.27 Q928.739 1542.04 928.294 1547.07 L949.173 1547.04 Z" fill="#000000" fill-rule="nonzero" fill-opacity="1" /><path clip-path="url(#clip700)" d="M1011.02 1533.76 L1011.02 1539.24 Q1008.53 1537.87 1006.02 1537.2 Q1003.54 1536.5 1000.99 1536.5 Q995.293 1536.5 992.142 1540.13 Q988.991 1543.73 988.991 1550.25 Q988.991 1556.78 992.142 1560.4 Q995.293 1564 1000.99 1564 Q1003.54 1564 1006.02 1563.33 Q1008.53 1562.63 1011.02 1561.26 L1011.02 1566.68 Q1008.57 1567.82 1005.92 1568.39 Q1003.31 1568.97 1000.35 1568.97 Q992.301 1568.97 987.558 1563.91 Q982.816 1558.85 982.816 1550.25 Q982.816 1541.53 987.59 1536.53 Q992.396 1531.54 1000.74 1531.54 Q1003.44 1531.54 1006.02 1532.11 Q1008.6 1532.65 1011.02 1533.76 Z" fill="#000000" fill-rule="nonzero" fill-opacity="1" /><path clip-path="url(#clip700)" d="M1036.03 1571.35 Q1033.55 1577.72 1031.2 1579.66 Q1028.84 1581.6 1024.89 1581.6 L1020.21 1581.6 L1020.21 1576.7 L1023.65 1576.7 Q1026.07 1576.7 1027.41 1575.56 Q1028.74 1574.41 1030.37 1570.14 L1031.42 1567.47 L1017 1532.4 L1023.21 1532.4 L1034.35 1560.28 L1045.49 1532.4 L1051.69 1532.4 L1036.03 1571.35 Z" fill="#000000" fill-rule="nonzero" fill-opacity="1" /><path clip-path="url(#clip700)" d="M1085.43 1533.76 L1085.43 1539.24 Q1082.95 1537.87 1080.43 1537.2 Q1077.95 1536.5 1075.41 1536.5 Q1069.71 1536.5 1066.56 1540.13 Q1063.41 1543.73 1063.41 1550.25 Q1063.41 1556.78 1066.56 1560.4 Q1069.71 1564 1075.41 1564 Q1077.95 1564 1080.43 1563.33 Q1082.95 1562.63 1085.43 1561.26 L1085.43 1566.68 Q1082.98 1567.82 1080.34 1568.39 Q1077.73 1568.97 1074.77 1568.97 Q1066.72 1568.97 1061.97 1563.91 Q1057.23 1558.85 1057.23 1550.25 Q1057.23 1541.53 1062.01 1536.53 Q1066.81 1531.54 1075.15 1531.54 Q1077.86 1531.54 1080.43 1532.11 Q1083.01 1532.65 1085.43 1533.76 Z" fill="#000000" fill-rule="nonzero" fill-opacity="1" /><path clip-path="url(#clip700)" d="M1095.62 1518.52 L1101.47 1518.52 L1101.47 1568.04 L1095.62 1568.04 L1095.62 1518.52 Z" fill="#000000" fill-rule="nonzero" fill-opacity="1" /><path clip-path="url(#clip700)" d="M1113.73 1532.4 L1119.58 1532.4 L1119.58 1568.04 L1113.73 1568.04 L1113.73 1532.4 M1113.73 1518.52 L1119.58 1518.52 L1119.58 1525.93 L1113.73 1525.93 L1113.73 1518.52 Z" fill="#000000" fill-rule="nonzero" fill-opacity="1" /><path clip-path="url(#clip700)" d="M1161.47 1546.53 L1161.47 1568.04 L1155.61 1568.04 L1155.61 1546.72 Q1155.61 1541.66 1153.64 1539.14 Q1151.67 1536.63 1147.72 1536.63 Q1142.98 1536.63 1140.24 1539.65 Q1137.5 1542.68 1137.5 1547.9 L1137.5 1568.04 L1131.61 1568.04 L1131.61 1532.4 L1137.5 1532.4 L1137.5 1537.93 Q1139.6 1534.72 1142.44 1533.13 Q1145.3 1531.54 1149.02 1531.54 Q1155.17 1531.54 1158.32 1535.36 Q1161.47 1539.14 1161.47 1546.53 Z" fill="#000000" fill-rule="nonzero" fill-opacity="1" /><path clip-path="url(#clip700)" d="M1196.61 1549.81 Q1196.61 1543.44 1193.97 1539.94 Q1191.36 1536.44 1186.61 1536.44 Q1181.9 1536.44 1179.26 1539.94 Q1176.65 1543.44 1176.65 1549.81 Q1176.65 1556.14 1179.26 1559.64 Q1181.9 1563.14 1186.61 1563.14 Q1191.36 1563.14 1193.97 1559.64 Q1196.61 1556.14 1196.61 1549.81 M1202.46 1563.62 Q1202.46 1572.72 1198.42 1577.15 Q1194.38 1581.6 1186.04 1581.6 Q1182.95 1581.6 1180.22 1581.13 Q1177.48 1580.68 1174.9 1579.72 L1174.9 1574.03 Q1177.48 1575.43 1179.99 1576.1 Q1182.51 1576.76 1185.12 1576.76 Q1190.88 1576.76 1193.74 1573.74 Q1196.61 1570.75 1196.61 1564.67 L1196.61 1561.77 Q1194.79 1564.92 1191.96 1566.48 Q1189.13 1568.04 1185.18 1568.04 Q1178.63 1568.04 1174.61 1563.05 Q1170.6 1558.05 1170.6 1549.81 Q1170.6 1541.53 1174.61 1536.53 Q1178.63 1531.54 1185.18 1531.54 Q1189.13 1531.54 1191.96 1533.1 Q1194.79 1534.66 1196.61 1537.81 L1196.61 1532.4 L1202.46 1532.4 L1202.46 1563.62 Z" fill="#000000" fill-rule="nonzero" fill-opacity="1" /><path clip-path="url(#clip700)" d="M1235.25 1532.4 L1241.1 1532.4 L1241.1 1568.04 L1235.25 1568.04 L1235.25 1532.4 M1235.25 1518.52 L1241.1 1518.52 L1241.1 1525.93 L1235.25 1525.93 L1235.25 1518.52 Z" fill="#000000" fill-rule="nonzero" fill-opacity="1" /><path clip-path="url(#clip700)" d="M1282.99 1546.53 L1282.99 1568.04 L1277.13 1568.04 L1277.13 1546.72 Q1277.13 1541.66 1275.16 1539.14 Q1273.19 1536.63 1269.24 1536.63 Q1264.5 1536.63 1261.76 1539.65 Q1259.02 1542.68 1259.02 1547.9 L1259.02 1568.04 L1253.14 1568.04 L1253.14 1532.4 L1259.02 1532.4 L1259.02 1537.93 Q1261.12 1534.72 1263.96 1533.13 Q1266.82 1531.54 1270.55 1531.54 Q1276.69 1531.54 1279.84 1535.36 Q1282.99 1539.14 1282.99 1546.53 Z" fill="#000000" fill-rule="nonzero" fill-opacity="1" /><path clip-path="url(#clip700)" d="M1320.33 1533.76 L1320.33 1539.24 Q1317.84 1537.87 1315.33 1537.2 Q1312.85 1536.5 1310.3 1536.5 Q1304.6 1536.5 1301.45 1540.13 Q1298.3 1543.73 1298.3 1550.25 Q1298.3 1556.78 1301.45 1560.4 Q1304.6 1564 1310.3 1564 Q1312.85 1564 1315.33 1563.33 Q1317.84 1562.63 1320.33 1561.26 L1320.33 1566.68 Q1317.87 1567.82 1315.23 1568.39 Q1312.62 1568.97 1309.66 1568.97 Q1301.61 1568.97 1296.87 1563.91 Q1292.13 1558.85 1292.13 1550.25 Q1292.13 1541.53 1296.9 1536.53 Q1301.71 1531.54 1310.05 1531.54 Q1312.75 1531.54 1315.33 1532.11 Q1317.91 1532.65 1320.33 1533.76 Z" fill="#000000" fill-rule="nonzero" fill-opacity="1" /><path clip-path="url(#clip700)" d="M1351.17 1537.87 Q1350.18 1537.3 1349 1537.04 Q1347.86 1536.76 1346.46 1536.76 Q1341.49 1536.76 1338.82 1540 Q1336.18 1543.22 1336.18 1549.27 L1336.18 1568.04 L1330.29 1568.04 L1330.29 1532.4 L1336.18 1532.4 L1336.18 1537.93 Q1338.02 1534.69 1340.98 1533.13 Q1343.94 1531.54 1348.18 1531.54 Q1348.78 1531.54 1349.51 1531.63 Q1350.24 1531.7 1351.14 1531.85 L1351.17 1537.87 Z" fill="#000000" fill-rule="nonzero" fill-opacity="1" /><path clip-path="url(#clip700)" d="M1386.37 1548.76 L1386.37 1551.62 L1359.44 1551.62 Q1359.82 1557.67 1363.07 1560.85 Q1366.35 1564 1372.17 1564 Q1375.55 1564 1378.7 1563.17 Q1381.88 1562.35 1385 1560.69 L1385 1566.23 Q1381.85 1567.57 1378.54 1568.27 Q1375.23 1568.97 1371.82 1568.97 Q1363.29 1568.97 1358.3 1564 Q1353.33 1559.04 1353.33 1550.57 Q1353.33 1541.82 1358.04 1536.69 Q1362.78 1531.54 1370.81 1531.54 Q1378 1531.54 1382.17 1536.18 Q1386.37 1540.8 1386.37 1548.76 M1380.51 1547.04 Q1380.45 1542.23 1377.81 1539.37 Q1375.2 1536.5 1370.87 1536.5 Q1365.97 1536.5 1363.01 1539.27 Q1360.08 1542.04 1359.63 1547.07 L1380.51 1547.04 Z" fill="#000000" fill-rule="nonzero" fill-opacity="1" /><path clip-path="url(#clip700)" d="M1423.74 1539.24 Q1425.93 1535.29 1428.99 1533.41 Q1432.04 1531.54 1436.18 1531.54 Q1441.75 1531.54 1444.78 1535.45 Q1447.8 1539.33 1447.8 1546.53 L1447.8 1568.04 L1441.91 1568.04 L1441.91 1546.72 Q1441.91 1541.59 1440.1 1539.11 Q1438.28 1536.63 1434.56 1536.63 Q1430.01 1536.63 1427.37 1539.65 Q1424.72 1542.68 1424.72 1547.9 L1424.72 1568.04 L1418.83 1568.04 L1418.83 1546.72 Q1418.83 1541.56 1417.02 1539.11 Q1415.21 1536.63 1411.42 1536.63 Q1406.93 1536.63 1404.29 1539.68 Q1401.65 1542.71 1401.65 1547.9 L1401.65 1568.04 L1395.76 1568.04 L1395.76 1532.4 L1401.65 1532.4 L1401.65 1537.93 Q1403.65 1534.66 1406.45 1533.1 Q1409.25 1531.54 1413.11 1531.54 Q1416.99 1531.54 1419.69 1533.51 Q1422.43 1535.48 1423.74 1539.24 Z" fill="#000000" fill-rule="nonzero" fill-opacity="1" /><path clip-path="url(#clip700)" d="M1489.97 1548.76 L1489.97 1551.62 L1463.04 1551.62 Q1463.43 1557.67 1466.67 1560.85 Q1469.95 1564 1475.78 1564 Q1479.15 1564 1482.3 1563.17 Q1485.48 1562.35 1488.6 1560.69 L1488.6 1566.23 Q1485.45 1567.57 1482.14 1568.27 Q1478.83 1568.97 1475.43 1568.97 Q1466.9 1568.97 1461.9 1564 Q1456.93 1559.04 1456.93 1550.57 Q1456.93 1541.82 1461.64 1536.69 Q1466.39 1531.54 1474.41 1531.54 Q1481.6 1531.54 1485.77 1536.18 Q1489.97 1540.8 1489.97 1548.76 M1484.12 1547.04 Q1484.05 1542.23 1481.41 1539.37 Q1478.8 1536.5 1474.47 1536.5 Q1469.57 1536.5 1466.61 1539.27 Q1463.68 1542.04 1463.24 1547.07 L1484.12 1547.04 Z" fill="#000000" fill-rule="nonzero" fill-opacity="1" /><path clip-path="url(#clip700)" d="M1529.22 1546.53 L1529.22 1568.04 L1523.36 1568.04 L1523.36 1546.72 Q1523.36 1541.66 1521.39 1539.14 Q1519.41 1536.63 1515.47 1536.63 Q1510.72 1536.63 1507.99 1539.65 Q1505.25 1542.68 1505.25 1547.9 L1505.25 1568.04 L1499.36 1568.04 L1499.36 1532.4 L1505.25 1532.4 L1505.25 1537.93 Q1507.35 1534.72 1510.18 1533.13 Q1513.05 1531.54 1516.77 1531.54 Q1522.91 1531.54 1526.07 1535.36 Q1529.22 1539.14 1529.22 1546.53 Z" fill="#000000" fill-rule="nonzero" fill-opacity="1" /><path clip-path="url(#clip700)" d="M1546.69 1522.27 L1546.69 1532.4 L1558.75 1532.4 L1558.75 1536.95 L1546.69 1536.95 L1546.69 1556.3 Q1546.69 1560.66 1547.87 1561.9 Q1549.08 1563.14 1552.74 1563.14 L1558.75 1563.14 L1558.75 1568.04 L1552.74 1568.04 Q1545.96 1568.04 1543.38 1565.53 Q1540.8 1562.98 1540.8 1556.3 L1540.8 1536.95 L1536.51 1536.95 L1536.51 1532.4 L1540.8 1532.4 L1540.8 1522.27 L1546.69 1522.27 Z" fill="#000000" fill-rule="nonzero" fill-opacity="1" /><path clip-path="url(#clip700)" d="M1603.31 1526.86 L1590.26 1562.7 L1616.39 1562.7 L1603.31 1526.86 M1581.54 1568.04 L1599.68 1520.52 L1606.97 1520.52 L1625.08 1568.04 L1581.54 1568.04 Z" fill="#000000" fill-rule="nonzero" fill-opacity="1" /><path clip-path="url(#clip700)" d="M1649.94 1518.52 L1649.94 1531.66 Q1656.28 1531.66 1660.51 1536.53 Q1664.87 1541.5 1664.87 1550.25 Q1664.87 1559 1660.51 1563.97 Q1656.28 1568.84 1649.94 1568.84 L1649.94 1581.6 L1644.12 1581.6 L1644.12 1568.84 Q1637.78 1568.84 1633.52 1563.97 Q1629.19 1559 1629.19 1550.25 Q1629.19 1541.5 1633.52 1536.53 Q1637.78 1531.66 1644.12 1531.66 L1644.12 1518.52 L1649.94 1518.52 M1649.94 1563.62 Q1653.54 1563.62 1655.99 1560.34 Q1658.66 1556.68 1658.69 1550.25 Q1658.73 1543.89 1655.99 1540.16 Q1653.54 1536.88 1649.94 1536.88 L1649.94 1563.62 M1644.12 1563.62 L1644.12 1536.88 Q1640.52 1536.88 1638.1 1540.16 Q1635.33 1543.89 1635.36 1550.25 Q1635.4 1556.68 1638.1 1560.34 Q1640.52 1563.62 1644.12 1563.62 Z" fill="#000000" fill-rule="nonzero" fill-opacity="1" /><path clip-path="url(#clip700)" d="M1709.56 1518.58 Q1705.29 1525.9 1703.22 1533.06 Q1701.15 1540.23 1701.15 1547.58 Q1701.15 1554.93 1703.22 1562.16 Q1705.32 1569.35 1709.56 1576.64 L1704.46 1576.64 Q1699.69 1569.16 1697.3 1561.93 Q1694.95 1554.71 1694.95 1547.58 Q1694.95 1540.48 1697.3 1533.29 Q1699.66 1526.09 1704.46 1518.58 L1709.56 1518.58 Z" fill="#000000" fill-rule="nonzero" fill-opacity="1" /><path clip-path="url(#clip700)" d="M1741.58 1537.87 Q1740.59 1537.3 1739.41 1537.04 Q1738.27 1536.76 1736.87 1536.76 Q1731.9 1536.76 1729.23 1540 Q1726.59 1543.22 1726.59 1549.27 L1726.59 1568.04 L1720.7 1568.04 L1720.7 1532.4 L1726.59 1532.4 L1726.59 1537.93 Q1728.43 1534.69 1731.39 1533.13 Q1734.35 1531.54 1738.58 1531.54 Q1739.19 1531.54 1739.92 1531.63 Q1740.65 1531.7 1741.54 1531.85 L1741.58 1537.87 Z" fill="#000000" fill-rule="nonzero" fill-opacity="1" /><path clip-path="url(#clip700)" d="M1763.92 1550.12 Q1756.82 1550.12 1754.08 1551.75 Q1751.35 1553.37 1751.35 1557.29 Q1751.35 1560.4 1753.38 1562.25 Q1755.45 1564.07 1758.99 1564.07 Q1763.86 1564.07 1766.78 1560.63 Q1769.74 1557.16 1769.74 1551.43 L1769.74 1550.12 L1763.92 1550.12 M1775.6 1547.71 L1775.6 1568.04 L1769.74 1568.04 L1769.74 1562.63 Q1767.74 1565.88 1764.75 1567.44 Q1761.76 1568.97 1757.43 1568.97 Q1751.95 1568.97 1748.71 1565.91 Q1745.49 1562.82 1745.49 1557.67 Q1745.49 1551.65 1749.5 1548.6 Q1753.54 1545.54 1761.53 1545.54 L1769.74 1545.54 L1769.74 1544.97 Q1769.74 1540.93 1767.07 1538.73 Q1764.43 1536.5 1759.62 1536.5 Q1756.57 1536.5 1753.67 1537.23 Q1750.77 1537.97 1748.1 1539.43 L1748.1 1534.02 Q1751.32 1532.78 1754.34 1532.17 Q1757.36 1531.54 1760.23 1531.54 Q1767.96 1531.54 1771.78 1535.55 Q1775.6 1539.56 1775.6 1547.71 Z" fill="#000000" fill-rule="nonzero" fill-opacity="1" /><path clip-path="url(#clip700)" d="M1811.12 1537.81 L1811.12 1518.52 L1816.98 1518.52 L1816.98 1568.04 L1811.12 1568.04 L1811.12 1562.7 Q1809.28 1565.88 1806.44 1567.44 Q1803.64 1568.97 1799.7 1568.97 Q1793.23 1568.97 1789.16 1563.81 Q1785.12 1558.65 1785.12 1550.25 Q1785.12 1541.85 1789.16 1536.69 Q1793.23 1531.54 1799.7 1531.54 Q1803.64 1531.54 1806.44 1533.1 Q1809.28 1534.62 1811.12 1537.81 M1791.17 1550.25 Q1791.17 1556.71 1793.81 1560.4 Q1796.48 1564.07 1801.13 1564.07 Q1805.77 1564.07 1808.45 1560.4 Q1811.12 1556.71 1811.12 1550.25 Q1811.12 1543.79 1808.45 1540.13 Q1805.77 1536.44 1801.13 1536.44 Q1796.48 1536.44 1793.81 1540.13 Q1791.17 1543.79 1791.17 1550.25 Z" fill="#000000" fill-rule="nonzero" fill-opacity="1" /><path clip-path="url(#clip700)" d="M1828.12 1518.58 L1833.21 1518.58 Q1837.98 1526.09 1840.34 1533.29 Q1842.73 1540.48 1842.73 1547.58 Q1842.73 1554.71 1840.34 1561.93 Q1837.98 1569.16 1833.21 1576.64 L1828.12 1576.64 Q1832.35 1569.35 1834.42 1562.16 Q1836.52 1554.93 1836.52 1547.58 Q1836.52 1540.23 1834.42 1533.06 Q1832.35 1525.9 1828.12 1518.58 Z" fill="#000000" fill-rule="nonzero" fill-opacity="1" /><polyline clip-path="url(#clip700)" style="stroke:#000000; stroke-linecap:round; stroke-linejoin:round; stroke-width:4; stroke-opacity:1; fill:none" points="257.69,1423.18 257.69,106.192 "/>
<polyline clip-path="url(#clip700)" style="stroke:#000000; stroke-linecap:round; stroke-linejoin:round; stroke-width:4; stroke-opacity:1; fill:none" points="257.69,1263.16 276.588,1263.16 "/>
<polyline clip-path="url(#clip700)" style="stroke:#000000; stroke-linecap:round; stroke-linejoin:round; stroke-width:4; stroke-opacity:1; fill:none" points="257.69,996.493 276.588,996.493 "/>
<polyline clip-path="url(#clip700)" style="stroke:#000000; stroke-linecap:round; stroke-linejoin:round; stroke-width:4; stroke-opacity:1; fill:none" points="257.69,729.827 276.588,729.827 "/>
<polyline clip-path="url(#clip700)" style="stroke:#000000; stroke-linecap:round; stroke-linejoin:round; stroke-width:4; stroke-opacity:1; fill:none" points="257.69,463.162 276.588,463.162 "/>
<polyline clip-path="url(#clip700)" style="stroke:#000000; stroke-linecap:round; stroke-linejoin:round; stroke-width:4; stroke-opacity:1; fill:none" points="257.69,196.496 276.588,196.496 "/>
<path clip-path="url(#clip700)" d="M114.584 1263.61 L144.26 1263.61 L144.26 1267.55 L114.584 1267.55 L114.584 1263.61 Z" fill="#000000" fill-rule="nonzero" fill-opacity="1" /><path clip-path="url(#clip700)" d="M164.352 1248.96 Q160.741 1248.96 158.913 1252.52 Q157.107 1256.06 157.107 1263.19 Q157.107 1270.3 158.913 1273.86 Q160.741 1277.41 164.352 1277.41 Q167.987 1277.41 169.792 1273.86 Q171.621 1270.3 171.621 1263.19 Q171.621 1256.06 169.792 1252.52 Q167.987 1248.96 164.352 1248.96 M164.352 1245.25 Q170.163 1245.25 173.218 1249.86 Q176.297 1254.44 176.297 1263.19 Q176.297 1271.92 173.218 1276.53 Q170.163 1281.11 164.352 1281.11 Q158.542 1281.11 155.464 1276.53 Q152.408 1271.92 152.408 1263.19 Q152.408 1254.44 155.464 1249.86 Q158.542 1245.25 164.352 1245.25 Z" fill="#000000" fill-rule="nonzero" fill-opacity="1" /><path clip-path="url(#clip700)" d="M184.514 1274.56 L189.399 1274.56 L189.399 1280.44 L184.514 1280.44 L184.514 1274.56 Z" fill="#000000" fill-rule="nonzero" fill-opacity="1" /><path clip-path="url(#clip700)" d="M210.162 1261.3 Q207.014 1261.3 205.162 1263.45 Q203.334 1265.6 203.334 1269.35 Q203.334 1273.08 205.162 1275.25 Q207.014 1277.41 210.162 1277.41 Q213.311 1277.41 215.139 1275.25 Q216.991 1273.08 216.991 1269.35 Q216.991 1265.6 215.139 1263.45 Q213.311 1261.3 210.162 1261.3 M219.445 1246.64 L219.445 1250.9 Q217.686 1250.07 215.88 1249.63 Q214.098 1249.19 212.338 1249.19 Q207.709 1249.19 205.255 1252.31 Q202.824 1255.44 202.477 1261.76 Q203.843 1259.74 205.903 1258.68 Q207.963 1257.59 210.44 1257.59 Q215.649 1257.59 218.658 1260.76 Q221.69 1263.91 221.69 1269.35 Q221.69 1274.67 218.542 1277.89 Q215.394 1281.11 210.162 1281.11 Q204.167 1281.11 200.996 1276.53 Q197.825 1271.92 197.825 1263.19 Q197.825 1255 201.713 1250.14 Q205.602 1245.25 212.153 1245.25 Q213.912 1245.25 215.695 1245.6 Q217.5 1245.95 219.445 1246.64 Z" fill="#000000" fill-rule="nonzero" fill-opacity="1" /><path clip-path="url(#clip700)" d="M114.26 996.944 L143.936 996.944 L143.936 1000.88 L114.26 1000.88 L114.26 996.944 Z" fill="#000000" fill-rule="nonzero" fill-opacity="1" /><path clip-path="url(#clip700)" d="M164.028 982.292 Q160.417 982.292 158.589 985.857 Q156.783 989.398 156.783 996.528 Q156.783 1003.63 158.589 1007.2 Q160.417 1010.74 164.028 1010.74 Q167.663 1010.74 169.468 1007.2 Q171.297 1003.63 171.297 996.528 Q171.297 989.398 169.468 985.857 Q167.663 982.292 164.028 982.292 M164.028 978.588 Q169.839 978.588 172.894 983.195 Q175.973 987.778 175.973 996.528 Q175.973 1005.25 172.894 1009.86 Q169.839 1014.44 164.028 1014.44 Q158.218 1014.44 155.14 1009.86 Q152.084 1005.25 152.084 996.528 Q152.084 987.778 155.14 983.195 Q158.218 978.588 164.028 978.588 Z" fill="#000000" fill-rule="nonzero" fill-opacity="1" /><path clip-path="url(#clip700)" d="M184.19 1007.89 L189.075 1007.89 L189.075 1013.77 L184.19 1013.77 L184.19 1007.89 Z" fill="#000000" fill-rule="nonzero" fill-opacity="1" /><path clip-path="url(#clip700)" d="M212.107 983.287 L200.301 1001.74 L212.107 1001.74 L212.107 983.287 M210.88 979.213 L216.76 979.213 L216.76 1001.74 L221.69 1001.74 L221.69 1005.62 L216.76 1005.62 L216.76 1013.77 L212.107 1013.77 L212.107 1005.62 L196.505 1005.62 L196.505 1001.11 L210.88 979.213 Z" fill="#000000" fill-rule="nonzero" fill-opacity="1" /><path clip-path="url(#clip700)" d="M116.343 730.279 L146.019 730.279 L146.019 734.214 L116.343 734.214 L116.343 730.279 Z" fill="#000000" fill-rule="nonzero" fill-opacity="1" /><path clip-path="url(#clip700)" d="M166.112 715.626 Q162.501 715.626 160.672 719.191 Q158.866 722.732 158.866 729.862 Q158.866 736.968 160.672 740.533 Q162.501 744.075 166.112 744.075 Q169.746 744.075 171.552 740.533 Q173.38 736.968 173.38 729.862 Q173.38 722.732 171.552 719.191 Q169.746 715.626 166.112 715.626 M166.112 711.922 Q171.922 711.922 174.977 716.529 Q178.056 721.112 178.056 729.862 Q178.056 738.589 174.977 743.195 Q171.922 747.779 166.112 747.779 Q160.302 747.779 157.223 743.195 Q154.167 738.589 154.167 729.862 Q154.167 721.112 157.223 716.529 Q160.302 711.922 166.112 711.922 Z" fill="#000000" fill-rule="nonzero" fill-opacity="1" /><path clip-path="url(#clip700)" d="M186.274 741.228 L191.158 741.228 L191.158 747.107 L186.274 747.107 L186.274 741.228 Z" fill="#000000" fill-rule="nonzero" fill-opacity="1" /><path clip-path="url(#clip700)" d="M205.371 743.172 L221.69 743.172 L221.69 747.107 L199.746 747.107 L199.746 743.172 Q202.408 740.418 206.991 735.788 Q211.598 731.135 212.778 729.793 Q215.024 727.269 215.903 725.533 Q216.806 723.774 216.806 722.084 Q216.806 719.33 214.861 717.594 Q212.94 715.857 209.838 715.857 Q207.639 715.857 205.186 716.621 Q202.755 717.385 199.977 718.936 L199.977 714.214 Q202.801 713.08 205.255 712.501 Q207.709 711.922 209.746 711.922 Q215.116 711.922 218.311 714.607 Q221.505 717.293 221.505 721.783 Q221.505 723.913 220.695 725.834 Q219.908 727.732 217.801 730.325 Q217.223 730.996 214.121 734.214 Q211.019 737.408 205.371 743.172 Z" fill="#000000" fill-rule="nonzero" fill-opacity="1" /><path clip-path="url(#clip700)" d="M164.515 448.96 Q160.903 448.96 159.075 452.525 Q157.269 456.067 157.269 463.196 Q157.269 470.303 159.075 473.868 Q160.903 477.409 164.515 477.409 Q168.149 477.409 169.954 473.868 Q171.783 470.303 171.783 463.196 Q171.783 456.067 169.954 452.525 Q168.149 448.96 164.515 448.96 M164.515 445.257 Q170.325 445.257 173.38 449.863 Q176.459 454.446 176.459 463.196 Q176.459 471.923 173.38 476.53 Q170.325 481.113 164.515 481.113 Q158.704 481.113 155.626 476.53 Q152.57 471.923 152.57 463.196 Q152.57 454.446 155.626 449.863 Q158.704 445.257 164.515 445.257 Z" fill="#000000" fill-rule="nonzero" fill-opacity="1" /><path clip-path="url(#clip700)" d="M184.676 474.562 L189.561 474.562 L189.561 480.442 L184.676 480.442 L184.676 474.562 Z" fill="#000000" fill-rule="nonzero" fill-opacity="1" /><path clip-path="url(#clip700)" d="M209.746 448.96 Q206.135 448.96 204.306 452.525 Q202.5 456.067 202.5 463.196 Q202.5 470.303 204.306 473.868 Q206.135 477.409 209.746 477.409 Q213.38 477.409 215.186 473.868 Q217.014 470.303 217.014 463.196 Q217.014 456.067 215.186 452.525 Q213.38 448.96 209.746 448.96 M209.746 445.257 Q215.556 445.257 218.611 449.863 Q221.69 454.446 221.69 463.196 Q221.69 471.923 218.611 476.53 Q215.556 481.113 209.746 481.113 Q203.936 481.113 200.857 476.53 Q197.801 471.923 197.801 463.196 Q197.801 454.446 200.857 449.863 Q203.936 445.257 209.746 445.257 Z" fill="#000000" fill-rule="nonzero" fill-opacity="1" /><path clip-path="url(#clip700)" d="M166.112 182.295 Q162.501 182.295 160.672 185.859 Q158.866 189.401 158.866 196.531 Q158.866 203.637 160.672 207.202 Q162.501 210.743 166.112 210.743 Q169.746 210.743 171.552 207.202 Q173.38 203.637 173.38 196.531 Q173.38 189.401 171.552 185.859 Q169.746 182.295 166.112 182.295 M166.112 178.591 Q171.922 178.591 174.977 183.197 Q178.056 187.781 178.056 196.531 Q178.056 205.257 174.977 209.864 Q171.922 214.447 166.112 214.447 Q160.302 214.447 157.223 209.864 Q154.167 205.257 154.167 196.531 Q154.167 187.781 157.223 183.197 Q160.302 178.591 166.112 178.591 Z" fill="#000000" fill-rule="nonzero" fill-opacity="1" /><path clip-path="url(#clip700)" d="M186.274 207.896 L191.158 207.896 L191.158 213.776 L186.274 213.776 L186.274 207.896 Z" fill="#000000" fill-rule="nonzero" fill-opacity="1" /><path clip-path="url(#clip700)" d="M205.371 209.841 L221.69 209.841 L221.69 213.776 L199.746 213.776 L199.746 209.841 Q202.408 207.086 206.991 202.456 Q211.598 197.804 212.778 196.461 Q215.024 193.938 215.903 192.202 Q216.806 190.443 216.806 188.753 Q216.806 185.998 214.861 184.262 Q212.94 182.526 209.838 182.526 Q207.639 182.526 205.186 183.29 Q202.755 184.054 199.977 185.605 L199.977 180.883 Q202.801 179.748 205.255 179.17 Q207.709 178.591 209.746 178.591 Q215.116 178.591 218.311 181.276 Q221.505 183.961 221.505 188.452 Q221.505 190.582 220.695 192.503 Q219.908 194.401 217.801 196.994 Q217.223 197.665 214.121 200.882 Q211.019 204.077 205.371 209.841 Z" fill="#000000" fill-rule="nonzero" fill-opacity="1" /><path clip-path="url(#clip700)" d="M29.4065 940.968 L34.9447 940.968 Q33.6716 943.451 33.035 946.125 Q32.3984 948.798 32.3984 951.663 Q32.3984 956.023 33.7352 958.219 Q35.072 960.384 37.7456 960.384 Q39.7826 960.384 40.9603 958.824 Q42.1061 957.265 43.1565 952.554 L43.6021 950.549 Q44.9389 944.31 47.3897 941.7 Q49.8086 939.059 54.1691 939.059 Q59.1344 939.059 62.0308 943.005 Q64.9272 946.92 64.9272 953.795 Q64.9272 956.66 64.3543 959.779 Q63.8132 962.866 62.6992 966.304 L56.6518 966.304 Q58.3387 963.057 59.198 959.906 Q60.0256 956.755 60.0256 953.668 Q60.0256 949.53 58.6251 947.302 Q57.1929 945.074 54.6147 945.074 Q52.2276 945.074 50.9545 946.697 Q49.6813 948.289 48.5037 953.732 L48.0262 955.769 Q46.8804 961.211 44.5251 963.63 Q42.138 966.049 38.0002 966.049 Q32.9713 966.049 30.2341 962.484 Q27.4968 958.92 27.4968 952.363 Q27.4968 949.116 27.9743 946.252 Q28.4517 943.387 29.4065 940.968 Z" fill="#000000" fill-rule="nonzero" fill-opacity="1" /><path clip-path="url(#clip700)" d="M28.3562 929.733 L28.3562 923.876 L64.0042 923.876 L64.0042 929.733 L28.3562 929.733 M14.479 929.733 L14.479 923.876 L21.895 923.876 L21.895 929.733 L14.479 929.733 Z" fill="#000000" fill-rule="nonzero" fill-opacity="1" /><path clip-path="url(#clip700)" d="M45.7664 888.165 Q39.4007 888.165 35.8996 890.807 Q32.3984 893.416 32.3984 898.159 Q32.3984 902.87 35.8996 905.511 Q39.4007 908.121 45.7664 908.121 Q52.1003 908.121 55.6014 905.511 Q59.1026 902.87 59.1026 898.159 Q59.1026 893.416 55.6014 890.807 Q52.1003 888.165 45.7664 888.165 M59.58 882.308 Q68.683 882.308 73.1071 886.351 Q77.5631 890.393 77.5631 898.732 Q77.5631 901.819 77.0857 904.556 Q76.6401 907.294 75.6852 909.872 L69.9879 909.872 Q71.3884 907.294 72.0568 904.779 Q72.7252 902.265 72.7252 899.655 Q72.7252 893.894 69.7015 891.029 Q66.7096 888.165 60.6303 888.165 L57.7339 888.165 Q60.885 889.979 62.4446 892.812 Q64.0042 895.644 64.0042 899.591 Q64.0042 906.148 59.0071 910.158 Q54.01 914.169 45.7664 914.169 Q37.491 914.169 32.4939 910.158 Q27.4968 906.148 27.4968 899.591 Q27.4968 895.644 29.0564 892.812 Q30.616 889.979 33.7671 888.165 L28.3562 888.165 L28.3562 882.308 L59.58 882.308 Z" fill="#000000" fill-rule="nonzero" fill-opacity="1" /><path clip-path="url(#clip700)" d="M42.4881 840.613 L64.0042 840.613 L64.0042 846.469 L42.679 846.469 Q37.6183 846.469 35.1038 848.443 Q32.5894 850.416 32.5894 854.363 Q32.5894 859.105 35.6131 861.843 Q38.6368 864.58 43.8567 864.58 L64.0042 864.58 L64.0042 870.468 L28.3562 870.468 L28.3562 864.58 L33.8944 864.58 Q30.6797 862.479 29.0883 859.646 Q27.4968 856.782 27.4968 853.058 Q27.4968 846.915 31.3163 843.764 Q35.1038 840.613 42.4881 840.613 Z" fill="#000000" fill-rule="nonzero" fill-opacity="1" /><path clip-path="url(#clip700)" d="M46.0847 812.731 Q46.0847 819.829 47.7079 822.566 Q49.3312 825.303 53.2461 825.303 Q56.3653 825.303 58.2114 823.266 Q60.0256 821.198 60.0256 817.665 Q60.0256 812.795 56.5881 809.867 Q53.1188 806.907 47.3897 806.907 L46.0847 806.907 L46.0847 812.731 M43.6657 801.05 L64.0042 801.05 L64.0042 806.907 L58.5933 806.907 Q61.8398 808.912 63.3994 811.904 Q64.9272 814.895 64.9272 819.224 Q64.9272 824.699 61.8716 827.945 Q58.7843 831.16 53.6281 831.16 Q47.6125 831.16 44.5569 827.149 Q41.5014 823.107 41.5014 815.118 L41.5014 806.907 L40.9285 806.907 Q36.8862 806.907 34.6901 809.58 Q32.4621 812.222 32.4621 817.028 Q32.4621 820.084 33.1941 822.98 Q33.9262 825.876 35.3903 828.55 L29.9795 828.55 Q28.7381 825.335 28.1334 822.312 Q27.4968 819.288 27.4968 816.423 Q27.4968 808.689 31.5072 804.87 Q35.5176 801.05 43.6657 801.05 Z" fill="#000000" fill-rule="nonzero" fill-opacity="1" /><path clip-path="url(#clip700)" d="M14.479 788.987 L14.479 783.131 L64.0042 783.131 L64.0042 788.987 L14.479 788.987 Z" fill="#000000" fill-rule="nonzero" fill-opacity="1" /><path clip-path="url(#clip700)" d="M58.657 744.491 L77.5631 744.491 L77.5631 750.379 L28.3562 750.379 L28.3562 744.491 L33.7671 744.491 Q30.5842 742.645 29.0564 739.844 Q27.4968 737.011 27.4968 733.096 Q27.4968 726.603 32.6531 722.561 Q37.8093 718.487 46.212 718.487 Q54.6147 718.487 59.771 722.561 Q64.9272 726.603 64.9272 733.096 Q64.9272 737.011 63.3994 739.844 Q61.8398 742.645 58.657 744.491 M46.212 724.566 Q39.7508 724.566 36.0905 727.24 Q32.3984 729.881 32.3984 734.528 Q32.3984 739.175 36.0905 741.849 Q39.7508 744.491 46.212 744.491 Q52.6732 744.491 56.3653 741.849 Q60.0256 739.175 60.0256 734.528 Q60.0256 729.881 56.3653 727.24 Q52.6732 724.566 46.212 724.566 Z" fill="#000000" fill-rule="nonzero" fill-opacity="1" /><path clip-path="url(#clip700)" d="M42.4881 679.147 L64.0042 679.147 L64.0042 685.003 L42.679 685.003 Q37.6183 685.003 35.1038 686.977 Q32.5894 688.95 32.5894 692.897 Q32.5894 697.639 35.6131 700.376 Q38.6368 703.114 43.8567 703.114 L64.0042 703.114 L64.0042 709.002 L14.479 709.002 L14.479 703.114 L33.8944 703.114 Q30.6797 701.013 29.0883 698.18 Q27.4968 695.316 27.4968 691.592 Q27.4968 685.449 31.3163 682.298 Q35.1038 679.147 42.4881 679.147 Z" fill="#000000" fill-rule="nonzero" fill-opacity="1" /><path clip-path="url(#clip700)" d="M46.0847 651.265 Q46.0847 658.363 47.7079 661.1 Q49.3312 663.837 53.2461 663.837 Q56.3653 663.837 58.2114 661.8 Q60.0256 659.731 60.0256 656.198 Q60.0256 651.329 56.5881 648.4 Q53.1188 645.44 47.3897 645.44 L46.0847 645.44 L46.0847 651.265 M43.6657 639.584 L64.0042 639.584 L64.0042 645.44 L58.5933 645.44 Q61.8398 647.446 63.3994 650.437 Q64.9272 653.429 64.9272 657.758 Q64.9272 663.233 61.8716 666.479 Q58.7843 669.694 53.6281 669.694 Q47.6125 669.694 44.5569 665.683 Q41.5014 661.641 41.5014 653.652 L41.5014 645.44 L40.9285 645.44 Q36.8862 645.44 34.6901 648.114 Q32.4621 650.756 32.4621 655.562 Q32.4621 658.617 33.1941 661.514 Q33.9262 664.41 35.3903 667.084 L29.9795 667.084 Q28.7381 663.869 28.1334 660.845 Q27.4968 657.822 27.4968 654.957 Q27.4968 647.223 31.5072 643.403 Q35.5176 639.584 43.6657 639.584 Z" fill="#000000" fill-rule="nonzero" fill-opacity="1" /><path clip-path="url(#clip700)" d="M29.4065 604.795 L34.9447 604.795 Q33.6716 607.278 33.035 609.952 Q32.3984 612.625 32.3984 615.49 Q32.3984 619.85 33.7352 622.046 Q35.072 624.211 37.7456 624.211 Q39.7826 624.211 40.9603 622.651 Q42.1061 621.092 43.1565 616.381 L43.6021 614.376 Q44.9389 608.137 47.3897 605.527 Q49.8086 602.886 54.1691 602.886 Q59.1344 602.886 62.0308 606.832 Q64.9272 610.747 64.9272 617.622 Q64.9272 620.487 64.3543 623.606 Q63.8132 626.693 62.6992 630.131 L56.6518 630.131 Q58.3387 626.884 59.198 623.733 Q60.0256 620.582 60.0256 617.495 Q60.0256 613.357 58.6251 611.129 Q57.1929 608.901 54.6147 608.901 Q52.2276 608.901 50.9545 610.524 Q49.6813 612.116 48.5037 617.559 L48.0262 619.596 Q46.8804 625.038 44.5251 627.457 Q42.138 629.876 38.0002 629.876 Q32.9713 629.876 30.2341 626.311 Q27.4968 622.747 27.4968 616.19 Q27.4968 612.943 27.9743 610.079 Q28.4517 607.214 29.4065 604.795 Z" fill="#000000" fill-rule="nonzero" fill-opacity="1" /><path clip-path="url(#clip700)" d="M44.7161 563.068 L47.5806 563.068 L47.5806 589.995 Q53.6281 589.613 56.8109 586.367 Q59.9619 583.088 59.9619 577.264 Q59.9619 573.89 59.1344 570.739 Q58.3069 567.556 56.6518 564.437 L62.1899 564.437 Q63.5267 567.588 64.227 570.898 Q64.9272 574.208 64.9272 577.614 Q64.9272 586.144 59.9619 591.141 Q54.9967 596.106 46.5303 596.106 Q37.7774 596.106 32.6531 591.396 Q27.4968 586.653 27.4968 578.632 Q27.4968 571.439 32.1438 567.27 Q36.7589 563.068 44.7161 563.068 M42.9973 568.925 Q38.1912 568.988 35.3266 571.63 Q32.4621 574.24 32.4621 578.569 Q32.4621 583.47 35.2312 586.43 Q38.0002 589.359 43.0292 589.804 L42.9973 568.925 Z" fill="#000000" fill-rule="nonzero" fill-opacity="1" /><path clip-path="url(#clip700)" d="M745.967 10.0578 L745.967 15.758 Q742.639 14.1666 739.688 13.3853 Q736.736 12.6041 733.988 12.6041 Q729.213 12.6041 726.609 14.4559 Q724.034 16.3078 724.034 19.7221 Q724.034 22.5867 725.741 24.0624 Q727.477 25.5091 732.28 26.4061 L735.811 27.1295 Q742.35 28.3737 745.446 31.5276 Q748.571 34.6526 748.571 39.9188 Q748.571 46.1977 744.346 49.4384 Q740.151 52.6791 732.02 52.6791 Q728.953 52.6791 725.481 51.9847 Q722.037 51.2902 718.334 49.9303 L718.334 43.9118 Q721.893 45.9083 725.307 46.921 Q728.721 47.9338 732.02 47.9338 Q737.026 47.9338 739.746 45.9662 Q742.466 43.9986 742.466 40.3528 Q742.466 37.1699 740.498 35.376 Q738.559 33.582 734.103 32.685 L730.544 31.9906 Q724.005 30.6885 721.083 27.9107 Q718.16 25.133 718.16 20.1851 Q718.16 14.4559 722.182 11.1573 Q726.233 7.85875 733.322 7.85875 Q736.36 7.85875 739.514 8.40852 Q742.668 8.95829 745.967 10.0578 Z" fill="#000000" fill-rule="nonzero" fill-opacity="1" /><path clip-path="url(#clip700)" d="M757.685 8.64 L765.556 8.64 L784.711 44.7799 L784.711 8.64 L790.382 8.64 L790.382 51.84 L782.512 51.84 L763.357 15.7001 L763.357 51.84 L757.685 51.84 L757.685 8.64 Z" fill="#000000" fill-rule="nonzero" fill-opacity="1" /><path clip-path="url(#clip700)" d="M822.5 31.5855 Q824.381 32.222 826.146 34.3054 Q827.94 36.3887 829.734 40.0345 L835.665 51.84 L829.386 51.84 L823.86 40.7579 Q821.719 36.4176 819.693 34.9998 Q817.697 33.582 814.224 33.582 L807.859 33.582 L807.859 51.84 L802.014 51.84 L802.014 8.64 L815.208 8.64 Q822.616 8.64 826.261 11.736 Q829.907 14.8321 829.907 21.0821 Q829.907 25.1619 827.998 27.8529 Q826.117 30.5438 822.5 31.5855 M807.859 13.4432 L807.859 28.7788 L815.208 28.7788 Q819.433 28.7788 821.574 26.8401 Q823.744 24.8726 823.744 21.0821 Q823.744 17.2916 821.574 15.3819 Q819.433 13.4432 815.208 13.4432 L807.859 13.4432 Z" fill="#000000" fill-rule="nonzero" fill-opacity="1" /><path clip-path="url(#clip700)" d="M843.651 24.9304 L880.746 24.9304 L880.746 29.7915 L843.651 29.7915 L843.651 24.9304 M843.651 36.7359 L880.746 36.7359 L880.746 41.6549 L843.651 41.6549 L843.651 36.7359 Z" fill="#000000" fill-rule="nonzero" fill-opacity="1" /><path clip-path="url(#clip700)" d="M909.421 13.7326 L894.664 36.7938 L909.421 36.7938 L909.421 13.7326 M907.887 8.64 L915.237 8.64 L915.237 36.7938 L921.4 36.7938 L921.4 41.6549 L915.237 41.6549 L915.237 51.84 L909.421 51.84 L909.421 41.6549 L889.919 41.6549 L889.919 36.0125 L907.887 8.64 Z" fill="#000000" fill-rule="nonzero" fill-opacity="1" /><path clip-path="url(#clip700)" d="M943.564 12.4884 Q939.05 12.4884 936.764 16.9444 Q934.507 21.3714 934.507 30.2834 Q934.507 39.1665 936.764 43.6225 Q939.05 48.0495 943.564 48.0495 Q948.107 48.0495 950.364 43.6225 Q952.65 39.1665 952.65 30.2834 Q952.65 21.3714 950.364 16.9444 Q948.107 12.4884 943.564 12.4884 M943.564 7.85875 Q950.827 7.85875 954.646 13.6168 Q958.495 19.346 958.495 30.2834 Q958.495 41.1919 954.646 46.95 Q950.827 52.6791 943.564 52.6791 Q936.301 52.6791 932.453 46.95 Q928.634 41.1919 928.634 30.2834 Q928.634 19.346 932.453 13.6168 Q936.301 7.85875 943.564 7.85875 Z" fill="#000000" fill-rule="nonzero" fill-opacity="1" /><path clip-path="url(#clip700)" d="M1008.18 24.3517 L1008.18 6.81709 L1013.5 6.81709 L1013.5 51.84 L1008.18 51.84 L1008.18 46.9789 Q1006.5 49.8724 1003.92 51.2902 Q1001.38 52.6791 997.788 52.6791 Q991.915 52.6791 988.211 47.9916 Q984.536 43.3042 984.536 35.6653 Q984.536 28.0265 988.211 23.339 Q991.915 18.6515 997.788 18.6515 Q1001.38 18.6515 1003.92 20.0693 Q1006.5 21.4582 1008.18 24.3517 M990.034 35.6653 Q990.034 41.5391 992.435 44.8956 Q994.866 48.2231 999.09 48.2231 Q1003.31 48.2231 1005.75 44.8956 Q1008.18 41.5391 1008.18 35.6653 Q1008.18 29.7915 1005.75 26.464 Q1003.31 23.1075 999.09 23.1075 Q994.866 23.1075 992.435 26.464 Q990.034 29.7915 990.034 35.6653 Z" fill="#000000" fill-rule="nonzero" fill-opacity="1" /><path clip-path="url(#clip700)" d="M1030.54 31.2093 L1030.54 47.0368 L1039.92 47.0368 Q1044.63 47.0368 1046.89 45.0981 Q1049.18 43.1306 1049.18 39.1086 Q1049.18 35.0577 1046.89 33.148 Q1044.63 31.2093 1039.92 31.2093 L1030.54 31.2093 M1030.54 13.4432 L1030.54 26.464 L1039.19 26.464 Q1043.48 26.464 1045.56 24.8726 Q1047.67 23.2522 1047.67 19.9536 Q1047.67 16.6839 1045.56 15.0636 Q1043.48 13.4432 1039.19 13.4432 L1030.54 13.4432 M1024.7 8.64 L1039.63 8.64 Q1046.31 8.64 1049.93 11.4178 Q1053.55 14.1955 1053.55 19.317 Q1053.55 23.2811 1051.69 25.6249 Q1049.84 27.9686 1046.25 28.5473 Q1050.57 29.4732 1052.94 32.4246 Q1055.34 35.347 1055.34 39.7452 Q1055.34 45.5322 1051.4 48.6861 Q1047.47 51.84 1040.21 51.84 L1024.7 51.84 L1024.7 8.64 Z" fill="#000000" fill-rule="nonzero" fill-opacity="1" /><path clip-path="url(#clip700)" d="M1078.2 8.64 L1114.74 8.64 L1114.74 13.559 L1099.41 13.559 L1099.41 51.84 L1093.53 51.84 L1093.53 13.559 L1078.2 13.559 L1078.2 8.64 Z" fill="#000000" fill-rule="nonzero" fill-opacity="1" /><path clip-path="url(#clip700)" d="M1140.87 31.5855 Q1142.75 32.222 1144.52 34.3054 Q1146.31 36.3887 1148.11 40.0345 L1154.04 51.84 L1147.76 51.84 L1142.23 40.7579 Q1140.09 36.4176 1138.07 34.9998 Q1136.07 33.582 1132.6 33.582 L1126.23 33.582 L1126.23 51.84 L1120.39 51.84 L1120.39 8.64 L1133.58 8.64 Q1140.99 8.64 1144.63 11.736 Q1148.28 14.8321 1148.28 21.0821 Q1148.28 25.1619 1146.37 27.8529 Q1144.49 30.5438 1140.87 31.5855 M1126.23 13.4432 L1126.23 28.7788 L1133.58 28.7788 Q1137.8 28.7788 1139.95 26.8401 Q1142.12 24.8726 1142.12 21.0821 Q1142.12 17.2916 1139.95 15.3819 Q1137.8 13.4432 1133.58 13.4432 L1126.23 13.4432 Z" fill="#000000" fill-rule="nonzero" fill-opacity="1" /><path clip-path="url(#clip700)" d="M1162.02 24.9304 L1199.12 24.9304 L1199.12 29.7915 L1162.02 29.7915 L1162.02 24.9304 M1162.02 36.7359 L1199.12 36.7359 L1199.12 41.6549 L1162.02 41.6549 L1162.02 36.7359 Z" fill="#000000" fill-rule="nonzero" fill-opacity="1" /><path clip-path="url(#clip700)" d="M1224.23 31.3251 Q1220.07 31.3251 1217.67 33.5531 Q1215.29 35.7811 1215.29 39.6873 Q1215.29 43.5935 1217.67 45.8215 Q1220.07 48.0495 1224.23 48.0495 Q1228.4 48.0495 1230.8 45.8215 Q1233.2 43.5646 1233.2 39.6873 Q1233.2 35.7811 1230.8 33.5531 Q1228.43 31.3251 1224.23 31.3251 M1218.39 28.8367 Q1214.63 27.9107 1212.52 25.3355 Q1210.43 22.7603 1210.43 19.0566 Q1210.43 13.8772 1214.11 10.868 Q1217.81 7.85875 1224.23 7.85875 Q1230.69 7.85875 1234.36 10.868 Q1238.04 13.8772 1238.04 19.0566 Q1238.04 22.7603 1235.92 25.3355 Q1233.84 27.9107 1230.11 28.8367 Q1234.33 29.8204 1236.68 32.685 Q1239.05 35.5496 1239.05 39.6873 Q1239.05 45.9662 1235.2 49.3227 Q1231.38 52.6791 1224.23 52.6791 Q1217.09 52.6791 1213.24 49.3227 Q1209.42 45.9662 1209.42 39.6873 Q1209.42 35.5496 1211.79 32.685 Q1214.16 29.8204 1218.39 28.8367 M1216.25 19.6064 Q1216.25 22.9628 1218.33 24.8436 Q1220.44 26.7244 1224.23 26.7244 Q1228 26.7244 1230.11 24.8436 Q1232.25 22.9628 1232.25 19.6064 Q1232.25 16.2499 1230.11 14.3691 Q1228 12.4884 1224.23 12.4884 Q1220.44 12.4884 1218.33 14.3691 Q1216.25 16.2499 1216.25 19.6064 Z" fill="#000000" fill-rule="nonzero" fill-opacity="1" /><path clip-path="url(#clip700)" d="M1261.76 8.64 L1298.31 8.64 L1298.31 13.559 L1282.97 13.559 L1282.97 51.84 L1277.1 51.84 L1277.1 13.559 L1261.76 13.559 L1261.76 8.64 Z" fill="#000000" fill-rule="nonzero" fill-opacity="1" /><path clip-path="url(#clip700)" d="M1303.95 8.64 L1331.26 8.64 L1331.26 13.559 L1309.79 13.559 L1309.79 26.3482 L1330.37 26.3482 L1330.37 31.2672 L1309.79 31.2672 L1309.79 46.921 L1331.79 46.921 L1331.79 51.84 L1303.95 51.84 L1303.95 8.64 Z" fill="#000000" fill-rule="nonzero" fill-opacity="1" /><path clip-path="url(#clip700)" d="M1341.85 24.9304 L1378.95 24.9304 L1378.95 29.7915 L1341.85 29.7915 L1341.85 24.9304 M1341.85 36.7359 L1378.95 36.7359 L1378.95 41.6549 L1341.85 41.6549 L1341.85 36.7359 Z" fill="#000000" fill-rule="nonzero" fill-opacity="1" /><path clip-path="url(#clip700)" d="M1407.62 13.7326 L1392.87 36.7938 L1407.62 36.7938 L1407.62 13.7326 M1406.09 8.64 L1413.44 8.64 L1413.44 36.7938 L1419.6 36.7938 L1419.6 41.6549 L1413.44 41.6549 L1413.44 51.84 L1407.62 51.84 L1407.62 41.6549 L1388.12 41.6549 L1388.12 36.0125 L1406.09 8.64 Z" fill="#000000" fill-rule="nonzero" fill-opacity="1" /><path clip-path="url(#clip700)" d="M1441.59 8.64 L1478.14 8.64 L1478.14 13.559 L1462.8 13.559 L1462.8 51.84 L1456.93 51.84 L1456.93 13.559 L1441.59 13.559 L1441.59 8.64 Z" fill="#000000" fill-rule="nonzero" fill-opacity="1" /><path clip-path="url(#clip700)" d="M1485.31 46.921 L1494.86 46.921 L1494.86 13.964 L1484.48 16.0474 L1484.48 10.7233 L1494.81 8.64 L1500.65 8.64 L1500.65 46.921 L1510.2 46.921 L1510.2 51.84 L1485.31 51.84 L1485.31 46.921 Z" fill="#000000" fill-rule="nonzero" fill-opacity="1" /><path clip-path="url(#clip700)" d="M1521.95 24.9304 L1559.04 24.9304 L1559.04 29.7915 L1521.95 29.7915 L1521.95 24.9304 M1521.95 36.7359 L1559.04 36.7359 L1559.04 41.6549 L1521.95 41.6549 L1521.95 36.7359 Z" fill="#000000" fill-rule="nonzero" fill-opacity="1" /><path clip-path="url(#clip700)" d="M1587.72 13.7326 L1572.96 36.7938 L1587.72 36.7938 L1587.72 13.7326 M1586.18 8.64 L1593.53 8.64 L1593.53 36.7938 L1599.69 36.7938 L1599.69 41.6549 L1593.53 41.6549 L1593.53 51.84 L1587.72 51.84 L1587.72 41.6549 L1568.21 41.6549 L1568.21 36.0125 L1586.18 8.64 Z" fill="#000000" fill-rule="nonzero" fill-opacity="1" /><path clip-path="url(#clip700)" d="M1621.86 12.4884 Q1617.35 12.4884 1615.06 16.9444 Q1612.8 21.3714 1612.8 30.2834 Q1612.8 39.1665 1615.06 43.6225 Q1617.35 48.0495 1621.86 48.0495 Q1626.4 48.0495 1628.66 43.6225 Q1630.94 39.1665 1630.94 30.2834 Q1630.94 21.3714 1628.66 16.9444 Q1626.4 12.4884 1621.86 12.4884 M1621.86 7.85875 Q1629.12 7.85875 1632.94 13.6168 Q1636.79 19.346 1636.79 30.2834 Q1636.79 41.1919 1632.94 46.95 Q1629.12 52.6791 1621.86 52.6791 Q1614.6 52.6791 1610.75 46.95 Q1606.93 41.1919 1606.93 30.2834 Q1606.93 19.346 1610.75 13.6168 Q1614.6 7.85875 1621.86 7.85875 Z" fill="#000000" fill-rule="nonzero" fill-opacity="1" /><path clip-path="url(#clip700)" d="M1659.56 12.4884 Q1655.05 12.4884 1652.76 16.9444 Q1650.5 21.3714 1650.5 30.2834 Q1650.5 39.1665 1652.76 43.6225 Q1655.05 48.0495 1659.56 48.0495 Q1664.1 48.0495 1666.36 43.6225 Q1668.65 39.1665 1668.65 30.2834 Q1668.65 21.3714 1666.36 16.9444 Q1664.1 12.4884 1659.56 12.4884 M1659.56 7.85875 Q1666.82 7.85875 1670.64 13.6168 Q1674.49 19.346 1674.49 30.2834 Q1674.49 41.1919 1670.64 46.95 Q1666.82 52.6791 1659.56 52.6791 Q1652.3 52.6791 1648.45 46.95 Q1644.63 41.1919 1644.63 30.2834 Q1644.63 19.346 1648.45 13.6168 Q1652.3 7.85875 1659.56 7.85875 Z" fill="#000000" fill-rule="nonzero" fill-opacity="1" /><path clip-path="url(#clip700)" d="M1697.09 8.64 L1733.64 8.64 L1733.64 13.559 L1718.3 13.559 L1718.3 51.84 L1712.43 51.84 L1712.43 13.559 L1697.09 13.559 L1697.09 8.64 Z" fill="#000000" fill-rule="nonzero" fill-opacity="1" /><path clip-path="url(#clip700)" d="M1744.83 46.921 L1765.23 46.921 L1765.23 51.84 L1737.8 51.84 L1737.8 46.921 Q1741.13 43.4778 1746.86 37.6908 Q1752.62 31.8748 1754.09 30.1966 Q1756.9 27.0427 1758 24.8726 Q1759.13 22.6735 1759.13 20.5612 Q1759.13 17.118 1756.7 14.9478 Q1754.29 12.7777 1750.42 12.7777 Q1747.67 12.7777 1744.6 13.7326 Q1741.56 14.6874 1738.09 16.6261 L1738.09 10.7233 Q1741.62 9.30551 1744.69 8.58213 Q1747.76 7.85875 1750.3 7.85875 Q1757.01 7.85875 1761.01 11.2152 Q1765 14.5717 1765 20.1851 Q1765 22.8471 1763.99 25.2487 Q1763 27.6214 1760.37 30.8621 Q1759.65 31.7012 1755.77 35.7232 Q1751.89 39.7162 1744.83 46.921 Z" fill="#000000" fill-rule="nonzero" fill-opacity="1" /><path clip-path="url(#clip700)" d="M1777.44 24.9304 L1814.54 24.9304 L1814.54 29.7915 L1777.44 29.7915 L1777.44 24.9304 M1777.44 36.7359 L1814.54 36.7359 L1814.54 41.6549 L1777.44 41.6549 L1777.44 36.7359 Z" fill="#000000" fill-rule="nonzero" fill-opacity="1" /><path clip-path="url(#clip700)" d="M1828.17 46.921 L1837.71 46.921 L1837.71 13.964 L1827.33 16.0474 L1827.33 10.7233 L1837.66 8.64 L1843.5 8.64 L1843.5 46.921 L1853.05 46.921 L1853.05 51.84 L1828.17 51.84 L1828.17 46.921 Z" fill="#000000" fill-rule="nonzero" fill-opacity="1" /><path clip-path="url(#clip700)" d="M1877.36 12.4884 Q1872.84 12.4884 1870.56 16.9444 Q1868.3 21.3714 1868.3 30.2834 Q1868.3 39.1665 1870.56 43.6225 Q1872.84 48.0495 1877.36 48.0495 Q1881.9 48.0495 1884.16 43.6225 Q1886.44 39.1665 1886.44 30.2834 Q1886.44 21.3714 1884.16 16.9444 Q1881.9 12.4884 1877.36 12.4884 M1877.36 7.85875 Q1884.62 7.85875 1888.44 13.6168 Q1892.29 19.346 1892.29 30.2834 Q1892.29 41.1919 1888.44 46.95 Q1884.62 52.6791 1877.36 52.6791 Q1870.09 52.6791 1866.24 46.95 Q1862.42 41.1919 1862.42 30.2834 Q1862.42 19.346 1866.24 13.6168 Q1870.09 7.85875 1877.36 7.85875 Z" fill="#000000" fill-rule="nonzero" fill-opacity="1" /><circle clip-path="url(#clip701)" cx="564.044" cy="769.893" r="14.4" fill="#009af9" fill-rule="evenodd" fill-opacity="1" stroke="none"/>
<circle clip-path="url(#clip701)" cx="811.104" cy="785.828" r="14.4" fill="#009af9" fill-rule="evenodd" fill-opacity="1" stroke="none"/>
<circle clip-path="url(#clip701)" cx="1058.16" cy="800.726" r="14.4" fill="#009af9" fill-rule="evenodd" fill-opacity="1" stroke="none"/>
<circle clip-path="url(#clip701)" cx="1305.22" cy="797.338" r="14.4" fill="#009af9" fill-rule="evenodd" fill-opacity="1" stroke="none"/>
<circle clip-path="url(#clip701)" cx="1552.28" cy="745.611" r="14.4" fill="#009af9" fill-rule="evenodd" fill-opacity="1" stroke="none"/>
<circle clip-path="url(#clip701)" cx="1799.34" cy="744.795" r="14.4" fill="#009af9" fill-rule="evenodd" fill-opacity="1" stroke="none"/>
<circle clip-path="url(#clip701)" cx="2046.4" cy="740.784" r="14.4" fill="#009af9" fill-rule="evenodd" fill-opacity="1" stroke="none"/>
<circle clip-path="url(#clip701)" cx="2293.46" cy="742.516" r="14.4" fill="#009af9" fill-rule="evenodd" fill-opacity="1" stroke="none"/>
<circle clip-path="url(#clip701)" cx="564.044" cy="770.078" r="14.4" fill="#e26f46" fill-rule="evenodd" fill-opacity="1" stroke="none"/>
<circle clip-path="url(#clip701)" cx="811.104" cy="783.725" r="14.4" fill="#e26f46" fill-rule="evenodd" fill-opacity="1" stroke="none"/>
<circle clip-path="url(#clip701)" cx="1058.16" cy="797.908" r="14.4" fill="#e26f46" fill-rule="evenodd" fill-opacity="1" stroke="none"/>
<circle clip-path="url(#clip701)" cx="1305.22" cy="776.943" r="14.4" fill="#e26f46" fill-rule="evenodd" fill-opacity="1" stroke="none"/>
<circle clip-path="url(#clip701)" cx="1552.28" cy="768.18" r="14.4" fill="#e26f46" fill-rule="evenodd" fill-opacity="1" stroke="none"/>
<circle clip-path="url(#clip701)" cx="1799.34" cy="757.757" r="14.4" fill="#e26f46" fill-rule="evenodd" fill-opacity="1" stroke="none"/>
<circle clip-path="url(#clip701)" cx="2046.4" cy="747.608" r="14.4" fill="#e26f46" fill-rule="evenodd" fill-opacity="1" stroke="none"/>
<circle clip-path="url(#clip701)" cx="2293.46" cy="756.471" r="14.4" fill="#e26f46" fill-rule="evenodd" fill-opacity="1" stroke="none"/>
<circle clip-path="url(#clip701)" cx="564.044" cy="767.803" r="14.4" fill="#3da44d" fill-rule="evenodd" fill-opacity="1" stroke="none"/>
<circle clip-path="url(#clip701)" cx="811.104" cy="778.513" r="14.4" fill="#3da44d" fill-rule="evenodd" fill-opacity="1" stroke="none"/>
<circle clip-path="url(#clip701)" cx="1058.16" cy="792.483" r="14.4" fill="#3da44d" fill-rule="evenodd" fill-opacity="1" stroke="none"/>
<circle clip-path="url(#clip701)" cx="1305.22" cy="779.719" r="14.4" fill="#3da44d" fill-rule="evenodd" fill-opacity="1" stroke="none"/>
<circle clip-path="url(#clip701)" cx="1552.28" cy="742.138" r="14.4" fill="#3da44d" fill-rule="evenodd" fill-opacity="1" stroke="none"/>
<circle clip-path="url(#clip701)" cx="1799.34" cy="742.979" r="14.4" fill="#3da44d" fill-rule="evenodd" fill-opacity="1" stroke="none"/>
<circle clip-path="url(#clip701)" cx="2046.4" cy="737.287" r="14.4" fill="#3da44d" fill-rule="evenodd" fill-opacity="1" stroke="none"/>
<circle clip-path="url(#clip701)" cx="2293.46" cy="751.304" r="14.4" fill="#3da44d" fill-rule="evenodd" fill-opacity="1" stroke="none"/>
<polyline clip-path="url(#clip701)" style="stroke:#009af9; stroke-linecap:round; stroke-linejoin:round; stroke-width:8; stroke-opacity:1; fill:none" points="316.984,754.437 349.926,756.829 382.867,759.237 415.808,761.65 448.75,764.061 481.691,766.469 514.632,768.878 547.573,771.285 580.515,773.681 613.456,776.054 646.397,778.395 679.339,780.702 712.28,782.974 745.221,785.206 778.162,787.384 811.104,789.489 844.045,791.503 876.986,793.411 909.928,795.194 942.869,796.826 975.81,798.27 1008.75,799.477 1041.69,800.394 1074.63,800.96 1107.58,801.11 1140.52,800.768 1173.46,799.848 1206.4,798.263 1239.34,795.937 1272.28,792.819 1305.22,788.895 1338.16,784.196 1371.11,778.811 1404.05,772.89 1436.99,766.639 1469.93,760.307 1502.87,754.151 1535.81,748.407 1568.75,743.263 1601.69,738.846 1634.64,735.223 1667.58,732.408 1700.52,730.372 1733.46,729.054 1766.4,728.372 1799.34,728.236 1832.28,728.566 1865.22,729.287 1898.17,730.338 1931.11,731.659 1964.05,733.199 1996.99,734.912 2029.93,736.765 2062.87,738.734 2095.81,740.804 2128.76,742.958 2161.7,745.176 2194.64,747.44 2227.58,749.741 2260.52,752.073 2293.46,754.437 "/>
<polyline clip-path="url(#clip701)" style="stroke:#e26f46; stroke-linecap:round; stroke-linejoin:round; stroke-width:8; stroke-opacity:1; fill:none" points="316.984,756.562 349.926,758.362 382.867,760.198 415.808,762.057 448.75,763.932 481.691,765.812 514.632,767.689 547.573,769.553 580.515,771.393 613.456,773.199 646.397,774.96 679.339,776.663 712.28,778.295 745.221,779.84 778.162,781.282 811.104,782.603 844.045,783.785 876.986,784.809 909.928,785.653 942.869,786.299 975.81,786.726 1008.75,786.914 1041.69,786.848 1074.63,786.513 1107.58,785.898 1140.52,784.996 1173.46,783.806 1206.4,782.333 1239.34,780.588 1272.28,778.59 1305.22,776.364 1338.16,773.942 1371.11,771.362 1404.05,768.667 1436.99,765.904 1469.93,763.122 1502.87,760.372 1535.81,757.701 1568.75,755.156 1601.69,752.779 1634.64,750.605 1667.58,748.665 1700.52,746.982 1733.46,745.572 1766.4,744.445 1799.34,743.602 1832.28,743.042 1865.22,742.758 1898.17,742.736 1931.11,742.963 1964.05,743.421 1996.99,744.091 2029.93,744.954 2062.87,745.989 2095.81,747.179 2128.76,748.503 2161.7,749.944 2194.64,751.485 2227.58,753.111 2260.52,754.808 2293.46,756.562 "/>
<polyline clip-path="url(#clip701)" style="stroke:#3da44d; stroke-linecap:round; stroke-linejoin:round; stroke-width:8; stroke-opacity:1; fill:none" points="316.984,757.312 349.926,758.915 382.867,760.566 415.808,762.252 448.75,763.96 481.691,765.677 514.632,767.388 547.573,769.081 580.515,770.742 613.456,772.357 646.397,773.911 679.339,775.392 712.28,776.785 745.221,778.074 778.162,779.247 811.104,780.287 844.045,781.182 876.986,781.919 909.928,782.483 942.869,782.865 975.81,783.054 1008.75,783.043 1041.69,782.824 1074.63,782.395 1107.58,781.755 1140.52,780.907 1173.46,779.856 1206.4,778.611 1239.34,777.185 1272.28,775.594 1305.22,773.858 1338.16,771.998 1371.11,770.039 1404.05,768.009 1436.99,765.936 1469.93,763.848 1502.87,761.777 1535.81,759.75 1568.75,757.797 1601.69,755.944 1634.64,754.215 1667.58,752.633 1700.52,751.215 1733.46,749.977 1766.4,748.932 1799.34,748.087 1832.28,747.449 1865.22,747.02 1898.17,746.798 1931.11,746.78 1964.05,746.961 1996.99,747.331 2029.93,747.883 2062.87,748.604 2095.81,749.482 2128.76,750.505 2161.7,751.659 2194.64,752.931 2227.58,754.306 2260.52,755.771 2293.46,757.312 "/>
<polyline clip-path="url(#clip701)" style="stroke:#000000; stroke-linecap:round; stroke-linejoin:round; stroke-width:8; stroke-opacity:1; fill:none" stroke-dasharray="32, 20" points="316.984,579.45 349.926,621.805 382.867,664.586 415.808,707.662 448.75,750.902 481.691,794.182 514.632,837.378 547.573,880.362 580.515,923.006 613.456,965.173 646.397,1006.72 679.339,1047.49 712.28,1087.31 745.221,1125.99 778.162,1163.33 811.104,1199.09 844.045,1232.98 876.986,1264.71 909.928,1293.9 942.869,1320.12 975.81,1342.89 1008.75,1361.61 1041.69,1375.59 1074.63,1384.01 1107.58,1385.91 1140.52,1380.17 1173.46,1365.51 1206.4,1340.51 1239.34,1303.7 1272.28,1253.65 1305.22,1189.29 1338.16,1110.23 1371.11,1017.29 1404.05,912.892 1436.99,801.178 1469.93,687.592 1502.87,577.938 1535.81,477.275 1568.75,389.145 1601.69,315.354 1634.64,256.233 1667.58,211.099 1700.52,178.712 1733.46,157.609 1766.4,146.317 1799.34,143.465 1832.28,147.831 1865.22,158.354 1898.17,174.127 1931.11,194.378 1964.05,218.454 1996.99,245.801 2029.93,275.948 2062.87,308.493 2095.81,343.092 2128.76,379.446 2161.7,417.296 2194.64,456.414 2227.58,496.597 2260.52,537.664 2293.46,579.45 "/>
<path clip-path="url(#clip700)" d="M327.526 564.812 L829.508 564.812 L829.508 150.092 L327.526 150.092  Z" fill="#ffffff" fill-rule="evenodd" fill-opacity="1"/>
<polyline clip-path="url(#clip700)" style="stroke:#000000; stroke-linecap:round; stroke-linejoin:round; stroke-width:4; stroke-opacity:1; fill:none" points="327.526,564.812 829.508,564.812 829.508,150.092 327.526,150.092 327.526,564.812 "/>
<circle clip-path="url(#clip700)" cx="420.64" cy="201.932" r="20.48" fill="#009af9" fill-rule="evenodd" fill-opacity="1" stroke="none"/>
<path clip-path="url(#clip700)" d="M514.425 215.277 L522.064 215.277 L522.064 188.911 L513.754 190.578 L513.754 186.318 L522.018 184.652 L526.693 184.652 L526.693 215.277 L534.332 215.277 L534.332 219.212 L514.425 219.212 L514.425 215.277 Z" fill="#000000" fill-rule="nonzero" fill-opacity="1" /><path clip-path="url(#clip700)" d="M553.777 187.73 Q550.166 187.73 548.337 191.295 Q546.531 194.837 546.531 201.966 Q546.531 209.073 548.337 212.638 Q550.166 216.179 553.777 216.179 Q557.411 216.179 559.216 212.638 Q561.045 209.073 561.045 201.966 Q561.045 194.837 559.216 191.295 Q557.411 187.73 553.777 187.73 M553.777 184.027 Q559.587 184.027 562.642 188.633 Q565.721 193.216 565.721 201.966 Q565.721 210.693 562.642 215.3 Q559.587 219.883 553.777 219.883 Q547.967 219.883 544.888 215.3 Q541.832 210.693 541.832 201.966 Q541.832 193.216 544.888 188.633 Q547.967 184.027 553.777 184.027 Z" fill="#000000" fill-rule="nonzero" fill-opacity="1" /><path clip-path="url(#clip700)" d="M580.721 187.013 Q578.869 187.013 577.596 188.309 Q576.323 189.582 576.323 191.434 Q576.323 193.263 577.596 194.536 Q578.869 195.786 580.721 195.786 Q582.573 195.786 583.846 194.536 Q585.119 193.263 585.119 191.434 Q585.119 189.605 583.823 188.309 Q582.55 187.013 580.721 187.013 M580.721 184.027 Q582.202 184.027 583.568 184.605 Q584.934 185.161 585.929 186.226 Q586.994 187.267 587.526 188.587 Q588.059 189.906 588.059 191.434 Q588.059 194.49 585.906 196.619 Q583.777 198.726 580.675 198.726 Q577.55 198.726 575.466 196.642 Q573.383 194.559 573.383 191.434 Q573.383 188.332 575.513 186.179 Q577.642 184.027 580.721 184.027 Z" fill="#000000" fill-rule="nonzero" fill-opacity="1" /><path clip-path="url(#clip700)" d="M633.66 203.564 L633.66 219.212 L629.401 219.212 L629.401 203.703 Q629.401 200.022 627.966 198.193 Q626.531 196.365 623.661 196.365 Q620.211 196.365 618.221 198.564 Q616.23 200.763 616.23 204.559 L616.23 219.212 L611.948 219.212 L611.948 193.286 L616.23 193.286 L616.23 197.314 Q617.758 194.976 619.818 193.818 Q621.901 192.661 624.61 192.661 Q629.077 192.661 631.369 195.439 Q633.66 198.193 633.66 203.564 Z" fill="#000000" fill-rule="nonzero" fill-opacity="1" /><path clip-path="url(#clip700)" d="M652.202 196.272 Q648.776 196.272 646.785 198.957 Q644.795 201.619 644.795 206.272 Q644.795 210.925 646.762 213.61 Q648.753 216.272 652.202 216.272 Q655.605 216.272 657.596 213.587 Q659.586 210.902 659.586 206.272 Q659.586 201.666 657.596 198.98 Q655.605 196.272 652.202 196.272 M652.202 192.661 Q657.758 192.661 660.929 196.272 Q664.1 199.883 664.1 206.272 Q664.1 212.638 660.929 216.272 Q657.758 219.883 652.202 219.883 Q646.623 219.883 643.452 216.272 Q640.304 212.638 640.304 206.272 Q640.304 199.883 643.452 196.272 Q646.623 192.661 652.202 192.661 Z" fill="#000000" fill-rule="nonzero" fill-opacity="1" /><path clip-path="url(#clip700)" d="M671.16 193.286 L675.42 193.286 L675.42 219.212 L671.16 219.212 L671.16 193.286 M671.16 183.193 L675.42 183.193 L675.42 188.587 L671.16 188.587 L671.16 183.193 Z" fill="#000000" fill-rule="nonzero" fill-opacity="1" /><path clip-path="url(#clip700)" d="M700.859 194.05 L700.859 198.078 Q699.054 197.152 697.109 196.689 Q695.165 196.226 693.081 196.226 Q689.91 196.226 688.313 197.198 Q686.739 198.17 686.739 200.115 Q686.739 201.596 687.873 202.453 Q689.007 203.286 692.433 204.05 L693.892 204.374 Q698.429 205.346 700.327 207.128 Q702.248 208.888 702.248 212.059 Q702.248 215.67 699.378 217.777 Q696.531 219.883 691.531 219.883 Q689.447 219.883 687.179 219.466 Q684.933 219.073 682.433 218.263 L682.433 213.865 Q684.794 215.091 687.086 215.716 Q689.378 216.318 691.623 216.318 Q694.632 216.318 696.253 215.3 Q697.873 214.258 697.873 212.383 Q697.873 210.647 696.693 209.721 Q695.535 208.795 691.577 207.939 L690.095 207.591 Q686.137 206.758 684.378 205.045 Q682.619 203.309 682.619 200.3 Q682.619 196.642 685.211 194.652 Q687.804 192.661 692.572 192.661 Q694.933 192.661 697.017 193.008 Q699.1 193.355 700.859 194.05 Z" fill="#000000" fill-rule="nonzero" fill-opacity="1" /><path clip-path="url(#clip700)" d="M719.817 221.619 Q718.012 226.249 716.299 227.661 Q714.586 229.073 711.716 229.073 L708.313 229.073 L708.313 225.508 L710.813 225.508 Q712.572 225.508 713.544 224.675 Q714.517 223.841 715.697 220.739 L716.461 218.795 L705.975 193.286 L710.489 193.286 L718.591 213.564 L726.692 193.286 L731.206 193.286 L719.817 221.619 Z" fill="#000000" fill-rule="nonzero" fill-opacity="1" /><circle clip-path="url(#clip700)" cx="420.64" cy="253.772" r="20.48" fill="#e26f46" fill-rule="evenodd" fill-opacity="1" stroke="none"/>
<path clip-path="url(#clip700)" d="M529.379 252.418 Q532.735 253.135 534.61 255.404 Q536.508 257.672 536.508 261.005 Q536.508 266.121 532.99 268.922 Q529.471 271.723 522.99 271.723 Q520.814 271.723 518.499 271.283 Q516.207 270.867 513.754 270.01 L513.754 265.496 Q515.698 266.63 518.013 267.209 Q520.328 267.788 522.851 267.788 Q527.249 267.788 529.541 266.052 Q531.855 264.316 531.855 261.005 Q531.855 257.95 529.703 256.237 Q527.573 254.501 523.754 254.501 L519.726 254.501 L519.726 250.658 L523.939 250.658 Q527.388 250.658 529.217 249.293 Q531.045 247.904 531.045 245.311 Q531.045 242.649 529.147 241.237 Q527.272 239.802 523.754 239.802 Q521.832 239.802 519.633 240.219 Q517.434 240.635 514.795 241.515 L514.795 237.348 Q517.457 236.607 519.772 236.237 Q522.11 235.867 524.17 235.867 Q529.494 235.867 532.596 238.297 Q535.698 240.705 535.698 244.825 Q535.698 247.695 534.055 249.686 Q532.411 251.654 529.379 252.418 Z" fill="#000000" fill-rule="nonzero" fill-opacity="1" /><path clip-path="url(#clip700)" d="M555.374 239.57 Q551.763 239.57 549.934 243.135 Q548.129 246.677 548.129 253.806 Q548.129 260.913 549.934 264.478 Q551.763 268.019 555.374 268.019 Q559.008 268.019 560.814 264.478 Q562.642 260.913 562.642 253.806 Q562.642 246.677 560.814 243.135 Q559.008 239.57 555.374 239.57 M555.374 235.867 Q561.184 235.867 564.24 240.473 Q567.318 245.056 567.318 253.806 Q567.318 262.533 564.24 267.14 Q561.184 271.723 555.374 271.723 Q549.564 271.723 546.485 267.14 Q543.429 262.533 543.429 253.806 Q543.429 245.056 546.485 240.473 Q549.564 235.867 555.374 235.867 Z" fill="#000000" fill-rule="nonzero" fill-opacity="1" /><path clip-path="url(#clip700)" d="M582.318 238.853 Q580.466 238.853 579.193 240.149 Q577.92 241.422 577.92 243.274 Q577.92 245.103 579.193 246.376 Q580.466 247.626 582.318 247.626 Q584.17 247.626 585.443 246.376 Q586.716 245.103 586.716 243.274 Q586.716 241.445 585.42 240.149 Q584.147 238.853 582.318 238.853 M582.318 235.867 Q583.8 235.867 585.165 236.445 Q586.531 237.001 587.526 238.066 Q588.591 239.107 589.124 240.427 Q589.656 241.746 589.656 243.274 Q589.656 246.33 587.503 248.459 Q585.374 250.566 582.272 250.566 Q579.147 250.566 577.064 248.482 Q574.98 246.399 574.98 243.274 Q574.98 240.172 577.11 238.019 Q579.239 235.867 582.318 235.867 Z" fill="#000000" fill-rule="nonzero" fill-opacity="1" /><path clip-path="url(#clip700)" d="M635.258 255.404 L635.258 271.052 L630.998 271.052 L630.998 255.543 Q630.998 251.862 629.563 250.033 Q628.128 248.205 625.258 248.205 Q621.809 248.205 619.818 250.404 Q617.827 252.603 617.827 256.399 L617.827 271.052 L613.545 271.052 L613.545 245.126 L617.827 245.126 L617.827 249.154 Q619.355 246.816 621.415 245.658 Q623.499 244.501 626.207 244.501 Q630.674 244.501 632.966 247.279 Q635.258 250.033 635.258 255.404 Z" fill="#000000" fill-rule="nonzero" fill-opacity="1" /><path clip-path="url(#clip700)" d="M653.799 248.112 Q650.373 248.112 648.383 250.797 Q646.392 253.459 646.392 258.112 Q646.392 262.765 648.359 265.45 Q650.35 268.112 653.799 268.112 Q657.202 268.112 659.193 265.427 Q661.183 262.742 661.183 258.112 Q661.183 253.506 659.193 250.82 Q657.202 248.112 653.799 248.112 M653.799 244.501 Q659.355 244.501 662.526 248.112 Q665.697 251.723 665.697 258.112 Q665.697 264.478 662.526 268.112 Q659.355 271.723 653.799 271.723 Q648.221 271.723 645.049 268.112 Q641.901 264.478 641.901 258.112 Q641.901 251.723 645.049 248.112 Q648.221 244.501 653.799 244.501 Z" fill="#000000" fill-rule="nonzero" fill-opacity="1" /><path clip-path="url(#clip700)" d="M672.758 245.126 L677.017 245.126 L677.017 271.052 L672.758 271.052 L672.758 245.126 M672.758 235.033 L677.017 235.033 L677.017 240.427 L672.758 240.427 L672.758 235.033 Z" fill="#000000" fill-rule="nonzero" fill-opacity="1" /><path clip-path="url(#clip700)" d="M702.456 245.89 L702.456 249.918 Q700.651 248.992 698.706 248.529 Q696.762 248.066 694.679 248.066 Q691.507 248.066 689.91 249.038 Q688.336 250.01 688.336 251.955 Q688.336 253.436 689.47 254.293 Q690.605 255.126 694.031 255.89 L695.489 256.214 Q700.026 257.186 701.924 258.968 Q703.845 260.728 703.845 263.899 Q703.845 267.51 700.975 269.617 Q698.128 271.723 693.128 271.723 Q691.044 271.723 688.776 271.306 Q686.531 270.913 684.031 270.103 L684.031 265.705 Q686.392 266.931 688.683 267.556 Q690.975 268.158 693.22 268.158 Q696.23 268.158 697.85 267.14 Q699.47 266.098 699.47 264.223 Q699.47 262.487 698.29 261.561 Q697.132 260.635 693.174 259.779 L691.693 259.431 Q687.734 258.598 685.975 256.885 Q684.216 255.149 684.216 252.14 Q684.216 248.482 686.808 246.492 Q689.401 244.501 694.169 244.501 Q696.531 244.501 698.614 244.848 Q700.697 245.195 702.456 245.89 Z" fill="#000000" fill-rule="nonzero" fill-opacity="1" /><path clip-path="url(#clip700)" d="M721.415 273.459 Q719.609 278.089 717.896 279.501 Q716.183 280.913 713.313 280.913 L709.91 280.913 L709.91 277.348 L712.41 277.348 Q714.169 277.348 715.142 276.515 Q716.114 275.681 717.294 272.579 L718.058 270.635 L707.572 245.126 L712.086 245.126 L720.188 265.404 L728.29 245.126 L732.803 245.126 L721.415 273.459 Z" fill="#000000" fill-rule="nonzero" fill-opacity="1" /><circle clip-path="url(#clip700)" cx="420.64" cy="305.612" r="20.48" fill="#3da44d" fill-rule="evenodd" fill-opacity="1" stroke="none"/>
<path clip-path="url(#clip700)" d="M515.212 288.332 L533.568 288.332 L533.568 292.267 L519.494 292.267 L519.494 300.739 Q520.513 300.392 521.531 300.23 Q522.55 300.045 523.568 300.045 Q529.355 300.045 532.735 303.216 Q536.115 306.387 536.115 311.804 Q536.115 317.382 532.643 320.484 Q529.17 323.563 522.851 323.563 Q520.675 323.563 518.406 323.193 Q516.161 322.822 513.754 322.082 L513.754 317.382 Q515.837 318.517 518.059 319.072 Q520.281 319.628 522.758 319.628 Q526.763 319.628 529.101 317.521 Q531.439 315.415 531.439 311.804 Q531.439 308.193 529.101 306.086 Q526.763 303.98 522.758 303.98 Q520.883 303.98 519.008 304.396 Q517.156 304.813 515.212 305.693 L515.212 288.332 Z" fill="#000000" fill-rule="nonzero" fill-opacity="1" /><path clip-path="url(#clip700)" d="M555.328 291.41 Q551.716 291.41 549.888 294.975 Q548.082 298.517 548.082 305.646 Q548.082 312.753 549.888 316.318 Q551.716 319.859 555.328 319.859 Q558.962 319.859 560.767 316.318 Q562.596 312.753 562.596 305.646 Q562.596 298.517 560.767 294.975 Q558.962 291.41 555.328 291.41 M555.328 287.707 Q561.138 287.707 564.193 292.313 Q567.272 296.896 567.272 305.646 Q567.272 314.373 564.193 318.98 Q561.138 323.563 555.328 323.563 Q549.517 323.563 546.439 318.98 Q543.383 314.373 543.383 305.646 Q543.383 296.896 546.439 292.313 Q549.517 287.707 555.328 287.707 Z" fill="#000000" fill-rule="nonzero" fill-opacity="1" /><path clip-path="url(#clip700)" d="M582.272 290.693 Q580.42 290.693 579.147 291.989 Q577.874 293.262 577.874 295.114 Q577.874 296.943 579.147 298.216 Q580.42 299.466 582.272 299.466 Q584.124 299.466 585.397 298.216 Q586.67 296.943 586.67 295.114 Q586.67 293.285 585.374 291.989 Q584.101 290.693 582.272 290.693 M582.272 287.707 Q583.753 287.707 585.119 288.285 Q586.485 288.841 587.48 289.906 Q588.545 290.947 589.077 292.267 Q589.61 293.586 589.61 295.114 Q589.61 298.17 587.457 300.299 Q585.327 302.406 582.226 302.406 Q579.101 302.406 577.017 300.322 Q574.934 298.239 574.934 295.114 Q574.934 292.012 577.064 289.859 Q579.193 287.707 582.272 287.707 Z" fill="#000000" fill-rule="nonzero" fill-opacity="1" /><path clip-path="url(#clip700)" d="M635.211 307.244 L635.211 322.892 L630.952 322.892 L630.952 307.383 Q630.952 303.702 629.517 301.873 Q628.082 300.045 625.211 300.045 Q621.762 300.045 619.772 302.244 Q617.781 304.443 617.781 308.239 L617.781 322.892 L613.499 322.892 L613.499 296.966 L617.781 296.966 L617.781 300.994 Q619.309 298.656 621.369 297.498 Q623.452 296.341 626.161 296.341 Q630.628 296.341 632.92 299.119 Q635.211 301.873 635.211 307.244 Z" fill="#000000" fill-rule="nonzero" fill-opacity="1" /><path clip-path="url(#clip700)" d="M653.753 299.952 Q650.327 299.952 648.336 302.637 Q646.346 305.299 646.346 309.952 Q646.346 314.605 648.313 317.29 Q650.304 319.952 653.753 319.952 Q657.156 319.952 659.146 317.267 Q661.137 314.582 661.137 309.952 Q661.137 305.346 659.146 302.66 Q657.156 299.952 653.753 299.952 M653.753 296.341 Q659.309 296.341 662.48 299.952 Q665.651 303.563 665.651 309.952 Q665.651 316.318 662.48 319.952 Q659.309 323.563 653.753 323.563 Q648.174 323.563 645.003 319.952 Q641.855 316.318 641.855 309.952 Q641.855 303.563 645.003 299.952 Q648.174 296.341 653.753 296.341 Z" fill="#000000" fill-rule="nonzero" fill-opacity="1" /><path clip-path="url(#clip700)" d="M672.711 296.966 L676.97 296.966 L676.97 322.892 L672.711 322.892 L672.711 296.966 M672.711 286.873 L676.97 286.873 L676.97 292.267 L672.711 292.267 L672.711 286.873 Z" fill="#000000" fill-rule="nonzero" fill-opacity="1" /><path clip-path="url(#clip700)" d="M702.41 297.73 L702.41 301.758 Q700.605 300.832 698.66 300.369 Q696.716 299.906 694.632 299.906 Q691.461 299.906 689.864 300.878 Q688.29 301.85 688.29 303.795 Q688.29 305.276 689.424 306.133 Q690.558 306.966 693.984 307.73 L695.443 308.054 Q699.98 309.026 701.878 310.808 Q703.799 312.568 703.799 315.739 Q703.799 319.35 700.929 321.457 Q698.081 323.563 693.081 323.563 Q690.998 323.563 688.73 323.146 Q686.484 322.753 683.984 321.943 L683.984 317.545 Q686.345 318.771 688.637 319.396 Q690.929 319.998 693.174 319.998 Q696.183 319.998 697.804 318.98 Q699.424 317.938 699.424 316.063 Q699.424 314.327 698.243 313.401 Q697.086 312.475 693.128 311.619 L691.646 311.271 Q687.688 310.438 685.929 308.725 Q684.169 306.989 684.169 303.98 Q684.169 300.322 686.762 298.332 Q689.355 296.341 694.123 296.341 Q696.484 296.341 698.568 296.688 Q700.651 297.035 702.41 297.73 Z" fill="#000000" fill-rule="nonzero" fill-opacity="1" /><path clip-path="url(#clip700)" d="M721.368 325.299 Q719.563 329.929 717.85 331.341 Q716.137 332.753 713.267 332.753 L709.864 332.753 L709.864 329.188 L712.364 329.188 Q714.123 329.188 715.095 328.355 Q716.067 327.521 717.248 324.419 L718.012 322.475 L707.526 296.966 L712.04 296.966 L720.142 317.244 L728.243 296.966 L732.757 296.966 L721.368 325.299 Z" fill="#000000" fill-rule="nonzero" fill-opacity="1" /><polyline clip-path="url(#clip700)" style="stroke:#009af9; stroke-linecap:round; stroke-linejoin:round; stroke-width:8; stroke-opacity:1; fill:none" points="350.804,357.452 490.475,357.452 "/>
<path clip-path="url(#clip700)" d="M514.425 370.797 L522.064 370.797 L522.064 344.431 L513.754 346.098 L513.754 341.838 L522.018 340.172 L526.693 340.172 L526.693 370.797 L534.332 370.797 L534.332 374.732 L514.425 374.732 L514.425 370.797 Z" fill="#000000" fill-rule="nonzero" fill-opacity="1" /><path clip-path="url(#clip700)" d="M578.429 353.783 Q580.027 350.912 582.249 349.547 Q584.471 348.181 587.48 348.181 Q591.531 348.181 593.73 351.028 Q595.929 353.852 595.929 359.084 L595.929 374.732 L591.647 374.732 L591.647 359.223 Q591.647 355.496 590.327 353.69 Q589.008 351.885 586.3 351.885 Q582.989 351.885 581.068 354.084 Q579.147 356.283 579.147 360.079 L579.147 374.732 L574.865 374.732 L574.865 359.223 Q574.865 355.473 573.545 353.69 Q572.226 351.885 569.471 351.885 Q566.207 351.885 564.286 354.107 Q562.365 356.306 562.365 360.079 L562.365 374.732 L558.082 374.732 L558.082 348.806 L562.365 348.806 L562.365 352.834 Q563.823 350.449 565.86 349.315 Q567.897 348.181 570.698 348.181 Q573.522 348.181 575.49 349.616 Q577.48 351.051 578.429 353.783 Z" fill="#000000" fill-rule="nonzero" fill-opacity="1" /><path clip-path="url(#clip700)" d="M620.952 349.57 L620.952 353.598 Q619.147 352.672 617.202 352.209 Q615.258 351.746 613.174 351.746 Q610.003 351.746 608.406 352.718 Q606.832 353.69 606.832 355.635 Q606.832 357.116 607.966 357.973 Q609.1 358.806 612.526 359.57 L613.985 359.894 Q618.522 360.866 620.42 362.648 Q622.341 364.408 622.341 367.579 Q622.341 371.19 619.471 373.297 Q616.624 375.403 611.624 375.403 Q609.54 375.403 607.272 374.986 Q605.026 374.593 602.526 373.783 L602.526 369.385 Q604.888 370.611 607.179 371.236 Q609.471 371.838 611.716 371.838 Q614.725 371.838 616.346 370.82 Q617.966 369.778 617.966 367.903 Q617.966 366.167 616.786 365.241 Q615.628 364.315 611.67 363.459 L610.188 363.111 Q606.23 362.278 604.471 360.565 Q602.712 358.829 602.712 355.82 Q602.712 352.162 605.304 350.172 Q607.897 348.181 612.665 348.181 Q615.026 348.181 617.11 348.528 Q619.193 348.875 620.952 349.57 Z" fill="#000000" fill-rule="nonzero" fill-opacity="1" /><path clip-path="url(#clip700)" d="M660.721 349.57 L660.721 353.598 Q658.915 352.672 656.971 352.209 Q655.026 351.746 652.943 351.746 Q649.772 351.746 648.174 352.718 Q646.6 353.69 646.6 355.635 Q646.6 357.116 647.734 357.973 Q648.869 358.806 652.295 359.57 L653.753 359.894 Q658.29 360.866 660.188 362.648 Q662.109 364.408 662.109 367.579 Q662.109 371.19 659.239 373.297 Q656.392 375.403 651.392 375.403 Q649.309 375.403 647.04 374.986 Q644.795 374.593 642.295 373.783 L642.295 369.385 Q644.656 370.611 646.947 371.236 Q649.239 371.838 651.484 371.838 Q654.494 371.838 656.114 370.82 Q657.734 369.778 657.734 367.903 Q657.734 366.167 656.554 365.241 Q655.396 364.315 651.438 363.459 L649.957 363.111 Q645.998 362.278 644.239 360.565 Q642.48 358.829 642.48 355.82 Q642.48 352.162 645.072 350.172 Q647.665 348.181 652.434 348.181 Q654.795 348.181 656.878 348.528 Q658.961 348.875 660.721 349.57 Z" fill="#000000" fill-rule="nonzero" fill-opacity="1" /><path clip-path="url(#clip700)" d="M668.892 348.806 L673.151 348.806 L673.151 374.732 L668.892 374.732 L668.892 348.806 M668.892 338.713 L673.151 338.713 L673.151 344.107 L668.892 344.107 L668.892 338.713 Z" fill="#000000" fill-rule="nonzero" fill-opacity="1" /><path clip-path="url(#clip700)" d="M703.614 359.084 L703.614 374.732 L699.355 374.732 L699.355 359.223 Q699.355 355.542 697.919 353.713 Q696.484 351.885 693.614 351.885 Q690.165 351.885 688.174 354.084 Q686.183 356.283 686.183 360.079 L686.183 374.732 L681.901 374.732 L681.901 348.806 L686.183 348.806 L686.183 352.834 Q687.711 350.496 689.771 349.338 Q691.855 348.181 694.563 348.181 Q699.031 348.181 701.322 350.959 Q703.614 353.713 703.614 359.084 Z" fill="#000000" fill-rule="nonzero" fill-opacity="1" /><path clip-path="url(#clip700)" d="M730.766 349.801 L730.766 353.783 Q728.961 352.787 727.132 352.301 Q725.327 351.792 723.475 351.792 Q719.331 351.792 717.04 354.431 Q714.748 357.047 714.748 361.792 Q714.748 366.537 717.04 369.176 Q719.331 371.792 723.475 371.792 Q725.327 371.792 727.132 371.306 Q728.961 370.797 730.766 369.801 L730.766 373.736 Q728.984 374.57 727.063 374.986 Q725.165 375.403 723.012 375.403 Q717.155 375.403 713.706 371.722 Q710.257 368.042 710.257 361.792 Q710.257 355.449 713.73 351.815 Q717.225 348.181 723.29 348.181 Q725.257 348.181 727.132 348.598 Q729.007 348.991 730.766 349.801 Z" fill="#000000" fill-rule="nonzero" fill-opacity="1" /><path clip-path="url(#clip700)" d="M769.817 358.528 Q771.322 359.037 772.734 360.704 Q774.169 362.371 775.604 365.287 L780.35 374.732 L775.326 374.732 L770.905 365.866 Q769.192 362.394 767.572 361.26 Q765.975 360.125 763.197 360.125 L758.104 360.125 L758.104 374.732 L753.428 374.732 L753.428 340.172 L763.984 340.172 Q769.91 340.172 772.826 342.649 Q775.743 345.125 775.743 350.125 Q775.743 353.389 774.215 355.542 Q772.711 357.695 769.817 358.528 M758.104 344.014 L758.104 356.283 L763.984 356.283 Q767.363 356.283 769.076 354.732 Q770.813 353.158 770.813 350.125 Q770.813 347.093 769.076 345.565 Q767.363 344.014 763.984 344.014 L758.104 344.014 Z" fill="#000000" fill-rule="nonzero" fill-opacity="1" /><path clip-path="url(#clip700)" d="M786.368 340.172 L806.229 340.172 L806.229 344.107 L791.044 344.107 L791.044 354.292 L804.748 354.292 L804.748 358.227 L791.044 358.227 L791.044 374.732 L786.368 374.732 L786.368 340.172 Z" fill="#000000" fill-rule="nonzero" fill-opacity="1" /><polyline clip-path="url(#clip700)" style="stroke:#e26f46; stroke-linecap:round; stroke-linejoin:round; stroke-width:8; stroke-opacity:1; fill:none" points="350.804,409.292 490.475,409.292 "/>
<path clip-path="url(#clip700)" d="M514.425 422.637 L522.064 422.637 L522.064 396.271 L513.754 397.938 L513.754 393.678 L522.018 392.012 L526.693 392.012 L526.693 422.637 L534.332 422.637 L534.332 426.572 L514.425 426.572 L514.425 422.637 Z" fill="#000000" fill-rule="nonzero" fill-opacity="1" /><path clip-path="url(#clip700)" d="M578.429 405.623 Q580.027 402.752 582.249 401.387 Q584.471 400.021 587.48 400.021 Q591.531 400.021 593.73 402.868 Q595.929 405.692 595.929 410.924 L595.929 426.572 L591.647 426.572 L591.647 411.063 Q591.647 407.336 590.327 405.53 Q589.008 403.725 586.3 403.725 Q582.989 403.725 581.068 405.924 Q579.147 408.123 579.147 411.919 L579.147 426.572 L574.865 426.572 L574.865 411.063 Q574.865 407.313 573.545 405.53 Q572.226 403.725 569.471 403.725 Q566.207 403.725 564.286 405.947 Q562.365 408.146 562.365 411.919 L562.365 426.572 L558.082 426.572 L558.082 400.646 L562.365 400.646 L562.365 404.674 Q563.823 402.289 565.86 401.155 Q567.897 400.021 570.698 400.021 Q573.522 400.021 575.49 401.456 Q577.48 402.891 578.429 405.623 Z" fill="#000000" fill-rule="nonzero" fill-opacity="1" /><path clip-path="url(#clip700)" d="M620.952 401.41 L620.952 405.438 Q619.147 404.512 617.202 404.049 Q615.258 403.586 613.174 403.586 Q610.003 403.586 608.406 404.558 Q606.832 405.53 606.832 407.475 Q606.832 408.956 607.966 409.813 Q609.1 410.646 612.526 411.41 L613.985 411.734 Q618.522 412.706 620.42 414.488 Q622.341 416.248 622.341 419.419 Q622.341 423.03 619.471 425.137 Q616.624 427.243 611.624 427.243 Q609.54 427.243 607.272 426.826 Q605.026 426.433 602.526 425.623 L602.526 421.225 Q604.888 422.451 607.179 423.076 Q609.471 423.678 611.716 423.678 Q614.725 423.678 616.346 422.66 Q617.966 421.618 617.966 419.743 Q617.966 418.007 616.786 417.081 Q615.628 416.155 611.67 415.299 L610.188 414.951 Q606.23 414.118 604.471 412.405 Q602.712 410.669 602.712 407.66 Q602.712 404.002 605.304 402.012 Q607.897 400.021 612.665 400.021 Q615.026 400.021 617.11 400.368 Q619.193 400.715 620.952 401.41 Z" fill="#000000" fill-rule="nonzero" fill-opacity="1" /><path clip-path="url(#clip700)" d="M660.721 401.41 L660.721 405.438 Q658.915 404.512 656.971 404.049 Q655.026 403.586 652.943 403.586 Q649.772 403.586 648.174 404.558 Q646.6 405.53 646.6 407.475 Q646.6 408.956 647.734 409.813 Q648.869 410.646 652.295 411.41 L653.753 411.734 Q658.29 412.706 660.188 414.488 Q662.109 416.248 662.109 419.419 Q662.109 423.03 659.239 425.137 Q656.392 427.243 651.392 427.243 Q649.309 427.243 647.04 426.826 Q644.795 426.433 642.295 425.623 L642.295 421.225 Q644.656 422.451 646.947 423.076 Q649.239 423.678 651.484 423.678 Q654.494 423.678 656.114 422.66 Q657.734 421.618 657.734 419.743 Q657.734 418.007 656.554 417.081 Q655.396 416.155 651.438 415.299 L649.957 414.951 Q645.998 414.118 644.239 412.405 Q642.48 410.669 642.48 407.66 Q642.48 404.002 645.072 402.012 Q647.665 400.021 652.434 400.021 Q654.795 400.021 656.878 400.368 Q658.961 400.715 660.721 401.41 Z" fill="#000000" fill-rule="nonzero" fill-opacity="1" /><path clip-path="url(#clip700)" d="M668.892 400.646 L673.151 400.646 L673.151 426.572 L668.892 426.572 L668.892 400.646 M668.892 390.553 L673.151 390.553 L673.151 395.947 L668.892 395.947 L668.892 390.553 Z" fill="#000000" fill-rule="nonzero" fill-opacity="1" /><path clip-path="url(#clip700)" d="M703.614 410.924 L703.614 426.572 L699.355 426.572 L699.355 411.063 Q699.355 407.382 697.919 405.553 Q696.484 403.725 693.614 403.725 Q690.165 403.725 688.174 405.924 Q686.183 408.123 686.183 411.919 L686.183 426.572 L681.901 426.572 L681.901 400.646 L686.183 400.646 L686.183 404.674 Q687.711 402.336 689.771 401.178 Q691.855 400.021 694.563 400.021 Q699.031 400.021 701.322 402.799 Q703.614 405.553 703.614 410.924 Z" fill="#000000" fill-rule="nonzero" fill-opacity="1" /><path clip-path="url(#clip700)" d="M730.766 401.641 L730.766 405.623 Q728.961 404.627 727.132 404.141 Q725.327 403.632 723.475 403.632 Q719.331 403.632 717.04 406.271 Q714.748 408.887 714.748 413.632 Q714.748 418.377 717.04 421.016 Q719.331 423.632 723.475 423.632 Q725.327 423.632 727.132 423.146 Q728.961 422.637 730.766 421.641 L730.766 425.576 Q728.984 426.41 727.063 426.826 Q725.165 427.243 723.012 427.243 Q717.155 427.243 713.706 423.562 Q710.257 419.882 710.257 413.632 Q710.257 407.289 713.73 403.655 Q717.225 400.021 723.29 400.021 Q725.257 400.021 727.132 400.438 Q729.007 400.831 730.766 401.641 Z" fill="#000000" fill-rule="nonzero" fill-opacity="1" /><path clip-path="url(#clip700)" d="M769.817 410.368 Q771.322 410.877 772.734 412.544 Q774.169 414.211 775.604 417.127 L780.35 426.572 L775.326 426.572 L770.905 417.706 Q769.192 414.234 767.572 413.1 Q765.975 411.965 763.197 411.965 L758.104 411.965 L758.104 426.572 L753.428 426.572 L753.428 392.012 L763.984 392.012 Q769.91 392.012 772.826 394.489 Q775.743 396.965 775.743 401.965 Q775.743 405.229 774.215 407.382 Q772.711 409.535 769.817 410.368 M758.104 395.854 L758.104 408.123 L763.984 408.123 Q767.363 408.123 769.076 406.572 Q770.813 404.998 770.813 401.965 Q770.813 398.933 769.076 397.405 Q767.363 395.854 763.984 395.854 L758.104 395.854 Z" fill="#000000" fill-rule="nonzero" fill-opacity="1" /><path clip-path="url(#clip700)" d="M786.368 392.012 L806.229 392.012 L806.229 395.947 L791.044 395.947 L791.044 406.132 L804.748 406.132 L804.748 410.067 L791.044 410.067 L791.044 426.572 L786.368 426.572 L786.368 392.012 Z" fill="#000000" fill-rule="nonzero" fill-opacity="1" /><polyline clip-path="url(#clip700)" style="stroke:#3da44d; stroke-linecap:round; stroke-linejoin:round; stroke-width:8; stroke-opacity:1; fill:none" points="350.804,461.132 490.475,461.132 "/>
<path clip-path="url(#clip700)" d="M514.425 474.477 L522.064 474.477 L522.064 448.111 L513.754 449.778 L513.754 445.518 L522.018 443.852 L526.693 443.852 L526.693 474.477 L534.332 474.477 L534.332 478.412 L514.425 478.412 L514.425 474.477 Z" fill="#000000" fill-rule="nonzero" fill-opacity="1" /><path clip-path="url(#clip700)" d="M578.429 457.463 Q580.027 454.592 582.249 453.227 Q584.471 451.861 587.48 451.861 Q591.531 451.861 593.73 454.708 Q595.929 457.532 595.929 462.764 L595.929 478.412 L591.647 478.412 L591.647 462.903 Q591.647 459.176 590.327 457.37 Q589.008 455.565 586.3 455.565 Q582.989 455.565 581.068 457.764 Q579.147 459.963 579.147 463.759 L579.147 478.412 L574.865 478.412 L574.865 462.903 Q574.865 459.153 573.545 457.37 Q572.226 455.565 569.471 455.565 Q566.207 455.565 564.286 457.787 Q562.365 459.986 562.365 463.759 L562.365 478.412 L558.082 478.412 L558.082 452.486 L562.365 452.486 L562.365 456.514 Q563.823 454.129 565.86 452.995 Q567.897 451.861 570.698 451.861 Q573.522 451.861 575.49 453.296 Q577.48 454.731 578.429 457.463 Z" fill="#000000" fill-rule="nonzero" fill-opacity="1" /><path clip-path="url(#clip700)" d="M620.952 453.25 L620.952 457.278 Q619.147 456.352 617.202 455.889 Q615.258 455.426 613.174 455.426 Q610.003 455.426 608.406 456.398 Q606.832 457.37 606.832 459.315 Q606.832 460.796 607.966 461.653 Q609.1 462.486 612.526 463.25 L613.985 463.574 Q618.522 464.546 620.42 466.328 Q622.341 468.088 622.341 471.259 Q622.341 474.87 619.471 476.977 Q616.624 479.083 611.624 479.083 Q609.54 479.083 607.272 478.666 Q605.026 478.273 602.526 477.463 L602.526 473.065 Q604.888 474.291 607.179 474.916 Q609.471 475.518 611.716 475.518 Q614.725 475.518 616.346 474.5 Q617.966 473.458 617.966 471.583 Q617.966 469.847 616.786 468.921 Q615.628 467.995 611.67 467.139 L610.188 466.791 Q606.23 465.958 604.471 464.245 Q602.712 462.509 602.712 459.5 Q602.712 455.842 605.304 453.852 Q607.897 451.861 612.665 451.861 Q615.026 451.861 617.11 452.208 Q619.193 452.555 620.952 453.25 Z" fill="#000000" fill-rule="nonzero" fill-opacity="1" /><path clip-path="url(#clip700)" d="M660.721 453.25 L660.721 457.278 Q658.915 456.352 656.971 455.889 Q655.026 455.426 652.943 455.426 Q649.772 455.426 648.174 456.398 Q646.6 457.37 646.6 459.315 Q646.6 460.796 647.734 461.653 Q648.869 462.486 652.295 463.25 L653.753 463.574 Q658.29 464.546 660.188 466.328 Q662.109 468.088 662.109 471.259 Q662.109 474.87 659.239 476.977 Q656.392 479.083 651.392 479.083 Q649.309 479.083 647.04 478.666 Q644.795 478.273 642.295 477.463 L642.295 473.065 Q644.656 474.291 646.947 474.916 Q649.239 475.518 651.484 475.518 Q654.494 475.518 656.114 474.5 Q657.734 473.458 657.734 471.583 Q657.734 469.847 656.554 468.921 Q655.396 467.995 651.438 467.139 L649.957 466.791 Q645.998 465.958 644.239 464.245 Q642.48 462.509 642.48 459.5 Q642.48 455.842 645.072 453.852 Q647.665 451.861 652.434 451.861 Q654.795 451.861 656.878 452.208 Q658.961 452.555 660.721 453.25 Z" fill="#000000" fill-rule="nonzero" fill-opacity="1" /><path clip-path="url(#clip700)" d="M668.892 452.486 L673.151 452.486 L673.151 478.412 L668.892 478.412 L668.892 452.486 M668.892 442.393 L673.151 442.393 L673.151 447.787 L668.892 447.787 L668.892 442.393 Z" fill="#000000" fill-rule="nonzero" fill-opacity="1" /><path clip-path="url(#clip700)" d="M703.614 462.764 L703.614 478.412 L699.355 478.412 L699.355 462.903 Q699.355 459.222 697.919 457.393 Q696.484 455.565 693.614 455.565 Q690.165 455.565 688.174 457.764 Q686.183 459.963 686.183 463.759 L686.183 478.412 L681.901 478.412 L681.901 452.486 L686.183 452.486 L686.183 456.514 Q687.711 454.176 689.771 453.018 Q691.855 451.861 694.563 451.861 Q699.031 451.861 701.322 454.639 Q703.614 457.393 703.614 462.764 Z" fill="#000000" fill-rule="nonzero" fill-opacity="1" /><path clip-path="url(#clip700)" d="M730.766 453.481 L730.766 457.463 Q728.961 456.467 727.132 455.981 Q725.327 455.472 723.475 455.472 Q719.331 455.472 717.04 458.111 Q714.748 460.727 714.748 465.472 Q714.748 470.217 717.04 472.856 Q719.331 475.472 723.475 475.472 Q725.327 475.472 727.132 474.986 Q728.961 474.477 730.766 473.481 L730.766 477.416 Q728.984 478.25 727.063 478.666 Q725.165 479.083 723.012 479.083 Q717.155 479.083 713.706 475.402 Q710.257 471.722 710.257 465.472 Q710.257 459.129 713.73 455.495 Q717.225 451.861 723.29 451.861 Q725.257 451.861 727.132 452.278 Q729.007 452.671 730.766 453.481 Z" fill="#000000" fill-rule="nonzero" fill-opacity="1" /><path clip-path="url(#clip700)" d="M769.817 462.208 Q771.322 462.717 772.734 464.384 Q774.169 466.051 775.604 468.967 L780.35 478.412 L775.326 478.412 L770.905 469.546 Q769.192 466.074 767.572 464.94 Q765.975 463.805 763.197 463.805 L758.104 463.805 L758.104 478.412 L753.428 478.412 L753.428 443.852 L763.984 443.852 Q769.91 443.852 772.826 446.329 Q775.743 448.805 775.743 453.805 Q775.743 457.069 774.215 459.222 Q772.711 461.375 769.817 462.208 M758.104 447.694 L758.104 459.963 L763.984 459.963 Q767.363 459.963 769.076 458.412 Q770.813 456.838 770.813 453.805 Q770.813 450.773 769.076 449.245 Q767.363 447.694 763.984 447.694 L758.104 447.694 Z" fill="#000000" fill-rule="nonzero" fill-opacity="1" /><path clip-path="url(#clip700)" d="M786.368 443.852 L806.229 443.852 L806.229 447.787 L791.044 447.787 L791.044 457.972 L804.748 457.972 L804.748 461.907 L791.044 461.907 L791.044 478.412 L786.368 478.412 L786.368 443.852 Z" fill="#000000" fill-rule="nonzero" fill-opacity="1" /><polyline clip-path="url(#clip700)" style="stroke:#000000; stroke-linecap:round; stroke-linejoin:round; stroke-width:8; stroke-opacity:1; fill:none" stroke-dasharray="32, 20" points="350.804,512.972 490.475,512.972 "/>
<path clip-path="url(#clip700)" d="M525.698 498.77 Q522.087 498.77 520.258 502.335 Q518.453 505.877 518.453 513.006 Q518.453 520.113 520.258 523.678 Q522.087 527.219 525.698 527.219 Q529.332 527.219 531.138 523.678 Q532.967 520.113 532.967 513.006 Q532.967 505.877 531.138 502.335 Q529.332 498.77 525.698 498.77 M525.698 495.067 Q531.508 495.067 534.564 499.673 Q537.642 504.256 537.642 513.006 Q537.642 521.733 534.564 526.34 Q531.508 530.923 525.698 530.923 Q519.888 530.923 516.809 526.34 Q513.754 521.733 513.754 513.006 Q513.754 504.256 516.809 499.673 Q519.888 495.067 525.698 495.067 Z" fill="#000000" fill-rule="nonzero" fill-opacity="1" /><path clip-path="url(#clip700)" d="M580.513 509.303 Q582.11 506.432 584.332 505.067 Q586.554 503.701 589.564 503.701 Q593.614 503.701 595.813 506.548 Q598.013 509.372 598.013 514.604 L598.013 530.252 L593.73 530.252 L593.73 514.743 Q593.73 511.016 592.411 509.21 Q591.091 507.405 588.383 507.405 Q585.073 507.405 583.152 509.604 Q581.23 511.803 581.23 515.599 L581.23 530.252 L576.948 530.252 L576.948 514.743 Q576.948 510.993 575.628 509.21 Q574.309 507.405 571.554 507.405 Q568.29 507.405 566.369 509.627 Q564.448 511.826 564.448 515.599 L564.448 530.252 L560.166 530.252 L560.166 504.326 L564.448 504.326 L564.448 508.354 Q565.906 505.969 567.943 504.835 Q569.98 503.701 572.781 503.701 Q575.605 503.701 577.573 505.136 Q579.564 506.571 580.513 509.303 Z" fill="#000000" fill-rule="nonzero" fill-opacity="1" /><path clip-path="url(#clip700)" d="M623.036 505.09 L623.036 509.118 Q621.23 508.192 619.286 507.729 Q617.341 507.266 615.258 507.266 Q612.087 507.266 610.489 508.238 Q608.915 509.21 608.915 511.155 Q608.915 512.636 610.05 513.493 Q611.184 514.326 614.61 515.09 L616.068 515.414 Q620.605 516.386 622.503 518.168 Q624.424 519.928 624.424 523.099 Q624.424 526.71 621.554 528.817 Q618.707 530.923 613.707 530.923 Q611.624 530.923 609.355 530.506 Q607.11 530.113 604.61 529.303 L604.61 524.905 Q606.971 526.131 609.262 526.756 Q611.554 527.358 613.799 527.358 Q616.809 527.358 618.429 526.34 Q620.049 525.298 620.049 523.423 Q620.049 521.687 618.869 520.761 Q617.712 519.835 613.753 518.979 L612.272 518.631 Q608.313 517.798 606.554 516.085 Q604.795 514.349 604.795 511.34 Q604.795 507.682 607.387 505.692 Q609.98 503.701 614.749 503.701 Q617.11 503.701 619.193 504.048 Q621.276 504.395 623.036 505.09 Z" fill="#000000" fill-rule="nonzero" fill-opacity="1" /><path clip-path="url(#clip700)" d="M662.85 514.048 Q664.355 514.557 665.767 516.224 Q667.202 517.891 668.637 520.807 L673.383 530.252 L668.359 530.252 L663.938 521.386 Q662.225 517.914 660.605 516.78 Q659.008 515.645 656.23 515.645 L651.137 515.645 L651.137 530.252 L646.461 530.252 L646.461 495.692 L657.017 495.692 Q662.943 495.692 665.859 498.169 Q668.776 500.645 668.776 505.645 Q668.776 508.909 667.248 511.062 Q665.744 513.215 662.85 514.048 M651.137 499.534 L651.137 511.803 L657.017 511.803 Q660.396 511.803 662.109 510.252 Q663.846 508.678 663.846 505.645 Q663.846 502.613 662.109 501.085 Q660.396 499.534 657.017 499.534 L651.137 499.534 Z" fill="#000000" fill-rule="nonzero" fill-opacity="1" /><path clip-path="url(#clip700)" d="M679.401 495.692 L699.262 495.692 L699.262 499.627 L684.077 499.627 L684.077 509.812 L697.781 509.812 L697.781 513.747 L684.077 513.747 L684.077 530.252 L679.401 530.252 L679.401 495.692 Z" fill="#000000" fill-rule="nonzero" fill-opacity="1" /></svg>
