<?xml version="1.0" encoding="utf-8"?>
<svg xmlns="http://www.w3.org/2000/svg" xmlns:xlink="http://www.w3.org/1999/xlink" width="600" height="400" viewBox="0 0 2400 1600">
<defs>
  <clipPath id="clip760">
    <rect x="0" y="0" width="2400" height="1600"/>
  </clipPath>
</defs>
<path clip-path="url(#clip760)" d="M0 1600 L2400 1600 L2400 0 L0 0  Z" fill="#ffffff" fill-rule="evenodd" fill-opacity="1"/>
<defs>
  <clipPath id="clip761">
    <rect x="287" y="119" width="2066" height="1305"/>
  </clipPath>
</defs>
<path clip-path="url(#clip760)" d="M287.852 1423.18 L2352.76 1423.18 L2352.76 119.152 L287.852 119.152  Z" fill="#ffffff" fill-rule="evenodd" fill-opacity="1"/>
<polyline clip-path="url(#clip761)" style="stroke:#000000; stroke-linecap:round; stroke-linejoin:round; stroke-width:2; stroke-opacity:0.1; fill:none" points="287.852,1423.18 287.852,119.152 "/>
<polyline clip-path="url(#clip761)" style="stroke:#000000; stroke-linecap:round; stroke-linejoin:round; stroke-width:2; stroke-opacity:0.1; fill:none" points="1320.3,1423.18 1320.3,119.152 "/>
<polyline clip-path="url(#clip761)" style="stroke:#000000; stroke-linecap:round; stroke-linejoin:round; stroke-width:2; stroke-opacity:0.1; fill:none" points="2352.76,1423.18 2352.76,119.152 "/>
<polyline clip-path="url(#clip761)" style="stroke:#000000; stroke-linecap:round; stroke-linejoin:round; stroke-width:2; stroke-opacity:0.1; fill:none" points="287.852,1423.18 2352.76,1423.18 "/>
<polyline clip-path="url(#clip761)" style="stroke:#000000; stroke-linecap:round; stroke-linejoin:round; stroke-width:2; stroke-opacity:0.1; fill:none" points="287.852,771.166 2352.76,771.166 "/>
<polyline clip-path="url(#clip761)" style="stroke:#000000; stroke-linecap:round; stroke-linejoin:round; stroke-width:2; stroke-opacity:0.1; fill:none" points="287.852,119.152 2352.76,119.152 "/>
<polyline clip-path="url(#clip760)" style="stroke:#000000; stroke-linecap:round; stroke-linejoin:round; stroke-width:4; stroke-opacity:1; fill:none" points="287.852,1423.18 2352.76,1423.18 "/>
<polyline clip-path="url(#clip760)" style="stroke:#000000; stroke-linecap:round; stroke-linejoin:round; stroke-width:4; stroke-opacity:1; fill:none" points="287.852,1423.18 287.852,1404.28 "/>
<polyline clip-path="url(#clip760)" style="stroke:#000000; stroke-linecap:round; stroke-linejoin:round; stroke-width:4; stroke-opacity:1; fill:none" points="1320.3,1423.18 1320.3,1404.28 "/>
<polyline clip-path="url(#clip760)" style="stroke:#000000; stroke-linecap:round; stroke-linejoin:round; stroke-width:4; stroke-opacity:1; fill:none" points="2352.76,1423.18 2352.76,1404.28 "/>
<path clip-path="url(#clip760)" d="M230.41 1470.7 L242.887 1470.7 L242.887 1474.49 L230.41 1474.49 L230.41 1470.7 Z" fill="#000000" fill-rule="nonzero" fill-opacity="1" /><path clip-path="url(#clip760)" d="M251.081 1481.64 L258.72 1481.64 L258.72 1455.28 L250.41 1456.95 L250.41 1452.69 L258.674 1451.02 L263.35 1451.02 L263.35 1481.64 L270.989 1481.64 L270.989 1485.58 L251.081 1485.58 L251.081 1481.64 Z" fill="#000000" fill-rule="nonzero" fill-opacity="1" /><path clip-path="url(#clip760)" d="M277.077 1459.65 L301.914 1459.65 L301.914 1463.91 L298.651 1463.91 L298.651 1479.84 Q298.651 1481.51 299.206 1482.25 Q299.785 1482.96 301.058 1482.96 Q301.405 1482.96 301.914 1482.92 Q302.424 1482.85 302.586 1482.83 L302.586 1485.9 Q301.776 1486.2 300.919 1486.34 Q300.063 1486.48 299.206 1486.48 Q296.428 1486.48 295.364 1484.98 Q294.299 1483.45 294.299 1479.38 L294.299 1463.91 L284.739 1463.91 L284.739 1485.58 L280.387 1485.58 L280.387 1463.91 L277.077 1463.91 L277.077 1459.65 Z" fill="#000000" fill-rule="nonzero" fill-opacity="1" /><path clip-path="url(#clip760)" d="M315.942 1451.02 L319.877 1451.02 L307.84 1489.98 L303.905 1489.98 L315.942 1451.02 Z" fill="#000000" fill-rule="nonzero" fill-opacity="1" /><path clip-path="url(#clip760)" d="M328.974 1481.64 L345.294 1481.64 L345.294 1485.58 L323.35 1485.58 L323.35 1481.64 Q326.012 1478.89 330.595 1474.26 Q335.201 1469.61 336.382 1468.27 Q338.627 1465.74 339.507 1464.01 Q340.41 1462.25 340.41 1460.56 Q340.41 1457.8 338.465 1456.07 Q336.544 1454.33 333.442 1454.33 Q331.243 1454.33 328.789 1455.09 Q326.359 1455.86 323.581 1457.41 L323.581 1452.69 Q326.405 1451.55 328.859 1450.97 Q331.312 1450.39 333.349 1450.39 Q338.72 1450.39 341.914 1453.08 Q345.109 1455.77 345.109 1460.26 Q345.109 1462.39 344.298 1464.31 Q343.511 1466.2 341.405 1468.8 Q340.826 1469.47 337.724 1472.69 Q334.623 1475.88 328.974 1481.64 Z" fill="#000000" fill-rule="nonzero" fill-opacity="1" /><path clip-path="url(#clip760)" d="M1283.76 1454.1 Q1280.15 1454.1 1278.33 1457.66 Q1276.52 1461.2 1276.52 1468.33 Q1276.52 1475.44 1278.33 1479.01 Q1280.15 1482.55 1283.76 1482.55 Q1287.4 1482.55 1289.2 1479.01 Q1291.03 1475.44 1291.03 1468.33 Q1291.03 1461.2 1289.2 1457.66 Q1287.4 1454.1 1283.76 1454.1 M1283.76 1450.39 Q1289.57 1450.39 1292.63 1455 Q1295.71 1459.58 1295.71 1468.33 Q1295.71 1477.06 1292.63 1481.67 Q1289.57 1486.25 1283.76 1486.25 Q1277.95 1486.25 1274.88 1481.67 Q1271.82 1477.06 1271.82 1468.33 Q1271.82 1459.58 1274.88 1455 Q1277.95 1450.39 1283.76 1450.39 Z" fill="#000000" fill-rule="nonzero" fill-opacity="1" /><path clip-path="url(#clip760)" d="M1300.57 1459.65 L1325.41 1459.65 L1325.41 1463.91 L1322.14 1463.91 L1322.14 1479.84 Q1322.14 1481.51 1322.7 1482.25 Q1323.28 1482.96 1324.55 1482.96 Q1324.9 1482.96 1325.41 1482.92 Q1325.92 1482.85 1326.08 1482.83 L1326.08 1485.9 Q1325.27 1486.2 1324.41 1486.34 Q1323.56 1486.48 1322.7 1486.48 Q1319.92 1486.48 1318.86 1484.98 Q1317.79 1483.45 1317.79 1479.38 L1317.79 1463.91 L1308.23 1463.91 L1308.23 1485.58 L1303.88 1485.58 L1303.88 1463.91 L1300.57 1463.91 L1300.57 1459.65 Z" fill="#000000" fill-rule="nonzero" fill-opacity="1" /><path clip-path="url(#clip760)" d="M1339.44 1451.02 L1343.37 1451.02 L1331.33 1489.98 L1327.4 1489.98 L1339.44 1451.02 Z" fill="#000000" fill-rule="nonzero" fill-opacity="1" /><path clip-path="url(#clip760)" d="M1352.47 1481.64 L1368.79 1481.64 L1368.79 1485.58 L1346.84 1485.58 L1346.84 1481.64 Q1349.51 1478.89 1354.09 1474.26 Q1358.69 1469.61 1359.88 1468.27 Q1362.12 1465.74 1363 1464.01 Q1363.9 1462.25 1363.9 1460.56 Q1363.9 1457.8 1361.96 1456.07 Q1360.04 1454.33 1356.94 1454.33 Q1354.74 1454.33 1352.28 1455.09 Q1349.85 1455.86 1347.07 1457.41 L1347.07 1452.69 Q1349.9 1451.55 1352.35 1450.97 Q1354.81 1450.39 1356.84 1450.39 Q1362.21 1450.39 1365.41 1453.08 Q1368.6 1455.77 1368.6 1460.26 Q1368.6 1462.39 1367.79 1464.31 Q1367.01 1466.2 1364.9 1468.8 Q1364.32 1469.47 1361.22 1472.69 Q1358.12 1475.88 1352.47 1481.64 Z" fill="#000000" fill-rule="nonzero" fill-opacity="1" /><path clip-path="url(#clip760)" d="M2305.99 1481.64 L2313.62 1481.64 L2313.62 1455.28 L2305.31 1456.95 L2305.31 1452.69 L2313.58 1451.02 L2318.25 1451.02 L2318.25 1481.64 L2325.89 1481.64 L2325.89 1485.58 L2305.99 1485.58 L2305.99 1481.64 Z" fill="#000000" fill-rule="nonzero" fill-opacity="1" /><path clip-path="url(#clip760)" d="M2331.98 1459.65 L2356.82 1459.65 L2356.82 1463.91 L2353.55 1463.91 L2353.55 1479.84 Q2353.55 1481.51 2354.11 1482.25 Q2354.69 1482.96 2355.96 1482.96 Q2356.31 1482.96 2356.82 1482.92 Q2357.33 1482.85 2357.49 1482.83 L2357.49 1485.9 Q2356.68 1486.2 2355.82 1486.34 Q2354.97 1486.48 2354.11 1486.48 Q2351.33 1486.48 2350.27 1484.98 Q2349.2 1483.45 2349.2 1479.38 L2349.2 1463.91 L2339.64 1463.91 L2339.64 1485.58 L2335.29 1485.58 L2335.29 1463.91 L2331.98 1463.91 L2331.98 1459.65 Z" fill="#000000" fill-rule="nonzero" fill-opacity="1" /><path clip-path="url(#clip760)" d="M2370.85 1451.02 L2374.78 1451.02 L2362.74 1489.98 L2358.81 1489.98 L2370.85 1451.02 Z" fill="#000000" fill-rule="nonzero" fill-opacity="1" /><path clip-path="url(#clip760)" d="M2383.88 1481.64 L2400.2 1481.64 L2400.2 1485.58 L2378.25 1485.58 L2378.25 1481.64 Q2380.92 1478.89 2385.5 1474.26 Q2390.11 1469.61 2391.29 1468.27 Q2393.53 1465.74 2394.41 1464.01 Q2395.31 1462.25 2395.31 1460.56 Q2395.31 1457.8 2393.37 1456.07 Q2391.45 1454.33 2388.35 1454.33 Q2386.15 1454.33 2383.69 1455.09 Q2381.26 1455.86 2378.48 1457.41 L2378.48 1452.69 Q2381.31 1451.55 2383.76 1450.97 Q2386.22 1450.39 2388.25 1450.39 Q2393.62 1450.39 2396.82 1453.08 Q2400.01 1455.77 2400.01 1460.26 Q2400.01 1462.39 2399.2 1464.31 Q2398.42 1466.2 2396.31 1468.8 Q2395.73 1469.47 2392.63 1472.69 Q2389.53 1475.88 2383.88 1481.64 Z" fill="#000000" fill-rule="nonzero" fill-opacity="1" /><path clip-path="url(#clip760)" d="M922.479 1533.45 L922.479 1538.98 Q919.996 1537.71 917.323 1537.07 Q914.649 1536.44 911.785 1536.44 Q907.424 1536.44 905.228 1537.77 Q903.064 1539.11 903.064 1541.79 Q903.064 1543.82 904.623 1545 Q906.183 1546.15 910.894 1547.2 L912.899 1547.64 Q919.137 1548.98 921.747 1551.43 Q924.389 1553.85 924.389 1558.21 Q924.389 1563.17 920.442 1566.07 Q916.527 1568.97 909.652 1568.97 Q906.788 1568.97 903.668 1568.39 Q900.581 1567.85 897.144 1566.74 L897.144 1560.69 Q900.39 1562.38 903.541 1563.24 Q906.692 1564.07 909.78 1564.07 Q913.917 1564.07 916.145 1562.66 Q918.373 1561.23 918.373 1558.65 Q918.373 1556.27 916.75 1554.99 Q915.159 1553.72 909.716 1552.54 L907.679 1552.07 Q902.236 1550.92 899.817 1548.56 Q897.398 1546.18 897.398 1542.04 Q897.398 1537.01 900.963 1534.27 Q904.528 1531.54 911.085 1531.54 Q914.331 1531.54 917.196 1532.01 Q920.06 1532.49 922.479 1533.45 Z" fill="#000000" fill-rule="nonzero" fill-opacity="1" /><path clip-path="url(#clip760)" d="M939.38 1562.7 L939.38 1581.6 L933.492 1581.6 L933.492 1532.4 L939.38 1532.4 L939.38 1537.81 Q941.226 1534.62 944.027 1533.1 Q946.86 1531.54 950.775 1531.54 Q957.268 1531.54 961.31 1536.69 Q965.384 1541.85 965.384 1550.25 Q965.384 1558.65 961.31 1563.81 Q957.268 1568.97 950.775 1568.97 Q946.86 1568.97 944.027 1567.44 Q941.226 1565.88 939.38 1562.7 M959.305 1550.25 Q959.305 1543.79 956.631 1540.13 Q953.989 1536.44 949.342 1536.44 Q944.695 1536.44 942.022 1540.13 Q939.38 1543.79 939.38 1550.25 Q939.38 1556.71 942.022 1560.4 Q944.695 1564.07 949.342 1564.07 Q953.989 1564.07 956.631 1560.4 Q959.305 1556.71 959.305 1550.25 Z" fill="#000000" fill-rule="nonzero" fill-opacity="1" /><path clip-path="url(#clip760)" d="M975.092 1532.4 L980.948 1532.4 L980.948 1568.04 L975.092 1568.04 L975.092 1532.4 M975.092 1518.52 L980.948 1518.52 L980.948 1525.93 L975.092 1525.93 L975.092 1518.52 Z" fill="#000000" fill-rule="nonzero" fill-opacity="1" /><path clip-path="url(#clip760)" d="M1022.83 1546.53 L1022.83 1568.04 L1016.98 1568.04 L1016.98 1546.72 Q1016.98 1541.66 1015 1539.14 Q1013.03 1536.63 1009.08 1536.63 Q1004.34 1536.63 1001.6 1539.65 Q998.868 1542.68 998.868 1547.9 L998.868 1568.04 L992.979 1568.04 L992.979 1532.4 L998.868 1532.4 L998.868 1537.93 Q1000.97 1534.72 1003.8 1533.13 Q1006.67 1531.54 1010.39 1531.54 Q1016.53 1531.54 1019.68 1535.36 Q1022.83 1539.14 1022.83 1546.53 Z" fill="#000000" fill-rule="nonzero" fill-opacity="1" /><path clip-path="url(#clip760)" d="M1060.9 1562.7 L1060.9 1581.6 L1055.01 1581.6 L1055.01 1532.4 L1060.9 1532.4 L1060.9 1537.81 Q1062.75 1534.62 1065.55 1533.1 Q1068.38 1531.54 1072.3 1531.54 Q1078.79 1531.54 1082.83 1536.69 Q1086.91 1541.85 1086.91 1550.25 Q1086.91 1558.65 1082.83 1563.81 Q1078.79 1568.97 1072.3 1568.97 Q1068.38 1568.97 1065.55 1567.44 Q1062.75 1565.88 1060.9 1562.7 M1080.83 1550.25 Q1080.83 1543.79 1078.15 1540.13 Q1075.51 1536.44 1070.86 1536.44 Q1066.22 1536.44 1063.54 1540.13 Q1060.9 1543.79 1060.9 1550.25 Q1060.9 1556.71 1063.54 1560.4 Q1066.22 1564.07 1070.86 1564.07 Q1075.51 1564.07 1078.15 1560.4 Q1080.83 1556.71 1080.83 1550.25 Z" fill="#000000" fill-rule="nonzero" fill-opacity="1" /><path clip-path="url(#clip760)" d="M1126.25 1546.53 L1126.25 1568.04 L1120.39 1568.04 L1120.39 1546.72 Q1120.39 1541.66 1118.42 1539.14 Q1116.44 1536.63 1112.5 1536.63 Q1107.75 1536.63 1105.02 1539.65 Q1102.28 1542.68 1102.28 1547.9 L1102.28 1568.04 L1096.39 1568.04 L1096.39 1518.52 L1102.28 1518.52 L1102.28 1537.93 Q1104.38 1534.72 1107.21 1533.13 Q1110.08 1531.54 1113.8 1531.54 Q1119.94 1531.54 1123.09 1535.36 Q1126.25 1539.14 1126.25 1546.53 Z" fill="#000000" fill-rule="nonzero" fill-opacity="1" /><path clip-path="url(#clip760)" d="M1154.13 1550.12 Q1147.03 1550.12 1144.29 1551.75 Q1141.55 1553.37 1141.55 1557.29 Q1141.55 1560.4 1143.59 1562.25 Q1145.66 1564.07 1149.19 1564.07 Q1154.06 1564.07 1156.99 1560.63 Q1159.95 1557.16 1159.95 1551.43 L1159.95 1550.12 L1154.13 1550.12 M1165.81 1547.71 L1165.81 1568.04 L1159.95 1568.04 L1159.95 1562.63 Q1157.95 1565.88 1154.95 1567.44 Q1151.96 1568.97 1147.63 1568.97 Q1142.16 1568.97 1138.91 1565.91 Q1135.7 1562.82 1135.7 1557.67 Q1135.7 1551.65 1139.71 1548.6 Q1143.75 1545.54 1151.74 1545.54 L1159.95 1545.54 L1159.95 1544.97 Q1159.95 1540.93 1157.28 1538.73 Q1154.64 1536.5 1149.83 1536.5 Q1146.77 1536.5 1143.88 1537.23 Q1140.98 1537.97 1138.31 1539.43 L1138.31 1534.02 Q1141.52 1532.78 1144.55 1532.17 Q1147.57 1531.54 1150.44 1531.54 Q1158.17 1531.54 1161.99 1535.55 Q1165.81 1539.56 1165.81 1547.71 Z" fill="#000000" fill-rule="nonzero" fill-opacity="1" /><path clip-path="url(#clip760)" d="M1200.6 1533.45 L1200.6 1538.98 Q1198.11 1537.71 1195.44 1537.07 Q1192.77 1536.44 1189.9 1536.44 Q1185.54 1536.44 1183.35 1537.77 Q1181.18 1539.11 1181.18 1541.79 Q1181.18 1543.82 1182.74 1545 Q1184.3 1546.15 1189.01 1547.2 L1191.02 1547.64 Q1197.25 1548.98 1199.86 1551.43 Q1202.51 1553.85 1202.51 1558.21 Q1202.51 1563.17 1198.56 1566.07 Q1194.64 1568.97 1187.77 1568.97 Q1184.91 1568.97 1181.79 1568.39 Q1178.7 1567.85 1175.26 1566.74 L1175.26 1560.69 Q1178.51 1562.38 1181.66 1563.24 Q1184.81 1564.07 1187.9 1564.07 Q1192.03 1564.07 1194.26 1562.66 Q1196.49 1561.23 1196.49 1558.65 Q1196.49 1556.27 1194.87 1554.99 Q1193.28 1553.72 1187.83 1552.54 L1185.8 1552.07 Q1180.35 1550.92 1177.93 1548.56 Q1175.52 1546.18 1175.52 1542.04 Q1175.52 1537.01 1179.08 1534.27 Q1182.65 1531.54 1189.2 1531.54 Q1192.45 1531.54 1195.31 1532.01 Q1198.18 1532.49 1200.6 1533.45 Z" fill="#000000" fill-rule="nonzero" fill-opacity="1" /><path clip-path="url(#clip760)" d="M1242.32 1548.76 L1242.32 1551.62 L1215.4 1551.62 Q1215.78 1557.67 1219.03 1560.85 Q1222.3 1564 1228.13 1564 Q1231.5 1564 1234.65 1563.17 Q1237.84 1562.35 1240.96 1560.69 L1240.96 1566.23 Q1237.8 1567.57 1234.49 1568.27 Q1231.18 1568.97 1227.78 1568.97 Q1219.25 1568.97 1214.25 1564 Q1209.29 1559.04 1209.29 1550.57 Q1209.29 1541.82 1214 1536.69 Q1218.74 1531.54 1226.76 1531.54 Q1233.95 1531.54 1238.12 1536.18 Q1242.32 1540.8 1242.32 1548.76 M1236.47 1547.04 Q1236.4 1542.23 1233.76 1539.37 Q1231.15 1536.5 1226.82 1536.5 Q1221.92 1536.5 1218.96 1539.27 Q1216.03 1542.04 1215.59 1547.07 L1236.47 1547.04 Z" fill="#000000" fill-rule="nonzero" fill-opacity="1" /><path clip-path="url(#clip760)" d="M1303.15 1548.76 L1303.15 1551.62 L1276.22 1551.62 Q1276.6 1557.67 1279.85 1560.85 Q1283.13 1564 1288.95 1564 Q1292.33 1564 1295.48 1563.17 Q1298.66 1562.35 1301.78 1560.69 L1301.78 1566.23 Q1298.63 1567.57 1295.32 1568.27 Q1292.01 1568.97 1288.6 1568.97 Q1280.07 1568.97 1275.08 1564 Q1270.11 1559.04 1270.11 1550.57 Q1270.11 1541.82 1274.82 1536.69 Q1279.56 1531.54 1287.58 1531.54 Q1294.78 1531.54 1298.95 1536.18 Q1303.15 1540.8 1303.15 1548.76 M1297.29 1547.04 Q1297.23 1542.23 1294.59 1539.37 Q1291.98 1536.5 1287.65 1536.5 Q1282.75 1536.5 1279.79 1539.27 Q1276.86 1542.04 1276.41 1547.07 L1297.29 1547.04 Z" fill="#000000" fill-rule="nonzero" fill-opacity="1" /><path clip-path="url(#clip760)" d="M1308.56 1532.4 L1314.77 1532.4 L1325.91 1562.31 L1337.05 1532.4 L1343.25 1532.4 L1329.88 1568.04 L1321.93 1568.04 L1308.56 1532.4 Z" fill="#000000" fill-rule="nonzero" fill-opacity="1" /><path clip-path="url(#clip760)" d="M1365.15 1536.5 Q1360.44 1536.5 1357.7 1540.19 Q1354.97 1543.85 1354.97 1550.25 Q1354.97 1556.65 1357.67 1560.34 Q1360.41 1564 1365.15 1564 Q1369.83 1564 1372.57 1560.31 Q1375.3 1556.62 1375.3 1550.25 Q1375.3 1543.92 1372.57 1540.23 Q1369.83 1536.5 1365.15 1536.5 M1365.15 1531.54 Q1372.79 1531.54 1377.15 1536.5 Q1381.51 1541.47 1381.51 1550.25 Q1381.51 1559 1377.15 1564 Q1372.79 1568.97 1365.15 1568.97 Q1357.48 1568.97 1353.12 1564 Q1348.79 1559 1348.79 1550.25 Q1348.79 1541.47 1353.12 1536.5 Q1357.48 1531.54 1365.15 1531.54 Z" fill="#000000" fill-rule="nonzero" fill-opacity="1" /><path clip-path="url(#clip760)" d="M1391.22 1518.52 L1397.07 1518.52 L1397.07 1568.04 L1391.22 1568.04 L1391.22 1518.52 Z" fill="#000000" fill-rule="nonzero" fill-opacity="1" /><path clip-path="url(#clip760)" d="M1408.72 1553.98 L1408.72 1532.4 L1414.58 1532.4 L1414.58 1553.75 Q1414.58 1558.81 1416.55 1561.36 Q1418.53 1563.87 1422.47 1563.87 Q1427.22 1563.87 1429.95 1560.85 Q1432.72 1557.83 1432.72 1552.61 L1432.72 1532.4 L1438.58 1532.4 L1438.58 1568.04 L1432.72 1568.04 L1432.72 1562.57 Q1430.59 1565.82 1427.76 1567.41 Q1424.96 1568.97 1421.23 1568.97 Q1415.09 1568.97 1411.91 1565.15 Q1408.72 1561.33 1408.72 1553.98 M1423.46 1531.54 L1423.46 1531.54 Z" fill="#000000" fill-rule="nonzero" fill-opacity="1" /><path clip-path="url(#clip760)" d="M1456.43 1522.27 L1456.43 1532.4 L1468.5 1532.4 L1468.5 1536.95 L1456.43 1536.95 L1456.43 1556.3 Q1456.43 1560.66 1457.61 1561.9 Q1458.82 1563.14 1462.48 1563.14 L1468.5 1563.14 L1468.5 1568.04 L1462.48 1568.04 Q1455.7 1568.04 1453.12 1565.53 Q1450.55 1562.98 1450.55 1556.3 L1450.55 1536.95 L1446.25 1536.95 L1446.25 1532.4 L1450.55 1532.4 L1450.55 1522.27 L1456.43 1522.27 Z" fill="#000000" fill-rule="nonzero" fill-opacity="1" /><path clip-path="url(#clip760)" d="M1476.2 1532.4 L1482.06 1532.4 L1482.06 1568.04 L1476.2 1568.04 L1476.2 1532.4 M1476.2 1518.52 L1482.06 1518.52 L1482.06 1525.93 L1476.2 1525.93 L1476.2 1518.52 Z" fill="#000000" fill-rule="nonzero" fill-opacity="1" /><path clip-path="url(#clip760)" d="M1508.12 1536.5 Q1503.41 1536.5 1500.68 1540.19 Q1497.94 1543.85 1497.94 1550.25 Q1497.94 1556.65 1500.64 1560.34 Q1503.38 1564 1508.12 1564 Q1512.8 1564 1515.54 1560.31 Q1518.28 1556.62 1518.28 1550.25 Q1518.28 1543.92 1515.54 1540.23 Q1512.8 1536.5 1508.12 1536.5 M1508.12 1531.54 Q1515.76 1531.54 1520.12 1536.5 Q1524.48 1541.47 1524.48 1550.25 Q1524.48 1559 1520.12 1564 Q1515.76 1568.97 1508.12 1568.97 Q1500.45 1568.97 1496.09 1564 Q1491.76 1559 1491.76 1550.25 Q1491.76 1541.47 1496.09 1536.5 Q1500.45 1531.54 1508.12 1531.54 Z" fill="#000000" fill-rule="nonzero" fill-opacity="1" /><path clip-path="url(#clip760)" d="M1563.82 1546.53 L1563.82 1568.04 L1557.97 1568.04 L1557.97 1546.72 Q1557.97 1541.66 1555.99 1539.14 Q1554.02 1536.63 1550.07 1536.63 Q1545.33 1536.63 1542.59 1539.65 Q1539.86 1542.68 1539.86 1547.9 L1539.86 1568.04 L1533.97 1568.04 L1533.97 1532.4 L1539.86 1532.4 L1539.86 1537.93 Q1541.96 1534.72 1544.79 1533.13 Q1547.66 1531.54 1551.38 1531.54 Q1557.52 1531.54 1560.67 1535.36 Q1563.82 1539.14 1563.82 1546.53 Z" fill="#000000" fill-rule="nonzero" fill-opacity="1" /><path clip-path="url(#clip760)" d="M1595.68 1518.52 L1609.18 1518.52 L1609.18 1523.07 L1601.54 1523.07 L1601.54 1572.09 L1609.18 1572.09 L1609.18 1576.64 L1595.68 1576.64 L1595.68 1518.52 Z" fill="#000000" fill-rule="nonzero" fill-opacity="1" /><path clip-path="url(#clip760)" d="M1642.31 1537.87 Q1641.33 1537.3 1640.15 1537.04 Q1639 1536.76 1637.6 1536.76 Q1632.64 1536.76 1629.96 1540 Q1627.32 1543.22 1627.32 1549.27 L1627.32 1568.04 L1621.43 1568.04 L1621.43 1532.4 L1627.32 1532.4 L1627.32 1537.93 Q1629.17 1534.69 1632.13 1533.13 Q1635.09 1531.54 1639.32 1531.54 Q1639.93 1531.54 1640.66 1531.63 Q1641.39 1531.7 1642.28 1531.85 L1642.31 1537.87 Z" fill="#000000" fill-rule="nonzero" fill-opacity="1" /><path clip-path="url(#clip760)" d="M1664.66 1550.12 Q1657.56 1550.12 1654.82 1551.75 Q1652.08 1553.37 1652.08 1557.29 Q1652.08 1560.4 1654.12 1562.25 Q1656.19 1564.07 1659.72 1564.07 Q1664.59 1564.07 1667.52 1560.63 Q1670.48 1557.16 1670.48 1551.43 L1670.48 1550.12 L1664.66 1550.12 M1676.34 1547.71 L1676.34 1568.04 L1670.48 1568.04 L1670.48 1562.63 Q1668.48 1565.88 1665.48 1567.44 Q1662.49 1568.97 1658.16 1568.97 Q1652.69 1568.97 1649.44 1565.91 Q1646.23 1562.82 1646.23 1557.67 Q1646.23 1551.65 1650.24 1548.6 Q1654.28 1545.54 1662.27 1545.54 L1670.48 1545.54 L1670.48 1544.97 Q1670.48 1540.93 1667.81 1538.73 Q1665.17 1536.5 1660.36 1536.5 Q1657.3 1536.5 1654.41 1537.23 Q1651.51 1537.97 1648.84 1539.43 L1648.84 1534.02 Q1652.05 1532.78 1655.08 1532.17 Q1658.1 1531.54 1660.96 1531.54 Q1668.7 1531.54 1672.52 1535.55 Q1676.34 1539.56 1676.34 1547.71 Z" fill="#000000" fill-rule="nonzero" fill-opacity="1" /><path clip-path="url(#clip760)" d="M1711.86 1537.81 L1711.86 1518.52 L1717.72 1518.52 L1717.72 1568.04 L1711.86 1568.04 L1711.86 1562.7 Q1710.01 1565.88 1707.18 1567.44 Q1704.38 1568.97 1700.43 1568.97 Q1693.97 1568.97 1689.9 1563.81 Q1685.85 1558.65 1685.85 1550.25 Q1685.85 1541.85 1689.9 1536.69 Q1693.97 1531.54 1700.43 1531.54 Q1704.38 1531.54 1707.18 1533.1 Q1710.01 1534.62 1711.86 1537.81 M1691.9 1550.25 Q1691.9 1556.71 1694.54 1560.4 Q1697.22 1564.07 1701.86 1564.07 Q1706.51 1564.07 1709.18 1560.4 Q1711.86 1556.71 1711.86 1550.25 Q1711.86 1543.79 1709.18 1540.13 Q1706.51 1536.44 1701.86 1536.44 Q1697.22 1536.44 1694.54 1540.13 Q1691.9 1543.79 1691.9 1550.25 Z" fill="#000000" fill-rule="nonzero" fill-opacity="1" /><path clip-path="url(#clip760)" d="M1743.46 1518.52 L1743.46 1576.64 L1729.97 1576.64 L1729.97 1572.09 L1737.58 1572.09 L1737.58 1523.07 L1729.97 1523.07 L1729.97 1518.52 L1743.46 1518.52 Z" fill="#000000" fill-rule="nonzero" fill-opacity="1" /><polyline clip-path="url(#clip760)" style="stroke:#000000; stroke-linecap:round; stroke-linejoin:round; stroke-width:4; stroke-opacity:1; fill:none" points="287.852,1423.18 287.852,119.152 "/>
<polyline clip-path="url(#clip760)" style="stroke:#000000; stroke-linecap:round; stroke-linejoin:round; stroke-width:4; stroke-opacity:1; fill:none" points="287.852,1423.18 306.75,1423.18 "/>
<polyline clip-path="url(#clip760)" style="stroke:#000000; stroke-linecap:round; stroke-linejoin:round; stroke-width:4; stroke-opacity:1; fill:none" points="287.852,771.166 306.75,771.166 "/>
<polyline clip-path="url(#clip760)" style="stroke:#000000; stroke-linecap:round; stroke-linejoin:round; stroke-width:4; stroke-opacity:1; fill:none" points="287.852,119.152 306.75,119.152 "/>
<path clip-path="url(#clip760)" d="M114.26 1423.63 L143.936 1423.63 L143.936 1427.57 L114.26 1427.57 L114.26 1423.63 Z" fill="#000000" fill-rule="nonzero" fill-opacity="1" /><path clip-path="url(#clip760)" d="M164.028 1408.98 Q160.417 1408.98 158.589 1412.54 Q156.783 1416.08 156.783 1423.21 Q156.783 1430.32 158.589 1433.89 Q160.417 1437.43 164.028 1437.43 Q167.663 1437.43 169.468 1433.89 Q171.297 1430.32 171.297 1423.21 Q171.297 1416.08 169.468 1412.54 Q167.663 1408.98 164.028 1408.98 M164.028 1405.27 Q169.839 1405.27 172.894 1409.88 Q175.973 1414.46 175.973 1423.21 Q175.973 1431.94 172.894 1436.55 Q169.839 1441.13 164.028 1441.13 Q158.218 1441.13 155.14 1436.55 Q152.084 1431.94 152.084 1423.21 Q152.084 1414.46 155.14 1409.88 Q158.218 1405.27 164.028 1405.27 Z" fill="#000000" fill-rule="nonzero" fill-opacity="1" /><path clip-path="url(#clip760)" d="M184.19 1434.58 L189.075 1434.58 L189.075 1440.46 L184.19 1440.46 L184.19 1434.58 Z" fill="#000000" fill-rule="nonzero" fill-opacity="1" /><path clip-path="url(#clip760)" d="M209.26 1408.98 Q205.649 1408.98 203.82 1412.54 Q202.014 1416.08 202.014 1423.21 Q202.014 1430.32 203.82 1433.89 Q205.649 1437.43 209.26 1437.43 Q212.894 1437.43 214.699 1433.89 Q216.528 1430.32 216.528 1423.21 Q216.528 1416.08 214.699 1412.54 Q212.894 1408.98 209.26 1408.98 M209.26 1405.27 Q215.07 1405.27 218.125 1409.88 Q221.204 1414.46 221.204 1423.21 Q221.204 1431.94 218.125 1436.55 Q215.07 1441.13 209.26 1441.13 Q203.449 1441.13 200.371 1436.55 Q197.315 1431.94 197.315 1423.21 Q197.315 1414.46 200.371 1409.88 Q203.449 1405.27 209.26 1405.27 Z" fill="#000000" fill-rule="nonzero" fill-opacity="1" /><path clip-path="url(#clip760)" d="M242.269 1409.97 L230.463 1428.42 L242.269 1428.42 L242.269 1409.97 M241.042 1405.9 L246.921 1405.9 L246.921 1428.42 L251.852 1428.42 L251.852 1432.31 L246.921 1432.31 L246.921 1440.46 L242.269 1440.46 L242.269 1432.31 L226.667 1432.31 L226.667 1427.8 L241.042 1405.9 Z" fill="#000000" fill-rule="nonzero" fill-opacity="1" /><path clip-path="url(#clip760)" d="M164.515 756.965 Q160.903 756.965 159.075 760.529 Q157.269 764.071 157.269 771.201 Q157.269 778.307 159.075 781.872 Q160.903 785.414 164.515 785.414 Q168.149 785.414 169.954 781.872 Q171.783 778.307 171.783 771.201 Q171.783 764.071 169.954 760.529 Q168.149 756.965 164.515 756.965 M164.515 753.261 Q170.325 753.261 173.38 757.867 Q176.459 762.451 176.459 771.201 Q176.459 779.928 173.38 784.534 Q170.325 789.117 164.515 789.117 Q158.704 789.117 155.626 784.534 Q152.57 779.928 152.57 771.201 Q152.57 762.451 155.626 757.867 Q158.704 753.261 164.515 753.261 Z" fill="#000000" fill-rule="nonzero" fill-opacity="1" /><path clip-path="url(#clip760)" d="M184.676 782.566 L189.561 782.566 L189.561 788.446 L184.676 788.446 L184.676 782.566 Z" fill="#000000" fill-rule="nonzero" fill-opacity="1" /><path clip-path="url(#clip760)" d="M209.746 756.965 Q206.135 756.965 204.306 760.529 Q202.5 764.071 202.5 771.201 Q202.5 778.307 204.306 781.872 Q206.135 785.414 209.746 785.414 Q213.38 785.414 215.186 781.872 Q217.014 778.307 217.014 771.201 Q217.014 764.071 215.186 760.529 Q213.38 756.965 209.746 756.965 M209.746 753.261 Q215.556 753.261 218.611 757.867 Q221.69 762.451 221.69 771.201 Q221.69 779.928 218.611 784.534 Q215.556 789.117 209.746 789.117 Q203.936 789.117 200.857 784.534 Q197.801 779.928 197.801 771.201 Q197.801 762.451 200.857 757.867 Q203.936 753.261 209.746 753.261 Z" fill="#000000" fill-rule="nonzero" fill-opacity="1" /><path clip-path="url(#clip760)" d="M239.908 756.965 Q236.297 756.965 234.468 760.529 Q232.662 764.071 232.662 771.201 Q232.662 778.307 234.468 781.872 Q236.297 785.414 239.908 785.414 Q243.542 785.414 245.347 781.872 Q247.176 778.307 247.176 771.201 Q247.176 764.071 245.347 760.529 Q243.542 756.965 239.908 756.965 M239.908 753.261 Q245.718 753.261 248.773 757.867 Q251.852 762.451 251.852 771.201 Q251.852 779.928 248.773 784.534 Q245.718 789.117 239.908 789.117 Q234.097 789.117 231.019 784.534 Q227.963 779.928 227.963 771.201 Q227.963 762.451 231.019 757.867 Q234.097 753.261 239.908 753.261 Z" fill="#000000" fill-rule="nonzero" fill-opacity="1" /><path clip-path="url(#clip760)" d="M164.028 104.951 Q160.417 104.951 158.589 108.516 Q156.783 112.057 156.783 119.187 Q156.783 126.293 158.589 129.858 Q160.417 133.4 164.028 133.4 Q167.663 133.4 169.468 129.858 Q171.297 126.293 171.297 119.187 Q171.297 112.057 169.468 108.516 Q167.663 104.951 164.028 104.951 M164.028 101.247 Q169.839 101.247 172.894 105.854 Q175.973 110.437 175.973 119.187 Q175.973 127.914 172.894 132.52 Q169.839 137.103 164.028 137.103 Q158.218 137.103 155.14 132.52 Q152.084 127.914 152.084 119.187 Q152.084 110.437 155.14 105.854 Q158.218 101.247 164.028 101.247 Z" fill="#000000" fill-rule="nonzero" fill-opacity="1" /><path clip-path="url(#clip760)" d="M184.19 130.553 L189.075 130.553 L189.075 136.432 L184.19 136.432 L184.19 130.553 Z" fill="#000000" fill-rule="nonzero" fill-opacity="1" /><path clip-path="url(#clip760)" d="M209.26 104.951 Q205.649 104.951 203.82 108.516 Q202.014 112.057 202.014 119.187 Q202.014 126.293 203.82 129.858 Q205.649 133.4 209.26 133.4 Q212.894 133.4 214.699 129.858 Q216.528 126.293 216.528 119.187 Q216.528 112.057 214.699 108.516 Q212.894 104.951 209.26 104.951 M209.26 101.247 Q215.07 101.247 218.125 105.854 Q221.204 110.437 221.204 119.187 Q221.204 127.914 218.125 132.52 Q215.07 137.103 209.26 137.103 Q203.449 137.103 200.371 132.52 Q197.315 127.914 197.315 119.187 Q197.315 110.437 200.371 105.854 Q203.449 101.247 209.26 101.247 Z" fill="#000000" fill-rule="nonzero" fill-opacity="1" /><path clip-path="url(#clip760)" d="M242.269 105.946 L230.463 124.395 L242.269 124.395 L242.269 105.946 M241.042 101.872 L246.921 101.872 L246.921 124.395 L251.852 124.395 L251.852 128.284 L246.921 128.284 L246.921 136.432 L242.269 136.432 L242.269 128.284 L226.667 128.284 L226.667 123.77 L241.042 101.872 Z" fill="#000000" fill-rule="nonzero" fill-opacity="1" /><path clip-path="url(#clip760)" d="M29.4065 1036.23 L34.9447 1036.23 Q33.6716 1038.72 33.035 1041.39 Q32.3984 1044.06 32.3984 1046.93 Q32.3984 1051.29 33.7352 1053.49 Q35.072 1055.65 37.7456 1055.65 Q39.7826 1055.65 40.9603 1054.09 Q42.1061 1052.53 43.1565 1047.82 L43.6021 1045.81 Q44.9389 1039.58 47.3897 1036.97 Q49.8086 1034.32 54.1691 1034.32 Q59.1344 1034.32 62.0308 1038.27 Q64.9272 1042.19 64.9272 1049.06 Q64.9272 1051.93 64.3543 1055.04 Q63.8132 1058.13 62.6992 1061.57 L56.6518 1061.57 Q58.3387 1058.32 59.198 1055.17 Q60.0256 1052.02 60.0256 1048.93 Q60.0256 1044.8 58.6251 1042.57 Q57.1929 1040.34 54.6147 1040.34 Q52.2276 1040.34 50.9545 1041.96 Q49.6813 1043.55 48.5037 1049 L48.0262 1051.03 Q46.8804 1056.48 44.5251 1058.9 Q42.138 1061.31 38.0002 1061.31 Q32.9713 1061.31 30.2341 1057.75 Q27.4968 1054.19 27.4968 1047.63 Q27.4968 1044.38 27.9743 1041.52 Q28.4517 1038.65 29.4065 1036.23 Z" fill="#000000" fill-rule="nonzero" fill-opacity="1" /><path clip-path="url(#clip760)" d="M28.3562 1025 L28.3562 1019.14 L64.0042 1019.14 L64.0042 1025 L28.3562 1025 M14.479 1025 L14.479 1019.14 L21.895 1019.14 L21.895 1025 L14.479 1025 Z" fill="#000000" fill-rule="nonzero" fill-opacity="1" /><path clip-path="url(#clip760)" d="M45.7664 983.43 Q39.4007 983.43 35.8996 986.072 Q32.3984 988.682 32.3984 993.425 Q32.3984 998.135 35.8996 1000.78 Q39.4007 1003.39 45.7664 1003.39 Q52.1003 1003.39 55.6014 1000.78 Q59.1026 998.135 59.1026 993.425 Q59.1026 988.682 55.6014 986.072 Q52.1003 983.43 45.7664 983.43 M59.58 977.574 Q68.683 977.574 73.1071 981.616 Q77.5631 985.658 77.5631 993.998 Q77.5631 997.085 77.0857 999.822 Q76.6401 1002.56 75.6852 1005.14 L69.9879 1005.14 Q71.3884 1002.56 72.0568 1000.04 Q72.7252 997.531 72.7252 994.921 Q72.7252 989.16 69.7015 986.295 Q66.7096 983.43 60.6303 983.43 L57.7339 983.43 Q60.885 985.245 62.4446 988.077 Q64.0042 990.91 64.0042 994.857 Q64.0042 1001.41 59.0071 1005.42 Q54.01 1009.43 45.7664 1009.43 Q37.491 1009.43 32.4939 1005.42 Q27.4968 1001.41 27.4968 994.857 Q27.4968 990.91 29.0564 988.077 Q30.616 985.245 33.7671 983.43 L28.3562 983.43 L28.3562 977.574 L59.58 977.574 Z" fill="#000000" fill-rule="nonzero" fill-opacity="1" /><path clip-path="url(#clip760)" d="M42.4881 935.879 L64.0042 935.879 L64.0042 941.735 L42.679 941.735 Q37.6183 941.735 35.1038 943.708 Q32.5894 945.682 32.5894 949.629 Q32.5894 954.371 35.6131 957.108 Q38.6368 959.846 43.8567 959.846 L64.0042 959.846 L64.0042 965.734 L28.3562 965.734 L28.3562 959.846 L33.8944 959.846 Q30.6797 957.745 29.0883 954.912 Q27.4968 952.048 27.4968 948.324 Q27.4968 942.181 31.3163 939.03 Q35.1038 935.879 42.4881 935.879 Z" fill="#000000" fill-rule="nonzero" fill-opacity="1" /><path clip-path="url(#clip760)" d="M46.0847 907.997 Q46.0847 915.095 47.7079 917.832 Q49.3312 920.569 53.2461 920.569 Q56.3653 920.569 58.2114 918.532 Q60.0256 916.463 60.0256 912.93 Q60.0256 908.061 56.5881 905.132 Q53.1188 902.172 47.3897 902.172 L46.0847 902.172 L46.0847 907.997 M43.6657 896.316 L64.0042 896.316 L64.0042 902.172 L58.5933 902.172 Q61.8398 904.177 63.3994 907.169 Q64.9272 910.161 64.9272 914.49 Q64.9272 919.964 61.8716 923.211 Q58.7843 926.426 53.6281 926.426 Q47.6125 926.426 44.5569 922.415 Q41.5014 918.373 41.5014 910.384 L41.5014 902.172 L40.9285 902.172 Q36.8862 902.172 34.6901 904.846 Q32.4621 907.488 32.4621 912.294 Q32.4621 915.349 33.1941 918.246 Q33.9262 921.142 35.3903 923.816 L29.9795 923.816 Q28.7381 920.601 28.1334 917.577 Q27.4968 914.554 27.4968 911.689 Q27.4968 903.955 31.5072 900.135 Q35.5176 896.316 43.6657 896.316 Z" fill="#000000" fill-rule="nonzero" fill-opacity="1" /><path clip-path="url(#clip760)" d="M14.479 884.253 L14.479 878.396 L64.0042 878.396 L64.0042 884.253 L14.479 884.253 Z" fill="#000000" fill-rule="nonzero" fill-opacity="1" /><path clip-path="url(#clip760)" d="M58.657 839.756 L77.5631 839.756 L77.5631 845.645 L28.3562 845.645 L28.3562 839.756 L33.7671 839.756 Q30.5842 837.91 29.0564 835.11 Q27.4968 832.277 27.4968 828.362 Q27.4968 821.869 32.6531 817.827 Q37.8093 813.753 46.212 813.753 Q54.6147 813.753 59.771 817.827 Q64.9272 821.869 64.9272 828.362 Q64.9272 832.277 63.3994 835.11 Q61.8398 837.91 58.657 839.756 M46.212 819.832 Q39.7508 819.832 36.0905 822.505 Q32.3984 825.147 32.3984 829.794 Q32.3984 834.441 36.0905 837.115 Q39.7508 839.756 46.212 839.756 Q52.6732 839.756 56.3653 837.115 Q60.0256 834.441 60.0256 829.794 Q60.0256 825.147 56.3653 822.505 Q52.6732 819.832 46.212 819.832 Z" fill="#000000" fill-rule="nonzero" fill-opacity="1" /><path clip-path="url(#clip760)" d="M42.4881 774.412 L64.0042 774.412 L64.0042 780.269 L42.679 780.269 Q37.6183 780.269 35.1038 782.242 Q32.5894 784.216 32.5894 788.162 Q32.5894 792.905 35.6131 795.642 Q38.6368 798.379 43.8567 798.379 L64.0042 798.379 L64.0042 804.268 L14.479 804.268 L14.479 798.379 L33.8944 798.379 Q30.6797 796.279 29.0883 793.446 Q27.4968 790.581 27.4968 786.857 Q27.4968 780.715 31.3163 777.564 Q35.1038 774.412 42.4881 774.412 Z" fill="#000000" fill-rule="nonzero" fill-opacity="1" /><path clip-path="url(#clip760)" d="M46.0847 746.531 Q46.0847 753.628 47.7079 756.366 Q49.3312 759.103 53.2461 759.103 Q56.3653 759.103 58.2114 757.066 Q60.0256 754.997 60.0256 751.464 Q60.0256 746.594 56.5881 743.666 Q53.1188 740.706 47.3897 740.706 L46.0847 740.706 L46.0847 746.531 M43.6657 734.85 L64.0042 734.85 L64.0042 740.706 L58.5933 740.706 Q61.8398 742.711 63.3994 745.703 Q64.9272 748.695 64.9272 753.024 Q64.9272 758.498 61.8716 761.745 Q58.7843 764.959 53.6281 764.959 Q47.6125 764.959 44.5569 760.949 Q41.5014 756.907 41.5014 748.918 L41.5014 740.706 L40.9285 740.706 Q36.8862 740.706 34.6901 743.38 Q32.4621 746.021 32.4621 750.828 Q32.4621 753.883 33.1941 756.779 Q33.9262 759.676 35.3903 762.349 L29.9795 762.349 Q28.7381 759.135 28.1334 756.111 Q27.4968 753.087 27.4968 750.223 Q27.4968 742.488 31.5072 738.669 Q35.5176 734.85 43.6657 734.85 Z" fill="#000000" fill-rule="nonzero" fill-opacity="1" /><path clip-path="url(#clip760)" d="M29.4065 700.061 L34.9447 700.061 Q33.6716 702.544 33.035 705.217 Q32.3984 707.891 32.3984 710.755 Q32.3984 715.116 33.7352 717.312 Q35.072 719.476 37.7456 719.476 Q39.7826 719.476 40.9603 717.917 Q42.1061 716.357 43.1565 711.647 L43.6021 709.641 Q44.9389 703.403 47.3897 700.793 Q49.8086 698.151 54.1691 698.151 Q59.1344 698.151 62.0308 702.098 Q64.9272 706.013 64.9272 712.888 Q64.9272 715.753 64.3543 718.872 Q63.8132 721.959 62.6992 725.397 L56.6518 725.397 Q58.3387 722.15 59.198 718.999 Q60.0256 715.848 60.0256 712.761 Q60.0256 708.623 58.6251 706.395 Q57.1929 704.167 54.6147 704.167 Q52.2276 704.167 50.9545 705.79 Q49.6813 707.382 48.5037 712.824 L48.0262 714.861 Q46.8804 720.304 44.5251 722.723 Q42.138 725.142 38.0002 725.142 Q32.9713 725.142 30.2341 721.577 Q27.4968 718.012 27.4968 711.456 Q27.4968 708.209 27.9743 705.345 Q28.4517 702.48 29.4065 700.061 Z" fill="#000000" fill-rule="nonzero" fill-opacity="1" /><path clip-path="url(#clip760)" d="M44.7161 658.334 L47.5806 658.334 L47.5806 685.261 Q53.6281 684.879 56.8109 681.632 Q59.9619 678.354 59.9619 672.529 Q59.9619 669.156 59.1344 666.005 Q58.3069 662.822 56.6518 659.702 L62.1899 659.702 Q63.5267 662.853 64.227 666.164 Q64.9272 669.474 64.9272 672.879 Q64.9272 681.41 59.9619 686.407 Q54.9967 691.372 46.5303 691.372 Q37.7774 691.372 32.6531 686.661 Q27.4968 681.919 27.4968 673.898 Q27.4968 666.705 32.1438 662.535 Q36.7589 658.334 44.7161 658.334 M42.9973 664.19 Q38.1912 664.254 35.3266 666.896 Q32.4621 669.506 32.4621 673.834 Q32.4621 678.736 35.2312 681.696 Q38.0002 684.624 43.0292 685.07 L42.9973 664.19 Z" fill="#000000" fill-rule="nonzero" fill-opacity="1" /><path clip-path="url(#clip760)" d="M14.479 628.542 L14.479 615.047 L19.0304 615.047 L19.0304 622.686 L68.0464 622.686 L68.0464 615.047 L72.5979 615.047 L72.5979 628.542 L14.479 628.542 Z" fill="#000000" fill-rule="nonzero" fill-opacity="1" /><path clip-path="url(#clip760)" d="M33.8307 581.914 Q33.2578 582.9 33.0032 584.078 Q32.7167 585.224 32.7167 586.624 Q32.7167 591.589 35.9632 594.263 Q39.1779 596.905 45.2253 596.905 L64.0042 596.905 L64.0042 602.793 L28.3562 602.793 L28.3562 596.905 L33.8944 596.905 Q30.6479 595.059 29.0883 592.099 Q27.4968 589.139 27.4968 584.905 Q27.4968 584.301 27.5923 583.569 Q27.656 582.837 27.8151 581.945 L33.8307 581.914 Z" fill="#000000" fill-rule="nonzero" fill-opacity="1" /><path clip-path="url(#clip760)" d="M46.0847 559.57 Q46.0847 566.668 47.7079 569.405 Q49.3312 572.142 53.2461 572.142 Q56.3653 572.142 58.2114 570.105 Q60.0256 568.036 60.0256 564.503 Q60.0256 559.634 56.5881 556.705 Q53.1188 553.745 47.3897 553.745 L46.0847 553.745 L46.0847 559.57 M43.6657 547.889 L64.0042 547.889 L64.0042 553.745 L58.5933 553.745 Q61.8398 555.75 63.3994 558.742 Q64.9272 561.734 64.9272 566.063 Q64.9272 571.537 61.8716 574.784 Q58.7843 577.999 53.6281 577.999 Q47.6125 577.999 44.5569 573.988 Q41.5014 569.946 41.5014 561.957 L41.5014 553.745 L40.9285 553.745 Q36.8862 553.745 34.6901 556.419 Q32.4621 559.061 32.4621 563.867 Q32.4621 566.922 33.1941 569.819 Q33.9262 572.715 35.3903 575.389 L29.9795 575.389 Q28.7381 572.174 28.1334 569.15 Q27.4968 566.127 27.4968 563.262 Q27.4968 555.528 31.5072 551.708 Q35.5176 547.889 43.6657 547.889 Z" fill="#000000" fill-rule="nonzero" fill-opacity="1" /><path clip-path="url(#clip760)" d="M33.7671 512.368 L14.479 512.368 L14.479 506.512 L64.0042 506.512 L64.0042 512.368 L58.657 512.368 Q61.8398 514.214 63.3994 517.047 Q64.9272 519.848 64.9272 523.795 Q64.9272 530.256 59.771 534.33 Q54.6147 538.372 46.212 538.372 Q37.8093 538.372 32.6531 534.33 Q27.4968 530.256 27.4968 523.795 Q27.4968 519.848 29.0564 517.047 Q30.5842 514.214 33.7671 512.368 M46.212 532.325 Q52.6732 532.325 56.3653 529.683 Q60.0256 527.009 60.0256 522.362 Q60.0256 517.715 56.3653 515.042 Q52.6732 512.368 46.212 512.368 Q39.7508 512.368 36.0905 515.042 Q32.3984 517.715 32.3984 522.362 Q32.3984 527.009 36.0905 529.683 Q39.7508 532.325 46.212 532.325 Z" fill="#000000" fill-rule="nonzero" fill-opacity="1" /><path clip-path="url(#clip760)" d="M14.479 480.762 L72.5979 480.762 L72.5979 494.258 L68.0464 494.258 L68.0464 486.651 L19.0304 486.651 L19.0304 494.258 L14.479 494.258 L14.479 480.762 Z" fill="#000000" fill-rule="nonzero" fill-opacity="1" /><path clip-path="url(#clip760)" d="M1215.13 11.232 L1259.25 11.232 L1259.25 17.0248 L1223.74 60.9974 L1260.12 60.9974 L1260.12 67.392 L1214.27 67.392 L1214.27 61.5992 L1249.77 17.6266 L1215.13 17.6266 L1215.13 11.232 Z" fill="#000000" fill-rule="nonzero" fill-opacity="1" /><path clip-path="url(#clip760)" d="M1287.16 30.115 Q1281.6 30.115 1278.36 34.4784 Q1275.13 38.8042 1275.13 46.3649 Q1275.13 53.9256 1278.33 58.289 Q1281.56 62.6148 1287.16 62.6148 Q1292.69 62.6148 1295.93 58.2514 Q1299.16 53.888 1299.16 46.3649 Q1299.16 38.8794 1295.93 34.516 Q1292.69 30.115 1287.16 30.115 M1287.16 24.247 Q1296.19 24.247 1301.35 30.115 Q1306.5 35.983 1306.5 46.3649 Q1306.5 56.7092 1301.35 62.6148 Q1296.19 68.4829 1287.16 68.4829 Q1278.1 68.4829 1272.95 62.6148 Q1267.83 56.7092 1267.83 46.3649 Q1267.83 35.983 1272.95 30.115 Q1278.1 24.247 1287.16 24.247 Z" fill="#000000" fill-rule="nonzero" fill-opacity="1" /><path clip-path="url(#clip760)" d="M1334.3 30.115 Q1328.73 30.115 1325.49 34.4784 Q1322.26 38.8042 1322.26 46.3649 Q1322.26 53.9256 1325.46 58.289 Q1328.69 62.6148 1334.3 62.6148 Q1339.83 62.6148 1343.06 58.2514 Q1346.3 53.888 1346.3 46.3649 Q1346.3 38.8794 1343.06 34.516 Q1339.83 30.115 1334.3 30.115 M1334.3 24.247 Q1343.32 24.247 1348.48 30.115 Q1353.63 35.983 1353.63 46.3649 Q1353.63 56.7092 1348.48 62.6148 Q1343.32 68.4829 1334.3 68.4829 Q1325.23 68.4829 1320.08 62.6148 Q1314.96 56.7092 1314.96 46.3649 Q1314.96 35.983 1320.08 30.115 Q1325.23 24.247 1334.3 24.247 Z" fill="#000000" fill-rule="nonzero" fill-opacity="1" /><path clip-path="url(#clip760)" d="M1397.9 33.3499 Q1400.5 28.6856 1404.11 26.4663 Q1407.72 24.247 1412.61 24.247 Q1419.2 24.247 1422.77 28.8737 Q1426.34 33.4628 1426.34 41.9639 L1426.34 67.392 L1419.38 67.392 L1419.38 42.1896 Q1419.38 36.1335 1417.24 33.1995 Q1415.1 30.2655 1410.69 30.2655 Q1405.32 30.2655 1402.19 33.8389 Q1399.07 37.4124 1399.07 43.5814 L1399.07 67.392 L1392.11 67.392 L1392.11 42.1896 Q1392.11 36.0959 1389.97 33.1995 Q1387.82 30.2655 1383.35 30.2655 Q1378.04 30.2655 1374.92 33.8766 Q1371.8 37.45 1371.8 43.5814 L1371.8 67.392 L1364.84 67.392 L1364.84 25.2626 L1371.8 25.2626 L1371.8 31.8077 Q1374.17 27.9333 1377.48 26.0901 Q1380.79 24.247 1385.34 24.247 Q1389.93 24.247 1393.13 26.5791 Q1396.36 28.9113 1397.9 33.3499 Z" fill="#000000" fill-rule="nonzero" fill-opacity="1" /><polyline clip-path="url(#clip761)" style="stroke:#0000ff; stroke-linecap:round; stroke-linejoin:round; stroke-width:6; stroke-opacity:1; fill:none" points="-2809.5,-50437.9 -2768.21,-50420.8 -2726.91,-50403.7 -2685.61,-50386.5 -2644.31,-50369.3 -2603.01,-50351.9 -2561.72,-50334.3 -2520.42,-50316.5 -2479.12,-50298.4 -2437.82,-50280.1 -2396.52,-50261.4 -2355.22,-50242.3 -2313.93,-50222.8 -2272.63,-50202.9 -2231.33,-50182.3 -2190.03,-50161.2 -2148.73,-50139.3 -2107.44,-50116.7 -2066.14,-50093.2 -2024.84,-50068.8 -1983.54,-50043.3 -1942.24,-50016.7 -1900.95,-49988.7 -1859.65,-49959.2 -1818.35,-49928 -1777.05,-49894.9 -1735.75,-49859.7 -1694.46,-49822.1 -1653.16,-49781.7 -1611.86,-49738.1 -1570.56,-49690.8 -1529.26,-49639.3 -1487.97,-49582.8 -1446.67,-49520.4 -1405.37,-49451.1 -1364.07,-49373.4 -1322.77,-49285.6 -1281.47,-49185.2 -1240.18,-49069.3 -1198.88,-48933.5 -1157.58,-48772.1 -1116.28,-48576.5 -1074.98,-48334.2 -1033.69,-48025.8 -992.388,-47619.1 -951.09,-47057.9 -909.792,-46234.2 -868.494,-44913.7 -827.196,-42498.6 -785.898,-37158.8 -744.6,-24833.4 -703.302,-12508 -662.004,-7168.14 -620.706,-4753.02 -579.408,-3432.52 -538.11,-2608.82 -496.811,-2047.65 -455.513,-1640.96 -414.215,-1332.48 -372.917,-1090.21 -331.619,-894.635 -290.321,-733.188 -249.023,-597.433 -207.725,-481.493 -166.427,-381.15 -125.129,-293.298 -83.8307,-215.602 -42.5326,-146.27 -1.23453,-83.9064 40.0635,-27.4062 81.3616,24.1162 122.66,71.3795 163.958,114.973 205.256,155.383 246.554,193.019 287.852,228.223 329.15,261.286 370.448,292.458 411.746,321.952 453.044,349.954 494.342,376.626 535.64,402.109 576.939,426.528 618.237,449.993 659.535,472.604 700.833,494.447 742.131,515.603 783.429,536.143 824.727,556.133 866.025,575.632 907.323,594.695 948.621,613.373 989.919,631.714 1031.22,649.761 1072.52,667.557 1113.81,685.141 1155.11,702.551 1196.41,719.824 1237.71,736.994 1279.01,754.097 1320.3,771.166 1361.6,788.235 1402.9,805.338 1444.2,822.508 1485.5,839.781 1526.79,857.191 1568.09,874.775 1609.39,892.571 1650.69,910.618 1691.99,928.959 1733.28,947.637 1774.58,966.7 1815.88,986.199 1857.18,1006.19 1898.48,1026.73 1939.78,1047.88 1981.07,1069.73 2022.37,1092.34 2063.67,1115.8 2104.97,1140.22 2146.27,1165.71 2187.56,1192.38 2228.86,1220.38 2270.16,1249.87 2311.46,1281.05 2352.76,1314.11 2394.05,1349.31 2435.35,1386.95 2476.65,1427.36 2517.95,1470.95 2559.25,1518.22 2600.54,1569.74 2641.84,1626.24 2683.14,1688.6 2724.44,1757.93 2765.74,1835.63 2807.03,1923.48 2848.33,2023.83 2889.63,2139.77 2930.93,2275.52 2972.23,2436.97 3013.53,2632.55 3054.82,2874.81 3096.12,3183.29 3137.42,3589.99 3178.72,4151.15 3220.02,4974.85 3261.31,6295.35 3302.61,8710.47 3343.91,14050.3 3385.21,26375.7 3426.51,38701.1 3467.8,44040.9 3509.1,46456 3550.4,47776.5 3591.7,48600.2 3633,49161.4 3674.29,49568.1 3715.59,49876.6 3756.89,50118.8 3798.19,50314.4 3839.49,50475.9 3880.78,50611.6 3922.08,50727.6 3963.38,50827.9 4004.68,50915.8 4045.98,50993.4 4087.28,51062.8 4128.57,51125.1 4169.87,51181.6 4211.17,51233.2 4252.47,51280.4 4293.77,51324 4335.06,51364.4 4376.36,51402.1 4417.66,51437.3 4458.96,51470.3 4500.26,51501.5 4541.55,51531 4582.85,51559 4624.15,51585.7 4665.45,51611.2 4706.75,51635.6 4748.04,51659 4789.34,51681.7 4830.64,51703.5 4871.94,51724.7 4913.24,51745.2 4954.53,51765.2 4995.83,51784.7 5037.13,51803.7 5078.43,51822.4 5119.73,51840.8 5161.03,51858.8 5202.32,51876.6 5243.62,51894.2 5284.92,51911.6 5326.22,51928.9 5367.52,51946 5408.81,51963.1 5450.11,51980.2 "/>
<polyline clip-path="url(#clip761)" style="stroke:#ff0000; stroke-linecap:round; stroke-linejoin:round; stroke-width:6; stroke-opacity:1; fill:none" points="-2809.5,35850.2 -2768.21,35922.2 -2726.91,36003 -2685.61,36094.8 -2644.31,36199.9 -2603.01,36321.9 -2561.72,36465.5 -2520.42,36637.2 -2479.12,36846.7 -2437.82,37108.4 -2396.52,37445.2 -2355.22,37895.4 -2313.93,38528.1 -2272.63,39481.1 -2231.33,41068 -2190.03,44141.9 -2148.73,51367.1 -2107.44,-36939.4 -2066.14,-27247.4 -2024.84,-23241.9 -1983.54,-21302.8 -1942.24,-20188 -1900.95,-19469.2 -1859.65,-18968.1 -1818.35,-18598.8 -1777.05,-18315.2 -1735.75,-18090.2 -1694.46,-17907.2 -1653.16,-17755.1 -1611.86,-17626.5 -1570.56,-17516.2 -1529.26,-17420.3 -1487.97,-17336.1 -1446.67,-17261.3 -1405.37,-17194.5 -1364.07,-17134.2 -1322.77,-17079.4 -1281.47,-17029.4 -1240.18,-16983.4 -1198.88,-16940.9 -1157.58,-16901.5 -1116.28,-16864.7 -1074.98,-16830.2 -1033.69,-16797.8 -992.388,-16767.2 -951.09,-16738.2 -909.792,-16710.7 -868.494,-16684.4 -827.196,-16659.3 -785.898,-16635.2 -744.6,-16612.1 -703.302,-16589.7 -662.004,-16568.1 -620.706,-16547.2 -579.408,-16526.8 -538.11,-16507 -496.811,-16487.7 -455.513,-16468.7 -414.215,-16450.2 -372.917,-16431.9 -331.619,-16414 -290.321,-16396.2 -249.023,-16378.7 -207.725,-16361.4 -166.427,-16344.1 -125.129,-16327 -83.8307,-16309.9 -42.5326,-16292.8 -1.23453,-16275.8 40.0635,-16258.6 81.3616,-16241.4 122.66,-16224.1 163.958,-16206.7 205.256,-16189 246.554,-16171.1 287.852,-16153 329.15,-16134.5 370.448,-16115.7 411.746,-16096.5 453.044,-16076.9 494.342,-16056.7 535.64,-16036 576.939,-16014.6 618.237,-15992.5 659.535,-15969.6 700.833,-15945.9 742.131,-15921.1 783.429,-15895.2 824.727,-15868.1 866.025,-15839.6 907.323,-15809.6 948.621,-15777.8 989.919,-15744.1 1031.22,-15708.1 1072.52,-15669.6 1113.81,-15628.2 1155.11,-15583.4 1196.41,-15534.8 1237.71,-15481.7 1279.01,-15423.4 1320.3,-15358.8 1361.6,-15286.9 1402.9,-15206 1444.2,-15114.3 1485.5,-15009.1 1526.79,-14887.1 1568.09,-14743.6 1609.39,-14571.8 1650.69,-14362.4 1691.99,-14100.6 1733.28,-13763.9 1774.58,-13313.7 1815.88,-12680.9 1857.18,-11727.9 1898.48,-10141 1939.78,-7067.15 1981.07,158.011 2022.37,14269.7 2063.67,23961.7 2104.97,27967.2 2146.27,29906.2 2187.56,31021 2228.86,31739.9 2270.16,32241 2311.46,32610.2 2352.76,32893.8 2394.05,33118.8 2435.35,33301.9 2476.65,33454 2517.95,33582.5 2559.25,33692.9 2600.54,33788.8 2641.84,33873 2683.14,33947.7 2724.44,34014.6 2765.74,34074.9 2807.03,34129.6 2848.33,34179.7 2889.63,34225.7 2930.93,34268.1 2972.23,34307.6 3013.53,34344.4 3054.82,34378.8 3096.12,34411.2 3137.42,34441.8 3178.72,34470.8 3220.02,34498.4 3261.31,34524.6 3302.61,34549.7 3343.91,34573.8 3385.21,34597 3426.51,34619.3 3467.8,34640.9 3509.1,34661.9 3550.4,34682.2 3591.7,34702 3633,34721.4 3674.29,34740.3 3715.59,34758.9 3756.89,34777.1 3798.19,34795.1 3839.49,34812.8 3880.78,34830.3 3922.08,34847.7 3963.38,34864.9 4004.68,34882.1 4045.98,34899.2 4087.28,34916.2 4128.57,34933.3 4169.87,34950.4 4211.17,34967.6 4252.47,34984.9 4293.77,35002.4 4335.06,35020 4376.36,35037.9 4417.66,35056.1 4458.96,35074.5 4500.26,35093.3 4541.55,35112.5 4582.85,35132.2 4624.15,35152.3 4665.45,35173.1 4706.75,35194.5 4748.04,35216.5 4789.34,35239.4 4830.64,35263.2 4871.94,35288 4913.24,35313.8 4954.53,35340.9 4995.83,35369.4 5037.13,35399.4 5078.43,35431.2 5119.73,35465 5161.03,35500.9 5202.32,35539.5 5243.62,35580.9 5284.92,35625.6 5326.22,35674.2 5367.52,35727.3 5408.81,35785.7 5450.11,35850.2 "/>
<polyline clip-path="url(#clip761)" style="stroke:#000000; stroke-linecap:round; stroke-linejoin:round; stroke-width:6; stroke-opacity:1; fill:none" points="-2809.5,51980.2 -2768.21,-38112.5 -2726.91,-32772.7 -2685.61,-30357.5 -2644.31,-29037 -2603.01,-28213.3 -2561.72,-27652.2 -2520.42,-27245.5 -2479.12,-26937 -2437.82,-26694.7 -2396.52,-26499.2 -2355.22,-26337.7 -2313.93,-26202 -2272.63,-26086 -2231.33,-25985.7 -2190.03,-25897.8 -2148.73,-25820.1 -2107.44,-25750.8 -2066.14,-25688.4 -2024.84,-25631.9 -1983.54,-25580.4 -1942.24,-25533.1 -1900.95,-25489.6 -1859.65,-25449.1 -1818.35,-25411.5 -1777.05,-25376.3 -1735.75,-25343.2 -1694.46,-25312.1 -1653.16,-25282.6 -1611.86,-25254.6 -1570.56,-25227.9 -1529.26,-25202.4 -1487.97,-25178 -1446.67,-25154.5 -1405.37,-25131.9 -1364.07,-25110.1 -1322.77,-25088.9 -1281.47,-25068.4 -1240.18,-25048.4 -1198.88,-25028.9 -1157.58,-25009.8 -1116.28,-24991.2 -1074.98,-24972.8 -1033.69,-24954.8 -992.388,-24937 -951.09,-24919.4 -909.792,-24902 -868.494,-24884.7 -827.196,-24867.5 -785.898,-24850.4 -744.6,-24833.4 -703.302,-24816.3 -662.004,-24799.2 -620.706,-24782 -579.408,-24764.7 -538.11,-24747.3 -496.811,-24729.7 -455.513,-24712 -414.215,-24693.9 -372.917,-24675.6 -331.619,-24656.9 -290.321,-24637.8 -249.023,-24618.3 -207.725,-24598.3 -166.427,-24577.8 -125.129,-24556.6 -83.8307,-24534.8 -42.5326,-24512.2 -1.23453,-24488.7 40.0635,-24464.3 81.3616,-24438.8 122.66,-24412.1 163.958,-24384.1 205.256,-24354.7 246.554,-24323.5 287.852,-24290.4 329.15,-24255.2 370.448,-24217.6 411.746,-24177.2 453.044,-24133.6 494.342,-24086.3 535.64,-24034.8 576.939,-23978.3 618.237,-23915.9 659.535,-23846.6 700.833,-23768.9 742.131,-23681 783.429,-23580.7 824.727,-23464.8 866.025,-23329 907.323,-23167.6 948.621,-22972 989.919,-22729.7 1031.22,-22421.2 1072.52,-22014.5 1113.81,-21453.4 1155.11,-20629.7 1196.41,-19309.2 1237.71,-16894.1 1279.01,-11554.2 1320.3,771.166 1361.6,13096.6 1402.9,18436.4 1444.2,20851.5 1485.5,22172 1526.79,22995.7 1568.09,23556.9 1609.39,23963.6 1650.69,24272 1691.99,24514.3 1733.28,24709.9 1774.58,24871.3 1815.88,25007.1 1857.18,25123 1898.48,25223.4 1939.78,25311.2 1981.07,25388.9 2022.37,25458.3 2063.67,25520.6 2104.97,25577.1 2146.27,25628.6 2187.56,25675.9 2228.86,25719.5 2270.16,25759.9 2311.46,25797.5 2352.76,25832.7 2394.05,25865.8 2435.35,25897 2476.65,25926.5 2517.95,25954.5 2559.25,25981.2 2600.54,26006.6 2641.84,26031.1 2683.14,26054.5 2724.44,26077.1 2765.74,26099 2807.03,26120.1 2848.33,26140.7 2889.63,26160.7 2930.93,26180.2 2972.23,26199.2 3013.53,26217.9 3054.82,26236.2 3096.12,26254.3 3137.42,26272.1 3178.72,26289.7 3220.02,26307.1 3261.31,26324.3 3302.61,26341.5 3343.91,26358.6 3385.21,26375.7 3426.51,26392.8 3467.8,26409.9 3509.1,26427 3550.4,26444.3 3591.7,26461.7 3633,26479.3 3674.29,26497.1 3715.59,26515.1 3756.89,26533.5 3798.19,26552.2 3839.49,26571.2 3880.78,26590.7 3922.08,26610.7 3963.38,26631.3 4004.68,26652.4 4045.98,26674.3 4087.28,26696.9 4128.57,26720.3 4169.87,26744.7 4211.17,26770.2 4252.47,26796.9 4293.77,26824.9 4335.06,26854.4 4376.36,26885.6 4417.66,26918.6 4458.96,26953.8 4500.26,26991.5 4541.55,27031.9 4582.85,27075.5 4624.15,27122.7 4665.45,27174.3 4706.75,27230.8 4748.04,27293.1 4789.34,27362.5 4830.64,27440.2 4871.94,27528 4913.24,27628.3 4954.53,27744.3 4995.83,27880 5037.13,28041.5 5078.43,28237.1 5119.73,28479.3 5161.03,28787.8 5202.32,29194.5 5243.62,29755.7 5284.92,30579.4 5326.22,31899.9 5367.52,34315 5408.81,39654.8 5450.11,-50437.9 "/>
<path clip-path="url(#clip760)" d="M356.682 1379.71 L737.107 1379.71 L737.107 1172.35 L356.682 1172.35  Z" fill="#ffffff" fill-rule="evenodd" fill-opacity="1"/>
<polyline clip-path="url(#clip760)" style="stroke:#000000; stroke-linecap:round; stroke-linejoin:round; stroke-width:4; stroke-opacity:1; fill:none" points="356.682,1379.71 737.107,1379.71 737.107,1172.35 356.682,1172.35 356.682,1379.71 "/>
<polyline clip-path="url(#clip760)" style="stroke:#0000ff; stroke-linecap:round; stroke-linejoin:round; stroke-width:6; stroke-opacity:1; fill:none" points="379.626,1224.19 517.286,1224.19 "/>
<path clip-path="url(#clip760)" d="M556.062 1211.52 L546.572 1237.58 L565.576 1237.58 L556.062 1211.52 M540.229 1241.47 L553.424 1206.91 L558.724 1206.91 L571.896 1241.47 L540.229 1241.47 Z" fill="#000000" fill-rule="nonzero" fill-opacity="1" /><path clip-path="url(#clip760)" d="M589.974 1205.45 L589.974 1215.01 Q594.581 1215.01 597.659 1218.56 Q600.831 1222.17 600.831 1228.53 Q600.831 1234.9 597.659 1238.51 Q594.581 1242.05 589.974 1242.05 L589.974 1251.33 L585.738 1251.33 L585.738 1242.05 Q581.132 1242.05 578.03 1238.51 Q574.882 1234.9 574.882 1228.53 Q574.882 1222.17 578.03 1218.56 Q581.132 1215.01 585.738 1215.01 L585.738 1205.45 L589.974 1205.45 M589.974 1238.25 Q592.59 1238.25 594.372 1235.87 Q596.317 1233.21 596.34 1228.53 Q596.363 1223.9 594.372 1221.19 Q592.59 1218.81 589.974 1218.81 L589.974 1238.25 M585.738 1238.25 L585.738 1218.81 Q583.122 1218.81 581.363 1221.19 Q579.349 1223.9 579.372 1228.53 Q579.396 1233.21 581.363 1235.87 Q583.122 1238.25 585.738 1238.25 Z" fill="#000000" fill-rule="nonzero" fill-opacity="1" /><path clip-path="url(#clip760)" d="M608.585 1219.94 L638.261 1219.94 L638.261 1223.83 L608.585 1223.83 L608.585 1219.94 M608.585 1229.39 L638.261 1229.39 L638.261 1233.32 L608.585 1233.32 L608.585 1229.39 Z" fill="#000000" fill-rule="nonzero" fill-opacity="1" /><path clip-path="url(#clip760)" d="M644.997 1215.55 L669.835 1215.55 L669.835 1219.81 L666.571 1219.81 L666.571 1235.73 Q666.571 1237.4 667.127 1238.14 Q667.705 1238.86 668.978 1238.86 Q669.326 1238.86 669.835 1238.81 Q670.344 1238.74 670.506 1238.72 L670.506 1241.8 Q669.696 1242.1 668.84 1242.24 Q667.983 1242.38 667.127 1242.38 Q664.349 1242.38 663.284 1240.87 Q662.219 1239.34 662.219 1235.27 L662.219 1219.81 L652.659 1219.81 L652.659 1241.47 L648.307 1241.47 L648.307 1219.81 L644.997 1219.81 L644.997 1215.55 Z" fill="#000000" fill-rule="nonzero" fill-opacity="1" /><polyline clip-path="url(#clip760)" style="stroke:#ff0000; stroke-linecap:round; stroke-linejoin:round; stroke-width:6; stroke-opacity:1; fill:none" points="379.626,1276.03 517.286,1276.03 "/>
<path clip-path="url(#clip760)" d="M556.062 1263.36 L546.572 1289.42 L565.576 1289.42 L556.062 1263.36 M540.229 1293.31 L553.424 1258.75 L558.724 1258.75 L571.896 1293.31 L540.229 1293.31 Z" fill="#000000" fill-rule="nonzero" fill-opacity="1" /><path clip-path="url(#clip760)" d="M589.974 1257.29 L589.974 1266.85 Q594.581 1266.85 597.659 1270.4 Q600.831 1274.01 600.831 1280.37 Q600.831 1286.74 597.659 1290.35 Q594.581 1293.89 589.974 1293.89 L589.974 1303.17 L585.738 1303.17 L585.738 1293.89 Q581.132 1293.89 578.03 1290.35 Q574.882 1286.74 574.882 1280.37 Q574.882 1274.01 578.03 1270.4 Q581.132 1266.85 585.738 1266.85 L585.738 1257.29 L589.974 1257.29 M589.974 1290.09 Q592.59 1290.09 594.372 1287.71 Q596.317 1285.05 596.34 1280.37 Q596.363 1275.74 594.372 1273.03 Q592.59 1270.65 589.974 1270.65 L589.974 1290.09 M585.738 1290.09 L585.738 1270.65 Q583.122 1270.65 581.363 1273.03 Q579.349 1275.74 579.372 1280.37 Q579.396 1285.05 581.363 1287.71 Q583.122 1290.09 585.738 1290.09 Z" fill="#000000" fill-rule="nonzero" fill-opacity="1" /><path clip-path="url(#clip760)" d="M608.585 1271.78 L638.261 1271.78 L638.261 1275.67 L608.585 1275.67 L608.585 1271.78 M608.585 1281.23 L638.261 1281.23 L638.261 1285.16 L608.585 1285.16 L608.585 1281.23 Z" fill="#000000" fill-rule="nonzero" fill-opacity="1" /><path clip-path="url(#clip760)" d="M644.997 1267.39 L669.835 1267.39 L669.835 1271.65 L666.571 1271.65 L666.571 1287.57 Q666.571 1289.24 667.127 1289.98 Q667.705 1290.7 668.978 1290.7 Q669.326 1290.7 669.835 1290.65 Q670.344 1290.58 670.506 1290.56 L670.506 1293.64 Q669.696 1293.94 668.84 1294.08 Q667.983 1294.22 667.127 1294.22 Q664.349 1294.22 663.284 1292.71 Q662.219 1291.18 662.219 1287.11 L662.219 1271.65 L652.659 1271.65 L652.659 1293.31 L648.307 1293.31 L648.307 1271.65 L644.997 1271.65 L644.997 1267.39 Z" fill="#000000" fill-rule="nonzero" fill-opacity="1" /><path clip-path="url(#clip760)" d="M683.863 1258.75 L687.798 1258.75 L675.761 1297.71 L671.826 1297.71 L683.863 1258.75 Z" fill="#000000" fill-rule="nonzero" fill-opacity="1" /><path clip-path="url(#clip760)" d="M707.034 1274.68 Q710.39 1275.4 712.265 1277.66 Q714.163 1279.93 714.163 1283.27 Q714.163 1288.38 710.645 1291.18 Q707.126 1293.98 700.645 1293.98 Q698.469 1293.98 696.154 1293.54 Q693.863 1293.13 691.409 1292.27 L691.409 1287.76 Q693.353 1288.89 695.668 1289.47 Q697.983 1290.05 700.506 1290.05 Q704.904 1290.05 707.196 1288.31 Q709.511 1286.58 709.511 1283.27 Q709.511 1280.21 707.358 1278.5 Q705.228 1276.76 701.409 1276.76 L697.381 1276.76 L697.381 1272.92 L701.594 1272.92 Q705.043 1272.92 706.872 1271.55 Q708.7 1270.16 708.7 1267.57 Q708.7 1264.91 706.802 1263.5 Q704.927 1262.06 701.409 1262.06 Q699.488 1262.06 697.288 1262.48 Q695.089 1262.9 692.451 1263.78 L692.451 1259.61 Q695.113 1258.87 697.427 1258.5 Q699.765 1258.13 701.826 1258.13 Q707.15 1258.13 710.251 1260.56 Q713.353 1262.97 713.353 1267.09 Q713.353 1269.96 711.71 1271.95 Q710.066 1273.91 707.034 1274.68 Z" fill="#000000" fill-rule="nonzero" fill-opacity="1" /><polyline clip-path="url(#clip760)" style="stroke:#000000; stroke-linecap:round; stroke-linejoin:round; stroke-width:6; stroke-opacity:1; fill:none" points="379.626,1327.87 517.286,1327.87 "/>
<path clip-path="url(#clip760)" d="M556.062 1315.2 L546.572 1341.26 L565.576 1341.26 L556.062 1315.2 M540.229 1345.15 L553.424 1310.59 L558.724 1310.59 L571.896 1345.15 L540.229 1345.15 Z" fill="#000000" fill-rule="nonzero" fill-opacity="1" /><path clip-path="url(#clip760)" d="M589.974 1309.13 L589.974 1318.69 Q594.581 1318.69 597.659 1322.24 Q600.831 1325.85 600.831 1332.21 Q600.831 1338.58 597.659 1342.19 Q594.581 1345.73 589.974 1345.73 L589.974 1355.01 L585.738 1355.01 L585.738 1345.73 Q581.132 1345.73 578.03 1342.19 Q574.882 1338.58 574.882 1332.21 Q574.882 1325.85 578.03 1322.24 Q581.132 1318.69 585.738 1318.69 L585.738 1309.13 L589.974 1309.13 M589.974 1341.93 Q592.59 1341.93 594.372 1339.55 Q596.317 1336.89 596.34 1332.21 Q596.363 1327.58 594.372 1324.87 Q592.59 1322.49 589.974 1322.49 L589.974 1341.93 M585.738 1341.93 L585.738 1322.49 Q583.122 1322.49 581.363 1324.87 Q579.349 1327.58 579.372 1332.21 Q579.396 1336.89 581.363 1339.55 Q583.122 1341.93 585.738 1341.93 Z" fill="#000000" fill-rule="nonzero" fill-opacity="1" /><path clip-path="url(#clip760)" d="M608.585 1323.62 L638.261 1323.62 L638.261 1327.51 L608.585 1327.51 L608.585 1323.62 M608.585 1333.07 L638.261 1333.07 L638.261 1337 L608.585 1337 L608.585 1333.07 Z" fill="#000000" fill-rule="nonzero" fill-opacity="1" /><path clip-path="url(#clip760)" d="M658.354 1313.67 Q654.742 1313.67 652.914 1317.24 Q651.108 1320.78 651.108 1327.91 Q651.108 1335.01 652.914 1338.58 Q654.742 1342.12 658.354 1342.12 Q661.988 1342.12 663.793 1338.58 Q665.622 1335.01 665.622 1327.91 Q665.622 1320.78 663.793 1317.24 Q661.988 1313.67 658.354 1313.67 M658.354 1309.97 Q664.164 1309.97 667.219 1314.57 Q670.298 1319.16 670.298 1327.91 Q670.298 1336.63 667.219 1341.24 Q664.164 1345.82 658.354 1345.82 Q652.543 1345.82 649.465 1341.24 Q646.409 1336.63 646.409 1327.91 Q646.409 1319.16 649.465 1314.57 Q652.543 1309.97 658.354 1309.97 Z" fill="#000000" fill-rule="nonzero" fill-opacity="1" /></svg>
