<?xml version="1.0" encoding="utf-8"?>
<svg xmlns="http://www.w3.org/2000/svg" xmlns:xlink="http://www.w3.org/1999/xlink" width="600" height="400" viewBox="0 0 2400 1600">
<defs>
  <clipPath id="clip340">
    <rect x="0" y="0" width="2400" height="1600"/>
  </clipPath>
</defs>
<path clip-path="url(#clip340)" d="M0 1600 L2400 1600 L2400 0 L0 0  Z" fill="#ffffff" fill-rule="evenodd" fill-opacity="1"/>
<defs>
  <clipPath id="clip341">
    <rect x="222" y="0" width="2131" height="81"/>
  </clipPath>
</defs>
<path clip-path="url(#clip340)" d="M222.436 694.814 L2352.76 694.814 L2352.76 127.244 L222.436 127.244  Z" fill="#ffffff" fill-rule="evenodd" fill-opacity="1"/>
<defs>
  <clipPath id="clip342">
    <rect x="222" y="127" width="2131" height="569"/>
  </clipPath>
</defs>
<polyline clip-path="url(#clip342)" style="stroke:#000000; stroke-linecap:round; stroke-linejoin:round; stroke-width:2; stroke-opacity:0.1; fill:none" points="282.728,694.814 282.728,127.244 "/>
<polyline clip-path="url(#clip342)" style="stroke:#000000; stroke-linecap:round; stroke-linejoin:round; stroke-width:2; stroke-opacity:0.1; fill:none" points="785.162,694.814 785.162,127.244 "/>
<polyline clip-path="url(#clip342)" style="stroke:#000000; stroke-linecap:round; stroke-linejoin:round; stroke-width:2; stroke-opacity:0.1; fill:none" points="1287.6,694.814 1287.6,127.244 "/>
<polyline clip-path="url(#clip342)" style="stroke:#000000; stroke-linecap:round; stroke-linejoin:round; stroke-width:2; stroke-opacity:0.1; fill:none" points="1790.03,694.814 1790.03,127.244 "/>
<polyline clip-path="url(#clip342)" style="stroke:#000000; stroke-linecap:round; stroke-linejoin:round; stroke-width:2; stroke-opacity:0.1; fill:none" points="2292.46,694.814 2292.46,127.244 "/>
<polyline clip-path="url(#clip342)" style="stroke:#000000; stroke-linecap:round; stroke-linejoin:round; stroke-width:2; stroke-opacity:0.1; fill:none" points="222.436,694.814 2352.76,694.814 "/>
<polyline clip-path="url(#clip342)" style="stroke:#000000; stroke-linecap:round; stroke-linejoin:round; stroke-width:2; stroke-opacity:0.1; fill:none" points="222.436,581.3 2352.76,581.3 "/>
<polyline clip-path="url(#clip342)" style="stroke:#000000; stroke-linecap:round; stroke-linejoin:round; stroke-width:2; stroke-opacity:0.1; fill:none" points="222.436,467.786 2352.76,467.786 "/>
<polyline clip-path="url(#clip342)" style="stroke:#000000; stroke-linecap:round; stroke-linejoin:round; stroke-width:2; stroke-opacity:0.1; fill:none" points="222.436,354.272 2352.76,354.272 "/>
<polyline clip-path="url(#clip342)" style="stroke:#000000; stroke-linecap:round; stroke-linejoin:round; stroke-width:2; stroke-opacity:0.1; fill:none" points="222.436,240.758 2352.76,240.758 "/>
<polyline clip-path="url(#clip342)" style="stroke:#000000; stroke-linecap:round; stroke-linejoin:round; stroke-width:2; stroke-opacity:0.1; fill:none" points="222.436,127.244 2352.76,127.244 "/>
<polyline clip-path="url(#clip340)" style="stroke:#000000; stroke-linecap:round; stroke-linejoin:round; stroke-width:4; stroke-opacity:1; fill:none" points="222.436,694.814 2352.76,694.814 "/>
<polyline clip-path="url(#clip340)" style="stroke:#000000; stroke-linecap:round; stroke-linejoin:round; stroke-width:4; stroke-opacity:1; fill:none" points="282.728,694.814 282.728,675.916 "/>
<polyline clip-path="url(#clip340)" style="stroke:#000000; stroke-linecap:round; stroke-linejoin:round; stroke-width:4; stroke-opacity:1; fill:none" points="785.162,694.814 785.162,675.916 "/>
<polyline clip-path="url(#clip340)" style="stroke:#000000; stroke-linecap:round; stroke-linejoin:round; stroke-width:4; stroke-opacity:1; fill:none" points="1287.6,694.814 1287.6,675.916 "/>
<polyline clip-path="url(#clip340)" style="stroke:#000000; stroke-linecap:round; stroke-linejoin:round; stroke-width:4; stroke-opacity:1; fill:none" points="1790.03,694.814 1790.03,675.916 "/>
<polyline clip-path="url(#clip340)" style="stroke:#000000; stroke-linecap:round; stroke-linejoin:round; stroke-width:4; stroke-opacity:1; fill:none" points="2292.46,694.814 2292.46,675.916 "/>
<path clip-path="url(#clip340)" d="M246.64 742.33 L259.117 742.33 L259.117 746.126 L246.64 746.126 L246.64 742.33 Z" fill="#000000" fill-rule="nonzero" fill-opacity="1" /><path clip-path="url(#clip340)" d="M270.529 753.279 L286.848 753.279 L286.848 757.214 L264.904 757.214 L264.904 753.279 Q267.566 750.524 272.149 745.894 Q276.756 741.242 277.936 739.899 Q280.181 737.376 281.061 735.64 Q281.964 733.881 281.964 732.191 Q281.964 729.436 280.019 727.7 Q278.098 725.964 274.996 725.964 Q272.797 725.964 270.344 726.728 Q267.913 727.492 265.135 729.043 L265.135 724.321 Q267.959 723.186 270.413 722.608 Q272.867 722.029 274.904 722.029 Q280.274 722.029 283.469 724.714 Q286.663 727.399 286.663 731.89 Q286.663 734.02 285.853 735.941 Q285.066 737.839 282.959 740.432 Q282.381 741.103 279.279 744.32 Q276.177 747.515 270.529 753.279 Z" fill="#000000" fill-rule="nonzero" fill-opacity="1" /><path clip-path="url(#clip340)" d="M293.306 731.288 L318.144 731.288 L318.144 735.547 L314.88 735.547 L314.88 751.473 Q314.88 753.14 315.436 753.881 Q316.015 754.598 317.288 754.598 Q317.635 754.598 318.144 754.552 Q318.654 754.482 318.816 754.459 L318.816 757.538 Q318.005 757.839 317.149 757.978 Q316.292 758.117 315.436 758.117 Q312.658 758.117 311.593 756.612 Q310.529 755.084 310.529 751.01 L310.529 735.547 L300.968 735.547 L300.968 757.214 L296.617 757.214 L296.617 735.547 L293.306 735.547 L293.306 731.288 Z" fill="#000000" fill-rule="nonzero" fill-opacity="1" /><path clip-path="url(#clip340)" d="M749.074 742.33 L761.551 742.33 L761.551 746.126 L749.074 746.126 L749.074 742.33 Z" fill="#000000" fill-rule="nonzero" fill-opacity="1" /><path clip-path="url(#clip340)" d="M769.745 753.279 L777.384 753.279 L777.384 726.913 L769.074 728.58 L769.074 724.321 L777.338 722.654 L782.014 722.654 L782.014 753.279 L789.653 753.279 L789.653 757.214 L769.745 757.214 L769.745 753.279 Z" fill="#000000" fill-rule="nonzero" fill-opacity="1" /><path clip-path="url(#clip340)" d="M795.74 731.288 L820.578 731.288 L820.578 735.547 L817.314 735.547 L817.314 751.473 Q817.314 753.14 817.87 753.881 Q818.449 754.598 819.722 754.598 Q820.069 754.598 820.578 754.552 Q821.088 754.482 821.25 754.459 L821.25 757.538 Q820.439 757.839 819.583 757.978 Q818.726 758.117 817.87 758.117 Q815.092 758.117 814.027 756.612 Q812.963 755.084 812.963 751.01 L812.963 735.547 L803.402 735.547 L803.402 757.214 L799.051 757.214 L799.051 735.547 L795.74 735.547 L795.74 731.288 Z" fill="#000000" fill-rule="nonzero" fill-opacity="1" /><path clip-path="url(#clip340)" d="M1272.41 725.733 Q1268.8 725.733 1266.97 729.297 Q1265.17 732.839 1265.17 739.969 Q1265.17 747.075 1266.97 750.64 Q1268.8 754.181 1272.41 754.181 Q1276.04 754.181 1277.85 750.64 Q1279.68 747.075 1279.68 739.969 Q1279.68 732.839 1277.85 729.297 Q1276.04 725.733 1272.41 725.733 M1272.41 722.029 Q1278.22 722.029 1281.28 726.635 Q1284.36 731.219 1284.36 739.969 Q1284.36 748.695 1281.28 753.302 Q1278.22 757.885 1272.41 757.885 Q1266.6 757.885 1263.52 753.302 Q1260.47 748.695 1260.47 739.969 Q1260.47 731.219 1263.52 726.635 Q1266.6 722.029 1272.41 722.029 Z" fill="#000000" fill-rule="nonzero" fill-opacity="1" /><path clip-path="url(#clip340)" d="M1289.22 731.288 L1314.05 731.288 L1314.05 735.547 L1310.79 735.547 L1310.79 751.473 Q1310.79 753.14 1311.35 753.881 Q1311.92 754.598 1313.2 754.598 Q1313.54 754.598 1314.05 754.552 Q1314.56 754.482 1314.73 754.459 L1314.73 757.538 Q1313.92 757.839 1313.06 757.978 Q1312.2 758.117 1311.35 758.117 Q1308.57 758.117 1307.5 756.612 Q1306.44 755.084 1306.44 751.01 L1306.44 735.547 L1296.88 735.547 L1296.88 757.214 L1292.53 757.214 L1292.53 735.547 L1289.22 735.547 L1289.22 731.288 Z" fill="#000000" fill-rule="nonzero" fill-opacity="1" /><path clip-path="url(#clip340)" d="M1764.61 753.279 L1772.25 753.279 L1772.25 726.913 L1763.94 728.58 L1763.94 724.321 L1772.21 722.654 L1776.88 722.654 L1776.88 753.279 L1784.52 753.279 L1784.52 757.214 L1764.61 757.214 L1764.61 753.279 Z" fill="#000000" fill-rule="nonzero" fill-opacity="1" /><path clip-path="url(#clip340)" d="M1790.61 731.288 L1815.45 731.288 L1815.45 735.547 L1812.18 735.547 L1812.18 751.473 Q1812.18 753.14 1812.74 753.881 Q1813.32 754.598 1814.59 754.598 Q1814.94 754.598 1815.45 754.552 Q1815.96 754.482 1816.12 754.459 L1816.12 757.538 Q1815.31 757.839 1814.45 757.978 Q1813.59 758.117 1812.74 758.117 Q1809.96 758.117 1808.9 756.612 Q1807.83 755.084 1807.83 751.01 L1807.83 735.547 L1798.27 735.547 L1798.27 757.214 L1793.92 757.214 L1793.92 735.547 L1790.61 735.547 L1790.61 731.288 Z" fill="#000000" fill-rule="nonzero" fill-opacity="1" /><path clip-path="url(#clip340)" d="M2271.13 753.279 L2287.45 753.279 L2287.45 757.214 L2265.51 757.214 L2265.51 753.279 Q2268.17 750.524 2272.75 745.894 Q2277.36 741.242 2278.54 739.899 Q2280.79 737.376 2281.67 735.64 Q2282.57 733.881 2282.57 732.191 Q2282.57 729.436 2280.62 727.7 Q2278.7 725.964 2275.6 725.964 Q2273.4 725.964 2270.95 726.728 Q2268.52 727.492 2265.74 729.043 L2265.74 724.321 Q2268.56 723.186 2271.02 722.608 Q2273.47 722.029 2275.51 722.029 Q2280.88 722.029 2284.07 724.714 Q2287.27 727.399 2287.27 731.89 Q2287.27 734.02 2286.46 735.941 Q2285.67 737.839 2283.56 740.432 Q2282.98 741.103 2279.88 744.32 Q2276.78 747.515 2271.13 753.279 Z" fill="#000000" fill-rule="nonzero" fill-opacity="1" /><path clip-path="url(#clip340)" d="M2293.91 731.288 L2318.75 731.288 L2318.75 735.547 L2315.48 735.547 L2315.48 751.473 Q2315.48 753.14 2316.04 753.881 Q2316.62 754.598 2317.89 754.598 Q2318.24 754.598 2318.75 754.552 Q2319.26 754.482 2319.42 754.459 L2319.42 757.538 Q2318.61 757.839 2317.75 757.978 Q2316.9 758.117 2316.04 758.117 Q2313.26 758.117 2312.2 756.612 Q2311.13 755.084 2311.13 751.01 L2311.13 735.547 L2301.57 735.547 L2301.57 757.214 L2297.22 757.214 L2297.22 735.547 L2293.91 735.547 L2293.91 731.288 Z" fill="#000000" fill-rule="nonzero" fill-opacity="1" /><polyline clip-path="url(#clip340)" style="stroke:#000000; stroke-linecap:round; stroke-linejoin:round; stroke-width:4; stroke-opacity:1; fill:none" points="222.436,694.814 222.436,127.244 "/>
<polyline clip-path="url(#clip340)" style="stroke:#000000; stroke-linecap:round; stroke-linejoin:round; stroke-width:4; stroke-opacity:1; fill:none" points="222.436,694.814 241.333,694.814 "/>
<polyline clip-path="url(#clip340)" style="stroke:#000000; stroke-linecap:round; stroke-linejoin:round; stroke-width:4; stroke-opacity:1; fill:none" points="222.436,581.3 241.333,581.3 "/>
<polyline clip-path="url(#clip340)" style="stroke:#000000; stroke-linecap:round; stroke-linejoin:round; stroke-width:4; stroke-opacity:1; fill:none" points="222.436,467.786 241.333,467.786 "/>
<polyline clip-path="url(#clip340)" style="stroke:#000000; stroke-linecap:round; stroke-linejoin:round; stroke-width:4; stroke-opacity:1; fill:none" points="222.436,354.272 241.333,354.272 "/>
<polyline clip-path="url(#clip340)" style="stroke:#000000; stroke-linecap:round; stroke-linejoin:round; stroke-width:4; stroke-opacity:1; fill:none" points="222.436,240.758 241.333,240.758 "/>
<polyline clip-path="url(#clip340)" style="stroke:#000000; stroke-linecap:round; stroke-linejoin:round; stroke-width:4; stroke-opacity:1; fill:none" points="222.436,127.244 241.333,127.244 "/>
<path clip-path="url(#clip340)" d="M129.26 680.613 Q125.649 680.613 123.82 684.177 Q122.015 687.719 122.015 694.849 Q122.015 701.955 123.82 705.52 Q125.649 709.061 129.26 709.061 Q132.894 709.061 134.7 705.52 Q136.529 701.955 136.529 694.849 Q136.529 687.719 134.7 684.177 Q132.894 680.613 129.26 680.613 M129.26 676.909 Q135.07 676.909 138.126 681.515 Q141.204 686.099 141.204 694.849 Q141.204 703.575 138.126 708.182 Q135.07 712.765 129.26 712.765 Q123.45 712.765 120.371 708.182 Q117.316 703.575 117.316 694.849 Q117.316 686.099 120.371 681.515 Q123.45 676.909 129.26 676.909 Z" fill="#000000" fill-rule="nonzero" fill-opacity="1" /><path clip-path="url(#clip340)" d="M149.422 706.214 L154.306 706.214 L154.306 712.094 L149.422 712.094 L149.422 706.214 Z" fill="#000000" fill-rule="nonzero" fill-opacity="1" /><path clip-path="url(#clip340)" d="M174.491 680.613 Q170.88 680.613 169.052 684.177 Q167.246 687.719 167.246 694.849 Q167.246 701.955 169.052 705.52 Q170.88 709.061 174.491 709.061 Q178.126 709.061 179.931 705.52 Q181.76 701.955 181.76 694.849 Q181.76 687.719 179.931 684.177 Q178.126 680.613 174.491 680.613 M174.491 676.909 Q180.301 676.909 183.357 681.515 Q186.436 686.099 186.436 694.849 Q186.436 703.575 183.357 708.182 Q180.301 712.765 174.491 712.765 Q168.681 712.765 165.602 708.182 Q162.547 703.575 162.547 694.849 Q162.547 686.099 165.602 681.515 Q168.681 676.909 174.491 676.909 Z" fill="#000000" fill-rule="nonzero" fill-opacity="1" /><path clip-path="url(#clip340)" d="M130.487 567.099 Q126.876 567.099 125.047 570.663 Q123.242 574.205 123.242 581.335 Q123.242 588.441 125.047 592.006 Q126.876 595.548 130.487 595.548 Q134.121 595.548 135.927 592.006 Q137.755 588.441 137.755 581.335 Q137.755 574.205 135.927 570.663 Q134.121 567.099 130.487 567.099 M130.487 563.395 Q136.297 563.395 139.353 568.001 Q142.431 572.585 142.431 581.335 Q142.431 590.061 139.353 594.668 Q136.297 599.251 130.487 599.251 Q124.677 599.251 121.598 594.668 Q118.543 590.061 118.543 581.335 Q118.543 572.585 121.598 568.001 Q124.677 563.395 130.487 563.395 Z" fill="#000000" fill-rule="nonzero" fill-opacity="1" /><path clip-path="url(#clip340)" d="M150.649 592.7 L155.533 592.7 L155.533 598.58 L150.649 598.58 L150.649 592.7 Z" fill="#000000" fill-rule="nonzero" fill-opacity="1" /><path clip-path="url(#clip340)" d="M166.528 594.645 L174.167 594.645 L174.167 568.279 L165.857 569.946 L165.857 565.687 L174.121 564.02 L178.797 564.02 L178.797 594.645 L186.436 594.645 L186.436 598.58 L166.528 598.58 L166.528 594.645 Z" fill="#000000" fill-rule="nonzero" fill-opacity="1" /><path clip-path="url(#clip340)" d="M130.857 453.585 Q127.246 453.585 125.418 457.149 Q123.612 460.691 123.612 467.821 Q123.612 474.927 125.418 478.492 Q127.246 482.034 130.857 482.034 Q134.492 482.034 136.297 478.492 Q138.126 474.927 138.126 467.821 Q138.126 460.691 136.297 457.149 Q134.492 453.585 130.857 453.585 M130.857 449.881 Q136.667 449.881 139.723 454.487 Q142.802 459.071 142.802 467.821 Q142.802 476.547 139.723 481.154 Q136.667 485.737 130.857 485.737 Q125.047 485.737 121.968 481.154 Q118.913 476.547 118.913 467.821 Q118.913 459.071 121.968 454.487 Q125.047 449.881 130.857 449.881 Z" fill="#000000" fill-rule="nonzero" fill-opacity="1" /><path clip-path="url(#clip340)" d="M151.019 479.186 L155.903 479.186 L155.903 485.066 L151.019 485.066 L151.019 479.186 Z" fill="#000000" fill-rule="nonzero" fill-opacity="1" /><path clip-path="url(#clip340)" d="M170.116 481.131 L186.436 481.131 L186.436 485.066 L164.491 485.066 L164.491 481.131 Q167.153 478.376 171.737 473.747 Q176.343 469.094 177.524 467.751 Q179.769 465.228 180.649 463.492 Q181.551 461.733 181.551 460.043 Q181.551 457.288 179.607 455.552 Q177.686 453.816 174.584 453.816 Q172.385 453.816 169.931 454.58 Q167.501 455.344 164.723 456.895 L164.723 452.173 Q167.547 451.038 170.001 450.46 Q172.454 449.881 174.491 449.881 Q179.862 449.881 183.056 452.566 Q186.251 455.251 186.251 459.742 Q186.251 461.872 185.44 463.793 Q184.653 465.691 182.547 468.284 Q181.968 468.955 178.866 472.173 Q175.764 475.367 170.116 481.131 Z" fill="#000000" fill-rule="nonzero" fill-opacity="1" /><path clip-path="url(#clip340)" d="M129.908 340.071 Q126.297 340.071 124.468 343.635 Q122.663 347.177 122.663 354.307 Q122.663 361.413 124.468 364.978 Q126.297 368.52 129.908 368.52 Q133.542 368.52 135.348 364.978 Q137.177 361.413 137.177 354.307 Q137.177 347.177 135.348 343.635 Q133.542 340.071 129.908 340.071 M129.908 336.367 Q135.718 336.367 138.774 340.973 Q141.853 345.557 141.853 354.307 Q141.853 363.034 138.774 367.64 Q135.718 372.223 129.908 372.223 Q124.098 372.223 121.019 367.64 Q117.964 363.034 117.964 354.307 Q117.964 345.557 121.019 340.973 Q124.098 336.367 129.908 336.367 Z" fill="#000000" fill-rule="nonzero" fill-opacity="1" /><path clip-path="url(#clip340)" d="M150.07 365.672 L154.954 365.672 L154.954 371.552 L150.07 371.552 L150.07 365.672 Z" fill="#000000" fill-rule="nonzero" fill-opacity="1" /><path clip-path="url(#clip340)" d="M179.306 352.918 Q182.663 353.635 184.538 355.904 Q186.436 358.172 186.436 361.506 Q186.436 366.621 182.917 369.422 Q179.399 372.223 172.917 372.223 Q170.741 372.223 168.427 371.783 Q166.135 371.367 163.681 370.51 L163.681 365.996 Q165.626 367.131 167.94 367.709 Q170.255 368.288 172.778 368.288 Q177.176 368.288 179.468 366.552 Q181.783 364.816 181.783 361.506 Q181.783 358.45 179.63 356.737 Q177.501 355.001 173.681 355.001 L169.653 355.001 L169.653 351.159 L173.866 351.159 Q177.315 351.159 179.144 349.793 Q180.973 348.404 180.973 345.811 Q180.973 343.149 179.075 341.737 Q177.2 340.302 173.681 340.302 Q171.76 340.302 169.561 340.719 Q167.362 341.135 164.723 342.015 L164.723 337.848 Q167.385 337.108 169.7 336.737 Q172.038 336.367 174.098 336.367 Q179.422 336.367 182.524 338.798 Q185.626 341.205 185.626 345.325 Q185.626 348.196 183.982 350.186 Q182.338 352.154 179.306 352.918 Z" fill="#000000" fill-rule="nonzero" fill-opacity="1" /><path clip-path="url(#clip340)" d="M128.774 226.557 Q125.163 226.557 123.334 230.122 Q121.529 233.663 121.529 240.793 Q121.529 247.899 123.334 251.464 Q125.163 255.006 128.774 255.006 Q132.408 255.006 134.214 251.464 Q136.042 247.899 136.042 240.793 Q136.042 233.663 134.214 230.122 Q132.408 226.557 128.774 226.557 M128.774 222.853 Q134.584 222.853 137.64 227.46 Q140.718 232.043 140.718 240.793 Q140.718 249.52 137.64 254.126 Q134.584 258.709 128.774 258.709 Q122.964 258.709 119.885 254.126 Q116.83 249.52 116.83 240.793 Q116.83 232.043 119.885 227.46 Q122.964 222.853 128.774 222.853 Z" fill="#000000" fill-rule="nonzero" fill-opacity="1" /><path clip-path="url(#clip340)" d="M148.936 252.158 L153.82 252.158 L153.82 258.038 L148.936 258.038 L148.936 252.158 Z" fill="#000000" fill-rule="nonzero" fill-opacity="1" /><path clip-path="url(#clip340)" d="M176.852 227.552 L165.047 246.001 L176.852 246.001 L176.852 227.552 M175.626 223.478 L181.505 223.478 L181.505 246.001 L186.436 246.001 L186.436 249.89 L181.505 249.89 L181.505 258.038 L176.852 258.038 L176.852 249.89 L161.251 249.89 L161.251 245.376 L175.626 223.478 Z" fill="#000000" fill-rule="nonzero" fill-opacity="1" /><path clip-path="url(#clip340)" d="M130.255 113.043 Q126.644 113.043 124.816 116.608 Q123.01 120.149 123.01 127.279 Q123.01 134.385 124.816 137.95 Q126.644 141.492 130.255 141.492 Q133.89 141.492 135.695 137.95 Q137.524 134.385 137.524 127.279 Q137.524 120.149 135.695 116.608 Q133.89 113.043 130.255 113.043 M130.255 109.339 Q136.066 109.339 139.121 113.946 Q142.2 118.529 142.2 127.279 Q142.2 136.006 139.121 140.612 Q136.066 145.195 130.255 145.195 Q124.445 145.195 121.367 140.612 Q118.311 136.006 118.311 127.279 Q118.311 118.529 121.367 113.946 Q124.445 109.339 130.255 109.339 Z" fill="#000000" fill-rule="nonzero" fill-opacity="1" /><path clip-path="url(#clip340)" d="M150.417 138.644 L155.302 138.644 L155.302 144.524 L150.417 144.524 L150.417 138.644 Z" fill="#000000" fill-rule="nonzero" fill-opacity="1" /><path clip-path="url(#clip340)" d="M165.533 109.964 L183.889 109.964 L183.889 113.899 L169.815 113.899 L169.815 122.371 Q170.834 122.024 171.852 121.862 Q172.871 121.677 173.889 121.677 Q179.676 121.677 183.056 124.848 Q186.436 128.02 186.436 133.436 Q186.436 139.015 182.963 142.117 Q179.491 145.195 173.172 145.195 Q170.996 145.195 168.727 144.825 Q166.482 144.455 164.075 143.714 L164.075 139.015 Q166.158 140.149 168.38 140.705 Q170.602 141.26 173.079 141.26 Q177.084 141.26 179.422 139.154 Q181.76 137.047 181.76 133.436 Q181.76 129.825 179.422 127.719 Q177.084 125.612 173.079 125.612 Q171.204 125.612 169.329 126.029 Q167.477 126.445 165.533 127.325 L165.533 109.964 Z" fill="#000000" fill-rule="nonzero" fill-opacity="1" /><path clip-path="url(#clip340)" d="M37.7688 554.655 Q33.822 552.459 31.9441 549.404 Q30.0663 546.348 30.0663 542.21 Q30.0663 536.64 33.9812 533.617 Q37.8643 530.593 45.0575 530.593 L66.5736 530.593 L66.5736 536.481 L45.2485 536.481 Q40.1241 536.481 37.6415 538.295 Q35.1588 540.11 35.1588 543.834 Q35.1588 548.385 38.1825 551.027 Q41.2062 553.669 46.4261 553.669 L66.5736 553.669 L66.5736 559.557 L45.2485 559.557 Q40.0922 559.557 37.6415 561.371 Q35.1588 563.185 35.1588 566.973 Q35.1588 571.461 38.2144 574.102 Q41.2381 576.744 46.4261 576.744 L66.5736 576.744 L66.5736 582.633 L30.9256 582.633 L30.9256 576.744 L36.4638 576.744 Q33.1855 574.739 31.6259 571.938 Q30.0663 569.137 30.0663 565.286 Q30.0663 561.403 32.0396 558.697 Q34.013 555.96 37.7688 554.655 Z" fill="#000000" fill-rule="nonzero" fill-opacity="1" /><path clip-path="url(#clip340)" d="M48.6541 502.711 Q48.6541 509.809 50.2774 512.546 Q51.9006 515.283 55.8155 515.283 Q58.9347 515.283 60.7808 513.246 Q62.595 511.177 62.595 507.644 Q62.595 502.775 59.1575 499.846 Q55.6882 496.886 49.9591 496.886 L48.6541 496.886 L48.6541 502.711 M46.2352 491.03 L66.5736 491.03 L66.5736 496.886 L61.1627 496.886 Q64.4092 498.892 65.9688 501.884 Q67.4966 504.875 67.4966 509.204 Q67.4966 514.679 64.4411 517.925 Q61.3537 521.14 56.1975 521.14 Q50.1819 521.14 47.1264 517.129 Q44.0708 513.087 44.0708 505.098 L44.0708 496.886 L43.4979 496.886 Q39.4557 496.886 37.2595 499.56 Q35.0315 502.202 35.0315 507.008 Q35.0315 510.063 35.7636 512.96 Q36.4956 515.856 37.9597 518.53 L32.5489 518.53 Q31.3076 515.315 30.7028 512.291 Q30.0663 509.268 30.0663 506.403 Q30.0663 498.669 34.0767 494.849 Q38.0871 491.03 46.2352 491.03 Z" fill="#000000" fill-rule="nonzero" fill-opacity="1" /><path clip-path="url(#clip340)" d="M48.3358 455.509 Q41.9701 455.509 38.469 458.151 Q34.9679 460.761 34.9679 465.504 Q34.9679 470.214 38.469 472.856 Q41.9701 475.466 48.3358 475.466 Q54.6697 475.466 58.1709 472.856 Q61.672 470.214 61.672 465.504 Q61.672 460.761 58.1709 458.151 Q54.6697 455.509 48.3358 455.509 M62.1494 449.653 Q71.2524 449.653 75.6765 453.695 Q80.1325 457.737 80.1325 466.076 Q80.1325 469.164 79.6551 471.901 Q79.2095 474.638 78.2547 477.216 L72.5574 477.216 Q73.9578 474.638 74.6262 472.124 Q75.2946 469.609 75.2946 466.999 Q75.2946 461.238 72.2709 458.374 Q69.279 455.509 63.1998 455.509 L60.3034 455.509 Q63.4544 457.324 65.014 460.156 Q66.5736 462.989 66.5736 466.936 Q66.5736 473.492 61.5765 477.503 Q56.5794 481.513 48.3358 481.513 Q40.0604 481.513 35.0633 477.503 Q30.0663 473.492 30.0663 466.936 Q30.0663 462.989 31.6259 460.156 Q33.1855 457.324 36.3365 455.509 L30.9256 455.509 L30.9256 449.653 L62.1494 449.653 Z" fill="#000000" fill-rule="nonzero" fill-opacity="1" /><path clip-path="url(#clip340)" d="M45.0575 407.958 L66.5736 407.958 L66.5736 413.814 L45.2485 413.814 Q40.1877 413.814 37.6733 415.787 Q35.1588 417.761 35.1588 421.707 Q35.1588 426.45 38.1825 429.187 Q41.2062 431.924 46.4261 431.924 L66.5736 431.924 L66.5736 437.813 L30.9256 437.813 L30.9256 431.924 L36.4638 431.924 Q33.2491 429.824 31.6577 426.991 Q30.0663 424.126 30.0663 420.402 Q30.0663 414.26 33.8857 411.109 Q37.6733 407.958 45.0575 407.958 Z" fill="#000000" fill-rule="nonzero" fill-opacity="1" /><path clip-path="url(#clip340)" d="M30.9256 396.276 L30.9256 390.42 L66.5736 390.42 L66.5736 396.276 L30.9256 396.276 M17.0484 396.276 L17.0484 390.42 L24.4644 390.42 L24.4644 396.276 L17.0484 396.276 Z" fill="#000000" fill-rule="nonzero" fill-opacity="1" /><path clip-path="url(#clip340)" d="M20.8042 372.373 L30.9256 372.373 L30.9256 360.31 L35.4771 360.31 L35.4771 372.373 L54.8289 372.373 Q59.1894 372.373 60.4307 371.196 Q61.672 369.986 61.672 366.326 L61.672 360.31 L66.5736 360.31 L66.5736 366.326 Q66.5736 373.105 64.0591 375.683 Q61.5129 378.262 54.8289 378.262 L35.4771 378.262 L35.4771 382.558 L30.9256 382.558 L30.9256 378.262 L20.8042 378.262 L20.8042 372.373 Z" fill="#000000" fill-rule="nonzero" fill-opacity="1" /><path clip-path="url(#clip340)" d="M52.5054 353.212 L30.9256 353.212 L30.9256 347.356 L52.2826 347.356 Q57.3433 347.356 59.8896 345.383 Q62.4041 343.409 62.4041 339.463 Q62.4041 334.72 59.3803 331.983 Q56.3566 329.214 51.1367 329.214 L30.9256 329.214 L30.9256 323.357 L66.5736 323.357 L66.5736 329.214 L61.0991 329.214 Q64.3456 331.346 65.937 334.179 Q67.4966 336.98 67.4966 340.704 Q67.4966 346.847 63.6772 350.03 Q59.8578 353.212 52.5054 353.212 M30.0663 338.476 L30.0663 338.476 Z" fill="#000000" fill-rule="nonzero" fill-opacity="1" /><path clip-path="url(#clip340)" d="M36.3365 287.837 L17.0484 287.837 L17.0484 281.98 L66.5736 281.98 L66.5736 287.837 L61.2264 287.837 Q64.4092 289.683 65.9688 292.515 Q67.4966 295.316 67.4966 299.263 Q67.4966 305.724 62.3404 309.798 Q57.1842 313.841 48.7814 313.841 Q40.3787 313.841 35.2225 309.798 Q30.0663 305.724 30.0663 299.263 Q30.0663 295.316 31.6259 292.515 Q33.1536 289.683 36.3365 287.837 M48.7814 307.793 Q55.2426 307.793 58.9347 305.151 Q62.595 302.478 62.595 297.831 Q62.595 293.184 58.9347 290.51 Q55.2426 287.837 48.7814 287.837 Q42.3202 287.837 38.66 290.51 Q34.9679 293.184 34.9679 297.831 Q34.9679 302.478 38.66 305.151 Q42.3202 307.793 48.7814 307.793 Z" fill="#000000" fill-rule="nonzero" fill-opacity="1" /><path clip-path="url(#clip340)" d="M47.2855 239.425 L50.1501 239.425 L50.1501 266.352 Q56.1975 265.97 59.3803 262.724 Q62.5314 259.446 62.5314 253.621 Q62.5314 250.247 61.7038 247.096 Q60.8763 243.913 59.2212 240.794 L64.7594 240.794 Q66.0962 243.945 66.7964 247.255 Q67.4966 250.565 67.4966 253.971 Q67.4966 262.501 62.5314 267.498 Q57.5661 272.463 49.0997 272.463 Q40.3469 272.463 35.2225 267.753 Q30.0663 263.01 30.0663 254.99 Q30.0663 247.796 34.7132 243.627 Q39.3284 239.425 47.2855 239.425 M45.5668 245.282 Q40.7606 245.346 37.8961 247.987 Q35.0315 250.597 35.0315 254.926 Q35.0315 259.828 37.8006 262.788 Q40.5697 265.716 45.5986 266.161 L45.5668 245.282 Z" fill="#000000" fill-rule="nonzero" fill-opacity="1" /><polyline clip-path="url(#clip342)" style="stroke:#0000ff; stroke-linecap:round; stroke-linejoin:round; stroke-width:6; stroke-opacity:1; fill:none" points="282.728,214.417 292.776,214.367 302.825,214.219 312.874,213.974 322.922,213.635 332.971,213.205 343.02,212.691 353.069,212.097 363.117,211.433 373.166,210.708 383.215,209.933 393.263,209.12 403.312,208.286 413.361,207.446 423.409,206.622 433.458,205.836 443.507,205.114 453.555,204.486 463.604,203.984 473.653,203.647 483.701,203.517 493.75,203.642 503.799,204.076 513.847,204.877 523.896,206.113 533.945,207.856 543.993,210.19 554.042,213.201 564.091,216.987 574.14,221.654 584.188,227.313 594.237,234.085 604.286,242.095 614.334,251.472 624.383,262.349 634.432,274.857 644.48,289.121 654.529,305.261 664.578,323.377 674.626,343.551 684.675,365.838 694.724,390.256 704.772,416.778 714.821,445.325 724.87,475.753 734.918,507.835 744.967,541.224 755.016,575.358 765.064,609.119 775.113,639.351 785.162,654.385 795.21,639.351 805.259,609.119 815.308,575.358 825.357,541.224 835.405,507.835 845.454,475.753 855.503,445.325 865.551,416.778 875.6,390.256 885.649,365.838 895.697,343.551 905.746,323.377 915.795,305.261 925.843,289.121 935.892,274.857 945.941,262.349 955.989,251.472 966.038,242.095 976.087,234.085 986.135,227.313 996.184,221.654 1006.23,216.987 1016.28,213.201 1026.33,210.19 1036.38,207.856 1046.43,206.113 1056.48,204.877 1066.52,204.076 1076.57,203.642 1086.62,203.517 1096.67,203.647 1106.72,203.984 1116.77,204.486 1126.82,205.114 1136.87,205.836 1146.91,206.622 1156.96,207.446 1167.01,208.286 1177.06,209.12 1187.11,209.933 1197.16,210.708 1207.21,211.433 1217.26,212.097 1227.3,212.691 1237.35,213.205 1247.4,213.635 1257.45,213.974 1267.5,214.219 1277.55,214.367 1287.6,214.417 1297.64,214.367 1307.69,214.219 1317.74,213.974 1327.79,213.635 1337.84,213.205 1347.89,212.691 1357.94,212.097 1367.99,211.433 1378.03,210.708 1388.08,209.933 1398.13,209.12 1408.18,208.286 1418.23,207.446 1428.28,206.622 1438.33,205.836 1448.37,205.114 1458.42,204.486 1468.47,203.984 1478.52,203.647 1488.57,203.517 1498.62,203.642 1508.67,204.076 1518.72,204.877 1528.76,206.113 1538.81,207.856 1548.86,210.19 1558.91,213.201 1568.96,216.987 1579.01,221.654 1589.06,227.313 1599.1,234.085 1609.15,242.095 1619.2,251.472 1629.25,262.349 1639.3,274.857 1649.35,289.121 1659.4,305.261 1669.45,323.377 1679.49,343.551 1689.54,365.838 1699.59,390.256 1709.64,416.778 1719.69,445.325 1729.74,475.753 1739.79,507.835 1749.84,541.224 1759.88,575.358 1769.93,609.119 1779.98,639.351 1790.03,654.385 1800.08,639.351 1810.13,609.119 1820.18,575.358 1830.22,541.224 1840.27,507.835 1850.32,475.753 1860.37,445.325 1870.42,416.778 1880.47,390.256 1890.52,365.838 1900.57,343.551 1910.61,323.377 1920.66,305.261 1930.71,289.121 1940.76,274.857 1950.81,262.349 1960.86,251.472 1970.91,242.095 1980.95,234.085 1991,227.313 2001.05,221.654 2011.1,216.987 2021.15,213.201 2031.2,210.19 2041.25,207.856 2051.3,206.113 2061.34,204.877 2071.39,204.076 2081.44,203.642 2091.49,203.517 2101.54,203.647 2111.59,203.984 2121.64,204.486 2131.68,205.114 2141.73,205.836 2151.78,206.622 2161.83,207.446 2171.88,208.286 2181.93,209.12 2191.98,209.933 2202.03,210.708 2212.07,211.433 2222.12,212.097 2232.17,212.691 2242.22,213.205 2252.27,213.635 2262.32,213.974 2272.37,214.219 2282.42,214.367 2292.46,214.417 "/>
<polyline clip-path="url(#clip342)" style="stroke:#ff0000; stroke-linecap:round; stroke-linejoin:round; stroke-width:6; stroke-opacity:1; fill:none" points="282.728,254.924 292.776,266.331 302.825,279.41 312.874,294.288 322.922,311.075 332.971,329.87 343.02,350.744 353.069,373.741 363.117,398.865 373.166,426.074 383.215,455.268 393.263,486.277 403.312,518.841 413.361,552.558 423.409,586.739 433.458,619.879 443.507,647.102 453.555,652.445 463.604,630.078 473.653,598.025 483.701,563.948 493.75,529.978 503.799,496.975 513.847,465.413 523.896,435.591 533.945,407.707 543.993,381.88 554.042,358.173 564.091,336.594 574.14,317.113 584.188,299.666 594.237,284.164 604.286,270.498 614.334,258.549 624.383,248.186 634.432,239.279 644.48,231.696 654.529,225.309 664.578,219.994 674.626,215.633 684.675,212.116 694.724,209.341 704.772,207.214 714.821,205.648 724.87,204.565 734.918,203.893 744.967,203.569 755.016,203.535 765.064,203.739 775.113,204.135 785.162,204.683 795.21,205.346 805.259,206.093 815.308,206.894 825.357,207.726 835.405,208.565 845.454,209.394 855.503,210.196 865.551,210.956 875.6,211.662 885.649,212.303 895.697,212.871 905.746,213.358 915.795,213.758 925.843,214.066 935.892,214.279 945.941,214.395 955.989,214.411 966.038,214.329 976.087,214.148 986.135,213.871 996.184,213.501 1006.23,213.043 1016.28,212.501 1026.33,211.884 1036.38,211.198 1046.43,210.455 1056.48,209.665 1066.52,208.844 1076.57,208.006 1086.62,207.169 1096.67,206.355 1106.72,205.587 1116.77,204.893 1126.82,204.303 1136.87,203.852 1146.91,203.579 1156.96,203.528 1167.01,203.75 1177.06,204.299 1187.11,205.237 1197.16,206.634 1207.21,208.564 1217.26,211.113 1227.3,214.372 1237.35,218.44 1247.4,223.424 1257.45,229.441 1267.5,236.611 1277.55,245.062 1287.6,254.924 1297.64,266.331 1307.69,279.41 1317.74,294.288 1327.79,311.075 1337.84,329.87 1347.89,350.744 1357.94,373.741 1367.99,398.865 1378.03,426.074 1388.08,455.268 1398.13,486.277 1408.18,518.841 1418.23,552.558 1428.28,586.739 1438.33,619.879 1448.37,647.102 1458.42,652.445 1468.47,630.078 1478.52,598.025 1488.57,563.948 1498.62,529.978 1508.67,496.975 1518.72,465.413 1528.76,435.591 1538.81,407.707 1548.86,381.88 1558.91,358.173 1568.96,336.594 1579.01,317.113 1589.06,299.666 1599.1,284.164 1609.15,270.498 1619.2,258.549 1629.25,248.186 1639.3,239.279 1649.35,231.696 1659.4,225.309 1669.45,219.994 1679.49,215.633 1689.54,212.116 1699.59,209.341 1709.64,207.214 1719.69,205.648 1729.74,204.565 1739.79,203.893 1749.84,203.569 1759.88,203.535 1769.93,203.739 1779.98,204.135 1790.03,204.683 1800.08,205.346 1810.13,206.093 1820.18,206.894 1830.22,207.726 1840.27,208.565 1850.32,209.394 1860.37,210.196 1870.42,210.956 1880.47,211.662 1890.52,212.303 1900.57,212.871 1910.61,213.358 1920.66,213.758 1930.71,214.066 1940.76,214.279 1950.81,214.395 1960.86,214.411 1970.91,214.329 1980.95,214.148 1991,213.871 2001.05,213.501 2011.1,213.043 2021.15,212.501 2031.2,211.884 2041.25,211.198 2051.3,210.455 2061.34,209.665 2071.39,208.844 2081.44,208.006 2091.49,207.169 2101.54,206.355 2111.59,205.587 2121.64,204.893 2131.68,204.303 2141.73,203.852 2151.78,203.579 2161.83,203.528 2171.88,203.75 2181.93,204.299 2191.98,205.237 2202.03,206.634 2212.07,208.564 2222.12,211.113 2232.17,214.372 2242.22,218.44 2252.27,223.424 2262.32,229.441 2272.37,236.611 2282.42,245.062 2292.46,254.924 "/>
<polyline clip-path="url(#clip342)" style="stroke:#000000; stroke-linecap:round; stroke-linejoin:round; stroke-width:6; stroke-opacity:1; fill:none" points="282.728,654.385 292.776,639.351 302.825,609.119 312.874,575.358 322.922,541.224 332.971,507.835 343.02,475.753 353.069,445.325 363.117,416.778 373.166,390.256 383.215,365.838 393.263,343.551 403.312,323.377 413.361,305.261 423.409,289.121 433.458,274.857 443.507,262.349 453.555,251.472 463.604,242.095 473.653,234.085 483.701,227.313 493.75,221.654 503.799,216.987 513.847,213.201 523.896,210.19 533.945,207.856 543.993,206.113 554.042,204.877 564.091,204.076 574.14,203.642 584.188,203.517 594.237,203.647 604.286,203.984 614.334,204.486 624.383,205.114 634.432,205.836 644.48,206.622 654.529,207.446 664.578,208.286 674.626,209.12 684.675,209.933 694.724,210.708 704.772,211.433 714.821,212.097 724.87,212.691 734.918,213.205 744.967,213.635 755.016,213.974 765.064,214.219 775.113,214.367 785.162,214.417 795.21,214.367 805.259,214.219 815.308,213.974 825.357,213.635 835.405,213.205 845.454,212.691 855.503,212.097 865.551,211.433 875.6,210.708 885.649,209.933 895.697,209.12 905.746,208.286 915.795,207.446 925.843,206.622 935.892,205.836 945.941,205.114 955.989,204.486 966.038,203.984 976.087,203.647 986.135,203.517 996.184,203.642 1006.23,204.076 1016.28,204.877 1026.33,206.113 1036.38,207.856 1046.43,210.19 1056.48,213.201 1066.52,216.987 1076.57,221.654 1086.62,227.313 1096.67,234.085 1106.72,242.095 1116.77,251.472 1126.82,262.349 1136.87,274.857 1146.91,289.121 1156.96,305.261 1167.01,323.377 1177.06,343.551 1187.11,365.838 1197.16,390.256 1207.21,416.778 1217.26,445.325 1227.3,475.753 1237.35,507.835 1247.4,541.224 1257.45,575.358 1267.5,609.119 1277.55,639.351 1287.6,654.385 1297.64,639.351 1307.69,609.119 1317.74,575.358 1327.79,541.224 1337.84,507.835 1347.89,475.753 1357.94,445.325 1367.99,416.778 1378.03,390.256 1388.08,365.838 1398.13,343.551 1408.18,323.377 1418.23,305.261 1428.28,289.121 1438.33,274.857 1448.37,262.349 1458.42,251.472 1468.47,242.095 1478.52,234.085 1488.57,227.313 1498.62,221.654 1508.67,216.987 1518.72,213.201 1528.76,210.19 1538.81,207.856 1548.86,206.113 1558.91,204.877 1568.96,204.076 1579.01,203.642 1589.06,203.517 1599.1,203.647 1609.15,203.984 1619.2,204.486 1629.25,205.114 1639.3,205.836 1649.35,206.622 1659.4,207.446 1669.45,208.286 1679.49,209.12 1689.54,209.933 1699.59,210.708 1709.64,211.433 1719.69,212.097 1729.74,212.691 1739.79,213.205 1749.84,213.635 1759.88,213.974 1769.93,214.219 1779.98,214.367 1790.03,214.417 1800.08,214.367 1810.13,214.219 1820.18,213.974 1830.22,213.635 1840.27,213.205 1850.32,212.691 1860.37,212.097 1870.42,211.433 1880.47,210.708 1890.52,209.933 1900.57,209.12 1910.61,208.286 1920.66,207.446 1930.71,206.622 1940.76,205.836 1950.81,205.114 1960.86,204.486 1970.91,203.984 1980.95,203.647 1991,203.517 2001.05,203.642 2011.1,204.076 2021.15,204.877 2031.2,206.113 2041.25,207.856 2051.3,210.19 2061.34,213.201 2071.39,216.987 2081.44,221.654 2091.49,227.313 2101.54,234.085 2111.59,242.095 2121.64,251.472 2131.68,262.349 2141.73,274.857 2151.78,289.121 2161.83,305.261 2171.88,323.377 2181.93,343.551 2191.98,365.838 2202.03,390.256 2212.07,416.778 2222.12,445.325 2232.17,475.753 2242.22,507.835 2252.27,541.224 2262.32,575.358 2272.37,609.119 2282.42,639.351 2292.46,654.385 "/>
<path clip-path="url(#clip340)" d="M222.436 1423.18 L2352.76 1423.18 L2352.76 855.61 L222.436 855.61  Z" fill="#ffffff" fill-rule="evenodd" fill-opacity="1"/>
<defs>
  <clipPath id="clip343">
    <rect x="222" y="855" width="2131" height="569"/>
  </clipPath>
</defs>
<polyline clip-path="url(#clip343)" style="stroke:#000000; stroke-linecap:round; stroke-linejoin:round; stroke-width:2; stroke-opacity:0.1; fill:none" points="222.436,1423.18 222.436,855.61 "/>
<polyline clip-path="url(#clip343)" style="stroke:#000000; stroke-linecap:round; stroke-linejoin:round; stroke-width:2; stroke-opacity:0.1; fill:none" points="755.016,1423.18 755.016,855.61 "/>
<polyline clip-path="url(#clip343)" style="stroke:#000000; stroke-linecap:round; stroke-linejoin:round; stroke-width:2; stroke-opacity:0.1; fill:none" points="1287.6,1423.18 1287.6,855.61 "/>
<polyline clip-path="url(#clip343)" style="stroke:#000000; stroke-linecap:round; stroke-linejoin:round; stroke-width:2; stroke-opacity:0.1; fill:none" points="1820.18,1423.18 1820.18,855.61 "/>
<polyline clip-path="url(#clip343)" style="stroke:#000000; stroke-linecap:round; stroke-linejoin:round; stroke-width:2; stroke-opacity:0.1; fill:none" points="2352.76,1423.18 2352.76,855.61 "/>
<polyline clip-path="url(#clip343)" style="stroke:#000000; stroke-linecap:round; stroke-linejoin:round; stroke-width:2; stroke-opacity:0.1; fill:none" points="222.436,1423.18 2352.76,1423.18 "/>
<polyline clip-path="url(#clip343)" style="stroke:#000000; stroke-linecap:round; stroke-linejoin:round; stroke-width:2; stroke-opacity:0.1; fill:none" points="222.436,1139.39 2352.76,1139.39 "/>
<polyline clip-path="url(#clip343)" style="stroke:#000000; stroke-linecap:round; stroke-linejoin:round; stroke-width:2; stroke-opacity:0.1; fill:none" points="222.436,855.61 2352.76,855.61 "/>
<polyline clip-path="url(#clip340)" style="stroke:#000000; stroke-linecap:round; stroke-linejoin:round; stroke-width:4; stroke-opacity:1; fill:none" points="222.436,1423.18 2352.76,1423.18 "/>
<polyline clip-path="url(#clip340)" style="stroke:#000000; stroke-linecap:round; stroke-linejoin:round; stroke-width:4; stroke-opacity:1; fill:none" points="222.436,1423.18 222.436,1404.28 "/>
<polyline clip-path="url(#clip340)" style="stroke:#000000; stroke-linecap:round; stroke-linejoin:round; stroke-width:4; stroke-opacity:1; fill:none" points="755.016,1423.18 755.016,1404.28 "/>
<polyline clip-path="url(#clip340)" style="stroke:#000000; stroke-linecap:round; stroke-linejoin:round; stroke-width:4; stroke-opacity:1; fill:none" points="1287.6,1423.18 1287.6,1404.28 "/>
<polyline clip-path="url(#clip340)" style="stroke:#000000; stroke-linecap:round; stroke-linejoin:round; stroke-width:4; stroke-opacity:1; fill:none" points="1820.18,1423.18 1820.18,1404.28 "/>
<polyline clip-path="url(#clip340)" style="stroke:#000000; stroke-linecap:round; stroke-linejoin:round; stroke-width:4; stroke-opacity:1; fill:none" points="2352.76,1423.18 2352.76,1404.28 "/>
<path clip-path="url(#clip340)" d="M186.348 1470.7 L198.825 1470.7 L198.825 1474.49 L186.348 1474.49 L186.348 1470.7 Z" fill="#000000" fill-rule="nonzero" fill-opacity="1" /><path clip-path="url(#clip340)" d="M210.237 1481.64 L226.556 1481.64 L226.556 1485.58 L204.612 1485.58 L204.612 1481.64 Q207.274 1478.89 211.857 1474.26 Q216.464 1469.61 217.644 1468.27 Q219.889 1465.74 220.769 1464.01 Q221.672 1462.25 221.672 1460.56 Q221.672 1457.8 219.727 1456.07 Q217.806 1454.33 214.704 1454.33 Q212.505 1454.33 210.052 1455.09 Q207.621 1455.86 204.843 1457.41 L204.843 1452.69 Q207.667 1451.55 210.121 1450.97 Q212.575 1450.39 214.612 1450.39 Q219.982 1450.39 223.176 1453.08 Q226.371 1455.77 226.371 1460.26 Q226.371 1462.39 225.561 1464.31 Q224.774 1466.2 222.667 1468.8 Q222.088 1469.47 218.987 1472.69 Q215.885 1475.88 210.237 1481.64 Z" fill="#000000" fill-rule="nonzero" fill-opacity="1" /><path clip-path="url(#clip340)" d="M233.014 1459.65 L257.852 1459.65 L257.852 1463.91 L254.588 1463.91 L254.588 1479.84 Q254.588 1481.51 255.144 1482.25 Q255.723 1482.96 256.996 1482.96 Q257.343 1482.96 257.852 1482.92 Q258.361 1482.85 258.523 1482.83 L258.523 1485.9 Q257.713 1486.2 256.857 1486.34 Q256 1486.48 255.144 1486.48 Q252.366 1486.48 251.301 1484.98 Q250.236 1483.45 250.236 1479.38 L250.236 1463.91 L240.676 1463.91 L240.676 1485.58 L236.325 1485.58 L236.325 1463.91 L233.014 1463.91 L233.014 1459.65 Z" fill="#000000" fill-rule="nonzero" fill-opacity="1" /><path clip-path="url(#clip340)" d="M718.928 1470.7 L731.405 1470.7 L731.405 1474.49 L718.928 1474.49 L718.928 1470.7 Z" fill="#000000" fill-rule="nonzero" fill-opacity="1" /><path clip-path="url(#clip340)" d="M739.599 1481.64 L747.238 1481.64 L747.238 1455.28 L738.928 1456.95 L738.928 1452.69 L747.192 1451.02 L751.868 1451.02 L751.868 1481.64 L759.506 1481.64 L759.506 1485.58 L739.599 1485.58 L739.599 1481.64 Z" fill="#000000" fill-rule="nonzero" fill-opacity="1" /><path clip-path="url(#clip340)" d="M765.594 1459.65 L790.432 1459.65 L790.432 1463.91 L787.168 1463.91 L787.168 1479.84 Q787.168 1481.51 787.724 1482.25 Q788.303 1482.96 789.576 1482.96 Q789.923 1482.96 790.432 1482.92 Q790.941 1482.85 791.104 1482.83 L791.104 1485.9 Q790.293 1486.2 789.437 1486.34 Q788.58 1486.48 787.724 1486.48 Q784.946 1486.48 783.881 1484.98 Q782.817 1483.45 782.817 1479.38 L782.817 1463.91 L773.256 1463.91 L773.256 1485.58 L768.905 1485.58 L768.905 1463.91 L765.594 1463.91 L765.594 1459.65 Z" fill="#000000" fill-rule="nonzero" fill-opacity="1" /><path clip-path="url(#clip340)" d="M1272.41 1454.1 Q1268.8 1454.1 1266.97 1457.66 Q1265.17 1461.2 1265.17 1468.33 Q1265.17 1475.44 1266.97 1479.01 Q1268.8 1482.55 1272.41 1482.55 Q1276.04 1482.55 1277.85 1479.01 Q1279.68 1475.44 1279.68 1468.33 Q1279.68 1461.2 1277.85 1457.66 Q1276.04 1454.1 1272.41 1454.1 M1272.41 1450.39 Q1278.22 1450.39 1281.28 1455 Q1284.36 1459.58 1284.36 1468.33 Q1284.36 1477.06 1281.28 1481.67 Q1278.22 1486.25 1272.41 1486.25 Q1266.6 1486.25 1263.52 1481.67 Q1260.47 1477.06 1260.47 1468.33 Q1260.47 1459.58 1263.52 1455 Q1266.6 1450.39 1272.41 1450.39 Z" fill="#000000" fill-rule="nonzero" fill-opacity="1" /><path clip-path="url(#clip340)" d="M1289.22 1459.65 L1314.05 1459.65 L1314.05 1463.91 L1310.79 1463.91 L1310.79 1479.84 Q1310.79 1481.51 1311.35 1482.25 Q1311.92 1482.96 1313.2 1482.96 Q1313.54 1482.96 1314.05 1482.92 Q1314.56 1482.85 1314.73 1482.83 L1314.73 1485.9 Q1313.92 1486.2 1313.06 1486.34 Q1312.2 1486.48 1311.35 1486.48 Q1308.57 1486.48 1307.5 1484.98 Q1306.44 1483.45 1306.44 1479.38 L1306.44 1463.91 L1296.88 1463.91 L1296.88 1485.58 L1292.53 1485.58 L1292.53 1463.91 L1289.22 1463.91 L1289.22 1459.65 Z" fill="#000000" fill-rule="nonzero" fill-opacity="1" /><path clip-path="url(#clip340)" d="M1794.76 1481.64 L1802.4 1481.64 L1802.4 1455.28 L1794.09 1456.95 L1794.09 1452.69 L1802.35 1451.02 L1807.03 1451.02 L1807.03 1481.64 L1814.67 1481.64 L1814.67 1485.58 L1794.76 1485.58 L1794.76 1481.64 Z" fill="#000000" fill-rule="nonzero" fill-opacity="1" /><path clip-path="url(#clip340)" d="M1820.75 1459.65 L1845.59 1459.65 L1845.59 1463.91 L1842.33 1463.91 L1842.33 1479.84 Q1842.33 1481.51 1842.88 1482.25 Q1843.46 1482.96 1844.74 1482.96 Q1845.08 1482.96 1845.59 1482.92 Q1846.1 1482.85 1846.26 1482.83 L1846.26 1485.9 Q1845.45 1486.2 1844.6 1486.34 Q1843.74 1486.48 1842.88 1486.48 Q1840.11 1486.48 1839.04 1484.98 Q1837.98 1483.45 1837.98 1479.38 L1837.98 1463.91 L1828.42 1463.91 L1828.42 1485.58 L1824.06 1485.58 L1824.06 1463.91 L1820.75 1463.91 L1820.75 1459.65 Z" fill="#000000" fill-rule="nonzero" fill-opacity="1" /><path clip-path="url(#clip340)" d="M2331.43 1481.64 L2347.74 1481.64 L2347.74 1485.58 L2325.8 1485.58 L2325.8 1481.64 Q2328.46 1478.89 2333.05 1474.26 Q2337.65 1469.61 2338.83 1468.27 Q2341.08 1465.74 2341.96 1464.01 Q2342.86 1462.25 2342.86 1460.56 Q2342.86 1457.8 2340.92 1456.07 Q2338.99 1454.33 2335.89 1454.33 Q2333.69 1454.33 2331.24 1455.09 Q2328.81 1455.86 2326.03 1457.41 L2326.03 1452.69 Q2328.86 1451.55 2331.31 1450.97 Q2333.76 1450.39 2335.8 1450.39 Q2341.17 1450.39 2344.36 1453.08 Q2347.56 1455.77 2347.56 1460.26 Q2347.56 1462.39 2346.75 1464.31 Q2345.96 1466.2 2343.86 1468.8 Q2343.28 1469.47 2340.17 1472.69 Q2337.07 1475.88 2331.43 1481.64 Z" fill="#000000" fill-rule="nonzero" fill-opacity="1" /><path clip-path="url(#clip340)" d="M2354.2 1459.65 L2379.04 1459.65 L2379.04 1463.91 L2375.78 1463.91 L2375.78 1479.84 Q2375.78 1481.51 2376.33 1482.25 Q2376.91 1482.96 2378.18 1482.96 Q2378.53 1482.96 2379.04 1482.92 Q2379.55 1482.85 2379.71 1482.83 L2379.71 1485.9 Q2378.9 1486.2 2378.05 1486.34 Q2377.19 1486.48 2376.33 1486.48 Q2373.55 1486.48 2372.49 1484.98 Q2371.42 1483.45 2371.42 1479.38 L2371.42 1463.91 L2361.86 1463.91 L2361.86 1485.58 L2357.51 1485.58 L2357.51 1463.91 L2354.2 1463.91 L2354.2 1459.65 Z" fill="#000000" fill-rule="nonzero" fill-opacity="1" /><path clip-path="url(#clip340)" d="M810.534 1562.7 L810.534 1581.6 L804.646 1581.6 L804.646 1532.4 L810.534 1532.4 L810.534 1537.81 Q812.38 1534.62 815.181 1533.1 Q818.014 1531.54 821.928 1531.54 Q828.421 1531.54 832.464 1536.69 Q836.538 1541.85 836.538 1550.25 Q836.538 1558.65 832.464 1563.81 Q828.421 1568.97 821.928 1568.97 Q818.014 1568.97 815.181 1567.44 Q812.38 1565.88 810.534 1562.7 M830.458 1550.25 Q830.458 1543.79 827.785 1540.13 Q825.143 1536.44 820.496 1536.44 Q815.849 1536.44 813.176 1540.13 Q810.534 1543.79 810.534 1550.25 Q810.534 1556.71 813.176 1560.4 Q815.849 1564.07 820.496 1564.07 Q825.143 1564.07 827.785 1560.4 Q830.458 1556.71 830.458 1550.25 Z" fill="#000000" fill-rule="nonzero" fill-opacity="1" /><path clip-path="url(#clip340)" d="M875.878 1546.53 L875.878 1568.04 L870.021 1568.04 L870.021 1546.72 Q870.021 1541.66 868.048 1539.14 Q866.075 1536.63 862.128 1536.63 Q857.385 1536.63 854.648 1539.65 Q851.911 1542.68 851.911 1547.9 L851.911 1568.04 L846.023 1568.04 L846.023 1518.52 L851.911 1518.52 L851.911 1537.93 Q854.012 1534.72 856.844 1533.13 Q859.709 1531.54 863.433 1531.54 Q869.576 1531.54 872.727 1535.36 Q875.878 1539.14 875.878 1546.53 Z" fill="#000000" fill-rule="nonzero" fill-opacity="1" /><path clip-path="url(#clip340)" d="M903.76 1550.12 Q896.662 1550.12 893.925 1551.75 Q891.187 1553.37 891.187 1557.29 Q891.187 1560.4 893.224 1562.25 Q895.293 1564.07 898.826 1564.07 Q903.696 1564.07 906.624 1560.63 Q909.584 1557.16 909.584 1551.43 L909.584 1550.12 L903.76 1550.12 M915.441 1547.71 L915.441 1568.04 L909.584 1568.04 L909.584 1562.63 Q907.579 1565.88 904.587 1567.44 Q901.595 1568.97 897.267 1568.97 Q891.792 1568.97 888.546 1565.91 Q885.331 1562.82 885.331 1557.67 Q885.331 1551.65 889.341 1548.6 Q893.384 1545.54 901.372 1545.54 L909.584 1545.54 L909.584 1544.97 Q909.584 1540.93 906.911 1538.73 Q904.269 1536.5 899.463 1536.5 Q896.407 1536.5 893.511 1537.23 Q890.614 1537.97 887.941 1539.43 L887.941 1534.02 Q891.156 1532.78 894.179 1532.17 Q897.203 1531.54 900.067 1531.54 Q907.802 1531.54 911.621 1535.55 Q915.441 1539.56 915.441 1547.71 Z" fill="#000000" fill-rule="nonzero" fill-opacity="1" /><path clip-path="url(#clip340)" d="M950.229 1533.45 L950.229 1538.98 Q947.747 1537.71 945.073 1537.07 Q942.399 1536.44 939.535 1536.44 Q935.174 1536.44 932.978 1537.77 Q930.814 1539.11 930.814 1541.79 Q930.814 1543.82 932.373 1545 Q933.933 1546.15 938.644 1547.2 L940.649 1547.64 Q946.887 1548.98 949.497 1551.43 Q952.139 1553.85 952.139 1558.21 Q952.139 1563.17 948.192 1566.07 Q944.277 1568.97 937.402 1568.97 Q934.538 1568.97 931.419 1568.39 Q928.331 1567.85 924.894 1566.74 L924.894 1560.69 Q928.14 1562.38 931.291 1563.24 Q934.442 1564.07 937.53 1564.07 Q941.667 1564.07 943.895 1562.66 Q946.123 1561.23 946.123 1558.65 Q946.123 1556.27 944.5 1554.99 Q942.909 1553.72 937.466 1552.54 L935.429 1552.07 Q929.986 1550.92 927.567 1548.56 Q925.148 1546.18 925.148 1542.04 Q925.148 1537.01 928.713 1534.27 Q932.278 1531.54 938.835 1531.54 Q942.081 1531.54 944.946 1532.01 Q947.81 1532.49 950.229 1533.45 Z" fill="#000000" fill-rule="nonzero" fill-opacity="1" /><path clip-path="url(#clip340)" d="M991.956 1548.76 L991.956 1551.62 L965.03 1551.62 Q965.411 1557.67 968.658 1560.85 Q971.936 1564 977.761 1564 Q981.135 1564 984.286 1563.17 Q987.469 1562.35 990.588 1560.69 L990.588 1566.23 Q987.437 1567.57 984.127 1568.27 Q980.816 1568.97 977.411 1568.97 Q968.881 1568.97 963.884 1564 Q958.918 1559.04 958.918 1550.57 Q958.918 1541.82 963.629 1536.69 Q968.372 1531.54 976.392 1531.54 Q983.586 1531.54 987.755 1536.18 Q991.956 1540.8 991.956 1548.76 M986.1 1547.04 Q986.036 1542.23 983.395 1539.37 Q980.785 1536.5 976.456 1536.5 Q971.554 1536.5 968.594 1539.27 Q965.666 1542.04 965.221 1547.07 L986.1 1547.04 Z" fill="#000000" fill-rule="nonzero" fill-opacity="1" /><path clip-path="url(#clip340)" d="M1052.78 1548.76 L1052.78 1551.62 L1025.85 1551.62 Q1026.24 1557.67 1029.48 1560.85 Q1032.76 1564 1038.59 1564 Q1041.96 1564 1045.11 1563.17 Q1048.29 1562.35 1051.41 1560.69 L1051.41 1566.23 Q1048.26 1567.57 1044.95 1568.27 Q1041.64 1568.97 1038.24 1568.97 Q1029.71 1568.97 1024.71 1564 Q1019.74 1559.04 1019.74 1550.57 Q1019.74 1541.82 1024.45 1536.69 Q1029.2 1531.54 1037.22 1531.54 Q1044.41 1531.54 1048.58 1536.18 Q1052.78 1540.8 1052.78 1548.76 M1046.92 1547.04 Q1046.86 1542.23 1044.22 1539.37 Q1041.61 1536.5 1037.28 1536.5 Q1032.38 1536.5 1029.42 1539.27 Q1026.49 1542.04 1026.04 1547.07 L1046.92 1547.04 Z" fill="#000000" fill-rule="nonzero" fill-opacity="1" /><path clip-path="url(#clip340)" d="M1058.19 1532.4 L1064.4 1532.4 L1075.54 1562.31 L1086.68 1532.4 L1092.88 1532.4 L1079.52 1568.04 L1071.56 1568.04 L1058.19 1532.4 Z" fill="#000000" fill-rule="nonzero" fill-opacity="1" /><path clip-path="url(#clip340)" d="M1114.78 1536.5 Q1110.07 1536.5 1107.33 1540.19 Q1104.6 1543.85 1104.6 1550.25 Q1104.6 1556.65 1107.3 1560.34 Q1110.04 1564 1114.78 1564 Q1119.46 1564 1122.2 1560.31 Q1124.94 1556.62 1124.94 1550.25 Q1124.94 1543.92 1122.2 1540.23 Q1119.46 1536.5 1114.78 1536.5 M1114.78 1531.54 Q1122.42 1531.54 1126.78 1536.5 Q1131.14 1541.47 1131.14 1550.25 Q1131.14 1559 1126.78 1564 Q1122.42 1568.97 1114.78 1568.97 Q1107.11 1568.97 1102.75 1564 Q1098.42 1559 1098.42 1550.25 Q1098.42 1541.47 1102.75 1536.5 Q1107.11 1531.54 1114.78 1531.54 Z" fill="#000000" fill-rule="nonzero" fill-opacity="1" /><path clip-path="url(#clip340)" d="M1140.85 1518.52 L1146.71 1518.52 L1146.71 1568.04 L1140.85 1568.04 L1140.85 1518.52 Z" fill="#000000" fill-rule="nonzero" fill-opacity="1" /><path clip-path="url(#clip340)" d="M1158.36 1553.98 L1158.36 1532.4 L1164.21 1532.4 L1164.21 1553.75 Q1164.21 1558.81 1166.19 1561.36 Q1168.16 1563.87 1172.11 1563.87 Q1176.85 1563.87 1179.59 1560.85 Q1182.35 1557.83 1182.35 1552.61 L1182.35 1532.4 L1188.21 1532.4 L1188.21 1568.04 L1182.35 1568.04 L1182.35 1562.57 Q1180.22 1565.82 1177.39 1567.41 Q1174.59 1568.97 1170.86 1568.97 Q1164.72 1568.97 1161.54 1565.15 Q1158.36 1561.33 1158.36 1553.98 M1173.09 1531.54 L1173.09 1531.54 Z" fill="#000000" fill-rule="nonzero" fill-opacity="1" /><path clip-path="url(#clip340)" d="M1206.07 1522.27 L1206.07 1532.4 L1218.13 1532.4 L1218.13 1536.95 L1206.07 1536.95 L1206.07 1556.3 Q1206.07 1560.66 1207.24 1561.9 Q1208.45 1563.14 1212.11 1563.14 L1218.13 1563.14 L1218.13 1568.04 L1212.11 1568.04 Q1205.33 1568.04 1202.76 1565.53 Q1200.18 1562.98 1200.18 1556.3 L1200.18 1536.95 L1195.88 1536.95 L1195.88 1532.4 L1200.18 1532.4 L1200.18 1522.27 L1206.07 1522.27 Z" fill="#000000" fill-rule="nonzero" fill-opacity="1" /><path clip-path="url(#clip340)" d="M1225.83 1532.4 L1231.69 1532.4 L1231.69 1568.04 L1225.83 1568.04 L1225.83 1532.4 M1225.83 1518.52 L1231.69 1518.52 L1231.69 1525.93 L1225.83 1525.93 L1225.83 1518.52 Z" fill="#000000" fill-rule="nonzero" fill-opacity="1" /><path clip-path="url(#clip340)" d="M1257.76 1536.5 Q1253.05 1536.5 1250.31 1540.19 Q1247.57 1543.85 1247.57 1550.25 Q1247.57 1556.65 1250.28 1560.34 Q1253.01 1564 1257.76 1564 Q1262.44 1564 1265.17 1560.31 Q1267.91 1556.62 1267.91 1550.25 Q1267.91 1543.92 1265.17 1540.23 Q1262.44 1536.5 1257.76 1536.5 M1257.76 1531.54 Q1265.4 1531.54 1269.76 1536.5 Q1274.12 1541.47 1274.12 1550.25 Q1274.12 1559 1269.76 1564 Q1265.4 1568.97 1257.76 1568.97 Q1250.09 1568.97 1245.73 1564 Q1241.4 1559 1241.4 1550.25 Q1241.4 1541.47 1245.73 1536.5 Q1250.09 1531.54 1257.76 1531.54 Z" fill="#000000" fill-rule="nonzero" fill-opacity="1" /><path clip-path="url(#clip340)" d="M1313.46 1546.53 L1313.46 1568.04 L1307.6 1568.04 L1307.6 1546.72 Q1307.6 1541.66 1305.63 1539.14 Q1303.65 1536.63 1299.71 1536.63 Q1294.96 1536.63 1292.23 1539.65 Q1289.49 1542.68 1289.49 1547.9 L1289.49 1568.04 L1283.6 1568.04 L1283.6 1532.4 L1289.49 1532.4 L1289.49 1537.93 Q1291.59 1534.72 1294.42 1533.13 Q1297.29 1531.54 1301.01 1531.54 Q1307.15 1531.54 1310.31 1535.36 Q1313.46 1539.14 1313.46 1546.53 Z" fill="#000000" fill-rule="nonzero" fill-opacity="1" /><path clip-path="url(#clip340)" d="M1326.63 1559.96 L1333.35 1559.96 L1333.35 1568.04 L1326.63 1568.04 L1326.63 1559.96 M1326.63 1534.34 L1333.35 1534.34 L1333.35 1542.42 L1326.63 1542.42 L1326.63 1534.34 Z" fill="#000000" fill-rule="nonzero" fill-opacity="1" /><path clip-path="url(#clip340)" d="M1391.75 1545.45 L1371.48 1545.45 Q1371.96 1554.96 1374.15 1559 Q1376.89 1563.97 1381.63 1563.97 Q1386.41 1563.97 1389.05 1558.97 Q1391.37 1554.58 1391.75 1545.45 M1391.66 1540.03 Q1390.77 1531 1389.05 1527.81 Q1386.31 1522.78 1381.63 1522.78 Q1376.76 1522.78 1374.19 1527.75 Q1372.15 1531.76 1371.54 1540.03 L1391.66 1540.03 M1381.63 1518.01 Q1389.27 1518.01 1393.63 1524.76 Q1397.99 1531.47 1397.99 1543.38 Q1397.99 1555.25 1393.63 1562 Q1389.27 1568.78 1381.63 1568.78 Q1373.96 1568.78 1369.63 1562 Q1365.27 1555.25 1365.27 1543.38 Q1365.27 1531.47 1369.63 1524.76 Q1373.96 1518.01 1381.63 1518.01 Z" fill="#000000" fill-rule="nonzero" fill-opacity="1" /><path clip-path="url(#clip340)" d="M1429.19 1538.44 L1469.99 1538.44 L1469.99 1543.79 L1429.19 1543.79 L1429.19 1538.44 M1429.19 1551.43 L1469.99 1551.43 L1469.99 1556.84 L1429.19 1556.84 L1429.19 1551.43 Z" fill="#000000" fill-rule="nonzero" fill-opacity="1" /><path clip-path="url(#clip340)" d="M1510.12 1562.63 L1532.56 1562.63 L1532.56 1568.04 L1502.39 1568.04 L1502.39 1562.63 Q1506.05 1558.85 1512.35 1552.48 Q1518.69 1546.08 1520.31 1544.24 Q1523.4 1540.77 1524.61 1538.38 Q1525.85 1535.96 1525.85 1533.64 Q1525.85 1529.85 1523.17 1527.46 Q1520.53 1525.08 1516.27 1525.08 Q1513.24 1525.08 1509.87 1526.13 Q1506.53 1527.18 1502.71 1529.31 L1502.71 1522.82 Q1506.59 1521.26 1509.97 1520.46 Q1513.34 1519.66 1516.14 1519.66 Q1523.52 1519.66 1527.92 1523.36 Q1532.31 1527.05 1532.31 1533.22 Q1532.31 1536.15 1531.2 1538.79 Q1530.11 1541.4 1527.22 1544.97 Q1526.42 1545.89 1522.16 1550.32 Q1517.89 1554.71 1510.12 1562.63 Z" fill="#000000" fill-rule="nonzero" fill-opacity="1" /><path clip-path="url(#clip340)" d="M1541.44 1532.4 L1575.6 1532.4 L1575.6 1538.25 L1571.11 1538.25 L1571.11 1560.15 Q1571.11 1562.44 1571.87 1563.46 Q1572.67 1564.45 1574.42 1564.45 Q1574.9 1564.45 1575.6 1564.38 Q1576.3 1564.29 1576.52 1564.26 L1576.52 1568.49 Q1575.41 1568.9 1574.23 1569.09 Q1573.05 1569.29 1571.87 1569.29 Q1568.05 1569.29 1566.59 1567.22 Q1565.12 1565.12 1565.12 1559.51 L1565.12 1538.25 L1551.98 1538.25 L1551.98 1568.04 L1546 1568.04 L1546 1538.25 L1541.44 1538.25 L1541.44 1532.4 Z" fill="#000000" fill-rule="nonzero" fill-opacity="1" /><path clip-path="url(#clip340)" d="M1585.3 1541.37 L1592.02 1541.37 L1592.02 1549.46 L1585.3 1549.46 L1585.3 1541.37 Z" fill="#000000" fill-rule="nonzero" fill-opacity="1" /><path clip-path="url(#clip340)" d="M1621.33 1526.86 L1608.28 1562.7 L1634.42 1562.7 L1621.33 1526.86 M1599.56 1568.04 L1617.71 1520.52 L1624.99 1520.52 L1643.1 1568.04 L1599.56 1568.04 Z" fill="#000000" fill-rule="nonzero" fill-opacity="1" /><path clip-path="url(#clip340)" d="M1667.84 1518.52 L1667.84 1523.39 L1662.23 1523.39 Q1659.08 1523.39 1657.84 1524.66 Q1656.63 1525.93 1656.63 1529.24 L1656.63 1532.4 L1666.28 1532.4 L1666.28 1536.95 L1656.63 1536.95 L1656.63 1568.04 L1650.74 1568.04 L1650.74 1536.95 L1645.14 1536.95 L1645.14 1532.4 L1650.74 1532.4 L1650.74 1529.91 Q1650.74 1523.96 1653.51 1521.26 Q1656.28 1518.52 1662.3 1518.52 L1667.84 1518.52 Z" fill="#000000" fill-rule="nonzero" fill-opacity="1" /><path clip-path="url(#clip340)" d="M1673.56 1541.37 L1680.28 1541.37 L1680.28 1549.46 L1673.56 1549.46 L1673.56 1541.37 Z" fill="#000000" fill-rule="nonzero" fill-opacity="1" /><path clip-path="url(#clip340)" d="M1687.12 1520.52 L1727.32 1520.52 L1727.32 1525.93 L1710.45 1525.93 L1710.45 1568.04 L1703.99 1568.04 L1703.99 1525.93 L1687.12 1525.93 L1687.12 1520.52 Z" fill="#000000" fill-rule="nonzero" fill-opacity="1" /><path clip-path="url(#clip340)" d="M1756.06 1545.76 Q1758.13 1546.46 1760.07 1548.76 Q1762.05 1551.05 1764.02 1555.06 L1770.55 1568.04 L1763.64 1568.04 L1757.56 1555.85 Q1755.2 1551.08 1752.98 1549.52 Q1750.78 1547.96 1746.96 1547.96 L1739.96 1547.96 L1739.96 1568.04 L1733.53 1568.04 L1733.53 1520.52 L1748.04 1520.52 Q1756.19 1520.52 1760.2 1523.93 Q1764.21 1527.34 1764.21 1534.21 Q1764.21 1538.7 1762.11 1541.66 Q1760.04 1544.62 1756.06 1545.76 M1739.96 1525.81 L1739.96 1542.68 L1748.04 1542.68 Q1752.69 1542.68 1755.05 1540.54 Q1757.43 1538.38 1757.43 1534.21 Q1757.43 1530.04 1755.05 1527.94 Q1752.69 1525.81 1748.04 1525.81 L1739.96 1525.81 Z" fill="#000000" fill-rule="nonzero" fill-opacity="1" /><polyline clip-path="url(#clip340)" style="stroke:#000000; stroke-linecap:round; stroke-linejoin:round; stroke-width:4; stroke-opacity:1; fill:none" points="222.436,1423.18 222.436,855.61 "/>
<polyline clip-path="url(#clip340)" style="stroke:#000000; stroke-linecap:round; stroke-linejoin:round; stroke-width:4; stroke-opacity:1; fill:none" points="222.436,1423.18 241.333,1423.18 "/>
<polyline clip-path="url(#clip340)" style="stroke:#000000; stroke-linecap:round; stroke-linejoin:round; stroke-width:4; stroke-opacity:1; fill:none" points="222.436,1139.39 241.333,1139.39 "/>
<polyline clip-path="url(#clip340)" style="stroke:#000000; stroke-linecap:round; stroke-linejoin:round; stroke-width:4; stroke-opacity:1; fill:none" points="222.436,855.61 241.333,855.61 "/>
<path clip-path="url(#clip340)" d="M114.26 1425.58 L126.737 1425.58 L126.737 1429.37 L114.26 1429.37 L114.26 1425.58 Z" fill="#000000" fill-rule="nonzero" fill-opacity="1" /><path clip-path="url(#clip340)" d="M134.931 1436.52 L142.57 1436.52 L142.57 1410.16 L134.26 1411.83 L134.26 1407.57 L142.524 1405.9 L147.2 1405.9 L147.2 1436.52 L154.839 1436.52 L154.839 1440.46 L134.931 1440.46 L134.931 1436.52 Z" fill="#000000" fill-rule="nonzero" fill-opacity="1" /><path clip-path="url(#clip340)" d="M160.927 1414.53 L185.764 1414.53 L185.764 1418.79 L182.501 1418.79 L182.501 1434.72 Q182.501 1436.39 183.056 1437.13 Q183.635 1437.84 184.908 1437.84 Q185.255 1437.84 185.764 1437.8 Q186.274 1437.73 186.436 1437.71 L186.436 1440.78 Q185.626 1441.08 184.769 1441.22 Q183.913 1441.36 183.056 1441.36 Q180.278 1441.36 179.214 1439.86 Q178.149 1438.33 178.149 1434.26 L178.149 1418.79 L168.589 1418.79 L168.589 1440.46 L164.237 1440.46 L164.237 1418.79 L160.927 1418.79 L160.927 1414.53 Z" fill="#000000" fill-rule="nonzero" fill-opacity="1" /><path clip-path="url(#clip340)" d="M144.121 1125.19 Q140.51 1125.19 138.681 1128.76 Q136.876 1132.3 136.876 1139.43 Q136.876 1146.54 138.681 1150.1 Q140.51 1153.64 144.121 1153.64 Q147.755 1153.64 149.561 1150.1 Q151.39 1146.54 151.39 1139.43 Q151.39 1132.3 149.561 1128.76 Q147.755 1125.19 144.121 1125.19 M144.121 1121.49 Q149.931 1121.49 152.987 1126.1 Q156.065 1130.68 156.065 1139.43 Q156.065 1148.16 152.987 1152.76 Q149.931 1157.35 144.121 1157.35 Q138.311 1157.35 135.232 1152.76 Q132.177 1148.16 132.177 1139.43 Q132.177 1130.68 135.232 1126.1 Q138.311 1121.49 144.121 1121.49 Z" fill="#000000" fill-rule="nonzero" fill-opacity="1" /><path clip-path="url(#clip340)" d="M160.927 1130.75 L185.764 1130.75 L185.764 1135.01 L182.501 1135.01 L182.501 1150.93 Q182.501 1152.6 183.056 1153.34 Q183.635 1154.06 184.908 1154.06 Q185.255 1154.06 185.764 1154.01 Q186.274 1153.94 186.436 1153.92 L186.436 1157 Q185.626 1157.3 184.769 1157.44 Q183.913 1157.58 183.056 1157.58 Q180.278 1157.58 179.214 1156.07 Q178.149 1154.55 178.149 1150.47 L178.149 1135.01 L168.589 1135.01 L168.589 1156.67 L164.237 1156.67 L164.237 1135.01 L160.927 1135.01 L160.927 1130.75 Z" fill="#000000" fill-rule="nonzero" fill-opacity="1" /><path clip-path="url(#clip340)" d="M134.931 868.955 L142.57 868.955 L142.57 842.589 L134.26 844.256 L134.26 839.997 L142.524 838.33 L147.2 838.33 L147.2 868.955 L154.839 868.955 L154.839 872.89 L134.931 872.89 L134.931 868.955 Z" fill="#000000" fill-rule="nonzero" fill-opacity="1" /><path clip-path="url(#clip340)" d="M160.927 846.964 L185.764 846.964 L185.764 851.224 L182.501 851.224 L182.501 867.149 Q182.501 868.816 183.056 869.557 Q183.635 870.274 184.908 870.274 Q185.255 870.274 185.764 870.228 Q186.274 870.159 186.436 870.135 L186.436 873.214 Q185.626 873.515 184.769 873.654 Q183.913 873.793 183.056 873.793 Q180.278 873.793 179.214 872.288 Q178.149 870.76 178.149 866.686 L178.149 851.224 L168.589 851.224 L168.589 872.89 L164.237 872.89 L164.237 851.224 L160.927 851.224 L160.927 846.964 Z" fill="#000000" fill-rule="nonzero" fill-opacity="1" /><path clip-path="url(#clip340)" d="M29.4065 1315.68 L34.9447 1315.68 Q33.6716 1318.16 33.035 1320.83 Q32.3984 1323.51 32.3984 1326.37 Q32.3984 1330.73 33.7352 1332.93 Q35.072 1335.09 37.7456 1335.09 Q39.7826 1335.09 40.9603 1333.53 Q42.1061 1331.97 43.1565 1327.26 L43.6021 1325.26 Q44.9389 1319.02 47.3897 1316.41 Q49.8086 1313.77 54.1691 1313.77 Q59.1344 1313.77 62.0308 1317.71 Q64.9272 1321.63 64.9272 1328.5 Q64.9272 1331.37 64.3543 1334.49 Q63.8132 1337.58 62.6992 1341.01 L56.6518 1341.01 Q58.3387 1337.77 59.198 1334.62 Q60.0256 1331.46 60.0256 1328.38 Q60.0256 1324.24 58.6251 1322.01 Q57.1929 1319.78 54.6147 1319.78 Q52.2276 1319.78 50.9545 1321.41 Q49.6813 1323 48.5037 1328.44 L48.0262 1330.48 Q46.8804 1335.92 44.5251 1338.34 Q42.138 1340.76 38.0002 1340.76 Q32.9713 1340.76 30.2341 1337.19 Q27.4968 1333.63 27.4968 1327.07 Q27.4968 1323.83 27.9743 1320.96 Q28.4517 1318.1 29.4065 1315.68 Z" fill="#000000" fill-rule="nonzero" fill-opacity="1" /><path clip-path="url(#clip340)" d="M28.3562 1304.44 L28.3562 1298.59 L64.0042 1298.59 L64.0042 1304.44 L28.3562 1304.44 M14.479 1304.44 L14.479 1298.59 L21.895 1298.59 L21.895 1304.44 L14.479 1304.44 Z" fill="#000000" fill-rule="nonzero" fill-opacity="1" /><path clip-path="url(#clip340)" d="M45.7664 1262.87 Q39.4007 1262.87 35.8996 1265.52 Q32.3984 1268.13 32.3984 1272.87 Q32.3984 1277.58 35.8996 1280.22 Q39.4007 1282.83 45.7664 1282.83 Q52.1003 1282.83 55.6014 1280.22 Q59.1026 1277.58 59.1026 1272.87 Q59.1026 1268.13 55.6014 1265.52 Q52.1003 1262.87 45.7664 1262.87 M59.58 1257.02 Q68.683 1257.02 73.1071 1261.06 Q77.5631 1265.1 77.5631 1273.44 Q77.5631 1276.53 77.0857 1279.27 Q76.6401 1282 75.6852 1284.58 L69.9879 1284.58 Q71.3884 1282 72.0568 1279.49 Q72.7252 1276.97 72.7252 1274.36 Q72.7252 1268.6 69.7015 1265.74 Q66.7096 1262.87 60.6303 1262.87 L57.7339 1262.87 Q60.885 1264.69 62.4446 1267.52 Q64.0042 1270.35 64.0042 1274.3 Q64.0042 1280.86 59.0071 1284.87 Q54.01 1288.88 45.7664 1288.88 Q37.491 1288.88 32.4939 1284.87 Q27.4968 1280.86 27.4968 1274.3 Q27.4968 1270.35 29.0564 1267.52 Q30.616 1264.69 33.7671 1262.87 L28.3562 1262.87 L28.3562 1257.02 L59.58 1257.02 Z" fill="#000000" fill-rule="nonzero" fill-opacity="1" /><path clip-path="url(#clip340)" d="M42.4881 1215.32 L64.0042 1215.32 L64.0042 1221.18 L42.679 1221.18 Q37.6183 1221.18 35.1038 1223.15 Q32.5894 1225.13 32.5894 1229.07 Q32.5894 1233.81 35.6131 1236.55 Q38.6368 1239.29 43.8567 1239.29 L64.0042 1239.29 L64.0042 1245.18 L28.3562 1245.18 L28.3562 1239.29 L33.8944 1239.29 Q30.6797 1237.19 29.0883 1234.36 Q27.4968 1231.49 27.4968 1227.77 Q27.4968 1221.62 31.3163 1218.47 Q35.1038 1215.32 42.4881 1215.32 Z" fill="#000000" fill-rule="nonzero" fill-opacity="1" /><path clip-path="url(#clip340)" d="M46.0847 1187.44 Q46.0847 1194.54 47.7079 1197.28 Q49.3312 1200.01 53.2461 1200.01 Q56.3653 1200.01 58.2114 1197.98 Q60.0256 1195.91 60.0256 1192.37 Q60.0256 1187.5 56.5881 1184.58 Q53.1188 1181.62 47.3897 1181.62 L46.0847 1181.62 L46.0847 1187.44 M43.6657 1175.76 L64.0042 1175.76 L64.0042 1181.62 L58.5933 1181.62 Q61.8398 1183.62 63.3994 1186.61 Q64.9272 1189.6 64.9272 1193.93 Q64.9272 1199.41 61.8716 1202.65 Q58.7843 1205.87 53.6281 1205.87 Q47.6125 1205.87 44.5569 1201.86 Q41.5014 1197.82 41.5014 1189.83 L41.5014 1181.62 L40.9285 1181.62 Q36.8862 1181.62 34.6901 1184.29 Q32.4621 1186.93 32.4621 1191.74 Q32.4621 1194.79 33.1941 1197.69 Q33.9262 1200.59 35.3903 1203.26 L29.9795 1203.26 Q28.7381 1200.04 28.1334 1197.02 Q27.4968 1194 27.4968 1191.13 Q27.4968 1183.4 31.5072 1179.58 Q35.5176 1175.76 43.6657 1175.76 Z" fill="#000000" fill-rule="nonzero" fill-opacity="1" /><path clip-path="url(#clip340)" d="M14.479 1163.7 L14.479 1157.84 L64.0042 1157.84 L64.0042 1163.7 L14.479 1163.7 Z" fill="#000000" fill-rule="nonzero" fill-opacity="1" /><path clip-path="url(#clip340)" d="M58.657 1119.2 L77.5631 1119.2 L77.5631 1125.09 L28.3562 1125.09 L28.3562 1119.2 L33.7671 1119.2 Q30.5842 1117.35 29.0564 1114.55 Q27.4968 1111.72 27.4968 1107.81 Q27.4968 1101.31 32.6531 1097.27 Q37.8093 1093.2 46.212 1093.2 Q54.6147 1093.2 59.771 1097.27 Q64.9272 1101.31 64.9272 1107.81 Q64.9272 1111.72 63.3994 1114.55 Q61.8398 1117.35 58.657 1119.2 M46.212 1099.28 Q39.7508 1099.28 36.0905 1101.95 Q32.3984 1104.59 32.3984 1109.24 Q32.3984 1113.88 36.0905 1116.56 Q39.7508 1119.2 46.212 1119.2 Q52.6732 1119.2 56.3653 1116.56 Q60.0256 1113.88 60.0256 1109.24 Q60.0256 1104.59 56.3653 1101.95 Q52.6732 1099.28 46.212 1099.28 Z" fill="#000000" fill-rule="nonzero" fill-opacity="1" /><path clip-path="url(#clip340)" d="M42.4881 1053.86 L64.0042 1053.86 L64.0042 1059.71 L42.679 1059.71 Q37.6183 1059.71 35.1038 1061.69 Q32.5894 1063.66 32.5894 1067.61 Q32.5894 1072.35 35.6131 1075.09 Q38.6368 1077.82 43.8567 1077.82 L64.0042 1077.82 L64.0042 1083.71 L14.479 1083.71 L14.479 1077.82 L33.8944 1077.82 Q30.6797 1075.72 29.0883 1072.89 Q27.4968 1070.02 27.4968 1066.3 Q27.4968 1060.16 31.3163 1057.01 Q35.1038 1053.86 42.4881 1053.86 Z" fill="#000000" fill-rule="nonzero" fill-opacity="1" /><path clip-path="url(#clip340)" d="M46.0847 1025.97 Q46.0847 1033.07 47.7079 1035.81 Q49.3312 1038.55 53.2461 1038.55 Q56.3653 1038.55 58.2114 1036.51 Q60.0256 1034.44 60.0256 1030.91 Q60.0256 1026.04 56.5881 1023.11 Q53.1188 1020.15 47.3897 1020.15 L46.0847 1020.15 L46.0847 1025.97 M43.6657 1014.29 L64.0042 1014.29 L64.0042 1020.15 L58.5933 1020.15 Q61.8398 1022.15 63.3994 1025.15 Q64.9272 1028.14 64.9272 1032.47 Q64.9272 1037.94 61.8716 1041.19 Q58.7843 1044.4 53.6281 1044.4 Q47.6125 1044.4 44.5569 1040.39 Q41.5014 1036.35 41.5014 1028.36 L41.5014 1020.15 L40.9285 1020.15 Q36.8862 1020.15 34.6901 1022.82 Q32.4621 1025.46 32.4621 1030.27 Q32.4621 1033.33 33.1941 1036.22 Q33.9262 1039.12 35.3903 1041.79 L29.9795 1041.79 Q28.7381 1038.58 28.1334 1035.55 Q27.4968 1032.53 27.4968 1029.67 Q27.4968 1021.93 31.5072 1018.11 Q35.5176 1014.29 43.6657 1014.29 Z" fill="#000000" fill-rule="nonzero" fill-opacity="1" /><path clip-path="url(#clip340)" d="M29.4065 979.504 L34.9447 979.504 Q33.6716 981.987 33.035 984.661 Q32.3984 987.334 32.3984 990.199 Q32.3984 994.559 33.7352 996.755 Q35.072 998.92 37.7456 998.92 Q39.7826 998.92 40.9603 997.36 Q42.1061 995.801 43.1565 991.09 L43.6021 989.085 Q44.9389 982.846 47.3897 980.236 Q49.8086 977.595 54.1691 977.595 Q59.1344 977.595 62.0308 981.541 Q64.9272 985.456 64.9272 992.331 Q64.9272 995.196 64.3543 998.315 Q63.8132 1001.4 62.6992 1004.84 L56.6518 1004.84 Q58.3387 1001.59 59.198 998.442 Q60.0256 995.291 60.0256 992.204 Q60.0256 988.066 58.6251 985.838 Q57.1929 983.61 54.6147 983.61 Q52.2276 983.61 50.9545 985.233 Q49.6813 986.825 48.5037 992.268 L48.0262 994.305 Q46.8804 999.747 44.5251 1002.17 Q42.138 1004.59 38.0002 1004.59 Q32.9713 1004.59 30.2341 1001.02 Q27.4968 997.456 27.4968 990.899 Q27.4968 987.652 27.9743 984.788 Q28.4517 981.923 29.4065 979.504 Z" fill="#000000" fill-rule="nonzero" fill-opacity="1" /><path clip-path="url(#clip340)" d="M44.7161 937.777 L47.5806 937.777 L47.5806 964.704 Q53.6281 964.322 56.8109 961.076 Q59.9619 957.797 59.9619 951.973 Q59.9619 948.599 59.1344 945.448 Q58.3069 942.265 56.6518 939.146 L62.1899 939.146 Q63.5267 942.297 64.227 945.607 Q64.9272 948.917 64.9272 952.323 Q64.9272 960.853 59.9619 965.85 Q54.9967 970.815 46.5303 970.815 Q37.7774 970.815 32.6531 966.105 Q27.4968 961.362 27.4968 953.341 Q27.4968 946.148 32.1438 941.978 Q36.7589 937.777 44.7161 937.777 M42.9973 943.634 Q38.1912 943.697 35.3266 946.339 Q32.4621 948.949 32.4621 953.278 Q32.4621 958.179 35.2312 961.139 Q38.0002 964.067 43.0292 964.513 L42.9973 943.634 Z" fill="#000000" fill-rule="nonzero" fill-opacity="1" /><polyline clip-path="url(#clip343)" style="stroke:#0000ff; stroke-linecap:round; stroke-linejoin:round; stroke-width:6; stroke-opacity:1; fill:none" points="222.436,855.61 233.087,855.705 243.739,855.799 254.39,855.895 265.042,855.99 275.694,856.087 286.345,856.184 296.997,856.283 307.649,856.383 318.3,856.485 328.952,856.588 339.603,856.694 350.255,856.802 360.907,856.913 371.558,857.026 382.21,857.144 392.861,857.265 403.513,857.39 414.165,857.52 424.816,857.655 435.468,857.796 446.119,857.944 456.771,858.099 467.423,858.263 478.074,858.436 488.726,858.619 499.377,858.814 510.029,859.023 520.681,859.247 531.332,859.488 541.984,859.75 552.635,860.036 563.287,860.349 573.939,860.694 584.59,861.078 595.242,861.509 605.893,861.996 616.545,862.552 627.197,863.194 637.848,863.947 648.5,864.841 659.151,865.925 669.803,867.268 680.455,868.977 691.106,871.231 701.758,874.341 712.409,878.906 723.061,886.223 733.713,899.607 744.364,929.199 755.016,997.503 765.667,1065.81 776.319,1095.4 786.971,1108.78 797.622,1116.1 808.274,1120.66 818.925,1123.77 829.577,1126.03 840.229,1127.74 850.88,1129.08 861.532,1130.16 872.183,1131.06 882.835,1131.81 893.487,1132.45 904.138,1133.01 914.79,1133.5 925.441,1133.93 936.093,1134.31 946.745,1134.66 957.396,1134.97 968.048,1135.26 978.699,1135.52 989.351,1135.76 1000,1135.98 1010.65,1136.19 1021.31,1136.39 1031.96,1136.57 1042.61,1136.74 1053.26,1136.91 1063.91,1137.06 1074.56,1137.21 1085.22,1137.35 1095.87,1137.49 1106.52,1137.62 1117.17,1137.74 1127.82,1137.86 1138.47,1137.98 1149.12,1138.09 1159.78,1138.2 1170.43,1138.31 1181.08,1138.42 1191.73,1138.52 1202.38,1138.62 1213.03,1138.72 1223.69,1138.82 1234.34,1138.92 1244.99,1139.01 1255.64,1139.11 1266.29,1139.21 1276.94,1139.3 1287.6,1139.39 1298.25,1139.49 1308.9,1139.58 1319.55,1139.68 1330.2,1139.78 1340.85,1139.87 1351.51,1139.97 1362.16,1140.07 1372.81,1140.17 1383.46,1140.27 1394.11,1140.37 1404.76,1140.48 1415.42,1140.59 1426.07,1140.7 1436.72,1140.81 1447.37,1140.93 1458.02,1141.05 1468.67,1141.17 1479.32,1141.3 1489.98,1141.44 1500.63,1141.58 1511.28,1141.73 1521.93,1141.88 1532.58,1142.05 1543.23,1142.22 1553.89,1142.4 1564.54,1142.6 1575.19,1142.81 1585.84,1143.03 1596.49,1143.27 1607.14,1143.53 1617.8,1143.82 1628.45,1144.13 1639.1,1144.48 1649.75,1144.86 1660.4,1145.29 1671.05,1145.78 1681.71,1146.34 1692.36,1146.98 1703.01,1147.73 1713.66,1148.63 1724.31,1149.71 1734.96,1151.05 1745.61,1152.76 1756.27,1155.02 1766.92,1158.13 1777.57,1162.69 1788.22,1170.01 1798.87,1183.39 1809.52,1212.98 1820.18,1281.29 1830.83,1349.59 1841.48,1379.18 1852.13,1392.57 1862.78,1399.88 1873.43,1404.45 1884.09,1407.56 1894.74,1409.81 1905.39,1411.52 1916.04,1412.86 1926.69,1413.95 1937.34,1414.84 1948,1415.6 1958.65,1416.24 1969.3,1416.79 1979.95,1417.28 1990.6,1417.71 2001.25,1418.1 2011.9,1418.44 2022.56,1418.75 2033.21,1419.04 2043.86,1419.3 2054.51,1419.54 2065.16,1419.77 2075.81,1419.98 2086.47,1420.17 2097.12,1420.35 2107.77,1420.53 2118.42,1420.69 2129.07,1420.85 2139.72,1420.99 2150.38,1421.13 2161.03,1421.27 2171.68,1421.4 2182.33,1421.53 2192.98,1421.65 2203.63,1421.76 2214.29,1421.88 2224.94,1421.99 2235.59,1422.1 2246.24,1422.2 2256.89,1422.31 2267.54,1422.41 2278.19,1422.51 2288.85,1422.61 2299.5,1422.7 2310.15,1422.8 2320.8,1422.9 2331.45,1422.99 2342.1,1423.09 2352.76,1423.18 "/>
<polyline clip-path="url(#clip343)" style="stroke:#ff0000; stroke-linecap:round; stroke-linejoin:round; stroke-width:6; stroke-opacity:1; fill:none" points="222.436,1333.79 233.087,1334.19 243.739,1334.64 254.39,1335.15 265.042,1335.73 275.694,1336.41 286.345,1337.2 296.997,1338.15 307.649,1339.31 318.3,1340.76 328.952,1342.63 339.603,1345.13 350.255,1348.63 360.907,1353.91 371.558,1362.71 382.21,1379.74 392.861,1419.78 403.513,930.415 414.165,984.125 424.816,1006.32 435.468,1017.07 446.119,1023.25 456.771,1027.23 467.423,1030.01 478.074,1032.05 488.726,1033.62 499.377,1034.87 510.029,1035.89 520.681,1036.73 531.332,1037.44 541.984,1038.05 552.635,1038.58 563.287,1039.05 573.939,1039.46 584.59,1039.84 595.242,1040.17 605.893,1040.47 616.545,1040.75 627.197,1041 637.848,1041.24 648.5,1041.46 659.151,1041.66 669.803,1041.85 680.455,1042.03 691.106,1042.2 701.758,1042.36 712.409,1042.52 723.061,1042.66 733.713,1042.8 744.364,1042.93 755.016,1043.06 765.667,1043.19 776.319,1043.31 786.971,1043.42 797.622,1043.53 808.274,1043.64 818.925,1043.75 829.577,1043.86 840.229,1043.96 850.88,1044.06 861.532,1044.16 872.183,1044.26 882.835,1044.36 893.487,1044.45 904.138,1044.55 914.79,1044.64 925.441,1044.74 936.093,1044.83 946.745,1044.93 957.396,1045.02 968.048,1045.12 978.699,1045.21 989.351,1045.31 1000,1045.41 1010.65,1045.51 1021.31,1045.61 1031.96,1045.71 1042.61,1045.81 1053.26,1045.92 1063.91,1046.03 1074.56,1046.14 1085.22,1046.25 1095.87,1046.37 1106.52,1046.5 1117.17,1046.62 1127.82,1046.75 1138.47,1046.89 1149.12,1047.03 1159.78,1047.19 1170.43,1047.34 1181.08,1047.51 1191.73,1047.69 1202.38,1047.87 1213.03,1048.07 1223.69,1048.29 1234.34,1048.51 1244.99,1048.76 1255.64,1049.03 1266.29,1049.33 1276.94,1049.65 1287.6,1050.01 1298.25,1050.41 1308.9,1050.85 1319.55,1051.36 1330.2,1051.95 1340.85,1052.62 1351.51,1053.42 1362.16,1054.37 1372.81,1055.53 1383.46,1056.98 1394.11,1058.85 1404.76,1061.34 1415.42,1064.85 1426.07,1070.13 1436.72,1078.92 1447.37,1095.96 1458.02,1136 1468.67,1214.2 1479.32,1267.91 1489.98,1290.11 1500.63,1300.85 1511.28,1307.03 1521.93,1311.01 1532.58,1313.79 1543.23,1315.84 1553.89,1317.41 1564.54,1318.66 1575.19,1319.67 1585.84,1320.51 1596.49,1321.23 1607.14,1321.84 1617.8,1322.37 1628.45,1322.84 1639.1,1323.25 1649.75,1323.62 1660.4,1323.95 1671.05,1324.26 1681.71,1324.53 1692.36,1324.79 1703.01,1325.02 1713.66,1325.24 1724.31,1325.45 1734.96,1325.64 1745.61,1325.82 1756.27,1325.99 1766.92,1326.15 1777.57,1326.3 1788.22,1326.45 1798.87,1326.59 1809.52,1326.72 1820.18,1326.85 1830.83,1326.97 1841.48,1327.09 1852.13,1327.21 1862.78,1327.32 1873.43,1327.43 1884.09,1327.54 1894.74,1327.64 1905.39,1327.74 1916.04,1327.85 1926.69,1327.95 1937.34,1328.04 1948,1328.14 1958.65,1328.24 1969.3,1328.33 1979.95,1328.43 1990.6,1328.52 2001.25,1328.62 2011.9,1328.71 2022.56,1328.81 2033.21,1328.9 2043.86,1329 2054.51,1329.09 2065.16,1329.19 2075.81,1329.29 2086.47,1329.39 2097.12,1329.49 2107.77,1329.6 2118.42,1329.7 2129.07,1329.81 2139.72,1329.92 2150.38,1330.04 2161.03,1330.16 2171.68,1330.28 2182.33,1330.41 2192.98,1330.54 2203.63,1330.68 2214.29,1330.82 2224.94,1330.97 2235.59,1331.13 2246.24,1331.29 2256.89,1331.47 2267.54,1331.66 2278.19,1331.86 2288.85,1332.07 2299.5,1332.3 2310.15,1332.55 2320.8,1332.82 2331.45,1333.11 2342.1,1333.43 2352.76,1333.79 "/>
<polyline clip-path="url(#clip343)" style="stroke:#000000; stroke-linecap:round; stroke-linejoin:round; stroke-width:6; stroke-opacity:1; fill:none" points="222.436,1423.18 233.087,923.914 243.739,953.505 254.39,966.889 265.042,974.207 275.694,978.772 286.345,981.881 296.997,984.135 307.649,985.845 318.3,987.187 328.952,988.271 339.603,989.166 350.255,989.918 360.907,990.561 371.558,991.117 382.21,991.604 392.861,992.034 403.513,992.418 414.165,992.764 424.816,993.077 435.468,993.363 446.119,993.625 456.771,993.866 467.423,994.09 478.074,994.299 488.726,994.494 499.377,994.677 510.029,994.85 520.681,995.013 531.332,995.168 541.984,995.316 552.635,995.457 563.287,995.593 573.939,995.723 584.59,995.848 595.242,995.969 605.893,996.086 616.545,996.2 627.197,996.311 637.848,996.419 648.5,996.525 659.151,996.628 669.803,996.73 680.455,996.83 691.106,996.928 701.758,997.026 712.409,997.122 723.061,997.218 733.713,997.313 744.364,997.408 755.016,997.503 765.667,997.597 776.319,997.692 786.971,997.787 797.622,997.883 808.274,997.979 818.925,998.077 829.577,998.175 840.229,998.275 850.88,998.377 861.532,998.48 872.183,998.586 882.835,998.694 893.487,998.805 904.138,998.919 914.79,999.036 925.441,999.157 936.093,999.282 946.745,999.412 957.396,999.548 968.048,999.689 978.699,999.837 989.351,999.992 1000,1000.16 1010.65,1000.33 1021.31,1000.51 1031.96,1000.71 1042.61,1000.91 1053.26,1001.14 1063.91,1001.38 1074.56,1001.64 1085.22,1001.93 1095.87,1002.24 1106.52,1002.59 1117.17,1002.97 1127.82,1003.4 1138.47,1003.89 1149.12,1004.44 1159.78,1005.09 1170.43,1005.84 1181.08,1006.73 1191.73,1007.82 1202.38,1009.16 1213.03,1010.87 1223.69,1013.12 1234.34,1016.23 1244.99,1020.8 1255.64,1028.12 1266.29,1041.5 1276.94,1071.09 1287.6,1139.39 1298.25,1207.7 1308.9,1237.29 1319.55,1250.67 1330.2,1257.99 1340.85,1262.56 1351.51,1265.67 1362.16,1267.92 1372.81,1269.63 1383.46,1270.97 1394.11,1272.06 1404.76,1272.95 1415.42,1273.7 1426.07,1274.35 1436.72,1274.9 1447.37,1275.39 1458.02,1275.82 1468.67,1276.2 1479.32,1276.55 1489.98,1276.86 1500.63,1277.15 1511.28,1277.41 1521.93,1277.65 1532.58,1277.87 1543.23,1278.08 1553.89,1278.28 1564.54,1278.46 1575.19,1278.63 1585.84,1278.8 1596.49,1278.95 1607.14,1279.1 1617.8,1279.24 1628.45,1279.38 1639.1,1279.51 1649.75,1279.63 1660.4,1279.75 1671.05,1279.87 1681.71,1279.98 1692.36,1280.1 1703.01,1280.2 1713.66,1280.31 1724.31,1280.41 1734.96,1280.51 1745.61,1280.61 1756.27,1280.71 1766.92,1280.81 1777.57,1280.91 1788.22,1281 1798.87,1281.1 1809.52,1281.19 1820.18,1281.29 1830.83,1281.38 1841.48,1281.48 1852.13,1281.57 1862.78,1281.67 1873.43,1281.76 1884.09,1281.86 1894.74,1281.96 1905.39,1282.06 1916.04,1282.16 1926.69,1282.27 1937.34,1282.37 1948,1282.48 1958.65,1282.59 1969.3,1282.7 1979.95,1282.82 1990.6,1282.94 2001.25,1283.07 2011.9,1283.2 2022.56,1283.33 2033.21,1283.47 2043.86,1283.62 2054.51,1283.78 2065.16,1283.94 2075.81,1284.11 2086.47,1284.3 2097.12,1284.49 2107.77,1284.7 2118.42,1284.92 2129.07,1285.17 2139.72,1285.43 2150.38,1285.71 2161.03,1286.03 2171.68,1286.37 2182.33,1286.76 2192.98,1287.19 2203.63,1287.67 2214.29,1288.23 2224.94,1288.87 2235.59,1289.62 2246.24,1290.52 2256.89,1291.6 2267.54,1292.95 2278.19,1294.65 2288.85,1296.91 2299.5,1300.02 2310.15,1304.58 2320.8,1311.9 2331.45,1325.28 2342.1,1354.88 2352.76,855.61 "/>
<path clip-path="url(#clip340)" d="M1894.78 1081.89 L2281.75 1081.89 L2281.75 874.529 L1894.78 874.529  Z" fill="#ffffff" fill-rule="evenodd" fill-opacity="1"/>
<polyline clip-path="url(#clip340)" style="stroke:#000000; stroke-linecap:round; stroke-linejoin:round; stroke-width:4; stroke-opacity:1; fill:none" points="1894.78,1081.89 2281.75,1081.89 2281.75,874.529 1894.78,874.529 1894.78,1081.89 "/>
<polyline clip-path="url(#clip340)" style="stroke:#0000ff; stroke-linecap:round; stroke-linejoin:round; stroke-width:6; stroke-opacity:1; fill:none" points="1918.45,926.369 2060.47,926.369 "/>
<path clip-path="url(#clip340)" d="M2099.97 913.696 L2090.48 939.76 L2109.49 939.76 L2099.97 913.696 M2084.14 943.649 L2097.34 909.089 L2102.64 909.089 L2115.81 943.649 L2084.14 943.649 Z" fill="#000000" fill-rule="nonzero" fill-opacity="1" /><path clip-path="url(#clip340)" d="M2133.89 907.631 L2133.89 917.191 Q2138.49 917.191 2141.57 920.733 Q2144.74 924.344 2144.74 930.709 Q2144.74 937.075 2141.57 940.686 Q2138.49 944.228 2133.89 944.228 L2133.89 953.51 L2129.65 953.51 L2129.65 944.228 Q2125.04 944.228 2121.94 940.686 Q2118.79 937.075 2118.79 930.709 Q2118.79 924.344 2121.94 920.733 Q2125.04 917.191 2129.65 917.191 L2129.65 907.631 L2133.89 907.631 M2133.89 940.431 Q2136.5 940.431 2138.28 938.047 Q2140.23 935.385 2140.25 930.709 Q2140.27 926.08 2138.28 923.371 Q2136.5 920.987 2133.89 920.987 L2133.89 940.431 M2129.65 940.431 L2129.65 920.987 Q2127.03 920.987 2125.27 923.371 Q2123.26 926.08 2123.28 930.709 Q2123.31 935.385 2125.27 938.047 Q2127.03 940.431 2129.65 940.431 Z" fill="#000000" fill-rule="nonzero" fill-opacity="1" /><path clip-path="url(#clip340)" d="M2152.5 922.121 L2182.17 922.121 L2182.17 926.01 L2152.5 926.01 L2152.5 922.121 M2152.5 931.566 L2182.17 931.566 L2182.17 935.501 L2152.5 935.501 L2152.5 931.566 Z" fill="#000000" fill-rule="nonzero" fill-opacity="1" /><path clip-path="url(#clip340)" d="M2188.91 917.723 L2213.75 917.723 L2213.75 921.983 L2210.48 921.983 L2210.48 937.908 Q2210.48 939.575 2211.04 940.316 Q2211.62 941.033 2212.89 941.033 Q2213.24 941.033 2213.75 940.987 Q2214.26 940.918 2214.42 940.894 L2214.42 943.973 Q2213.61 944.274 2212.75 944.413 Q2211.89 944.552 2211.04 944.552 Q2208.26 944.552 2207.2 943.047 Q2206.13 941.519 2206.13 937.445 L2206.13 921.983 L2196.57 921.983 L2196.57 943.649 L2192.22 943.649 L2192.22 921.983 L2188.91 921.983 L2188.91 917.723 Z" fill="#000000" fill-rule="nonzero" fill-opacity="1" /><polyline clip-path="url(#clip340)" style="stroke:#ff0000; stroke-linecap:round; stroke-linejoin:round; stroke-width:6; stroke-opacity:1; fill:none" points="1918.45,978.209 2060.47,978.209 "/>
<path clip-path="url(#clip340)" d="M2099.97 965.536 L2090.48 991.6 L2109.49 991.6 L2099.97 965.536 M2084.14 995.489 L2097.34 960.929 L2102.64 960.929 L2115.81 995.489 L2084.14 995.489 Z" fill="#000000" fill-rule="nonzero" fill-opacity="1" /><path clip-path="url(#clip340)" d="M2133.89 959.471 L2133.89 969.031 Q2138.49 969.031 2141.57 972.573 Q2144.74 976.184 2144.74 982.549 Q2144.74 988.915 2141.57 992.526 Q2138.49 996.068 2133.89 996.068 L2133.89 1005.35 L2129.65 1005.35 L2129.65 996.068 Q2125.04 996.068 2121.94 992.526 Q2118.79 988.915 2118.79 982.549 Q2118.79 976.184 2121.94 972.573 Q2125.04 969.031 2129.65 969.031 L2129.65 959.471 L2133.89 959.471 M2133.89 992.271 Q2136.5 992.271 2138.28 989.887 Q2140.23 987.225 2140.25 982.549 Q2140.27 977.92 2138.28 975.211 Q2136.5 972.827 2133.89 972.827 L2133.89 992.271 M2129.65 992.271 L2129.65 972.827 Q2127.03 972.827 2125.27 975.211 Q2123.26 977.92 2123.28 982.549 Q2123.31 987.225 2125.27 989.887 Q2127.03 992.271 2129.65 992.271 Z" fill="#000000" fill-rule="nonzero" fill-opacity="1" /><path clip-path="url(#clip340)" d="M2152.5 973.961 L2182.17 973.961 L2182.17 977.85 L2152.5 977.85 L2152.5 973.961 M2152.5 983.406 L2182.17 983.406 L2182.17 987.341 L2152.5 987.341 L2152.5 983.406 Z" fill="#000000" fill-rule="nonzero" fill-opacity="1" /><path clip-path="url(#clip340)" d="M2188.91 969.563 L2213.75 969.563 L2213.75 973.823 L2210.48 973.823 L2210.48 989.748 Q2210.48 991.415 2211.04 992.156 Q2211.62 992.873 2212.89 992.873 Q2213.24 992.873 2213.75 992.827 Q2214.26 992.758 2214.42 992.734 L2214.42 995.813 Q2213.61 996.114 2212.75 996.253 Q2211.89 996.392 2211.04 996.392 Q2208.26 996.392 2207.2 994.887 Q2206.13 993.359 2206.13 989.285 L2206.13 973.823 L2196.57 973.823 L2196.57 995.489 L2192.22 995.489 L2192.22 973.823 L2188.91 973.823 L2188.91 969.563 Z" fill="#000000" fill-rule="nonzero" fill-opacity="1" /><path clip-path="url(#clip340)" d="M2227.77 960.929 L2231.71 960.929 L2219.67 999.887 L2215.74 999.887 L2227.77 960.929 Z" fill="#000000" fill-rule="nonzero" fill-opacity="1" /><path clip-path="url(#clip340)" d="M2250.95 976.855 Q2254.3 977.573 2256.18 979.841 Q2258.08 982.11 2258.08 985.443 Q2258.08 990.559 2254.56 993.359 Q2251.04 996.16 2244.56 996.16 Q2242.38 996.16 2240.07 995.721 Q2237.77 995.304 2235.32 994.447 L2235.32 989.934 Q2237.26 991.068 2239.58 991.646 Q2241.89 992.225 2244.42 992.225 Q2248.82 992.225 2251.11 990.489 Q2253.42 988.753 2253.42 985.443 Q2253.42 982.387 2251.27 980.674 Q2249.14 978.938 2245.32 978.938 L2241.29 978.938 L2241.29 975.096 L2245.51 975.096 Q2248.95 975.096 2250.78 973.73 Q2252.61 972.341 2252.61 969.748 Q2252.61 967.086 2250.71 965.674 Q2248.84 964.239 2245.32 964.239 Q2243.4 964.239 2241.2 964.656 Q2239 965.073 2236.36 965.952 L2236.36 961.786 Q2239.02 961.045 2241.34 960.674 Q2243.68 960.304 2245.74 960.304 Q2251.06 960.304 2254.16 962.735 Q2257.26 965.142 2257.26 969.262 Q2257.26 972.133 2255.62 974.123 Q2253.98 976.091 2250.95 976.855 Z" fill="#000000" fill-rule="nonzero" fill-opacity="1" /><polyline clip-path="url(#clip340)" style="stroke:#000000; stroke-linecap:round; stroke-linejoin:round; stroke-width:6; stroke-opacity:1; fill:none" points="1918.45,1030.05 2060.47,1030.05 "/>
<path clip-path="url(#clip340)" d="M2099.97 1017.38 L2090.48 1043.44 L2109.49 1043.44 L2099.97 1017.38 M2084.14 1047.33 L2097.34 1012.77 L2102.64 1012.77 L2115.81 1047.33 L2084.14 1047.33 Z" fill="#000000" fill-rule="nonzero" fill-opacity="1" /><path clip-path="url(#clip340)" d="M2133.89 1011.31 L2133.89 1020.87 Q2138.49 1020.87 2141.57 1024.41 Q2144.74 1028.02 2144.74 1034.39 Q2144.74 1040.76 2141.57 1044.37 Q2138.49 1047.91 2133.89 1047.91 L2133.89 1057.19 L2129.65 1057.19 L2129.65 1047.91 Q2125.04 1047.91 2121.94 1044.37 Q2118.79 1040.76 2118.79 1034.39 Q2118.79 1028.02 2121.94 1024.41 Q2125.04 1020.87 2129.65 1020.87 L2129.65 1011.31 L2133.89 1011.31 M2133.89 1044.11 Q2136.5 1044.11 2138.28 1041.73 Q2140.23 1039.07 2140.25 1034.39 Q2140.27 1029.76 2138.28 1027.05 Q2136.5 1024.67 2133.89 1024.67 L2133.89 1044.11 M2129.65 1044.11 L2129.65 1024.67 Q2127.03 1024.67 2125.27 1027.05 Q2123.26 1029.76 2123.28 1034.39 Q2123.31 1039.07 2125.27 1041.73 Q2127.03 1044.11 2129.65 1044.11 Z" fill="#000000" fill-rule="nonzero" fill-opacity="1" /><path clip-path="url(#clip340)" d="M2152.5 1025.8 L2182.17 1025.8 L2182.17 1029.69 L2152.5 1029.69 L2152.5 1025.8 M2152.5 1035.25 L2182.17 1035.25 L2182.17 1039.18 L2152.5 1039.18 L2152.5 1035.25 Z" fill="#000000" fill-rule="nonzero" fill-opacity="1" /><path clip-path="url(#clip340)" d="M2202.27 1015.85 Q2198.65 1015.85 2196.83 1019.41 Q2195.02 1022.95 2195.02 1030.08 Q2195.02 1037.19 2196.83 1040.76 Q2198.65 1044.3 2202.27 1044.3 Q2205.9 1044.3 2207.7 1040.76 Q2209.53 1037.19 2209.53 1030.08 Q2209.53 1022.95 2207.7 1019.41 Q2205.9 1015.85 2202.27 1015.85 M2202.27 1012.14 Q2208.08 1012.14 2211.13 1016.75 Q2214.21 1021.33 2214.21 1030.08 Q2214.21 1038.81 2211.13 1043.42 Q2208.08 1048 2202.27 1048 Q2196.45 1048 2193.38 1043.42 Q2190.32 1038.81 2190.32 1030.08 Q2190.32 1021.33 2193.38 1016.75 Q2196.45 1012.14 2202.27 1012.14 Z" fill="#000000" fill-rule="nonzero" fill-opacity="1" /><path clip-path="url(#clip340)" d="M222.436 80 L2352.76 80 L2352.76 0 L222.436 0  Z" fill="#ffffff" fill-rule="evenodd" fill-opacity="1"/>
<path clip-path="url(#clip340)" d="M537.993 11.232 L585.502 11.232 L585.502 17.6266 L565.566 17.6266 L565.566 67.392 L557.93 67.392 L557.93 17.6266 L537.993 17.6266 L537.993 11.232 Z" fill="#000000" fill-rule="nonzero" fill-opacity="1" /><path clip-path="url(#clip340)" d="M619.469 41.0611 Q621.914 41.8887 624.208 44.597 Q626.54 47.3053 628.872 52.0449 L636.584 67.392 L628.421 67.392 L621.237 52.9852 Q618.453 47.3429 615.82 45.4998 Q613.224 43.6566 608.711 43.6566 L600.435 43.6566 L600.435 67.392 L592.837 67.392 L592.837 11.232 L609.989 11.232 Q619.619 11.232 624.359 15.2569 Q629.098 19.2817 629.098 27.4067 Q629.098 32.7105 626.616 36.2087 Q624.171 39.707 619.469 41.0611 M600.435 17.4762 L600.435 37.4124 L609.989 37.4124 Q615.481 37.4124 618.265 34.8922 Q621.086 32.3343 621.086 27.4067 Q621.086 22.479 618.265 19.9964 Q615.481 17.4762 609.989 17.4762 L600.435 17.4762 Z" fill="#000000" fill-rule="nonzero" fill-opacity="1" /><path clip-path="url(#clip340)" d="M671.453 32.4095 L719.676 32.4095 L719.676 38.729 L671.453 38.729 L671.453 32.4095 M671.453 47.7567 L719.676 47.7567 L719.676 54.1513 L671.453 54.1513 L671.453 47.7567 Z" fill="#000000" fill-rule="nonzero" fill-opacity="1" /><path clip-path="url(#clip340)" d="M761.881 60.9974 L774.294 60.9974 L774.294 18.1533 L760.79 20.8616 L760.79 13.9403 L774.219 11.232 L781.817 11.232 L781.817 60.9974 L794.23 60.9974 L794.23 67.392 L761.881 67.392 L761.881 60.9974 Z" fill="#000000" fill-rule="nonzero" fill-opacity="1" /><path clip-path="url(#clip340)" d="M825.827 16.2349 Q819.959 16.2349 816.988 22.0277 Q814.054 27.7828 814.054 39.3684 Q814.054 50.9164 816.988 56.7092 Q819.959 62.4644 825.827 62.4644 Q831.733 62.4644 834.667 56.7092 Q837.639 50.9164 837.639 39.3684 Q837.639 27.7828 834.667 22.0277 Q831.733 16.2349 825.827 16.2349 M825.827 10.2164 Q835.269 10.2164 840.234 17.7019 Q845.237 25.1497 845.237 39.3684 Q845.237 53.5495 840.234 61.035 Q835.269 68.4829 825.827 68.4829 Q816.386 68.4829 811.383 61.035 Q806.418 53.5495 806.418 39.3684 Q806.418 25.1497 811.383 17.7019 Q816.386 10.2164 825.827 10.2164 Z" fill="#000000" fill-rule="nonzero" fill-opacity="1" /><path clip-path="url(#clip340)" d="M859.381 57.8377 L867.317 57.8377 L867.317 64.3075 L861.148 76.3445 L856.296 76.3445 L859.381 64.3075 L859.381 57.8377 Z" fill="#000000" fill-rule="nonzero" fill-opacity="1" /><path clip-path="url(#clip340)" d="M899.103 11.232 L946.611 11.232 L946.611 17.6266 L926.675 17.6266 L926.675 67.392 L919.039 67.392 L919.039 17.6266 L899.103 17.6266 L899.103 11.232 Z" fill="#000000" fill-rule="nonzero" fill-opacity="1" /><path clip-path="url(#clip340)" d="M953.946 11.232 L989.455 11.232 L989.455 17.6266 L961.544 17.6266 L961.544 34.2527 L988.289 34.2527 L988.289 40.6474 L961.544 40.6474 L961.544 60.9974 L990.132 60.9974 L990.132 67.392 L953.946 67.392 L953.946 11.232 Z" fill="#000000" fill-rule="nonzero" fill-opacity="1" /><path clip-path="url(#clip340)" d="M1027.71 32.4095 L1075.93 32.4095 L1075.93 38.729 L1027.71 38.729 L1027.71 32.4095 M1027.71 47.7567 L1075.93 47.7567 L1075.93 54.1513 L1027.71 54.1513 L1027.71 47.7567 Z" fill="#000000" fill-rule="nonzero" fill-opacity="1" /><path clip-path="url(#clip340)" d="M1116.9 11.232 L1146.73 11.232 L1146.73 17.6266 L1123.86 17.6266 L1123.86 31.3939 Q1125.51 30.8297 1127.17 30.5664 Q1128.82 30.2655 1130.48 30.2655 Q1139.88 30.2655 1145.37 35.4188 Q1150.86 40.5721 1150.86 49.3742 Q1150.86 58.4395 1145.22 63.48 Q1139.58 68.4829 1129.31 68.4829 Q1125.77 68.4829 1122.09 67.881 Q1118.44 67.2792 1114.53 66.0755 L1114.53 58.4395 Q1117.91 60.2827 1121.52 61.1854 Q1125.13 62.0882 1129.16 62.0882 Q1135.67 62.0882 1139.47 58.6652 Q1143.26 55.2422 1143.26 49.3742 Q1143.26 43.5061 1139.47 40.0831 Q1135.67 36.6601 1129.16 36.6601 Q1126.11 36.6601 1123.07 37.3372 Q1120.06 38.0143 1116.9 39.4437 L1116.9 11.232 Z" fill="#000000" fill-rule="nonzero" fill-opacity="1" /><path clip-path="url(#clip340)" d="M1165.83 57.8377 L1173.77 57.8377 L1173.77 67.392 L1165.83 67.392 L1165.83 57.8377 Z" fill="#000000" fill-rule="nonzero" fill-opacity="1" /><path clip-path="url(#clip340)" d="M1206.57 16.2349 Q1200.7 16.2349 1197.73 22.0277 Q1194.8 27.7828 1194.8 39.3684 Q1194.8 50.9164 1197.73 56.7092 Q1200.7 62.4644 1206.57 62.4644 Q1212.48 62.4644 1215.41 56.7092 Q1218.38 50.9164 1218.38 39.3684 Q1218.38 27.7828 1215.41 22.0277 Q1212.48 16.2349 1206.57 16.2349 M1206.57 10.2164 Q1216.01 10.2164 1220.98 17.7019 Q1225.98 25.1497 1225.98 39.3684 Q1225.98 53.5495 1220.98 61.035 Q1216.01 68.4829 1206.57 68.4829 Q1197.13 68.4829 1192.13 61.035 Q1187.16 53.5495 1187.16 39.3684 Q1187.16 25.1497 1192.13 17.7019 Q1197.13 10.2164 1206.57 10.2164 Z" fill="#000000" fill-rule="nonzero" fill-opacity="1" /><path clip-path="url(#clip340)" d="M1240.12 57.8377 L1248.06 57.8377 L1248.06 64.3075 L1241.89 76.3445 L1237.04 76.3445 L1240.12 64.3075 L1240.12 57.8377 Z" fill="#000000" fill-rule="nonzero" fill-opacity="1" /><path clip-path="url(#clip340)" d="M1279.85 11.232 L1327.36 11.232 L1327.36 17.6266 L1307.42 17.6266 L1307.42 67.392 L1299.78 67.392 L1299.78 17.6266 L1279.85 17.6266 L1279.85 11.232 Z" fill="#000000" fill-rule="nonzero" fill-opacity="1" /><path clip-path="url(#clip340)" d="M1336.68 60.9974 L1349.1 60.9974 L1349.1 18.1533 L1335.59 20.8616 L1335.59 13.9403 L1349.02 11.232 L1356.62 11.232 L1356.62 60.9974 L1369.03 60.9974 L1369.03 67.392 L1336.68 67.392 L1336.68 60.9974 Z" fill="#000000" fill-rule="nonzero" fill-opacity="1" /><path clip-path="url(#clip340)" d="M1408.79 32.4095 L1457.02 32.4095 L1457.02 38.729 L1408.79 38.729 L1408.79 32.4095 M1408.79 47.7567 L1457.02 47.7567 L1457.02 54.1513 L1408.79 54.1513 L1408.79 47.7567 Z" fill="#000000" fill-rule="nonzero" fill-opacity="1" /><path clip-path="url(#clip340)" d="M1504.45 60.9974 L1530.97 60.9974 L1530.97 67.392 L1495.31 67.392 L1495.31 60.9974 Q1499.63 56.5211 1507.08 48.998 Q1514.57 41.4373 1516.49 39.2556 Q1520.14 35.1555 1521.56 32.3343 Q1523.03 29.4755 1523.03 26.7296 Q1523.03 22.2534 1519.87 19.4322 Q1516.75 16.611 1511.71 16.611 Q1508.14 16.611 1504.15 17.8523 Q1500.2 19.0936 1495.68 21.6139 L1495.68 13.9403 Q1500.27 12.0972 1504.26 11.1568 Q1508.25 10.2164 1511.56 10.2164 Q1520.29 10.2164 1525.48 14.5798 Q1530.67 18.9432 1530.67 26.2406 Q1530.67 29.7012 1529.35 32.8233 Q1528.07 35.9078 1524.65 40.1207 Q1523.71 41.2116 1518.67 46.4401 Q1513.63 51.6311 1504.45 60.9974 Z" fill="#000000" fill-rule="nonzero" fill-opacity="1" /><path clip-path="url(#clip340)" d="M1563.17 16.2349 Q1557.3 16.2349 1554.33 22.0277 Q1551.39 27.7828 1551.39 39.3684 Q1551.39 50.9164 1554.33 56.7092 Q1557.3 62.4644 1563.17 62.4644 Q1569.07 62.4644 1572.01 56.7092 Q1574.98 50.9164 1574.98 39.3684 Q1574.98 27.7828 1572.01 22.0277 Q1569.07 16.2349 1563.17 16.2349 M1563.17 10.2164 Q1572.61 10.2164 1577.57 17.7019 Q1582.58 25.1497 1582.58 39.3684 Q1582.58 53.5495 1577.57 61.035 Q1572.61 68.4829 1563.17 68.4829 Q1553.73 68.4829 1548.72 61.035 Q1543.76 53.5495 1543.76 39.3684 Q1543.76 25.1497 1548.72 17.7019 Q1553.73 10.2164 1563.17 10.2164 Z" fill="#000000" fill-rule="nonzero" fill-opacity="1" /><path clip-path="url(#clip340)" d="M1612.18 16.2349 Q1606.31 16.2349 1603.34 22.0277 Q1600.41 27.7828 1600.41 39.3684 Q1600.41 50.9164 1603.34 56.7092 Q1606.31 62.4644 1612.18 62.4644 Q1618.09 62.4644 1621.02 56.7092 Q1623.99 50.9164 1623.99 39.3684 Q1623.99 27.7828 1621.02 22.0277 Q1618.09 16.2349 1612.18 16.2349 M1612.18 10.2164 Q1621.62 10.2164 1626.59 17.7019 Q1631.59 25.1497 1631.59 39.3684 Q1631.59 53.5495 1626.59 61.035 Q1621.62 68.4829 1612.18 68.4829 Q1602.74 68.4829 1597.74 61.035 Q1592.77 53.5495 1592.77 39.3684 Q1592.77 25.1497 1597.74 17.7019 Q1602.74 10.2164 1612.18 10.2164 Z" fill="#000000" fill-rule="nonzero" fill-opacity="1" /><path clip-path="url(#clip340)" d="M1645.73 57.8377 L1653.67 57.8377 L1653.67 64.3075 L1647.5 76.3445 L1642.65 76.3445 L1645.73 64.3075 L1645.73 57.8377 Z" fill="#000000" fill-rule="nonzero" fill-opacity="1" /><path clip-path="url(#clip340)" d="M1685.46 11.232 L1732.96 11.232 L1732.96 17.6266 L1713.03 17.6266 L1713.03 67.392 L1705.39 67.392 L1705.39 17.6266 L1685.46 17.6266 L1685.46 11.232 Z" fill="#000000" fill-rule="nonzero" fill-opacity="1" /><path clip-path="url(#clip340)" d="M1747.52 60.9974 L1774.04 60.9974 L1774.04 67.392 L1738.38 67.392 L1738.38 60.9974 Q1742.71 56.5211 1750.15 48.998 Q1757.64 41.4373 1759.56 39.2556 Q1763.21 35.1555 1764.64 32.3343 Q1766.1 29.4755 1766.1 26.7296 Q1766.1 22.2534 1762.94 19.4322 Q1759.82 16.611 1754.78 16.611 Q1751.21 16.611 1747.22 17.8523 Q1743.27 19.0936 1738.76 21.6139 L1738.76 13.9403 Q1743.35 12.0972 1747.33 11.1568 Q1751.32 10.2164 1754.63 10.2164 Q1763.36 10.2164 1768.55 14.5798 Q1773.74 18.9432 1773.74 26.2406 Q1773.74 29.7012 1772.42 32.8233 Q1771.14 35.9078 1767.72 40.1207 Q1766.78 41.2116 1761.74 46.4401 Q1756.7 51.6311 1747.52 60.9974 Z" fill="#000000" fill-rule="nonzero" fill-opacity="1" /><path clip-path="url(#clip340)" d="M1814.4 32.4095 L1862.62 32.4095 L1862.62 38.729 L1814.4 38.729 L1814.4 32.4095 M1814.4 47.7567 L1862.62 47.7567 L1862.62 54.1513 L1814.4 54.1513 L1814.4 47.7567 Z" fill="#000000" fill-rule="nonzero" fill-opacity="1" /><path clip-path="url(#clip340)" d="M1904.83 60.9974 L1917.24 60.9974 L1917.24 18.1533 L1903.74 20.8616 L1903.74 13.9403 L1917.17 11.232 L1924.77 11.232 L1924.77 60.9974 L1937.18 60.9974 L1937.18 67.392 L1904.83 67.392 L1904.83 60.9974 Z" fill="#000000" fill-rule="nonzero" fill-opacity="1" /><path clip-path="url(#clip340)" d="M1952.6 11.232 L1982.43 11.232 L1982.43 17.6266 L1959.56 17.6266 L1959.56 31.3939 Q1961.21 30.8297 1962.87 30.5664 Q1964.53 30.2655 1966.18 30.2655 Q1975.58 30.2655 1981.08 35.4188 Q1986.57 40.5721 1986.57 49.3742 Q1986.57 58.4395 1980.93 63.48 Q1975.28 68.4829 1965.01 68.4829 Q1961.48 68.4829 1957.79 67.881 Q1954.14 67.2792 1950.23 66.0755 L1950.23 58.4395 Q1953.62 60.2827 1957.23 61.1854 Q1960.84 62.0882 1964.86 62.0882 Q1971.37 62.0882 1975.17 58.6652 Q1978.97 55.2422 1978.97 49.3742 Q1978.97 43.5061 1975.17 40.0831 Q1971.37 36.6601 1964.86 36.6601 Q1961.82 36.6601 1958.77 37.3372 Q1955.76 38.0143 1952.6 39.4437 L1952.6 11.232 Z" fill="#000000" fill-rule="nonzero" fill-opacity="1" /><path clip-path="url(#clip340)" d="M2017.79 16.2349 Q2011.92 16.2349 2008.95 22.0277 Q2006.01 27.7828 2006.01 39.3684 Q2006.01 50.9164 2008.95 56.7092 Q2011.92 62.4644 2017.79 62.4644 Q2023.69 62.4644 2026.63 56.7092 Q2029.6 50.9164 2029.6 39.3684 Q2029.6 27.7828 2026.63 22.0277 Q2023.69 16.2349 2017.79 16.2349 M2017.79 10.2164 Q2027.23 10.2164 2032.2 17.7019 Q2037.2 25.1497 2037.2 39.3684 Q2037.2 53.5495 2032.2 61.035 Q2027.23 68.4829 2017.79 68.4829 Q2008.35 68.4829 2003.34 61.035 Q1998.38 53.5495 1998.38 39.3684 Q1998.38 25.1497 2003.34 17.7019 Q2008.35 10.2164 2017.79 10.2164 Z" fill="#000000" fill-rule="nonzero" fill-opacity="1" /></svg>
