<?xml version="1.0" encoding="utf-8"?>
<svg xmlns="http://www.w3.org/2000/svg" xmlns:xlink="http://www.w3.org/1999/xlink" width="600" height="400" viewBox="0 0 2400 1600">
<defs>
  <clipPath id="clip430">
    <rect x="0" y="0" width="2400" height="1600"/>
  </clipPath>
</defs>
<path clip-path="url(#clip430)" d="M0 1600 L2400 1600 L2400 0 L0 0  Z" fill="#ffffff" fill-rule="evenodd" fill-opacity="1"/>
<defs>
  <clipPath id="clip431">
    <rect x="249" y="0" width="2104" height="81"/>
  </clipPath>
</defs>
<path clip-path="url(#clip430)" d="M249.542 694.814 L2352.76 694.814 L2352.76 127.244 L249.542 127.244  Z" fill="#ffffff" fill-rule="evenodd" fill-opacity="1"/>
<defs>
  <clipPath id="clip432">
    <rect x="249" y="127" width="2104" height="569"/>
  </clipPath>
</defs>
<polyline clip-path="url(#clip432)" style="stroke:#000000; stroke-linecap:round; stroke-linejoin:round; stroke-width:2; stroke-opacity:0.1; fill:none" points="309.067,694.814 309.067,127.244 "/>
<polyline clip-path="url(#clip432)" style="stroke:#000000; stroke-linecap:round; stroke-linejoin:round; stroke-width:2; stroke-opacity:0.1; fill:none" points="805.108,694.814 805.108,127.244 "/>
<polyline clip-path="url(#clip432)" style="stroke:#000000; stroke-linecap:round; stroke-linejoin:round; stroke-width:2; stroke-opacity:0.1; fill:none" points="1301.15,694.814 1301.15,127.244 "/>
<polyline clip-path="url(#clip432)" style="stroke:#000000; stroke-linecap:round; stroke-linejoin:round; stroke-width:2; stroke-opacity:0.1; fill:none" points="1797.19,694.814 1797.19,127.244 "/>
<polyline clip-path="url(#clip432)" style="stroke:#000000; stroke-linecap:round; stroke-linejoin:round; stroke-width:2; stroke-opacity:0.1; fill:none" points="2293.23,694.814 2293.23,127.244 "/>
<polyline clip-path="url(#clip432)" style="stroke:#000000; stroke-linecap:round; stroke-linejoin:round; stroke-width:2; stroke-opacity:0.1; fill:none" points="249.542,694.814 2352.76,694.814 "/>
<polyline clip-path="url(#clip432)" style="stroke:#000000; stroke-linecap:round; stroke-linejoin:round; stroke-width:2; stroke-opacity:0.1; fill:none" points="249.542,552.921 2352.76,552.921 "/>
<polyline clip-path="url(#clip432)" style="stroke:#000000; stroke-linecap:round; stroke-linejoin:round; stroke-width:2; stroke-opacity:0.1; fill:none" points="249.542,411.029 2352.76,411.029 "/>
<polyline clip-path="url(#clip432)" style="stroke:#000000; stroke-linecap:round; stroke-linejoin:round; stroke-width:2; stroke-opacity:0.1; fill:none" points="249.542,269.137 2352.76,269.137 "/>
<polyline clip-path="url(#clip430)" style="stroke:#000000; stroke-linecap:round; stroke-linejoin:round; stroke-width:4; stroke-opacity:1; fill:none" points="249.542,694.814 2352.76,694.814 "/>
<polyline clip-path="url(#clip430)" style="stroke:#000000; stroke-linecap:round; stroke-linejoin:round; stroke-width:4; stroke-opacity:1; fill:none" points="309.067,694.814 309.067,675.916 "/>
<polyline clip-path="url(#clip430)" style="stroke:#000000; stroke-linecap:round; stroke-linejoin:round; stroke-width:4; stroke-opacity:1; fill:none" points="805.108,694.814 805.108,675.916 "/>
<polyline clip-path="url(#clip430)" style="stroke:#000000; stroke-linecap:round; stroke-linejoin:round; stroke-width:4; stroke-opacity:1; fill:none" points="1301.15,694.814 1301.15,675.916 "/>
<polyline clip-path="url(#clip430)" style="stroke:#000000; stroke-linecap:round; stroke-linejoin:round; stroke-width:4; stroke-opacity:1; fill:none" points="1797.19,694.814 1797.19,675.916 "/>
<polyline clip-path="url(#clip430)" style="stroke:#000000; stroke-linecap:round; stroke-linejoin:round; stroke-width:4; stroke-opacity:1; fill:none" points="2293.23,694.814 2293.23,675.916 "/>
<path clip-path="url(#clip430)" d="M272.979 742.33 L285.456 742.33 L285.456 746.126 L272.979 746.126 L272.979 742.33 Z" fill="#000000" fill-rule="nonzero" fill-opacity="1" /><path clip-path="url(#clip430)" d="M296.868 753.279 L313.187 753.279 L313.187 757.214 L291.243 757.214 L291.243 753.279 Q293.905 750.524 298.488 745.894 Q303.095 741.242 304.275 739.899 Q306.521 737.376 307.4 735.64 Q308.303 733.881 308.303 732.191 Q308.303 729.436 306.359 727.7 Q304.437 725.964 301.336 725.964 Q299.136 725.964 296.683 726.728 Q294.252 727.492 291.474 729.043 L291.474 724.321 Q294.299 723.186 296.752 722.608 Q299.206 722.029 301.243 722.029 Q306.613 722.029 309.808 724.714 Q313.002 727.399 313.002 731.89 Q313.002 734.02 312.192 735.941 Q311.405 737.839 309.298 740.432 Q308.72 741.103 305.618 744.32 Q302.516 747.515 296.868 753.279 Z" fill="#000000" fill-rule="nonzero" fill-opacity="1" /><path clip-path="url(#clip430)" d="M319.646 731.288 L344.483 731.288 L344.483 735.547 L341.22 735.547 L341.22 751.473 Q341.22 753.14 341.775 753.881 Q342.354 754.598 343.627 754.598 Q343.974 754.598 344.483 754.552 Q344.993 754.482 345.155 754.459 L345.155 757.538 Q344.345 757.839 343.488 757.978 Q342.632 758.117 341.775 758.117 Q338.997 758.117 337.933 756.612 Q336.868 755.084 336.868 751.01 L336.868 735.547 L327.308 735.547 L327.308 757.214 L322.956 757.214 L322.956 735.547 L319.646 735.547 L319.646 731.288 Z" fill="#000000" fill-rule="nonzero" fill-opacity="1" /><path clip-path="url(#clip430)" d="M769.02 742.33 L781.497 742.33 L781.497 746.126 L769.02 746.126 L769.02 742.33 Z" fill="#000000" fill-rule="nonzero" fill-opacity="1" /><path clip-path="url(#clip430)" d="M789.691 753.279 L797.33 753.279 L797.33 726.913 L789.02 728.58 L789.02 724.321 L797.284 722.654 L801.96 722.654 L801.96 753.279 L809.599 753.279 L809.599 757.214 L789.691 757.214 L789.691 753.279 Z" fill="#000000" fill-rule="nonzero" fill-opacity="1" /><path clip-path="url(#clip430)" d="M815.687 731.288 L840.524 731.288 L840.524 735.547 L837.261 735.547 L837.261 751.473 Q837.261 753.14 837.816 753.881 Q838.395 754.598 839.668 754.598 Q840.015 754.598 840.524 754.552 Q841.034 754.482 841.196 754.459 L841.196 757.538 Q840.386 757.839 839.529 757.978 Q838.673 758.117 837.816 758.117 Q835.038 758.117 833.974 756.612 Q832.909 755.084 832.909 751.01 L832.909 735.547 L823.349 735.547 L823.349 757.214 L818.997 757.214 L818.997 735.547 L815.687 735.547 L815.687 731.288 Z" fill="#000000" fill-rule="nonzero" fill-opacity="1" /><path clip-path="url(#clip430)" d="M1285.96 725.733 Q1282.35 725.733 1280.52 729.297 Q1278.72 732.839 1278.72 739.969 Q1278.72 747.075 1280.52 750.64 Q1282.35 754.181 1285.96 754.181 Q1289.6 754.181 1291.4 750.64 Q1293.23 747.075 1293.23 739.969 Q1293.23 732.839 1291.4 729.297 Q1289.6 725.733 1285.96 725.733 M1285.96 722.029 Q1291.77 722.029 1294.83 726.635 Q1297.91 731.219 1297.91 739.969 Q1297.91 748.695 1294.83 753.302 Q1291.77 757.885 1285.96 757.885 Q1280.15 757.885 1277.08 753.302 Q1274.02 748.695 1274.02 739.969 Q1274.02 731.219 1277.08 726.635 Q1280.15 722.029 1285.96 722.029 Z" fill="#000000" fill-rule="nonzero" fill-opacity="1" /><path clip-path="url(#clip430)" d="M1302.77 731.288 L1327.61 731.288 L1327.61 735.547 L1324.34 735.547 L1324.34 751.473 Q1324.34 753.14 1324.9 753.881 Q1325.48 754.598 1326.75 754.598 Q1327.1 754.598 1327.61 754.552 Q1328.12 754.482 1328.28 754.459 L1328.28 757.538 Q1327.47 757.839 1326.61 757.978 Q1325.76 758.117 1324.9 758.117 Q1322.12 758.117 1321.06 756.612 Q1319.99 755.084 1319.99 751.01 L1319.99 735.547 L1310.43 735.547 L1310.43 757.214 L1306.08 757.214 L1306.08 735.547 L1302.77 735.547 L1302.77 731.288 Z" fill="#000000" fill-rule="nonzero" fill-opacity="1" /><path clip-path="url(#clip430)" d="M1771.77 753.279 L1779.41 753.279 L1779.41 726.913 L1771.1 728.58 L1771.1 724.321 L1779.37 722.654 L1784.04 722.654 L1784.04 753.279 L1791.68 753.279 L1791.68 757.214 L1771.77 757.214 L1771.77 753.279 Z" fill="#000000" fill-rule="nonzero" fill-opacity="1" /><path clip-path="url(#clip430)" d="M1797.77 731.288 L1822.61 731.288 L1822.61 735.547 L1819.34 735.547 L1819.34 751.473 Q1819.34 753.14 1819.9 753.881 Q1820.48 754.598 1821.75 754.598 Q1822.1 754.598 1822.61 754.552 Q1823.12 754.482 1823.28 754.459 L1823.28 757.538 Q1822.47 757.839 1821.61 757.978 Q1820.75 758.117 1819.9 758.117 Q1817.12 758.117 1816.06 756.612 Q1814.99 755.084 1814.99 751.01 L1814.99 735.547 L1805.43 735.547 L1805.43 757.214 L1801.08 757.214 L1801.08 735.547 L1797.77 735.547 L1797.77 731.288 Z" fill="#000000" fill-rule="nonzero" fill-opacity="1" /><path clip-path="url(#clip430)" d="M2271.9 753.279 L2288.22 753.279 L2288.22 757.214 L2266.28 757.214 L2266.28 753.279 Q2268.94 750.524 2273.52 745.894 Q2278.13 741.242 2279.31 739.899 Q2281.55 737.376 2282.43 735.64 Q2283.34 733.881 2283.34 732.191 Q2283.34 729.436 2281.39 727.7 Q2279.47 725.964 2276.37 725.964 Q2274.17 725.964 2271.71 726.728 Q2269.28 727.492 2266.51 729.043 L2266.51 724.321 Q2269.33 723.186 2271.78 722.608 Q2274.24 722.029 2276.28 722.029 Q2281.65 722.029 2284.84 724.714 Q2288.03 727.399 2288.03 731.89 Q2288.03 734.02 2287.22 735.941 Q2286.44 737.839 2284.33 740.432 Q2283.75 741.103 2280.65 744.32 Q2277.55 747.515 2271.9 753.279 Z" fill="#000000" fill-rule="nonzero" fill-opacity="1" /><path clip-path="url(#clip430)" d="M2294.68 731.288 L2319.52 731.288 L2319.52 735.547 L2316.25 735.547 L2316.25 751.473 Q2316.25 753.14 2316.81 753.881 Q2317.39 754.598 2318.66 754.598 Q2319.01 754.598 2319.52 754.552 Q2320.02 754.482 2320.19 754.459 L2320.19 757.538 Q2319.38 757.839 2318.52 757.978 Q2317.66 758.117 2316.81 758.117 Q2314.03 758.117 2312.96 756.612 Q2311.9 755.084 2311.9 751.01 L2311.9 735.547 L2302.34 735.547 L2302.34 757.214 L2297.99 757.214 L2297.99 735.547 L2294.68 735.547 L2294.68 731.288 Z" fill="#000000" fill-rule="nonzero" fill-opacity="1" /><polyline clip-path="url(#clip430)" style="stroke:#000000; stroke-linecap:round; stroke-linejoin:round; stroke-width:4; stroke-opacity:1; fill:none" points="249.542,694.814 249.542,127.244 "/>
<polyline clip-path="url(#clip430)" style="stroke:#000000; stroke-linecap:round; stroke-linejoin:round; stroke-width:4; stroke-opacity:1; fill:none" points="249.542,694.814 268.44,694.814 "/>
<polyline clip-path="url(#clip430)" style="stroke:#000000; stroke-linecap:round; stroke-linejoin:round; stroke-width:4; stroke-opacity:1; fill:none" points="249.542,552.921 268.44,552.921 "/>
<polyline clip-path="url(#clip430)" style="stroke:#000000; stroke-linecap:round; stroke-linejoin:round; stroke-width:4; stroke-opacity:1; fill:none" points="249.542,411.029 268.44,411.029 "/>
<polyline clip-path="url(#clip430)" style="stroke:#000000; stroke-linecap:round; stroke-linejoin:round; stroke-width:4; stroke-opacity:1; fill:none" points="249.542,269.137 268.44,269.137 "/>
<path clip-path="url(#clip430)" d="M126.205 680.613 Q122.593 680.613 120.765 684.177 Q118.959 687.719 118.959 694.849 Q118.959 701.955 120.765 705.52 Q122.593 709.061 126.205 709.061 Q129.839 709.061 131.644 705.52 Q133.473 701.955 133.473 694.849 Q133.473 687.719 131.644 684.177 Q129.839 680.613 126.205 680.613 M126.205 676.909 Q132.015 676.909 135.07 681.515 Q138.149 686.099 138.149 694.849 Q138.149 703.575 135.07 708.182 Q132.015 712.765 126.205 712.765 Q120.394 712.765 117.316 708.182 Q114.26 703.575 114.26 694.849 Q114.26 686.099 117.316 681.515 Q120.394 676.909 126.205 676.909 Z" fill="#000000" fill-rule="nonzero" fill-opacity="1" /><path clip-path="url(#clip430)" d="M146.366 706.214 L151.251 706.214 L151.251 712.094 L146.366 712.094 L146.366 706.214 Z" fill="#000000" fill-rule="nonzero" fill-opacity="1" /><path clip-path="url(#clip430)" d="M171.436 680.613 Q167.825 680.613 165.996 684.177 Q164.19 687.719 164.19 694.849 Q164.19 701.955 165.996 705.52 Q167.825 709.061 171.436 709.061 Q175.07 709.061 176.876 705.52 Q178.704 701.955 178.704 694.849 Q178.704 687.719 176.876 684.177 Q175.07 680.613 171.436 680.613 M171.436 676.909 Q177.246 676.909 180.301 681.515 Q183.38 686.099 183.38 694.849 Q183.38 703.575 180.301 708.182 Q177.246 712.765 171.436 712.765 Q165.626 712.765 162.547 708.182 Q159.491 703.575 159.491 694.849 Q159.491 686.099 162.547 681.515 Q165.626 676.909 171.436 676.909 Z" fill="#000000" fill-rule="nonzero" fill-opacity="1" /><path clip-path="url(#clip430)" d="M201.598 680.613 Q197.987 680.613 196.158 684.177 Q194.352 687.719 194.352 694.849 Q194.352 701.955 196.158 705.52 Q197.987 709.061 201.598 709.061 Q205.232 709.061 207.037 705.52 Q208.866 701.955 208.866 694.849 Q208.866 687.719 207.037 684.177 Q205.232 680.613 201.598 680.613 M201.598 676.909 Q207.408 676.909 210.463 681.515 Q213.542 686.099 213.542 694.849 Q213.542 703.575 210.463 708.182 Q207.408 712.765 201.598 712.765 Q195.787 712.765 192.709 708.182 Q189.653 703.575 189.653 694.849 Q189.653 686.099 192.709 681.515 Q195.787 676.909 201.598 676.909 Z" fill="#000000" fill-rule="nonzero" fill-opacity="1" /><path clip-path="url(#clip430)" d="M127.431 538.72 Q123.82 538.72 121.992 542.285 Q120.186 545.827 120.186 552.956 Q120.186 560.063 121.992 563.627 Q123.82 567.169 127.431 567.169 Q131.066 567.169 132.871 563.627 Q134.7 560.063 134.7 552.956 Q134.7 545.827 132.871 542.285 Q131.066 538.72 127.431 538.72 M127.431 535.016 Q133.242 535.016 136.297 539.623 Q139.376 544.206 139.376 552.956 Q139.376 561.683 136.297 566.289 Q133.242 570.873 127.431 570.873 Q121.621 570.873 118.543 566.289 Q115.487 561.683 115.487 552.956 Q115.487 544.206 118.543 539.623 Q121.621 535.016 127.431 535.016 Z" fill="#000000" fill-rule="nonzero" fill-opacity="1" /><path clip-path="url(#clip430)" d="M147.593 564.322 L152.478 564.322 L152.478 570.201 L147.593 570.201 L147.593 564.322 Z" fill="#000000" fill-rule="nonzero" fill-opacity="1" /><path clip-path="url(#clip430)" d="M172.663 538.72 Q169.052 538.72 167.223 542.285 Q165.417 545.827 165.417 552.956 Q165.417 560.063 167.223 563.627 Q169.052 567.169 172.663 567.169 Q176.297 567.169 178.102 563.627 Q179.931 560.063 179.931 552.956 Q179.931 545.827 178.102 542.285 Q176.297 538.72 172.663 538.72 M172.663 535.016 Q178.473 535.016 181.528 539.623 Q184.607 544.206 184.607 552.956 Q184.607 561.683 181.528 566.289 Q178.473 570.873 172.663 570.873 Q166.852 570.873 163.774 566.289 Q160.718 561.683 160.718 552.956 Q160.718 544.206 163.774 539.623 Q166.852 535.016 172.663 535.016 Z" fill="#000000" fill-rule="nonzero" fill-opacity="1" /><path clip-path="url(#clip430)" d="M193.635 566.266 L201.274 566.266 L201.274 539.901 L192.963 541.567 L192.963 537.308 L201.227 535.641 L205.903 535.641 L205.903 566.266 L213.542 566.266 L213.542 570.201 L193.635 570.201 L193.635 566.266 Z" fill="#000000" fill-rule="nonzero" fill-opacity="1" /><path clip-path="url(#clip430)" d="M127.802 396.828 Q124.191 396.828 122.362 400.392 Q120.556 403.934 120.556 411.064 Q120.556 418.17 122.362 421.735 Q124.191 425.277 127.802 425.277 Q131.436 425.277 133.242 421.735 Q135.07 418.17 135.07 411.064 Q135.07 403.934 133.242 400.392 Q131.436 396.828 127.802 396.828 M127.802 393.124 Q133.612 393.124 136.667 397.73 Q139.746 402.314 139.746 411.064 Q139.746 419.791 136.667 424.397 Q133.612 428.98 127.802 428.98 Q121.992 428.98 118.913 424.397 Q115.857 419.791 115.857 411.064 Q115.857 402.314 118.913 397.73 Q121.992 393.124 127.802 393.124 Z" fill="#000000" fill-rule="nonzero" fill-opacity="1" /><path clip-path="url(#clip430)" d="M147.964 422.429 L152.848 422.429 L152.848 428.309 L147.964 428.309 L147.964 422.429 Z" fill="#000000" fill-rule="nonzero" fill-opacity="1" /><path clip-path="url(#clip430)" d="M173.033 396.828 Q169.422 396.828 167.593 400.392 Q165.788 403.934 165.788 411.064 Q165.788 418.17 167.593 421.735 Q169.422 425.277 173.033 425.277 Q176.667 425.277 178.473 421.735 Q180.301 418.17 180.301 411.064 Q180.301 403.934 178.473 400.392 Q176.667 396.828 173.033 396.828 M173.033 393.124 Q178.843 393.124 181.899 397.73 Q184.977 402.314 184.977 411.064 Q184.977 419.791 181.899 424.397 Q178.843 428.98 173.033 428.98 Q167.223 428.98 164.144 424.397 Q161.089 419.791 161.089 411.064 Q161.089 402.314 164.144 397.73 Q167.223 393.124 173.033 393.124 Z" fill="#000000" fill-rule="nonzero" fill-opacity="1" /><path clip-path="url(#clip430)" d="M197.223 424.374 L213.542 424.374 L213.542 428.309 L191.598 428.309 L191.598 424.374 Q194.26 421.619 198.843 416.99 Q203.449 412.337 204.63 410.994 Q206.875 408.471 207.755 406.735 Q208.658 404.976 208.658 403.286 Q208.658 400.531 206.713 398.795 Q204.792 397.059 201.69 397.059 Q199.491 397.059 197.037 397.823 Q194.607 398.587 191.829 400.138 L191.829 395.416 Q194.653 394.281 197.107 393.703 Q199.561 393.124 201.598 393.124 Q206.968 393.124 210.162 395.809 Q213.357 398.494 213.357 402.985 Q213.357 405.115 212.547 407.036 Q211.76 408.934 209.653 411.527 Q209.074 412.198 205.973 415.416 Q202.871 418.61 197.223 424.374 Z" fill="#000000" fill-rule="nonzero" fill-opacity="1" /><path clip-path="url(#clip430)" d="M126.853 254.935 Q123.242 254.935 121.413 258.5 Q119.607 262.042 119.607 269.171 Q119.607 276.278 121.413 279.842 Q123.242 283.384 126.853 283.384 Q130.487 283.384 132.292 279.842 Q134.121 276.278 134.121 269.171 Q134.121 262.042 132.292 258.5 Q130.487 254.935 126.853 254.935 M126.853 251.232 Q132.663 251.232 135.718 255.838 Q138.797 260.421 138.797 269.171 Q138.797 277.898 135.718 282.505 Q132.663 287.088 126.853 287.088 Q121.043 287.088 117.964 282.505 Q114.908 277.898 114.908 269.171 Q114.908 260.421 117.964 255.838 Q121.043 251.232 126.853 251.232 Z" fill="#000000" fill-rule="nonzero" fill-opacity="1" /><path clip-path="url(#clip430)" d="M147.015 280.537 L151.899 280.537 L151.899 286.417 L147.015 286.417 L147.015 280.537 Z" fill="#000000" fill-rule="nonzero" fill-opacity="1" /><path clip-path="url(#clip430)" d="M172.084 254.935 Q168.473 254.935 166.644 258.5 Q164.839 262.042 164.839 269.171 Q164.839 276.278 166.644 279.842 Q168.473 283.384 172.084 283.384 Q175.718 283.384 177.524 279.842 Q179.352 276.278 179.352 269.171 Q179.352 262.042 177.524 258.5 Q175.718 254.935 172.084 254.935 M172.084 251.232 Q177.894 251.232 180.95 255.838 Q184.028 260.421 184.028 269.171 Q184.028 277.898 180.95 282.505 Q177.894 287.088 172.084 287.088 Q166.274 287.088 163.195 282.505 Q160.14 277.898 160.14 269.171 Q160.14 260.421 163.195 255.838 Q166.274 251.232 172.084 251.232 Z" fill="#000000" fill-rule="nonzero" fill-opacity="1" /><path clip-path="url(#clip430)" d="M206.412 267.782 Q209.769 268.5 211.644 270.768 Q213.542 273.037 213.542 276.37 Q213.542 281.486 210.024 284.287 Q206.505 287.088 200.024 287.088 Q197.848 287.088 195.533 286.648 Q193.241 286.231 190.788 285.375 L190.788 280.861 Q192.732 281.995 195.047 282.574 Q197.362 283.153 199.885 283.153 Q204.283 283.153 206.574 281.417 Q208.889 279.68 208.889 276.37 Q208.889 273.315 206.737 271.602 Q204.607 269.866 200.787 269.866 L196.76 269.866 L196.76 266.023 L200.973 266.023 Q204.422 266.023 206.25 264.657 Q208.079 263.269 208.079 260.676 Q208.079 258.014 206.181 256.602 Q204.306 255.167 200.787 255.167 Q198.866 255.167 196.667 255.583 Q194.468 256 191.829 256.88 L191.829 252.713 Q194.491 251.972 196.806 251.602 Q199.144 251.232 201.204 251.232 Q206.528 251.232 209.63 253.662 Q212.732 256.069 212.732 260.19 Q212.732 263.06 211.088 265.051 Q209.445 267.018 206.412 267.782 Z" fill="#000000" fill-rule="nonzero" fill-opacity="1" /><path clip-path="url(#clip430)" d="M35.1993 554.655 Q31.2526 552.459 29.3747 549.404 Q27.4968 546.348 27.4968 542.21 Q27.4968 536.64 31.4117 533.617 Q35.2948 530.593 42.4881 530.593 L64.0042 530.593 L64.0042 536.481 L42.679 536.481 Q37.5546 536.481 35.072 538.295 Q32.5894 540.11 32.5894 543.834 Q32.5894 548.385 35.6131 551.027 Q38.6368 553.669 43.8567 553.669 L64.0042 553.669 L64.0042 559.557 L42.679 559.557 Q37.5228 559.557 35.072 561.371 Q32.5894 563.185 32.5894 566.973 Q32.5894 571.461 35.6449 574.102 Q38.6686 576.744 43.8567 576.744 L64.0042 576.744 L64.0042 582.633 L28.3562 582.633 L28.3562 576.744 L33.8944 576.744 Q30.616 574.739 29.0564 571.938 Q27.4968 569.137 27.4968 565.286 Q27.4968 561.403 29.4702 558.697 Q31.4436 555.96 35.1993 554.655 Z" fill="#000000" fill-rule="nonzero" fill-opacity="1" /><path clip-path="url(#clip430)" d="M46.0847 502.711 Q46.0847 509.809 47.7079 512.546 Q49.3312 515.283 53.2461 515.283 Q56.3653 515.283 58.2114 513.246 Q60.0256 511.177 60.0256 507.644 Q60.0256 502.775 56.5881 499.846 Q53.1188 496.886 47.3897 496.886 L46.0847 496.886 L46.0847 502.711 M43.6657 491.03 L64.0042 491.03 L64.0042 496.886 L58.5933 496.886 Q61.8398 498.892 63.3994 501.884 Q64.9272 504.875 64.9272 509.204 Q64.9272 514.679 61.8716 517.925 Q58.7843 521.14 53.6281 521.14 Q47.6125 521.14 44.5569 517.129 Q41.5014 513.087 41.5014 505.098 L41.5014 496.886 L40.9285 496.886 Q36.8862 496.886 34.6901 499.56 Q32.4621 502.202 32.4621 507.008 Q32.4621 510.063 33.1941 512.96 Q33.9262 515.856 35.3903 518.53 L29.9795 518.53 Q28.7381 515.315 28.1334 512.291 Q27.4968 509.268 27.4968 506.403 Q27.4968 498.669 31.5072 494.849 Q35.5176 491.03 43.6657 491.03 Z" fill="#000000" fill-rule="nonzero" fill-opacity="1" /><path clip-path="url(#clip430)" d="M45.7664 455.509 Q39.4007 455.509 35.8996 458.151 Q32.3984 460.761 32.3984 465.504 Q32.3984 470.214 35.8996 472.856 Q39.4007 475.466 45.7664 475.466 Q52.1003 475.466 55.6014 472.856 Q59.1026 470.214 59.1026 465.504 Q59.1026 460.761 55.6014 458.151 Q52.1003 455.509 45.7664 455.509 M59.58 449.653 Q68.683 449.653 73.1071 453.695 Q77.5631 457.737 77.5631 466.076 Q77.5631 469.164 77.0857 471.901 Q76.6401 474.638 75.6852 477.216 L69.9879 477.216 Q71.3884 474.638 72.0568 472.124 Q72.7252 469.609 72.7252 466.999 Q72.7252 461.238 69.7015 458.374 Q66.7096 455.509 60.6303 455.509 L57.7339 455.509 Q60.885 457.324 62.4446 460.156 Q64.0042 462.989 64.0042 466.936 Q64.0042 473.492 59.0071 477.503 Q54.01 481.513 45.7664 481.513 Q37.491 481.513 32.4939 477.503 Q27.4968 473.492 27.4968 466.936 Q27.4968 462.989 29.0564 460.156 Q30.616 457.324 33.7671 455.509 L28.3562 455.509 L28.3562 449.653 L59.58 449.653 Z" fill="#000000" fill-rule="nonzero" fill-opacity="1" /><path clip-path="url(#clip430)" d="M42.4881 407.958 L64.0042 407.958 L64.0042 413.814 L42.679 413.814 Q37.6183 413.814 35.1038 415.787 Q32.5894 417.761 32.5894 421.707 Q32.5894 426.45 35.6131 429.187 Q38.6368 431.924 43.8567 431.924 L64.0042 431.924 L64.0042 437.813 L28.3562 437.813 L28.3562 431.924 L33.8944 431.924 Q30.6797 429.824 29.0883 426.991 Q27.4968 424.126 27.4968 420.402 Q27.4968 414.26 31.3163 411.109 Q35.1038 407.958 42.4881 407.958 Z" fill="#000000" fill-rule="nonzero" fill-opacity="1" /><path clip-path="url(#clip430)" d="M28.3562 396.276 L28.3562 390.42 L64.0042 390.42 L64.0042 396.276 L28.3562 396.276 M14.479 396.276 L14.479 390.42 L21.895 390.42 L21.895 396.276 L14.479 396.276 Z" fill="#000000" fill-rule="nonzero" fill-opacity="1" /><path clip-path="url(#clip430)" d="M18.2347 372.373 L28.3562 372.373 L28.3562 360.31 L32.9077 360.31 L32.9077 372.373 L52.2594 372.373 Q56.6199 372.373 57.8613 371.196 Q59.1026 369.986 59.1026 366.326 L59.1026 360.31 L64.0042 360.31 L64.0042 366.326 Q64.0042 373.105 61.4897 375.683 Q58.9434 378.262 52.2594 378.262 L32.9077 378.262 L32.9077 382.558 L28.3562 382.558 L28.3562 378.262 L18.2347 378.262 L18.2347 372.373 Z" fill="#000000" fill-rule="nonzero" fill-opacity="1" /><path clip-path="url(#clip430)" d="M49.9359 353.212 L28.3562 353.212 L28.3562 347.356 L49.7131 347.356 Q54.7739 347.356 57.3202 345.383 Q59.8346 343.409 59.8346 339.463 Q59.8346 334.72 56.8109 331.983 Q53.7872 329.214 48.5673 329.214 L28.3562 329.214 L28.3562 323.357 L64.0042 323.357 L64.0042 329.214 L58.5296 329.214 Q61.7762 331.346 63.3676 334.179 Q64.9272 336.98 64.9272 340.704 Q64.9272 346.847 61.1078 350.03 Q57.2883 353.212 49.9359 353.212 M27.4968 338.476 L27.4968 338.476 Z" fill="#000000" fill-rule="nonzero" fill-opacity="1" /><path clip-path="url(#clip430)" d="M33.7671 287.837 L14.479 287.837 L14.479 281.98 L64.0042 281.98 L64.0042 287.837 L58.657 287.837 Q61.8398 289.683 63.3994 292.515 Q64.9272 295.316 64.9272 299.263 Q64.9272 305.724 59.771 309.798 Q54.6147 313.841 46.212 313.841 Q37.8093 313.841 32.6531 309.798 Q27.4968 305.724 27.4968 299.263 Q27.4968 295.316 29.0564 292.515 Q30.5842 289.683 33.7671 287.837 M46.212 307.793 Q52.6732 307.793 56.3653 305.151 Q60.0256 302.478 60.0256 297.831 Q60.0256 293.184 56.3653 290.51 Q52.6732 287.837 46.212 287.837 Q39.7508 287.837 36.0905 290.51 Q32.3984 293.184 32.3984 297.831 Q32.3984 302.478 36.0905 305.151 Q39.7508 307.793 46.212 307.793 Z" fill="#000000" fill-rule="nonzero" fill-opacity="1" /><path clip-path="url(#clip430)" d="M44.7161 239.425 L47.5806 239.425 L47.5806 266.352 Q53.6281 265.97 56.8109 262.724 Q59.9619 259.446 59.9619 253.621 Q59.9619 250.247 59.1344 247.096 Q58.3069 243.913 56.6518 240.794 L62.1899 240.794 Q63.5267 243.945 64.227 247.255 Q64.9272 250.565 64.9272 253.971 Q64.9272 262.501 59.9619 267.498 Q54.9967 272.463 46.5303 272.463 Q37.7774 272.463 32.6531 267.753 Q27.4968 263.01 27.4968 254.99 Q27.4968 247.796 32.1438 243.627 Q36.7589 239.425 44.7161 239.425 M42.9973 245.282 Q38.1912 245.346 35.3266 247.987 Q32.4621 250.597 32.4621 254.926 Q32.4621 259.828 35.2312 262.788 Q38.0002 265.716 43.0292 266.161 L42.9973 245.282 Z" fill="#000000" fill-rule="nonzero" fill-opacity="1" /><polyline clip-path="url(#clip432)" style="stroke:#0000ff; stroke-linecap:round; stroke-linejoin:round; stroke-width:6; stroke-opacity:1; fill:none" points="309.067,234.153 318.988,234.313 328.909,234.793 338.829,235.593 348.75,236.711 358.671,238.148 368.592,239.901 378.513,241.969 388.434,244.35 398.354,247.042 408.275,250.042 418.196,253.346 428.117,256.952 438.038,260.855 447.958,265.051 457.879,269.533 467.8,274.297 477.721,279.336 487.642,284.642 497.563,290.207 507.483,296.021 517.404,302.076 527.325,308.359 537.246,314.857 547.167,321.558 557.087,328.446 567.008,335.504 576.929,342.713 586.85,350.054 596.771,357.504 606.692,365.039 616.612,372.631 626.533,380.251 636.454,387.868 646.375,395.446 656.296,402.948 666.216,410.332 676.137,417.554 686.058,424.566 695.979,431.319 705.9,437.758 715.821,443.827 725.741,449.47 735.662,454.628 745.583,459.244 755.504,463.261 765.425,466.629 775.346,469.3 785.266,471.238 795.187,472.412 805.108,472.806 815.029,472.412 824.95,471.238 834.87,469.3 844.791,466.629 854.712,463.261 864.633,459.244 874.554,454.628 884.475,449.47 894.395,443.827 904.316,437.758 914.237,431.319 924.158,424.566 934.079,417.554 943.999,410.332 953.92,402.948 963.841,395.446 973.762,387.868 983.683,380.251 993.604,372.631 1003.52,365.039 1013.45,357.504 1023.37,350.054 1033.29,342.713 1043.21,335.504 1053.13,328.446 1063.05,321.558 1072.97,314.857 1082.89,308.359 1092.81,302.076 1102.73,296.021 1112.65,290.207 1122.57,284.642 1132.5,279.336 1142.42,274.297 1152.34,269.533 1162.26,265.051 1172.18,260.855 1182.1,256.952 1192.02,253.346 1201.94,250.042 1211.86,247.042 1221.78,244.35 1231.7,241.969 1241.62,239.901 1251.54,238.148 1261.47,236.711 1271.39,235.593 1281.31,234.793 1291.23,234.313 1301.15,234.153 1311.07,234.313 1320.99,234.793 1330.91,235.593 1340.83,236.711 1350.75,238.148 1360.67,239.901 1370.59,241.969 1380.52,244.35 1390.44,247.042 1400.36,250.042 1410.28,253.346 1420.2,256.952 1430.12,260.855 1440.04,265.051 1449.96,269.533 1459.88,274.297 1469.8,279.336 1479.72,284.642 1489.64,290.207 1499.57,296.021 1509.49,302.076 1519.41,308.359 1529.33,314.857 1539.25,321.558 1549.17,328.446 1559.09,335.504 1569.01,342.713 1578.93,350.054 1588.85,357.504 1598.77,365.039 1608.69,372.631 1618.62,380.251 1628.54,387.868 1638.46,395.446 1648.38,402.948 1658.3,410.332 1668.22,417.554 1678.14,424.566 1688.06,431.319 1697.98,437.758 1707.9,443.827 1717.82,449.47 1727.74,454.628 1737.67,459.244 1747.59,463.261 1757.51,466.629 1767.43,469.3 1777.35,471.238 1787.27,472.412 1797.19,472.806 1807.11,472.412 1817.03,471.238 1826.95,469.3 1836.87,466.629 1846.79,463.261 1856.71,459.244 1866.64,454.628 1876.56,449.47 1886.48,443.827 1896.4,437.758 1906.32,431.319 1916.24,424.566 1926.16,417.554 1936.08,410.332 1946,402.948 1955.92,395.446 1965.84,387.868 1975.76,380.251 1985.69,372.631 1995.61,365.039 2005.53,357.504 2015.45,350.054 2025.37,342.713 2035.29,335.504 2045.21,328.446 2055.13,321.558 2065.05,314.857 2074.97,308.359 2084.89,302.076 2094.81,296.021 2104.74,290.207 2114.66,284.642 2124.58,279.336 2134.5,274.297 2144.42,269.533 2154.34,265.051 2164.26,260.855 2174.18,256.952 2184.1,253.346 2194.02,250.042 2203.94,247.042 2213.86,244.35 2223.79,241.969 2233.71,239.901 2243.63,238.148 2253.55,236.711 2263.47,235.593 2273.39,234.793 2283.31,234.313 2293.23,234.153 "/>
<polyline clip-path="url(#clip432)" style="stroke:#ff0000; stroke-linecap:round; stroke-linejoin:round; stroke-width:6; stroke-opacity:1; fill:none" points="309.067,390.4 318.988,397.957 328.909,405.424 338.829,412.759 348.75,419.917 358.671,426.849 368.592,433.503 378.513,439.825 388.434,445.758 398.354,451.246 408.275,456.23 418.196,460.652 428.117,464.458 438.038,467.599 447.958,470.029 457.879,471.715 467.8,472.631 477.721,472.762 487.642,472.107 497.563,470.676 507.483,468.49 517.404,465.581 527.325,461.992 537.246,457.769 547.167,452.966 557.087,447.64 567.008,441.849 576.929,435.65 586.85,429.1 596.771,422.255 606.692,415.167 616.612,407.886 626.533,400.458 636.454,392.927 646.375,385.332 656.296,377.71 666.216,370.095 676.137,362.519 686.058,355.01 695.979,347.594 705.9,340.295 715.821,333.134 725.741,326.13 735.662,319.303 745.583,312.668 755.504,306.24 765.425,300.032 775.346,294.056 785.266,288.323 795.187,282.844 805.108,277.626 815.029,272.678 824.95,268.007 834.87,263.62 844.791,259.521 854.712,255.717 864.633,252.211 874.554,249.008 884.475,246.11 894.395,243.522 904.316,241.245 914.237,239.281 924.158,237.634 934.079,236.303 943.999,235.291 953.92,234.598 963.841,234.224 973.762,234.171 983.683,234.437 993.604,235.024 1003.52,235.93 1013.45,237.155 1023.37,238.697 1033.29,240.555 1043.21,242.728 1053.13,245.213 1063.05,248.008 1072.97,251.11 1082.89,254.515 1092.81,258.22 1102.73,262.221 1112.65,266.513 1122.57,271.09 1132.5,275.947 1142.42,281.075 1152.34,286.468 1162.26,292.118 1172.18,298.013 1182.1,304.145 1192.02,310.502 1201.94,317.069 1211.86,323.834 1221.78,330.781 1231.7,337.891 1241.62,345.147 1251.54,352.527 1261.47,360.008 1271.39,367.564 1281.31,375.169 1291.23,382.792 1301.15,390.4 1311.07,397.957 1320.99,405.424 1330.91,412.759 1340.83,419.917 1350.75,426.849 1360.67,433.503 1370.59,439.825 1380.52,445.758 1390.44,451.246 1400.36,456.23 1410.28,460.652 1420.2,464.458 1430.12,467.599 1440.04,470.029 1449.96,471.715 1459.88,472.631 1469.8,472.762 1479.72,472.107 1489.64,470.676 1499.57,468.49 1509.49,465.581 1519.41,461.992 1529.33,457.769 1539.25,452.966 1549.17,447.64 1559.09,441.849 1569.01,435.65 1578.93,429.1 1588.85,422.255 1598.77,415.167 1608.69,407.886 1618.62,400.458 1628.54,392.927 1638.46,385.332 1648.38,377.71 1658.3,370.095 1668.22,362.519 1678.14,355.01 1688.06,347.594 1697.98,340.295 1707.9,333.134 1717.82,326.13 1727.74,319.303 1737.67,312.668 1747.59,306.24 1757.51,300.032 1767.43,294.056 1777.35,288.323 1787.27,282.844 1797.19,277.626 1807.11,272.678 1817.03,268.007 1826.95,263.62 1836.87,259.521 1846.79,255.717 1856.71,252.211 1866.64,249.008 1876.56,246.11 1886.48,243.522 1896.4,241.245 1906.32,239.281 1916.24,237.634 1926.16,236.303 1936.08,235.291 1946,234.598 1955.92,234.224 1965.84,234.171 1975.76,234.437 1985.69,235.024 1995.61,235.93 2005.53,237.155 2015.45,238.697 2025.37,240.555 2035.29,242.728 2045.21,245.213 2055.13,248.008 2065.05,251.11 2074.97,254.515 2084.89,258.22 2094.81,262.221 2104.74,266.513 2114.66,271.09 2124.58,275.947 2134.5,281.075 2144.42,286.468 2154.34,292.118 2164.26,298.013 2174.18,304.145 2184.1,310.502 2194.02,317.069 2203.94,323.834 2213.86,330.781 2223.79,337.891 2233.71,345.147 2243.63,352.527 2253.55,360.008 2263.47,367.564 2273.39,375.169 2283.31,382.792 2293.23,390.4 "/>
<polyline clip-path="url(#clip432)" style="stroke:#000000; stroke-linecap:round; stroke-linejoin:round; stroke-width:6; stroke-opacity:1; fill:none" points="309.067,472.806 318.988,472.412 328.909,471.238 338.829,469.3 348.75,466.629 358.671,463.261 368.592,459.244 378.513,454.628 388.434,449.47 398.354,443.827 408.275,437.758 418.196,431.319 428.117,424.566 438.038,417.554 447.958,410.332 457.879,402.948 467.8,395.446 477.721,387.868 487.642,380.251 497.563,372.631 507.483,365.039 517.404,357.504 527.325,350.054 537.246,342.713 547.167,335.504 557.087,328.446 567.008,321.558 576.929,314.857 586.85,308.359 596.771,302.076 606.692,296.021 616.612,290.207 626.533,284.642 636.454,279.336 646.375,274.297 656.296,269.533 666.216,265.051 676.137,260.855 686.058,256.952 695.979,253.346 705.9,250.042 715.821,247.042 725.741,244.35 735.662,241.969 745.583,239.901 755.504,238.148 765.425,236.711 775.346,235.593 785.266,234.793 795.187,234.313 805.108,234.153 815.029,234.313 824.95,234.793 834.87,235.593 844.791,236.711 854.712,238.148 864.633,239.901 874.554,241.969 884.475,244.35 894.395,247.042 904.316,250.042 914.237,253.346 924.158,256.952 934.079,260.855 943.999,265.051 953.92,269.533 963.841,274.297 973.762,279.336 983.683,284.642 993.604,290.207 1003.52,296.021 1013.45,302.076 1023.37,308.359 1033.29,314.857 1043.21,321.558 1053.13,328.446 1063.05,335.504 1072.97,342.713 1082.89,350.054 1092.81,357.504 1102.73,365.039 1112.65,372.631 1122.57,380.251 1132.5,387.868 1142.42,395.446 1152.34,402.948 1162.26,410.332 1172.18,417.554 1182.1,424.566 1192.02,431.319 1201.94,437.758 1211.86,443.827 1221.78,449.47 1231.7,454.628 1241.62,459.244 1251.54,463.261 1261.47,466.629 1271.39,469.3 1281.31,471.238 1291.23,472.412 1301.15,472.806 1311.07,472.412 1320.99,471.238 1330.91,469.3 1340.83,466.629 1350.75,463.261 1360.67,459.244 1370.59,454.628 1380.52,449.47 1390.44,443.827 1400.36,437.758 1410.28,431.319 1420.2,424.566 1430.12,417.554 1440.04,410.332 1449.96,402.948 1459.88,395.446 1469.8,387.868 1479.72,380.251 1489.64,372.631 1499.57,365.039 1509.49,357.504 1519.41,350.054 1529.33,342.713 1539.25,335.504 1549.17,328.446 1559.09,321.558 1569.01,314.857 1578.93,308.359 1588.85,302.076 1598.77,296.021 1608.69,290.207 1618.62,284.642 1628.54,279.336 1638.46,274.297 1648.38,269.533 1658.3,265.051 1668.22,260.855 1678.14,256.952 1688.06,253.346 1697.98,250.042 1707.9,247.042 1717.82,244.35 1727.74,241.969 1737.67,239.901 1747.59,238.148 1757.51,236.711 1767.43,235.593 1777.35,234.793 1787.27,234.313 1797.19,234.153 1807.11,234.313 1817.03,234.793 1826.95,235.593 1836.87,236.711 1846.79,238.148 1856.71,239.901 1866.64,241.969 1876.56,244.35 1886.48,247.042 1896.4,250.042 1906.32,253.346 1916.24,256.952 1926.16,260.855 1936.08,265.051 1946,269.533 1955.92,274.297 1965.84,279.336 1975.76,284.642 1985.69,290.207 1995.61,296.021 2005.53,302.076 2015.45,308.359 2025.37,314.857 2035.29,321.558 2045.21,328.446 2055.13,335.504 2065.05,342.713 2074.97,350.054 2084.89,357.504 2094.81,365.039 2104.74,372.631 2114.66,380.251 2124.58,387.868 2134.5,395.446 2144.42,402.948 2154.34,410.332 2164.26,417.554 2174.18,424.566 2184.1,431.319 2194.02,437.758 2203.94,443.827 2213.86,449.47 2223.79,454.628 2233.71,459.244 2243.63,463.261 2253.55,466.629 2263.47,469.3 2273.39,471.238 2283.31,472.412 2293.23,472.806 "/>
<path clip-path="url(#clip430)" d="M249.542 1423.18 L2352.76 1423.18 L2352.76 855.61 L249.542 855.61  Z" fill="#ffffff" fill-rule="evenodd" fill-opacity="1"/>
<defs>
  <clipPath id="clip433">
    <rect x="249" y="855" width="2104" height="569"/>
  </clipPath>
</defs>
<polyline clip-path="url(#clip433)" style="stroke:#000000; stroke-linecap:round; stroke-linejoin:round; stroke-width:2; stroke-opacity:0.1; fill:none" points="249.542,1423.18 249.542,855.61 "/>
<polyline clip-path="url(#clip433)" style="stroke:#000000; stroke-linecap:round; stroke-linejoin:round; stroke-width:2; stroke-opacity:0.1; fill:none" points="775.346,1423.18 775.346,855.61 "/>
<polyline clip-path="url(#clip433)" style="stroke:#000000; stroke-linecap:round; stroke-linejoin:round; stroke-width:2; stroke-opacity:0.1; fill:none" points="1301.15,1423.18 1301.15,855.61 "/>
<polyline clip-path="url(#clip433)" style="stroke:#000000; stroke-linecap:round; stroke-linejoin:round; stroke-width:2; stroke-opacity:0.1; fill:none" points="1826.95,1423.18 1826.95,855.61 "/>
<polyline clip-path="url(#clip433)" style="stroke:#000000; stroke-linecap:round; stroke-linejoin:round; stroke-width:2; stroke-opacity:0.1; fill:none" points="2352.76,1423.18 2352.76,855.61 "/>
<polyline clip-path="url(#clip433)" style="stroke:#000000; stroke-linecap:round; stroke-linejoin:round; stroke-width:2; stroke-opacity:0.1; fill:none" points="249.542,1423.18 2352.76,1423.18 "/>
<polyline clip-path="url(#clip433)" style="stroke:#000000; stroke-linecap:round; stroke-linejoin:round; stroke-width:2; stroke-opacity:0.1; fill:none" points="249.542,1139.39 2352.76,1139.39 "/>
<polyline clip-path="url(#clip433)" style="stroke:#000000; stroke-linecap:round; stroke-linejoin:round; stroke-width:2; stroke-opacity:0.1; fill:none" points="249.542,855.61 2352.76,855.61 "/>
<polyline clip-path="url(#clip430)" style="stroke:#000000; stroke-linecap:round; stroke-linejoin:round; stroke-width:4; stroke-opacity:1; fill:none" points="249.542,1423.18 2352.76,1423.18 "/>
<polyline clip-path="url(#clip430)" style="stroke:#000000; stroke-linecap:round; stroke-linejoin:round; stroke-width:4; stroke-opacity:1; fill:none" points="249.542,1423.18 249.542,1404.28 "/>
<polyline clip-path="url(#clip430)" style="stroke:#000000; stroke-linecap:round; stroke-linejoin:round; stroke-width:4; stroke-opacity:1; fill:none" points="775.346,1423.18 775.346,1404.28 "/>
<polyline clip-path="url(#clip430)" style="stroke:#000000; stroke-linecap:round; stroke-linejoin:round; stroke-width:4; stroke-opacity:1; fill:none" points="1301.15,1423.18 1301.15,1404.28 "/>
<polyline clip-path="url(#clip430)" style="stroke:#000000; stroke-linecap:round; stroke-linejoin:round; stroke-width:4; stroke-opacity:1; fill:none" points="1826.95,1423.18 1826.95,1404.28 "/>
<polyline clip-path="url(#clip430)" style="stroke:#000000; stroke-linecap:round; stroke-linejoin:round; stroke-width:4; stroke-opacity:1; fill:none" points="2352.76,1423.18 2352.76,1404.28 "/>
<path clip-path="url(#clip430)" d="M213.454 1470.7 L225.931 1470.7 L225.931 1474.49 L213.454 1474.49 L213.454 1470.7 Z" fill="#000000" fill-rule="nonzero" fill-opacity="1" /><path clip-path="url(#clip430)" d="M237.343 1481.64 L253.662 1481.64 L253.662 1485.58 L231.718 1485.58 L231.718 1481.64 Q234.38 1478.89 238.963 1474.26 Q243.57 1469.61 244.75 1468.27 Q246.996 1465.74 247.875 1464.01 Q248.778 1462.25 248.778 1460.56 Q248.778 1457.8 246.834 1456.07 Q244.912 1454.33 241.811 1454.33 Q239.612 1454.33 237.158 1455.09 Q234.727 1455.86 231.95 1457.41 L231.95 1452.69 Q234.774 1451.55 237.227 1450.97 Q239.681 1450.39 241.718 1450.39 Q247.088 1450.39 250.283 1453.08 Q253.477 1455.77 253.477 1460.26 Q253.477 1462.39 252.667 1464.31 Q251.88 1466.2 249.774 1468.8 Q249.195 1469.47 246.093 1472.69 Q242.991 1475.88 237.343 1481.64 Z" fill="#000000" fill-rule="nonzero" fill-opacity="1" /><path clip-path="url(#clip430)" d="M260.121 1459.65 L284.959 1459.65 L284.959 1463.91 L281.695 1463.91 L281.695 1479.84 Q281.695 1481.51 282.25 1482.25 Q282.829 1482.96 284.102 1482.96 Q284.449 1482.96 284.959 1482.92 Q285.468 1482.85 285.63 1482.83 L285.63 1485.9 Q284.82 1486.2 283.963 1486.34 Q283.107 1486.48 282.25 1486.48 Q279.472 1486.48 278.408 1484.98 Q277.343 1483.45 277.343 1479.38 L277.343 1463.91 L267.783 1463.91 L267.783 1485.58 L263.431 1485.58 L263.431 1463.91 L260.121 1463.91 L260.121 1459.65 Z" fill="#000000" fill-rule="nonzero" fill-opacity="1" /><path clip-path="url(#clip430)" d="M739.258 1470.7 L751.735 1470.7 L751.735 1474.49 L739.258 1474.49 L739.258 1470.7 Z" fill="#000000" fill-rule="nonzero" fill-opacity="1" /><path clip-path="url(#clip430)" d="M759.929 1481.64 L767.568 1481.64 L767.568 1455.28 L759.258 1456.95 L759.258 1452.69 L767.521 1451.02 L772.197 1451.02 L772.197 1481.64 L779.836 1481.64 L779.836 1485.58 L759.929 1485.58 L759.929 1481.64 Z" fill="#000000" fill-rule="nonzero" fill-opacity="1" /><path clip-path="url(#clip430)" d="M785.924 1459.65 L810.762 1459.65 L810.762 1463.91 L807.498 1463.91 L807.498 1479.84 Q807.498 1481.51 808.054 1482.25 Q808.632 1482.96 809.906 1482.96 Q810.253 1482.96 810.762 1482.92 Q811.271 1482.85 811.433 1482.83 L811.433 1485.9 Q810.623 1486.2 809.767 1486.34 Q808.91 1486.48 808.054 1486.48 Q805.276 1486.48 804.211 1484.98 Q803.146 1483.45 803.146 1479.38 L803.146 1463.91 L793.586 1463.91 L793.586 1485.58 L789.234 1485.58 L789.234 1463.91 L785.924 1463.91 L785.924 1459.65 Z" fill="#000000" fill-rule="nonzero" fill-opacity="1" /><path clip-path="url(#clip430)" d="M1285.96 1454.1 Q1282.35 1454.1 1280.52 1457.66 Q1278.72 1461.2 1278.72 1468.33 Q1278.72 1475.44 1280.52 1479.01 Q1282.35 1482.55 1285.96 1482.55 Q1289.6 1482.55 1291.4 1479.01 Q1293.23 1475.44 1293.23 1468.33 Q1293.23 1461.2 1291.4 1457.66 Q1289.6 1454.1 1285.96 1454.1 M1285.96 1450.39 Q1291.77 1450.39 1294.83 1455 Q1297.91 1459.58 1297.91 1468.33 Q1297.91 1477.06 1294.83 1481.67 Q1291.77 1486.25 1285.96 1486.25 Q1280.15 1486.25 1277.08 1481.67 Q1274.02 1477.06 1274.02 1468.33 Q1274.02 1459.58 1277.08 1455 Q1280.15 1450.39 1285.96 1450.39 Z" fill="#000000" fill-rule="nonzero" fill-opacity="1" /><path clip-path="url(#clip430)" d="M1302.77 1459.65 L1327.61 1459.65 L1327.61 1463.91 L1324.34 1463.91 L1324.34 1479.84 Q1324.34 1481.51 1324.9 1482.25 Q1325.48 1482.96 1326.75 1482.96 Q1327.1 1482.96 1327.61 1482.92 Q1328.12 1482.85 1328.28 1482.83 L1328.28 1485.9 Q1327.47 1486.2 1326.61 1486.34 Q1325.76 1486.48 1324.9 1486.48 Q1322.12 1486.48 1321.06 1484.98 Q1319.99 1483.45 1319.99 1479.38 L1319.99 1463.91 L1310.43 1463.91 L1310.43 1485.58 L1306.08 1485.58 L1306.08 1463.91 L1302.77 1463.91 L1302.77 1459.65 Z" fill="#000000" fill-rule="nonzero" fill-opacity="1" /><path clip-path="url(#clip430)" d="M1801.54 1481.64 L1809.17 1481.64 L1809.17 1455.28 L1800.86 1456.95 L1800.86 1452.69 L1809.13 1451.02 L1813.8 1451.02 L1813.8 1481.64 L1821.44 1481.64 L1821.44 1485.58 L1801.54 1485.58 L1801.54 1481.64 Z" fill="#000000" fill-rule="nonzero" fill-opacity="1" /><path clip-path="url(#clip430)" d="M1827.53 1459.65 L1852.37 1459.65 L1852.37 1463.91 L1849.11 1463.91 L1849.11 1479.84 Q1849.11 1481.51 1849.66 1482.25 Q1850.24 1482.96 1851.51 1482.96 Q1851.86 1482.96 1852.37 1482.92 Q1852.88 1482.85 1853.04 1482.83 L1853.04 1485.9 Q1852.23 1486.2 1851.37 1486.34 Q1850.52 1486.48 1849.66 1486.48 Q1846.88 1486.48 1845.82 1484.98 Q1844.75 1483.45 1844.75 1479.38 L1844.75 1463.91 L1835.19 1463.91 L1835.19 1485.58 L1830.84 1485.58 L1830.84 1463.91 L1827.53 1463.91 L1827.53 1459.65 Z" fill="#000000" fill-rule="nonzero" fill-opacity="1" /><path clip-path="url(#clip430)" d="M2331.43 1481.64 L2347.74 1481.64 L2347.74 1485.58 L2325.8 1485.58 L2325.8 1481.64 Q2328.46 1478.89 2333.05 1474.26 Q2337.65 1469.61 2338.83 1468.27 Q2341.08 1465.74 2341.96 1464.01 Q2342.86 1462.25 2342.86 1460.56 Q2342.86 1457.8 2340.92 1456.07 Q2338.99 1454.33 2335.89 1454.33 Q2333.69 1454.33 2331.24 1455.09 Q2328.81 1455.86 2326.03 1457.41 L2326.03 1452.69 Q2328.86 1451.55 2331.31 1450.97 Q2333.76 1450.39 2335.8 1450.39 Q2341.17 1450.39 2344.36 1453.08 Q2347.56 1455.77 2347.56 1460.26 Q2347.56 1462.39 2346.75 1464.31 Q2345.96 1466.2 2343.86 1468.8 Q2343.28 1469.47 2340.17 1472.69 Q2337.07 1475.88 2331.43 1481.64 Z" fill="#000000" fill-rule="nonzero" fill-opacity="1" /><path clip-path="url(#clip430)" d="M2354.2 1459.65 L2379.04 1459.65 L2379.04 1463.91 L2375.78 1463.91 L2375.78 1479.84 Q2375.78 1481.51 2376.33 1482.25 Q2376.91 1482.96 2378.18 1482.96 Q2378.53 1482.96 2379.04 1482.92 Q2379.55 1482.85 2379.71 1482.83 L2379.71 1485.9 Q2378.9 1486.2 2378.05 1486.34 Q2377.19 1486.48 2376.33 1486.48 Q2373.55 1486.48 2372.49 1484.98 Q2371.42 1483.45 2371.42 1479.38 L2371.42 1463.91 L2361.86 1463.91 L2361.86 1485.58 L2357.51 1485.58 L2357.51 1463.91 L2354.2 1463.91 L2354.2 1459.65 Z" fill="#000000" fill-rule="nonzero" fill-opacity="1" /><path clip-path="url(#clip430)" d="M824.087 1562.7 L824.087 1581.6 L818.199 1581.6 L818.199 1532.4 L824.087 1532.4 L824.087 1537.81 Q825.933 1534.62 828.734 1533.1 Q831.567 1531.54 835.482 1531.54 Q841.975 1531.54 846.017 1536.69 Q850.091 1541.85 850.091 1550.25 Q850.091 1558.65 846.017 1563.81 Q841.975 1568.97 835.482 1568.97 Q831.567 1568.97 828.734 1567.44 Q825.933 1565.88 824.087 1562.7 M844.012 1550.25 Q844.012 1543.79 841.338 1540.13 Q838.696 1536.44 834.049 1536.44 Q829.402 1536.44 826.729 1540.13 Q824.087 1543.79 824.087 1550.25 Q824.087 1556.71 826.729 1560.4 Q829.402 1564.07 834.049 1564.07 Q838.696 1564.07 841.338 1560.4 Q844.012 1556.71 844.012 1550.25 Z" fill="#000000" fill-rule="nonzero" fill-opacity="1" /><path clip-path="url(#clip430)" d="M889.431 1546.53 L889.431 1568.04 L883.575 1568.04 L883.575 1546.72 Q883.575 1541.66 881.601 1539.14 Q879.628 1536.63 875.681 1536.63 Q870.939 1536.63 868.201 1539.65 Q865.464 1542.68 865.464 1547.9 L865.464 1568.04 L859.576 1568.04 L859.576 1518.52 L865.464 1518.52 L865.464 1537.93 Q867.565 1534.72 870.398 1533.13 Q873.262 1531.54 876.986 1531.54 Q883.129 1531.54 886.28 1535.36 Q889.431 1539.14 889.431 1546.53 Z" fill="#000000" fill-rule="nonzero" fill-opacity="1" /><path clip-path="url(#clip430)" d="M917.313 1550.12 Q910.215 1550.12 907.478 1551.75 Q904.741 1553.37 904.741 1557.29 Q904.741 1560.4 906.778 1562.25 Q908.846 1564.07 912.379 1564.07 Q917.249 1564.07 920.177 1560.63 Q923.137 1557.16 923.137 1551.43 L923.137 1550.12 L917.313 1550.12 M928.994 1547.71 L928.994 1568.04 L923.137 1568.04 L923.137 1562.63 Q921.132 1565.88 918.14 1567.44 Q915.148 1568.97 910.82 1568.97 Q905.345 1568.97 902.099 1565.91 Q898.884 1562.82 898.884 1557.67 Q898.884 1551.65 902.894 1548.6 Q906.937 1545.54 914.926 1545.54 L923.137 1545.54 L923.137 1544.97 Q923.137 1540.93 920.464 1538.73 Q917.822 1536.5 913.016 1536.5 Q909.96 1536.5 907.064 1537.23 Q904.168 1537.97 901.494 1539.43 L901.494 1534.02 Q904.709 1532.78 907.732 1532.17 Q910.756 1531.54 913.621 1531.54 Q921.355 1531.54 925.174 1535.55 Q928.994 1539.56 928.994 1547.71 Z" fill="#000000" fill-rule="nonzero" fill-opacity="1" /><path clip-path="url(#clip430)" d="M963.782 1533.45 L963.782 1538.98 Q961.3 1537.71 958.626 1537.07 Q955.953 1536.44 953.088 1536.44 Q948.728 1536.44 946.531 1537.77 Q944.367 1539.11 944.367 1541.79 Q944.367 1543.82 945.927 1545 Q947.486 1546.15 952.197 1547.2 L954.202 1547.64 Q960.44 1548.98 963.05 1551.43 Q965.692 1553.85 965.692 1558.21 Q965.692 1563.17 961.745 1566.07 Q957.83 1568.97 950.956 1568.97 Q948.091 1568.97 944.972 1568.39 Q941.884 1567.85 938.447 1566.74 L938.447 1560.69 Q941.693 1562.38 944.844 1563.24 Q947.995 1564.07 951.083 1564.07 Q955.221 1564.07 957.449 1562.66 Q959.677 1561.23 959.677 1558.65 Q959.677 1556.27 958.053 1554.99 Q956.462 1553.72 951.019 1552.54 L948.982 1552.07 Q943.539 1550.92 941.121 1548.56 Q938.702 1546.18 938.702 1542.04 Q938.702 1537.01 942.266 1534.27 Q945.831 1531.54 952.388 1531.54 Q955.634 1531.54 958.499 1532.01 Q961.363 1532.49 963.782 1533.45 Z" fill="#000000" fill-rule="nonzero" fill-opacity="1" /><path clip-path="url(#clip430)" d="M1005.51 1548.76 L1005.51 1551.62 L978.583 1551.62 Q978.965 1557.67 982.211 1560.85 Q985.489 1564 991.314 1564 Q994.688 1564 997.839 1563.17 Q1001.02 1562.35 1004.14 1560.69 L1004.14 1566.23 Q1000.99 1567.57 997.68 1568.27 Q994.37 1568.97 990.964 1568.97 Q982.434 1568.97 977.437 1564 Q972.472 1559.04 972.472 1550.57 Q972.472 1541.82 977.182 1536.69 Q981.925 1531.54 989.945 1531.54 Q997.139 1531.54 1001.31 1536.18 Q1005.51 1540.8 1005.51 1548.76 M999.653 1547.04 Q999.59 1542.23 996.948 1539.37 Q994.338 1536.5 990.009 1536.5 Q985.108 1536.5 982.147 1539.27 Q979.219 1542.04 978.774 1547.07 L999.653 1547.04 Z" fill="#000000" fill-rule="nonzero" fill-opacity="1" /><path clip-path="url(#clip430)" d="M1066.33 1548.76 L1066.33 1551.62 L1039.41 1551.62 Q1039.79 1557.67 1043.04 1560.85 Q1046.31 1564 1052.14 1564 Q1055.51 1564 1058.66 1563.17 Q1061.85 1562.35 1064.97 1560.69 L1064.97 1566.23 Q1061.81 1567.57 1058.5 1568.27 Q1055.19 1568.97 1051.79 1568.97 Q1043.26 1568.97 1038.26 1564 Q1033.3 1559.04 1033.3 1550.57 Q1033.3 1541.82 1038.01 1536.69 Q1042.75 1531.54 1050.77 1531.54 Q1057.96 1531.54 1062.13 1536.18 Q1066.33 1540.8 1066.33 1548.76 M1060.48 1547.04 Q1060.41 1542.23 1057.77 1539.37 Q1055.16 1536.5 1050.83 1536.5 Q1045.93 1536.5 1042.97 1539.27 Q1040.04 1542.04 1039.6 1547.07 L1060.48 1547.04 Z" fill="#000000" fill-rule="nonzero" fill-opacity="1" /><path clip-path="url(#clip430)" d="M1071.74 1532.4 L1077.95 1532.4 L1089.09 1562.31 L1100.23 1532.4 L1106.44 1532.4 L1093.07 1568.04 L1085.11 1568.04 L1071.74 1532.4 Z" fill="#000000" fill-rule="nonzero" fill-opacity="1" /><path clip-path="url(#clip430)" d="M1128.34 1536.5 Q1123.63 1536.5 1120.89 1540.19 Q1118.15 1543.85 1118.15 1550.25 Q1118.15 1556.65 1120.86 1560.34 Q1123.59 1564 1128.34 1564 Q1133.01 1564 1135.75 1560.31 Q1138.49 1556.62 1138.49 1550.25 Q1138.49 1543.92 1135.75 1540.23 Q1133.01 1536.5 1128.34 1536.5 M1128.34 1531.54 Q1135.97 1531.54 1140.34 1536.5 Q1144.7 1541.47 1144.7 1550.25 Q1144.7 1559 1140.34 1564 Q1135.97 1568.97 1128.34 1568.97 Q1120.67 1568.97 1116.3 1564 Q1111.98 1559 1111.98 1550.25 Q1111.98 1541.47 1116.3 1536.5 Q1120.67 1531.54 1128.34 1531.54 Z" fill="#000000" fill-rule="nonzero" fill-opacity="1" /><path clip-path="url(#clip430)" d="M1154.4 1518.52 L1160.26 1518.52 L1160.26 1568.04 L1154.4 1568.04 L1154.4 1518.52 Z" fill="#000000" fill-rule="nonzero" fill-opacity="1" /><path clip-path="url(#clip430)" d="M1171.91 1553.98 L1171.91 1532.4 L1177.77 1532.4 L1177.77 1553.75 Q1177.77 1558.81 1179.74 1561.36 Q1181.71 1563.87 1185.66 1563.87 Q1190.4 1563.87 1193.14 1560.85 Q1195.91 1557.83 1195.91 1552.61 L1195.91 1532.4 L1201.76 1532.4 L1201.76 1568.04 L1195.91 1568.04 L1195.91 1562.57 Q1193.78 1565.82 1190.94 1567.41 Q1188.14 1568.97 1184.42 1568.97 Q1178.27 1568.97 1175.09 1565.15 Q1171.91 1561.33 1171.91 1553.98 M1186.65 1531.54 L1186.65 1531.54 Z" fill="#000000" fill-rule="nonzero" fill-opacity="1" /><path clip-path="url(#clip430)" d="M1219.62 1522.27 L1219.62 1532.4 L1231.68 1532.4 L1231.68 1536.95 L1219.62 1536.95 L1219.62 1556.3 Q1219.62 1560.66 1220.8 1561.9 Q1222.01 1563.14 1225.67 1563.14 L1231.68 1563.14 L1231.68 1568.04 L1225.67 1568.04 Q1218.89 1568.04 1216.31 1565.53 Q1213.73 1562.98 1213.73 1556.3 L1213.73 1536.95 L1209.44 1536.95 L1209.44 1532.4 L1213.73 1532.4 L1213.73 1522.27 L1219.62 1522.27 Z" fill="#000000" fill-rule="nonzero" fill-opacity="1" /><path clip-path="url(#clip430)" d="M1239.39 1532.4 L1245.24 1532.4 L1245.24 1568.04 L1239.39 1568.04 L1239.39 1532.4 M1239.39 1518.52 L1245.24 1518.52 L1245.24 1525.93 L1239.39 1525.93 L1239.39 1518.52 Z" fill="#000000" fill-rule="nonzero" fill-opacity="1" /><path clip-path="url(#clip430)" d="M1271.31 1536.5 Q1266.6 1536.5 1263.86 1540.19 Q1261.12 1543.85 1261.12 1550.25 Q1261.12 1556.65 1263.83 1560.34 Q1266.57 1564 1271.31 1564 Q1275.99 1564 1278.73 1560.31 Q1281.46 1556.62 1281.46 1550.25 Q1281.46 1543.92 1278.73 1540.23 Q1275.99 1536.5 1271.31 1536.5 M1271.31 1531.54 Q1278.95 1531.54 1283.31 1536.5 Q1287.67 1541.47 1287.67 1550.25 Q1287.67 1559 1283.31 1564 Q1278.95 1568.97 1271.31 1568.97 Q1263.64 1568.97 1259.28 1564 Q1254.95 1559 1254.95 1550.25 Q1254.95 1541.47 1259.28 1536.5 Q1263.64 1531.54 1271.31 1531.54 Z" fill="#000000" fill-rule="nonzero" fill-opacity="1" /><path clip-path="url(#clip430)" d="M1327.01 1546.53 L1327.01 1568.04 L1321.15 1568.04 L1321.15 1546.72 Q1321.15 1541.66 1319.18 1539.14 Q1317.21 1536.63 1313.26 1536.63 Q1308.52 1536.63 1305.78 1539.65 Q1303.04 1542.68 1303.04 1547.9 L1303.04 1568.04 L1297.15 1568.04 L1297.15 1532.4 L1303.04 1532.4 L1303.04 1537.93 Q1305.14 1534.72 1307.98 1533.13 Q1310.84 1531.54 1314.56 1531.54 Q1320.71 1531.54 1323.86 1535.36 Q1327.01 1539.14 1327.01 1546.53 Z" fill="#000000" fill-rule="nonzero" fill-opacity="1" /><path clip-path="url(#clip430)" d="M1340.19 1559.96 L1346.9 1559.96 L1346.9 1568.04 L1340.19 1568.04 L1340.19 1559.96 M1340.19 1534.34 L1346.9 1534.34 L1346.9 1542.42 L1340.19 1542.42 L1340.19 1534.34 Z" fill="#000000" fill-rule="nonzero" fill-opacity="1" /><path clip-path="url(#clip430)" d="M1405.31 1545.45 L1385.03 1545.45 Q1385.51 1554.96 1387.71 1559 Q1390.44 1563.97 1395.19 1563.97 Q1399.96 1563.97 1402.6 1558.97 Q1404.93 1554.58 1405.31 1545.45 M1405.21 1540.03 Q1404.32 1531 1402.6 1527.81 Q1399.87 1522.78 1395.19 1522.78 Q1390.32 1522.78 1387.74 1527.75 Q1385.7 1531.76 1385.1 1540.03 L1405.21 1540.03 M1395.19 1518.01 Q1402.83 1518.01 1407.19 1524.76 Q1411.55 1531.47 1411.55 1543.38 Q1411.55 1555.25 1407.19 1562 Q1402.83 1568.78 1395.19 1568.78 Q1387.52 1568.78 1383.19 1562 Q1378.83 1555.25 1378.83 1543.38 Q1378.83 1531.47 1383.19 1524.76 Q1387.52 1518.01 1395.19 1518.01 Z" fill="#000000" fill-rule="nonzero" fill-opacity="1" /><path clip-path="url(#clip430)" d="M1442.74 1538.44 L1483.54 1538.44 L1483.54 1543.79 L1442.74 1543.79 L1442.74 1538.44 M1442.74 1551.43 L1483.54 1551.43 L1483.54 1556.84 L1442.74 1556.84 L1442.74 1551.43 Z" fill="#000000" fill-rule="nonzero" fill-opacity="1" /><path clip-path="url(#clip430)" d="M1523.68 1562.63 L1546.12 1562.63 L1546.12 1568.04 L1515.94 1568.04 L1515.94 1562.63 Q1519.6 1558.85 1525.91 1552.48 Q1532.24 1546.08 1533.86 1544.24 Q1536.95 1540.77 1538.16 1538.38 Q1539.4 1535.96 1539.4 1533.64 Q1539.4 1529.85 1536.73 1527.46 Q1534.09 1525.08 1529.82 1525.08 Q1526.8 1525.08 1523.42 1526.13 Q1520.08 1527.18 1516.26 1529.31 L1516.26 1522.82 Q1520.15 1521.26 1523.52 1520.46 Q1526.89 1519.66 1529.69 1519.66 Q1537.08 1519.66 1541.47 1523.36 Q1545.86 1527.05 1545.86 1533.22 Q1545.86 1536.15 1544.75 1538.79 Q1543.67 1541.4 1540.77 1544.97 Q1539.97 1545.89 1535.71 1550.32 Q1531.44 1554.71 1523.68 1562.63 Z" fill="#000000" fill-rule="nonzero" fill-opacity="1" /><path clip-path="url(#clip430)" d="M1555 1532.4 L1589.15 1532.4 L1589.15 1538.25 L1584.66 1538.25 L1584.66 1560.15 Q1584.66 1562.44 1585.43 1563.46 Q1586.22 1564.45 1587.97 1564.45 Q1588.45 1564.45 1589.15 1564.38 Q1589.85 1564.29 1590.07 1564.26 L1590.07 1568.49 Q1588.96 1568.9 1587.78 1569.09 Q1586.6 1569.29 1585.43 1569.29 Q1581.61 1569.29 1580.14 1567.22 Q1578.68 1565.12 1578.68 1559.51 L1578.68 1538.25 L1565.53 1538.25 L1565.53 1568.04 L1559.55 1568.04 L1559.55 1538.25 L1555 1538.25 L1555 1532.4 Z" fill="#000000" fill-rule="nonzero" fill-opacity="1" /><path clip-path="url(#clip430)" d="M1598.86 1541.37 L1605.57 1541.37 L1605.57 1549.46 L1598.86 1549.46 L1598.86 1541.37 Z" fill="#000000" fill-rule="nonzero" fill-opacity="1" /><path clip-path="url(#clip430)" d="M1634.89 1526.86 L1621.84 1562.7 L1647.97 1562.7 L1634.89 1526.86 M1613.12 1568.04 L1631.26 1520.52 L1638.55 1520.52 L1656.66 1568.04 L1613.12 1568.04 Z" fill="#000000" fill-rule="nonzero" fill-opacity="1" /><path clip-path="url(#clip430)" d="M1681.39 1518.52 L1681.39 1523.39 L1675.79 1523.39 Q1672.64 1523.39 1671.39 1524.66 Q1670.18 1525.93 1670.18 1529.24 L1670.18 1532.4 L1679.83 1532.4 L1679.83 1536.95 L1670.18 1536.95 L1670.18 1568.04 L1664.3 1568.04 L1664.3 1536.95 L1658.69 1536.95 L1658.69 1532.4 L1664.3 1532.4 L1664.3 1529.91 Q1664.3 1523.96 1667.07 1521.26 Q1669.83 1518.52 1675.85 1518.52 L1681.39 1518.52 Z" fill="#000000" fill-rule="nonzero" fill-opacity="1" /><path clip-path="url(#clip430)" d="M1687.12 1541.37 L1693.83 1541.37 L1693.83 1549.46 L1687.12 1549.46 L1687.12 1541.37 Z" fill="#000000" fill-rule="nonzero" fill-opacity="1" /><path clip-path="url(#clip430)" d="M1700.68 1520.52 L1740.88 1520.52 L1740.88 1525.93 L1724.01 1525.93 L1724.01 1568.04 L1717.55 1568.04 L1717.55 1525.93 L1700.68 1525.93 L1700.68 1520.52 Z" fill="#000000" fill-rule="nonzero" fill-opacity="1" /><path clip-path="url(#clip430)" d="M1769.62 1545.76 Q1771.69 1546.46 1773.63 1548.76 Q1775.6 1551.05 1777.57 1555.06 L1784.1 1568.04 L1777.19 1568.04 L1771.11 1555.85 Q1768.76 1551.08 1766.53 1549.52 Q1764.33 1547.96 1760.51 1547.96 L1753.51 1547.96 L1753.51 1568.04 L1747.08 1568.04 L1747.08 1520.52 L1761.6 1520.52 Q1769.74 1520.52 1773.75 1523.93 Q1777.77 1527.34 1777.77 1534.21 Q1777.77 1538.7 1775.66 1541.66 Q1773.6 1544.62 1769.62 1545.76 M1753.51 1525.81 L1753.51 1542.68 L1761.6 1542.68 Q1766.24 1542.68 1768.6 1540.54 Q1770.99 1538.38 1770.99 1534.21 Q1770.99 1530.04 1768.6 1527.94 Q1766.24 1525.81 1761.6 1525.81 L1753.51 1525.81 Z" fill="#000000" fill-rule="nonzero" fill-opacity="1" /><polyline clip-path="url(#clip430)" style="stroke:#000000; stroke-linecap:round; stroke-linejoin:round; stroke-width:4; stroke-opacity:1; fill:none" points="249.542,1423.18 249.542,855.61 "/>
<polyline clip-path="url(#clip430)" style="stroke:#000000; stroke-linecap:round; stroke-linejoin:round; stroke-width:4; stroke-opacity:1; fill:none" points="249.542,1423.18 268.44,1423.18 "/>
<polyline clip-path="url(#clip430)" style="stroke:#000000; stroke-linecap:round; stroke-linejoin:round; stroke-width:4; stroke-opacity:1; fill:none" points="249.542,1139.39 268.44,1139.39 "/>
<polyline clip-path="url(#clip430)" style="stroke:#000000; stroke-linecap:round; stroke-linejoin:round; stroke-width:4; stroke-opacity:1; fill:none" points="249.542,855.61 268.44,855.61 "/>
<path clip-path="url(#clip430)" d="M141.366 1425.58 L153.843 1425.58 L153.843 1429.37 L141.366 1429.37 L141.366 1425.58 Z" fill="#000000" fill-rule="nonzero" fill-opacity="1" /><path clip-path="url(#clip430)" d="M162.038 1436.52 L169.677 1436.52 L169.677 1410.16 L161.366 1411.83 L161.366 1407.57 L169.63 1405.9 L174.306 1405.9 L174.306 1436.52 L181.945 1436.52 L181.945 1440.46 L162.038 1440.46 L162.038 1436.52 Z" fill="#000000" fill-rule="nonzero" fill-opacity="1" /><path clip-path="url(#clip430)" d="M188.033 1414.53 L212.871 1414.53 L212.871 1418.79 L209.607 1418.79 L209.607 1434.72 Q209.607 1436.39 210.162 1437.13 Q210.741 1437.84 212.014 1437.84 Q212.361 1437.84 212.871 1437.8 Q213.38 1437.73 213.542 1437.71 L213.542 1440.78 Q212.732 1441.08 211.875 1441.22 Q211.019 1441.36 210.162 1441.36 Q207.385 1441.36 206.32 1439.86 Q205.255 1438.33 205.255 1434.26 L205.255 1418.79 L195.695 1418.79 L195.695 1440.46 L191.343 1440.46 L191.343 1418.79 L188.033 1418.79 L188.033 1414.53 Z" fill="#000000" fill-rule="nonzero" fill-opacity="1" /><path clip-path="url(#clip430)" d="M171.227 1125.19 Q167.616 1125.19 165.788 1128.76 Q163.982 1132.3 163.982 1139.43 Q163.982 1146.54 165.788 1150.1 Q167.616 1153.64 171.227 1153.64 Q174.862 1153.64 176.667 1150.1 Q178.496 1146.54 178.496 1139.43 Q178.496 1132.3 176.667 1128.76 Q174.862 1125.19 171.227 1125.19 M171.227 1121.49 Q177.038 1121.49 180.093 1126.1 Q183.172 1130.68 183.172 1139.43 Q183.172 1148.16 180.093 1152.76 Q177.038 1157.35 171.227 1157.35 Q165.417 1157.35 162.339 1152.76 Q159.283 1148.16 159.283 1139.43 Q159.283 1130.68 162.339 1126.1 Q165.417 1121.49 171.227 1121.49 Z" fill="#000000" fill-rule="nonzero" fill-opacity="1" /><path clip-path="url(#clip430)" d="M188.033 1130.75 L212.871 1130.75 L212.871 1135.01 L209.607 1135.01 L209.607 1150.93 Q209.607 1152.6 210.162 1153.34 Q210.741 1154.06 212.014 1154.06 Q212.361 1154.06 212.871 1154.01 Q213.38 1153.94 213.542 1153.92 L213.542 1157 Q212.732 1157.3 211.875 1157.44 Q211.019 1157.58 210.162 1157.58 Q207.385 1157.58 206.32 1156.07 Q205.255 1154.55 205.255 1150.47 L205.255 1135.01 L195.695 1135.01 L195.695 1156.67 L191.343 1156.67 L191.343 1135.01 L188.033 1135.01 L188.033 1130.75 Z" fill="#000000" fill-rule="nonzero" fill-opacity="1" /><path clip-path="url(#clip430)" d="M162.038 868.955 L169.677 868.955 L169.677 842.589 L161.366 844.256 L161.366 839.997 L169.63 838.33 L174.306 838.33 L174.306 868.955 L181.945 868.955 L181.945 872.89 L162.038 872.89 L162.038 868.955 Z" fill="#000000" fill-rule="nonzero" fill-opacity="1" /><path clip-path="url(#clip430)" d="M188.033 846.964 L212.871 846.964 L212.871 851.224 L209.607 851.224 L209.607 867.149 Q209.607 868.816 210.162 869.557 Q210.741 870.274 212.014 870.274 Q212.361 870.274 212.871 870.228 Q213.38 870.159 213.542 870.135 L213.542 873.214 Q212.732 873.515 211.875 873.654 Q211.019 873.793 210.162 873.793 Q207.385 873.793 206.32 872.288 Q205.255 870.76 205.255 866.686 L205.255 851.224 L195.695 851.224 L195.695 872.89 L191.343 872.89 L191.343 851.224 L188.033 851.224 L188.033 846.964 Z" fill="#000000" fill-rule="nonzero" fill-opacity="1" /><path clip-path="url(#clip430)" d="M56.5129 1315.68 L62.051 1315.68 Q60.7779 1318.16 60.1413 1320.83 Q59.5048 1323.51 59.5048 1326.37 Q59.5048 1330.73 60.8416 1332.93 Q62.1784 1335.09 64.852 1335.09 Q66.889 1335.09 68.0666 1333.53 Q69.2125 1331.97 70.2628 1327.26 L70.7084 1325.26 Q72.0452 1319.02 74.496 1316.41 Q76.915 1313.77 81.2755 1313.77 Q86.2407 1313.77 89.1371 1317.71 Q92.0335 1321.63 92.0335 1328.5 Q92.0335 1331.37 91.4606 1334.49 Q90.9195 1337.58 89.8055 1341.01 L83.7581 1341.01 Q85.445 1337.77 86.3044 1334.62 Q87.1319 1331.46 87.1319 1328.38 Q87.1319 1324.24 85.7315 1322.01 Q84.2992 1319.78 81.7211 1319.78 Q79.3339 1319.78 78.0608 1321.41 Q76.7877 1323 75.61 1328.44 L75.1326 1330.48 Q73.9867 1335.92 71.6314 1338.34 Q69.2443 1340.76 65.1066 1340.76 Q60.0777 1340.76 57.3404 1337.19 Q54.6032 1333.63 54.6032 1327.07 Q54.6032 1323.83 55.0806 1320.96 Q55.558 1318.1 56.5129 1315.68 Z" fill="#000000" fill-rule="nonzero" fill-opacity="1" /><path clip-path="url(#clip430)" d="M55.4625 1304.44 L55.4625 1298.59 L91.1105 1298.59 L91.1105 1304.44 L55.4625 1304.44 M41.5853 1304.44 L41.5853 1298.59 L49.0013 1298.59 L49.0013 1304.44 L41.5853 1304.44 Z" fill="#000000" fill-rule="nonzero" fill-opacity="1" /><path clip-path="url(#clip430)" d="M72.8727 1262.87 Q66.507 1262.87 63.0059 1265.52 Q59.5048 1268.13 59.5048 1272.87 Q59.5048 1277.58 63.0059 1280.22 Q66.507 1282.83 72.8727 1282.83 Q79.2066 1282.83 82.7078 1280.22 Q86.2089 1277.58 86.2089 1272.87 Q86.2089 1268.13 82.7078 1265.52 Q79.2066 1262.87 72.8727 1262.87 M86.6863 1257.02 Q95.7893 1257.02 100.213 1261.06 Q104.669 1265.1 104.669 1273.44 Q104.669 1276.53 104.192 1279.27 Q103.746 1282 102.792 1284.58 L97.0943 1284.58 Q98.4947 1282 99.1631 1279.49 Q99.8315 1276.97 99.8315 1274.36 Q99.8315 1268.6 96.8078 1265.74 Q93.8159 1262.87 87.7367 1262.87 L84.8403 1262.87 Q87.9913 1264.69 89.5509 1267.52 Q91.1105 1270.35 91.1105 1274.3 Q91.1105 1280.86 86.1134 1284.87 Q81.1163 1288.88 72.8727 1288.88 Q64.5973 1288.88 59.6002 1284.87 Q54.6032 1280.86 54.6032 1274.3 Q54.6032 1270.35 56.1628 1267.52 Q57.7224 1264.69 60.8734 1262.87 L55.4625 1262.87 L55.4625 1257.02 L86.6863 1257.02 Z" fill="#000000" fill-rule="nonzero" fill-opacity="1" /><path clip-path="url(#clip430)" d="M69.5944 1215.32 L91.1105 1215.32 L91.1105 1221.18 L69.7854 1221.18 Q64.7246 1221.18 62.2102 1223.15 Q59.6957 1225.13 59.6957 1229.07 Q59.6957 1233.81 62.7194 1236.55 Q65.7432 1239.29 70.963 1239.29 L91.1105 1239.29 L91.1105 1245.18 L55.4625 1245.18 L55.4625 1239.29 L61.0007 1239.29 Q57.786 1237.19 56.1946 1234.36 Q54.6032 1231.49 54.6032 1227.77 Q54.6032 1221.62 58.4226 1218.47 Q62.2102 1215.32 69.5944 1215.32 Z" fill="#000000" fill-rule="nonzero" fill-opacity="1" /><path clip-path="url(#clip430)" d="M73.191 1187.44 Q73.191 1194.54 74.8143 1197.28 Q76.4375 1200.01 80.3524 1200.01 Q83.4716 1200.01 85.3177 1197.98 Q87.1319 1195.91 87.1319 1192.37 Q87.1319 1187.5 83.6944 1184.58 Q80.2251 1181.62 74.496 1181.62 L73.191 1181.62 L73.191 1187.44 M70.7721 1175.76 L91.1105 1175.76 L91.1105 1181.62 L85.6996 1181.62 Q88.9462 1183.62 90.5058 1186.61 Q92.0335 1189.6 92.0335 1193.93 Q92.0335 1199.41 88.978 1202.65 Q85.8906 1205.87 80.7344 1205.87 Q74.7188 1205.87 71.6633 1201.86 Q68.6077 1197.82 68.6077 1189.83 L68.6077 1181.62 L68.0348 1181.62 Q63.9926 1181.62 61.7964 1184.29 Q59.5684 1186.93 59.5684 1191.74 Q59.5684 1194.79 60.3005 1197.69 Q61.0325 1200.59 62.4966 1203.26 L57.0858 1203.26 Q55.8445 1200.04 55.2397 1197.02 Q54.6032 1194 54.6032 1191.13 Q54.6032 1183.4 58.6136 1179.58 Q62.624 1175.76 70.7721 1175.76 Z" fill="#000000" fill-rule="nonzero" fill-opacity="1" /><path clip-path="url(#clip430)" d="M41.5853 1163.7 L41.5853 1157.84 L91.1105 1157.84 L91.1105 1163.7 L41.5853 1163.7 Z" fill="#000000" fill-rule="nonzero" fill-opacity="1" /><path clip-path="url(#clip430)" d="M85.7633 1119.2 L104.669 1119.2 L104.669 1125.09 L55.4625 1125.09 L55.4625 1119.2 L60.8734 1119.2 Q57.6905 1117.35 56.1628 1114.55 Q54.6032 1111.72 54.6032 1107.81 Q54.6032 1101.31 59.7594 1097.27 Q64.9156 1093.2 73.3183 1093.2 Q81.7211 1093.2 86.8773 1097.27 Q92.0335 1101.31 92.0335 1107.81 Q92.0335 1111.72 90.5058 1114.55 Q88.9462 1117.35 85.7633 1119.2 M73.3183 1099.28 Q66.8572 1099.28 63.1969 1101.95 Q59.5048 1104.59 59.5048 1109.24 Q59.5048 1113.88 63.1969 1116.56 Q66.8572 1119.2 73.3183 1119.2 Q79.7795 1119.2 83.4716 1116.56 Q87.1319 1113.88 87.1319 1109.24 Q87.1319 1104.59 83.4716 1101.95 Q79.7795 1099.28 73.3183 1099.28 Z" fill="#000000" fill-rule="nonzero" fill-opacity="1" /><path clip-path="url(#clip430)" d="M69.5944 1053.86 L91.1105 1053.86 L91.1105 1059.71 L69.7854 1059.71 Q64.7246 1059.71 62.2102 1061.69 Q59.6957 1063.66 59.6957 1067.61 Q59.6957 1072.35 62.7194 1075.09 Q65.7432 1077.82 70.963 1077.82 L91.1105 1077.82 L91.1105 1083.71 L41.5853 1083.71 L41.5853 1077.82 L61.0007 1077.82 Q57.786 1075.72 56.1946 1072.89 Q54.6032 1070.02 54.6032 1066.3 Q54.6032 1060.16 58.4226 1057.01 Q62.2102 1053.86 69.5944 1053.86 Z" fill="#000000" fill-rule="nonzero" fill-opacity="1" /><path clip-path="url(#clip430)" d="M73.191 1025.97 Q73.191 1033.07 74.8143 1035.81 Q76.4375 1038.55 80.3524 1038.55 Q83.4716 1038.55 85.3177 1036.51 Q87.1319 1034.44 87.1319 1030.91 Q87.1319 1026.04 83.6944 1023.11 Q80.2251 1020.15 74.496 1020.15 L73.191 1020.15 L73.191 1025.97 M70.7721 1014.29 L91.1105 1014.29 L91.1105 1020.15 L85.6996 1020.15 Q88.9462 1022.15 90.5058 1025.15 Q92.0335 1028.14 92.0335 1032.47 Q92.0335 1037.94 88.978 1041.19 Q85.8906 1044.4 80.7344 1044.4 Q74.7188 1044.4 71.6633 1040.39 Q68.6077 1036.35 68.6077 1028.36 L68.6077 1020.15 L68.0348 1020.15 Q63.9926 1020.15 61.7964 1022.82 Q59.5684 1025.46 59.5684 1030.27 Q59.5684 1033.33 60.3005 1036.22 Q61.0325 1039.12 62.4966 1041.79 L57.0858 1041.79 Q55.8445 1038.58 55.2397 1035.55 Q54.6032 1032.53 54.6032 1029.67 Q54.6032 1021.93 58.6136 1018.11 Q62.624 1014.29 70.7721 1014.29 Z" fill="#000000" fill-rule="nonzero" fill-opacity="1" /><path clip-path="url(#clip430)" d="M56.5129 979.504 L62.051 979.504 Q60.7779 981.987 60.1413 984.661 Q59.5048 987.334 59.5048 990.199 Q59.5048 994.559 60.8416 996.755 Q62.1784 998.92 64.852 998.92 Q66.889 998.92 68.0666 997.36 Q69.2125 995.801 70.2628 991.09 L70.7084 989.085 Q72.0452 982.846 74.496 980.236 Q76.915 977.595 81.2755 977.595 Q86.2407 977.595 89.1371 981.541 Q92.0335 985.456 92.0335 992.331 Q92.0335 995.196 91.4606 998.315 Q90.9195 1001.4 89.8055 1004.84 L83.7581 1004.84 Q85.445 1001.59 86.3044 998.442 Q87.1319 995.291 87.1319 992.204 Q87.1319 988.066 85.7315 985.838 Q84.2992 983.61 81.7211 983.61 Q79.3339 983.61 78.0608 985.233 Q76.7877 986.825 75.61 992.268 L75.1326 994.305 Q73.9867 999.747 71.6314 1002.17 Q69.2443 1004.59 65.1066 1004.59 Q60.0777 1004.59 57.3404 1001.02 Q54.6032 997.456 54.6032 990.899 Q54.6032 987.652 55.0806 984.788 Q55.558 981.923 56.5129 979.504 Z" fill="#000000" fill-rule="nonzero" fill-opacity="1" /><path clip-path="url(#clip430)" d="M71.8224 937.777 L74.687 937.777 L74.687 964.704 Q80.7344 964.322 83.9172 961.076 Q87.0683 957.797 87.0683 951.973 Q87.0683 948.599 86.2407 945.448 Q85.4132 942.265 83.7581 939.146 L89.2963 939.146 Q90.6331 942.297 91.3333 945.607 Q92.0335 948.917 92.0335 952.323 Q92.0335 960.853 87.0683 965.85 Q82.103 970.815 73.6366 970.815 Q64.8838 970.815 59.7594 966.105 Q54.6032 961.362 54.6032 953.341 Q54.6032 946.148 59.2501 941.978 Q63.8653 937.777 71.8224 937.777 M70.1037 943.634 Q65.2976 943.697 62.433 946.339 Q59.5684 948.949 59.5684 953.278 Q59.5684 958.179 62.3375 961.139 Q65.1066 964.067 70.1355 964.513 L70.1037 943.634 Z" fill="#000000" fill-rule="nonzero" fill-opacity="1" /><polyline clip-path="url(#clip433)" style="stroke:#0000ff; stroke-linecap:round; stroke-linejoin:round; stroke-width:6; stroke-opacity:1; fill:none" points="249.542,855.61 260.058,856.922 270.574,858.236 281.09,859.554 291.606,860.878 302.122,862.21 312.638,863.553 323.155,864.908 333.671,866.278 344.187,867.666 354.703,869.073 365.219,870.502 375.735,871.957 386.251,873.439 396.767,874.952 407.283,876.499 417.799,878.083 428.315,879.709 438.831,881.379 449.347,883.098 459.863,884.87 470.379,886.701 480.896,888.595 491.412,890.557 501.928,892.595 512.444,894.713 522.96,896.92 533.476,899.222 543.992,901.627 554.508,904.145 565.024,906.783 575.54,909.553 586.056,912.464 596.572,915.526 607.088,918.752 617.604,922.152 628.121,925.738 638.637,929.521 649.153,933.511 659.669,937.717 670.185,942.146 680.701,946.804 691.217,951.692 701.733,956.806 712.249,962.139 722.765,967.676 733.281,973.397 743.797,979.276 754.313,985.28 764.829,991.369 775.346,997.503 785.862,1003.64 796.378,1009.73 806.894,1015.73 817.41,1021.61 827.926,1027.33 838.442,1032.87 848.958,1038.2 859.474,1043.31 869.99,1048.2 880.506,1052.86 891.022,1057.29 901.538,1061.49 912.054,1065.48 922.57,1069.27 933.087,1072.85 943.603,1076.25 954.119,1079.48 964.635,1082.54 975.151,1085.45 985.667,1088.22 996.183,1090.86 1006.7,1093.38 1017.22,1095.78 1027.73,1098.09 1038.25,1100.29 1048.76,1102.41 1059.28,1104.45 1069.8,1106.41 1080.31,1108.3 1090.83,1110.13 1101.34,1111.91 1111.86,1113.63 1122.38,1115.3 1132.89,1116.92 1143.41,1118.51 1153.92,1120.05 1164.44,1121.57 1174.96,1123.05 1185.47,1124.5 1195.99,1125.93 1206.5,1127.34 1217.02,1128.73 1227.54,1130.1 1238.05,1131.45 1248.57,1132.8 1259.08,1134.13 1269.6,1135.45 1280.12,1136.77 1290.63,1138.08 1301.15,1139.39 1311.67,1140.71 1322.18,1142.02 1332.7,1143.34 1343.21,1144.66 1353.73,1145.99 1364.25,1147.34 1374.76,1148.69 1385.28,1150.06 1395.79,1151.45 1406.31,1152.86 1416.83,1154.29 1427.34,1155.74 1437.86,1157.22 1448.37,1158.74 1458.89,1160.28 1469.41,1161.87 1479.92,1163.49 1490.44,1165.16 1500.95,1166.88 1511.47,1168.66 1521.99,1170.49 1532.5,1172.38 1543.02,1174.34 1553.53,1176.38 1564.05,1178.5 1574.57,1180.7 1585.08,1183.01 1595.6,1185.41 1606.11,1187.93 1616.63,1190.57 1627.15,1193.34 1637.66,1196.25 1648.18,1199.31 1658.7,1202.54 1669.21,1205.94 1679.73,1209.52 1690.24,1213.31 1700.76,1217.3 1711.28,1221.5 1721.79,1225.93 1732.31,1230.59 1742.82,1235.48 1753.34,1240.59 1763.86,1245.92 1774.37,1251.46 1784.89,1257.18 1795.4,1263.06 1805.92,1269.06 1816.44,1275.15 1826.95,1281.29 1837.47,1287.42 1847.98,1293.51 1858.5,1299.51 1869.02,1305.39 1879.53,1311.11 1890.05,1316.65 1900.56,1321.98 1911.08,1327.1 1921.6,1331.99 1932.11,1336.64 1942.63,1341.07 1953.15,1345.28 1963.66,1349.27 1974.18,1353.05 1984.69,1356.64 1995.21,1360.04 2005.73,1363.26 2016.24,1366.33 2026.76,1369.24 2037.27,1372.01 2047.79,1374.65 2058.31,1377.16 2068.82,1379.57 2079.34,1381.87 2089.85,1384.08 2100.37,1386.2 2110.89,1388.23 2121.4,1390.2 2131.92,1392.09 2142.43,1393.92 2152.95,1395.69 2163.47,1397.41 2173.98,1399.08 2184.5,1400.71 2195.01,1402.29 2205.53,1403.84 2216.05,1405.35 2226.56,1406.83 2237.08,1408.29 2247.6,1409.72 2258.11,1411.12 2268.63,1412.51 2279.14,1413.88 2289.66,1415.24 2300.18,1416.58 2310.69,1417.91 2321.21,1419.24 2331.72,1420.55 2342.24,1421.87 2352.76,1423.18 "/>
<polyline clip-path="url(#clip433)" style="stroke:#ff0000; stroke-linecap:round; stroke-linejoin:round; stroke-width:6; stroke-opacity:1; fill:none" points="249.542,1389.56 260.058,1392.84 270.574,1396.3 281.09,1399.95 291.606,1403.8 302.122,1407.86 312.638,1412.14 323.155,1416.65 333.671,1421.38 344.187,858.777 354.703,863.965 365.219,869.368 375.735,874.969 386.251,880.746 396.767,886.67 407.283,892.707 417.799,898.816 428.315,904.954 438.831,911.078 449.347,917.143 459.863,923.109 470.379,928.939 480.896,934.601 491.412,940.072 501.928,945.334 512.444,950.373 522.96,955.184 533.476,959.765 543.992,964.12 554.508,968.253 565.024,972.173 575.54,975.888 586.056,979.411 596.572,982.752 607.088,985.922 617.604,988.933 628.121,991.795 638.637,994.52 649.153,997.118 659.669,999.597 670.185,1001.97 680.701,1004.24 691.217,1006.41 701.733,1008.5 712.249,1010.51 722.765,1012.45 733.281,1014.33 743.797,1016.14 754.313,1017.89 764.829,1019.59 775.346,1021.25 785.862,1022.86 796.378,1024.43 806.894,1025.97 817.41,1027.47 827.926,1028.94 838.442,1030.39 848.958,1031.81 859.474,1033.21 869.99,1034.59 880.506,1035.96 891.022,1037.31 901.538,1038.65 912.054,1039.97 922.57,1041.3 933.087,1042.61 943.603,1043.93 954.119,1045.24 964.635,1046.55 975.151,1047.86 985.667,1049.18 996.183,1050.51 1006.7,1051.85 1017.22,1053.19 1027.73,1054.55 1038.25,1055.93 1048.76,1057.32 1059.28,1058.74 1069.8,1060.17 1080.31,1061.64 1090.83,1063.13 1101.34,1064.65 1111.86,1066.21 1122.38,1067.81 1132.89,1069.45 1143.41,1071.14 1153.92,1072.87 1164.44,1074.66 1174.96,1076.51 1185.47,1078.43 1195.99,1080.42 1206.5,1082.48 1217.02,1084.63 1227.54,1086.87 1238.05,1089.2 1248.57,1091.64 1259.08,1094.2 1269.6,1096.88 1280.12,1099.7 1290.63,1102.66 1301.15,1105.77 1311.67,1109.06 1322.18,1112.52 1332.7,1116.17 1343.21,1120.02 1353.73,1124.08 1364.25,1128.36 1374.76,1132.86 1385.28,1137.6 1395.79,1142.56 1406.31,1147.75 1416.83,1153.15 1427.34,1158.75 1437.86,1164.53 1448.37,1170.46 1458.89,1176.49 1469.41,1182.6 1479.92,1188.74 1490.44,1194.86 1500.95,1200.93 1511.47,1206.89 1521.99,1212.72 1532.5,1218.39 1543.02,1223.86 1553.53,1229.12 1564.05,1234.16 1574.57,1238.97 1585.08,1243.55 1595.6,1247.9 1606.11,1252.04 1616.63,1255.96 1627.15,1259.67 1637.66,1263.2 1648.18,1266.54 1658.7,1269.71 1669.21,1272.72 1679.73,1275.58 1690.24,1278.31 1700.76,1280.9 1711.28,1283.38 1721.79,1285.75 1732.31,1288.02 1742.82,1290.2 1753.34,1292.29 1763.86,1294.3 1774.37,1296.24 1784.89,1298.11 1795.4,1299.92 1805.92,1301.68 1816.44,1303.38 1826.95,1305.03 1837.47,1306.64 1847.98,1308.22 1858.5,1309.75 1869.02,1311.25 1879.53,1312.73 1890.05,1314.17 1900.56,1315.59 1911.08,1316.99 1921.6,1318.38 1932.11,1319.74 1942.63,1321.09 1953.15,1322.43 1963.66,1323.76 1974.18,1325.08 1984.69,1326.4 1995.21,1327.71 2005.73,1329.02 2016.24,1330.33 2026.76,1331.65 2037.27,1332.97 2047.79,1334.3 2058.31,1335.63 2068.82,1336.98 2079.34,1338.34 2089.85,1339.71 2100.37,1341.11 2110.89,1342.52 2121.4,1343.96 2131.92,1345.42 2142.43,1346.91 2152.95,1348.44 2163.47,1350 2173.98,1351.6 2184.5,1353.24 2195.01,1354.92 2205.53,1356.66 2216.05,1358.45 2226.56,1360.3 2237.08,1362.22 2247.6,1364.2 2258.11,1366.27 2268.63,1368.41 2279.14,1370.65 2289.66,1372.99 2300.18,1375.43 2310.69,1377.99 2321.21,1380.67 2331.72,1383.48 2342.24,1386.44 2352.76,1389.56 "/>
<polyline clip-path="url(#clip433)" style="stroke:#000000; stroke-linecap:round; stroke-linejoin:round; stroke-width:6; stroke-opacity:1; fill:none" points="249.542,1423.18 260.058,861.744 270.574,867.833 281.09,873.836 291.606,879.715 302.122,885.437 312.638,890.974 323.155,896.307 333.671,901.421 344.187,906.308 354.703,910.966 365.219,915.396 375.735,919.602 386.251,923.592 396.767,927.374 407.283,930.96 417.799,934.36 428.315,937.586 438.831,940.649 449.347,943.56 459.863,946.329 470.379,948.968 480.896,951.485 491.412,953.891 501.928,956.193 512.444,958.399 522.96,960.518 533.476,962.555 543.992,964.518 554.508,966.412 565.024,968.242 575.54,970.015 586.056,971.734 596.572,973.404 607.088,975.029 617.604,976.614 628.121,978.161 638.637,979.674 649.153,981.156 659.669,982.61 670.185,984.04 680.701,985.447 691.217,986.834 701.733,988.205 712.249,989.56 722.765,990.903 733.281,992.235 743.797,993.559 754.313,994.877 764.829,996.191 775.346,997.503 785.862,998.814 796.378,1000.13 806.894,1001.45 817.41,1002.77 827.926,1004.1 838.442,1005.45 848.958,1006.8 859.474,1008.17 869.99,1009.56 880.506,1010.97 891.022,1012.39 901.538,1013.85 912.054,1015.33 922.57,1016.84 933.087,1018.39 943.603,1019.98 954.119,1021.6 964.635,1023.27 975.151,1024.99 985.667,1026.76 996.183,1028.59 1006.7,1030.49 1017.22,1032.45 1027.73,1034.49 1038.25,1036.61 1048.76,1038.81 1059.28,1041.11 1069.8,1043.52 1080.31,1046.04 1090.83,1048.68 1101.34,1051.45 1111.86,1054.36 1122.38,1057.42 1132.89,1060.64 1143.41,1064.04 1153.92,1067.63 1164.44,1071.41 1174.96,1075.4 1185.47,1079.61 1195.99,1084.04 1206.5,1088.7 1217.02,1093.58 1227.54,1098.7 1238.05,1104.03 1248.57,1109.57 1259.08,1115.29 1269.6,1121.17 1280.12,1127.17 1290.63,1133.26 1301.15,1139.39 1311.67,1145.53 1322.18,1151.62 1332.7,1157.62 1343.21,1163.5 1353.73,1169.22 1364.25,1174.76 1374.76,1180.09 1385.28,1185.21 1395.79,1190.09 1406.31,1194.75 1416.83,1199.18 1427.34,1203.39 1437.86,1207.38 1448.37,1211.16 1458.89,1214.75 1469.41,1218.15 1479.92,1221.37 1490.44,1224.43 1500.95,1227.34 1511.47,1230.11 1521.99,1232.75 1532.5,1235.27 1543.02,1237.68 1553.53,1239.98 1564.05,1242.18 1574.57,1244.3 1585.08,1246.34 1595.6,1248.3 1606.11,1250.2 1616.63,1252.03 1627.15,1253.8 1637.66,1255.52 1648.18,1257.19 1658.7,1258.81 1669.21,1260.4 1679.73,1261.95 1690.24,1263.46 1700.76,1264.94 1711.28,1266.4 1721.79,1267.82 1732.31,1269.23 1742.82,1270.62 1753.34,1271.99 1763.86,1273.34 1774.37,1274.69 1784.89,1276.02 1795.4,1277.34 1805.92,1278.66 1816.44,1279.98 1826.95,1281.29 1837.47,1282.6 1847.98,1283.91 1858.5,1285.23 1869.02,1286.55 1879.53,1287.89 1890.05,1289.23 1900.56,1290.59 1911.08,1291.96 1921.6,1293.34 1932.11,1294.75 1942.63,1296.18 1953.15,1297.63 1963.66,1299.12 1974.18,1300.63 1984.69,1302.18 1995.21,1303.76 2005.73,1305.39 2016.24,1307.06 2026.76,1308.78 2037.27,1310.55 2047.79,1312.38 2058.31,1314.27 2068.82,1316.23 2079.34,1318.27 2089.85,1320.39 2100.37,1322.6 2110.89,1324.9 2121.4,1327.3 2131.92,1329.82 2142.43,1332.46 2152.95,1335.23 2163.47,1338.14 2173.98,1341.2 2184.5,1344.43 2195.01,1347.83 2205.53,1351.42 2216.05,1355.2 2226.56,1359.19 2237.08,1363.39 2247.6,1367.82 2258.11,1372.48 2268.63,1377.37 2279.14,1382.48 2289.66,1387.82 2300.18,1393.35 2310.69,1399.07 2321.21,1404.95 2331.72,1410.96 2342.24,1417.05 2352.76,855.61 "/>
<path clip-path="url(#clip430)" d="M1898.39 1081.89 L2282.65 1081.89 L2282.65 874.529 L1898.39 874.529  Z" fill="#ffffff" fill-rule="evenodd" fill-opacity="1"/>
<polyline clip-path="url(#clip430)" style="stroke:#000000; stroke-linecap:round; stroke-linejoin:round; stroke-width:4; stroke-opacity:1; fill:none" points="1898.39,1081.89 2282.65,1081.89 2282.65,874.529 1898.39,874.529 1898.39,1081.89 "/>
<polyline clip-path="url(#clip430)" style="stroke:#0000ff; stroke-linecap:round; stroke-linejoin:round; stroke-width:6; stroke-opacity:1; fill:none" points="1921.76,926.369 2061.98,926.369 "/>
<path clip-path="url(#clip430)" d="M2101.18 913.696 L2091.69 939.76 L2110.69 939.76 L2101.18 913.696 M2085.35 943.649 L2098.54 909.089 L2103.84 909.089 L2117.01 943.649 L2085.35 943.649 Z" fill="#000000" fill-rule="nonzero" fill-opacity="1" /><path clip-path="url(#clip430)" d="M2135.09 907.631 L2135.09 917.191 Q2139.7 917.191 2142.78 920.733 Q2145.95 924.344 2145.95 930.709 Q2145.95 937.075 2142.78 940.686 Q2139.7 944.228 2135.09 944.228 L2135.09 953.51 L2130.85 953.51 L2130.85 944.228 Q2126.25 944.228 2123.15 940.686 Q2120 937.075 2120 930.709 Q2120 924.344 2123.15 920.733 Q2126.25 917.191 2130.85 917.191 L2130.85 907.631 L2135.09 907.631 M2135.09 940.431 Q2137.71 940.431 2139.49 938.047 Q2141.43 935.385 2141.46 930.709 Q2141.48 926.08 2139.49 923.371 Q2137.71 920.987 2135.09 920.987 L2135.09 940.431 M2130.85 940.431 L2130.85 920.987 Q2128.24 920.987 2126.48 923.371 Q2124.47 926.08 2124.49 930.709 Q2124.51 935.385 2126.48 938.047 Q2128.24 940.431 2130.85 940.431 Z" fill="#000000" fill-rule="nonzero" fill-opacity="1" /><path clip-path="url(#clip430)" d="M2153.7 922.121 L2183.38 922.121 L2183.38 926.01 L2153.7 926.01 L2153.7 922.121 M2153.7 931.566 L2183.38 931.566 L2183.38 935.501 L2153.7 935.501 L2153.7 931.566 Z" fill="#000000" fill-rule="nonzero" fill-opacity="1" /><path clip-path="url(#clip430)" d="M2190.11 917.723 L2214.95 917.723 L2214.95 921.983 L2211.69 921.983 L2211.69 937.908 Q2211.69 939.575 2212.24 940.316 Q2212.82 941.033 2214.09 941.033 Q2214.44 941.033 2214.95 940.987 Q2215.46 940.918 2215.62 940.894 L2215.62 943.973 Q2214.81 944.274 2213.96 944.413 Q2213.1 944.552 2212.24 944.552 Q2209.47 944.552 2208.4 943.047 Q2207.34 941.519 2207.34 937.445 L2207.34 921.983 L2197.78 921.983 L2197.78 943.649 L2193.42 943.649 L2193.42 921.983 L2190.11 921.983 L2190.11 917.723 Z" fill="#000000" fill-rule="nonzero" fill-opacity="1" /><polyline clip-path="url(#clip430)" style="stroke:#ff0000; stroke-linecap:round; stroke-linejoin:round; stroke-width:6; stroke-opacity:1; fill:none" points="1921.76,978.209 2061.98,978.209 "/>
<path clip-path="url(#clip430)" d="M2101.18 965.536 L2091.69 991.6 L2110.69 991.6 L2101.18 965.536 M2085.35 995.489 L2098.54 960.929 L2103.84 960.929 L2117.01 995.489 L2085.35 995.489 Z" fill="#000000" fill-rule="nonzero" fill-opacity="1" /><path clip-path="url(#clip430)" d="M2135.09 959.471 L2135.09 969.031 Q2139.7 969.031 2142.78 972.573 Q2145.95 976.184 2145.95 982.549 Q2145.95 988.915 2142.78 992.526 Q2139.7 996.068 2135.09 996.068 L2135.09 1005.35 L2130.85 1005.35 L2130.85 996.068 Q2126.25 996.068 2123.15 992.526 Q2120 988.915 2120 982.549 Q2120 976.184 2123.15 972.573 Q2126.25 969.031 2130.85 969.031 L2130.85 959.471 L2135.09 959.471 M2135.09 992.271 Q2137.71 992.271 2139.49 989.887 Q2141.43 987.225 2141.46 982.549 Q2141.48 977.92 2139.49 975.211 Q2137.71 972.827 2135.09 972.827 L2135.09 992.271 M2130.85 992.271 L2130.85 972.827 Q2128.24 972.827 2126.48 975.211 Q2124.47 977.92 2124.49 982.549 Q2124.51 987.225 2126.48 989.887 Q2128.24 992.271 2130.85 992.271 Z" fill="#000000" fill-rule="nonzero" fill-opacity="1" /><path clip-path="url(#clip430)" d="M2153.7 973.961 L2183.38 973.961 L2183.38 977.85 L2153.7 977.85 L2153.7 973.961 M2153.7 983.406 L2183.38 983.406 L2183.38 987.341 L2153.7 987.341 L2153.7 983.406 Z" fill="#000000" fill-rule="nonzero" fill-opacity="1" /><path clip-path="url(#clip430)" d="M2190.11 969.563 L2214.95 969.563 L2214.95 973.823 L2211.69 973.823 L2211.69 989.748 Q2211.69 991.415 2212.24 992.156 Q2212.82 992.873 2214.09 992.873 Q2214.44 992.873 2214.95 992.827 Q2215.46 992.758 2215.62 992.734 L2215.62 995.813 Q2214.81 996.114 2213.96 996.253 Q2213.1 996.392 2212.24 996.392 Q2209.47 996.392 2208.4 994.887 Q2207.34 993.359 2207.34 989.285 L2207.34 973.823 L2197.78 973.823 L2197.78 995.489 L2193.42 995.489 L2193.42 973.823 L2190.11 973.823 L2190.11 969.563 Z" fill="#000000" fill-rule="nonzero" fill-opacity="1" /><path clip-path="url(#clip430)" d="M2228.98 960.929 L2232.91 960.929 L2220.88 999.887 L2216.94 999.887 L2228.98 960.929 Z" fill="#000000" fill-rule="nonzero" fill-opacity="1" /><path clip-path="url(#clip430)" d="M2252.15 976.855 Q2255.51 977.573 2257.38 979.841 Q2259.28 982.11 2259.28 985.443 Q2259.28 990.559 2255.76 993.359 Q2252.24 996.16 2245.76 996.16 Q2243.59 996.16 2241.27 995.721 Q2238.98 995.304 2236.53 994.447 L2236.53 989.934 Q2238.47 991.068 2240.78 991.646 Q2243.1 992.225 2245.62 992.225 Q2250.02 992.225 2252.31 990.489 Q2254.63 988.753 2254.63 985.443 Q2254.63 982.387 2252.47 980.674 Q2250.34 978.938 2246.53 978.938 L2242.5 978.938 L2242.5 975.096 L2246.71 975.096 Q2250.16 975.096 2251.99 973.73 Q2253.82 972.341 2253.82 969.748 Q2253.82 967.086 2251.92 965.674 Q2250.04 964.239 2246.53 964.239 Q2244.6 964.239 2242.4 964.656 Q2240.21 965.073 2237.57 965.952 L2237.57 961.786 Q2240.23 961.045 2242.54 960.674 Q2244.88 960.304 2246.94 960.304 Q2252.27 960.304 2255.37 962.735 Q2258.47 965.142 2258.47 969.262 Q2258.47 972.133 2256.83 974.123 Q2255.18 976.091 2252.15 976.855 Z" fill="#000000" fill-rule="nonzero" fill-opacity="1" /><polyline clip-path="url(#clip430)" style="stroke:#000000; stroke-linecap:round; stroke-linejoin:round; stroke-width:6; stroke-opacity:1; fill:none" points="1921.76,1030.05 2061.98,1030.05 "/>
<path clip-path="url(#clip430)" d="M2101.18 1017.38 L2091.69 1043.44 L2110.69 1043.44 L2101.18 1017.38 M2085.35 1047.33 L2098.54 1012.77 L2103.84 1012.77 L2117.01 1047.33 L2085.35 1047.33 Z" fill="#000000" fill-rule="nonzero" fill-opacity="1" /><path clip-path="url(#clip430)" d="M2135.09 1011.31 L2135.09 1020.87 Q2139.7 1020.87 2142.78 1024.41 Q2145.95 1028.02 2145.95 1034.39 Q2145.95 1040.76 2142.78 1044.37 Q2139.7 1047.91 2135.09 1047.91 L2135.09 1057.19 L2130.85 1057.19 L2130.85 1047.91 Q2126.25 1047.91 2123.15 1044.37 Q2120 1040.76 2120 1034.39 Q2120 1028.02 2123.15 1024.41 Q2126.25 1020.87 2130.85 1020.87 L2130.85 1011.31 L2135.09 1011.31 M2135.09 1044.11 Q2137.71 1044.11 2139.49 1041.73 Q2141.43 1039.07 2141.46 1034.39 Q2141.48 1029.76 2139.49 1027.05 Q2137.71 1024.67 2135.09 1024.67 L2135.09 1044.11 M2130.85 1044.11 L2130.85 1024.67 Q2128.24 1024.67 2126.48 1027.05 Q2124.47 1029.76 2124.49 1034.39 Q2124.51 1039.07 2126.48 1041.73 Q2128.24 1044.11 2130.85 1044.11 Z" fill="#000000" fill-rule="nonzero" fill-opacity="1" /><path clip-path="url(#clip430)" d="M2153.7 1025.8 L2183.38 1025.8 L2183.38 1029.69 L2153.7 1029.69 L2153.7 1025.8 M2153.7 1035.25 L2183.38 1035.25 L2183.38 1039.18 L2153.7 1039.18 L2153.7 1035.25 Z" fill="#000000" fill-rule="nonzero" fill-opacity="1" /><path clip-path="url(#clip430)" d="M2203.47 1015.85 Q2199.86 1015.85 2198.03 1019.41 Q2196.22 1022.95 2196.22 1030.08 Q2196.22 1037.19 2198.03 1040.76 Q2199.86 1044.3 2203.47 1044.3 Q2207.1 1044.3 2208.91 1040.76 Q2210.74 1037.19 2210.74 1030.08 Q2210.74 1022.95 2208.91 1019.41 Q2207.1 1015.85 2203.47 1015.85 M2203.47 1012.14 Q2209.28 1012.14 2212.34 1016.75 Q2215.41 1021.33 2215.41 1030.08 Q2215.41 1038.81 2212.34 1043.42 Q2209.28 1048 2203.47 1048 Q2197.66 1048 2194.58 1043.42 Q2191.53 1038.81 2191.53 1030.08 Q2191.53 1021.33 2194.58 1016.75 Q2197.66 1012.14 2203.47 1012.14 Z" fill="#000000" fill-rule="nonzero" fill-opacity="1" /><path clip-path="url(#clip430)" d="M249.542 80 L2352.76 80 L2352.76 0 L249.542 0  Z" fill="#ffffff" fill-rule="evenodd" fill-opacity="1"/>
<path clip-path="url(#clip430)" d="M576.053 11.232 L623.561 11.232 L623.561 17.6266 L603.625 17.6266 L603.625 67.392 L595.989 67.392 L595.989 17.6266 L576.053 17.6266 L576.053 11.232 Z" fill="#000000" fill-rule="nonzero" fill-opacity="1" /><path clip-path="url(#clip430)" d="M657.528 41.0611 Q659.973 41.8887 662.268 44.597 Q664.6 47.3053 666.932 52.0449 L674.643 67.392 L666.481 67.392 L659.296 52.9852 Q656.513 47.3429 653.88 45.4998 Q651.284 43.6566 646.77 43.6566 L638.495 43.6566 L638.495 67.392 L630.896 67.392 L630.896 11.232 L648.049 11.232 Q657.679 11.232 662.418 15.2569 Q667.158 19.2817 667.158 27.4067 Q667.158 32.7105 664.675 36.2087 Q662.23 39.707 657.528 41.0611 M638.495 17.4762 L638.495 37.4124 L648.049 37.4124 Q653.541 37.4124 656.325 34.8922 Q659.146 32.3343 659.146 27.4067 Q659.146 22.479 656.325 19.9964 Q653.541 17.4762 648.049 17.4762 L638.495 17.4762 Z" fill="#000000" fill-rule="nonzero" fill-opacity="1" /><path clip-path="url(#clip430)" d="M709.513 32.4095 L757.736 32.4095 L757.736 38.729 L709.513 38.729 L709.513 32.4095 M709.513 47.7567 L757.736 47.7567 L757.736 54.1513 L709.513 54.1513 L709.513 47.7567 Z" fill="#000000" fill-rule="nonzero" fill-opacity="1" /><path clip-path="url(#clip430)" d="M799.941 60.9974 L812.354 60.9974 L812.354 18.1533 L798.85 20.8616 L798.85 13.9403 L812.279 11.232 L819.877 11.232 L819.877 60.9974 L832.29 60.9974 L832.29 67.392 L799.941 67.392 L799.941 60.9974 Z" fill="#000000" fill-rule="nonzero" fill-opacity="1" /><path clip-path="url(#clip430)" d="M863.887 16.2349 Q858.019 16.2349 855.047 22.0277 Q852.113 27.7828 852.113 39.3684 Q852.113 50.9164 855.047 56.7092 Q858.019 62.4644 863.887 62.4644 Q869.793 62.4644 872.727 56.7092 Q875.698 50.9164 875.698 39.3684 Q875.698 27.7828 872.727 22.0277 Q869.793 16.2349 863.887 16.2349 M863.887 10.2164 Q873.329 10.2164 878.294 17.7019 Q883.297 25.1497 883.297 39.3684 Q883.297 53.5495 878.294 61.035 Q873.329 68.4829 863.887 68.4829 Q854.446 68.4829 849.443 61.035 Q844.478 53.5495 844.478 39.3684 Q844.478 25.1497 849.443 17.7019 Q854.446 10.2164 863.887 10.2164 Z" fill="#000000" fill-rule="nonzero" fill-opacity="1" /><path clip-path="url(#clip430)" d="M897.44 57.8377 L905.377 57.8377 L905.377 64.3075 L899.208 76.3445 L894.356 76.3445 L897.44 64.3075 L897.44 57.8377 Z" fill="#000000" fill-rule="nonzero" fill-opacity="1" /><path clip-path="url(#clip430)" d="M937.162 11.232 L984.671 11.232 L984.671 17.6266 L964.734 17.6266 L964.734 67.392 L957.098 67.392 L957.098 17.6266 L937.162 17.6266 L937.162 11.232 Z" fill="#000000" fill-rule="nonzero" fill-opacity="1" /><path clip-path="url(#clip430)" d="M992.006 11.232 L1027.51 11.232 L1027.51 17.6266 L999.604 17.6266 L999.604 34.2527 L1026.35 34.2527 L1026.35 40.6474 L999.604 40.6474 L999.604 60.9974 L1028.19 60.9974 L1028.19 67.392 L992.006 67.392 L992.006 11.232 Z" fill="#000000" fill-rule="nonzero" fill-opacity="1" /><path clip-path="url(#clip430)" d="M1065.77 32.4095 L1113.99 32.4095 L1113.99 38.729 L1065.77 38.729 L1065.77 32.4095 M1065.77 47.7567 L1113.99 47.7567 L1113.99 54.1513 L1065.77 54.1513 L1065.77 47.7567 Z" fill="#000000" fill-rule="nonzero" fill-opacity="1" /><path clip-path="url(#clip430)" d="M1154.96 11.232 L1184.79 11.232 L1184.79 17.6266 L1161.92 17.6266 L1161.92 31.3939 Q1163.57 30.8297 1165.23 30.5664 Q1166.88 30.2655 1168.54 30.2655 Q1177.94 30.2655 1183.43 35.4188 Q1188.92 40.5721 1188.92 49.3742 Q1188.92 58.4395 1183.28 63.48 Q1177.64 68.4829 1167.37 68.4829 Q1163.83 68.4829 1160.15 67.881 Q1156.5 67.2792 1152.59 66.0755 L1152.59 58.4395 Q1155.97 60.2827 1159.58 61.1854 Q1163.19 62.0882 1167.22 62.0882 Q1173.73 62.0882 1177.53 58.6652 Q1181.32 55.2422 1181.32 49.3742 Q1181.32 43.5061 1177.53 40.0831 Q1173.73 36.6601 1167.22 36.6601 Q1164.17 36.6601 1161.13 37.3372 Q1158.12 38.0143 1154.96 39.4437 L1154.96 11.232 Z" fill="#000000" fill-rule="nonzero" fill-opacity="1" /><path clip-path="url(#clip430)" d="M1203.89 57.8377 L1211.83 57.8377 L1211.83 67.392 L1203.89 67.392 L1203.89 57.8377 Z" fill="#000000" fill-rule="nonzero" fill-opacity="1" /><path clip-path="url(#clip430)" d="M1244.63 16.2349 Q1238.76 16.2349 1235.79 22.0277 Q1232.86 27.7828 1232.86 39.3684 Q1232.86 50.9164 1235.79 56.7092 Q1238.76 62.4644 1244.63 62.4644 Q1250.54 62.4644 1253.47 56.7092 Q1256.44 50.9164 1256.44 39.3684 Q1256.44 27.7828 1253.47 22.0277 Q1250.54 16.2349 1244.63 16.2349 M1244.63 10.2164 Q1254.07 10.2164 1259.04 17.7019 Q1264.04 25.1497 1264.04 39.3684 Q1264.04 53.5495 1259.04 61.035 Q1254.07 68.4829 1244.63 68.4829 Q1235.19 68.4829 1230.19 61.035 Q1225.22 53.5495 1225.22 39.3684 Q1225.22 25.1497 1230.19 17.7019 Q1235.19 10.2164 1244.63 10.2164 Z" fill="#000000" fill-rule="nonzero" fill-opacity="1" /><path clip-path="url(#clip430)" d="M1278.18 57.8377 L1286.12 57.8377 L1286.12 64.3075 L1279.95 76.3445 L1275.1 76.3445 L1278.18 64.3075 L1278.18 57.8377 Z" fill="#000000" fill-rule="nonzero" fill-opacity="1" /><path clip-path="url(#clip430)" d="M1317.91 11.232 L1365.42 11.232 L1365.42 17.6266 L1345.48 17.6266 L1345.48 67.392 L1337.84 67.392 L1337.84 17.6266 L1317.91 17.6266 L1317.91 11.232 Z" fill="#000000" fill-rule="nonzero" fill-opacity="1" /><path clip-path="url(#clip430)" d="M1374.74 60.9974 L1387.16 60.9974 L1387.16 18.1533 L1373.65 20.8616 L1373.65 13.9403 L1387.08 11.232 L1394.68 11.232 L1394.68 60.9974 L1407.09 60.9974 L1407.09 67.392 L1374.74 67.392 L1374.74 60.9974 Z" fill="#000000" fill-rule="nonzero" fill-opacity="1" /><path clip-path="url(#clip430)" d="M1446.85 32.4095 L1495.08 32.4095 L1495.08 38.729 L1446.85 38.729 L1446.85 32.4095 M1446.85 47.7567 L1495.08 47.7567 L1495.08 54.1513 L1446.85 54.1513 L1446.85 47.7567 Z" fill="#000000" fill-rule="nonzero" fill-opacity="1" /><path clip-path="url(#clip430)" d="M1556.84 17.8523 L1537.66 47.8319 L1556.84 47.8319 L1556.84 17.8523 M1554.85 11.232 L1564.4 11.232 L1564.4 47.8319 L1572.41 47.8319 L1572.41 54.1513 L1564.4 54.1513 L1564.4 67.392 L1556.84 67.392 L1556.84 54.1513 L1531.49 54.1513 L1531.49 46.8163 L1554.85 11.232 Z" fill="#000000" fill-rule="nonzero" fill-opacity="1" /><path clip-path="url(#clip430)" d="M1601.23 16.2349 Q1595.36 16.2349 1592.39 22.0277 Q1589.45 27.7828 1589.45 39.3684 Q1589.45 50.9164 1592.39 56.7092 Q1595.36 62.4644 1601.23 62.4644 Q1607.13 62.4644 1610.07 56.7092 Q1613.04 50.9164 1613.04 39.3684 Q1613.04 27.7828 1610.07 22.0277 Q1607.13 16.2349 1601.23 16.2349 M1601.23 10.2164 Q1610.67 10.2164 1615.63 17.7019 Q1620.64 25.1497 1620.64 39.3684 Q1620.64 53.5495 1615.63 61.035 Q1610.67 68.4829 1601.23 68.4829 Q1591.79 68.4829 1586.78 61.035 Q1581.82 53.5495 1581.82 39.3684 Q1581.82 25.1497 1586.78 17.7019 Q1591.79 10.2164 1601.23 10.2164 Z" fill="#000000" fill-rule="nonzero" fill-opacity="1" /><path clip-path="url(#clip430)" d="M1650.24 16.2349 Q1644.37 16.2349 1641.4 22.0277 Q1638.47 27.7828 1638.47 39.3684 Q1638.47 50.9164 1641.4 56.7092 Q1644.37 62.4644 1650.24 62.4644 Q1656.15 62.4644 1659.08 56.7092 Q1662.05 50.9164 1662.05 39.3684 Q1662.05 27.7828 1659.08 22.0277 Q1656.15 16.2349 1650.24 16.2349 M1650.24 10.2164 Q1659.68 10.2164 1664.65 17.7019 Q1669.65 25.1497 1669.65 39.3684 Q1669.65 53.5495 1664.65 61.035 Q1659.68 68.4829 1650.24 68.4829 Q1640.8 68.4829 1635.8 61.035 Q1630.83 53.5495 1630.83 39.3684 Q1630.83 25.1497 1635.8 17.7019 Q1640.8 10.2164 1650.24 10.2164 Z" fill="#000000" fill-rule="nonzero" fill-opacity="1" /><path clip-path="url(#clip430)" d="M1683.79 57.8377 L1691.73 57.8377 L1691.73 64.3075 L1685.56 76.3445 L1680.71 76.3445 L1683.79 64.3075 L1683.79 57.8377 Z" fill="#000000" fill-rule="nonzero" fill-opacity="1" /><path clip-path="url(#clip430)" d="M1723.52 11.232 L1771.02 11.232 L1771.02 17.6266 L1751.09 17.6266 L1751.09 67.392 L1743.45 67.392 L1743.45 17.6266 L1723.52 17.6266 L1723.52 11.232 Z" fill="#000000" fill-rule="nonzero" fill-opacity="1" /><path clip-path="url(#clip430)" d="M1785.58 60.9974 L1812.1 60.9974 L1812.1 67.392 L1776.44 67.392 L1776.44 60.9974 Q1780.77 56.5211 1788.21 48.998 Q1795.7 41.4373 1797.62 39.2556 Q1801.27 35.1555 1802.7 32.3343 Q1804.16 29.4755 1804.16 26.7296 Q1804.16 22.2534 1801 19.4322 Q1797.88 16.611 1792.84 16.611 Q1789.27 16.611 1785.28 17.8523 Q1781.33 19.0936 1776.82 21.6139 L1776.82 13.9403 Q1781.41 12.0972 1785.39 11.1568 Q1789.38 10.2164 1792.69 10.2164 Q1801.42 10.2164 1806.61 14.5798 Q1811.8 18.9432 1811.8 26.2406 Q1811.8 29.7012 1810.48 32.8233 Q1809.2 35.9078 1805.78 40.1207 Q1804.84 41.2116 1799.8 46.4401 Q1794.76 51.6311 1785.58 60.9974 Z" fill="#000000" fill-rule="nonzero" fill-opacity="1" /><path clip-path="url(#clip430)" d="M1852.46 32.4095 L1900.68 32.4095 L1900.68 38.729 L1852.46 38.729 L1852.46 32.4095 M1852.46 47.7567 L1900.68 47.7567 L1900.68 54.1513 L1852.46 54.1513 L1852.46 47.7567 Z" fill="#000000" fill-rule="nonzero" fill-opacity="1" /><path clip-path="url(#clip430)" d="M1942.89 60.9974 L1955.3 60.9974 L1955.3 18.1533 L1941.8 20.8616 L1941.8 13.9403 L1955.23 11.232 L1962.83 11.232 L1962.83 60.9974 L1975.24 60.9974 L1975.24 67.392 L1942.89 67.392 L1942.89 60.9974 Z" fill="#000000" fill-rule="nonzero" fill-opacity="1" /><path clip-path="url(#clip430)" d="M2006.84 16.2349 Q2000.97 16.2349 1998 22.0277 Q1995.06 27.7828 1995.06 39.3684 Q1995.06 50.9164 1998 56.7092 Q2000.97 62.4644 2006.84 62.4644 Q2012.74 62.4644 2015.67 56.7092 Q2018.65 50.9164 2018.65 39.3684 Q2018.65 27.7828 2015.67 22.0277 Q2012.74 16.2349 2006.84 16.2349 M2006.84 10.2164 Q2016.28 10.2164 2021.24 17.7019 Q2026.24 25.1497 2026.24 39.3684 Q2026.24 53.5495 2021.24 61.035 Q2016.28 68.4829 2006.84 68.4829 Q1997.39 68.4829 1992.39 61.035 Q1987.43 53.5495 1987.43 39.3684 Q1987.43 25.1497 1992.39 17.7019 Q1997.39 10.2164 2006.84 10.2164 Z" fill="#000000" fill-rule="nonzero" fill-opacity="1" /></svg>
